<svg width="63" height="63" viewBox="0 0 63 63" fill="none" xmlns="http://www.w3.org/2000/svg">
<path d="M49.1472 45.6818L53.3418 52.9696L49.9587 52.6107C49.7864 52.5921 49.6126 52.6287 49.4623 52.7151C49.3121 52.8015 49.1931 52.9332 49.1224 53.0915L47.7198 56.2597L42.9899 48.0971C43.22 48.011 43.4444 47.9102 43.6616 47.7953C44.4614 47.3682 45.3335 47.0066 46.4061 46.9742C47.7481 46.9384 48.4941 46.5788 49.1472 45.6818ZM34.4511 45.6749C35.1042 46.5788 35.8544 46.9377 37.197 46.9742C38.2696 47.0066 39.159 47.3324 39.945 47.7953C40.1496 47.9138 40.3466 48.0103 40.5402 48.0888L35.8654 56.2487L34.4663 53.0915C34.3953 52.9328 34.2757 52.8007 34.1247 52.7143C33.9738 52.6278 33.7994 52.5916 33.6265 52.6107L30.2427 52.9696L34.4511 45.6749ZM45.6814 26.8993C46.5494 27.8141 47.447 28.4066 48.7022 28.8226C49.5846 29.1127 49.9256 29.3889 50.1344 30.4767C50.3851 31.7966 50.7833 32.7011 51.6272 33.7599C52.1356 34.3985 52.3409 34.9434 51.9358 35.8948C51.4474 37.0466 51.3323 38.1626 51.4371 39.4722C51.5087 40.3905 51.4543 40.8072 50.5429 41.441C49.4159 42.2305 48.7883 42.9091 48.1607 44.1608C47.799 44.882 47.3492 45.316 46.3193 45.3332C44.9601 45.3594 44.006 45.5888 42.8542 46.3604C42.022 46.9198 41.4151 46.7503 40.7476 46.3604C39.553 45.6598 38.6416 45.3594 37.2811 45.3332C36.2512 45.316 35.8034 44.882 35.4417 44.1608C34.8135 42.9091 34.1893 42.2305 33.0589 41.441C32.1516 40.8066 32.0937 40.3905 32.1654 39.4722C32.2687 38.1626 32.1578 37.0466 31.6666 35.8948C31.265 34.9441 31.4655 34.3985 31.9753 33.7599C32.8185 32.7018 33.2173 31.7966 33.4715 30.4767C33.6768 29.3889 34.0213 29.1134 34.9003 28.8226C36.1554 28.4066 37.0558 27.8176 37.9211 26.8993C38.6065 26.167 39.2313 26.0884 40.0201 26.2682C41.3118 26.5665 42.4347 26.53 43.5872 26.2682C44.4758 26.0671 45.2012 26.3888 45.6814 26.8993ZM44.2754 24.4882C43.9481 24.4916 43.6003 24.5495 43.2276 24.6611C42.2128 24.9656 41.2505 24.865 40.3756 24.6611C40.0302 24.5742 39.6762 24.5257 39.3202 24.5164C38.3337 24.5102 37.5332 24.9153 36.7472 25.744C35.9729 26.5624 35.2661 26.9496 34.3505 27.272C32.8577 27.7969 32.1406 28.6856 31.8568 30.1426C31.6411 31.251 31.2788 31.9874 30.6726 32.7624C29.7005 34.0031 29.5745 35.1019 30.127 36.4831C30.5403 37.513 30.6078 38.381 30.5258 39.3461C30.3929 40.903 30.8916 41.9295 32.0903 42.7685C32.6158 43.1367 33.0773 43.5887 33.4564 44.1063L28.0107 53.5434C27.6731 54.1248 28.1388 54.8461 28.8071 54.7745L33.2056 54.3074L35.0215 58.4015C35.0828 58.54 35.1812 58.6587 35.3059 58.7446C35.4306 58.8305 35.5767 58.8801 35.728 58.8878C35.8792 58.8956 36.0296 58.8613 36.1625 58.7887C36.2953 58.7161 36.4055 58.608 36.4806 58.4766L41.7664 49.2592L47.1053 58.48C47.1809 58.6113 47.2915 58.719 47.4246 58.7913C47.5578 58.8636 47.7084 58.8975 47.8597 58.8894C48.0109 58.8812 48.157 58.8313 48.2817 58.7452C48.4063 58.6591 48.5046 58.5401 48.5658 58.4015L50.381 54.3074L54.7802 54.7745C55.4478 54.8461 55.9141 54.1248 55.5759 53.5434L50.1399 44.1139C50.5213 43.5928 50.9858 43.138 51.5149 42.7678C52.7129 41.9281 53.2075 40.9023 53.0752 39.3454C52.9926 38.3803 53.0608 37.5123 53.4734 36.4824C54.0266 35.1012 53.904 34.0024 52.9285 32.7617C52.3216 31.9867 51.9592 31.251 51.7471 30.1419C51.4639 28.6849 50.7433 27.7962 49.254 27.2713C48.3357 26.9496 47.6323 26.5617 46.8573 25.7433C46.0692 24.9153 45.2584 24.4702 44.2754 24.4882Z" fill="black"/>
<path fill-rule="evenodd" clip-rule="evenodd" d="M40.3459 30.1777C39.0217 30.4898 37.8323 31.2183 36.9525 32.2561C35.1441 34.384 34.9003 37.4586 36.3462 39.8559C37.7922 42.2525 40.6118 43.4326 43.3102 42.7623C46.0052 42.0872 47.9575 39.7195 48.1469 36.9164C48.161 36.806 48.1522 36.6938 48.1212 36.5869C48.0901 36.48 48.0374 36.3806 47.9664 36.2949C47.8953 36.2092 47.8074 36.139 47.7081 36.0887C47.6088 36.0383 47.5003 36.0089 47.3891 36.0022C47.2781 35.9953 47.1669 36.0111 47.0622 36.0486C46.9576 36.0862 46.8617 36.1447 46.7804 36.2206C46.6992 36.2965 46.6342 36.3882 46.5897 36.4901C46.5451 36.592 46.5218 36.7019 46.5211 36.8131C46.3813 38.9231 44.9208 40.677 42.9155 41.1799C40.9136 41.6787 38.8249 40.8107 37.7412 39.0127C37.2134 38.1332 36.9739 37.1107 37.0563 36.0883C37.1387 35.066 37.5389 34.095 38.2007 33.3114C39.5537 31.7146 41.7423 31.1979 43.6436 32.0191C43.7419 32.0617 43.8476 32.0846 43.9547 32.0864C44.0618 32.0883 44.1682 32.069 44.2678 32.0296C44.3674 31.9903 44.4583 31.9318 44.5353 31.8573C44.6123 31.7829 44.6739 31.694 44.7166 31.5958C44.7592 31.4975 44.7821 31.3918 44.7839 31.2847C44.7858 31.1777 44.7664 31.0713 44.7271 30.9716C44.6878 30.872 44.6293 30.7811 44.5548 30.7041C44.4804 30.6271 44.3915 30.5655 44.2933 30.5228C43.0491 29.9853 41.6645 29.8643 40.3459 30.1777Z" fill="black"/>
<path fill-rule="evenodd" clip-rule="evenodd" d="M47.7768 31.3771C47.5647 31.3803 47.3625 31.4669 47.2139 31.6182L41.5843 37.1465L40.0633 35.6289C39.2917 34.8573 38.1399 36.0167 38.9115 36.7848L40.6447 38.5181C41.1497 39.023 42.0004 39.0196 42.5137 38.5181L48.3547 32.7803C48.8852 32.2671 48.5159 31.366 47.7768 31.3771Z" fill="black"/>
<path fill-rule="evenodd" clip-rule="evenodd" d="M19.7872 3.70645C19.5599 3.70645 19.3457 3.80703 19.1982 3.97581L7.81711 17.0571C7.69241 17.1993 7.62361 17.3819 7.62354 17.571V57.9778C7.62354 58.4125 7.97142 58.7638 8.40611 58.7604H31.1718C31.2773 58.7652 31.3826 58.7487 31.4815 58.7117C31.5804 58.6748 31.6708 58.6182 31.7473 58.5454C31.8237 58.4726 31.8846 58.3851 31.9264 58.2882C31.9682 58.1912 31.9899 58.0868 31.9902 57.9812C31.9902 57.5362 31.6162 57.1814 31.1718 57.1987H9.18525V18.3495H21.1657C21.3718 18.3484 21.5691 18.266 21.7147 18.1202C21.8604 17.9745 21.9426 17.7771 21.9435 17.571V8.62236C21.9479 8.51711 21.931 8.41204 21.8937 8.31349C21.8565 8.21494 21.7997 8.12493 21.7268 8.04889C21.6539 7.97285 21.5664 7.91234 21.4695 7.87101C21.3726 7.82967 21.2683 7.80836 21.163 7.80836C21.0576 7.80836 20.9533 7.82967 20.8564 7.87101C20.7595 7.91234 20.672 7.97285 20.5991 8.04889C20.5262 8.12493 20.4694 8.21494 20.4322 8.31349C20.3949 8.41204 20.378 8.51711 20.3824 8.62236V16.7885H10.1173L20.142 5.26678H46.5754V22.3347C46.5743 22.4385 46.5938 22.5415 46.6328 22.6378C46.6717 22.734 46.7294 22.8216 46.8025 22.8954C46.8755 22.9692 46.9624 23.0278 47.0583 23.0677C47.1541 23.1077 47.2569 23.1283 47.3607 23.1283C47.7947 23.1283 48.1495 22.7728 48.1433 22.3347V4.49316C48.1437 4.28512 48.0615 4.08543 47.9147 3.93793C47.768 3.79043 47.5688 3.70718 47.3607 3.70645H19.7872Z" fill="black"/>
<path d="M15.1338 31.8648C14.0929 31.8648 14.168 33.4265 15.2089 33.4265H25.9404C27.0233 33.4265 27.0233 31.8586 25.9404 31.8648C22.6248 31.8868 18.1112 31.8648 15.1338 31.8648ZM15.1338 38.8467C14.0929 38.8467 14.168 40.4077 15.2089 40.4077H25.9404C27.0233 40.4077 27.0233 38.8398 25.9404 38.8467C22.6248 38.8646 18.1112 38.8467 15.1338 38.8467ZM15.1338 45.8286C14.0929 45.8286 14.168 47.3903 15.2089 47.3903H25.9404C27.0233 47.3903 27.0233 45.8224 25.9404 45.8286C22.6248 45.8506 18.1112 45.8286 15.1338 45.8286ZM15.1338 24.8829C14.0929 24.8829 14.168 26.4432 15.2089 26.4432H29.442C30.5263 26.4432 30.5263 24.8753 29.442 24.8829C26.1236 24.9001 18.1112 24.8829 15.1338 24.8829Z" fill="black"/>
</svg>
