<svg width="63" height="63" viewBox="0 0 63 63" fill="none" xmlns="http://www.w3.org/2000/svg">
<g clip-path="url(#clip0_501_156)">
<path fill-rule="evenodd" clip-rule="evenodd" d="M37.2909 53.3015C34.5407 59.3806 27.8483 63.7073 19.9585 63.5808C6.50365 63.7972 -3.46376 51.1522 3.59524 38.749L3.59585 38.748C5.53147 35.3558 8.50832 31.5473 12.5383 27.1307C11.3635 26.5413 10.5519 25.3234 10.5519 23.9222C10.5519 22.0532 12.0034 20.5063 13.8346 20.3531L11.2096 17.7281C9.78406 16.3084 9.7826 13.981 11.2082 12.5553C12.4118 11.3518 14.3243 11.1455 15.7661 12.0641L15.7685 12.0656C15.8841 12.1398 16.0158 12.1544 16.1426 12.1016C16.2696 12.0489 16.3561 11.9477 16.385 11.8132L16.3852 11.8119C16.7402 10.1711 18.212 8.93137 19.9577 8.93137C21.6674 8.93137 23.1629 10.1399 23.5293 11.809L23.5302 11.8132C23.5591 11.9477 23.6456 12.0489 23.7726 12.1016C23.8994 12.1544 24.0311 12.1398 24.1463 12.0659C25.5599 11.1584 27.4738 11.322 28.7069 12.5553L28.7084 12.5568C30.1274 13.9816 30.126 16.3078 28.7069 17.7267L26.0806 20.3531C27.9118 20.5063 29.3633 22.0532 29.3633 23.9222C29.3633 25.3243 28.5507 26.5428 27.3748 27.1318C27.9199 27.7287 28.4457 28.3143 28.952 28.8892C31.8441 24.7957 36.6121 22.1145 41.9847 22.1145C44.592 22.1145 47.0564 22.7455 49.2332 23.8623L54.3013 18.7913C54.4249 18.6677 54.5795 18.5796 54.7489 18.5364C54.9183 18.4932 55.0962 18.4965 55.264 18.5459C55.4317 18.5953 55.5829 18.689 55.7019 18.8171C55.8209 18.9452 55.9031 19.103 55.9399 19.2739L56.5589 22.1458L56.8333 21.8714C57.0157 21.6891 57.2631 21.5867 57.521 21.5867C57.7789 21.5867 58.0263 21.6891 58.2087 21.8714C58.391 22.0538 58.4934 22.3011 58.4934 22.559C58.4934 22.8169 58.391 23.0642 58.2087 23.2467L57.9342 23.5212L60.8062 24.1402C60.977 24.177 61.1348 24.2593 61.2629 24.3782C61.391 24.4971 61.4847 24.6484 61.5341 24.816C61.5835 24.9837 61.5868 25.1616 61.5437 25.331C61.5005 25.5004 61.4125 25.655 61.2889 25.7786L56.2077 30.8597C57.3097 33.0251 57.9317 35.4728 57.9317 38.0615C57.9317 46.8425 50.7692 54.0087 41.9847 54.0087C40.3935 54.0098 38.8111 53.7714 37.2909 53.3015ZM14.8345 27.508C10.4854 32.1945 7.30029 36.1807 5.28553 39.7116C-0.974522 50.7116 8.00612 61.8363 19.9412 61.6357C19.9521 61.6355 19.963 61.6355 19.9739 61.6357C26.9876 61.7537 32.9794 57.9899 35.4679 52.6115C29.9185 50.111 26.0375 44.5236 26.0375 38.0615C26.0375 35.3781 26.7063 32.8461 27.8854 30.6232C27.0103 29.6193 26.0741 28.5818 25.0768 27.508H14.8345ZM16.5729 20.3407H23.3422L27.3316 16.3513C27.9961 15.6868 27.9949 14.5976 27.3309 13.93C26.7537 13.3534 25.8584 13.2782 25.197 13.7028L25.1967 13.7031C24.5266 14.1328 23.7615 14.2036 23.0258 13.8977C22.2915 13.5923 21.7976 13.0031 21.6293 12.2258C21.4576 11.4441 20.7584 10.8765 19.9577 10.8765C19.1412 10.8765 18.4524 11.4557 18.2867 12.222C18.1192 13.0011 17.625 13.5918 16.8894 13.8977C16.1538 14.2036 15.3887 14.1328 14.721 13.7046C14.0449 13.2739 13.1479 13.3664 12.5835 13.9308C11.9169 14.5974 11.9155 15.686 12.5822 16.35L12.5835 16.3513L16.5729 20.3407ZM48.0627 25.4521C46.2229 24.5601 44.1605 24.0596 41.9847 24.0596C34.2747 24.0596 27.9826 30.3485 27.9826 38.0615C27.9826 45.7715 34.2747 52.0636 41.9847 52.0636C49.6977 52.0636 55.9866 45.7715 55.9866 38.0615C55.9866 35.8988 55.492 33.8481 54.6102 32.0166C54.5537 32.0145 54.4976 32.0074 54.4424 31.9955L50.3434 31.1121L50.1428 31.3126C51.6641 33.1476 52.5802 35.5009 52.5802 38.0615C52.5802 43.8941 47.8209 48.6572 41.9847 48.6572C36.1519 48.6572 31.389 43.8941 31.389 38.0615C31.389 32.2253 36.1519 27.466 41.9847 27.466C44.5625 27.466 46.9302 28.3944 48.7705 29.9341L48.9679 29.7367L48.0845 25.6412C48.0711 25.579 48.0638 25.5157 48.0627 25.4521ZM54.9219 23.7827L54.4147 21.4294L50.0976 25.7489L50.6047 28.0999L54.9219 23.7827ZM51.9803 29.4751L54.3342 29.9824L58.6512 25.6654L56.2973 25.1581L51.9803 29.4751ZM47.3895 31.3152C45.9071 30.1245 44.0265 29.4111 41.9847 29.4111C37.2227 29.4111 33.3341 33.2966 33.3341 38.0615C33.3341 42.8235 37.2227 46.7121 41.9847 46.7121C46.7496 46.7121 50.6351 42.8235 50.6351 38.0615C50.6351 36.0368 49.9336 34.1708 48.761 32.6944L46.3303 35.1252C46.9174 35.9917 47.2305 37.0148 47.2288 38.0615C47.2288 40.9581 44.8812 43.3023 41.9847 43.3023C39.0878 43.3023 36.7437 40.9584 36.7437 38.0615C36.7437 35.165 39.0881 32.8173 41.9847 32.8173C43.048 32.8156 44.0866 33.1387 44.9613 33.7434L47.3895 31.3152ZM43.5487 35.156C43.0681 34.8969 42.5306 34.7616 41.9847 34.7624C40.1627 34.7624 38.6888 36.2397 38.6888 38.0615C38.6888 39.8832 40.163 41.3572 41.9847 41.3572C43.8065 41.3572 45.2837 39.8835 45.2837 38.0615C45.2837 37.5135 45.1501 36.9966 44.9136 36.5418L42.6893 38.7661C42.3096 39.1457 41.6934 39.1457 41.3139 38.7661C40.9343 38.3866 40.9343 37.7704 41.3139 37.3908L43.5487 35.156ZM14.1334 25.5629H25.7819C26.6822 25.5629 27.4182 24.8252 27.4182 23.9222C27.4182 23.0224 26.6817 22.2858 25.7819 22.2858H14.1334C13.2334 22.2858 12.497 23.0224 12.497 23.9222C12.497 24.8252 13.2331 25.5629 14.1334 25.5629ZM19.8589 50.5391C19.8944 50.5374 19.9299 50.5376 19.9653 50.5397C19.9989 50.5396 20.0325 50.5391 20.0662 50.5382C20.9304 50.5171 21.8896 50.2962 22.5978 49.8086C23.1685 49.4155 23.549 48.8234 23.45 47.9933C23.3499 47.1745 22.889 46.6444 22.291 46.2836C21.5487 45.8358 20.6187 45.6209 19.7622 45.4804C17.48 45.107 15.0057 44.0051 14.8743 41.2969L14.8741 41.2965C14.7757 39.2462 16.0446 37.746 17.7895 37.0596C18.159 36.9148 18.5425 36.8086 18.9338 36.7426V35.6305C18.9338 35.0937 19.3696 34.658 19.9063 34.658C20.4431 34.658 20.8789 35.0937 20.8789 35.6305V36.7303C22.5683 36.9974 24.1668 38.0069 24.9623 39.9045C25.1698 40.3995 24.9364 40.9699 24.4413 41.1774C23.9463 41.385 23.3759 41.1514 23.1684 40.6564C22.5704 39.2299 21.2606 38.6069 19.976 38.5989C19.9355 38.6018 19.8949 38.6022 19.8543 38.5999C19.3848 38.6113 18.9219 38.7043 18.5017 38.8696C17.5253 39.2537 16.762 40.0556 16.817 41.2027C16.8615 42.1169 17.4362 42.6527 18.1424 42.9977C18.7381 43.2887 19.4263 43.4544 20.0762 43.5608H20.0767C22.4294 43.9469 25.041 44.9689 25.3808 47.7592L25.3811 47.761C25.7193 50.5826 23.2845 52.108 20.8789 52.4232V53.5089C20.8789 54.0456 20.4431 54.4814 19.9063 54.4814C19.3696 54.4814 18.9338 54.0456 18.9338 53.5089V52.4105C16.8367 52.098 14.9793 50.8043 14.4322 48.6071C14.3025 48.0862 14.6201 47.558 15.141 47.4284C15.3913 47.3662 15.656 47.4059 15.877 47.5388C16.0981 47.6717 16.2573 47.8869 16.3197 48.1371C16.7215 49.7507 18.2801 50.5134 19.8589 50.5391ZM35.5612 11.805C35.5612 11.2682 35.9971 10.8325 36.5338 10.8325C37.0705 10.8325 37.5063 11.2682 37.5063 11.805V13.8318C37.5063 14.3685 37.0705 14.8043 36.5338 14.8043C35.9971 14.8043 35.5612 14.3685 35.5612 13.8318V11.805ZM40.6719 14.9704C41.2086 14.9704 41.6444 15.4062 41.6444 15.943C41.6444 16.4798 41.2086 16.9155 40.6719 16.9155H38.6451C38.1082 16.9155 37.6725 16.4798 37.6725 15.943C37.6725 15.4062 38.1082 14.9704 38.6451 14.9704H40.6719ZM37.5063 20.081C37.5063 20.6178 37.0705 21.0536 36.5338 21.0536C35.9971 21.0536 35.5612 20.6178 35.5612 20.081V18.0542C35.5612 17.5175 35.9971 17.0817 36.5338 17.0817C37.0705 17.0817 37.5063 17.5175 37.5063 18.0542V20.081ZM32.3957 16.9155C31.859 16.9155 31.4232 16.4798 31.4232 15.943C31.4232 15.4062 31.859 14.9704 32.3957 14.9704H34.4225C34.9593 14.9704 35.395 15.4062 35.395 15.943C35.395 16.4798 34.9593 16.9155 34.4225 16.9155H32.3957Z" fill="#2166F3"/>
</g>
<defs>
<clipPath id="clip0_501_156">
<rect width="62" height="62" fill="white" transform="translate(0.424805 0.841003)"/>
</clipPath>
</defs>
</svg>
