<svg width="63" height="62" viewBox="0 0 63 62" fill="none" xmlns="http://www.w3.org/2000/svg">
<path d="M57.417 23.4859C57.417 18.8068 53.6098 15.0093 48.9404 15.0093H48.6789C48.3011 9.07088 43.3507 4.34338 37.3154 4.34338C33.5664 4.34338 30.1176 6.15495 27.9767 9.22588C26.6665 8.56551 25.2201 8.2205 23.7529 8.21838C19.5582 8.21838 15.8479 11.0471 14.6854 15.0287C14.4723 15.0093 14.2689 14.9996 14.0654 14.9996C9.39605 14.9996 5.58887 18.7971 5.58887 23.4762C5.58887 27.1574 7.95262 30.3834 11.4014 31.5265V46.7262C11.4014 48.7315 13.0289 50.359 15.0342 50.359H24.6829L23.2298 54.7184H21.8154C21.4182 54.7184 21.0889 55.0478 21.0889 55.4449C21.0889 55.8421 21.4182 56.1715 21.8154 56.1715H41.1904C41.5876 56.1715 41.917 55.8421 41.917 55.4449C41.917 55.0478 41.5876 54.7184 41.1904 54.7184H39.7761L38.3229 50.359H47.9717C49.977 50.359 51.6045 48.7315 51.6045 46.7262V31.5265C55.0532 30.3834 57.417 27.1574 57.417 23.4762V23.4859ZM21.0889 34.1421C21.0889 34.4633 20.9613 34.7713 20.7342 34.9984C20.5071 35.2255 20.1991 35.3531 19.8779 35.3531C19.5568 35.3531 19.2488 35.2255 19.0217 34.9984C18.7946 34.7713 18.667 34.4633 18.667 34.1421C18.667 33.821 18.7946 33.513 19.0217 33.2859C19.2488 33.0588 19.5568 32.9312 19.8779 32.9312C20.1991 32.9312 20.5071 33.0588 20.7342 33.2859C20.9613 33.513 21.0889 33.821 21.0889 34.1421ZM21.4182 31.9818C20.9823 31.6718 20.4495 31.4781 19.8779 31.4781C18.4054 31.4781 17.2139 32.6696 17.2139 34.1421C17.2139 35.6146 18.4054 36.8062 19.8779 36.8062C20.3175 36.8062 20.7502 36.6973 21.1375 36.4892C21.5247 36.2812 21.8544 35.9805 22.0971 35.614C22.3399 35.2476 22.4881 34.8267 22.5285 34.389C22.5689 33.9512 22.5003 33.5103 22.3289 33.1056L25.1673 30.829C25.3417 30.6934 25.4386 30.4803 25.4386 30.2574V21.2965H30.7667V31.5846C29.6526 31.9043 28.8292 32.9215 28.8292 34.1324C28.8292 35.6049 30.0207 36.7965 31.4932 36.7965C32.9657 36.7965 34.1573 35.6049 34.1573 34.1324C34.1573 32.9215 33.3339 31.9043 32.2198 31.5846V21.2965H37.5479V30.2574C37.5479 30.4803 37.6448 30.6837 37.8192 30.829L40.6576 33.1056C40.4861 33.5103 40.4176 33.9512 40.458 34.389C40.4984 34.8267 40.6466 35.2476 40.8893 35.614C41.1321 35.9805 41.4618 36.2812 41.849 36.4892C42.2362 36.6973 42.669 36.8062 43.1086 36.8062C44.5811 36.8062 45.7726 35.6146 45.7726 34.1421C45.7726 32.6696 44.5811 31.4781 43.1086 31.4781C42.537 31.4781 42.0042 31.6621 41.5682 31.9818L38.9914 29.9184V21.3062H47.9523C49.1536 21.3062 50.132 22.2846 50.132 23.4859V43.1031H12.8545V23.4859C12.8545 22.2846 13.8329 21.3062 15.0342 21.3062H23.9951V29.9184L21.4182 31.9818ZM31.5029 32.9312C31.8241 32.9312 32.1321 33.0588 32.3592 33.2859C32.5863 33.513 32.7139 33.821 32.7139 34.1421C32.7139 34.4633 32.5863 34.7713 32.3592 34.9984C32.1321 35.2255 31.8241 35.3531 31.5029 35.3531C31.1818 35.3531 30.8738 35.2255 30.6467 34.9984C30.4196 34.7713 30.292 34.4633 30.292 34.1421C30.292 33.821 30.4196 33.513 30.6467 33.2859C30.8738 33.0588 31.1818 32.9312 31.5029 32.9312ZM43.1279 32.9312C43.4491 32.9312 43.7571 33.0588 43.9842 33.2859C44.2113 33.513 44.3389 33.821 44.3389 34.1421C44.3389 34.4633 44.2113 34.7713 43.9842 34.9984C43.7571 35.2255 43.4491 35.3531 43.1279 35.3531C42.8068 35.3531 42.4988 35.2255 42.2717 34.9984C42.0446 34.7713 41.917 34.4633 41.917 34.1421C41.917 33.821 42.0446 33.513 42.2717 33.2859C42.4988 33.0588 42.8068 32.9312 43.1279 32.9312ZM38.2454 54.7281H24.7604L26.2136 50.3687H36.7923L38.2454 54.7281ZM47.9717 48.9156H15.0342C13.8329 48.9156 12.8545 47.9371 12.8545 46.7359V44.5562H50.1514V46.7359C50.1514 47.9371 49.1729 48.9156 47.9717 48.9156ZM51.6045 29.9765V23.4859C51.6045 21.4806 49.977 19.8531 47.9717 19.8531H15.0342C13.0289 19.8531 11.4014 21.4806 11.4014 23.4859V29.9765C10.1119 29.4504 9.00851 28.552 8.23204 27.3959C7.45556 26.2398 7.04124 24.8785 7.04199 23.4859C7.04199 19.6109 10.1904 16.4624 14.0654 16.4624C14.3851 16.4624 14.7339 16.4915 15.1214 16.5496C15.4992 16.6078 15.8576 16.3559 15.9448 15.9878C16.7392 12.3356 20.0232 9.6812 23.7626 9.6812C25.1964 9.6812 26.6204 10.0784 27.8507 10.8146C28.1898 11.0181 28.6354 10.9115 28.8486 10.5724C30.6795 7.5887 33.8473 5.8062 37.3251 5.8062C42.7986 5.8062 47.2548 10.2624 47.2548 15.8037C47.2548 16.0071 47.342 16.2106 47.497 16.3462C47.652 16.4818 47.8554 16.5496 48.0686 16.5206C48.3592 16.4818 48.6498 16.4624 48.9501 16.4624C52.8251 16.4624 55.9736 19.6109 55.9736 23.4859C55.9736 26.3631 54.2201 28.9012 51.6142 29.9765H51.6045Z" fill="#2166F3"/>
</svg>
