<svg width="63" height="62" viewBox="0 0 63 62" fill="none" xmlns="http://www.w3.org/2000/svg">
<g clip-path="url(#clip0_501_149)">
<path d="M31.4522 61.2574C31.2613 61.2576 31.0726 61.2155 30.8999 61.134C30.7272 61.0525 30.5747 60.9338 30.4533 60.7863C30.332 60.6388 30.2449 60.4662 30.1983 60.281C30.1517 60.0958 30.1468 59.9025 30.1838 59.7152L32.0102 50.5831C32.0587 50.332 32.1821 50.1014 32.3642 49.9218L52.4573 29.8286C53.185 29.1041 54.1701 28.6973 55.197 28.6973C56.2238 28.6973 57.2089 29.1041 57.9366 29.8286L61.5894 33.4814C62.3152 34.2085 62.7229 35.1938 62.7229 36.2211C62.7229 37.2484 62.3152 38.2337 61.5894 38.9607L41.4962 59.0539C41.3159 59.235 41.0857 59.3583 40.8349 59.4078L31.7028 61.2342C31.6202 61.2496 31.5363 61.2574 31.4522 61.2574ZM34.4696 51.4692L33.1004 58.3176L39.9488 56.9484L59.7656 37.1317C60.0077 36.8895 60.1438 36.561 60.1438 36.2185C60.1438 35.876 60.0077 35.5475 59.7656 35.3053L56.1127 31.6524C55.8705 31.4103 55.542 31.2743 55.1995 31.2743C54.857 31.2743 54.5286 31.4103 54.2863 31.6524L34.4696 51.4692ZM25.2677 53.5074H7.18441C5.47197 53.5061 3.83006 52.8252 2.61919 51.6143C1.40831 50.4035 0.727443 48.7615 0.726074 47.0491L0.726074 13.4658C0.726074 9.90336 3.62199 7.00745 7.18441 7.00745H12.3511C12.6936 7.00745 13.0222 7.14353 13.2644 7.38577C13.5067 7.628 13.6427 7.95654 13.6427 8.29911C13.6427 8.64168 13.5067 8.97022 13.2644 9.21246C13.0222 9.45469 12.6936 9.59078 12.3511 9.59078H7.18441C5.04799 9.59078 3.30941 11.3294 3.30941 13.4658V47.0491C3.30941 49.1855 5.04799 50.9241 7.18441 50.9241H25.2677C25.6103 50.9241 25.9389 51.0602 26.1811 51.3024C26.4233 51.5447 26.5594 51.8732 26.5594 52.2158C26.5594 52.5583 26.4233 52.8869 26.1811 53.1291C25.9389 53.3714 25.6103 53.5074 25.2677 53.5074ZM43.3511 30.2574C43.0085 30.2574 42.68 30.1214 42.4377 29.8791C42.1955 29.6369 42.0594 29.3084 42.0594 28.9658V13.4658C42.0594 11.3294 40.3208 9.59078 38.1844 9.59078H33.0177C32.6752 9.59078 32.3466 9.45469 32.1044 9.21246C31.8622 8.97022 31.7261 8.64168 31.7261 8.29911C31.7261 7.95654 31.8622 7.628 32.1044 7.38577C32.3466 7.14353 32.6752 7.00745 33.0177 7.00745H38.1844C41.7468 7.00745 44.6427 9.90336 44.6427 13.4658V28.9658C44.6427 29.3084 44.5067 29.6369 44.2644 29.8791C44.0222 30.1214 43.6936 30.2574 43.3511 30.2574Z" fill="#2166F3"/>
<path d="M30.4344 14.7574H14.9344C12.798 14.7574 11.0594 13.0189 11.0594 10.8824V5.71578C11.0594 5.37321 11.1955 5.04467 11.4377 4.80243C11.68 4.5602 12.0085 4.42411 12.3511 4.42411H16.3552C16.9546 1.47911 19.5663 -0.742554 22.6844 -0.742554C25.8025 -0.742554 28.4142 1.47911 29.0136 4.42411H33.0177C33.3603 4.42411 33.6889 4.5602 33.9311 4.80243C34.1733 5.04467 34.3094 5.37321 34.3094 5.71578V10.8824C34.3094 13.0189 32.5708 14.7574 30.4344 14.7574ZM13.6427 7.00745V10.8824C13.6427 11.5929 14.224 12.1741 14.9344 12.1741H30.4344C31.1448 12.1741 31.7261 11.5929 31.7261 10.8824V7.00745H27.8511C27.5085 7.00745 27.18 6.87136 26.9377 6.62913C26.6955 6.38689 26.5594 6.05835 26.5594 5.71578C26.5594 3.57936 24.8208 1.84078 22.6844 1.84078C20.548 1.84078 18.8094 3.57936 18.8094 5.71578C18.8094 6.05835 18.6733 6.38689 18.4311 6.62913C18.1889 6.87136 17.8603 7.00745 17.5177 7.00745H13.6427ZM35.6011 22.5074H9.76774C9.42517 22.5074 9.09663 22.3714 8.85439 22.1291C8.61216 21.8869 8.47607 21.5584 8.47607 21.2158C8.47607 20.8732 8.61216 20.5447 8.85439 20.3024C9.09663 20.0602 9.42517 19.9241 9.76774 19.9241H35.6011C35.9436 19.9241 36.2722 20.0602 36.5144 20.3024C36.7567 20.5447 36.8927 20.8732 36.8927 21.2158C36.8927 21.5584 36.7567 21.8869 36.5144 22.1291C36.2722 22.3714 35.9436 22.5074 35.6011 22.5074ZM35.6011 30.2574H9.76774C9.42517 30.2574 9.09663 30.1214 8.85439 29.8791C8.61216 29.6369 8.47607 29.3084 8.47607 28.9658C8.47607 28.6232 8.61216 28.2947 8.85439 28.0524C9.09663 27.8102 9.42517 27.6741 9.76774 27.6741H35.6011C35.9436 27.6741 36.2722 27.8102 36.5144 28.0524C36.7567 28.2947 36.8927 28.6232 36.8927 28.9658C36.8927 29.3084 36.7567 29.6369 36.5144 29.8791C36.2722 30.1214 35.9436 30.2574 35.6011 30.2574ZM35.6011 38.0074H9.76774C9.42517 38.0074 9.09663 37.8714 8.85439 37.6291C8.61216 37.3869 8.47607 37.0583 8.47607 36.7158C8.47607 36.3732 8.61216 36.0447 8.85439 35.8024C9.09663 35.5602 9.42517 35.4241 9.76774 35.4241H35.6011C35.9436 35.4241 36.2722 35.5602 36.5144 35.8024C36.7567 36.0447 36.8927 36.3732 36.8927 36.7158C36.8927 37.0583 36.7567 37.3869 36.5144 37.6291C36.2722 37.8714 35.9436 38.0074 35.6011 38.0074Z" fill="#2166F3"/>
</g>
<defs>
<clipPath id="clip0_501_149">
<rect width="62" height="62" fill="white" transform="translate(0.726074)"/>
</clipPath>
</defs>
</svg>
