<svg width="80" height="80" viewBox="0 0 80 80" fill="none" xmlns="http://www.w3.org/2000/svg">
<path d="M73.5417 22.5C73.1548 22.5001 72.7836 22.347 72.5092 22.0742L68.1342 17.6992C67.8685 17.4241 67.7215 17.0557 67.7248 16.6734C67.7282 16.291 67.8815 15.9252 68.1519 15.6548C68.4223 15.3845 68.7881 15.2311 69.1705 15.2278C69.5528 15.2244 69.9212 15.3714 70.1963 15.6371L74.5713 20.0121C74.7746 20.216 74.9129 20.4756 74.9689 20.758C75.0249 21.0405 74.9961 21.3332 74.886 21.5993C74.7759 21.8654 74.5894 22.0929 74.3502 22.2532C74.111 22.4135 73.8296 22.4994 73.5417 22.5ZM47.2917 22.5H9.375C6.96292 22.5 5 20.5371 5 18.125V9.375C5 6.96292 6.96292 5 9.375 5H47.2917C49.7037 5 51.6667 6.96292 51.6667 9.375V18.125C51.6667 20.5371 49.7037 22.5 47.2917 22.5ZM11.4583 10C10.6563 10 10 10.6562 10 11.4583V16.0417C10 16.8437 10.6563 17.5 11.4583 17.5H45C45.8021 17.5 46.4583 16.8437 46.4583 16.0417L46.5 11.4583C46.5 10.6562 45.8437 10 45.0417 10H11.4583ZM21.0417 34.1667H6.45833C6.07156 34.1667 5.70063 34.013 5.42714 33.7395C5.15365 33.466 5 33 5 32C5 31 5.15412 30.7006 5.42761 30.4271C5.7011 30.1536 6.07204 30 6.45881 30H21.0421C21.4289 30 21.7999 30.1536 22.0733 30.4271C22.3468 30.7006 22.5 31 22.5 32C22.5 33 22.3464 33.466 22.0729 33.7395C21.7994 34.013 21.4284 34.1667 21.0417 34.1667ZM70.625 75H32.7083C30.2963 75 28.3333 73.0371 28.3333 70.625V32.7083C28.3333 30.2963 30.2963 28.3333 32.7083 28.3333H70.625C73.0371 28.3333 75 30.2963 75 32.7083V70.625C75 73.0371 73.0371 75 70.625 75ZM34.9583 33.5C34.1563 33.5 33.5 34.1563 33.5 34.9583V68.5C33.5 69.3021 34.1563 69.9583 34.9583 69.9583H68.5417C69.3437 69.9583 70 69.3021 70 68.5V34.9583C70 34.1563 69.3437 33.5 68.5417 33.5H34.9583Z" fill="#2166F3"/>
<path d="M6.45833 34.1667H21.0417C21.4284 34.1667 21.7994 34.013 22.0729 33.7395C22.3464 33.466 22.5 33 22.5 32C22.5 31 22.3468 30.7006 22.0733 30.4271C21.7999 30.1536 21.4289 30 21.0421 30H6.45881C6.07204 30 5.7011 30.1536 5.42761 30.4271C5.15412 30.7006 5 31 5 32C5 33 5.15365 33.466 5.42714 33.7395C5.70063 34.013 6.07156 34.1667 6.45833 34.1667Z" fill="#2166F3"/>
<path d="M6.45833 42.6667H21.0417C21.4284 42.6667 21.7994 42.513 22.0729 42.2395C22.3464 41.966 22.5 41.5 22.5 40.5C22.5 39.5 22.3468 39.2006 22.0733 38.9271C21.7999 38.6536 21.4289 38.5 21.0421 38.5H6.45881C6.07204 38.5 5.7011 38.6536 5.42761 38.9271C5.15412 39.2006 5 39.5 5 40.5C5 41.5 5.15365 41.966 5.42714 42.2395C5.70063 42.513 6.07156 42.6667 6.45833 42.6667Z" fill="#2166F3"/>
<path d="M6.45833 51.6667H21.0417C21.4284 51.6667 21.7994 51.513 22.0729 51.2395C22.3464 50.966 22.5 50.5 22.5 49.5C22.5 48.5 22.3468 48.2006 22.0733 47.9271C21.7999 47.6536 21.4289 47.5 21.0421 47.5H6.45881C6.07204 47.5 5.7011 47.6536 5.42761 47.9271C5.15412 48.2006 5 48.5 5 49.5C5 50.5 5.15365 50.966 5.42714 51.2395C5.70063 51.513 6.07156 51.6667 6.45833 51.6667Z" fill="#2166F3"/>
<path d="M51.75 52C48.3065 52 45.5 49.1935 45.5 45.75C45.5 42.3065 48.3065 39.5 51.75 39.5C55.1935 39.5 58 42.3065 58 45.75C58 49.1935 55.1935 52 51.75 52Z" stroke="#2166F3" stroke-width="5"/>
<path d="M13.75 72C10.3065 72 7.5 69.1935 7.5 65.75C7.5 62.3065 10.3065 59.5 13.75 59.5C17.1935 59.5 20 62.3065 20 65.75C20 69.1935 17.1935 72 13.75 72Z" stroke="#2166F3" stroke-width="5"/>
<path d="M66 18C63.2452 18 61 15.7548 61 13C61 10.2452 63.2452 8 66 8C68.7548 8 71 10.2452 71 13C71 15.7548 68.7548 18 66 18Z" stroke="#2166F3" stroke-width="4"/>
<path d="M43 64.75C43 59.9258 46.9258 56 51.75 56C56.5742 56 60.5 59.9258 60.5 64.75" stroke="#2166F3" stroke-width="5" stroke-linecap="round"/>
</svg>
