<svg width="55" height="55" viewBox="0 0 55 55" fill="none" xmlns="http://www.w3.org/2000/svg">
<g clip-path="url(#clip0_137_68)">
<mask id="mask0_137_68" style="mask-type:luminance" maskUnits="userSpaceOnUse" x="2" y="3" width="50" height="50">
<path d="M2 3.00014H51.9999V53H2V3.00014Z" fill="white"/>
</mask>
<g mask="url(#mask0_137_68)">
<path d="M24.3172 52.0234C12.6016 52.0234 3.07031 42.4926 3.07031 30.7776C3.07031 19.0626 12.6016 9.53187 24.3172 9.53187C36.0327 9.53187 45.564 19.0626 45.564 30.7776C45.564 42.4926 36.0327 52.0234 24.3172 52.0234Z" stroke="#2166F3" stroke-width="2" stroke-miterlimit="10" stroke-linecap="round" stroke-linejoin="round"/>
<path d="M18.8623 15.6309C20.5666 15.0153 22.4037 14.6796 24.3177 14.6796C33.1948 14.6796 40.4168 21.9012 40.4168 30.7778C40.4168 39.6543 33.1948 46.876 24.3177 46.876C15.4407 46.876 8.21875 39.6543 8.21875 30.7778C8.21875 27.239 9.3665 23.9633 11.3093 21.3033" stroke="#2166F3" stroke-width="2" stroke-miterlimit="10" stroke-linecap="round" stroke-linejoin="round"/>
<path d="M29.291 40.5317C27.7974 41.2964 26.1064 41.728 24.3165 41.728C18.2779 41.728 13.3652 36.8156 13.3652 30.7775C13.3652 24.7392 18.2779 19.8268 24.3165 19.8268C30.3549 19.8268 35.2675 24.7392 35.2675 30.7775C35.2675 31.9805 35.0725 33.1389 34.7125 34.2226" stroke="#2166F3" stroke-width="2" stroke-miterlimit="10" stroke-linecap="round" stroke-linejoin="round"/>
<path d="M30.1204 30.7776C30.1204 33.9824 27.5222 36.5806 24.3171 36.5806C21.112 36.5806 18.5137 33.9824 18.5137 30.7776C18.5137 27.5726 21.112 24.9745 24.3171 24.9745C27.5222 24.9745 30.1204 27.5726 30.1204 30.7776Z" stroke="#2166F3" stroke-width="2" stroke-miterlimit="10" stroke-linecap="round" stroke-linejoin="round"/>
<path d="M42.7899 12.1256L24.4336 30.481" stroke="#2166F3" stroke-width="2" stroke-miterlimit="10" stroke-linecap="round" stroke-linejoin="round"/>
<path d="M44.3072 3.9766L40.0517 8.23196C39.5236 8.76001 39.2148 9.46835 39.1875 10.2147L39.2839 15.6313L44.7681 10.1384L44.3072 3.9766Z" stroke="#2166F3" stroke-width="2" stroke-miterlimit="10" stroke-linecap="round" stroke-linejoin="round"/>
<path d="M50.9297 10.5993L44.7675 10.1384L39.2832 15.6313L44.6912 15.7188C45.4376 15.6915 46.146 15.3828 46.6741 14.8547L50.9297 10.5993Z" stroke="#2166F3" stroke-width="2" stroke-miterlimit="10" stroke-linecap="round" stroke-linejoin="round"/>
</g>
</g>
<defs>
<clipPath id="clip0_137_68">
<rect width="50" height="50" fill="white" transform="translate(2 3)"/>
</clipPath>
</defs>
</svg>
