<svg width="55" height="50" viewBox="0 0 55 50" fill="none" xmlns="http://www.w3.org/2000/svg">
<path d="M49.9998 0H4.54547C2.03852 0 0 2.03863 0 4.54547V36.3636C0 38.8704 2.03852 40.9091 4.54547 40.9091H20.4576C20.4086 42.7257 20.0604 45.6291 18.7644 46.9926C18.2883 47.4941 17.7413 47.7272 17.0455 47.7272C16.4174 47.7272 15.9091 48.2355 15.9091 48.8636C15.9091 49.4917 16.4174 50 17.0455 50H37.5C38.1281 50 38.6364 49.4917 38.6364 48.8636C38.6364 48.2355 38.1281 47.7272 37.5 47.7272C36.8042 47.7272 36.257 47.4941 35.7811 46.9926C34.4851 45.6291 34.1368 42.7257 34.0879 40.9091H50C52.5068 40.9091 54.5455 38.8705 54.5455 36.3636V4.54547C54.5453 2.03863 52.5067 0 49.9998 0ZM21.0648 47.7271C22.4371 45.6232 22.7027 42.5935 22.7369 40.9089H31.8083C31.8426 42.5936 32.1081 45.6232 33.4803 47.7271H21.0648ZM52.2726 36.3636C52.2726 37.6164 51.2527 38.6363 49.9999 38.6363H4.54547C3.29264 38.6363 2.27279 37.6164 2.27279 36.3636V31.8181H52.2726V36.3636ZM52.2726 29.5454H2.27268V4.54547C2.27268 3.29264 3.29253 2.27279 4.54537 2.27279H49.9998C51.2526 2.27279 52.2725 3.29264 52.2725 4.54547V29.5454H52.2726Z" fill="#2166F3"/>
<path d="M27.2727 37.5C28.5279 37.5 29.5454 36.4824 29.5454 35.2273C29.5454 33.9721 28.5279 32.9546 27.2727 32.9546C26.0175 32.9546 25 33.9721 25 35.2273C25 36.4824 26.0175 37.5 27.2727 37.5Z" fill="#2166F3"/>
<path d="M27.2728 6.81836C26.4311 6.81836 25.7243 7.29957 25.3314 7.9816C13.0902 8.25411 8.36502 14.5717 7.99204 20.7791C7.30383 21.1702 6.81836 21.8812 6.81836 22.7275C6.81836 23.9803 7.83821 25.0001 9.09104 25.0001C10.3439 25.0001 11.3637 23.9803 11.3637 22.7275C11.3637 21.9123 10.9083 21.2285 10.2615 20.8273C10.5005 17.6365 12.5126 10.5399 25.3691 10.2563C25.7695 10.9062 26.4553 11.3638 27.2728 11.3638C28.5257 11.3638 29.5455 10.344 29.5455 9.09115C29.5455 7.83821 28.5257 6.81836 27.2728 6.81836Z" fill="#2166F3"/>
<path d="M47.3001 18.4301L35.9365 9.33923C35.5936 9.06512 35.1254 9.01292 34.7335 9.20276C34.3406 9.3925 34.0898 9.78976 34.0898 10.2271V24.9997C34.0898 25.4824 34.3951 25.9119 34.85 26.0717C34.9731 26.115 35.1007 26.1361 35.2261 26.1361C35.5646 26.1361 35.893 25.9841 36.1139 25.7099L40.3175 20.4543H46.5897C47.0724 20.4543 47.5019 20.1491 47.6617 19.6942C47.8217 19.2391 47.6763 18.732 47.3001 18.4301ZM39.7717 18.1815C39.4265 18.1815 39.1003 18.338 38.884 18.6077L36.3626 21.7604V12.5918L43.3506 18.1815H39.7717Z" fill="#2166F3"/>
</svg>
