<svg width="54" height="50" viewBox="0 0 54 50" fill="none" xmlns="http://www.w3.org/2000/svg">
<path d="M48.203 47.9997C47.2107 47.9997 46.406 47.1953 46.406 46.2027C46.406 42.6362 43.523 39.7337 39.9801 39.7337H38.4577C34.9141 39.7337 32.0314 42.6358 32.0314 46.2027C32.0314 47.1949 31.2271 47.9997 30.2345 47.9997C29.2418 47.9997 28.4375 47.1953 28.4375 46.2027C28.4375 40.6541 32.9324 36.1401 38.4573 36.1401H39.9798C45.505 36.1401 50 40.6541 50 46.2027C50 47.1953 49.1956 47.9997 48.203 47.9997ZM46.7655 25.8083C46.7655 21.5974 43.3397 18.1716 39.1288 18.1716C34.918 18.1716 31.4921 21.5974 31.4921 25.8083C31.4921 30.0191 34.918 33.445 39.1288 33.445C43.3397 33.445 46.7655 30.0195 46.7655 25.8083ZM43.1719 25.8083C43.1719 28.0374 41.358 29.8513 39.1288 29.8513C36.8997 29.8513 35.0858 28.0374 35.0858 25.8083C35.0858 23.5788 36.8997 21.7652 39.1288 21.7652C41.358 21.7652 43.1719 23.5791 43.1719 25.8083ZM24.8438 46.203C24.8438 45.2107 24.0394 44.406 23.0468 44.406H14.7795C10.8175 44.406 7.59364 41.1821 7.59364 37.2201V12.7795C7.59364 8.81717 10.8175 5.59364 14.7795 5.59364H31.3159C35.2782 5.59364 38.5018 8.81717 38.5018 12.7795C38.5018 13.7718 39.3061 14.5765 40.2988 14.5765C41.2914 14.5765 42.0958 13.7721 42.0958 12.7795C42.0958 6.83582 37.2603 2 31.3145 2H14.7795C8.83582 2 4 6.83582 4 12.7795V37.2205C4 43.1645 8.83582 48 14.7795 48H23.0468C24.0394 47.9996 24.8438 47.1953 24.8438 46.203ZM15.2303 11.0742C13.9896 11.0742 12.9843 12.0798 12.9843 13.3202C12.9843 14.5606 13.9899 15.5663 15.2303 15.5663C16.4708 15.5663 17.4764 14.5606 17.4764 13.3202C17.4764 12.0798 16.4711 11.0742 15.2303 11.0742ZM22.9569 11.0742C21.7162 11.0742 20.7109 12.0798 20.7109 13.3202C20.7109 14.5606 21.7165 15.5663 22.9569 15.5663C24.1973 15.5663 25.203 14.5606 25.203 13.3202C25.203 12.0798 24.1977 11.0742 22.9569 11.0742ZM30.6835 11.0742C29.4431 11.0742 28.4375 12.0798 28.4375 13.3202C28.4375 14.5606 29.4435 15.5663 30.6835 15.5663C31.9236 15.5663 32.9296 14.5606 32.9296 13.3202C32.9296 12.0798 31.9239 11.0742 30.6835 11.0742ZM15.2303 18.8008C13.9896 18.8008 12.9843 19.8064 12.9843 21.0468C12.9843 22.2872 13.9899 23.2929 15.2303 23.2929C16.4708 23.2929 17.4764 22.2872 17.4764 21.0468C17.4764 19.8064 16.4711 18.8008 15.2303 18.8008ZM15.2303 26.527C13.9896 26.527 12.9843 27.533 12.9843 28.7731C12.9843 30.0138 13.9899 31.0191 15.2303 31.0191C16.4708 31.0191 17.4764 30.0135 17.4764 28.7731C17.4764 27.533 16.4711 26.527 15.2303 26.527ZM15.2303 34.2536C13.9896 34.2536 12.9843 35.2596 12.9843 36.4996C12.9843 37.7404 13.9899 38.7457 15.2303 38.7457C16.4708 38.7457 17.4764 37.7401 17.4764 36.4996C17.4764 35.2596 16.4711 34.2536 15.2303 34.2536ZM22.9569 18.8008C21.7162 18.8008 20.7109 19.8064 20.7109 21.0468C20.7109 22.2872 21.7165 23.2929 22.9569 23.2929C24.1973 23.2929 25.203 22.2872 25.203 21.0468C25.203 19.8064 24.1977 18.8008 22.9569 18.8008ZM22.9569 26.527C21.7162 26.527 20.7109 27.533 20.7109 28.7731C20.7109 30.0138 21.7165 31.0191 22.9569 31.0191C24.1973 31.0191 25.203 30.0135 25.203 28.7731C25.203 27.533 24.1977 26.527 22.9569 26.527ZM22.9569 34.2536C21.7162 34.2536 20.7109 35.2596 20.7109 36.4996C20.7109 37.7404 21.7165 38.7457 22.9569 38.7457C24.1973 38.7457 25.203 37.7401 25.203 36.4996C25.203 35.2596 24.1977 34.2536 22.9569 34.2536Z" fill="black"/>
</svg>
