<svg width="80" height="80" viewBox="0 0 80 80" fill="none" xmlns="http://www.w3.org/2000/svg">
<path d="M64.9999 52.5V50C64.9999 49.337 65.2633 48.7011 65.7321 48.2322C66.201 47.7634 66.8369 47.5 67.4999 47.5C68.1629 47.5 68.7988 47.7634 69.2677 48.2322C69.7365 48.7011 69.9999 49.337 69.9999 50V75H74.9999V50C74.9979 48.0115 74.2071 46.105 72.801 44.6989C71.3949 43.2928 69.4884 42.502 67.4999 42.5C66.2085 42.5082 64.9416 42.8538 63.8249 43.5025C62.8129 41.8644 61.2012 40.6863 59.3332 40.2193C57.4652 39.7523 55.4887 40.0333 53.8249 41.0025C53.1524 39.9319 52.2196 39.0491 51.1135 38.4366C50.0075 37.8241 48.7642 37.5019 47.4999 37.5C46.6461 37.5088 45.8003 37.6653 44.9999 37.9625V25C44.9999 23.0109 44.2097 21.1032 42.8032 19.6967C41.3967 18.2902 39.489 17.5 37.4999 17.5C35.5108 17.5 33.6031 18.2902 32.1966 19.6967C30.7901 21.1032 29.9999 23.0109 29.9999 25V52.7625L24.4124 48.9375C22.8857 47.8219 20.9939 47.3269 19.1159 47.5471C17.238 47.7672 15.5126 48.6888 14.2853 50.1273C13.058 51.5657 12.4196 53.4147 12.4979 55.3039C12.5762 57.1931 13.3654 58.983 14.7074 60.315L30.8074 75L34.1749 71.305L18.2299 56.76C17.998 56.5294 17.814 56.2552 17.6887 55.9531C17.5634 55.651 17.4993 55.327 17.4999 55C17.4999 54.5357 17.6292 54.0806 17.8733 53.6857C18.1174 53.2907 18.4666 52.9716 18.8819 52.7639C19.2971 52.5563 19.762 52.4684 20.2244 52.5101C20.6868 52.5518 21.1285 52.7214 21.4999 53L34.9999 62.2375V25C34.9999 24.337 35.2633 23.7011 35.7321 23.2322C36.201 22.7634 36.8369 22.5 37.4999 22.5C38.1629 22.5 38.7988 22.7634 39.2677 23.2322C39.7365 23.7011 39.9999 24.337 39.9999 25V52.5H44.9999V45C44.9999 44.337 45.2633 43.7011 45.7321 43.2322C46.201 42.7634 46.8369 42.5 47.4999 42.5C48.1629 42.5 48.7988 42.7634 49.2677 43.2322C49.7365 43.7011 49.9999 44.337 49.9999 45V52.5H54.9999V47.5C54.9999 46.837 55.2633 46.2011 55.7321 45.7322C56.201 45.2634 56.8369 45 57.4999 45C58.1629 45 58.7988 45.2634 59.2677 45.7322C59.7365 46.2011 59.9999 46.837 59.9999 47.5V52.5H64.9999Z" fill="#2166F3"/>
<path d="M70 30H55V25H70V10H10V25H20V30H10C8.67432 29.9987 7.40332 29.4715 6.46593 28.5341C5.52853 27.5967 5.00132 26.3257 5 25V10C5.00132 8.67432 5.52853 7.40332 6.46593 6.46593C7.40332 5.52853 8.67432 5.00132 10 5H70C71.3257 5.00132 72.5967 5.52853 73.5341 6.46593C74.4715 7.40332 74.9987 8.67432 75 10V25C74.9987 26.3257 74.4715 27.5967 73.5341 28.5341C72.5967 29.4715 71.3257 29.9987 70 30Z" fill="#2166F3"/>
</svg>
