<svg width="51" height="51" viewBox="0 0 51 51" fill="none" xmlns="http://www.w3.org/2000/svg">
<path d="M49.4337 46.7363H31.9546C31.4152 46.7363 30.9781 47.1735 30.9781 47.7128C30.9781 48.2521 31.4153 48.6893 31.9546 48.6893H49.4337C49.973 48.6893 50.4102 48.2521 50.4102 47.7128C50.4102 47.1735 49.9729 46.7363 49.4337 46.7363ZM18.772 46.7363H1.39053C0.851172 46.7363 0.414062 47.1735 0.414062 47.7128C0.414062 48.2521 0.85127 48.6893 1.39053 48.6893H18.772C19.3113 48.6893 19.7484 48.2521 19.7484 47.7128C19.7484 47.1735 19.3112 46.7363 18.772 46.7363ZM25.7981 20.6184H18.2306C17.6912 20.6184 17.2541 21.0556 17.2541 21.5948C17.2541 22.1342 17.6913 22.5713 18.2306 22.5713H25.7981C26.3375 22.5713 26.7746 22.1341 26.7746 21.5948C26.7746 21.0556 26.3374 20.6184 25.7981 20.6184ZM33.3987 20.9043C33.2152 20.7218 32.9672 20.619 32.7084 20.6182C32.4506 20.6182 32.1986 20.7227 32.0181 20.9043C31.8352 21.0876 31.7324 21.3358 31.7319 21.5946C31.7319 21.8515 31.8354 22.1034 32.0181 22.285C32.1997 22.4666 32.4507 22.5711 32.7084 22.5711C32.9652 22.5711 33.2172 22.4666 33.3987 22.285C33.5803 22.1033 33.6849 21.8514 33.6849 21.5946C33.6849 21.3379 33.5804 21.0859 33.3987 20.9043ZM29.9878 20.9043C29.8039 20.7218 29.5556 20.619 29.2965 20.6182C29.0396 20.6182 28.7877 20.7227 28.6062 20.9043C28.4237 21.0878 28.3209 21.3358 28.32 21.5946C28.32 21.8524 28.4245 22.1034 28.6062 22.285C28.7888 22.4666 29.0397 22.5711 29.2965 22.5711C29.5532 22.5711 29.8053 22.4666 29.9878 22.285C30.1694 22.1033 30.2729 21.8514 30.2729 21.5946C30.2729 21.3379 30.1694 21.0859 29.9878 20.9043ZM25.7981 28.4303H18.2306C17.6912 28.4303 17.2541 28.8675 17.2541 29.4067C17.2541 29.946 17.6913 30.3832 18.2306 30.3832H25.7981C26.3375 30.3832 26.7746 29.946 26.7746 29.4067C26.7746 28.8675 26.3374 28.4303 25.7981 28.4303ZM33.3987 28.7162C33.2152 28.5338 32.9672 28.431 32.7084 28.4301C32.4506 28.4301 32.1996 28.5346 32.0181 28.7162C31.8352 28.8995 31.7324 29.1477 31.7319 29.4065C31.7319 29.6644 31.8354 29.9153 32.0181 30.0969C32.1997 30.2785 32.4507 30.383 32.7084 30.383C32.9652 30.383 33.2172 30.2785 33.3987 30.0969C33.5803 29.9152 33.6849 29.6633 33.6849 29.4065C33.6849 29.1498 33.5804 28.8979 33.3987 28.7162ZM29.9878 28.7162C29.8039 28.5337 29.5556 28.431 29.2965 28.4301C29.0396 28.4301 28.7877 28.5346 28.6062 28.7162C28.4245 28.8979 28.32 29.1498 28.32 29.4065C28.32 29.6633 28.4245 29.9153 28.6062 30.0969C28.7878 30.2785 29.0397 30.383 29.2965 30.383C29.5543 30.383 29.8053 30.2785 29.9878 30.0969C30.1694 29.9152 30.2729 29.6633 30.2729 29.4065C30.2729 29.1498 30.1694 28.8979 29.9878 28.7162ZM25.7981 36.2422H18.2306C17.6912 36.2422 17.2541 36.6794 17.2541 37.2187C17.2541 37.7579 17.6913 38.1951 18.2306 38.1951H25.7981C26.3375 38.1951 26.7746 37.7579 26.7746 37.2187C26.7746 36.6794 26.3374 36.2422 25.7981 36.2422ZM33.3987 36.5281C33.2151 36.3458 32.9671 36.2431 32.7084 36.242C32.4506 36.242 32.1996 36.3465 32.0171 36.5281C31.8355 36.7098 31.7319 36.9617 31.7319 37.2185C31.7319 37.4752 31.8355 37.7272 32.0171 37.9088C32.1997 38.0904 32.4507 38.1949 32.7084 38.1949C32.9652 38.1949 33.2172 38.0904 33.3987 37.9088C33.5803 37.7271 33.6849 37.4752 33.6849 37.2185C33.6849 36.9617 33.5804 36.7098 33.3987 36.5281ZM29.9868 36.5281C29.8034 36.3455 29.5553 36.2427 29.2965 36.242C29.0396 36.242 28.7877 36.3465 28.6062 36.5281C28.4246 36.7098 28.32 36.9617 28.32 37.2185C28.32 37.4752 28.4245 37.7272 28.6062 37.9088C28.7878 38.0904 29.0397 38.1949 29.2965 38.1949C29.5543 38.1949 29.8053 38.0904 29.9868 37.9088C30.1694 37.7271 30.2729 37.4752 30.2729 37.2185C30.2729 36.9617 30.1694 36.7098 29.9868 36.5281Z" fill="#2166F3"/>
<path d="M38.1191 29.5469C38.1191 27.9514 37.3499 26.5324 36.1628 25.6409C37.3498 24.7494 38.1191 23.3305 38.1191 21.735C38.1191 19.0428 35.9289 16.8525 33.2367 16.8525H17.6129C14.9207 16.8525 12.7305 19.0428 12.7305 21.735C12.7305 23.3305 13.4997 24.7494 14.6868 25.6409C13.4998 26.5324 12.7305 27.9514 12.7305 29.5469C12.7305 31.1424 13.4997 32.5613 14.6868 33.4528C13.4998 34.3443 12.7305 35.7633 12.7305 37.3588C12.7305 40.051 14.9207 42.2412 17.6129 42.2412H24.4359V44.9519C23.2994 45.355 22.483 46.4403 22.483 47.7134C22.4829 49.3287 23.7971 50.6429 25.4124 50.6429C27.0277 50.6429 28.3419 49.3287 28.3419 47.7134C28.3419 46.4404 27.5255 45.355 26.389 44.9519V42.2412H33.2368C35.929 42.2412 38.1192 40.051 38.1192 37.3588C38.1192 35.7633 37.35 34.3443 36.1629 33.4528C37.3498 32.5613 38.1191 31.1424 38.1191 29.5469ZM14.6833 21.7351C14.6833 20.1197 15.9975 18.8056 17.6128 18.8056H33.2366C34.852 18.8056 36.1661 20.1197 36.1661 21.7351C36.1661 23.3504 34.852 24.6646 33.2366 24.6646H17.6128C15.9975 24.6645 14.6833 23.3503 14.6833 21.7351ZM25.4124 48.6899C24.8739 48.6899 24.4359 48.2519 24.4359 47.7135C24.4359 47.175 24.874 46.737 25.4124 46.737C25.9508 46.737 26.3889 47.1751 26.3889 47.7135C26.3889 48.2519 25.9509 48.6899 25.4124 48.6899ZM36.1661 37.3588C36.1661 38.9741 34.852 40.2883 33.2366 40.2883H17.6128C15.9975 40.2883 14.6833 38.9741 14.6833 37.3588C14.6833 35.7435 15.9975 34.4293 17.6128 34.4293H33.2366C34.852 34.4294 36.1661 35.7436 36.1661 37.3588ZM33.2366 32.4764H17.6128C15.9975 32.4764 14.6833 31.1622 14.6833 29.5469C14.6833 27.9315 15.9975 26.6174 17.6128 26.6174H33.2366C34.852 26.6174 36.1661 27.9315 36.1661 29.5469C36.1661 31.1622 34.852 32.4764 33.2366 32.4764Z" fill="#2166F3"/>
<path d="M48.3139 15.7632C47.06 13.9432 45.3476 12.5208 43.3423 11.6281C40.8846 5.03916 34.5782 0.642578 27.5117 0.642578C23.3999 0.642578 19.4375 2.1374 16.3547 4.85156C13.5359 7.3331 11.6307 10.6678 10.9254 14.3218C10.7743 14.315 10.6231 14.3115 10.4719 14.3115C4.92598 14.3115 0.414062 18.8234 0.414062 24.3693C0.414062 26.7827 1.28184 29.1166 2.85752 30.9409C4.4166 32.7459 6.5666 33.9412 8.91162 34.3067C8.9626 34.3146 9.01318 34.3186 9.06318 34.3186C9.53613 34.3186 9.95166 33.9742 10.0269 33.4924C10.11 32.9595 9.74521 32.4603 9.2124 32.3771C5.2459 31.7589 2.36699 28.3912 2.36699 24.3694C2.36699 19.9004 6.00273 16.2645 10.4719 16.2645C10.8481 16.2645 11.2297 16.2912 11.6061 16.3439C11.7334 16.3618 11.863 16.3542 11.9874 16.3218C12.1118 16.2894 12.2286 16.2328 12.3311 16.1551C12.4335 16.0775 12.5197 15.9803 12.5845 15.8693C12.6493 15.7583 12.6916 15.6356 12.7089 15.5082C13.7073 8.14678 20.0712 2.59561 27.5116 2.59561C33.8919 2.59561 39.5712 6.64736 41.6438 12.6778C41.6894 12.8104 41.763 12.9317 41.8596 13.0333C41.9562 13.1349 42.0736 13.2145 42.2037 13.2667C46.0025 14.791 48.4572 18.4208 48.4572 22.514C48.4572 27.2252 45.113 31.3289 40.5054 32.2718C39.977 32.3799 39.6364 32.8959 39.7445 33.4242C39.8526 33.9526 40.3685 34.2931 40.897 34.1851C46.4094 33.0571 50.4103 28.1487 50.4103 22.514C50.4103 20.0882 49.6854 17.7538 48.3139 15.7632Z" fill="#2166F3"/>
</svg>
