<svg width="52" height="52" viewBox="0 0 52 52" fill="none" xmlns="http://www.w3.org/2000/svg">
<path d="M35.9459 44.1825L26.5034 49.6325V30.7325L42.8684 21.285V34.125C42.8684 34.4 43.0934 34.625 43.3684 34.625C43.6434 34.625 43.8684 34.4 43.8684 34.125V20.42C43.8684 20.2425 43.7734 20.075 43.6184 19.9875L32.4959 13.565C32.2559 13.4275 31.9509 13.51 31.8134 13.7475C31.6759 13.9875 31.7584 14.2925 31.9959 14.43L42.3659 20.4175L25.9984 29.8675L9.63086 20.4175L20.0034 14.4275C20.2434 14.29 20.3234 13.9825 20.1859 13.745C20.1531 13.6881 20.1094 13.6382 20.0574 13.5983C20.0053 13.5583 19.9459 13.529 19.8825 13.512C19.8191 13.4951 19.753 13.4908 19.6879 13.4995C19.6228 13.5081 19.5601 13.5295 19.5034 13.5625L8.38086 19.985C8.22586 20.075 8.13086 20.24 8.13086 20.4175V34.1225C8.13086 34.3975 8.35586 34.6225 8.63086 34.6225C8.90586 34.6225 9.13086 34.3975 9.13086 34.1225V21.2825L25.5009 30.7325V49.63L16.0559 44.1775C15.8159 44.04 15.5109 44.1225 15.3734 44.36C15.2359 44.6 15.3184 44.905 15.5559 45.0425L25.7484 50.9275C25.8259 50.9725 25.9109 50.995 25.9984 50.995C26.0859 50.995 26.1709 50.9725 26.2484 50.9275L36.4409 45.0425C36.6809 44.905 36.7609 44.5975 36.6234 44.36C36.5908 44.3029 36.5473 44.2528 36.4952 44.2127C36.4432 44.1725 36.3837 44.1431 36.3202 44.1261C36.2567 44.1092 36.1905 44.105 36.1254 44.1138C36.0603 44.1226 35.9975 44.1442 35.9409 44.1775L35.9459 44.1825Z" fill="#2166F3" stroke="#2166F3" stroke-width="0.8"/>
<path d="M17.7354 10.2647H22.0004V19.9322C22.0004 20.2072 22.2254 20.4322 22.5004 20.4322C22.7754 20.4322 23.0004 20.2072 23.0004 19.9322V9.76466C23.0004 9.48966 22.7754 9.26466 22.5004 9.26466H18.9429L26.0029 2.20466L33.0604 9.26466H29.5054C29.2304 9.26466 29.0054 9.48966 29.0054 9.76466V19.9322C29.0054 20.2072 29.2304 20.4322 29.5054 20.4322C29.7804 20.4322 30.0054 20.2072 30.0054 19.9322V10.2647H34.2679C34.4704 10.2647 34.6529 10.1422 34.7304 9.95716C34.8079 9.77216 34.7654 9.55466 34.6229 9.41216L26.3554 1.14716C26.3093 1.10054 26.2544 1.06353 26.1939 1.03827C26.1334 1.01301 26.0685 1 26.0029 1C25.9373 1 25.8724 1.01301 25.8119 1.03827C25.7514 1.06353 25.6965 1.10054 25.6504 1.14716L17.3854 9.41216C17.2429 9.55466 17.2004 9.76966 17.2779 9.95716C17.3554 10.1447 17.5379 10.2647 17.7404 10.2647H17.7354ZM49.3879 36.6347C49.2966 36.5967 49.1961 36.5866 49.0991 36.6058C49.0021 36.6249 48.9129 36.6724 48.8429 36.7422L45.8279 39.7572L38.9904 32.9197C38.7954 32.7247 38.4779 32.7247 38.2829 32.9197C38.0879 33.1147 38.0879 33.4322 38.2829 33.6272L45.4729 40.8172C45.6679 41.0122 45.9854 41.0122 46.1804 40.8172L48.6954 38.3022V48.2847H38.7129L41.2254 45.7697C41.4204 45.5747 41.4204 45.2572 41.2254 45.0622L34.0354 37.8722C33.8404 37.6772 33.5229 37.6772 33.3279 37.8722C33.1329 38.0672 33.1329 38.3847 33.3279 38.5797L40.1654 45.4172L37.1529 48.4297C37.0104 48.5722 36.9679 48.7872 37.0454 48.9747C37.1229 49.1622 37.3054 49.2822 37.5079 49.2822H49.1954C49.3276 49.2823 49.4545 49.23 49.5482 49.1367C49.6419 49.0435 49.6949 48.9169 49.6954 48.7847V37.0947C49.6954 36.8922 49.5729 36.7097 49.3879 36.6322V36.6347ZM11.8329 45.4172L18.6704 38.5797C18.8654 38.3847 18.8654 38.0672 18.6704 37.8722C18.4754 37.6772 18.1579 37.6772 17.9629 37.8722L10.7729 45.0622C10.7263 45.1083 10.6893 45.1632 10.664 45.2237C10.6387 45.2842 10.6257 45.3491 10.6257 45.4147C10.6257 45.4802 10.6387 45.5451 10.664 45.6057C10.6893 45.6662 10.7263 45.7211 10.7729 45.7672L13.2854 48.2797H3.30539V38.2972L5.82039 40.8122C6.01539 41.0072 6.33289 41.0072 6.52789 40.8122L13.7179 33.6222C13.9129 33.4272 13.9129 33.1097 13.7179 32.9147C13.5229 32.7197 13.2054 32.7197 13.0104 32.9147L6.17289 39.7522L3.15789 36.7372C3.01539 36.5947 2.80039 36.5522 2.61289 36.6297C2.42539 36.7072 2.30539 36.8897 2.30539 37.0922V48.7822C2.30539 48.9147 2.35789 49.0422 2.45289 49.1347C2.54789 49.2272 2.67289 49.2822 2.80539 49.2822H14.4929C14.6954 49.2822 14.8779 49.1597 14.9554 48.9722C15.0329 48.7847 14.9904 48.5697 14.8479 48.4272L11.8354 45.4147L11.8329 45.4172ZM10.7504 9.75966C10.8454 9.91466 11.0079 9.99966 11.1779 9.99966C11.2654 9.99966 11.3554 9.97716 11.4379 9.92716C11.6729 9.78216 11.7479 9.47466 11.6054 9.23966L9.33289 5.51716C9.2635 5.40428 9.15234 5.32335 9.0236 5.29198C8.89485 5.26062 8.75893 5.28135 8.64539 5.34966C8.41039 5.49466 8.33539 5.80216 8.47789 6.03716L10.7504 9.75966ZM3.74039 12.3372L7.67789 14.2147C7.74789 14.2472 7.82039 14.2647 7.89289 14.2647C8.00631 14.2645 8.11632 14.2259 8.20495 14.1551C8.29358 14.0843 8.35558 13.9856 8.38083 13.875C8.40608 13.7644 8.39308 13.6486 8.34396 13.5463C8.29484 13.4441 8.2125 13.3615 8.11039 13.3122L4.17289 11.4347C3.92289 11.3147 3.62539 11.4222 3.50539 11.6697C3.38539 11.9197 3.49289 12.2172 3.74039 12.3372ZM6.63539 18.9922C6.63539 18.7172 6.41039 18.4922 6.13539 18.4922H1.77539C1.50039 18.4947 1.27539 18.7197 1.27539 18.9947C1.27539 19.2697 1.50039 19.4947 1.77539 19.4947H6.13789C6.41289 19.4922 6.63789 19.2672 6.63789 18.9922H6.63539ZM40.5629 9.92716C40.6763 9.99588 40.8124 10.0168 40.9412 9.98544C41.0701 9.95405 41.1813 9.87286 41.2504 9.75966L43.5229 6.03716C43.5881 5.92393 43.6064 5.78969 43.574 5.66312C43.5415 5.53655 43.4609 5.42769 43.3492 5.35979C43.2376 5.2919 43.1038 5.27035 42.9765 5.29976C42.8492 5.32916 42.7384 5.40719 42.6679 5.51716L40.3954 9.23966C40.2504 9.47466 40.3254 9.78216 40.5629 9.92716ZM44.1079 14.2622C44.1804 14.2622 44.2529 14.2472 44.3229 14.2122L48.2604 12.3347C48.5104 12.2147 48.6154 11.9172 48.4954 11.6672C48.3754 11.4172 48.0779 11.3122 47.8279 11.4322L43.8904 13.3097C43.6404 13.4297 43.5354 13.7272 43.6554 13.9772C43.7404 14.1572 43.9204 14.2622 44.1079 14.2622ZM50.2254 18.4972H45.8629V18.4947C45.5879 18.4947 45.3629 18.7172 45.3629 18.9947C45.3629 19.2722 45.5854 19.4947 45.8629 19.4947H50.2254V19.4972C50.5004 19.4972 50.7254 19.2747 50.7254 18.9972C50.7254 18.7197 50.5029 18.4972 50.2254 18.4972Z" fill="#2166F3" stroke="#2166F3" stroke-width="0.8"/>
</svg>
