<svg width="32" height="46" viewBox="0 0 32 46" fill="none" xmlns="http://www.w3.org/2000/svg">
<path d="M11.8332 30.4479V30.2917C11.8332 30.0154 11.7234 29.7504 11.5281 29.5551C11.3327 29.3597 11.0678 29.25 10.7915 29.25C10.5152 29.25 10.2503 29.3597 10.0549 29.5551C9.85958 29.7504 9.74983 30.0154 9.74983 30.2917V30.4479C9.1842 30.6225 8.68396 30.9628 8.31379 31.4248C7.94363 31.8867 7.72057 32.4491 7.67345 33.0392C7.62633 33.6293 7.75733 34.2199 8.0495 34.7348C8.34167 35.2496 8.78157 35.6649 9.31233 35.9271L11.3957 36.9687C11.5435 37.044 11.6676 37.1588 11.7541 37.3004C11.8405 37.4421 11.8859 37.6049 11.8852 37.7708C11.8852 37.8871 11.8623 38.0022 11.8178 38.1097C11.7734 38.2171 11.7081 38.3147 11.6259 38.3969C11.5437 38.4791 11.4461 38.5444 11.3387 38.5889C11.2312 38.6333 11.1161 38.6562 10.9998 38.6562H10.6873C10.5711 38.6562 10.4559 38.6333 10.3485 38.5889C10.2411 38.5444 10.1435 38.4791 10.0612 38.3969C9.97903 38.3147 9.91381 38.2171 9.86931 38.1097C9.82481 38.0022 9.80191 37.8871 9.80191 37.7708V37.5833C9.80191 37.3071 9.69217 37.0421 9.49682 36.8468C9.30147 36.6514 9.03651 36.5417 8.76025 36.5417C8.48398 36.5417 8.21903 36.6514 8.02368 36.8468C7.82833 37.0421 7.71858 37.3071 7.71858 37.5833V37.7396C7.71981 38.3694 7.92276 38.9823 8.29767 39.4885C8.67258 39.9946 9.19975 40.3674 9.80191 40.5521V40.7083C9.80191 40.9846 9.91166 41.2496 10.107 41.4449C10.3024 41.6403 10.5673 41.75 10.8436 41.75C11.1198 41.75 11.3848 41.6403 11.5801 41.4449C11.7755 41.2496 11.8852 40.9846 11.8852 40.7083V40.5521C12.4509 40.3775 12.9511 40.0372 13.3213 39.5752C13.6914 39.1133 13.9145 38.5509 13.9616 37.9608C14.0087 37.3707 13.8777 36.7801 13.5856 36.2652C13.2934 35.7504 12.8535 35.3351 12.3227 35.0729L10.2394 34.0312C10.0915 33.956 9.96746 33.8412 9.88101 33.6996C9.79457 33.5579 9.74915 33.3951 9.74983 33.2292C9.74983 33.1129 9.77273 32.9978 9.81723 32.8903C9.86173 32.7829 9.92694 32.6853 10.0092 32.6031C10.0914 32.5209 10.189 32.4556 10.2964 32.4111C10.4038 32.3667 10.519 32.3438 10.6352 32.3438H10.9477C11.064 32.3438 11.1792 32.3667 11.2866 32.4111C11.394 32.4556 11.4916 32.5209 11.5738 32.6031C11.6561 32.6853 11.7213 32.7829 11.7658 32.8903C11.8103 32.9978 11.8332 33.1129 11.8332 33.2292V33.4167C11.8332 33.6929 11.9429 33.9579 12.1383 34.1532C12.3336 34.3486 12.5986 34.4583 12.8748 34.4583C13.1511 34.4583 13.4161 34.3486 13.6114 34.1532C13.8068 33.9579 13.9165 33.6929 13.9165 33.4167V33.2604C13.9153 32.6306 13.7123 32.0176 13.3374 31.5115C12.9625 31.0054 12.4353 30.6326 11.8332 30.4479Z" fill="#2166F3"/>
<path d="M28.5007 35.4997H21.209C21.2072 33.8086 20.7936 32.1435 20.0042 30.648C19.2147 29.1525 18.073 27.8718 16.6777 26.9163L28.3965 17.1455C28.9201 16.7441 29.3032 16.1874 29.491 15.5549C29.6788 14.9225 29.6616 14.2468 29.4419 13.6247C29.2223 13.0026 28.8113 12.4661 28.268 12.0918C27.7247 11.7176 27.0769 11.5249 26.4173 11.5413H24.334V1.12467C24.334 0.848407 24.2243 0.583455 24.0289 0.388105C23.8336 0.192754 23.5686 0.0830078 23.2923 0.0830078H8.709C8.43273 0.0830078 8.16778 0.192754 7.97242 0.388105C7.77707 0.583455 7.66733 0.848407 7.66733 1.12467V11.5413H5.58399C4.91994 11.5132 4.2642 11.6975 3.71204 12.0674C3.15988 12.4374 2.74006 12.9738 2.51357 13.5987C2.28709 14.2235 2.26573 14.9043 2.45261 15.5422C2.63948 16.18 3.02486 16.7417 3.55275 17.1455L13.5527 25.4788C12.1167 25.0714 10.61 24.9774 9.13444 25.2031C7.65893 25.4288 6.24916 25.969 5.00063 26.7871C3.7521 27.6052 2.69398 28.6821 1.89793 29.9448C1.10188 31.2074 0.5865 32.6265 0.386704 34.1057C0.186908 35.585 0.307361 37.0899 0.739903 38.5185C1.17245 39.9471 1.90698 41.2661 2.89374 42.3861C3.8805 43.5061 5.09644 44.401 6.4592 45.01C7.82195 45.6191 9.2997 45.9282 10.7923 45.9163C11.6032 45.9156 12.411 45.8177 13.1986 45.6247C13.3917 45.8108 13.6491 45.9153 13.9173 45.9163H28.5007C29.3295 45.9163 30.1243 45.5871 30.7104 45.001C31.2964 44.415 31.6257 43.6201 31.6257 42.7913C31.6211 42.0204 31.3317 41.2785 30.8132 40.708C31.3317 40.1376 31.6211 39.3956 31.6257 38.6247C31.6257 37.7959 31.2964 37.001 30.7104 36.415C30.1243 35.8289 29.3295 35.4997 28.5007 35.4997ZM4.54233 14.6663C4.54233 14.3901 4.65208 14.1251 4.84743 13.9298C5.04278 13.7344 5.30773 13.6247 5.58399 13.6247H8.709C8.98526 13.6247 9.25022 13.5149 9.44557 13.3196C9.64092 13.1242 9.75066 12.8593 9.75066 12.583V2.16634H22.2507V12.583C22.2507 12.8593 22.3604 13.1242 22.5558 13.3196C22.7511 13.5149 23.0161 13.6247 23.2923 13.6247H26.4173C26.6936 13.6247 26.9586 13.7344 27.1539 13.9298C27.3493 14.1251 27.459 14.3901 27.459 14.6663C27.4614 14.8263 27.427 14.9847 27.3584 15.1292C27.2897 15.2737 27.1887 15.4005 27.0632 15.4997L16.0007 24.7705L4.93816 15.5413C4.80682 15.438 4.70229 15.3045 4.63339 15.1522C4.5645 14.9999 4.53326 14.8332 4.54233 14.6663ZM28.5007 37.583C28.7769 37.583 29.0419 37.6928 29.2372 37.8881C29.4326 38.0835 29.5423 38.3484 29.5423 38.6247C29.5423 38.9009 29.4326 39.1659 29.2372 39.3612C29.0419 39.5566 28.7769 39.6663 28.5007 39.6663H20.334C20.6308 38.998 20.8543 38.2995 21.0007 37.583H28.5007ZM2.459 35.4997C2.459 33.8515 2.94774 32.2403 3.86341 30.8699C4.77909 29.4995 6.08058 28.4314 7.6033 27.8007C9.12602 27.1699 10.8016 27.0049 12.4181 27.3265C14.0346 27.648 15.5194 28.4417 16.6849 29.6071C17.8503 30.7726 18.644 32.2574 18.9655 33.8739C19.2871 35.4904 19.1221 37.166 18.4913 38.6887C17.8606 40.2114 16.7925 41.5129 15.4221 42.4286C14.0517 43.3443 12.4405 43.833 10.7923 43.833C8.58219 43.833 6.46257 42.955 4.89977 41.3922C3.33697 39.8294 2.459 37.7098 2.459 35.4997ZM28.5007 43.833H17.0423C17.8342 43.2433 18.5359 42.5415 19.1257 41.7497H28.5007C28.7769 41.7497 29.0419 41.8594 29.2372 42.0548C29.4326 42.2501 29.5423 42.5151 29.5423 42.7913C29.5423 43.0676 29.4326 43.3326 29.2372 43.5279C29.0419 43.7233 28.7769 43.833 28.5007 43.833Z" fill="#2166F3"/>
</svg>
