<svg width="29" height="49" viewBox="0 0 29 49" fill="none" xmlns="http://www.w3.org/2000/svg">
<path d="M25.775 0.4375H3.225C2.56859 0.4375 1.93906 0.698258 1.47491 1.16241C1.01076 1.62656 0.75 2.25609 0.75 2.9125V46.0875C0.75 46.7439 1.01076 47.3734 1.47491 47.8376C1.93906 48.3017 2.56859 48.5625 3.225 48.5625H25.775C26.4314 48.5625 27.0609 48.3017 27.5251 47.8376C27.9892 47.3734 28.25 46.7439 28.25 46.0875V2.9125C28.25 2.25609 27.9892 1.62656 27.5251 1.16241C27.0609 0.698258 26.4314 0.4375 25.775 0.4375ZM26.5312 46.0875C26.5312 46.1868 26.5117 46.2852 26.4737 46.3769C26.4357 46.4687 26.38 46.552 26.3097 46.6222C26.2395 46.6925 26.1562 46.7482 26.0644 46.7862C25.9727 46.8242 25.8743 46.8438 25.775 46.8438H3.225C3.02443 46.8437 2.83207 46.7641 2.69025 46.6222C2.54843 46.4804 2.46875 46.2881 2.46875 46.0875V2.9125C2.46875 2.71193 2.54843 2.51958 2.69025 2.37775C2.83207 2.23593 3.02443 2.15625 3.225 2.15625H25.775C25.8743 2.15625 25.9727 2.17581 26.0644 2.21382C26.1562 2.25182 26.2395 2.30753 26.3097 2.37775C26.38 2.44797 26.4357 2.53134 26.4737 2.6231C26.5117 2.71485 26.5312 2.81319 26.5312 2.9125V46.0875Z" fill="#2166F3"/>
<path d="M6.31037 17.8785C6.49436 17.8788 6.67359 17.8201 6.8217 17.7109C8.93367 16.0916 11.502 15.1785 14.1622 15.1014C16.8224 15.0243 19.4394 15.787 21.6416 17.2812C21.735 17.3515 21.8418 17.402 21.9553 17.4295C22.0689 17.4571 22.1869 17.4613 22.3021 17.4417C22.4173 17.4221 22.5273 17.3792 22.6254 17.3157C22.7235 17.2522 22.8076 17.1693 22.8726 17.0721C22.9375 16.975 22.982 16.8656 23.0032 16.7507C23.0245 16.6358 23.0221 16.5177 22.9961 16.4038C22.9702 16.2898 22.9213 16.1823 22.8524 16.0879C22.7835 15.9935 22.6961 15.9142 22.5955 15.8547C20.0986 14.1623 17.1327 13.2982 14.1175 13.3846C11.1023 13.4709 8.19071 14.5034 5.79475 16.3359C5.70414 16.4033 5.62769 16.4879 5.56979 16.5849C5.51189 16.6818 5.47367 16.7892 5.45731 16.901C5.44095 17.0127 5.44677 17.1266 5.47444 17.2361C5.50211 17.3456 5.55109 17.4485 5.61858 17.5391C5.69951 17.6456 5.80419 17.7317 5.9243 17.7907C6.0444 17.8496 6.1766 17.8797 6.31037 17.8785Z" fill="#2166F3"/>
<path d="M14.4999 17.625C11.873 17.6566 9.36399 18.7203 7.51482 20.5863C5.66566 22.4524 4.6248 24.971 4.61709 27.598C4.55777 29.3252 4.84109 31.047 5.45068 32.6641C5.54299 32.8726 5.71436 33.0359 5.9271 33.1181C6.13983 33.2003 6.37651 33.1946 6.58506 33.1023C6.7936 33.01 6.95694 32.8387 7.03913 32.6259C7.12133 32.4132 7.11564 32.1765 7.02334 31.968C6.51939 30.5725 6.28606 29.0938 6.33584 27.6109C6.3379 25.4368 7.19545 23.3507 8.72314 21.8038C10.2508 20.2568 12.3259 19.3731 14.4999 19.3437C16.2226 19.3522 17.8986 19.9054 19.2878 20.9242C20.677 21.943 21.7084 23.3751 22.2343 25.0156C22.2963 25.2095 22.3115 25.4154 22.2786 25.6163C22.2457 25.8172 22.1658 26.0074 22.0452 26.1715C21.9017 26.3541 21.7116 26.4945 21.4949 26.578C21.2782 26.6614 21.043 26.6848 20.8141 26.6456C20.5853 26.6065 20.3712 26.5062 20.1946 26.3554C20.018 26.2047 19.8854 26.009 19.8108 25.7891C19.3991 24.5259 18.5507 23.4509 17.4179 22.7569C16.285 22.0629 14.9419 21.7954 13.6296 22.0024C12.3173 22.2094 11.1217 22.8773 10.2575 23.8863C9.39322 24.8953 8.91688 26.1793 8.91396 27.5078C8.91396 31.1902 10.5854 34.0949 14.0229 36.3852C14.212 36.4969 14.4368 36.5321 14.651 36.4833C14.8652 36.4346 15.0526 36.3057 15.1747 36.1231C15.2968 35.9405 15.3443 35.718 15.3075 35.5015C15.2707 35.2849 15.1524 35.0906 14.9769 34.9586C12.012 32.982 10.6327 30.6145 10.6327 27.5078C10.6316 26.5866 10.9595 25.6952 11.5572 24.9942C12.1549 24.2932 12.9833 23.8286 13.8931 23.6841C14.8029 23.5395 15.7344 23.7245 16.52 24.2057C17.3055 24.6869 17.8935 25.4328 18.178 26.309C18.3672 26.905 18.7374 27.4273 19.2373 27.8031C19.7371 28.1789 20.3416 28.3896 20.9667 28.4059C21.4473 28.4208 21.9244 28.3182 22.3564 28.107C22.7884 27.8959 23.1625 27.5825 23.446 27.1941C23.7276 26.8087 23.9135 26.3618 23.9882 25.8904C24.0629 25.4189 24.0243 24.9364 23.8757 24.4828C23.237 22.4963 21.9859 20.7629 20.3017 19.531C18.6175 18.2991 16.5866 17.6319 14.4999 17.625Z" fill="#2166F3"/>
<path d="M20.6574 32.664C18.4102 32.2902 15.673 29.0762 15.3336 27.714C15.2766 27.493 15.1341 27.3036 14.9375 27.1875C14.7409 27.0715 14.5062 27.0383 14.2852 27.0953C14.0641 27.1523 13.8747 27.2947 13.7586 27.4914C13.6426 27.688 13.6094 27.9227 13.6664 28.1437C14.182 30.1976 17.4605 33.8801 20.3738 34.3656C20.4205 34.3756 20.4679 34.3814 20.5156 34.3828C20.7435 34.4016 20.9696 34.3291 21.1441 34.1812C21.3185 34.0334 21.4271 33.8222 21.4459 33.5943C21.4647 33.3664 21.3922 33.1403 21.2443 32.9659C21.0965 32.7914 20.8853 32.6829 20.6574 32.664Z" fill="#2166F3"/>
<path d="M14.5 5.59375C14.9746 5.59375 15.3594 5.20899 15.3594 4.73438C15.3594 4.25976 14.9746 3.875 14.5 3.875C14.0254 3.875 13.6406 4.25976 13.6406 4.73438C13.6406 5.20899 14.0254 5.59375 14.5 5.59375Z" fill="#2166F3"/>
</svg>
