<svg width="55" height="55" viewBox="0 0 55 55" fill="none" xmlns="http://www.w3.org/2000/svg">
<g clip-path="url(#clip0_441_1808)">
<mask id="mask0_441_1808" style="mask-type:luminance" maskUnits="userSpaceOnUse" x="0" y="0" width="55" height="55">
<path d="M53.9998 54V1.00016H1V54H53.9998Z" fill="white" stroke="white" stroke-width="2"/>
</mask>
<g mask="url(#mask0_441_1808)">
<path d="M5.00962 36.7652H9.30606C10.2835 36.7652 11.0843 37.5661 11.0843 38.5435V49.8194C11.0843 50.7938 10.2835 51.5947 9.30606 51.5947H5.00962C4.03209 51.5947 3.23438 50.7938 3.23438 49.8194V38.5435C3.23438 37.5661 4.03209 36.7652 5.00962 36.7652Z" stroke="#2166F3" stroke-width="2" stroke-miterlimit="10" stroke-linecap="round" stroke-linejoin="round"/>
<path d="M11.0859 38.7233H13.3211C14.1705 38.6868 14.2924 38.6898 15.218 38.3244C19.5237 36.6252 23.0406 36.4273 27.3492 40.4834C27.8882 40.9888 28.01 41.1319 28.8687 41.1319H34.712C36.3045 41.1319 37.6109 42.4352 37.6109 44.0309C37.6109 45.6234 36.3045 46.9268 34.712 46.9268H25.2421" stroke="#2166F3" stroke-width="2" stroke-miterlimit="10" stroke-linecap="round" stroke-linejoin="round"/>
<path d="M38.0583 32.1612C39.6763 31.7982 41.2194 31.1584 42.6197 30.2702L43.6062 31.2569C44.1239 31.7775 44.9735 31.7775 45.491 31.2569L48.1341 28.6168C48.6518 28.0991 48.6518 27.2495 48.1341 26.7319L47.1476 25.7453C48.0334 24.3438 48.673 22.801 49.0385 21.1838H50.4301C51.164 21.1838 51.7638 20.5809 51.7638 19.8501V16.1138C51.7638 15.3799 51.164 14.78 50.4301 14.78H49.0385C48.673 13.1628 48.0334 11.62 47.1476 10.2185L48.1341 9.2319C48.6518 8.71424 48.6518 7.86464 48.1341 7.34698L45.491 4.70687C44.9735 4.1862 44.1239 4.1862 43.6062 4.70687L42.6197 5.69354C41.2189 4.80561 39.676 4.16494 38.0583 3.79949V2.40784C38.0583 1.67404 37.4585 1.07409 36.7246 1.07409H32.9915C32.2576 1.07409 31.6577 1.67404 31.6577 2.40784V3.79949C30.0392 4.16548 28.4954 4.8061 27.0933 5.69354L26.1067 4.70687C25.589 4.1862 24.7396 4.1862 24.2219 4.70687L21.5819 7.34698C21.0642 7.86464 21.0642 8.71424 21.5819 9.2319L22.5685 10.2185C21.6946 11.601 21.046 13.1387 20.6775 14.78H19.283C18.5491 14.78 17.9492 15.3799 17.9492 16.1138V19.8501C17.9492 20.5809 18.5491 21.1838 19.283 21.1838H20.6775C21.046 22.825 21.6946 24.3628 22.5685 25.7453L21.5819 26.7319C21.0642 27.2495 21.0642 28.0991 21.5819 28.6168L24.2219 31.2569C24.7396 31.7775 25.589 31.7775 26.1067 31.2569L27.0933 30.2702C28.4757 31.1442 30.0134 31.7928 31.6577 32.1612V33.5559C31.6577 34.2897 32.2576 34.8896 32.9915 34.8896H36.7246C37.4585 34.8896 38.0583 34.2897 38.0583 33.5559V32.1612Z" stroke="#2166F3" stroke-width="2" stroke-miterlimit="10" stroke-linecap="round" stroke-linejoin="round"/>
<path d="M38.06 32.1611V25.389C41.2756 24.1953 43.5837 21.0893 43.5837 17.4687C43.5837 14.5789 42.113 12.018 39.8809 10.4924C37.5424 8.89373 37.993 11.4211 37.993 11.8475V16.9175C37.993 18.6897 36.6045 20.1544 34.8597 20.2701C33.115 20.1544 31.7235 18.6897 31.7235 16.9175V11.8475C31.7235 11.4211 32.1771 8.89373 29.8355 10.4924C27.6035 12.018 26.1328 14.5789 26.1328 17.4687C26.1328 21.0893 28.4409 24.1953 31.6594 25.389V32.1611" stroke="#2166F3" stroke-width="2" stroke-miterlimit="10" stroke-linecap="round" stroke-linejoin="round"/>
<path d="M37.9488 50.8582L35.8264 52.3717C32.1116 54.8473 30.5434 53.8728 26.6336 52.8162L15.5134 49.8411C14.8466 49.6615 14.8861 49.6402 14.4323 49.6402H11.0859M37.2546 42.6426L46.5875 37.8497C47.9577 37.1463 49.6324 37.4478 50.4393 38.7571C51.2492 40.0665 50.7835 41.7169 49.5319 42.6091L45.8079 45.2613M41.8829 48.0567L41.8799 48.0597" stroke="#2166F3" stroke-width="2" stroke-miterlimit="10" stroke-linecap="round" stroke-linejoin="round"/>
</g>
</g>
<defs>
<clipPath id="clip0_441_1808">
<rect width="55" height="55" fill="white"/>
</clipPath>
</defs>
</svg>
