<svg width="58" height="58" viewBox="0 0 58 58" fill="none" xmlns="http://www.w3.org/2000/svg">
<path d="M28.9987 54.9789C23.8605 54.9789 18.8377 53.4552 14.5655 50.6006C10.2932 47.746 6.96339 43.6886 4.99709 38.9415C3.03079 34.1944 2.51631 28.9709 3.51873 23.9314C4.52114 18.8919 6.99541 14.2629 10.6287 10.6296C14.2619 6.99639 18.891 4.52211 23.9304 3.5197C28.9699 2.51729 34.1934 3.03176 38.9405 4.99807C43.6876 6.96437 47.745 10.2942 50.5996 14.5664C53.4542 18.8387 54.9779 23.8615 54.9779 28.9997C54.9715 35.8878 52.2323 42.492 47.3617 47.3627C42.491 52.2333 35.8869 54.9725 28.9987 54.9789ZM28.9987 6.64552C24.5775 6.64552 20.2555 7.95657 16.5794 10.4129C12.9033 12.8692 10.0381 16.3604 8.34615 20.4451C6.65422 24.5298 6.21153 29.0245 7.07407 33.3608C7.93661 37.6971 10.0656 41.6802 13.1919 44.8065C16.3182 47.9328 20.3013 50.0618 24.6376 50.9243C28.9739 51.7869 33.4686 51.3442 37.5533 49.6522C41.638 47.9603 45.1292 45.0951 47.5855 41.419C50.0418 37.7429 51.3529 33.4209 51.3529 28.9997C51.3465 23.073 48.9893 17.3908 44.7984 13.2C40.6076 9.00914 34.9254 6.65192 28.9987 6.64552Z" fill="#111111"/>
<path d="M31.4154 42.8955H26.582C26.1013 42.8955 25.6403 42.7046 25.3004 42.3646C24.9605 42.0247 24.7695 41.5637 24.7695 41.083C24.7695 40.6023 24.9605 40.1413 25.3004 39.8014C25.6403 39.4615 26.1013 39.2705 26.582 39.2705H31.4154C31.8961 39.2705 32.3571 39.4615 32.697 39.8014C33.0369 40.1413 33.2279 40.6023 33.2279 41.083C33.2279 41.5637 33.0369 42.0247 32.697 42.3646C32.3571 42.7046 31.8961 42.8955 31.4154 42.8955Z" fill="#111111"/>
<path d="M28.9984 42.8953C28.5196 42.889 28.0622 42.6961 27.7237 42.3575C27.3851 42.0189 27.1921 41.5616 27.1859 41.0828V25.882C26.7776 25.7431 26.4323 25.4633 26.2118 25.0927C25.9914 24.7221 25.9103 24.2851 25.983 23.8601C26.0558 23.4351 26.2777 23.05 26.6089 22.7739C26.9401 22.4978 27.3589 22.3488 27.79 22.3536H28.9984C29.4771 22.3599 29.9345 22.5529 30.2731 22.8914C30.6116 23.23 30.8046 23.6874 30.8109 24.1661V41.0828C30.8046 41.5616 30.6116 42.0189 30.2731 42.3575C29.9345 42.6961 29.4771 42.889 28.9984 42.8953Z" fill="#111111"/>
<path d="M28.9987 19.3333C30.3334 19.3333 31.4154 18.2514 31.4154 16.9167C31.4154 15.582 30.3334 14.5 28.9987 14.5C27.664 14.5 26.582 15.582 26.582 16.9167C26.582 18.2514 27.664 19.3333 28.9987 19.3333Z" fill="#111111"/>
</svg>
