<svg width="55" height="56" viewBox="0 0 55 56" fill="none" xmlns="http://www.w3.org/2000/svg">
<mask id="path-1-outside-1_348_258" maskUnits="userSpaceOnUse" x="7.48779" y="12.1516" width="40" height="28" fill="black">
<rect fill="white" x="7.48779" y="12.1516" width="40" height="28"/>
<path d="M16.663 13.5813C17.0947 13.597 17.5025 13.783 17.7972 14.0987C18.092 14.4144 18.2496 14.834 18.2357 15.2657C18.2357 15.3227 18.2583 15.3773 18.2986 15.4176C18.3389 15.4579 18.3936 15.4805 18.4505 15.4805C18.5075 15.4805 18.5622 15.4579 18.6025 15.4176C18.6428 15.3773 18.6654 15.3227 18.6654 15.2657C18.6793 14.7201 18.4763 14.1912 18.101 13.7949C17.7257 13.3987 17.2086 13.1674 16.663 13.1516C16.6061 13.1516 16.5514 13.1742 16.5111 13.2145C16.4708 13.2548 16.4482 13.3095 16.4482 13.3665C16.4482 13.4234 16.4708 13.4781 16.5111 13.5184C16.5514 13.5587 16.6061 13.5813 16.663 13.5813ZM10.1275 17.8524C9.48043 18.1365 8.96683 18.6578 8.69235 19.309C8.55741 19.6203 8.48779 19.9559 8.48779 20.2952C8.48779 20.6344 8.55741 20.97 8.69235 21.2813C8.71514 21.3337 8.75782 21.3749 8.81101 21.3959C8.86419 21.4168 8.92352 21.4158 8.97594 21.393C9.02836 21.3702 9.06958 21.3275 9.09053 21.2744C9.11149 21.2212 9.11045 21.1618 9.08766 21.1094C8.97389 20.8515 8.91514 20.5727 8.91514 20.2909C8.91514 20.009 8.97389 19.7302 9.08766 19.4723C9.32053 18.917 9.75943 18.4735 10.3123 18.2348C10.3647 18.2115 10.4057 18.1682 10.4262 18.1146C10.4468 18.061 10.4452 18.0015 10.4218 17.9491C10.3985 17.8967 10.3552 17.8557 10.3017 17.8351C10.2481 17.8146 10.1885 17.8161 10.1361 17.8395L10.1275 17.8524ZM12.4607 38.1895C12.1224 38.5267 11.6643 38.716 11.1867 38.716C10.7091 38.716 10.2509 38.5267 9.91266 38.1895C9.89206 38.17 9.86783 38.1548 9.84136 38.1447C9.81488 38.1346 9.78667 38.1298 9.75834 38.1306C9.73001 38.1314 9.70212 38.1378 9.67625 38.1494C9.65038 38.1609 9.62705 38.1775 9.60758 38.1981C9.58811 38.2187 9.57289 38.2429 9.56279 38.2694C9.55269 38.2959 9.5479 38.3241 9.54869 38.3524C9.54949 38.3807 9.55586 38.4086 9.56744 38.4345C9.57902 38.4604 9.59558 38.4837 9.61617 38.5032C10.0505 38.9176 10.6272 39.1499 11.2275 39.152C11.5163 39.1546 11.8025 39.0979 12.0686 38.9856C12.3346 38.8733 12.5748 38.7076 12.7744 38.4989C12.7938 38.4783 12.8091 38.4541 12.8192 38.4276C12.8293 38.4011 12.8341 38.3729 12.8333 38.3446C12.8325 38.3162 12.8261 38.2883 12.8145 38.2625C12.8029 38.2366 12.7864 38.2133 12.7658 38.1938C12.7452 38.1743 12.721 38.1591 12.6945 38.149C12.668 38.1389 12.6398 38.1341 12.6115 38.1349C12.5831 38.1357 12.5552 38.1421 12.5294 38.1537C12.5035 38.1652 12.4802 38.1818 12.4607 38.2024V38.1895ZM17.9005 38.8083H16.3279C16.1862 38.8083 16.0502 38.7523 15.9496 38.6525C15.849 38.5527 15.7919 38.4171 15.7908 38.2754V36.75C15.7908 36.6931 15.7681 36.6384 15.7279 36.5981C15.6876 36.5578 15.6329 36.5352 15.5759 36.5352C15.519 36.5352 15.4643 36.5578 15.424 36.5981C15.3837 36.6384 15.3611 36.6931 15.3611 36.75V38.2754C15.3611 38.4022 15.3861 38.5277 15.4348 38.6448C15.4834 38.7618 15.5547 38.8681 15.6445 38.9576C15.7344 39.047 15.841 39.1178 15.9582 39.1659C16.0755 39.214 16.2011 39.2385 16.3279 39.2379H17.9005C17.9575 39.2379 18.0122 39.2153 18.0525 39.175C18.0928 39.1347 18.1154 39.0801 18.1154 39.0231C18.1143 38.9665 18.0913 38.9125 18.0512 38.8724C18.0112 38.8323 17.9572 38.8094 17.9005 38.8083ZM14.0892 18.5313H17.3248C17.3817 18.5313 17.4364 18.5087 17.4767 18.4684C17.517 18.4281 17.5396 18.3734 17.5396 18.3165C17.5396 18.2595 17.517 18.2048 17.4767 18.1645C17.4364 18.1242 17.3817 18.1016 17.3248 18.1016H14.0892C14.0322 18.1016 13.9776 18.1242 13.9373 18.1645C13.897 18.2048 13.8744 18.2595 13.8744 18.3165C13.8744 18.3734 13.897 18.4281 13.9373 18.4684C13.9776 18.5087 14.0322 18.5313 14.0892 18.5313ZM38.5513 13.3665C38.5513 13.3095 38.5287 13.2548 38.4884 13.2145C38.4481 13.1742 38.3935 13.1516 38.3365 13.1516C37.7909 13.1674 37.2739 13.3987 36.8985 13.7949C36.5232 14.1912 36.3203 14.7201 36.3341 15.2657C36.3341 15.3227 36.3568 15.3773 36.3971 15.4176C36.4374 15.4579 36.492 15.4805 36.549 15.4805C36.606 15.4805 36.6606 15.4579 36.7009 15.4176C36.7412 15.3773 36.7638 15.3227 36.7638 15.2657C36.7499 14.834 36.9076 14.4144 37.2023 14.0987C37.4971 13.783 37.9049 13.597 38.3365 13.5813C38.3935 13.5813 38.4481 13.5587 38.4884 13.5184C38.5287 13.4781 38.5513 13.4234 38.5513 13.3665ZM44.7818 18.0415C45.3336 18.225 45.7903 18.6197 46.052 19.139C46.3137 19.6584 46.3591 20.2602 46.1783 20.8129C46.1684 20.8395 46.1639 20.8677 46.1649 20.8959C46.1659 20.9242 46.1725 20.952 46.1843 20.9778C46.196 21.0035 46.2128 21.0267 46.2335 21.0459C46.2542 21.0652 46.2785 21.0802 46.305 21.0901C46.3316 21.1 46.3598 21.1045 46.388 21.1035C46.4163 21.1025 46.4441 21.0959 46.4699 21.0841C46.4956 21.0723 46.5188 21.0556 46.538 21.0349C46.5573 21.0142 46.5723 20.9899 46.5822 20.9633C46.803 20.3029 46.7528 19.5819 46.4427 18.9584C46.1325 18.3349 45.5878 17.8599 44.9279 17.6375C44.9017 17.6273 44.8737 17.6223 44.8456 17.6231C44.8174 17.6238 44.7897 17.6301 44.7641 17.6418C44.7384 17.6534 44.7154 17.67 44.6963 17.6907C44.6772 17.7114 44.6624 17.7357 44.6529 17.7622C44.6345 17.8164 44.6376 17.8756 44.6616 17.9275C44.6856 17.9795 44.7286 18.0203 44.7818 18.0415Z"/>
</mask>
<path d="M16.663 13.5813C17.0947 13.597 17.5025 13.783 17.7972 14.0987C18.092 14.4144 18.2496 14.834 18.2357 15.2657C18.2357 15.3227 18.2583 15.3773 18.2986 15.4176C18.3389 15.4579 18.3936 15.4805 18.4505 15.4805C18.5075 15.4805 18.5622 15.4579 18.6025 15.4176C18.6428 15.3773 18.6654 15.3227 18.6654 15.2657C18.6793 14.7201 18.4763 14.1912 18.101 13.7949C17.7257 13.3987 17.2086 13.1674 16.663 13.1516C16.6061 13.1516 16.5514 13.1742 16.5111 13.2145C16.4708 13.2548 16.4482 13.3095 16.4482 13.3665C16.4482 13.4234 16.4708 13.4781 16.5111 13.5184C16.5514 13.5587 16.6061 13.5813 16.663 13.5813ZM10.1275 17.8524C9.48043 18.1365 8.96683 18.6578 8.69235 19.309C8.55741 19.6203 8.48779 19.9559 8.48779 20.2952C8.48779 20.6344 8.55741 20.97 8.69235 21.2813C8.71514 21.3337 8.75782 21.3749 8.81101 21.3959C8.86419 21.4168 8.92352 21.4158 8.97594 21.393C9.02836 21.3702 9.06958 21.3275 9.09053 21.2744C9.11149 21.2212 9.11045 21.1618 9.08766 21.1094C8.97389 20.8515 8.91514 20.5727 8.91514 20.2909C8.91514 20.009 8.97389 19.7302 9.08766 19.4723C9.32053 18.917 9.75943 18.4735 10.3123 18.2348C10.3647 18.2115 10.4057 18.1682 10.4262 18.1146C10.4468 18.061 10.4452 18.0015 10.4218 17.9491C10.3985 17.8967 10.3552 17.8557 10.3017 17.8351C10.2481 17.8146 10.1885 17.8161 10.1361 17.8395L10.1275 17.8524ZM12.4607 38.1895C12.1224 38.5267 11.6643 38.716 11.1867 38.716C10.7091 38.716 10.2509 38.5267 9.91266 38.1895C9.89206 38.17 9.86783 38.1548 9.84136 38.1447C9.81488 38.1346 9.78667 38.1298 9.75834 38.1306C9.73001 38.1314 9.70212 38.1378 9.67625 38.1494C9.65038 38.1609 9.62705 38.1775 9.60758 38.1981C9.58811 38.2187 9.57289 38.2429 9.56279 38.2694C9.55269 38.2959 9.5479 38.3241 9.54869 38.3524C9.54949 38.3807 9.55586 38.4086 9.56744 38.4345C9.57902 38.4604 9.59558 38.4837 9.61617 38.5032C10.0505 38.9176 10.6272 39.1499 11.2275 39.152C11.5163 39.1546 11.8025 39.0979 12.0686 38.9856C12.3346 38.8733 12.5748 38.7076 12.7744 38.4989C12.7938 38.4783 12.8091 38.4541 12.8192 38.4276C12.8293 38.4011 12.8341 38.3729 12.8333 38.3446C12.8325 38.3162 12.8261 38.2883 12.8145 38.2625C12.8029 38.2366 12.7864 38.2133 12.7658 38.1938C12.7452 38.1743 12.721 38.1591 12.6945 38.149C12.668 38.1389 12.6398 38.1341 12.6115 38.1349C12.5831 38.1357 12.5552 38.1421 12.5294 38.1537C12.5035 38.1652 12.4802 38.1818 12.4607 38.2024V38.1895ZM17.9005 38.8083H16.3279C16.1862 38.8083 16.0502 38.7523 15.9496 38.6525C15.849 38.5527 15.7919 38.4171 15.7908 38.2754V36.75C15.7908 36.6931 15.7681 36.6384 15.7279 36.5981C15.6876 36.5578 15.6329 36.5352 15.5759 36.5352C15.519 36.5352 15.4643 36.5578 15.424 36.5981C15.3837 36.6384 15.3611 36.6931 15.3611 36.75V38.2754C15.3611 38.4022 15.3861 38.5277 15.4348 38.6448C15.4834 38.7618 15.5547 38.8681 15.6445 38.9576C15.7344 39.047 15.841 39.1178 15.9582 39.1659C16.0755 39.214 16.2011 39.2385 16.3279 39.2379H17.9005C17.9575 39.2379 18.0122 39.2153 18.0525 39.175C18.0928 39.1347 18.1154 39.0801 18.1154 39.0231C18.1143 38.9665 18.0913 38.9125 18.0512 38.8724C18.0112 38.8323 17.9572 38.8094 17.9005 38.8083ZM14.0892 18.5313H17.3248C17.3817 18.5313 17.4364 18.5087 17.4767 18.4684C17.517 18.4281 17.5396 18.3734 17.5396 18.3165C17.5396 18.2595 17.517 18.2048 17.4767 18.1645C17.4364 18.1242 17.3817 18.1016 17.3248 18.1016H14.0892C14.0322 18.1016 13.9776 18.1242 13.9373 18.1645C13.897 18.2048 13.8744 18.2595 13.8744 18.3165C13.8744 18.3734 13.897 18.4281 13.9373 18.4684C13.9776 18.5087 14.0322 18.5313 14.0892 18.5313ZM38.5513 13.3665C38.5513 13.3095 38.5287 13.2548 38.4884 13.2145C38.4481 13.1742 38.3935 13.1516 38.3365 13.1516C37.7909 13.1674 37.2739 13.3987 36.8985 13.7949C36.5232 14.1912 36.3203 14.7201 36.3341 15.2657C36.3341 15.3227 36.3568 15.3773 36.3971 15.4176C36.4374 15.4579 36.492 15.4805 36.549 15.4805C36.606 15.4805 36.6606 15.4579 36.7009 15.4176C36.7412 15.3773 36.7638 15.3227 36.7638 15.2657C36.7499 14.834 36.9076 14.4144 37.2023 14.0987C37.4971 13.783 37.9049 13.597 38.3365 13.5813C38.3935 13.5813 38.4481 13.5587 38.4884 13.5184C38.5287 13.4781 38.5513 13.4234 38.5513 13.3665ZM44.7818 18.0415C45.3336 18.225 45.7903 18.6197 46.052 19.139C46.3137 19.6584 46.3591 20.2602 46.1783 20.8129C46.1684 20.8395 46.1639 20.8677 46.1649 20.8959C46.1659 20.9242 46.1725 20.952 46.1843 20.9778C46.196 21.0035 46.2128 21.0267 46.2335 21.0459C46.2542 21.0652 46.2785 21.0802 46.305 21.0901C46.3316 21.1 46.3598 21.1045 46.388 21.1035C46.4163 21.1025 46.4441 21.0959 46.4699 21.0841C46.4956 21.0723 46.5188 21.0556 46.538 21.0349C46.5573 21.0142 46.5723 20.9899 46.5822 20.9633C46.803 20.3029 46.7528 19.5819 46.4427 18.9584C46.1325 18.3349 45.5878 17.8599 44.9279 17.6375C44.9017 17.6273 44.8737 17.6223 44.8456 17.6231C44.8174 17.6238 44.7897 17.6301 44.7641 17.6418C44.7384 17.6534 44.7154 17.67 44.6963 17.6907C44.6772 17.7114 44.6624 17.7357 44.6529 17.7622C44.6345 17.8164 44.6376 17.8756 44.6616 17.9275C44.6856 17.9795 44.7286 18.0203 44.7818 18.0415Z" fill="#2166F3"/>
<path d="M16.663 13.5813C17.0947 13.597 17.5025 13.783 17.7972 14.0987C18.092 14.4144 18.2496 14.834 18.2357 15.2657C18.2357 15.3227 18.2583 15.3773 18.2986 15.4176C18.3389 15.4579 18.3936 15.4805 18.4505 15.4805C18.5075 15.4805 18.5622 15.4579 18.6025 15.4176C18.6428 15.3773 18.6654 15.3227 18.6654 15.2657C18.6793 14.7201 18.4763 14.1912 18.101 13.7949C17.7257 13.3987 17.2086 13.1674 16.663 13.1516C16.6061 13.1516 16.5514 13.1742 16.5111 13.2145C16.4708 13.2548 16.4482 13.3095 16.4482 13.3665C16.4482 13.4234 16.4708 13.4781 16.5111 13.5184C16.5514 13.5587 16.6061 13.5813 16.663 13.5813ZM10.1275 17.8524C9.48043 18.1365 8.96683 18.6578 8.69235 19.309C8.55741 19.6203 8.48779 19.9559 8.48779 20.2952C8.48779 20.6344 8.55741 20.97 8.69235 21.2813C8.71514 21.3337 8.75782 21.3749 8.81101 21.3959C8.86419 21.4168 8.92352 21.4158 8.97594 21.393C9.02836 21.3702 9.06958 21.3275 9.09053 21.2744C9.11149 21.2212 9.11045 21.1618 9.08766 21.1094C8.97389 20.8515 8.91514 20.5727 8.91514 20.2909C8.91514 20.009 8.97389 19.7302 9.08766 19.4723C9.32053 18.917 9.75943 18.4735 10.3123 18.2348C10.3647 18.2115 10.4057 18.1682 10.4262 18.1146C10.4468 18.061 10.4452 18.0015 10.4218 17.9491C10.3985 17.8967 10.3552 17.8557 10.3017 17.8351C10.2481 17.8146 10.1885 17.8161 10.1361 17.8395L10.1275 17.8524ZM12.4607 38.1895C12.1224 38.5267 11.6643 38.716 11.1867 38.716C10.7091 38.716 10.2509 38.5267 9.91266 38.1895C9.89206 38.17 9.86783 38.1548 9.84136 38.1447C9.81488 38.1346 9.78667 38.1298 9.75834 38.1306C9.73001 38.1314 9.70212 38.1378 9.67625 38.1494C9.65038 38.1609 9.62705 38.1775 9.60758 38.1981C9.58811 38.2187 9.57289 38.2429 9.56279 38.2694C9.55269 38.2959 9.5479 38.3241 9.54869 38.3524C9.54949 38.3807 9.55586 38.4086 9.56744 38.4345C9.57902 38.4604 9.59558 38.4837 9.61617 38.5032C10.0505 38.9176 10.6272 39.1499 11.2275 39.152C11.5163 39.1546 11.8025 39.0979 12.0686 38.9856C12.3346 38.8733 12.5748 38.7076 12.7744 38.4989C12.7938 38.4783 12.8091 38.4541 12.8192 38.4276C12.8293 38.4011 12.8341 38.3729 12.8333 38.3446C12.8325 38.3162 12.8261 38.2883 12.8145 38.2625C12.8029 38.2366 12.7864 38.2133 12.7658 38.1938C12.7452 38.1743 12.721 38.1591 12.6945 38.149C12.668 38.1389 12.6398 38.1341 12.6115 38.1349C12.5831 38.1357 12.5552 38.1421 12.5294 38.1537C12.5035 38.1652 12.4802 38.1818 12.4607 38.2024V38.1895ZM17.9005 38.8083H16.3279C16.1862 38.8083 16.0502 38.7523 15.9496 38.6525C15.849 38.5527 15.7919 38.4171 15.7908 38.2754V36.75C15.7908 36.6931 15.7681 36.6384 15.7279 36.5981C15.6876 36.5578 15.6329 36.5352 15.5759 36.5352C15.519 36.5352 15.4643 36.5578 15.424 36.5981C15.3837 36.6384 15.3611 36.6931 15.3611 36.75V38.2754C15.3611 38.4022 15.3861 38.5277 15.4348 38.6448C15.4834 38.7618 15.5547 38.8681 15.6445 38.9576C15.7344 39.047 15.841 39.1178 15.9582 39.1659C16.0755 39.214 16.2011 39.2385 16.3279 39.2379H17.9005C17.9575 39.2379 18.0122 39.2153 18.0525 39.175C18.0928 39.1347 18.1154 39.0801 18.1154 39.0231C18.1143 38.9665 18.0913 38.9125 18.0512 38.8724C18.0112 38.8323 17.9572 38.8094 17.9005 38.8083ZM14.0892 18.5313H17.3248C17.3817 18.5313 17.4364 18.5087 17.4767 18.4684C17.517 18.4281 17.5396 18.3734 17.5396 18.3165C17.5396 18.2595 17.517 18.2048 17.4767 18.1645C17.4364 18.1242 17.3817 18.1016 17.3248 18.1016H14.0892C14.0322 18.1016 13.9776 18.1242 13.9373 18.1645C13.897 18.2048 13.8744 18.2595 13.8744 18.3165C13.8744 18.3734 13.897 18.4281 13.9373 18.4684C13.9776 18.5087 14.0322 18.5313 14.0892 18.5313ZM38.5513 13.3665C38.5513 13.3095 38.5287 13.2548 38.4884 13.2145C38.4481 13.1742 38.3935 13.1516 38.3365 13.1516C37.7909 13.1674 37.2739 13.3987 36.8985 13.7949C36.5232 14.1912 36.3203 14.7201 36.3341 15.2657C36.3341 15.3227 36.3568 15.3773 36.3971 15.4176C36.4374 15.4579 36.492 15.4805 36.549 15.4805C36.606 15.4805 36.6606 15.4579 36.7009 15.4176C36.7412 15.3773 36.7638 15.3227 36.7638 15.2657C36.7499 14.834 36.9076 14.4144 37.2023 14.0987C37.4971 13.783 37.9049 13.597 38.3365 13.5813C38.3935 13.5813 38.4481 13.5587 38.4884 13.5184C38.5287 13.4781 38.5513 13.4234 38.5513 13.3665ZM44.7818 18.0415C45.3336 18.225 45.7903 18.6197 46.052 19.139C46.3137 19.6584 46.3591 20.2602 46.1783 20.8129C46.1684 20.8395 46.1639 20.8677 46.1649 20.8959C46.1659 20.9242 46.1725 20.952 46.1843 20.9778C46.196 21.0035 46.2128 21.0267 46.2335 21.0459C46.2542 21.0652 46.2785 21.0802 46.305 21.0901C46.3316 21.1 46.3598 21.1045 46.388 21.1035C46.4163 21.1025 46.4441 21.0959 46.4699 21.0841C46.4956 21.0723 46.5188 21.0556 46.538 21.0349C46.5573 21.0142 46.5723 20.9899 46.5822 20.9633C46.803 20.3029 46.7528 19.5819 46.4427 18.9584C46.1325 18.3349 45.5878 17.8599 44.9279 17.6375C44.9017 17.6273 44.8737 17.6223 44.8456 17.6231C44.8174 17.6238 44.7897 17.6301 44.7641 17.6418C44.7384 17.6534 44.7154 17.67 44.6963 17.6907C44.6772 17.7114 44.6624 17.7357 44.6529 17.7622C44.6345 17.8164 44.6376 17.8756 44.6616 17.9275C44.6856 17.9795 44.7286 18.0203 44.7818 18.0415Z" stroke="#2166F3" stroke-width="0.8" mask="url(#path-1-outside-1_348_258)"/>
<mask id="path-2-outside-2_348_258" maskUnits="userSpaceOnUse" x="1.94434" y="5.57434" width="51" height="45" fill="black">
<rect fill="white" x="1.94434" y="5.57434" width="51" height="45"/>
<path d="M52.0779 28.1177C52.0969 26.9007 51.7515 25.7058 51.0861 24.6867C50.4207 23.6675 49.4657 22.8706 48.3439 22.3985C48.6136 21.7353 48.7522 21.0262 48.7521 20.3102C48.7521 16.9673 45.8259 14.4622 42.7623 15.154C42.7107 12.4985 40.5107 10.3071 37.8724 10.6036C37.5908 9.71564 37.0383 8.93813 36.2923 8.3802C35.5463 7.82226 34.6444 7.5119 33.713 7.49266C31.281 7.49266 29.3045 9.58523 29.3045 12.1634V18.6946H27.7146V9.0825C28.0264 9.02869 28.3066 8.85986 28.4999 8.60939C28.6932 8.35891 28.7854 8.04503 28.7584 7.72981C28.7314 7.41458 28.5871 7.12096 28.3541 6.90701C28.121 6.69305 27.8161 6.57434 27.4998 6.57434C27.1834 6.57434 26.8785 6.69305 26.6455 6.90701C26.4124 7.12096 26.2681 7.41458 26.2411 7.72981C26.2141 8.04503 26.3064 8.35891 26.4996 8.60939C26.6929 8.85986 26.9732 9.02869 27.2849 9.0825V18.6946H25.6951V12.1634C25.6951 9.58523 23.7185 7.48836 21.2865 7.48836C20.3525 7.50908 19.4485 7.82257 18.7022 8.3846C17.956 8.94663 17.405 9.72882 17.1271 10.6208C14.3513 10.3114 12.2845 12.6489 12.2373 15.1712C9.27672 14.4837 6.24742 16.8899 6.24742 20.3274C6.25417 21.0448 6.4001 21.754 6.67711 22.4157C5.56699 22.9039 4.62293 23.7045 3.9601 24.7201C3.29728 25.7356 2.94434 26.9221 2.94434 28.1348C2.94434 29.3476 3.29728 30.534 3.9601 31.5496C4.62293 32.5651 5.56699 33.3658 6.67711 33.854C6.4001 34.5157 6.25417 35.2249 6.24742 35.9423C6.24742 39.2723 9.14352 41.7817 12.263 41.0985C12.0568 43.9387 14.4587 46.4567 17.2818 46.0141C17.7347 47.0643 18.5529 47.9146 19.5849 48.4075C20.1515 48.6534 20.7634 48.7778 21.381 48.7727C23.7701 48.7427 25.7252 46.6587 25.7252 44.102C25.7312 44.0737 25.7312 44.0444 25.7252 44.0161V37.5708H27.315V47.1528C27.0032 47.2066 26.723 47.3754 26.5297 47.6259C26.3364 47.8764 26.2442 48.1903 26.2712 48.5055C26.2982 48.8207 26.4425 49.1143 26.6755 49.3283C26.9086 49.5423 27.2135 49.661 27.5298 49.661C27.8462 49.661 28.1511 49.5423 28.3841 49.3283C28.6172 49.1143 28.7615 48.8207 28.7885 48.5055C28.8155 48.1903 28.7233 47.8764 28.53 47.6259C28.3367 47.3754 28.0565 47.2066 27.7447 47.1528V37.5407H29.3345V43.986C29.3285 44.0143 29.3285 44.0436 29.3345 44.0719C29.3274 44.9143 29.5455 45.7433 29.9663 46.4731C30.3871 47.2029 30.9953 47.8069 31.7279 48.2227C32.2653 48.5108 32.8578 48.6811 33.466 48.7225C34.0743 48.7639 34.6844 48.6754 35.2559 48.4629C35.8273 48.2503 36.347 47.9186 36.7803 47.4897C37.2137 47.0608 37.5508 46.5447 37.7693 45.9755C37.9753 46.009 38.1836 46.0262 38.3923 46.027C40.8244 46.027 42.8009 43.9302 42.8009 41.352V41.0598C45.9205 41.7602 48.8166 39.2337 48.8166 35.9036C48.8166 35.1877 48.678 34.4785 48.4084 33.8153C49.511 33.3296 50.4466 32.5306 51.0989 31.5177C51.7513 30.5047 52.0917 29.3224 52.0779 28.1177ZM26.6662 7.845C26.6662 7.68013 26.7151 7.51896 26.8067 7.38188C26.8983 7.2448 27.0284 7.13795 27.1808 7.07486C27.3331 7.01177 27.5007 6.99526 27.6624 7.02742C27.8241 7.05959 27.9726 7.13898 28.0892 7.25556C28.2058 7.37214 28.2852 7.52067 28.3173 7.68237C28.3495 7.84408 28.333 8.01168 28.2699 8.164C28.2068 8.31632 28.1 8.44651 27.9629 8.53811C27.8258 8.6297 27.6646 8.67859 27.4998 8.67859C27.2787 8.67859 27.0667 8.59077 26.9103 8.43444C26.754 8.27811 26.6662 8.06608 26.6662 7.845ZM28.3334 48.3903C28.3334 48.5552 28.2845 48.7163 28.1929 48.8534C28.1013 48.9905 27.9711 49.0974 27.8188 49.1604C27.6664 49.2235 27.4988 49.2401 27.3371 49.2079C27.1754 49.1757 27.0269 49.0963 26.9103 48.9797C26.7937 48.8632 26.7144 48.7146 26.6822 48.5529C26.65 48.3912 26.6665 48.2236 26.7296 48.0713C26.7927 47.919 26.8996 47.7888 27.0366 47.6972C27.1737 47.6056 27.3349 47.5567 27.4998 47.5567C27.7208 47.5567 27.9329 47.6445 28.0892 47.8009C28.2455 47.9572 28.3334 48.1692 28.3334 48.3903ZM32.5013 14.2173C32.3365 14.2173 32.1753 14.1684 32.0382 14.0768C31.9011 13.9852 31.7943 13.855 31.7312 13.7027C31.6681 13.5504 31.6516 13.3827 31.6837 13.221C31.7159 13.0593 31.7953 12.9108 31.9119 12.7942C32.0285 12.6777 32.177 12.5983 32.3387 12.5661C32.5004 12.5339 32.668 12.5504 32.8203 12.6135C32.9726 12.6766 33.1028 12.7835 33.1944 12.9206C33.286 13.0576 33.3349 13.2188 33.3349 13.3837C33.3349 13.6048 33.2471 13.8168 33.0908 13.9731C32.9344 14.1294 32.7224 14.2173 32.5013 14.2173ZM34.1298 19.1243C34.7563 19.1254 35.3567 19.3748 35.7997 19.8177C36.2426 20.2607 36.492 20.8611 36.4931 21.4876V34.7477C36.492 35.3742 36.2426 35.9746 35.7997 36.4176C35.3567 36.8605 34.7563 37.1099 34.1298 37.111H20.8697C20.2433 37.1099 19.6428 36.8605 19.1998 36.4176C18.7569 35.9746 18.5075 35.3742 18.5064 34.7477V21.4876C18.5075 20.8611 18.7569 20.2607 19.1998 19.8177C19.6428 19.3748 20.2433 19.1254 20.8697 19.1243H34.1298ZM32.5013 42.018C32.6662 42.018 32.8274 42.0669 32.9644 42.1585C33.1015 42.2501 33.2084 42.3803 33.2715 42.5326C33.3346 42.685 33.3511 42.8526 33.3189 43.0143C33.2867 43.176 33.2073 43.3245 33.0908 43.4411C32.9742 43.5577 32.8257 43.6371 32.664 43.6692C32.5023 43.7014 32.3346 43.6849 32.1823 43.6218C32.03 43.5587 31.8998 43.4518 31.8082 43.3148C31.7166 43.1777 31.6677 43.0165 31.6677 42.8516C31.6677 42.6306 31.7556 42.4185 31.9119 42.2622C32.0682 42.1059 32.2802 42.018 32.5013 42.018ZM22.4982 42.018C22.6631 42.018 22.8242 42.0669 22.9613 42.1585C23.0984 42.2501 23.2052 42.3803 23.2683 42.5326C23.3314 42.685 23.3479 42.8526 23.3158 43.0143C23.2836 43.176 23.2042 43.3245 23.0876 43.4411C22.9711 43.5577 22.8225 43.6371 22.6608 43.6692C22.4991 43.7014 22.3315 43.6849 22.1792 43.6218C22.0269 43.5587 21.8967 43.4518 21.8051 43.3148C21.7135 43.1777 21.6646 43.0165 21.6646 42.8516C21.6646 42.6306 21.7524 42.4185 21.9088 42.2622C22.0651 42.1059 22.2771 42.018 22.4982 42.018ZM22.4982 14.2173C22.3333 14.2173 22.1722 14.1684 22.0351 14.0768C21.898 13.9852 21.7912 13.855 21.7281 13.7027C21.665 13.5504 21.6485 13.3827 21.6806 13.221C21.7128 13.0593 21.7922 12.9108 21.9088 12.7942C22.0253 12.6777 22.1739 12.5983 22.3356 12.5661C22.4973 12.5339 22.6649 12.5504 22.8172 12.6135C22.9695 12.6766 23.0997 12.7835 23.1913 12.9206C23.2829 13.0576 23.3318 13.2188 23.3318 13.3837C23.3318 13.6048 23.244 13.8168 23.0876 13.9731C22.9313 14.1294 22.7193 14.2173 22.4982 14.2173ZM25.2654 44.0719C25.2654 46.2934 23.6154 48.2786 21.3638 48.313C20.846 48.3249 20.3316 48.2253 19.8556 48.0208C19.0925 47.684 18.4455 47.1299 17.9954 46.4276C17.5453 45.7253 17.312 44.906 17.3248 44.0719C17.3248 44.015 17.3021 43.9603 17.2618 43.92C17.2215 43.8797 17.1669 43.8571 17.1099 43.8571C17.0529 43.8571 16.9983 43.8797 16.958 43.92C16.9177 43.9603 16.8951 44.015 16.8951 44.0719C16.8964 44.5792 16.9746 45.0834 17.1271 45.5673C14.592 45.9153 12.422 43.6079 12.6927 40.9481C13.1356 40.8008 13.5552 40.591 13.9388 40.3251C13.9848 40.2915 14.0159 40.2413 14.0256 40.1851C14.0352 40.129 14.0226 40.0713 13.9904 40.0243C13.9576 39.9786 13.9081 39.9476 13.8527 39.9379C13.7972 39.9283 13.7402 39.9408 13.6939 39.9727C10.8107 41.9794 6.67711 39.8911 6.67711 35.9251C6.67936 35.2584 6.8122 34.5985 7.06812 33.9829C7.59775 34.1502 8.14981 34.2357 8.70523 34.2364C8.76221 34.2364 8.81686 34.2138 8.85715 34.1735C8.89744 34.1332 8.92008 34.0785 8.92008 34.0216C8.92008 33.9646 8.89744 33.9099 8.85715 33.8696C8.81686 33.8294 8.76221 33.8067 8.70523 33.8067C5.75758 33.8067 3.36851 31.2286 3.36851 28.1177C3.34094 26.9816 3.65892 25.8639 4.28041 24.9125C4.90189 23.9611 5.79758 23.2208 6.84898 22.7895C7.24883 23.6119 7.86902 24.3071 8.64053 24.798C9.41204 25.2888 10.3046 25.5559 11.2189 25.5696C11.2759 25.5696 11.3305 25.547 11.3708 25.5067C11.4111 25.4664 11.4337 25.4117 11.4337 25.3548C11.4337 25.2978 11.4111 25.2431 11.3708 25.2028C11.3305 25.1626 11.2759 25.1399 11.2189 25.1399C8.72242 25.1399 6.69 22.9915 6.69 20.3102C6.69 17.195 9.48297 14.7973 12.4005 15.6567C12.4326 15.6661 12.4663 15.6678 12.4991 15.6618C12.532 15.6559 12.5629 15.6424 12.5896 15.6223C12.6884 15.5493 12.6841 15.4419 12.6841 15.2657C12.6841 11.8755 16.2548 9.85594 18.8845 11.7423C18.9308 11.7697 18.9856 11.7787 19.0382 11.7677C19.0908 11.7566 19.1374 11.7262 19.1687 11.6825C19.2 11.6388 19.2138 11.5849 19.2073 11.5316C19.2008 11.4782 19.1746 11.4292 19.1337 11.3942C18.6625 11.0555 18.1275 10.8158 17.5611 10.6895C17.8195 9.8996 18.3166 9.20926 18.9838 8.71366C19.6511 8.21806 20.4556 7.94158 21.2865 7.92234C23.4822 7.92234 25.2654 9.82586 25.2654 12.1677V18.6989H22.713V14.6255C23.0248 14.5717 23.305 14.4028 23.4983 14.1524C23.6916 13.9019 23.7839 13.588 23.7569 13.2728C23.7299 12.9576 23.5856 12.6639 23.3525 12.45C23.1194 12.236 22.8146 12.1173 22.4982 12.1173C22.1818 12.1173 21.877 12.236 21.6439 12.45C21.4108 12.6639 21.2665 12.9576 21.2395 13.2728C21.2125 13.588 21.3048 13.9019 21.4981 14.1524C21.6914 14.4028 21.9716 14.5717 22.2834 14.6255V18.6946H20.8697C20.1293 18.6957 19.4196 18.9904 18.896 19.5139C18.3725 20.0374 18.0779 20.7472 18.0767 21.4876V22.9012H14.0076C13.9538 22.5895 13.7849 22.3092 13.5345 22.116C13.284 21.9227 12.9701 21.8304 12.6549 21.8574C12.3397 21.8844 12.046 22.0287 11.8321 22.2618C11.6181 22.4949 11.4994 22.7997 11.4994 23.1161C11.4994 23.4325 11.6181 23.7373 11.8321 23.9704C12.046 24.2035 12.3397 24.3478 12.6549 24.3748C12.9701 24.4018 13.284 24.3095 13.5345 24.1162C13.7849 23.9229 13.9538 23.6427 14.0076 23.3309H18.0767V27.9028H8.46461C8.4108 27.591 8.24197 27.3108 7.9915 27.1175C7.74102 26.9242 7.42714 26.832 7.11192 26.859C6.79669 26.886 6.50307 27.0303 6.28912 27.2633C6.07516 27.4964 5.95645 27.8013 5.95645 28.1177C5.95645 28.434 6.07516 28.7389 6.28912 28.972C6.50307 29.205 6.79669 29.3493 7.11192 29.3763C7.42714 29.4033 7.74102 29.3111 7.9915 29.1178C8.24197 28.9245 8.4108 28.6443 8.46461 28.3325H18.0767V32.9044H14.0076C13.9538 32.5926 13.7849 32.3124 13.5345 32.1191C13.284 31.9258 12.9701 31.8335 12.6549 31.8605C12.3397 31.8875 12.046 32.0318 11.8321 32.2649C11.6181 32.498 11.4994 32.8028 11.4994 33.1192C11.4994 33.4356 11.6181 33.7405 11.8321 33.9735C12.046 34.2066 12.3397 34.3509 12.6549 34.3779C12.9701 34.4049 13.284 34.3126 13.5345 34.1193C13.7849 33.9261 13.9538 33.6458 14.0076 33.3341H18.0767V34.7477C18.0779 35.4881 18.3725 36.1979 18.896 36.7214C19.4196 37.2449 20.1293 37.5396 20.8697 37.5407H22.2834V41.6098C21.9716 41.6636 21.6914 41.8325 21.4981 42.083C21.3048 42.3334 21.2125 42.6473 21.2395 42.9625C21.2665 43.2778 21.4108 43.5714 21.6439 43.7853C21.877 43.9993 22.1818 44.118 22.4982 44.118C22.8146 44.118 23.1194 43.9993 23.3525 43.7853C23.5856 43.5714 23.7299 43.2778 23.7569 42.9625C23.7839 42.6473 23.6916 42.3334 23.4983 42.083C23.305 41.8325 23.0248 41.6636 22.713 41.6098V37.5407H25.2654V44.0719ZM13.5994 23.1161C13.5994 23.281 13.5505 23.4421 13.4589 23.5792C13.3673 23.7163 13.2371 23.8231 13.0848 23.8862C12.9325 23.9493 12.7649 23.9658 12.6032 23.9337C12.4415 23.9015 12.2929 23.8221 12.1763 23.7055C12.0598 23.589 11.9804 23.4404 11.9482 23.2787C11.916 23.117 11.9325 22.9494 11.9956 22.7971C12.0587 22.6448 12.1656 22.5146 12.3027 22.423C12.4397 22.3314 12.6009 22.2825 12.7658 22.2825C12.9869 22.2825 13.1989 22.3703 13.3552 22.5267C13.5115 22.683 13.5994 22.895 13.5994 23.1161ZM8.0607 28.1177C8.0607 28.2825 8.01181 28.4437 7.92022 28.5808C7.82862 28.7179 7.69843 28.8247 7.54611 28.8878C7.39379 28.9509 7.22618 28.9674 7.06448 28.9352C6.90278 28.9031 6.75425 28.8237 6.63767 28.7071C6.52109 28.5905 6.4417 28.442 6.40953 28.2803C6.37737 28.1186 6.39388 27.951 6.45697 27.7987C6.52006 27.6463 6.6269 27.5161 6.76399 27.4245C6.90107 27.3329 7.06224 27.2841 7.22711 27.2841C7.44819 27.2841 7.66022 27.3719 7.81655 27.5282C7.97288 27.6845 8.0607 27.8966 8.0607 28.1177ZM13.5994 33.1192C13.5994 33.2841 13.5505 33.4453 13.4589 33.5823C13.3673 33.7194 13.2371 33.8263 13.0848 33.8894C12.9325 33.9524 12.7649 33.969 12.6032 33.9368C12.4415 33.9046 12.2929 33.8252 12.1763 33.7087C12.0598 33.5921 11.9804 33.4435 11.9482 33.2818C11.916 33.1201 11.9325 32.9525 11.9956 32.8002C12.0587 32.6479 12.1656 32.5177 12.3027 32.4261C12.4397 32.3345 12.6009 32.2856 12.7658 32.2856C12.8752 32.2856 12.9836 32.3072 13.0848 32.3491C13.1859 32.391 13.2778 32.4524 13.3552 32.5298C13.4326 32.6072 13.494 32.6991 13.5359 32.8002C13.5778 32.9013 13.5994 33.0097 13.5994 33.1192ZM48.3224 35.9251C48.3224 40.3036 43.1275 42.4907 40.356 39.0876C40.338 39.0659 40.3158 39.0479 40.2908 39.0347C40.2658 39.0216 40.2385 39.0135 40.2103 39.0109C40.1822 39.0083 40.1538 39.0113 40.1269 39.0196C40.0999 39.028 40.0748 39.0416 40.0531 39.0596C40.0314 39.0777 40.0134 39.0999 40.0002 39.1249C39.9871 39.1499 39.979 39.1772 39.9764 39.2053C39.9738 39.2335 39.9768 39.2618 39.9851 39.2888C39.9935 39.3158 40.0071 39.3408 40.0252 39.3626C40.6179 40.0951 41.4082 40.6424 42.3025 40.9395C42.3025 41.0856 42.3326 41.2317 42.3326 41.3692C42.3326 43.711 40.5494 45.6145 38.3537 45.6145C38.1926 45.612 38.0318 45.5991 37.8724 45.5759C38.0249 45.092 38.1031 44.5878 38.1045 44.0805C38.1045 44.0236 38.0818 43.9689 38.0415 43.9286C38.0012 43.8883 37.9466 43.8657 37.8896 43.8657C37.8326 43.8657 37.778 43.8883 37.7377 43.9286C37.6974 43.9689 37.6748 44.0236 37.6748 44.0805C37.6748 46.3708 35.956 48.2915 33.7474 48.3216C31.5388 48.3516 29.7341 46.4266 29.7341 44.0805V37.5407H32.2865V41.6098C31.9747 41.6636 31.6945 41.8325 31.5012 42.083C31.3079 42.3334 31.2157 42.6473 31.2427 42.9625C31.2697 43.2778 31.414 43.5714 31.647 43.7853C31.8801 43.9993 32.1849 44.118 32.5013 44.118C32.8177 44.118 33.1226 43.9993 33.3556 43.7853C33.5887 43.5714 33.733 43.2778 33.76 42.9625C33.787 42.6473 33.6947 42.3334 33.5015 42.083C33.3082 41.8325 33.0279 41.6636 32.7162 41.6098V37.5407H34.1298C34.8702 37.5396 35.58 37.2449 36.1035 36.7214C36.6271 36.1979 36.9217 35.4881 36.9228 34.7477V33.3341H40.992C41.0458 33.6458 41.2146 33.9261 41.4651 34.1193C41.7155 34.3126 42.0294 34.4049 42.3446 34.3779C42.6599 34.3509 42.9535 34.2066 43.1674 33.9735C43.3814 33.7405 43.5001 33.4356 43.5001 33.1192C43.5001 32.8028 43.3814 32.498 43.1674 32.2649C42.9535 32.0318 42.6599 31.8875 42.3446 31.8605C42.0294 31.8335 41.7155 31.9258 41.4651 32.1191C41.2146 32.3124 41.0458 32.5926 40.992 32.9044H36.9228V28.3325H46.5349C46.5887 28.6443 46.7576 28.9245 47.008 29.1178C47.2585 29.3111 47.5724 29.4033 47.8876 29.3763C48.2028 29.3493 48.4965 29.205 48.7104 28.972C48.9244 28.7389 49.0431 28.434 49.0431 28.1177C49.0431 27.8013 48.9244 27.4964 48.7104 27.2633C48.4965 27.0303 48.2028 26.886 47.8876 26.859C47.5724 26.832 47.2585 26.9242 47.008 27.1175C46.7576 27.3108 46.5887 27.591 46.5349 27.9028H36.9228V23.3309H40.992C41.0458 23.6427 41.2146 23.9229 41.4651 24.1162C41.7155 24.3095 42.0294 24.4018 42.3446 24.3748C42.6599 24.3478 42.9535 24.2035 43.1674 23.9704C43.3814 23.7373 43.5001 23.4325 43.5001 23.1161C43.5001 22.7997 43.3814 22.4949 43.1674 22.2618C42.9535 22.0287 42.6599 21.8844 42.3446 21.8574C42.0294 21.8304 41.7155 21.9227 41.4651 22.116C41.2146 22.3092 41.0458 22.5895 40.992 22.9012H36.9228V21.4876C36.9217 20.7472 36.6271 20.0374 36.1035 19.5139C35.58 18.9904 34.8702 18.6957 34.1298 18.6946H32.7162V14.6255C33.0279 14.5717 33.3082 14.4028 33.5015 14.1524C33.6947 13.9019 33.787 13.588 33.76 13.2728C33.733 12.9576 33.5887 12.6639 33.3556 12.45C33.1226 12.236 32.8177 12.1173 32.5013 12.1173C32.1849 12.1173 31.8801 12.236 31.647 12.45C31.414 12.6639 31.2697 12.9576 31.2427 13.2728C31.2157 13.588 31.3079 13.9019 31.5012 14.1524C31.6945 14.4028 31.9747 14.5717 32.2865 14.6255V18.6946H29.7341V12.1634C29.7341 9.82156 31.5173 7.91805 33.713 7.91805C34.5452 7.93727 35.3508 8.21475 36.0182 8.71208C36.6857 9.2094 37.182 9.90195 37.4384 10.6938C36.7375 10.8498 36.0863 11.1776 35.5435 11.6477C35.5002 11.6853 35.4736 11.7386 35.4696 11.7958C35.4656 11.853 35.4844 11.9095 35.522 11.9528C35.5596 11.9961 35.6129 12.0227 35.6701 12.0267C35.7273 12.0308 35.7838 12.0119 35.8271 11.9743C38.4052 9.73133 42.3154 11.695 42.3154 15.2657C42.313 15.2886 42.313 15.3116 42.3154 15.3345C42.2939 15.6095 42.44 15.6997 42.5861 15.6567C45.4521 14.7973 48.2966 17.1391 48.2966 20.3102C48.2966 22.9743 46.2642 25.1399 43.7677 25.1399C43.7108 25.1399 43.6561 25.1626 43.6158 25.2028C43.5755 25.2431 43.5529 25.2978 43.5529 25.3548C43.5529 25.4117 43.5755 25.4664 43.6158 25.5067C43.6561 25.547 43.7108 25.5696 43.7677 25.5696C44.682 25.5559 45.5746 25.2888 46.3461 24.798C47.1176 24.3071 47.7378 23.6119 48.1377 22.7895C49.1773 23.2189 50.0651 23.9488 50.6875 24.8858C51.3098 25.8227 51.6384 26.9241 51.631 28.0489C51.6286 28.0718 51.6286 28.0948 51.631 28.1177C51.631 31.2716 49.2119 33.8067 46.2943 33.8067C46.2373 33.8067 46.1827 33.8294 46.1424 33.8696C46.1021 33.9099 46.0795 33.9646 46.0795 34.0216C46.0795 34.0785 46.1021 34.1332 46.1424 34.1735C46.1827 34.2138 46.2373 34.2364 46.2943 34.2364C46.8497 34.2357 47.4018 34.1502 47.9314 33.9829C48.1873 34.5985 48.3202 35.2584 48.3224 35.9251ZM41.4002 33.1192C41.4002 32.9543 41.449 32.7932 41.5406 32.6561C41.6322 32.519 41.7624 32.4122 41.9147 32.3491C42.0671 32.286 42.2347 32.2695 42.3964 32.3016C42.5581 32.3338 42.7066 32.4132 42.8232 32.5298C42.9398 32.6464 43.0192 32.7949 43.0513 32.9566C43.0835 33.1183 43.067 33.2859 43.0039 33.4382C42.9408 33.5905 42.834 33.7207 42.6969 33.8123C42.5598 33.9039 42.3986 33.9528 42.2337 33.9528C42.0127 33.9528 41.8006 33.865 41.6443 33.7087C41.488 33.5523 41.4002 33.3403 41.4002 33.1192ZM46.9388 28.1177C46.9388 27.9528 46.9877 27.7916 47.0793 27.6545C47.1709 27.5175 47.3011 27.4106 47.4534 27.3475C47.6057 27.2844 47.7733 27.2679 47.935 27.3001C48.0967 27.3322 48.2453 27.4116 48.3619 27.5282C48.4784 27.6448 48.5578 27.7933 48.59 27.955C48.6222 28.1167 48.6057 28.2843 48.5426 28.4367C48.4795 28.589 48.3726 28.7192 48.2355 28.8108C48.0985 28.9024 47.9373 28.9512 47.7724 28.9512C47.5513 28.9512 47.3393 28.8634 47.183 28.7071C47.0267 28.5508 46.9388 28.3387 46.9388 28.1177ZM41.4002 23.1161C41.4002 22.9512 41.449 22.7901 41.5406 22.653C41.6322 22.5159 41.7624 22.409 41.9147 22.346C42.0671 22.2829 42.2347 22.2664 42.3964 22.2985C42.5581 22.3307 42.7066 22.4101 42.8232 22.5267C42.9398 22.6432 43.0192 22.7918 43.0513 22.9535C43.0835 23.1152 43.067 23.2828 43.0039 23.4351C42.9408 23.5874 42.834 23.7176 42.6969 23.8092C42.5598 23.9008 42.3986 23.9497 42.2337 23.9497C42.0127 23.9497 41.8006 23.8619 41.6443 23.7055C41.488 23.5492 41.4002 23.3372 41.4002 23.1161Z"/>
</mask>
<path d="M52.0779 28.1177C52.0969 26.9007 51.7515 25.7058 51.0861 24.6867C50.4207 23.6675 49.4657 22.8706 48.3439 22.3985C48.6136 21.7353 48.7522 21.0262 48.7521 20.3102C48.7521 16.9673 45.8259 14.4622 42.7623 15.154C42.7107 12.4985 40.5107 10.3071 37.8724 10.6036C37.5908 9.71564 37.0383 8.93813 36.2923 8.3802C35.5463 7.82226 34.6444 7.5119 33.713 7.49266C31.281 7.49266 29.3045 9.58523 29.3045 12.1634V18.6946H27.7146V9.0825C28.0264 9.02869 28.3066 8.85986 28.4999 8.60939C28.6932 8.35891 28.7854 8.04503 28.7584 7.72981C28.7314 7.41458 28.5871 7.12096 28.3541 6.90701C28.121 6.69305 27.8161 6.57434 27.4998 6.57434C27.1834 6.57434 26.8785 6.69305 26.6455 6.90701C26.4124 7.12096 26.2681 7.41458 26.2411 7.72981C26.2141 8.04503 26.3064 8.35891 26.4996 8.60939C26.6929 8.85986 26.9732 9.02869 27.2849 9.0825V18.6946H25.6951V12.1634C25.6951 9.58523 23.7185 7.48836 21.2865 7.48836C20.3525 7.50908 19.4485 7.82257 18.7022 8.3846C17.956 8.94663 17.405 9.72882 17.1271 10.6208C14.3513 10.3114 12.2845 12.6489 12.2373 15.1712C9.27672 14.4837 6.24742 16.8899 6.24742 20.3274C6.25417 21.0448 6.4001 21.754 6.67711 22.4157C5.56699 22.9039 4.62293 23.7045 3.9601 24.7201C3.29728 25.7356 2.94434 26.9221 2.94434 28.1348C2.94434 29.3476 3.29728 30.534 3.9601 31.5496C4.62293 32.5651 5.56699 33.3658 6.67711 33.854C6.4001 34.5157 6.25417 35.2249 6.24742 35.9423C6.24742 39.2723 9.14352 41.7817 12.263 41.0985C12.0568 43.9387 14.4587 46.4567 17.2818 46.0141C17.7347 47.0643 18.5529 47.9146 19.5849 48.4075C20.1515 48.6534 20.7634 48.7778 21.381 48.7727C23.7701 48.7427 25.7252 46.6587 25.7252 44.102C25.7312 44.0737 25.7312 44.0444 25.7252 44.0161V37.5708H27.315V47.1528C27.0032 47.2066 26.723 47.3754 26.5297 47.6259C26.3364 47.8764 26.2442 48.1903 26.2712 48.5055C26.2982 48.8207 26.4425 49.1143 26.6755 49.3283C26.9086 49.5423 27.2135 49.661 27.5298 49.661C27.8462 49.661 28.1511 49.5423 28.3841 49.3283C28.6172 49.1143 28.7615 48.8207 28.7885 48.5055C28.8155 48.1903 28.7233 47.8764 28.53 47.6259C28.3367 47.3754 28.0565 47.2066 27.7447 47.1528V37.5407H29.3345V43.986C29.3285 44.0143 29.3285 44.0436 29.3345 44.0719C29.3274 44.9143 29.5455 45.7433 29.9663 46.4731C30.3871 47.2029 30.9953 47.8069 31.7279 48.2227C32.2653 48.5108 32.8578 48.6811 33.466 48.7225C34.0743 48.7639 34.6844 48.6754 35.2559 48.4629C35.8273 48.2503 36.347 47.9186 36.7803 47.4897C37.2137 47.0608 37.5508 46.5447 37.7693 45.9755C37.9753 46.009 38.1836 46.0262 38.3923 46.027C40.8244 46.027 42.8009 43.9302 42.8009 41.352V41.0598C45.9205 41.7602 48.8166 39.2337 48.8166 35.9036C48.8166 35.1877 48.678 34.4785 48.4084 33.8153C49.511 33.3296 50.4466 32.5306 51.0989 31.5177C51.7513 30.5047 52.0917 29.3224 52.0779 28.1177ZM26.6662 7.845C26.6662 7.68013 26.7151 7.51896 26.8067 7.38188C26.8983 7.2448 27.0284 7.13795 27.1808 7.07486C27.3331 7.01177 27.5007 6.99526 27.6624 7.02742C27.8241 7.05959 27.9726 7.13898 28.0892 7.25556C28.2058 7.37214 28.2852 7.52067 28.3173 7.68237C28.3495 7.84408 28.333 8.01168 28.2699 8.164C28.2068 8.31632 28.1 8.44651 27.9629 8.53811C27.8258 8.6297 27.6646 8.67859 27.4998 8.67859C27.2787 8.67859 27.0667 8.59077 26.9103 8.43444C26.754 8.27811 26.6662 8.06608 26.6662 7.845ZM28.3334 48.3903C28.3334 48.5552 28.2845 48.7163 28.1929 48.8534C28.1013 48.9905 27.9711 49.0974 27.8188 49.1604C27.6664 49.2235 27.4988 49.2401 27.3371 49.2079C27.1754 49.1757 27.0269 49.0963 26.9103 48.9797C26.7937 48.8632 26.7144 48.7146 26.6822 48.5529C26.65 48.3912 26.6665 48.2236 26.7296 48.0713C26.7927 47.919 26.8996 47.7888 27.0366 47.6972C27.1737 47.6056 27.3349 47.5567 27.4998 47.5567C27.7208 47.5567 27.9329 47.6445 28.0892 47.8009C28.2455 47.9572 28.3334 48.1692 28.3334 48.3903ZM32.5013 14.2173C32.3365 14.2173 32.1753 14.1684 32.0382 14.0768C31.9011 13.9852 31.7943 13.855 31.7312 13.7027C31.6681 13.5504 31.6516 13.3827 31.6837 13.221C31.7159 13.0593 31.7953 12.9108 31.9119 12.7942C32.0285 12.6777 32.177 12.5983 32.3387 12.5661C32.5004 12.5339 32.668 12.5504 32.8203 12.6135C32.9726 12.6766 33.1028 12.7835 33.1944 12.9206C33.286 13.0576 33.3349 13.2188 33.3349 13.3837C33.3349 13.6048 33.2471 13.8168 33.0908 13.9731C32.9344 14.1294 32.7224 14.2173 32.5013 14.2173ZM34.1298 19.1243C34.7563 19.1254 35.3567 19.3748 35.7997 19.8177C36.2426 20.2607 36.492 20.8611 36.4931 21.4876V34.7477C36.492 35.3742 36.2426 35.9746 35.7997 36.4176C35.3567 36.8605 34.7563 37.1099 34.1298 37.111H20.8697C20.2433 37.1099 19.6428 36.8605 19.1998 36.4176C18.7569 35.9746 18.5075 35.3742 18.5064 34.7477V21.4876C18.5075 20.8611 18.7569 20.2607 19.1998 19.8177C19.6428 19.3748 20.2433 19.1254 20.8697 19.1243H34.1298ZM32.5013 42.018C32.6662 42.018 32.8274 42.0669 32.9644 42.1585C33.1015 42.2501 33.2084 42.3803 33.2715 42.5326C33.3346 42.685 33.3511 42.8526 33.3189 43.0143C33.2867 43.176 33.2073 43.3245 33.0908 43.4411C32.9742 43.5577 32.8257 43.6371 32.664 43.6692C32.5023 43.7014 32.3346 43.6849 32.1823 43.6218C32.03 43.5587 31.8998 43.4518 31.8082 43.3148C31.7166 43.1777 31.6677 43.0165 31.6677 42.8516C31.6677 42.6306 31.7556 42.4185 31.9119 42.2622C32.0682 42.1059 32.2802 42.018 32.5013 42.018ZM22.4982 42.018C22.6631 42.018 22.8242 42.0669 22.9613 42.1585C23.0984 42.2501 23.2052 42.3803 23.2683 42.5326C23.3314 42.685 23.3479 42.8526 23.3158 43.0143C23.2836 43.176 23.2042 43.3245 23.0876 43.4411C22.9711 43.5577 22.8225 43.6371 22.6608 43.6692C22.4991 43.7014 22.3315 43.6849 22.1792 43.6218C22.0269 43.5587 21.8967 43.4518 21.8051 43.3148C21.7135 43.1777 21.6646 43.0165 21.6646 42.8516C21.6646 42.6306 21.7524 42.4185 21.9088 42.2622C22.0651 42.1059 22.2771 42.018 22.4982 42.018ZM22.4982 14.2173C22.3333 14.2173 22.1722 14.1684 22.0351 14.0768C21.898 13.9852 21.7912 13.855 21.7281 13.7027C21.665 13.5504 21.6485 13.3827 21.6806 13.221C21.7128 13.0593 21.7922 12.9108 21.9088 12.7942C22.0253 12.6777 22.1739 12.5983 22.3356 12.5661C22.4973 12.5339 22.6649 12.5504 22.8172 12.6135C22.9695 12.6766 23.0997 12.7835 23.1913 12.9206C23.2829 13.0576 23.3318 13.2188 23.3318 13.3837C23.3318 13.6048 23.244 13.8168 23.0876 13.9731C22.9313 14.1294 22.7193 14.2173 22.4982 14.2173ZM25.2654 44.0719C25.2654 46.2934 23.6154 48.2786 21.3638 48.313C20.846 48.3249 20.3316 48.2253 19.8556 48.0208C19.0925 47.684 18.4455 47.1299 17.9954 46.4276C17.5453 45.7253 17.312 44.906 17.3248 44.0719C17.3248 44.015 17.3021 43.9603 17.2618 43.92C17.2215 43.8797 17.1669 43.8571 17.1099 43.8571C17.0529 43.8571 16.9983 43.8797 16.958 43.92C16.9177 43.9603 16.8951 44.015 16.8951 44.0719C16.8964 44.5792 16.9746 45.0834 17.1271 45.5673C14.592 45.9153 12.422 43.6079 12.6927 40.9481C13.1356 40.8008 13.5552 40.591 13.9388 40.3251C13.9848 40.2915 14.0159 40.2413 14.0256 40.1851C14.0352 40.129 14.0226 40.0713 13.9904 40.0243C13.9576 39.9786 13.9081 39.9476 13.8527 39.9379C13.7972 39.9283 13.7402 39.9408 13.6939 39.9727C10.8107 41.9794 6.67711 39.8911 6.67711 35.9251C6.67936 35.2584 6.8122 34.5985 7.06812 33.9829C7.59775 34.1502 8.14981 34.2357 8.70523 34.2364C8.76221 34.2364 8.81686 34.2138 8.85715 34.1735C8.89744 34.1332 8.92008 34.0785 8.92008 34.0216C8.92008 33.9646 8.89744 33.9099 8.85715 33.8696C8.81686 33.8294 8.76221 33.8067 8.70523 33.8067C5.75758 33.8067 3.36851 31.2286 3.36851 28.1177C3.34094 26.9816 3.65892 25.8639 4.28041 24.9125C4.90189 23.9611 5.79758 23.2208 6.84898 22.7895C7.24883 23.6119 7.86902 24.3071 8.64053 24.798C9.41204 25.2888 10.3046 25.5559 11.2189 25.5696C11.2759 25.5696 11.3305 25.547 11.3708 25.5067C11.4111 25.4664 11.4337 25.4117 11.4337 25.3548C11.4337 25.2978 11.4111 25.2431 11.3708 25.2028C11.3305 25.1626 11.2759 25.1399 11.2189 25.1399C8.72242 25.1399 6.69 22.9915 6.69 20.3102C6.69 17.195 9.48297 14.7973 12.4005 15.6567C12.4326 15.6661 12.4663 15.6678 12.4991 15.6618C12.532 15.6559 12.5629 15.6424 12.5896 15.6223C12.6884 15.5493 12.6841 15.4419 12.6841 15.2657C12.6841 11.8755 16.2548 9.85594 18.8845 11.7423C18.9308 11.7697 18.9856 11.7787 19.0382 11.7677C19.0908 11.7566 19.1374 11.7262 19.1687 11.6825C19.2 11.6388 19.2138 11.5849 19.2073 11.5316C19.2008 11.4782 19.1746 11.4292 19.1337 11.3942C18.6625 11.0555 18.1275 10.8158 17.5611 10.6895C17.8195 9.8996 18.3166 9.20926 18.9838 8.71366C19.6511 8.21806 20.4556 7.94158 21.2865 7.92234C23.4822 7.92234 25.2654 9.82586 25.2654 12.1677V18.6989H22.713V14.6255C23.0248 14.5717 23.305 14.4028 23.4983 14.1524C23.6916 13.9019 23.7839 13.588 23.7569 13.2728C23.7299 12.9576 23.5856 12.6639 23.3525 12.45C23.1194 12.236 22.8146 12.1173 22.4982 12.1173C22.1818 12.1173 21.877 12.236 21.6439 12.45C21.4108 12.6639 21.2665 12.9576 21.2395 13.2728C21.2125 13.588 21.3048 13.9019 21.4981 14.1524C21.6914 14.4028 21.9716 14.5717 22.2834 14.6255V18.6946H20.8697C20.1293 18.6957 19.4196 18.9904 18.896 19.5139C18.3725 20.0374 18.0779 20.7472 18.0767 21.4876V22.9012H14.0076C13.9538 22.5895 13.7849 22.3092 13.5345 22.116C13.284 21.9227 12.9701 21.8304 12.6549 21.8574C12.3397 21.8844 12.046 22.0287 11.8321 22.2618C11.6181 22.4949 11.4994 22.7997 11.4994 23.1161C11.4994 23.4325 11.6181 23.7373 11.8321 23.9704C12.046 24.2035 12.3397 24.3478 12.6549 24.3748C12.9701 24.4018 13.284 24.3095 13.5345 24.1162C13.7849 23.9229 13.9538 23.6427 14.0076 23.3309H18.0767V27.9028H8.46461C8.4108 27.591 8.24197 27.3108 7.9915 27.1175C7.74102 26.9242 7.42714 26.832 7.11192 26.859C6.79669 26.886 6.50307 27.0303 6.28912 27.2633C6.07516 27.4964 5.95645 27.8013 5.95645 28.1177C5.95645 28.434 6.07516 28.7389 6.28912 28.972C6.50307 29.205 6.79669 29.3493 7.11192 29.3763C7.42714 29.4033 7.74102 29.3111 7.9915 29.1178C8.24197 28.9245 8.4108 28.6443 8.46461 28.3325H18.0767V32.9044H14.0076C13.9538 32.5926 13.7849 32.3124 13.5345 32.1191C13.284 31.9258 12.9701 31.8335 12.6549 31.8605C12.3397 31.8875 12.046 32.0318 11.8321 32.2649C11.6181 32.498 11.4994 32.8028 11.4994 33.1192C11.4994 33.4356 11.6181 33.7405 11.8321 33.9735C12.046 34.2066 12.3397 34.3509 12.6549 34.3779C12.9701 34.4049 13.284 34.3126 13.5345 34.1193C13.7849 33.9261 13.9538 33.6458 14.0076 33.3341H18.0767V34.7477C18.0779 35.4881 18.3725 36.1979 18.896 36.7214C19.4196 37.2449 20.1293 37.5396 20.8697 37.5407H22.2834V41.6098C21.9716 41.6636 21.6914 41.8325 21.4981 42.083C21.3048 42.3334 21.2125 42.6473 21.2395 42.9625C21.2665 43.2778 21.4108 43.5714 21.6439 43.7853C21.877 43.9993 22.1818 44.118 22.4982 44.118C22.8146 44.118 23.1194 43.9993 23.3525 43.7853C23.5856 43.5714 23.7299 43.2778 23.7569 42.9625C23.7839 42.6473 23.6916 42.3334 23.4983 42.083C23.305 41.8325 23.0248 41.6636 22.713 41.6098V37.5407H25.2654V44.0719ZM13.5994 23.1161C13.5994 23.281 13.5505 23.4421 13.4589 23.5792C13.3673 23.7163 13.2371 23.8231 13.0848 23.8862C12.9325 23.9493 12.7649 23.9658 12.6032 23.9337C12.4415 23.9015 12.2929 23.8221 12.1763 23.7055C12.0598 23.589 11.9804 23.4404 11.9482 23.2787C11.916 23.117 11.9325 22.9494 11.9956 22.7971C12.0587 22.6448 12.1656 22.5146 12.3027 22.423C12.4397 22.3314 12.6009 22.2825 12.7658 22.2825C12.9869 22.2825 13.1989 22.3703 13.3552 22.5267C13.5115 22.683 13.5994 22.895 13.5994 23.1161ZM8.0607 28.1177C8.0607 28.2825 8.01181 28.4437 7.92022 28.5808C7.82862 28.7179 7.69843 28.8247 7.54611 28.8878C7.39379 28.9509 7.22618 28.9674 7.06448 28.9352C6.90278 28.9031 6.75425 28.8237 6.63767 28.7071C6.52109 28.5905 6.4417 28.442 6.40953 28.2803C6.37737 28.1186 6.39388 27.951 6.45697 27.7987C6.52006 27.6463 6.6269 27.5161 6.76399 27.4245C6.90107 27.3329 7.06224 27.2841 7.22711 27.2841C7.44819 27.2841 7.66022 27.3719 7.81655 27.5282C7.97288 27.6845 8.0607 27.8966 8.0607 28.1177ZM13.5994 33.1192C13.5994 33.2841 13.5505 33.4453 13.4589 33.5823C13.3673 33.7194 13.2371 33.8263 13.0848 33.8894C12.9325 33.9524 12.7649 33.969 12.6032 33.9368C12.4415 33.9046 12.2929 33.8252 12.1763 33.7087C12.0598 33.5921 11.9804 33.4435 11.9482 33.2818C11.916 33.1201 11.9325 32.9525 11.9956 32.8002C12.0587 32.6479 12.1656 32.5177 12.3027 32.4261C12.4397 32.3345 12.6009 32.2856 12.7658 32.2856C12.8752 32.2856 12.9836 32.3072 13.0848 32.3491C13.1859 32.391 13.2778 32.4524 13.3552 32.5298C13.4326 32.6072 13.494 32.6991 13.5359 32.8002C13.5778 32.9013 13.5994 33.0097 13.5994 33.1192ZM48.3224 35.9251C48.3224 40.3036 43.1275 42.4907 40.356 39.0876C40.338 39.0659 40.3158 39.0479 40.2908 39.0347C40.2658 39.0216 40.2385 39.0135 40.2103 39.0109C40.1822 39.0083 40.1538 39.0113 40.1269 39.0196C40.0999 39.028 40.0748 39.0416 40.0531 39.0596C40.0314 39.0777 40.0134 39.0999 40.0002 39.1249C39.9871 39.1499 39.979 39.1772 39.9764 39.2053C39.9738 39.2335 39.9768 39.2618 39.9851 39.2888C39.9935 39.3158 40.0071 39.3408 40.0252 39.3626C40.6179 40.0951 41.4082 40.6424 42.3025 40.9395C42.3025 41.0856 42.3326 41.2317 42.3326 41.3692C42.3326 43.711 40.5494 45.6145 38.3537 45.6145C38.1926 45.612 38.0318 45.5991 37.8724 45.5759C38.0249 45.092 38.1031 44.5878 38.1045 44.0805C38.1045 44.0236 38.0818 43.9689 38.0415 43.9286C38.0012 43.8883 37.9466 43.8657 37.8896 43.8657C37.8326 43.8657 37.778 43.8883 37.7377 43.9286C37.6974 43.9689 37.6748 44.0236 37.6748 44.0805C37.6748 46.3708 35.956 48.2915 33.7474 48.3216C31.5388 48.3516 29.7341 46.4266 29.7341 44.0805V37.5407H32.2865V41.6098C31.9747 41.6636 31.6945 41.8325 31.5012 42.083C31.3079 42.3334 31.2157 42.6473 31.2427 42.9625C31.2697 43.2778 31.414 43.5714 31.647 43.7853C31.8801 43.9993 32.1849 44.118 32.5013 44.118C32.8177 44.118 33.1226 43.9993 33.3556 43.7853C33.5887 43.5714 33.733 43.2778 33.76 42.9625C33.787 42.6473 33.6947 42.3334 33.5015 42.083C33.3082 41.8325 33.0279 41.6636 32.7162 41.6098V37.5407H34.1298C34.8702 37.5396 35.58 37.2449 36.1035 36.7214C36.6271 36.1979 36.9217 35.4881 36.9228 34.7477V33.3341H40.992C41.0458 33.6458 41.2146 33.9261 41.4651 34.1193C41.7155 34.3126 42.0294 34.4049 42.3446 34.3779C42.6599 34.3509 42.9535 34.2066 43.1674 33.9735C43.3814 33.7405 43.5001 33.4356 43.5001 33.1192C43.5001 32.8028 43.3814 32.498 43.1674 32.2649C42.9535 32.0318 42.6599 31.8875 42.3446 31.8605C42.0294 31.8335 41.7155 31.9258 41.4651 32.1191C41.2146 32.3124 41.0458 32.5926 40.992 32.9044H36.9228V28.3325H46.5349C46.5887 28.6443 46.7576 28.9245 47.008 29.1178C47.2585 29.3111 47.5724 29.4033 47.8876 29.3763C48.2028 29.3493 48.4965 29.205 48.7104 28.972C48.9244 28.7389 49.0431 28.434 49.0431 28.1177C49.0431 27.8013 48.9244 27.4964 48.7104 27.2633C48.4965 27.0303 48.2028 26.886 47.8876 26.859C47.5724 26.832 47.2585 26.9242 47.008 27.1175C46.7576 27.3108 46.5887 27.591 46.5349 27.9028H36.9228V23.3309H40.992C41.0458 23.6427 41.2146 23.9229 41.4651 24.1162C41.7155 24.3095 42.0294 24.4018 42.3446 24.3748C42.6599 24.3478 42.9535 24.2035 43.1674 23.9704C43.3814 23.7373 43.5001 23.4325 43.5001 23.1161C43.5001 22.7997 43.3814 22.4949 43.1674 22.2618C42.9535 22.0287 42.6599 21.8844 42.3446 21.8574C42.0294 21.8304 41.7155 21.9227 41.4651 22.116C41.2146 22.3092 41.0458 22.5895 40.992 22.9012H36.9228V21.4876C36.9217 20.7472 36.6271 20.0374 36.1035 19.5139C35.58 18.9904 34.8702 18.6957 34.1298 18.6946H32.7162V14.6255C33.0279 14.5717 33.3082 14.4028 33.5015 14.1524C33.6947 13.9019 33.787 13.588 33.76 13.2728C33.733 12.9576 33.5887 12.6639 33.3556 12.45C33.1226 12.236 32.8177 12.1173 32.5013 12.1173C32.1849 12.1173 31.8801 12.236 31.647 12.45C31.414 12.6639 31.2697 12.9576 31.2427 13.2728C31.2157 13.588 31.3079 13.9019 31.5012 14.1524C31.6945 14.4028 31.9747 14.5717 32.2865 14.6255V18.6946H29.7341V12.1634C29.7341 9.82156 31.5173 7.91805 33.713 7.91805C34.5452 7.93727 35.3508 8.21475 36.0182 8.71208C36.6857 9.2094 37.182 9.90195 37.4384 10.6938C36.7375 10.8498 36.0863 11.1776 35.5435 11.6477C35.5002 11.6853 35.4736 11.7386 35.4696 11.7958C35.4656 11.853 35.4844 11.9095 35.522 11.9528C35.5596 11.9961 35.6129 12.0227 35.6701 12.0267C35.7273 12.0308 35.7838 12.0119 35.8271 11.9743C38.4052 9.73133 42.3154 11.695 42.3154 15.2657C42.313 15.2886 42.313 15.3116 42.3154 15.3345C42.2939 15.6095 42.44 15.6997 42.5861 15.6567C45.4521 14.7973 48.2966 17.1391 48.2966 20.3102C48.2966 22.9743 46.2642 25.1399 43.7677 25.1399C43.7108 25.1399 43.6561 25.1626 43.6158 25.2028C43.5755 25.2431 43.5529 25.2978 43.5529 25.3548C43.5529 25.4117 43.5755 25.4664 43.6158 25.5067C43.6561 25.547 43.7108 25.5696 43.7677 25.5696C44.682 25.5559 45.5746 25.2888 46.3461 24.798C47.1176 24.3071 47.7378 23.6119 48.1377 22.7895C49.1773 23.2189 50.0651 23.9488 50.6875 24.8858C51.3098 25.8227 51.6384 26.9241 51.631 28.0489C51.6286 28.0718 51.6286 28.0948 51.631 28.1177C51.631 31.2716 49.2119 33.8067 46.2943 33.8067C46.2373 33.8067 46.1827 33.8294 46.1424 33.8696C46.1021 33.9099 46.0795 33.9646 46.0795 34.0216C46.0795 34.0785 46.1021 34.1332 46.1424 34.1735C46.1827 34.2138 46.2373 34.2364 46.2943 34.2364C46.8497 34.2357 47.4018 34.1502 47.9314 33.9829C48.1873 34.5985 48.3202 35.2584 48.3224 35.9251ZM41.4002 33.1192C41.4002 32.9543 41.449 32.7932 41.5406 32.6561C41.6322 32.519 41.7624 32.4122 41.9147 32.3491C42.0671 32.286 42.2347 32.2695 42.3964 32.3016C42.5581 32.3338 42.7066 32.4132 42.8232 32.5298C42.9398 32.6464 43.0192 32.7949 43.0513 32.9566C43.0835 33.1183 43.067 33.2859 43.0039 33.4382C42.9408 33.5905 42.834 33.7207 42.6969 33.8123C42.5598 33.9039 42.3986 33.9528 42.2337 33.9528C42.0127 33.9528 41.8006 33.865 41.6443 33.7087C41.488 33.5523 41.4002 33.3403 41.4002 33.1192ZM46.9388 28.1177C46.9388 27.9528 46.9877 27.7916 47.0793 27.6545C47.1709 27.5175 47.3011 27.4106 47.4534 27.3475C47.6057 27.2844 47.7733 27.2679 47.935 27.3001C48.0967 27.3322 48.2453 27.4116 48.3619 27.5282C48.4784 27.6448 48.5578 27.7933 48.59 27.955C48.6222 28.1167 48.6057 28.2843 48.5426 28.4367C48.4795 28.589 48.3726 28.7192 48.2355 28.8108C48.0985 28.9024 47.9373 28.9512 47.7724 28.9512C47.5513 28.9512 47.3393 28.8634 47.183 28.7071C47.0267 28.5508 46.9388 28.3387 46.9388 28.1177ZM41.4002 23.1161C41.4002 22.9512 41.449 22.7901 41.5406 22.653C41.6322 22.5159 41.7624 22.409 41.9147 22.346C42.0671 22.2829 42.2347 22.2664 42.3964 22.2985C42.5581 22.3307 42.7066 22.4101 42.8232 22.5267C42.9398 22.6432 43.0192 22.7918 43.0513 22.9535C43.0835 23.1152 43.067 23.2828 43.0039 23.4351C42.9408 23.5874 42.834 23.7176 42.6969 23.8092C42.5598 23.9008 42.3986 23.9497 42.2337 23.9497C42.0127 23.9497 41.8006 23.8619 41.6443 23.7055C41.488 23.5492 41.4002 23.3372 41.4002 23.1161Z" fill="#2166F3"/>
<path d="M52.0779 28.1177C52.0969 26.9007 51.7515 25.7058 51.0861 24.6867C50.4207 23.6675 49.4657 22.8706 48.3439 22.3985C48.6136 21.7353 48.7522 21.0262 48.7521 20.3102C48.7521 16.9673 45.8259 14.4622 42.7623 15.154C42.7107 12.4985 40.5107 10.3071 37.8724 10.6036C37.5908 9.71564 37.0383 8.93813 36.2923 8.3802C35.5463 7.82226 34.6444 7.5119 33.713 7.49266C31.281 7.49266 29.3045 9.58523 29.3045 12.1634V18.6946H27.7146V9.0825C28.0264 9.02869 28.3066 8.85986 28.4999 8.60939C28.6932 8.35891 28.7854 8.04503 28.7584 7.72981C28.7314 7.41458 28.5871 7.12096 28.3541 6.90701C28.121 6.69305 27.8161 6.57434 27.4998 6.57434C27.1834 6.57434 26.8785 6.69305 26.6455 6.90701C26.4124 7.12096 26.2681 7.41458 26.2411 7.72981C26.2141 8.04503 26.3064 8.35891 26.4996 8.60939C26.6929 8.85986 26.9732 9.02869 27.2849 9.0825V18.6946H25.6951V12.1634C25.6951 9.58523 23.7185 7.48836 21.2865 7.48836C20.3525 7.50908 19.4485 7.82257 18.7022 8.3846C17.956 8.94663 17.405 9.72882 17.1271 10.6208C14.3513 10.3114 12.2845 12.6489 12.2373 15.1712C9.27672 14.4837 6.24742 16.8899 6.24742 20.3274C6.25417 21.0448 6.4001 21.754 6.67711 22.4157C5.56699 22.9039 4.62293 23.7045 3.9601 24.7201C3.29728 25.7356 2.94434 26.9221 2.94434 28.1348C2.94434 29.3476 3.29728 30.534 3.9601 31.5496C4.62293 32.5651 5.56699 33.3658 6.67711 33.854C6.4001 34.5157 6.25417 35.2249 6.24742 35.9423C6.24742 39.2723 9.14352 41.7817 12.263 41.0985C12.0568 43.9387 14.4587 46.4567 17.2818 46.0141C17.7347 47.0643 18.5529 47.9146 19.5849 48.4075C20.1515 48.6534 20.7634 48.7778 21.381 48.7727C23.7701 48.7427 25.7252 46.6587 25.7252 44.102C25.7312 44.0737 25.7312 44.0444 25.7252 44.0161V37.5708H27.315V47.1528C27.0032 47.2066 26.723 47.3754 26.5297 47.6259C26.3364 47.8764 26.2442 48.1903 26.2712 48.5055C26.2982 48.8207 26.4425 49.1143 26.6755 49.3283C26.9086 49.5423 27.2135 49.661 27.5298 49.661C27.8462 49.661 28.1511 49.5423 28.3841 49.3283C28.6172 49.1143 28.7615 48.8207 28.7885 48.5055C28.8155 48.1903 28.7233 47.8764 28.53 47.6259C28.3367 47.3754 28.0565 47.2066 27.7447 47.1528V37.5407H29.3345V43.986C29.3285 44.0143 29.3285 44.0436 29.3345 44.0719C29.3274 44.9143 29.5455 45.7433 29.9663 46.4731C30.3871 47.2029 30.9953 47.8069 31.7279 48.2227C32.2653 48.5108 32.8578 48.6811 33.466 48.7225C34.0743 48.7639 34.6844 48.6754 35.2559 48.4629C35.8273 48.2503 36.347 47.9186 36.7803 47.4897C37.2137 47.0608 37.5508 46.5447 37.7693 45.9755C37.9753 46.009 38.1836 46.0262 38.3923 46.027C40.8244 46.027 42.8009 43.9302 42.8009 41.352V41.0598C45.9205 41.7602 48.8166 39.2337 48.8166 35.9036C48.8166 35.1877 48.678 34.4785 48.4084 33.8153C49.511 33.3296 50.4466 32.5306 51.0989 31.5177C51.7513 30.5047 52.0917 29.3224 52.0779 28.1177ZM26.6662 7.845C26.6662 7.68013 26.7151 7.51896 26.8067 7.38188C26.8983 7.2448 27.0284 7.13795 27.1808 7.07486C27.3331 7.01177 27.5007 6.99526 27.6624 7.02742C27.8241 7.05959 27.9726 7.13898 28.0892 7.25556C28.2058 7.37214 28.2852 7.52067 28.3173 7.68237C28.3495 7.84408 28.333 8.01168 28.2699 8.164C28.2068 8.31632 28.1 8.44651 27.9629 8.53811C27.8258 8.6297 27.6646 8.67859 27.4998 8.67859C27.2787 8.67859 27.0667 8.59077 26.9103 8.43444C26.754 8.27811 26.6662 8.06608 26.6662 7.845ZM28.3334 48.3903C28.3334 48.5552 28.2845 48.7163 28.1929 48.8534C28.1013 48.9905 27.9711 49.0974 27.8188 49.1604C27.6664 49.2235 27.4988 49.2401 27.3371 49.2079C27.1754 49.1757 27.0269 49.0963 26.9103 48.9797C26.7937 48.8632 26.7144 48.7146 26.6822 48.5529C26.65 48.3912 26.6665 48.2236 26.7296 48.0713C26.7927 47.919 26.8996 47.7888 27.0366 47.6972C27.1737 47.6056 27.3349 47.5567 27.4998 47.5567C27.7208 47.5567 27.9329 47.6445 28.0892 47.8009C28.2455 47.9572 28.3334 48.1692 28.3334 48.3903ZM32.5013 14.2173C32.3365 14.2173 32.1753 14.1684 32.0382 14.0768C31.9011 13.9852 31.7943 13.855 31.7312 13.7027C31.6681 13.5504 31.6516 13.3827 31.6837 13.221C31.7159 13.0593 31.7953 12.9108 31.9119 12.7942C32.0285 12.6777 32.177 12.5983 32.3387 12.5661C32.5004 12.5339 32.668 12.5504 32.8203 12.6135C32.9726 12.6766 33.1028 12.7835 33.1944 12.9206C33.286 13.0576 33.3349 13.2188 33.3349 13.3837C33.3349 13.6048 33.2471 13.8168 33.0908 13.9731C32.9344 14.1294 32.7224 14.2173 32.5013 14.2173ZM34.1298 19.1243C34.7563 19.1254 35.3567 19.3748 35.7997 19.8177C36.2426 20.2607 36.492 20.8611 36.4931 21.4876V34.7477C36.492 35.3742 36.2426 35.9746 35.7997 36.4176C35.3567 36.8605 34.7563 37.1099 34.1298 37.111H20.8697C20.2433 37.1099 19.6428 36.8605 19.1998 36.4176C18.7569 35.9746 18.5075 35.3742 18.5064 34.7477V21.4876C18.5075 20.8611 18.7569 20.2607 19.1998 19.8177C19.6428 19.3748 20.2433 19.1254 20.8697 19.1243H34.1298ZM32.5013 42.018C32.6662 42.018 32.8274 42.0669 32.9644 42.1585C33.1015 42.2501 33.2084 42.3803 33.2715 42.5326C33.3346 42.685 33.3511 42.8526 33.3189 43.0143C33.2867 43.176 33.2073 43.3245 33.0908 43.4411C32.9742 43.5577 32.8257 43.6371 32.664 43.6692C32.5023 43.7014 32.3346 43.6849 32.1823 43.6218C32.03 43.5587 31.8998 43.4518 31.8082 43.3148C31.7166 43.1777 31.6677 43.0165 31.6677 42.8516C31.6677 42.6306 31.7556 42.4185 31.9119 42.2622C32.0682 42.1059 32.2802 42.018 32.5013 42.018ZM22.4982 42.018C22.6631 42.018 22.8242 42.0669 22.9613 42.1585C23.0984 42.2501 23.2052 42.3803 23.2683 42.5326C23.3314 42.685 23.3479 42.8526 23.3158 43.0143C23.2836 43.176 23.2042 43.3245 23.0876 43.4411C22.9711 43.5577 22.8225 43.6371 22.6608 43.6692C22.4991 43.7014 22.3315 43.6849 22.1792 43.6218C22.0269 43.5587 21.8967 43.4518 21.8051 43.3148C21.7135 43.1777 21.6646 43.0165 21.6646 42.8516C21.6646 42.6306 21.7524 42.4185 21.9088 42.2622C22.0651 42.1059 22.2771 42.018 22.4982 42.018ZM22.4982 14.2173C22.3333 14.2173 22.1722 14.1684 22.0351 14.0768C21.898 13.9852 21.7912 13.855 21.7281 13.7027C21.665 13.5504 21.6485 13.3827 21.6806 13.221C21.7128 13.0593 21.7922 12.9108 21.9088 12.7942C22.0253 12.6777 22.1739 12.5983 22.3356 12.5661C22.4973 12.5339 22.6649 12.5504 22.8172 12.6135C22.9695 12.6766 23.0997 12.7835 23.1913 12.9206C23.2829 13.0576 23.3318 13.2188 23.3318 13.3837C23.3318 13.6048 23.244 13.8168 23.0876 13.9731C22.9313 14.1294 22.7193 14.2173 22.4982 14.2173ZM25.2654 44.0719C25.2654 46.2934 23.6154 48.2786 21.3638 48.313C20.846 48.3249 20.3316 48.2253 19.8556 48.0208C19.0925 47.684 18.4455 47.1299 17.9954 46.4276C17.5453 45.7253 17.312 44.906 17.3248 44.0719C17.3248 44.015 17.3021 43.9603 17.2618 43.92C17.2215 43.8797 17.1669 43.8571 17.1099 43.8571C17.0529 43.8571 16.9983 43.8797 16.958 43.92C16.9177 43.9603 16.8951 44.015 16.8951 44.0719C16.8964 44.5792 16.9746 45.0834 17.1271 45.5673C14.592 45.9153 12.422 43.6079 12.6927 40.9481C13.1356 40.8008 13.5552 40.591 13.9388 40.3251C13.9848 40.2915 14.0159 40.2413 14.0256 40.1851C14.0352 40.129 14.0226 40.0713 13.9904 40.0243C13.9576 39.9786 13.9081 39.9476 13.8527 39.9379C13.7972 39.9283 13.7402 39.9408 13.6939 39.9727C10.8107 41.9794 6.67711 39.8911 6.67711 35.9251C6.67936 35.2584 6.8122 34.5985 7.06812 33.9829C7.59775 34.1502 8.14981 34.2357 8.70523 34.2364C8.76221 34.2364 8.81686 34.2138 8.85715 34.1735C8.89744 34.1332 8.92008 34.0785 8.92008 34.0216C8.92008 33.9646 8.89744 33.9099 8.85715 33.8696C8.81686 33.8294 8.76221 33.8067 8.70523 33.8067C5.75758 33.8067 3.36851 31.2286 3.36851 28.1177C3.34094 26.9816 3.65892 25.8639 4.28041 24.9125C4.90189 23.9611 5.79758 23.2208 6.84898 22.7895C7.24883 23.6119 7.86902 24.3071 8.64053 24.798C9.41204 25.2888 10.3046 25.5559 11.2189 25.5696C11.2759 25.5696 11.3305 25.547 11.3708 25.5067C11.4111 25.4664 11.4337 25.4117 11.4337 25.3548C11.4337 25.2978 11.4111 25.2431 11.3708 25.2028C11.3305 25.1626 11.2759 25.1399 11.2189 25.1399C8.72242 25.1399 6.69 22.9915 6.69 20.3102C6.69 17.195 9.48297 14.7973 12.4005 15.6567C12.4326 15.6661 12.4663 15.6678 12.4991 15.6618C12.532 15.6559 12.5629 15.6424 12.5896 15.6223C12.6884 15.5493 12.6841 15.4419 12.6841 15.2657C12.6841 11.8755 16.2548 9.85594 18.8845 11.7423C18.9308 11.7697 18.9856 11.7787 19.0382 11.7677C19.0908 11.7566 19.1374 11.7262 19.1687 11.6825C19.2 11.6388 19.2138 11.5849 19.2073 11.5316C19.2008 11.4782 19.1746 11.4292 19.1337 11.3942C18.6625 11.0555 18.1275 10.8158 17.5611 10.6895C17.8195 9.8996 18.3166 9.20926 18.9838 8.71366C19.6511 8.21806 20.4556 7.94158 21.2865 7.92234C23.4822 7.92234 25.2654 9.82586 25.2654 12.1677V18.6989H22.713V14.6255C23.0248 14.5717 23.305 14.4028 23.4983 14.1524C23.6916 13.9019 23.7839 13.588 23.7569 13.2728C23.7299 12.9576 23.5856 12.6639 23.3525 12.45C23.1194 12.236 22.8146 12.1173 22.4982 12.1173C22.1818 12.1173 21.877 12.236 21.6439 12.45C21.4108 12.6639 21.2665 12.9576 21.2395 13.2728C21.2125 13.588 21.3048 13.9019 21.4981 14.1524C21.6914 14.4028 21.9716 14.5717 22.2834 14.6255V18.6946H20.8697C20.1293 18.6957 19.4196 18.9904 18.896 19.5139C18.3725 20.0374 18.0779 20.7472 18.0767 21.4876V22.9012H14.0076C13.9538 22.5895 13.7849 22.3092 13.5345 22.116C13.284 21.9227 12.9701 21.8304 12.6549 21.8574C12.3397 21.8844 12.046 22.0287 11.8321 22.2618C11.6181 22.4949 11.4994 22.7997 11.4994 23.1161C11.4994 23.4325 11.6181 23.7373 11.8321 23.9704C12.046 24.2035 12.3397 24.3478 12.6549 24.3748C12.9701 24.4018 13.284 24.3095 13.5345 24.1162C13.7849 23.9229 13.9538 23.6427 14.0076 23.3309H18.0767V27.9028H8.46461C8.4108 27.591 8.24197 27.3108 7.9915 27.1175C7.74102 26.9242 7.42714 26.832 7.11192 26.859C6.79669 26.886 6.50307 27.0303 6.28912 27.2633C6.07516 27.4964 5.95645 27.8013 5.95645 28.1177C5.95645 28.434 6.07516 28.7389 6.28912 28.972C6.50307 29.205 6.79669 29.3493 7.11192 29.3763C7.42714 29.4033 7.74102 29.3111 7.9915 29.1178C8.24197 28.9245 8.4108 28.6443 8.46461 28.3325H18.0767V32.9044H14.0076C13.9538 32.5926 13.7849 32.3124 13.5345 32.1191C13.284 31.9258 12.9701 31.8335 12.6549 31.8605C12.3397 31.8875 12.046 32.0318 11.8321 32.2649C11.6181 32.498 11.4994 32.8028 11.4994 33.1192C11.4994 33.4356 11.6181 33.7405 11.8321 33.9735C12.046 34.2066 12.3397 34.3509 12.6549 34.3779C12.9701 34.4049 13.284 34.3126 13.5345 34.1193C13.7849 33.9261 13.9538 33.6458 14.0076 33.3341H18.0767V34.7477C18.0779 35.4881 18.3725 36.1979 18.896 36.7214C19.4196 37.2449 20.1293 37.5396 20.8697 37.5407H22.2834V41.6098C21.9716 41.6636 21.6914 41.8325 21.4981 42.083C21.3048 42.3334 21.2125 42.6473 21.2395 42.9625C21.2665 43.2778 21.4108 43.5714 21.6439 43.7853C21.877 43.9993 22.1818 44.118 22.4982 44.118C22.8146 44.118 23.1194 43.9993 23.3525 43.7853C23.5856 43.5714 23.7299 43.2778 23.7569 42.9625C23.7839 42.6473 23.6916 42.3334 23.4983 42.083C23.305 41.8325 23.0248 41.6636 22.713 41.6098V37.5407H25.2654V44.0719ZM13.5994 23.1161C13.5994 23.281 13.5505 23.4421 13.4589 23.5792C13.3673 23.7163 13.2371 23.8231 13.0848 23.8862C12.9325 23.9493 12.7649 23.9658 12.6032 23.9337C12.4415 23.9015 12.2929 23.8221 12.1763 23.7055C12.0598 23.589 11.9804 23.4404 11.9482 23.2787C11.916 23.117 11.9325 22.9494 11.9956 22.7971C12.0587 22.6448 12.1656 22.5146 12.3027 22.423C12.4397 22.3314 12.6009 22.2825 12.7658 22.2825C12.9869 22.2825 13.1989 22.3703 13.3552 22.5267C13.5115 22.683 13.5994 22.895 13.5994 23.1161ZM8.0607 28.1177C8.0607 28.2825 8.01181 28.4437 7.92022 28.5808C7.82862 28.7179 7.69843 28.8247 7.54611 28.8878C7.39379 28.9509 7.22618 28.9674 7.06448 28.9352C6.90278 28.9031 6.75425 28.8237 6.63767 28.7071C6.52109 28.5905 6.4417 28.442 6.40953 28.2803C6.37737 28.1186 6.39388 27.951 6.45697 27.7987C6.52006 27.6463 6.6269 27.5161 6.76399 27.4245C6.90107 27.3329 7.06224 27.2841 7.22711 27.2841C7.44819 27.2841 7.66022 27.3719 7.81655 27.5282C7.97288 27.6845 8.0607 27.8966 8.0607 28.1177ZM13.5994 33.1192C13.5994 33.2841 13.5505 33.4453 13.4589 33.5823C13.3673 33.7194 13.2371 33.8263 13.0848 33.8894C12.9325 33.9524 12.7649 33.969 12.6032 33.9368C12.4415 33.9046 12.2929 33.8252 12.1763 33.7087C12.0598 33.5921 11.9804 33.4435 11.9482 33.2818C11.916 33.1201 11.9325 32.9525 11.9956 32.8002C12.0587 32.6479 12.1656 32.5177 12.3027 32.4261C12.4397 32.3345 12.6009 32.2856 12.7658 32.2856C12.8752 32.2856 12.9836 32.3072 13.0848 32.3491C13.1859 32.391 13.2778 32.4524 13.3552 32.5298C13.4326 32.6072 13.494 32.6991 13.5359 32.8002C13.5778 32.9013 13.5994 33.0097 13.5994 33.1192ZM48.3224 35.9251C48.3224 40.3036 43.1275 42.4907 40.356 39.0876C40.338 39.0659 40.3158 39.0479 40.2908 39.0347C40.2658 39.0216 40.2385 39.0135 40.2103 39.0109C40.1822 39.0083 40.1538 39.0113 40.1269 39.0196C40.0999 39.028 40.0748 39.0416 40.0531 39.0596C40.0314 39.0777 40.0134 39.0999 40.0002 39.1249C39.9871 39.1499 39.979 39.1772 39.9764 39.2053C39.9738 39.2335 39.9768 39.2618 39.9851 39.2888C39.9935 39.3158 40.0071 39.3408 40.0252 39.3626C40.6179 40.0951 41.4082 40.6424 42.3025 40.9395C42.3025 41.0856 42.3326 41.2317 42.3326 41.3692C42.3326 43.711 40.5494 45.6145 38.3537 45.6145C38.1926 45.612 38.0318 45.5991 37.8724 45.5759C38.0249 45.092 38.1031 44.5878 38.1045 44.0805C38.1045 44.0236 38.0818 43.9689 38.0415 43.9286C38.0012 43.8883 37.9466 43.8657 37.8896 43.8657C37.8326 43.8657 37.778 43.8883 37.7377 43.9286C37.6974 43.9689 37.6748 44.0236 37.6748 44.0805C37.6748 46.3708 35.956 48.2915 33.7474 48.3216C31.5388 48.3516 29.7341 46.4266 29.7341 44.0805V37.5407H32.2865V41.6098C31.9747 41.6636 31.6945 41.8325 31.5012 42.083C31.3079 42.3334 31.2157 42.6473 31.2427 42.9625C31.2697 43.2778 31.414 43.5714 31.647 43.7853C31.8801 43.9993 32.1849 44.118 32.5013 44.118C32.8177 44.118 33.1226 43.9993 33.3556 43.7853C33.5887 43.5714 33.733 43.2778 33.76 42.9625C33.787 42.6473 33.6947 42.3334 33.5015 42.083C33.3082 41.8325 33.0279 41.6636 32.7162 41.6098V37.5407H34.1298C34.8702 37.5396 35.58 37.2449 36.1035 36.7214C36.6271 36.1979 36.9217 35.4881 36.9228 34.7477V33.3341H40.992C41.0458 33.6458 41.2146 33.9261 41.4651 34.1193C41.7155 34.3126 42.0294 34.4049 42.3446 34.3779C42.6599 34.3509 42.9535 34.2066 43.1674 33.9735C43.3814 33.7405 43.5001 33.4356 43.5001 33.1192C43.5001 32.8028 43.3814 32.498 43.1674 32.2649C42.9535 32.0318 42.6599 31.8875 42.3446 31.8605C42.0294 31.8335 41.7155 31.9258 41.4651 32.1191C41.2146 32.3124 41.0458 32.5926 40.992 32.9044H36.9228V28.3325H46.5349C46.5887 28.6443 46.7576 28.9245 47.008 29.1178C47.2585 29.3111 47.5724 29.4033 47.8876 29.3763C48.2028 29.3493 48.4965 29.205 48.7104 28.972C48.9244 28.7389 49.0431 28.434 49.0431 28.1177C49.0431 27.8013 48.9244 27.4964 48.7104 27.2633C48.4965 27.0303 48.2028 26.886 47.8876 26.859C47.5724 26.832 47.2585 26.9242 47.008 27.1175C46.7576 27.3108 46.5887 27.591 46.5349 27.9028H36.9228V23.3309H40.992C41.0458 23.6427 41.2146 23.9229 41.4651 24.1162C41.7155 24.3095 42.0294 24.4018 42.3446 24.3748C42.6599 24.3478 42.9535 24.2035 43.1674 23.9704C43.3814 23.7373 43.5001 23.4325 43.5001 23.1161C43.5001 22.7997 43.3814 22.4949 43.1674 22.2618C42.9535 22.0287 42.6599 21.8844 42.3446 21.8574C42.0294 21.8304 41.7155 21.9227 41.4651 22.116C41.2146 22.3092 41.0458 22.5895 40.992 22.9012H36.9228V21.4876C36.9217 20.7472 36.6271 20.0374 36.1035 19.5139C35.58 18.9904 34.8702 18.6957 34.1298 18.6946H32.7162V14.6255C33.0279 14.5717 33.3082 14.4028 33.5015 14.1524C33.6947 13.9019 33.787 13.588 33.76 13.2728C33.733 12.9576 33.5887 12.6639 33.3556 12.45C33.1226 12.236 32.8177 12.1173 32.5013 12.1173C32.1849 12.1173 31.8801 12.236 31.647 12.45C31.414 12.6639 31.2697 12.9576 31.2427 13.2728C31.2157 13.588 31.3079 13.9019 31.5012 14.1524C31.6945 14.4028 31.9747 14.5717 32.2865 14.6255V18.6946H29.7341V12.1634C29.7341 9.82156 31.5173 7.91805 33.713 7.91805C34.5452 7.93727 35.3508 8.21475 36.0182 8.71208C36.6857 9.2094 37.182 9.90195 37.4384 10.6938C36.7375 10.8498 36.0863 11.1776 35.5435 11.6477C35.5002 11.6853 35.4736 11.7386 35.4696 11.7958C35.4656 11.853 35.4844 11.9095 35.522 11.9528C35.5596 11.9961 35.6129 12.0227 35.6701 12.0267C35.7273 12.0308 35.7838 12.0119 35.8271 11.9743C38.4052 9.73133 42.3154 11.695 42.3154 15.2657C42.313 15.2886 42.313 15.3116 42.3154 15.3345C42.2939 15.6095 42.44 15.6997 42.5861 15.6567C45.4521 14.7973 48.2966 17.1391 48.2966 20.3102C48.2966 22.9743 46.2642 25.1399 43.7677 25.1399C43.7108 25.1399 43.6561 25.1626 43.6158 25.2028C43.5755 25.2431 43.5529 25.2978 43.5529 25.3548C43.5529 25.4117 43.5755 25.4664 43.6158 25.5067C43.6561 25.547 43.7108 25.5696 43.7677 25.5696C44.682 25.5559 45.5746 25.2888 46.3461 24.798C47.1176 24.3071 47.7378 23.6119 48.1377 22.7895C49.1773 23.2189 50.0651 23.9488 50.6875 24.8858C51.3098 25.8227 51.6384 26.9241 51.631 28.0489C51.6286 28.0718 51.6286 28.0948 51.631 28.1177C51.631 31.2716 49.2119 33.8067 46.2943 33.8067C46.2373 33.8067 46.1827 33.8294 46.1424 33.8696C46.1021 33.9099 46.0795 33.9646 46.0795 34.0216C46.0795 34.0785 46.1021 34.1332 46.1424 34.1735C46.1827 34.2138 46.2373 34.2364 46.2943 34.2364C46.8497 34.2357 47.4018 34.1502 47.9314 33.9829C48.1873 34.5985 48.3202 35.2584 48.3224 35.9251ZM41.4002 33.1192C41.4002 32.9543 41.449 32.7932 41.5406 32.6561C41.6322 32.519 41.7624 32.4122 41.9147 32.3491C42.0671 32.286 42.2347 32.2695 42.3964 32.3016C42.5581 32.3338 42.7066 32.4132 42.8232 32.5298C42.9398 32.6464 43.0192 32.7949 43.0513 32.9566C43.0835 33.1183 43.067 33.2859 43.0039 33.4382C42.9408 33.5905 42.834 33.7207 42.6969 33.8123C42.5598 33.9039 42.3986 33.9528 42.2337 33.9528C42.0127 33.9528 41.8006 33.865 41.6443 33.7087C41.488 33.5523 41.4002 33.3403 41.4002 33.1192ZM46.9388 28.1177C46.9388 27.9528 46.9877 27.7916 47.0793 27.6545C47.1709 27.5175 47.3011 27.4106 47.4534 27.3475C47.6057 27.2844 47.7733 27.2679 47.935 27.3001C48.0967 27.3322 48.2453 27.4116 48.3619 27.5282C48.4784 27.6448 48.5578 27.7933 48.59 27.955C48.6222 28.1167 48.6057 28.2843 48.5426 28.4367C48.4795 28.589 48.3726 28.7192 48.2355 28.8108C48.0985 28.9024 47.9373 28.9512 47.7724 28.9512C47.5513 28.9512 47.3393 28.8634 47.183 28.7071C47.0267 28.5508 46.9388 28.3387 46.9388 28.1177ZM41.4002 23.1161C41.4002 22.9512 41.449 22.7901 41.5406 22.653C41.6322 22.5159 41.7624 22.409 41.9147 22.346C42.0671 22.2829 42.2347 22.2664 42.3964 22.2985C42.5581 22.3307 42.7066 22.4101 42.8232 22.5267C42.9398 22.6432 43.0192 22.7918 43.0513 22.9535C43.0835 23.1152 43.067 23.2828 43.0039 23.4351C42.9408 23.5874 42.834 23.7176 42.6969 23.8092C42.5598 23.9008 42.3986 23.9497 42.2337 23.9497C42.0127 23.9497 41.8006 23.8619 41.6443 23.7055C41.488 23.5492 41.4002 23.3372 41.4002 23.1161Z" stroke="#2166F3" stroke-width="0.8" mask="url(#path-2-outside-2_348_258)"/>
<path d="M39.9685 16.3591L39.9685 16.3592C40.0756 16.3635 40.1769 16.4091 40.2511 16.4865C40.3254 16.5638 40.3668 16.6669 40.3667 16.7741M39.9685 16.3591L40.1667 16.7739M39.9685 16.3591H39.9605C39.8504 16.3591 39.7449 16.4028 39.6671 16.4806C39.5893 16.5584 39.5456 16.6639 39.5456 16.7739V18.3456M39.9685 16.3591L39.7456 18.3466M40.3667 16.7741L40.1667 16.7739M40.3667 16.7741V16.7739H40.1667M40.3667 16.7741V18.3466V18.3475C40.3653 18.656 40.2418 18.9515 40.0231 19.1692C39.8045 19.3869 39.5085 19.5091 39.1999 19.5091H37.6745C37.5645 19.5091 37.459 19.4654 37.3812 19.3876C37.3034 19.3098 37.2597 19.2043 37.2597 19.0942C37.2597 18.9842 37.3034 18.8787 37.3812 18.8009C37.459 18.7231 37.5645 18.6794 37.6745 18.6794H39.2085C39.2975 18.6794 39.3828 18.6443 39.4459 18.5816C39.5089 18.5191 39.5447 18.4343 39.5456 18.3456M40.1667 16.7739V18.3466C40.1656 18.6022 40.0632 18.8471 39.882 19.0274C39.7008 19.2078 39.4556 19.3091 39.1999 19.3091H37.6745C37.6175 19.3091 37.5629 19.2864 37.5226 19.2462C37.4823 19.2059 37.4597 19.1512 37.4597 19.0942C37.4597 19.0373 37.4823 18.9826 37.5226 18.9423C37.5629 18.902 37.6175 18.8794 37.6745 18.8794H39.2085C39.3502 18.8794 39.4862 18.8234 39.5868 18.7236C39.6874 18.6238 39.7445 18.4883 39.7456 18.3466M39.5456 18.3456V18.3466H39.7456M39.5456 18.3456C39.5456 18.3454 39.5456 18.3452 39.5456 18.345L39.7456 18.3466M44.5237 39.4552V39.4556L46.7023 37.0509L46.9015 37.0679C46.9016 37.0668 46.9017 37.0657 46.9018 37.0646C46.9101 36.9571 46.8767 36.8504 46.8083 36.7668C46.7393 36.6825 46.64 36.6283 46.5317 36.6159L46.5317 36.6158L46.5255 36.6152C46.4155 36.6061 46.3064 36.6407 46.2218 36.7114C46.1372 36.7822 46.0839 36.8835 46.0735 36.9933L46.0732 36.9933L46.0727 37.0042C46.056 37.4192 45.8875 37.8137 45.5992 38.1127C45.3122 38.4102 44.9265 38.5926 44.5146 38.6256C44.4079 38.6279 44.3061 38.6713 44.2304 38.747C44.1526 38.8248 44.1089 38.9303 44.1089 39.0403C44.1089 39.1504 44.1526 39.2559 44.2304 39.3337C44.3082 39.4115 44.4137 39.4552 44.5237 39.4552ZM22.8288 32.2721L22.8248 32.2836L22.8223 32.2956C22.8011 32.3949 22.8172 32.4985 22.8673 32.5868C22.9175 32.6751 22.9982 32.7419 23.0943 32.7746C23.1905 32.8073 23.2952 32.8037 23.3888 32.7643C23.4824 32.725 23.5583 32.6527 23.6022 32.5611L23.607 32.5511L23.6106 32.5406L24.6338 29.6067H27.7479L28.7594 32.5431C28.7724 32.5953 28.7955 32.6445 28.8273 32.6879C28.8619 32.7352 28.9061 32.7747 28.9571 32.8036C29.0081 32.8326 29.0646 32.8504 29.123 32.8559C29.1813 32.8614 29.2402 32.8545 29.2957 32.8356C29.3512 32.8167 29.4021 32.7863 29.4449 32.7463C29.4878 32.7063 29.5217 32.6577 29.5444 32.6037C29.5671 32.5497 29.5782 32.4914 29.5767 32.4328C29.5754 32.3789 29.5636 32.3257 29.542 32.2764C29.0083 30.7004 27.9452 27.6048 27.227 25.5136C26.949 24.704 26.7227 24.0449 26.5987 23.6828C26.5728 23.5967 26.5201 23.521 26.4483 23.4668C26.3748 23.4114 26.2853 23.3814 26.1933 23.3814C26.1013 23.3814 26.0117 23.4114 25.9383 23.4668C25.8665 23.521 25.8138 23.5966 25.7879 23.6826L22.8288 32.2721ZM41.5116 36.5114H38.8691C38.759 36.5114 38.6535 36.5551 38.5757 36.6329C38.4979 36.7107 38.4542 36.8162 38.4542 36.9263C38.4542 37.0363 38.4979 37.1418 38.5757 37.2196C38.6535 37.2974 38.759 37.3411 38.8691 37.3411H41.5116C41.6217 37.3411 41.7272 37.2974 41.805 37.2196C41.8828 37.1418 41.9265 37.0363 41.9265 36.9263C41.9265 36.8162 41.8828 36.7107 41.805 36.6329C41.7272 36.5551 41.6217 36.5114 41.5116 36.5114ZM27.4731 28.7771H24.9316L26.2094 25.088L27.4731 28.7771ZM32.1726 32.4146V23.8208C32.1726 23.7108 32.1289 23.6053 32.0511 23.5275C31.9733 23.4497 31.8678 23.406 31.7577 23.406C31.6477 23.406 31.5422 23.4497 31.4644 23.5275C31.3866 23.6053 31.3429 23.7108 31.3429 23.8208V32.4146C31.3429 32.5246 31.3866 32.6301 31.4644 32.7079C31.5422 32.7857 31.6477 32.8294 31.7577 32.8294C31.8678 32.8294 31.9733 32.7857 32.0511 32.7079C32.1289 32.6301 32.1726 32.5246 32.1726 32.4146Z" fill="#2166F3" stroke="#2166F3" stroke-width="0.4"/>
</svg>
