<svg width="56" height="55" viewBox="0 0 56 55" fill="none" xmlns="http://www.w3.org/2000/svg">
<path d="M22.4269 6.26682H26.5381C26.7526 6.26682 26.9584 6.1816 27.1101 6.02992C27.2617 5.87823 27.347 5.67251 27.347 5.45799C27.347 5.24348 27.2617 5.03775 27.1101 4.88607C26.9584 4.73438 26.7526 4.64917 26.5381 4.64917H22.4269C22.2124 4.64917 22.0066 4.73438 21.855 4.88607C21.7033 5.03775 21.6181 5.24348 21.6181 5.45799C21.6181 5.67251 21.7033 5.87823 21.855 6.02992C22.0066 6.1816 22.2124 6.26682 22.4269 6.26682ZM18.7605 49.8106H26.0933C26.3078 49.8106 26.5135 49.7254 26.6652 49.5737C26.8169 49.4221 26.9021 49.2163 26.9021 49.0018C26.9021 48.7873 26.8169 48.5816 26.6652 48.4299C26.5135 48.2782 26.3078 48.193 26.0933 48.193H18.7605C18.546 48.193 18.3402 48.2782 18.1886 48.4299C18.0369 48.5816 17.9517 48.7873 17.9517 49.0018C17.9517 49.2163 18.0369 49.4221 18.1886 49.5737C18.3402 49.7254 18.546 49.8106 18.7605 49.8106Z" fill="#2166F3"/>
<path d="M8.3347 41.7628C8.54922 41.7628 8.75494 41.6776 8.90663 41.5259C9.05831 41.3742 9.14353 41.1685 9.14353 40.954V9.3015H35.7093V13.4621C35.7093 13.6766 35.7946 13.8823 35.9462 14.034C36.0979 14.1857 36.3036 14.2709 36.5182 14.2709C36.7327 14.2709 36.9384 14.1857 37.0901 14.034C37.2418 13.8823 37.327 13.6766 37.327 13.4621L37.3302 4.83679C37.3302 3.06547 35.8824 1.61768 34.1054 1.61768H10.745C9.05456 1.61768 7.52588 3.00885 7.52588 4.83922V40.954C7.52588 41.1685 7.61109 41.3742 7.76278 41.5259C7.91446 41.6776 8.12019 41.7628 8.3347 41.7628ZM34.1038 3.23532C34.9587 3.23532 35.7101 3.93495 35.7101 4.83922V7.68385H9.14353V4.83679C9.14353 3.95518 9.86661 3.23532 10.7474 3.23532H34.1038Z" fill="#2166F3"/>
<path d="M27.4183 21.9968C27.5707 22.1477 27.7768 22.2319 27.9913 22.2308C28.2058 22.2297 28.4111 22.1435 28.562 21.9912L31.9429 18.5795C32.0928 18.4281 32.1769 18.2236 32.1769 18.0105C32.1769 17.7974 32.0928 17.593 31.9429 17.4415L28.562 14.0299C28.4095 13.8854 28.2067 13.8059 27.9966 13.8082C27.7865 13.8105 27.5856 13.8945 27.4363 14.0424C27.2871 14.1903 27.2012 14.3905 27.1969 14.6005C27.1927 14.8106 27.2703 15.0141 27.4134 15.1679L30.229 18.0109L27.4126 20.8531C27.2618 21.0056 27.1776 21.2117 27.1787 21.4262C27.1797 21.6406 27.2659 21.8459 27.4183 21.9968ZM17.435 14.0242C17.3596 13.9493 17.2702 13.8901 17.1719 13.8498C17.0735 13.8095 16.9682 13.7891 16.862 13.7896C16.7557 13.7901 16.6506 13.8116 16.5527 13.8529C16.4548 13.8941 16.3659 13.9543 16.2913 14.0299L12.9112 17.4415C12.7613 17.593 12.6772 17.7974 12.6772 18.0105C12.6772 18.2236 12.7613 18.4281 12.9112 18.5795L16.2921 21.9912C16.3659 22.0705 16.4549 22.1342 16.5538 22.1784C16.6527 22.2227 16.7595 22.2467 16.8679 22.2489C16.9762 22.2511 17.0839 22.2315 17.1845 22.1913C17.2851 22.151 17.3766 22.091 17.4536 22.0148C17.5305 21.9385 17.5914 21.8475 17.6325 21.7473C17.6737 21.647 17.6943 21.5396 17.6931 21.4312C17.6919 21.3229 17.6689 21.2159 17.6255 21.1166C17.5822 21.0173 17.5193 20.9277 17.4407 20.8531L14.6251 18.0109L17.4407 15.1679C17.5915 15.0155 17.6757 14.8094 17.6746 14.5949C17.6736 14.3804 17.5874 14.1752 17.435 14.0242ZM23.7309 11.7385L18.9831 23.6848C18.9438 23.7836 18.9244 23.889 18.9259 23.9953C18.9275 24.1015 18.9499 24.2064 18.992 24.304C19.034 24.4015 19.0949 24.4899 19.1711 24.5639C19.2473 24.6379 19.3373 24.6962 19.436 24.7355C19.5347 24.7747 19.6402 24.7942 19.7465 24.7926C19.8527 24.7911 19.9576 24.7687 20.0552 24.7266C20.1527 24.6846 20.241 24.6237 20.3151 24.5475C20.3891 24.4713 20.4474 24.3813 20.4867 24.2826L25.2345 12.3362C25.3137 12.1367 25.3105 11.9139 25.2255 11.7168C25.1405 11.5197 24.9806 11.3644 24.7811 11.2852C24.5816 11.2059 24.3588 11.2091 24.1617 11.2942C23.9646 11.3792 23.8093 11.539 23.7301 11.7385H23.7309ZM36.5224 26.7236C34.1526 26.7236 32.2276 28.6486 32.2276 31.0184C32.2276 33.4109 34.1784 35.3133 36.5224 35.3133C38.8567 35.3133 40.8092 33.4142 40.8092 31.0184C40.8092 28.6486 38.8842 26.7236 36.5224 26.7236ZM37.3312 33.5662V30.4846C37.3312 30.0398 36.9673 29.6758 36.5224 29.6758C36.0695 29.6758 35.7136 30.0398 35.7136 30.4846V33.5743C35.1056 33.3796 34.5871 32.9742 34.2514 32.4312C33.9157 31.8882 33.7848 31.2431 33.8823 30.6122C33.9799 29.9813 34.2994 29.4059 34.7833 28.9896C35.2673 28.5733 35.884 28.3434 36.5224 28.3412C37.9945 28.3412 39.1915 29.5464 39.1915 31.0184C39.1915 32.2155 38.407 33.2265 37.3312 33.5662Z" fill="#2166F3"/>
<path d="M46.9965 28.4625L45.0068 28.2361C44.8531 27.7669 44.659 27.3059 44.4244 26.8611L45.5891 25.2111C45.8237 24.8956 45.7832 24.4508 45.5082 24.1758L43.1869 21.8625C43.0473 21.7208 42.8601 21.6358 42.6615 21.6238C42.4628 21.6119 42.2668 21.6738 42.1112 21.7978L40.5501 23.0515C40.1053 22.825 39.6443 22.639 39.1671 22.4934L38.8354 20.4956C38.8029 20.3071 38.7046 20.1362 38.558 20.0133C38.4114 19.8904 38.226 19.8234 38.0347 19.8243H34.759C34.3465 19.8243 33.9987 20.1316 33.9501 20.5441L33.7318 22.5419C33.2546 22.6956 32.8016 22.8897 32.3649 23.1162L30.7068 21.9434C30.5519 21.8324 30.3625 21.7803 30.1727 21.7966C29.9828 21.813 29.8051 21.8966 29.6715 22.0324L27.3582 24.3456C27.0671 24.6368 27.0428 25.0978 27.3016 25.4213L28.5472 26.9905C28.3207 27.4353 28.1347 27.8963 27.9891 28.3736L25.9994 28.7052C25.6112 28.778 25.32 29.1096 25.32 29.5059V32.7816C25.32 33.1941 25.6354 33.5338 26.0399 33.5824L28.0296 33.8088C28.1832 34.2861 28.3854 34.7471 28.6119 35.1838L27.4472 36.8258C27.2207 37.1493 27.2531 37.5861 27.5362 37.8691L29.8494 40.1824C30.1406 40.4736 30.6016 40.4978 30.9251 40.239L32.4943 38.9934C32.9391 39.2118 33.3921 39.3978 33.8693 39.5434L34.2009 41.5412C34.2317 41.7312 34.3292 41.904 34.476 42.0285C34.6228 42.1531 34.8091 42.2212 35.0016 42.2206H35.7134V44.0081H8.3347C7.88985 44.0081 7.52588 44.3721 7.52588 44.8169V50.1633C7.52801 51.0164 7.86786 51.8339 8.4711 52.4372C9.07434 53.0404 9.89189 53.3802 10.745 53.3824H34.1038C35.8832 53.3824 37.331 51.9346 37.331 50.1633V42.2206H38.2774C38.6899 42.2206 39.0376 41.9133 39.0862 41.5008L39.3126 39.503C39.783 39.3485 40.2401 39.1565 40.6796 38.9287L42.3296 40.1015C42.6531 40.328 43.0899 40.2875 43.3729 40.0125L45.6781 37.6912C45.9693 37.4 45.9935 36.939 45.7347 36.6235L44.4891 35.0544C44.7156 34.6015 44.9016 34.1405 45.0472 33.6713L47.0369 33.3316C47.4251 33.2669 47.7163 32.9272 47.7163 32.539V29.2633C47.7163 28.8508 47.409 28.503 46.9965 28.4625ZM35.7134 50.1633C35.7134 51.0449 34.9935 51.7647 34.1038 51.7647H10.745C9.86338 51.7647 9.14353 51.0449 9.14353 50.1633V45.6258H35.7134V50.1633ZM46.0987 31.8515L44.2707 32.1588C43.9472 32.2155 43.6965 32.45 43.6156 32.7736C43.4538 33.453 43.1869 34.1081 42.831 34.7309C42.6612 35.014 42.6854 35.378 42.8957 35.6368L44.02 37.0603L42.7097 38.3868L41.1891 37.303C41.0594 37.2124 40.906 37.1618 40.7479 37.1574C40.5898 37.1531 40.4338 37.1953 40.2994 37.2787C39.709 37.6427 39.0619 37.9177 38.3744 38.0875C38.0428 38.1684 37.8001 38.4515 37.7597 38.7831L37.5575 40.603H35.681L35.3737 38.7669C35.3484 38.611 35.2772 38.4661 35.1691 38.3508C35.061 38.2356 34.9211 38.1552 34.7671 38.1199C34.0876 37.95 33.4325 37.6831 32.8259 37.3272C32.685 37.2438 32.5221 37.2053 32.3588 37.2168C32.1955 37.2284 32.0396 37.2895 31.9119 37.3919L30.4803 38.5243L29.1619 37.2059L30.2296 35.7096C30.4018 35.4661 30.4318 35.1062 30.2619 34.8037C29.8979 34.2133 29.6149 33.5581 29.4369 32.8625C29.3978 32.7041 29.3108 32.5617 29.1878 32.4545C29.0648 32.3474 28.9117 32.2809 28.7494 32.264L26.9376 32.0537V30.1934L28.7656 29.8861C29.0891 29.8294 29.3479 29.5868 29.4207 29.2713C29.5825 28.5838 29.8494 27.9287 30.2134 27.3302C30.3832 27.039 30.3671 26.675 30.1568 26.4081L29.0163 24.9765L30.3347 23.6581L31.8472 24.7338C31.9761 24.8257 32.1291 24.8777 32.2872 24.8835C32.4454 24.8892 32.6017 24.8484 32.7369 24.7662C33.3274 24.4022 33.9825 24.1272 34.6781 23.9493C35.0016 23.8684 35.2362 23.5934 35.2766 23.2618L35.4788 21.4419H37.3553L37.6626 23.2699C37.7193 23.5934 37.9538 23.8522 38.2693 23.925C38.9568 24.0868 39.6119 24.3537 40.2185 24.7177C40.5097 24.8875 40.8737 24.8633 41.1325 24.653L42.556 23.5125L43.8744 24.839L42.8068 26.3434C42.6369 26.5836 42.6021 26.9347 42.7744 27.2412C43.1465 27.8478 43.4215 28.503 43.5913 29.1743C43.6722 29.4978 43.9472 29.7405 44.2869 29.7809L46.0987 29.9831V31.8515Z" fill="#2166F3"/>
</svg>
