<svg width="50" height="50" viewBox="0 0 50 50" fill="none" xmlns="http://www.w3.org/2000/svg">
<g clip-path="url(#clip0_441_1840)">
<path d="M10.7227 25C10.7227 22.0383 8.31324 19.6289 5.35163 19.6289C-1.76399 19.8989 -1.76213 30.1022 5.35172 30.3711C8.31324 30.3711 10.7227 27.9617 10.7227 25ZM5.35163 28.418C3.46696 28.418 1.93366 26.8847 1.93366 25C2.10554 20.4717 8.5984 20.473 8.76959 25C8.76959 26.8847 7.23629 28.418 5.35163 28.418ZM21.0743 9.76561H28.8868C29.4261 9.76561 29.8634 9.3283 29.8634 8.78905V6.49423C34.0294 7.59627 37.7366 10.1082 40.3129 13.5463L39.8739 13.4621C39.3436 13.3607 38.8324 13.7078 38.7309 14.2373C38.6293 14.7671 38.9764 15.2788 39.506 15.3803L42.2187 15.9006C42.7355 16.0037 43.2627 15.6584 43.3618 15.1254L43.882 12.4127C43.9836 11.8829 43.6365 11.3712 43.1068 11.2696C42.5765 11.1683 42.0653 11.5153 41.9638 12.0448L41.896 12.3981C40.6098 10.6688 39.0731 9.15457 37.3081 7.88348C35.06 6.26434 32.5558 5.12089 29.8634 4.48075V0.976561C29.8634 0.437304 29.4261 0 28.8868 0H21.0743C20.535 0 20.0978 0.437304 20.0978 0.976561V8.78905C20.0978 9.3283 20.535 9.76561 21.0743 9.76561ZM22.0509 1.95312H27.9103V7.81248H22.0509V1.95312ZM28.8868 40.2345H21.0743C20.535 40.2345 20.0978 40.6718 20.0978 41.2111V43.5058C15.9286 42.4027 12.226 39.8957 9.6483 36.4538L10.0874 36.538C10.6167 36.6391 11.1288 36.2924 11.2304 35.7628C11.332 35.233 10.9849 34.7213 10.4552 34.6198L7.74254 34.0995C7.61659 34.0754 7.4871 34.0762 7.36149 34.1021C7.23587 34.128 7.11658 34.1783 7.01044 34.2503C6.9043 34.3223 6.81338 34.4145 6.74288 34.5217C6.67238 34.6288 6.62369 34.7488 6.59957 34.8747L6.07936 37.5874C5.9778 38.1172 6.32487 38.6289 6.85455 38.7305C7.37125 38.8336 7.8984 38.4883 7.99762 37.9553L8.06607 37.5984C11.0097 41.5405 15.2908 44.3739 20.098 45.5193V49.0234C20.098 49.5627 20.5352 50 21.0745 50H28.887C29.4263 50 29.8636 49.5627 29.8636 49.0234V41.2111C29.8634 40.6717 29.4261 40.2345 28.8868 40.2345ZM27.9103 48.0469H22.0509V42.1876H27.9103V48.0469ZM49.9806 25C49.9806 22.0383 47.5712 19.6289 44.6096 19.6289C38.2167 19.7835 37.2599 28.6712 43.3918 30.2302C42.2371 34.3063 39.807 37.8263 36.4335 40.3371L36.5187 39.8934C36.6202 39.3636 36.2731 38.8519 35.7435 38.7503C35.2131 38.6488 34.702 38.996 34.6004 39.5255L34.0801 42.2381C34.0314 42.4925 34.0857 42.7558 34.231 42.9701C34.3764 43.1845 34.6009 43.3323 34.8553 43.3812L37.568 43.9014C38.0848 44.0045 38.6119 43.6592 38.711 43.1262C38.8126 42.5964 38.4655 42.0847 37.9358 41.9831L37.5828 41.9154C41.3991 39.0904 44.2111 34.9185 45.3926 30.3134C47.9843 29.9331 49.9806 27.6956 49.9806 25ZM44.6096 28.418C42.7249 28.418 41.1916 26.8847 41.1916 25C41.3635 20.4717 47.8563 20.473 48.0275 25C48.0275 26.8847 46.4942 28.418 44.6096 28.418ZM8.40679 13.5564C8.8316 13.8821 9.44644 13.8047 9.77574 13.3738C10.856 11.961 12.1135 10.7181 13.5276 9.66316L13.4425 10.1067C13.341 10.6365 13.688 11.1482 14.2177 11.2498C14.7344 11.3529 15.2616 11.0076 15.3608 10.4746L15.881 7.7619C15.9826 7.23211 15.6355 6.7204 15.1058 6.61883L12.3931 6.09862C11.8635 5.99706 11.3517 6.34413 11.2501 6.87381C11.1485 7.4036 11.4956 7.91532 12.0252 8.01688L12.3772 8.08436C10.8113 9.24988 9.41929 10.6244 8.22408 12.1875C7.89664 12.616 7.97838 13.2288 8.40679 13.5564ZM34.1474 26.9165L32.7433 25.8835C32.8096 25.2964 32.8096 24.7036 32.7433 24.1165L34.1474 23.0835C34.3409 22.941 34.4752 22.7322 34.5245 22.497C34.5737 22.2618 34.5345 22.0167 34.4144 21.8086L32.4613 18.4257C32.3412 18.2176 32.1485 18.0611 31.9202 17.9861C31.6918 17.9112 31.4439 17.9231 31.2237 18.0196L29.6271 18.719C29.1524 18.3665 28.6388 18.0695 28.0965 17.8339L27.9041 16.103C27.8776 15.8641 27.7639 15.6435 27.5849 15.4832C27.4058 15.3229 27.1739 15.2343 26.9336 15.2342H23.0275C22.7871 15.2342 22.5552 15.3229 22.3762 15.4832C22.1971 15.6434 22.0834 15.8641 22.0569 16.103L21.8645 17.8339C21.3222 18.0696 20.8086 18.3665 20.3339 18.719L18.7374 18.0196C18.5173 17.9232 18.2694 17.9113 18.041 17.9862C17.8127 18.0611 17.62 18.2176 17.4998 18.4257L15.5467 21.8086C15.4266 22.0167 15.3874 22.2618 15.4366 22.497C15.4859 22.7322 15.6201 22.941 15.8137 23.0835L17.2178 24.1165C17.1514 24.7036 17.1515 25.2963 17.2179 25.8834L15.8136 26.9165C15.62 27.059 15.4858 27.2678 15.4365 27.503C15.3873 27.7382 15.4265 27.9833 15.5466 28.1914L17.4997 31.5744C17.6199 31.7825 17.8125 31.9391 18.0409 32.014C18.2693 32.089 18.5172 32.077 18.7373 31.9805L20.3337 31.2811C20.8085 31.6336 21.3221 31.9306 21.8645 32.1662L22.0568 33.897C22.0833 34.1359 22.197 34.3566 22.3761 34.5168C22.5551 34.6771 22.787 34.7658 23.0274 34.7658H26.9335C27.1738 34.7658 27.4057 34.6772 27.5848 34.5169C27.7639 34.3566 27.8775 34.1359 27.904 33.897L28.0964 32.1661C28.6387 31.9306 29.1523 31.6336 29.627 31.281L31.2235 31.9805C31.4437 32.077 31.6916 32.0889 31.92 32.0139C32.1484 31.939 32.3411 31.7825 32.4612 31.5744L34.4143 28.1914C34.5345 27.9833 34.5737 27.7382 34.5244 27.503C34.4752 27.2678 34.3409 27.059 34.1474 26.9165ZM30.7305 23.8675C30.8763 24.6154 30.8763 25.3845 30.7305 26.1324C30.6949 26.3141 30.7117 26.5021 30.7789 26.6746C30.8462 26.8471 30.961 26.997 31.1102 27.1067L32.2859 27.9717L31.2069 29.8407L29.8688 29.2543C29.699 29.1799 29.5116 29.1554 29.3284 29.1836C29.1452 29.2117 28.9738 29.2915 28.8342 29.4134C28.2616 29.9153 27.5963 30.3002 26.8757 30.5462C26.7004 30.6061 26.5457 30.7147 26.4297 30.8592C26.3137 31.0037 26.2413 31.1783 26.2208 31.3624L26.0597 32.8125H23.9016L23.7406 31.3625C23.7201 31.1784 23.6476 31.0038 23.5317 30.8593C23.4157 30.7148 23.261 30.6062 23.0857 30.5463C22.365 30.3005 21.6996 29.9156 21.1271 29.4136C20.9876 29.2916 20.8162 29.2118 20.6329 29.1836C20.4497 29.1554 20.2623 29.18 20.0925 29.2544L18.7543 29.8408L17.6753 27.9717L18.8513 27.1066C19.0004 26.9969 19.1153 26.8471 19.1825 26.6746C19.2497 26.5022 19.2666 26.3141 19.231 26.1325C19.085 25.3845 19.085 24.6155 19.2309 23.8675C19.2665 23.6858 19.2496 23.4978 19.1824 23.3253C19.1152 23.1528 19.0003 23.0029 18.8512 22.8932L17.6753 22.0282L18.7543 20.1592L20.0926 20.7456C20.2624 20.82 20.4498 20.8446 20.633 20.8164C20.8162 20.7883 20.9876 20.7085 21.1272 20.5865C21.6997 20.0846 22.365 19.6998 23.0856 19.4538C23.2609 19.3939 23.4156 19.2853 23.5316 19.1408C23.6476 18.9963 23.7201 18.8217 23.7406 18.6376L23.9017 17.1874H26.0598L26.2209 18.6376C26.2414 18.8217 26.3138 18.9963 26.4298 19.1408C26.5457 19.2853 26.7004 19.3939 26.8758 19.4538C27.5975 19.7003 28.2564 20.0814 28.8343 20.5865C28.9738 20.7085 29.1452 20.7883 29.3284 20.8164C29.5116 20.8446 29.699 20.82 29.8688 20.7456L31.207 20.1592L32.286 22.0282L31.1103 22.8932C30.9611 23.0029 30.8462 23.1527 30.7789 23.3252C30.7117 23.4977 30.6949 23.6858 30.7305 23.8675Z" fill="#2166F3"/>
<path d="M24.9817 21.582C23.097 21.582 21.5637 23.1153 21.5637 25.0001C21.7356 29.5283 28.2284 29.5271 28.3996 25.0001C28.3996 23.1153 26.8663 21.582 24.9817 21.582ZM24.9817 26.4649C24.174 26.4649 23.5168 25.8078 23.5168 25.0001C23.5905 23.0593 26.3732 23.0599 26.4465 25.0001C26.4465 25.8078 25.7894 26.4649 24.9817 26.4649ZM6.72854 17.519C8.02288 17.471 8.0219 15.6135 6.72854 15.5659H6.72786C5.43342 15.6141 5.43528 17.4716 6.72854 17.519Z" fill="#2166F3"/>
</g>
<defs>
<clipPath id="clip0_441_1840">
<rect width="50" height="50" fill="white"/>
</clipPath>
</defs>
</svg>
