<svg width="50" height="50" viewBox="0 0 50 50" fill="none" xmlns="http://www.w3.org/2000/svg">
<path d="M23.632 20.8208L23.0558 16.2017L23.0461 16.0552V13.731C23.0461 13.0571 23.6125 12.5005 24.2961 12.5005H25.7023C26.3859 12.5005 26.9523 13.0474 26.9523 13.731V16.0552L26.9425 16.2017L26.3761 20.8208C26.298 21.436 25.7609 21.9048 25.1359 21.9048C24.7257 21.9048 24.4132 21.9048 24.0617 21.602C23.8273 21.4067 23.6808 21.1333 23.632 20.8208ZM24.2179 16.0649L24.7941 20.6841C24.8039 20.7622 24.9992 20.7329 25.1261 20.7329C25.1652 20.7329 25.1945 20.7231 25.2043 20.6841C25.5656 17.7251 25.7707 16.5044 25.7707 13.7407C25.7707 13.7017 25.7316 13.6919 25.6925 13.6919H24.2863C24.2472 13.6919 24.2082 13.7114 24.2082 13.7407C24.2179 14.3364 24.1496 15.5278 24.2179 16.0649ZM23.1633 25.6255V24.4634C23.1633 23.7896 23.7297 23.2329 24.4133 23.2329H25.6144C26.298 23.2329 26.8644 23.7798 26.8644 24.4634V25.6255C26.8644 26.2993 26.298 26.8462 25.6144 26.8462H24.4133C23.7297 26.8462 23.1633 26.2993 23.1633 25.6255ZM24.3351 24.4536V25.6157C24.3351 25.645 24.3742 25.6645 24.4133 25.6645H25.6144C25.6535 25.6645 25.6925 25.645 25.6925 25.6157V24.4536C25.6925 24.4243 25.6535 24.4048 25.6144 24.4048H24.4133C24.3742 24.4048 24.3351 24.4243 24.3351 24.4536ZM28.4562 9.72705L36.7375 24.063C37.4699 25.3325 37.4699 26.7876 36.7375 28.0571C36.3761 28.6821 35.8683 29.1899 35.2824 29.5317C34.6867 29.8735 34.0031 30.0591 33.2707 30.0591H16.7179C15.2531 30.0591 13.9836 29.3267 13.2511 28.0571C12.5187 26.7974 12.509 25.313 13.2511 24.0532L21.5324 9.71729C23.0851 7.05127 26.9133 7.05127 28.4562 9.72705ZM35.7316 24.6489L27.4504 10.313C26.923 9.40479 26.0441 8.89697 24.9992 8.89697C23.9445 8.89697 23.0754 9.40479 22.548 10.313L14.2668 24.6489C13.7492 25.5474 13.7492 26.5825 14.2668 27.481C14.8039 28.3892 15.6633 28.897 16.7179 28.897H33.2707C33.798 28.897 34.2765 28.77 34.6867 28.5356C36.0051 27.7544 36.5422 26.0552 35.7316 24.6489ZM24.9992 43.8286C36.2785 36.5044 43.1047 24.0337 43.1437 10.5474L24.9992 5.69385L6.86442 10.5474C6.90349 24.0337 13.7199 36.5044 24.9992 43.8286ZM39.257 30.1567C35.9855 36.1138 31.2297 41.2505 25.3312 45.0103C25.1457 45.1372 24.8918 45.147 24.6965 45.02C12.6945 37.4028 5.63395 24.1997 5.70231 10.2642V10.1372C5.68278 9.86377 5.85856 9.60986 6.132 9.53174L24.8527 4.51221C24.9504 4.48291 25.0578 4.48291 25.1554 4.51221L43.8761 9.53174C44.1203 9.6001 44.3058 9.82471 44.3058 10.0884C44.3547 17.1196 42.6554 23.9653 39.257 30.1567ZM24.6965 48.4478C10.8195 40.4106 2.28434 25.4009 2.78239 9.11182C2.79216 8.65283 2.81169 8.21338 2.84099 7.79346C2.86052 7.53955 3.0363 7.32471 3.28044 7.26611L24.8527 1.48486C24.9601 1.45557 25.0675 1.45557 25.1554 1.48486L46.7277 7.26611C46.9914 7.33447 47.1574 7.56885 47.1672 7.82275C47.1965 8.23291 47.216 8.6626 47.2258 9.11182C47.7238 25.4106 39.1886 40.4106 25.3019 48.4575C25.0968 48.5649 24.8722 48.5552 24.6965 48.4478ZM9.61833 31.7681C13.3097 38.1645 18.6222 43.5259 24.9894 47.2759C38.6125 39.2485 46.8156 24.3267 46.005 8.2915L24.9992 2.65674L3.98356 8.2915C3.56242 16.4963 5.51902 24.6482 9.61833 31.7681Z" fill="#2166F3" stroke="#2166F3" stroke-width="0.5"/>
</svg>
