<svg width="51" height="50" viewBox="0 0 51 50" fill="none" xmlns="http://www.w3.org/2000/svg">
<g clip-path="url(#clip0_758_218)">
<path d="M33.8053 20.8797C34.6384 20.0551 35.1555 18.9119 35.1555 17.6499C35.1555 15.1433 33.1157 13.104 30.6086 13.104C28.6766 13.104 26.9643 14.3287 26.325 16.1234C26.057 16.0739 25.7813 16.0468 25.4992 16.0468C25.2171 16.0468 24.9415 16.0739 24.6734 16.1234C24.034 14.3286 22.3216 13.104 20.3898 13.104C17.8826 13.104 15.8429 15.1433 15.8429 17.6499C15.8429 18.9119 16.3601 20.0551 17.1932 20.8797C15.1947 22.0181 13.9082 24.1738 13.9082 26.5182C13.9082 26.9228 14.2361 27.2507 14.6406 27.2507C15.0451 27.2507 15.3731 26.9228 15.3731 26.5182C15.3731 24.4476 16.6694 22.5673 18.6017 21.8299C19.4254 22.1838 20.3358 22.2847 21.217 22.1199C21.4468 22.7612 21.8175 23.3429 22.3017 23.8221C21.3037 24.3868 20.4738 25.2065 19.8967 26.1974C19.3197 27.1883 19.0164 28.3147 19.0178 29.4613C19.0178 29.8659 19.3457 30.1938 19.7502 30.1938C20.1547 30.1938 20.4827 29.8659 20.4827 29.4613C20.4815 28.4747 20.7716 27.5097 21.3167 26.6874C21.8618 25.865 22.6376 25.2219 23.5467 24.8386C23.5965 24.8175 23.6425 24.7913 23.6849 24.7613C24.257 25.0116 24.8748 25.1405 25.4992 25.1401C26.134 25.1401 26.7385 25.009 27.2877 24.773C29.219 25.5104 30.5157 27.3927 30.5157 29.4613C30.5157 29.8659 30.8437 30.1938 31.2481 30.1938C31.6526 30.1938 31.9806 29.8659 31.9806 29.4613C31.9806 27.119 30.6937 24.9616 28.6959 23.8228C29.1805 23.3435 29.5514 22.7616 29.7813 22.1199C30.6626 22.2847 31.5729 22.1838 32.3966 21.8299C34.3288 22.5673 35.6252 24.4474 35.6252 26.5182C35.6252 26.9228 35.9532 27.2507 36.3576 27.2507C36.7621 27.2507 37.0901 26.9228 37.0901 26.5182C37.0903 24.1737 35.8037 22.0181 33.8053 20.8797ZM20.9527 20.5935C20.9527 20.6223 20.9543 20.6506 20.9548 20.6792C20.7704 20.7136 20.5814 20.732 20.3899 20.732C18.6905 20.732 17.3078 19.3495 17.3078 17.6499C17.3078 15.9511 18.6905 14.5689 20.3899 14.5689C21.701 14.5689 22.8625 15.4008 23.2947 16.619C21.8992 17.3961 20.9527 18.8861 20.9527 20.5935ZM22.4175 20.5935C22.4175 18.8943 23.8 17.5117 25.4993 17.5117C27.1986 17.5117 28.581 18.8942 28.581 20.5935C28.581 22.2928 27.1986 23.6753 25.4993 23.6753C23.8 23.6753 22.4175 22.2927 22.4175 20.5935ZM30.0436 20.6792C30.0441 20.6506 30.0458 20.6222 30.0458 20.5935C30.0458 18.8861 29.0993 17.3962 27.7038 16.6191C28.136 15.4009 29.2975 14.569 30.6086 14.569C32.308 14.569 33.6906 15.9511 33.6906 17.65C33.6906 19.3495 32.308 20.7321 30.6086 20.7321C30.4191 20.7318 30.2299 20.7141 30.0436 20.6792Z" fill="black"/>
<path d="M44.4674 31.6542V18.3409C46.2931 17.9964 47.6787 16.3905 47.6787 14.4662C47.6787 12.2914 45.9094 10.5221 43.7346 10.5221C42.5394 10.5221 41.4674 11.0573 40.7436 11.8997L29.2213 5.24681C29.3685 4.82817 29.4436 4.38762 29.4435 3.94387C29.4435 1.76925 27.6743 0 25.4995 0C23.3248 0 21.5555 1.76925 21.5555 3.94397C21.5555 4.40051 21.6343 4.8387 21.7776 5.24691L10.2554 11.8997C9.53158 11.0573 8.4596 10.5221 7.26438 10.5221C5.08956 10.5221 3.32031 12.2914 3.32031 14.4662C3.32031 16.3905 4.70587 17.9963 6.53156 18.3409V31.6542C4.70587 31.9987 3.32031 33.6046 3.32031 35.5289C3.32031 37.7037 5.08956 39.473 7.26438 39.473C8.45775 39.473 9.52816 38.9395 10.252 38.0994L21.7776 44.7535C21.6304 45.172 21.5553 45.6124 21.5555 46.056C21.5555 48.2308 23.3247 50.0001 25.4995 50.0001C27.6744 50.0001 29.4436 48.2308 29.4436 46.056C29.4436 45.5997 29.3648 45.1615 29.2215 44.7535L40.7471 38.0994C41.4709 38.9396 42.5413 39.473 43.7347 39.473C45.9095 39.473 47.6788 37.7037 47.6788 35.5289C47.6787 33.6045 46.293 31.9987 44.4674 31.6542ZM43.7346 11.987C45.1016 11.987 46.2138 13.0992 46.2138 14.4662C46.2138 15.8332 45.1016 16.9454 43.7346 16.9454C42.3676 16.9454 41.2554 15.8332 41.2554 14.4662C41.2554 13.0992 42.3676 11.987 43.7346 11.987ZM25.4995 1.46485C26.8665 1.46485 27.9788 2.57697 27.9788 3.94397C27.9788 5.3097 26.8686 6.42103 25.5034 6.42308L25.4995 6.42289L25.4957 6.42308C24.1305 6.42103 23.0203 5.3097 23.0203 3.94397C23.0203 2.57697 24.1324 1.46485 25.4995 1.46485ZM4.78516 14.4662C4.78516 13.0992 5.89738 11.987 7.26438 11.987C8.63138 11.987 9.74359 13.0992 9.74359 14.4662C9.74359 15.8332 8.63138 16.9454 7.26438 16.9454C5.89738 16.9454 4.78516 15.8332 4.78516 14.4662ZM7.26438 38.008C5.89738 38.008 4.78516 36.8958 4.78516 35.5288C4.78516 34.1618 5.89738 33.0496 7.26438 33.0496C8.63138 33.0496 9.74359 34.1618 9.74359 35.5288C9.74359 36.8958 8.63138 38.008 7.26438 38.008ZM25.4995 48.5351C24.1325 48.5351 23.0203 47.4229 23.0203 46.0559C23.0203 44.6889 24.1325 43.5767 25.4995 43.5767C26.8665 43.5767 27.9788 44.6889 27.9788 46.0559C27.9788 47.4229 26.8665 48.5351 25.4995 48.5351ZM28.4874 43.4858C27.9154 42.8217 27.1268 42.35 26.2319 42.1812V39.3595C26.2319 38.9549 25.9039 38.6271 25.4994 38.6271C25.095 38.6271 24.767 38.9549 24.767 39.3595V42.1812C23.8722 42.3501 23.0836 42.8217 22.5115 43.4858L10.9862 36.8319C11.1334 36.4132 11.2085 35.9727 11.2083 35.5289C11.2083 35.072 11.1293 34.6333 10.9858 34.2248L13.4301 32.8132C13.5956 32.7147 13.7156 32.5549 13.7642 32.3686C13.8128 32.1822 13.786 31.9842 13.6897 31.8174C13.5934 31.6507 13.4353 31.5285 13.2496 31.4775C13.0639 31.4264 12.8656 31.4505 12.6975 31.5446L10.251 32.9575C9.67904 32.294 8.89076 31.8227 7.99632 31.6541V18.341C8.89105 18.1724 9.67953 17.7008 10.2515 17.037L12.7013 18.4518C12.7846 18.4999 12.8766 18.5312 12.9719 18.5437C13.0673 18.5563 13.1642 18.55 13.2571 18.5251C13.35 18.5002 13.4371 18.4573 13.5134 18.3987C13.5897 18.3401 13.6537 18.2671 13.7018 18.1838C13.7499 18.1005 13.7812 18.0086 13.7937 17.9132C13.8063 17.8178 13.8 17.7209 13.7751 17.628C13.7502 17.5351 13.7073 17.448 13.6487 17.3717C13.5902 17.2953 13.5171 17.2313 13.4338 17.1832L10.9859 15.7695C11.1331 15.3508 11.2083 14.9101 11.2082 14.4662C11.2083 14.0242 11.1337 13.5854 10.9876 13.1682L22.5115 6.51439C23.0835 7.17826 23.872 7.64995 24.7667 7.8187V10.6407C24.7667 11.0453 25.0947 11.3731 25.4992 11.3731C25.9036 11.3731 26.2316 11.0453 26.2316 10.6407V7.8187C27.1263 7.64995 27.9148 7.17826 28.4868 6.51439L40.0107 13.1682C39.8646 13.5854 39.7901 14.0242 39.7902 14.4662C39.7902 14.9228 39.8691 15.3612 40.0124 15.7695L37.5645 17.1832C37.3962 17.2803 37.2735 17.4403 37.2232 17.628C37.173 17.8156 37.1993 18.0155 37.2964 18.1837C37.3936 18.352 37.5536 18.4747 37.7412 18.525C37.9288 18.5752 38.1288 18.5489 38.297 18.4518L40.7468 17.037C41.3189 17.7008 42.1074 18.1724 43.002 18.341V31.6541C42.1076 31.8227 41.3194 32.294 40.7473 32.9575L38.3008 31.5446C38.2175 31.4965 38.1255 31.4653 38.0302 31.4527C37.9348 31.4402 37.8379 31.4465 37.745 31.4714C37.6521 31.4963 37.565 31.5392 37.4887 31.5977C37.4123 31.6563 37.3483 31.7293 37.3002 31.8126C37.2521 31.8959 37.2209 31.9878 37.2083 32.0832C37.1957 32.1786 37.2021 32.2755 37.227 32.3684C37.2518 32.4613 37.2948 32.5484 37.3533 32.6247C37.4119 32.701 37.4849 32.7651 37.5682 32.8132L40.0125 34.2248C39.8651 34.6438 39.7898 35.0848 39.79 35.5289C39.79 35.9855 39.8688 36.4237 40.0121 36.8319L28.4874 43.4858ZM43.7346 38.008C42.3676 38.008 41.2554 36.8958 41.2554 35.5288C41.2554 34.1618 42.3676 33.0496 43.7346 33.0496C45.1016 33.0496 46.2138 34.1618 46.2138 35.5288C46.2138 36.8958 45.1016 38.008 43.7346 38.008Z" fill="black"/>
<path d="M31.6345 32.5674H29.4548C29.0503 32.5674 28.7224 32.8952 28.7224 33.2998C28.7224 33.7044 29.0503 34.0322 29.4548 34.0322H31.6345C32.039 34.0322 32.3669 33.7044 32.3669 33.2998C32.3669 32.8952 32.039 32.5674 31.6345 32.5674ZM31.6345 35.436H19.3652C18.9607 35.436 18.6328 35.7639 18.6328 36.1685C18.6328 36.573 18.9607 36.9009 19.3652 36.9009H31.6346C31.7308 36.9009 31.826 36.8819 31.9149 36.8451C32.0037 36.8083 32.0845 36.7543 32.1525 36.6863C32.2205 36.6183 32.2744 36.5376 32.3112 36.4487C32.348 36.3598 32.367 36.2646 32.3669 36.1684C32.3669 36.0722 32.348 35.977 32.3112 35.8881C32.2744 35.7993 32.2204 35.7185 32.1524 35.6505C32.0844 35.5825 32.0036 35.5286 31.9148 35.4918C31.8259 35.455 31.7307 35.436 31.6345 35.436ZM19.3652 34.0322H19.3754C19.7799 34.0322 20.1078 33.7044 20.1078 33.2998C20.1078 32.8952 19.7799 32.5674 19.3754 32.5674H19.3652C18.9607 32.5674 18.6328 32.8952 18.6328 33.2998C18.6328 33.7044 18.9607 34.0322 19.3652 34.0322ZM21.9123 34.0322C22.3168 34.0322 22.6447 33.7044 22.6447 33.2998C22.6447 32.8952 22.3168 32.5674 21.9123 32.5674H21.9021C21.4977 32.5674 21.1697 32.8952 21.1697 33.2998C21.1697 33.7044 21.4977 34.0322 21.9021 34.0322H21.9123ZM24.4492 34.0322C24.8537 34.0322 25.1816 33.7044 25.1816 33.2998C25.1816 32.8952 24.8537 32.5674 24.4492 32.5674H24.4391C24.0346 32.5674 23.7066 32.8952 23.7066 33.2998C23.7066 33.7044 24.0346 34.0322 24.4391 34.0322H24.4492Z" fill="black"/>
</g>
<defs>
<clipPath id="clip0_758_218">
<rect width="50" height="50" fill="white" transform="translate(0.5)"/>
</clipPath>
</defs>
</svg>
