<svg width="60" height="60" viewBox="0 0 60 60" fill="none" xmlns="http://www.w3.org/2000/svg">
<g clip-path="url(#clip0_776_1236)">
<path d="M43.7483 4.94238H43.8837M47.4054 4.94238H47.5408M51.0624 4.94238H51.1979M11.4294 14.1974H12.0485M11.4294 18.7732H12.0485M42.8216 14.1974H48.5712M17.2925 14.1974H38.2541M17.2925 18.7732H27.5241M31.8853 18.7732H48.5712M11.4294 23.349H12.0485M17.2925 23.349H48.5712M20.0076 38.2378H20.1702M20.0076 46.1237H20.1702M20.0076 54.0095H20.1702M44.2094 45.1703H53.5036C54.4743 45.1703 55.2614 44.3832 55.2614 43.4125V39.375M4.73926 18.75V43.4125C4.73926 44.3832 5.52629 45.1703 6.49707 45.1703H15.7912M55.2614 35.2734V2.63672C55.2614 1.66594 54.4743 0.878906 53.5036 0.878906H6.49707C5.52629 0.878906 4.73926 1.66594 4.73926 2.63672V14.6484" stroke="black" stroke-width="2" stroke-miterlimit="10" stroke-linecap="round" stroke-linejoin="round"/>
<path d="M15.791 32.0742V55.781C15.791 57.6259 22.1527 59.1214 30.0001 59.1214C37.8476 59.1214 44.2092 57.6259 44.2092 55.781V32.0742" stroke="black" stroke-width="2" stroke-miterlimit="10" stroke-linejoin="round"/>
<path d="M30.0001 35.4016C37.8476 35.4016 44.2092 33.906 44.2092 32.0611C44.2092 30.2163 37.8476 28.7207 30.0001 28.7207C22.1526 28.7207 15.791 30.2163 15.791 32.0611C15.791 33.906 22.1526 35.4016 30.0001 35.4016Z" stroke="black" stroke-width="2" stroke-miterlimit="10" stroke-linecap="round" stroke-linejoin="round"/>
<path d="M26.9532 51.142C27.9349 51.1923 28.9541 51.2192 30.0001 51.2192C37.8476 51.2192 44.2092 49.7236 44.2092 47.8788V39.9766C44.2092 41.8214 37.8476 43.317 30.0001 43.317C22.1527 43.317 15.791 41.8214 15.791 39.9766V47.8789C15.791 49.111 18.6291 50.1871 22.8517 50.7661" stroke="black" stroke-width="2" stroke-miterlimit="10" stroke-linecap="round" stroke-linejoin="round"/>
<path d="M4.73926 9.00586H55.2613" stroke="black" stroke-width="2" stroke-miterlimit="10" stroke-linejoin="round"/>
</g>
<defs>
<clipPath id="clip0_776_1236">
<rect width="60" height="60" fill="white"/>
</clipPath>
</defs>
</svg>
