<svg width="55" height="55" viewBox="0 0 55 55" fill="none" xmlns="http://www.w3.org/2000/svg">
<g clip-path="url(#clip0_758_468)">
<path d="M46.4922 28.3594V26.6406C46.9666 26.6406 47.3516 26.2559 47.3516 25.7812V20.625C47.3516 20.1504 46.9666 19.7656 46.4922 19.7656H41.8516L41.685 19.1201C41.3052 17.6435 40.7147 16.2294 39.9317 14.9212L39.588 14.3462L42.8828 11.0456C43.2145 10.7133 43.2145 10.1748 42.8828 9.84251L39.2331 6.1875C39.071 6.03283 38.8555 5.94655 38.6314 5.94655C38.4073 5.94655 38.1918 6.03283 38.0297 6.1875L34.7288 9.48836L34.1541 9.14461C32.8441 8.36139 31.4282 7.77068 29.9499 7.39062L29.3047 7.22279V2.57812C29.3047 2.10349 28.9199 1.71875 28.4453 1.71875H23.2891C22.8144 1.71875 22.4297 2.10349 22.4297 2.57812V7.21875L21.7841 7.38555C20.3076 7.76537 18.8933 8.3554 17.5846 9.13756L17.0096 9.48166L13.7096 6.1875C13.5473 6.03163 13.3309 5.94459 13.1059 5.94459C12.8808 5.94459 12.6645 6.03163 12.5022 6.1875L8.85156 9.83718C8.77206 9.91645 8.70899 10.0106 8.66595 10.1143C8.62292 10.218 8.60076 10.3292 8.60076 10.4414C8.60076 10.5537 8.62292 10.6649 8.66595 10.7686C8.70899 10.8723 8.77206 10.9664 8.85156 11.0457L12.1524 14.3461L11.8087 14.9212C11.0258 16.2295 10.4354 17.6436 10.0557 19.1201L9.88711 19.7656H5.24219C4.76755 19.7656 4.38281 20.1504 4.38281 20.625V25.7812C4.38281 26.2559 4.76755 26.6406 5.24219 26.6406V28.3594C3.81855 28.3594 2.66406 27.2049 2.66406 25.7812V20.625C2.66406 19.2014 3.81855 18.0469 5.24219 18.0469H8.5672C8.92163 16.8586 9.40101 15.7113 9.99728 14.6242L7.634 12.2609C7.1506 11.7785 6.87904 11.1239 6.87904 10.4414C6.87904 9.75889 7.1506 9.1043 7.634 8.62228L11.2863 4.96994C12.3038 3.99609 13.9081 3.99609 14.9256 4.96994L17.2882 7.33219C18.3755 6.73655 19.5228 6.25778 20.7109 5.90391V2.57812C20.7109 1.15448 21.8654 0 23.2891 0H28.4453C29.869 0 31.0234 1.15448 31.0234 2.57812V5.90391C32.2116 6.25814 33.3589 6.73725 34.4462 7.33322L36.8094 4.96994C37.8273 3.99609 39.4312 3.99609 40.4491 4.96994L44.1007 8.62125C44.3399 8.85999 44.5296 9.14355 44.659 9.4557C44.7884 9.76785 44.855 10.1025 44.855 10.4404C44.8551 10.7783 44.7885 11.113 44.6591 11.4252C44.5296 11.7374 44.3399 12.0211 44.1007 12.2598L41.7374 14.6231C42.3332 15.7109 42.8125 16.8585 43.1672 18.0469H46.4922C47.9158 18.0469 49.0703 19.2014 49.0703 20.625V25.7812C49.0703 27.2049 47.9158 28.3594 46.4922 28.3594Z" fill="#2166F3"/>
<path d="M37.8984 23.2031H36.1797C36.1797 17.5078 31.5625 12.8906 25.8672 12.8906C20.1719 12.8906 15.5547 17.5078 15.5547 23.2031H13.8359C13.8359 16.5584 19.2225 11.1719 25.8672 11.1719C32.5115 11.1719 37.8984 16.5584 37.8984 23.2031Z" fill="#2166F3"/>
<path d="M25.8672 30.0781C23.0195 30.0781 20.7109 27.7692 20.7109 24.9219C20.7109 22.0742 23.0195 19.7656 25.8672 19.7656C28.7152 19.7656 31.0234 22.0742 31.0234 24.9219C31.0204 27.7686 28.7139 30.0751 25.8672 30.0781ZM25.8672 21.4844C23.9688 21.4844 22.4297 23.0235 22.4297 24.9219C22.4297 26.8202 23.9688 28.3594 25.8672 28.3594C27.7655 28.3594 29.3047 26.8202 29.3047 24.9219C29.3047 23.0235 27.7655 21.4844 25.8672 21.4844ZM40.4766 33.5156C37.6289 33.5156 35.3203 31.2067 35.3203 28.3594C35.3203 25.5117 37.6289 23.2031 40.4766 23.2031C43.3243 23.2031 45.6328 25.5117 45.6328 28.3594C45.6298 31.2061 43.3232 33.5126 40.4766 33.5156ZM40.4766 24.9219C38.5782 24.9219 37.0391 26.461 37.0391 28.3594C37.0391 30.2577 38.5782 31.7969 40.4766 31.7969C42.3749 31.7969 43.9141 30.2577 43.9141 28.3594C43.9141 26.461 42.3749 24.9219 40.4766 24.9219ZM11.2578 33.5156C8.4101 33.5156 6.10156 31.2067 6.10156 28.3594C6.10156 25.5117 8.4101 23.2031 11.2578 23.2031C14.1058 23.2031 16.4141 25.5117 16.4141 28.3594C16.4111 31.2061 14.1045 33.5126 11.2578 33.5156ZM11.2578 24.9219C9.35945 24.9219 7.82031 26.461 7.82031 28.3594C7.82031 30.2577 9.35945 31.7969 11.2578 31.7969C13.1562 31.7969 14.6953 30.2577 14.6953 28.3594C14.6953 26.461 13.1562 24.9219 11.2578 24.9219Z" fill="#2166F3"/>
<path d="M48.2673 35.7205C46.9866 34.8401 45.4681 34.3708 43.9141 34.375H37.0391C36.621 34.3788 36.2039 34.4166 35.7919 34.4881C35.2419 33.6281 34.5266 32.8859 33.6875 32.3045C33.5617 32.2094 33.4293 32.1233 33.2913 32.047C32.0891 31.3191 30.7101 30.9353 29.3047 30.9375H22.4297C21.1368 30.933 19.8638 31.2563 18.7297 31.8772C17.5957 32.4981 16.6375 33.3964 15.9448 34.4881C15.5321 34.4166 15.1142 34.3788 14.6953 34.375H7.82031C6.2672 34.3708 4.74961 34.8395 3.46938 35.7189C2.42745 36.4278 1.57455 37.3806 0.984864 38.4944C0.395181 39.6082 0.0865896 40.8492 0.0859375 42.1094V45.5469C0.0889453 47.8934 1.45423 50.0244 3.58557 51.0074C4.37229 51.3779 5.23198 51.5676 6.10156 51.5625H14.6953V49.8438H6.96094V40.3907H5.24219V49.7575C4.91869 49.6926 4.60439 49.5882 4.30633 49.4467C3.56081 49.103 2.92917 48.5532 2.48591 47.8622C2.04265 47.1712 1.80628 46.3679 1.80469 45.5469V42.1094C1.80573 41.1287 2.0463 40.163 2.5055 39.2964C2.96469 38.4298 3.62861 37.6884 4.43953 37.1368C5.43447 36.4541 6.61364 36.0903 7.82031 36.0938H14.6953C14.8467 36.0938 14.9927 36.11 15.1405 36.12C14.8497 36.9396 14.6992 37.8023 14.6953 38.6719V47.2657C14.6983 49.6377 16.6205 51.5595 18.9922 51.5625H21.5703V37.8125H19.8516V49.8438H18.9922C17.5685 49.8438 16.4141 48.6893 16.4141 47.2657V38.6719C16.4141 35.3492 19.1077 32.6563 22.4297 32.6563H29.3047C30.4103 32.6571 31.4943 32.9631 32.4371 33.5406C32.5243 33.5882 32.608 33.6418 32.6878 33.701C33.493 34.2523 34.1539 34.9892 34.6147 35.8494C35.0778 36.7181 35.3201 37.6874 35.3203 38.6719V47.2657C35.3203 48.6893 34.1658 49.8438 32.7422 49.8438H31.8828V37.8125H30.1641V51.5625H32.7422C35.1142 51.5595 37.0361 49.6377 37.0391 47.2657V38.6719C37.0351 37.8024 36.8848 36.9397 36.5946 36.12C36.7427 36.1099 36.8887 36.0938 37.0391 36.0938H43.9141C45.1217 36.0905 46.3017 36.4549 47.2972 37.1385C48.1074 37.6903 48.7706 38.4315 49.2294 39.2977C49.6881 40.164 49.9285 41.1292 49.9297 42.1094V45.5469C49.9282 46.3706 49.6903 47.1765 49.2443 47.869C48.7983 48.5614 48.163 49.1113 47.4137 49.4534C47.1202 49.5923 46.8107 49.6944 46.4922 49.7576V40.3907H44.7734V49.8438H37.0391V51.5625H45.6328C46.4971 51.568 47.3517 51.3806 48.1345 51.014C50.2727 50.0341 51.645 47.8991 51.6484 45.5469V42.1094C51.6478 40.8497 51.3394 39.6091 50.7502 38.4957C50.1609 37.3822 49.3086 36.4295 48.2673 35.7205Z" fill="#2166F3"/>
<path d="M22.4297 49.8438H29.3047V51.5625H22.4297V49.8438Z" fill="#2166F3"/>
</g>
<defs>
<clipPath id="clip0_758_468">
<rect width="55" height="55" fill="white"/>
</clipPath>
</defs>
</svg>
