<svg width="60" height="60" viewBox="0 0 60 60" fill="none" xmlns="http://www.w3.org/2000/svg">
<path d="M17.102 27.9487C17.5875 27.9487 17.9809 27.5552 17.9809 27.0698C17.9809 26.5844 17.5875 26.1909 17.102 26.1909H14.6332C14.4001 26.1909 14.1765 26.2835 14.0117 26.4483C13.8469 26.6131 13.7543 26.8367 13.7543 27.0698V32.9292C13.7543 33.1623 13.8469 33.3858 14.0117 33.5506C14.1765 33.7155 14.4001 33.8081 14.6332 33.8081H17.102C17.5875 33.8081 17.9809 33.4146 17.9809 32.9292C17.9809 32.4438 17.5875 32.0503 17.102 32.0503H15.5121V30.8784H16.9201C17.4056 30.8784 17.799 30.4849 17.799 29.9995C17.799 29.5141 17.4056 29.1206 16.9201 29.1206H15.5121V27.9487H17.102ZM7.67774 26.1909C7.56219 26.1909 7.44779 26.2138 7.34107 26.258C7.23435 26.3023 7.1374 26.3672 7.05578 26.449C6.97415 26.5308 6.90944 26.6278 6.86535 26.7346C6.82127 26.8414 6.79866 26.9559 6.79883 27.0714C6.79883 27.0714 6.80305 29.3251 6.80305 29.993C6.80305 30.8077 6.81067 32.9324 6.81067 32.9324C6.81144 33.165 6.90439 33.3878 7.06915 33.5519C7.2339 33.716 7.45701 33.8082 7.68957 33.8081H7.69285C7.74313 33.808 8.92719 33.8033 9.40098 33.7951C11.2442 33.7628 12.5821 32.1665 12.5821 29.9995C12.5821 27.7215 11.2781 26.1909 9.33711 26.1909H7.67774ZM10.8245 29.9995C10.8245 31.0012 10.3748 32.0199 9.37039 32.0375C9.18242 32.0408 8.87023 32.0435 8.56555 32.0456C8.56332 31.3647 8.56086 30.4617 8.56086 29.993C8.56086 29.6 8.55934 28.6582 8.55828 27.9487H9.33723C10.7172 27.9487 10.8245 29.5184 10.8245 29.9995ZM24.475 26.2464C24.2538 26.1729 24.0125 26.1903 23.8041 26.2948C23.5957 26.3993 23.4374 26.5822 23.3639 26.8034L22.1441 30.4753L20.8619 26.7815C20.7855 26.5613 20.6247 26.3805 20.4149 26.2788C20.2051 26.1771 19.9636 26.163 19.7434 26.2394C19.5231 26.3158 19.3423 26.4766 19.2406 26.6864C19.139 26.8962 19.1248 27.1377 19.2013 27.358L21.2069 33.1357C21.277 33.3323 21.4061 33.5025 21.5767 33.6228C21.7473 33.7432 21.9509 33.8079 22.1596 33.808H22.1666C22.5964 33.805 22.9784 33.5296 23.1189 33.1165L25.0321 27.3576C25.1056 27.1364 25.0881 26.895 24.9837 26.6867C24.8792 26.4783 24.6962 26.32 24.475 26.2464ZM42.5566 32.9292C42.5566 33.4146 42.95 33.8081 43.4355 33.8081C43.921 33.8081 44.3144 33.4146 44.3144 32.9292V31.2583C44.5993 31.2569 44.8888 31.2558 45.0671 31.2558C46.4812 31.2558 47.6319 30.1198 47.6319 28.7234C47.6319 27.327 46.4813 26.191 45.0671 26.191H43.4355C43.3199 26.191 43.2053 26.2139 43.0985 26.2582C42.9917 26.3026 42.8947 26.3675 42.8131 26.4495C42.7314 26.5314 42.6667 26.6286 42.6227 26.7355C42.5787 26.8425 42.5563 26.9571 42.5566 27.0727V32.9292ZM45.0671 27.9487C45.5045 27.9487 45.8741 28.3034 45.8741 28.7233C45.8741 29.1432 45.5046 29.4979 45.0671 29.4979C44.89 29.4979 44.6041 29.499 44.3211 29.5004C44.3197 29.2414 44.3189 28.9823 44.3186 28.7233C44.3186 28.5671 44.3179 28.258 44.3171 27.9487H45.0671ZM37.5761 33.8081C39.6763 33.8081 41.3847 32.0995 41.3847 29.9995C41.3847 27.8995 39.6763 26.1909 37.5761 26.1909C35.476 26.1909 33.7675 27.8995 33.7675 29.9995C33.7675 32.0995 35.4761 33.8081 37.5761 33.8081ZM37.5761 27.9487C38.7069 27.9487 39.6269 28.8687 39.6269 29.9995C39.6269 31.1302 38.7069 32.0503 37.5761 32.0503C36.4454 32.0503 35.5254 31.1302 35.5254 29.9995C35.5254 28.8687 36.4454 27.9487 37.5761 27.9487ZM51.72 32.0503C51.1801 32.0503 50.6619 31.8342 50.334 31.4723C50.1764 31.3036 49.9588 31.2037 49.7282 31.1941C49.4976 31.1845 49.2724 31.266 49.1014 31.421C48.9303 31.576 48.8271 31.7921 48.814 32.0225C48.8009 32.253 48.879 32.4794 49.0314 32.6527C49.697 33.3869 50.6768 33.808 51.72 33.808C53.0239 33.808 54.1198 32.9704 54.3259 31.8165C54.4818 30.9424 54.0925 29.8032 52.5317 29.2274C51.8395 28.9721 51.1933 28.6947 50.9686 28.5965C50.8851 28.5196 50.8841 28.4204 50.8922 28.3639C50.9031 28.2888 50.9597 28.1048 51.2532 28.0163C51.9636 27.8024 52.4966 28.1571 52.5996 28.2333C52.7365 28.4043 52.9324 28.518 53.1488 28.5521C53.3653 28.5862 53.5866 28.5383 53.7695 28.4177C53.9524 28.2971 54.0837 28.1125 54.1376 27.9002C54.1915 27.6878 54.1642 27.463 54.061 27.2697C53.7501 26.6881 52.338 25.8536 50.7463 26.3333C49.8834 26.5932 49.2726 27.2756 49.1521 28.114C49.0387 28.9045 49.3815 29.6649 50.0469 30.0987C50.0857 30.124 50.1264 30.1462 50.1688 30.1651C50.2027 30.1802 51.0122 30.5405 51.9234 30.8766C52.2793 31.0079 52.6427 31.2426 52.5954 31.5074C52.5563 31.7265 52.2511 32.0503 51.72 32.0503Z" fill="black"/>
<path d="M48.7235 14.8018L50.5595 13.5162C51.3547 12.9594 51.548 11.8633 50.9912 11.0681C50.4345 10.2728 49.3383 10.0796 48.543 10.6364L43.1128 14.4387C42.3176 14.9956 42.1243 16.0917 42.6811 16.8869L46.4834 22.3173C47.0402 23.1125 48.1363 23.3057 48.9315 22.749C49.7268 22.1921 49.92 21.0962 49.3631 20.3008L47.9153 18.233C52.8819 19.8382 56.4844 24.5057 56.4844 29.9997C56.4844 36.8169 50.9382 42.363 44.1211 42.363C37.3039 42.363 31.7578 36.8169 31.7578 29.9997C31.7578 21.2441 24.6346 14.1208 15.8789 14.1208C7.12324 14.1208 0 21.2441 0 29.9997C0 37.1554 4.75816 43.2199 11.2765 45.1976L9.44051 46.4832C8.64527 47.0401 8.45203 48.1361 9.00879 48.9314C9.56555 49.7266 10.6617 49.9198 11.457 49.3631L16.8872 45.5607C17.6824 45.0038 17.8757 43.9078 17.3189 43.1125L13.5166 37.6822C12.9598 36.8869 11.8637 36.6937 11.0685 37.2505C10.2732 37.8073 10.08 38.9033 10.6369 39.6986L12.0847 41.7664C7.11809 40.1613 3.51562 35.4937 3.51562 29.9997C3.51562 23.1826 9.06176 17.6364 15.8789 17.6364C22.6961 17.6364 28.2422 23.1826 28.2422 29.9997C28.2422 38.7554 35.3654 45.8786 44.1211 45.8786C52.8768 45.8786 60 38.7554 60 29.9997C60 22.844 55.2418 16.7796 48.7235 14.8018Z" fill="black"/>
</svg>
