<svg width="50" height="50" viewBox="0 0 50 50" fill="none" xmlns="http://www.w3.org/2000/svg">
<path d="M17.0383 7.23486C17.1366 7.40512 17.2955 7.53205 17.4833 7.59033C17.6711 7.64862 17.8739 7.63397 18.0513 7.54931C19.869 6.68193 21.8216 6.16376 23.8549 6.00917C24.0513 5.99426 24.2348 5.90571 24.3687 5.76126C24.5026 5.61681 24.577 5.42713 24.577 5.23017V1.56259C24.577 1.45583 24.5551 1.3502 24.5126 1.25223C24.4702 1.15426 24.4081 1.06603 24.3302 0.992979C24.2524 0.919929 24.1604 0.863608 24.0599 0.827494C23.9594 0.79138 23.8526 0.776239 23.7461 0.783003C20.874 0.966402 18.1135 1.70566 15.5414 2.98027C15.4457 3.0277 15.3608 3.09423 15.2919 3.17575C15.2229 3.25726 15.1714 3.35204 15.1405 3.45423C15.1096 3.55642 15.1 3.66386 15.1122 3.76992C15.1244 3.87598 15.1582 3.97841 15.2116 4.07089L17.0383 7.23486ZM23.0145 2.4124V4.52031C21.2888 4.72021 19.6203 5.16289 18.0377 5.84072L16.9896 4.02539C18.9048 3.17275 20.9249 2.63193 23.0145 2.4124ZM5.71217 32.0124C5.7595 32.1082 5.82597 32.1933 5.90748 32.2623C5.98899 32.3314 6.0838 32.3831 6.18605 32.4141C6.2883 32.445 6.39583 32.4547 6.50198 32.4425C6.60812 32.4303 6.71064 32.3965 6.80318 32.3431L9.98209 30.5078C10.1523 30.4095 10.2793 30.2507 10.3376 30.0629C10.3959 29.8752 10.3813 29.6724 10.2966 29.4949C9.42701 27.6713 8.90631 25.7204 8.74869 23.6966C8.73342 23.5005 8.64474 23.3173 8.50035 23.1838C8.35596 23.0502 8.16649 22.976 7.96979 22.976H4.30113C4.19434 22.976 4.08869 22.9979 3.9907 23.0404C3.89271 23.0829 3.80446 23.145 3.73141 23.2228C3.65835 23.3007 3.60204 23.3928 3.56594 23.4933C3.52985 23.5938 3.51474 23.7006 3.52154 23.8072C3.70592 26.682 4.44303 29.4426 5.71217 32.0124ZM7.26139 24.5384C7.46205 26.2503 7.90889 27.9242 8.58805 29.5084L6.75885 30.5644C5.90992 28.6505 5.37086 26.63 5.15113 24.5384H7.26139ZM4.30123 21.8416H7.98424C8.17976 21.8416 8.36816 21.7683 8.51226 21.6361C8.65636 21.504 8.74567 21.3226 8.76256 21.1278C8.93844 19.0991 9.46324 17.1501 10.3224 15.335C10.4063 15.1576 10.4205 14.9552 10.362 14.7679C10.3036 14.5807 10.1768 14.4222 10.0069 14.3241L6.80895 12.4778C6.71646 12.4244 6.614 12.3905 6.50791 12.3783C6.40181 12.366 6.29433 12.3757 6.1921 12.4066C6.08988 12.4375 5.99507 12.489 5.91355 12.558C5.83203 12.627 5.76552 12.712 5.71812 12.8077C4.44498 15.3789 3.70602 18.1387 3.52154 21.0102C3.51468 21.1169 3.52975 21.2237 3.56583 21.3243C3.60191 21.4248 3.65823 21.5169 3.7313 21.5948C3.80438 21.6727 3.89266 21.7348 3.99069 21.7773C4.08872 21.8197 4.19441 21.8416 4.30123 21.8416ZM6.76383 14.256L8.61441 15.3244C7.94273 16.9007 7.49586 18.5616 7.28141 20.2791H5.15123C5.37145 18.19 5.91207 16.1705 6.76383 14.256ZM48.6304 24.4475C48.4277 24.0297 48.013 23.7702 47.5481 23.7701H46.7786C46.8067 23.3169 46.8209 22.8616 46.8209 22.4088C46.8209 16.863 44.7275 11.5868 40.9264 7.55224C37.142 3.53535 32.0337 1.13115 26.5421 0.78232C26.4355 0.775582 26.3287 0.790745 26.2283 0.826873C26.1278 0.863 26.0359 0.919326 25.958 0.992376C25.8802 1.06542 25.8182 1.15365 25.7757 1.2516C25.7333 1.34956 25.7114 1.45516 25.7114 1.56191V5.23046C25.7114 5.42727 25.7856 5.61683 25.9194 5.76124C26.0531 5.90565 26.2364 5.99426 26.4326 6.00937C34.9363 6.66542 41.5976 13.8688 41.5976 22.4087C41.5976 22.8618 41.579 23.3174 41.5418 23.7699H41.0421C40.5774 23.7699 40.1627 24.0294 39.9599 24.4472C39.7572 24.8648 39.8098 25.3512 40.0973 25.7162L43.3505 29.8483C43.4628 29.9916 43.6062 30.1074 43.77 30.1868C43.9337 30.2663 44.1135 30.3073 44.2955 30.3067C44.6664 30.3067 45.0106 30.1395 45.24 29.8481L48.493 25.7162C48.7804 25.3514 48.8332 24.8651 48.6304 24.4475ZM44.2951 28.5227L41.7837 25.3327H42.2463C42.4369 25.3327 42.6208 25.2631 42.7636 25.137C42.9064 25.0109 42.9981 24.8369 43.0216 24.6478C43.1137 23.9051 43.1599 23.1573 43.16 22.4089C43.16 17.8428 41.4485 13.4877 38.3406 10.146C35.4147 6.9999 31.5077 5.01992 27.2738 4.52197V2.41171C37.424 3.4788 45.2585 12.106 45.2585 22.4089C45.2585 23.0969 45.2233 23.7911 45.1539 24.4722C45.1428 24.5809 45.1547 24.6907 45.1887 24.7946C45.2227 24.8984 45.2781 24.994 45.3514 25.0751C45.4246 25.1561 45.5141 25.221 45.6139 25.2654C45.7138 25.3097 45.8218 25.3327 45.9311 25.3327H46.8067L44.2951 28.5227ZM7.3777 11.4965L10.5646 13.3364C10.7354 13.4351 10.9372 13.4655 11.1295 13.4215C11.3217 13.3776 11.4903 13.2624 11.6011 13.0993C12.7443 11.4189 14.1656 9.98544 15.8254 8.83857C15.9868 8.727 16.1004 8.55875 16.1434 8.36727C16.1865 8.1758 16.1559 7.97513 16.0578 7.80517L14.2303 4.64003C14.1769 4.54745 14.105 4.46683 14.0191 4.40315C13.9332 4.33948 13.8351 4.2941 13.731 4.26984C13.6269 4.24557 13.5189 4.24293 13.4137 4.26207C13.3085 4.28122 13.2084 4.32175 13.1195 4.38115C10.7334 5.97675 8.71441 7.99697 7.11852 10.3858C7.05916 10.4747 7.01868 10.5749 6.99957 10.6801C6.98046 10.7852 6.98314 10.8932 7.00743 10.9973C7.03172 11.1014 7.07712 11.1994 7.14081 11.2853C7.20449 11.3712 7.28512 11.443 7.3777 11.4965ZM13.3031 6.15869L14.3518 7.97519C12.9747 9.01084 11.7605 10.2354 10.73 11.6277L8.89596 10.5688C10.1263 8.87823 11.6133 7.39023 13.3031 6.15869ZM36.034 32.6284L28.5018 37.0155C28.2153 37.1823 27.9249 37.311 27.6257 37.4023C27.7202 37.211 27.7953 37.0107 27.85 36.8044C28.2505 35.3092 27.3637 33.7488 25.8311 33.252C25.7976 33.2412 25.7635 33.2326 25.7289 33.2264C23.5734 32.8376 21.4418 32.0669 19.7289 31.4477C19.1316 31.2317 18.5674 31.0277 18.0867 30.8719C16.1161 30.2325 14.3452 31.0179 12.8727 31.8705L7.36754 35.0579L6.89537 34.2235C6.64732 33.7853 6.24225 33.4694 5.75484 33.3343C5.26754 33.1994 4.75768 33.2615 4.3193 33.5095L2.20592 34.7056C1.29889 35.2189 0.978574 36.3745 1.49186 37.2816L7.70504 48.2599C7.95309 48.6982 8.35816 49.0141 8.84557 49.1491C9.01412 49.1958 9.18531 49.2189 9.35533 49.2189C9.67691 49.2189 9.99439 49.1361 10.2811 48.9739L12.3945 47.7778C12.8328 47.5297 13.1486 47.1247 13.2837 46.6373C13.4188 46.1499 13.3566 45.64 13.1086 45.2017L12.5231 44.1672L13.663 43.509L23.265 46.0818C23.8072 46.2271 24.3467 46.2994 24.8773 46.2994C25.9507 46.2994 26.9878 46.0039 27.9358 45.4202L41.6049 37.0033C42.9007 36.2056 43.3139 34.1985 42.4718 32.7927C42.0643 32.112 40.3952 30.0887 36.034 32.6284ZM11.7781 46.22C11.7644 46.2693 11.7263 46.3606 11.625 46.4181L9.51158 47.6142C9.41031 47.6717 9.31227 47.6572 9.26295 47.6435C9.21363 47.6298 9.12232 47.5917 9.0649 47.4903L2.85182 36.5121C2.76432 36.3575 2.82096 36.1529 2.97564 36.0654L5.08912 34.8693C5.13727 34.8419 5.19174 34.8276 5.24713 34.8277C5.28424 34.8277 5.31578 34.8339 5.33775 34.84C5.38707 34.8537 5.47838 34.8918 5.5357 34.9931L11.7489 45.9713C11.8061 46.0728 11.7918 46.1706 11.7781 46.22ZM40.7858 35.6729L27.1168 44.0897C26.0602 44.74 24.9004 44.9027 23.6695 44.5727L13.7548 41.916C13.5547 41.8625 13.3415 41.8905 13.1621 41.994L11.7535 42.8072L8.13717 36.4176L13.6555 33.2225C14.889 32.5083 16.2212 31.9091 17.6046 32.3579C18.0606 32.5059 18.5875 32.6963 19.1975 32.9169C20.9508 33.5508 23.1293 34.3384 25.3941 34.7534C26.1196 35.0111 26.5253 35.7109 26.3407 36.3998C26.0974 37.3072 25.3343 37.4201 24.7253 37.3508C23.6225 37.1237 22.5724 36.824 21.4615 36.5068C20.932 36.3557 20.3845 36.1993 19.8213 36.0483C19.6224 35.9983 19.4117 36.0284 19.2348 36.1324C19.0579 36.2363 18.929 36.4056 18.8759 36.6038C18.8228 36.802 18.8498 37.0131 18.951 37.1916C19.0522 37.37 19.2196 37.5015 19.417 37.5576C19.9677 37.7052 20.509 37.8598 21.0324 38.0093C22.1841 38.3382 24.4715 38.8936 24.4767 38.8944L25.4136 39.0469C26.8413 39.2751 28.1087 39.0524 29.288 38.3656L36.8203 33.9785C38.9281 32.7509 40.5397 32.6075 41.1314 33.5955C41.5357 34.2703 41.3613 35.3186 40.7858 35.6729ZM5.64654 36.8913C5.66239 36.99 5.65846 37.0909 5.63498 37.1881C5.6115 37.2853 5.56894 37.3768 5.50977 37.4574C5.4506 37.538 5.37601 37.6061 5.29032 37.6576C5.20463 37.7091 5.10956 37.7431 5.01063 37.7575C4.9117 37.772 4.81088 37.7667 4.71403 37.7418C4.61718 37.717 4.52623 37.6731 4.44647 37.6129C4.36671 37.5526 4.29973 37.477 4.24941 37.3906C4.1991 37.3042 4.16645 37.2087 4.15338 37.1096C4.12745 36.913 4.17994 36.7141 4.29952 36.5559C4.41909 36.3977 4.59613 36.2929 4.79235 36.2642C4.98856 36.2356 5.18818 36.2853 5.34803 36.4026C5.50788 36.52 5.61512 36.6955 5.64654 36.8913ZM31.7879 15.0881C31.7879 11.9717 29.2524 9.43623 26.136 9.43623C23.0196 9.43623 20.4841 11.9717 20.4841 15.0881C20.4841 16.9889 21.4283 18.6722 22.8712 19.6973C19.0778 20.942 16.2275 24.3036 15.7814 28.4722C15.7697 28.5812 15.7811 28.6914 15.8148 28.7957C15.8485 28.9 15.9038 28.996 15.977 29.0776C16.0503 29.1591 16.1399 29.2243 16.24 29.2689C16.3402 29.3135 16.4485 29.3366 16.5582 29.3365H35.7135C35.8232 29.3366 35.9316 29.3135 36.0317 29.2689C36.1318 29.2243 36.2214 29.1591 36.2947 29.0775C36.368 28.996 36.4233 28.8999 36.457 28.7956C36.4907 28.6913 36.502 28.5811 36.4903 28.4721C36.0441 24.3036 33.1939 20.9421 29.4005 19.6973C30.8436 18.6723 31.7879 16.9889 31.7879 15.0881ZM34.8014 27.774H17.4704C18.3124 23.7085 21.8945 20.7408 26.1339 20.7398L26.136 20.7399H26.1379C30.3773 20.7409 33.9594 23.7085 34.8014 27.774ZM26.1359 19.1773H26.1334C23.8797 19.1759 22.0466 17.3421 22.0466 15.0881C22.0466 12.8332 23.8811 10.9987 26.136 10.9987C28.3909 10.9987 30.2254 12.8332 30.2254 15.0881C30.2254 17.3421 28.3922 19.176 26.1385 19.1773H26.1359Z" fill="black"/>
</svg>
