<svg width="61" height="60" viewBox="0 0 61 60" fill="none" xmlns="http://www.w3.org/2000/svg">
<path d="M54.584 4.2959H5.83398C3.37855 4.2959 1.38086 6.29359 1.38086 8.74902V51.2515C1.38086 53.707 3.37855 55.7046 5.83398 55.7046H54.584C57.0394 55.7046 59.0371 53.707 59.0371 51.2515V8.74902C59.0371 6.29359 57.0394 4.2959 54.584 4.2959ZM54.584 54.2984H5.83398C4.15387 54.2984 2.78711 52.9316 2.78711 51.2515V18.8522H12.1401C12.3266 18.8522 12.5054 18.7781 12.6373 18.6463C12.7691 18.5144 12.8432 18.3356 12.8432 18.1491C12.8432 17.9626 12.7691 17.7838 12.6373 17.6519C12.5054 17.5201 12.3266 17.446 12.1401 17.446H2.78711V8.74902C2.78711 7.06891 4.15387 5.70215 5.83398 5.70215H54.584C56.2641 5.70215 57.6309 7.06891 57.6309 8.74902V17.446H15.5473C15.3608 17.446 15.182 17.5201 15.0501 17.6519C14.9183 17.7838 14.8442 17.9626 14.8442 18.1491C14.8442 18.3356 14.9183 18.5144 15.0501 18.6463C15.182 18.7781 15.3608 18.8522 15.5473 18.8522H57.6309V51.2515C57.6309 52.9316 56.2641 54.2984 54.584 54.2984Z" fill="black"/>
<path d="M24.359 13.7233C25.5461 13.7233 26.5085 12.7609 26.5085 11.5738C26.5085 10.3867 25.5461 9.42438 24.359 9.42438C23.1719 9.42438 22.2096 10.3867 22.2096 11.5738C22.2096 12.7609 23.1719 13.7233 24.359 13.7233ZM16.2005 13.7233C17.3877 13.7233 18.3501 12.7609 18.3501 11.5738C18.3501 10.3867 17.3878 9.42438 16.2005 9.42438C15.0133 9.42438 14.0512 10.3867 14.0512 11.5738C14.0512 12.7609 15.0136 13.7233 16.2005 13.7233ZM7.98148 9.42426C6.79437 9.42426 5.83203 10.3867 5.83203 11.5738C5.83203 12.7609 6.79437 13.7233 7.98148 13.7233C9.16859 13.7233 10.1309 12.7609 10.1309 11.5738C10.1309 10.3867 9.16859 9.42426 7.98148 9.42426ZM42.2437 12.277C42.4302 12.277 42.609 12.2029 42.7409 12.071C42.8728 11.9392 42.9468 11.7603 42.9468 11.5738C42.9468 11.0016 43.4123 10.5361 43.9845 10.5361H52.8459C53.4181 10.5361 53.8836 11.0016 53.8836 11.5738C53.8836 12.1461 53.4181 12.6115 52.8459 12.6115H45.5613C45.3748 12.6115 45.196 12.6856 45.0641 12.8175C44.9322 12.9493 44.8582 13.1282 44.8582 13.3146C44.8582 13.5011 44.9322 13.68 45.0641 13.8118C45.196 13.9437 45.3748 14.0178 45.5613 14.0178H52.8459C54.1936 14.0178 55.2898 12.9215 55.2898 11.5738C55.2898 10.2262 54.1934 9.12988 52.8459 9.12988H43.9845C42.6369 9.12988 41.5406 10.2263 41.5406 11.5738C41.5406 11.7603 41.6147 11.9392 41.7465 12.071C41.8784 12.2029 42.0572 12.277 42.2437 12.277ZM46.2644 36.7217C46.2644 36.0542 45.8553 35.4865 45.222 35.2754L41.9523 34.185L44.9997 33.169C45.7486 32.9194 45.7486 31.86 44.9997 31.6104L30.5757 26.8012C30.3379 26.7219 30.0808 26.7219 29.843 26.8012L15.419 31.6105C14.6702 31.8602 14.6702 32.9193 15.419 33.169L18.4666 34.185L15.1966 35.2755C14.5634 35.4865 14.1543 36.0542 14.1543 36.7217C14.1543 37.3892 14.5634 37.9568 15.1967 38.168L17.355 38.8875L15.1966 39.6073C14.5634 39.8185 14.1543 40.3861 14.1543 41.0536C14.1543 41.7211 14.5634 42.2888 15.1967 42.5L28.2738 46.86C28.898 47.0682 29.5536 47.1722 30.2094 47.1722C30.8652 47.1722 31.5207 47.0682 32.145 46.86C32.2325 46.8308 32.3135 46.7846 32.3833 46.7241C32.453 46.6636 32.5101 46.59 32.5514 46.5074C32.5927 46.4248 32.6173 46.3349 32.6238 46.2428C32.6303 46.1507 32.6187 46.0582 32.5895 45.9706C32.5602 45.883 32.5141 45.802 32.4535 45.7323C32.393 45.6625 32.3194 45.6054 32.2368 45.5641C32.1542 45.5229 32.0643 45.4983 31.9722 45.4917C31.8801 45.4852 31.7876 45.4969 31.7 45.5261C30.7389 45.8466 29.6799 45.8467 28.7188 45.5261L15.6416 41.1659C15.6172 41.1577 15.5607 41.1389 15.5607 41.0536C15.5607 40.9683 15.6172 40.9493 15.6414 40.9414L19.578 39.6289L24.7413 41.3504C24.9174 41.4064 25.1085 41.3908 25.2732 41.307C25.438 41.2232 25.5631 41.0779 25.6215 40.9026C25.68 40.7272 25.6671 40.5359 25.5856 40.3701C25.5041 40.2042 25.3605 40.077 25.186 40.0162L15.6414 36.8339C15.6172 36.8259 15.5606 36.807 15.5606 36.7217C15.5606 36.6364 15.6172 36.6174 15.6414 36.6094L20.6896 34.9262L28.4963 37.5292C29.6083 37.9 30.8105 37.9 31.9224 37.5292L39.7292 34.9262L44.7772 36.6093C44.8016 36.6175 44.858 36.6363 44.858 36.7218C44.858 36.807 44.8016 36.8259 44.7773 36.8338L31.7 41.1941C30.7389 41.5147 29.6798 41.5147 28.7188 41.1941C28.6312 41.1649 28.5387 41.1531 28.4465 41.1596C28.3544 41.1661 28.2645 41.1907 28.1819 41.232C28.0993 41.2733 28.0256 41.3305 27.9651 41.4002C27.9046 41.47 27.8585 41.551 27.8293 41.6386C27.8001 41.7262 27.7884 41.8187 27.7949 41.9108C27.8014 42.0029 27.826 42.0928 27.8673 42.1754C27.9086 42.258 27.9657 42.3317 28.0355 42.3922C28.1052 42.4527 28.1862 42.4989 28.2738 42.5281C28.898 42.7354 29.5516 42.8408 30.2094 42.8403C30.865 42.8403 31.5208 42.7363 32.1448 42.5282L40.8406 39.6289L44.7773 40.9414C44.8016 40.9495 44.8582 40.9683 44.8582 41.0536C44.8582 41.1389 44.8016 41.1578 44.7773 41.1658L35.2906 44.3288C35.1161 44.3897 34.9726 44.5168 34.8911 44.6827C34.8096 44.8485 34.7966 45.0398 34.8551 45.2152C34.9135 45.3905 35.0387 45.5358 35.2034 45.6196C35.3681 45.7034 35.5592 45.719 35.7354 45.663L45.2221 42.4998C45.8553 42.2887 46.2644 41.7211 46.2644 41.0538C46.2644 40.3861 45.8553 39.8186 45.222 39.6072L43.0637 38.8877L45.2223 38.1679C45.8553 37.9567 46.2644 37.3892 46.2644 36.7218V36.7217Z" fill="black"/>
</svg>
