<svg width="51" height="50" viewBox="0 0 51 50" fill="none" xmlns="http://www.w3.org/2000/svg">
<path d="M49.5623 34.6875L44.8748 28.4375C44.7792 28.3101 44.647 28.215 44.4959 28.1648L43.6959 27.8992C43.7592 27.6367 43.8287 27.3773 43.8818 27.1109L46.8584 25.7406C46.9851 25.6823 47.0939 25.5911 47.1734 25.4765C47.2529 25.3619 47.3004 25.2282 47.3107 25.0891C47.3537 24.5 47.3748 23.9602 47.3748 23.4375C47.3748 22.9148 47.3537 22.375 47.3099 21.7859C47.2997 21.6468 47.2524 21.5129 47.1728 21.3983C47.0933 21.2837 46.9844 21.1926 46.8576 21.1344L43.8818 19.7648C43.7266 18.9703 43.5191 18.1868 43.2607 17.4195L45.1537 14.7406C45.2344 14.6263 45.283 14.4924 45.2942 14.3529C45.3055 14.2134 45.2791 14.0735 45.2178 13.9477C44.7373 12.9615 44.1853 12.0118 43.5662 11.1063C43.4877 10.9913 43.3799 10.8994 43.2539 10.8402C43.1279 10.781 42.9884 10.7566 42.8498 10.7695L39.5865 11.0688C39.0508 10.4608 38.4773 9.88726 37.8693 9.35156L38.1685 6.08828C38.1813 5.9497 38.1568 5.81022 38.0976 5.68428C38.0384 5.55833 37.9467 5.45047 37.8318 5.37188C36.9262 4.75279 35.9766 4.2008 34.9904 3.72031C34.8646 3.65899 34.7247 3.63258 34.5852 3.64385C34.4457 3.65512 34.3118 3.70365 34.1974 3.78438L31.5185 5.67734C30.7513 5.41883 29.9678 5.21135 29.1732 5.05625L27.8037 2.08047C27.7454 1.95377 27.6542 1.845 27.5396 1.76546C27.425 1.68591 27.2912 1.63849 27.1521 1.62813C26.0528 1.54062 24.9483 1.54062 23.849 1.62813C23.7099 1.63833 23.576 1.68569 23.4614 1.76525C23.3468 1.84482 23.2557 1.95367 23.1975 2.08047L21.8279 5.05625C21.0333 5.21152 20.2499 5.419 19.4826 5.67734L16.8037 3.78438C16.6894 3.70365 16.5555 3.65512 16.416 3.64385C16.2765 3.63258 16.1365 3.65899 16.0107 3.72031C15.0246 4.2008 14.0749 4.75279 13.1693 5.37188C13.0546 5.45059 12.9629 5.55846 12.9037 5.68438C12.8446 5.8103 12.82 5.94972 12.8326 6.08828L13.1318 9.35156C12.5239 9.88726 11.9503 10.4608 11.4146 11.0688L8.15136 10.7695C8.01278 10.7568 7.8733 10.7812 7.74735 10.8404C7.6214 10.8996 7.51355 10.9914 7.43495 11.1063C6.81587 12.0118 6.26388 12.9615 5.78339 13.9477C5.72207 14.0735 5.69566 14.2134 5.70693 14.3529C5.7182 14.4924 5.76673 14.6263 5.84745 14.7406L7.74042 17.4195C7.48191 18.1868 7.27442 18.9702 7.11933 19.7648L4.14355 21.1344C4.01685 21.1927 3.90808 21.2839 3.82854 21.3985C3.74899 21.5131 3.70157 21.6468 3.6912 21.7859C3.64589 22.375 3.6248 22.9148 3.6248 23.4375C3.6248 23.9602 3.64589 24.5 3.68964 25.0891C3.69985 25.2282 3.7472 25.3621 3.82677 25.4767C3.90633 25.5913 4.01519 25.6824 4.14198 25.7406L7.11855 27.1109C7.17167 27.3773 7.2412 27.6367 7.30448 27.8992L6.50448 28.1648C6.35301 28.2148 6.22049 28.3099 6.1248 28.4375L1.4373 34.6875C1.36347 34.7866 1.31415 34.9018 1.29337 35.0236C1.27259 35.1454 1.28095 35.2704 1.31776 35.3884C1.35456 35.5063 1.41878 35.6139 1.50514 35.7023C1.5915 35.7907 1.69756 35.8574 1.81464 35.8969L5.96855 37.282V41.4063C5.96851 41.5703 6.0201 41.7302 6.11601 41.8632C6.21193 41.9963 6.34729 42.0958 6.50292 42.1477L25.2529 48.3977C25.4132 48.4508 25.5864 48.4508 25.7467 48.3977L44.4967 42.1477C44.6523 42.0958 44.7877 41.9963 44.8836 41.8632C44.9795 41.7302 45.0311 41.5703 45.031 41.4063V37.282L49.1842 35.8977C49.3014 35.8583 49.4077 35.7916 49.4942 35.7032C49.5808 35.6148 49.6452 35.5072 49.682 35.3891C49.7189 35.271 49.7273 35.1458 49.7065 35.0239C49.6857 34.9019 49.6363 34.7867 49.5623 34.6875ZM5.21855 24.5164C5.17813 23.7977 5.17813 23.0773 5.21855 22.3586L8.13886 21.0141C8.2539 20.9611 8.35433 20.8809 8.4315 20.7805C8.50867 20.68 8.56026 20.5623 8.58183 20.4375C8.7507 19.4586 9.00559 18.4966 9.34355 17.5625C9.38661 17.4441 9.40037 17.317 9.38364 17.1921C9.3669 17.0672 9.32018 16.9482 9.24745 16.8453L7.39276 14.2195C7.71986 13.5839 8.07918 12.9654 8.46933 12.3664L11.6709 12.6594C11.9287 12.6828 12.1748 12.5805 12.3396 12.3852C12.9819 11.6237 13.6876 10.9181 14.449 10.2758C14.5452 10.1946 14.6204 10.0915 14.6681 9.97503C14.7159 9.85859 14.7348 9.73235 14.7232 9.60703L14.4295 6.40703C15.0283 6.0166 15.6468 5.65727 16.2826 5.33047L18.9084 7.18516C19.0113 7.25782 19.1303 7.30451 19.2552 7.32124C19.3801 7.33797 19.5071 7.32425 19.6256 7.28125C20.5597 6.94357 21.5218 6.68868 22.5006 6.51953C22.6254 6.49797 22.7431 6.44638 22.8435 6.36921C22.944 6.29204 23.0241 6.19161 23.0771 6.07656L24.4217 3.15625C25.1403 3.11485 25.8608 3.11485 26.5795 3.15625L27.924 6.07656C27.977 6.19161 28.0572 6.29204 28.1576 6.36921C28.2581 6.44638 28.3758 6.49797 28.5006 6.51953C29.4794 6.68841 30.4415 6.9433 31.3756 7.28125C31.494 7.32459 31.6211 7.33848 31.746 7.32174C31.871 7.305 31.99 7.25813 32.0928 7.18516L34.7185 5.33047C35.356 5.65859 35.9771 6.01953 36.5717 6.40703L36.2787 9.60859C36.2672 9.73391 36.2861 9.86015 36.3338 9.97659C36.3816 10.093 36.4567 10.1962 36.5529 10.2773C37.3123 10.9172 38.0217 11.6273 38.6623 12.3867C38.8264 12.582 39.0748 12.6844 39.331 12.6609L42.5326 12.368C42.9209 12.9625 43.281 13.5836 43.6092 14.2211L41.7545 16.8469C41.6818 16.9498 41.635 17.0688 41.6183 17.1937C41.6016 17.3186 41.6153 17.4456 41.6584 17.5641C41.9935 18.4891 42.2498 19.4555 42.4201 20.4391C42.4417 20.5639 42.4933 20.6816 42.5704 20.782C42.6476 20.8825 42.748 20.9626 42.8631 21.0156L45.7834 22.3602C45.823 23.0784 45.8222 23.7983 45.781 24.5164L42.8607 25.8609C42.746 25.9136 42.6458 25.9933 42.5687 26.0931C42.4915 26.193 42.4397 26.3101 42.4178 26.4344C42.2668 27.272 42.0553 28.0976 41.785 28.9047L38.8725 29.875C39.8428 27.8678 40.3457 25.6669 40.3435 23.4375C40.3435 15.2523 33.685 8.59375 25.4998 8.59375C17.3146 8.59375 10.656 15.2523 10.656 23.4375C10.656 25.6875 11.1615 27.8773 12.1264 29.875L9.21386 28.9047C8.94338 28.0977 8.73188 27.2721 8.58105 26.4344C8.55907 26.3101 8.50729 26.193 8.43014 26.0931C8.35299 25.9933 8.25277 25.9136 8.13808 25.8609L5.21855 24.5164ZM25.4998 34.3328L14.3326 30.6102C12.951 28.4732 12.2168 25.9822 12.2185 23.4375C12.2185 16.1141 18.1764 10.1563 25.4998 10.1563C32.8232 10.1563 38.781 16.1141 38.781 23.4375C38.781 25.9977 38.0467 28.4703 36.667 30.6102L25.4998 34.3328ZM7.03651 29.8258L24.224 35.5547L20.5248 40.4867L3.3373 34.7578L7.03651 29.8258ZM7.53105 37.8031L20.5654 42.1477C20.7209 42.1998 20.889 42.2015 21.0455 42.1526C21.2021 42.1036 21.3392 42.0065 21.4373 41.875L24.7185 37.5V46.5727L7.53105 40.843V37.8031ZM43.4685 40.843L26.281 46.5719V37.5L29.5623 41.875C29.6606 42.0062 29.7978 42.1031 29.9542 42.152C30.1107 42.201 30.2786 42.1994 30.4342 42.1477L43.4685 37.8031V40.843ZM30.4748 40.4867L26.7756 35.5547L43.9631 29.8258L47.6623 34.7586L30.4748 40.4867Z" fill="black"/>
<path d="M17.6875 22.6562H19.25V24.2188H17.6875V22.6562Z" fill="black"/>
<path d="M34.875 21.0938H33.3125V19.5312H31.75V21.0938H30.1875V19.5312H28.625V21.0938H23.3055C22.8945 20.3817 22.3034 19.7903 21.5915 19.3789C20.8797 18.9675 20.0722 18.7506 19.25 18.75C16.6648 18.75 14.5625 20.8523 14.5625 23.4375C14.5625 26.0227 16.6648 28.125 19.25 28.125C20.0722 28.1244 20.8797 27.9075 21.5915 27.4961C22.3034 27.0847 22.8945 26.4933 23.3055 25.7812H34.875C35.0822 25.7812 35.2809 25.6989 35.4274 25.5524C35.5739 25.4059 35.6562 25.2072 35.6562 25V21.875C35.6562 21.6678 35.5739 21.4691 35.4274 21.3226C35.2809 21.1761 35.0822 21.0938 34.875 21.0938ZM34.0938 24.2188H22.8266C22.6747 24.2188 22.5261 24.263 22.399 24.3461C22.272 24.4293 22.1718 24.5476 22.1109 24.6867C21.868 25.2437 21.4681 25.7177 20.9599 26.0509C20.4518 26.384 19.8576 26.5618 19.25 26.5625C17.5266 26.5625 16.125 25.1609 16.125 23.4375C16.125 21.7141 17.5266 20.3125 19.25 20.3125C19.8576 20.3132 20.4518 20.491 20.9599 20.8241C21.4681 21.1573 21.868 21.6313 22.1109 22.1883C22.1718 22.3274 22.272 22.4457 22.399 22.5289C22.5261 22.612 22.6747 22.6562 22.8266 22.6562H34.0938V24.2188Z" fill="black"/>
</svg>
