<svg width="60" height="60" viewBox="0 0 60 60" fill="none" xmlns="http://www.w3.org/2000/svg">
<path d="M57.0938 1.6875H2.90625C1.3125 1.6875 0 3 0 4.6875V43.125C0 44.7188 1.3125 46.0312 2.90625 46.0312H21.75V53.1563L18.0937 54.8438C17.9062 54.9375 17.8125 55.125 17.8125 55.2188V57.6563C17.8125 57.9375 18 58.125 18.2812 58.125H41.625C41.9063 58.125 42.0938 57.9375 42.0938 57.6563V55.2188C42.0938 55.0313 42 54.8438 41.8125 54.8438L38.1563 53.1563V46.0312H57C58.5937 46.0312 59.9063 44.7188 59.9063 43.125V4.6875C60 3 58.6875 1.6875 57.0938 1.6875ZM41.25 55.6875V57.375H18.75V55.6875L22.3125 54H37.5937L41.25 55.6875ZM22.6875 53.0625V46.125H37.3125V53.0625H22.6875ZM59.0625 43.125C59.0625 44.25 58.125 45.0937 57.0938 45.0937H2.90625C1.78125 45.0937 0.9375 44.1563 0.9375 43.125V38.3438H59.0625V43.125ZM59.0625 37.5H0.9375V4.6875C0.9375 3.5625 1.875 2.71875 2.90625 2.71875H57C58.125 2.71875 58.9688 3.65625 58.9688 4.6875V37.5H59.0625Z" fill="black"/>
<path d="M30.5625 44.1562C31.875 44.1562 33 43.0313 33 41.7188C33 40.4063 31.875 39.375 30.5625 39.375C29.25 39.375 28.125 40.5 28.125 41.8125C28.125 43.125 29.25 44.1562 30.5625 44.1562ZM30.5625 40.3125C31.4062 40.3125 32.0625 40.9688 32.0625 41.8125C32.0625 42.6562 31.4062 43.3125 30.5625 43.3125C29.7187 43.3125 29.0625 42.6562 29.0625 41.8125C29.0625 40.9688 29.7187 40.3125 30.5625 40.3125ZM51.9375 6.1875H8.0625C7.78125 6.1875 7.59375 6.375 7.59375 6.65625C7.59375 6.9375 7.78125 7.125 8.0625 7.125H51.8437C52.125 7.125 52.3125 6.9375 52.3125 6.65625C52.3125 6.375 52.125 6.1875 51.9375 6.1875ZM51.9375 33.5625H8.0625C7.78125 33.5625 7.59375 33.75 7.59375 34.0312C7.59375 34.3125 7.78125 34.5 8.0625 34.5H51.8437C52.125 34.5 52.3125 34.3125 52.3125 34.0312C52.3125 33.75 52.125 33.5625 51.9375 33.5625ZM8.71875 14.3438C8.4375 14.3438 8.25 14.5313 8.25 14.8125V22.125C8.25 24.2812 9.9375 25.9688 12.0937 25.9688C14.25 25.9688 15.9375 24.2812 15.9375 22.125V14.8125C15.9375 14.5313 15.75 14.3438 15.4687 14.3438C15.1875 14.3438 15 14.5313 15 14.8125V22.125C15 23.7188 13.6875 25.0313 12.0937 25.0313C10.5 25.0313 9.1875 23.7188 9.1875 22.125V14.8125C9.1875 14.5313 9 14.3438 8.71875 14.3438ZM19.6875 25.9688C19.7812 25.9688 19.7813 26.0625 19.875 26.0625C20.0625 26.0625 20.25 25.9687 20.25 25.7812L22.5938 21.1875L24.8437 25.7812C24.9375 25.9687 25.125 26.0625 25.2187 26.0625C25.3125 26.0625 25.3125 26.0625 25.4062 25.9688C25.5938 25.875 25.6875 25.5937 25.5937 25.3125L23.0625 20.0625L25.6875 14.9062C25.7812 14.7187 25.6875 14.4375 25.5 14.25C25.3125 14.1563 25.0312 14.25 24.8437 14.4375L22.5 19.0312L20.25 14.4375C20.1562 14.25 19.875 14.1563 19.5937 14.25C19.4062 14.3438 19.3125 14.625 19.4063 14.9062L21.9375 20.1562L19.3125 25.3125C19.3125 25.5937 19.4062 25.875 19.6875 25.9688ZM40.125 14.3438C39.8437 14.3438 39.6562 14.5313 39.6562 14.8125V22.125C39.6562 24.2812 41.3438 25.9688 43.5 25.9688C45.6563 25.9688 47.3438 24.2812 47.3438 22.125V14.8125C47.3438 14.5313 47.1563 14.3438 46.875 14.3438C46.5938 14.3438 46.4063 14.5313 46.4063 14.8125V22.125C46.4063 23.7188 45.0938 25.0313 43.5 25.0313C41.9063 25.0313 40.5937 23.7188 40.5937 22.125V14.8125C40.5937 14.5313 40.3125 14.3438 40.125 14.3438ZM30 29.9062C30.1875 29.9062 30.375 29.8125 30.4687 29.625L37.3125 11.25C37.4062 10.9688 37.3125 10.7812 37.0312 10.6875C36.75 10.5937 36.5625 10.6875 36.4688 10.9687L29.5312 29.3437C29.4375 29.625 29.5312 29.8125 29.8125 29.9062H30ZM51.8437 25.5937V14.8125C51.8437 14.5313 51.6562 14.3438 51.375 14.3438C51.0937 14.3438 50.9062 14.5313 50.9062 14.8125V25.5937C50.9062 25.875 51.0937 26.0625 51.375 26.0625C51.6562 26.0625 51.8437 25.875 51.8437 25.5937Z" fill="black"/>
</svg>
