<svg width="46" height="46" viewBox="0 0 46 46" fill="none" xmlns="http://www.w3.org/2000/svg">
<g clip-path="url(#clip0_166_305)">
<path d="M38.7984 31.9899C38.7984 29.5258 36.7937 27.521 34.3295 27.521C31.8653 27.521 29.8605 29.5258 29.8605 31.9899C29.8605 34.4541 31.8653 36.4589 34.3295 36.4589C36.7937 36.4589 38.7984 34.4541 38.7984 31.9899ZM34.3295 35.1894C32.5653 35.1894 31.1301 33.7541 31.1301 31.9899C31.1301 30.2258 32.5653 28.7905 34.3295 28.7905C36.0937 28.7905 37.5289 30.2258 37.5289 31.9899C37.5289 33.7541 36.0937 35.1894 34.3295 35.1894ZM9.5918 6.21357C9.5918 6.04522 9.65867 5.88377 9.77772 5.76473C9.89676 5.64568 10.0582 5.57881 10.2266 5.57881H29.5013C29.6696 5.57881 29.8311 5.64568 29.9501 5.76473C30.0692 5.88377 30.136 6.04522 30.136 6.21357C30.136 6.38192 30.0692 6.54338 29.9501 6.66242C29.8311 6.78146 29.6696 6.84834 29.5013 6.84834H10.2266C10.0582 6.84834 9.89676 6.78146 9.77772 6.66242C9.65867 6.54338 9.5918 6.38192 9.5918 6.21357ZM30.136 10.7041C30.136 10.8725 30.0692 11.0339 29.9501 11.1529C29.8311 11.272 29.6696 11.3389 29.5013 11.3389H21.817C21.6486 11.3389 21.4872 11.272 21.3681 11.1529C21.2491 11.0339 21.1822 10.8725 21.1822 10.7041C21.1822 10.5358 21.2491 10.3743 21.3681 10.2553C21.4872 10.1362 21.6486 10.0693 21.817 10.0693H29.5013C29.6696 10.0693 29.8311 10.1362 29.9501 10.2553C30.0692 10.3743 30.136 10.5358 30.136 10.7041ZM9.5918 10.7041C9.5918 10.5358 9.65867 10.3743 9.77772 10.2553C9.89676 10.1362 10.0582 10.0693 10.2266 10.0693H17.9108C18.0792 10.0693 18.2406 10.1362 18.3597 10.2553C18.4787 10.3743 18.5456 10.5358 18.5456 10.7041C18.5456 10.8725 18.4787 11.0339 18.3597 11.1529C18.2406 11.272 18.0792 11.3389 17.9108 11.3389H10.2266C10.0582 11.3388 9.89678 11.272 9.77774 11.1529C9.65871 11.0339 9.59182 10.8724 9.5918 10.7041ZM9.5918 15.1946C9.5918 15.0263 9.65867 14.8648 9.77772 14.7458C9.89676 14.6267 10.0582 14.5599 10.2266 14.5599H29.5013C29.6696 14.5599 29.8311 14.6267 29.9501 14.7458C30.0692 14.8648 30.136 15.0263 30.136 15.1946C30.136 15.363 30.0692 15.5244 29.9501 15.6435C29.8311 15.7625 29.6696 15.8294 29.5013 15.8294H10.2266C10.0582 15.8294 9.89678 15.7625 9.77774 15.6434C9.65871 15.5244 9.59182 15.363 9.5918 15.1946ZM30.136 19.6851C30.136 19.8534 30.0692 20.0149 29.9501 20.1339C29.8311 20.2529 29.6696 20.3198 29.5013 20.3198H21.817C21.6486 20.3198 21.4872 20.2529 21.3681 20.1339C21.2491 20.0149 21.1822 19.8534 21.1822 19.6851C21.1822 19.5167 21.2491 19.3553 21.3681 19.2362C21.4872 19.1172 21.6486 19.0503 21.817 19.0503H29.5013C29.6696 19.0503 29.8311 19.1172 29.9501 19.2362C30.0692 19.3553 30.136 19.5167 30.136 19.6851ZM9.5918 19.6851C9.5918 19.5167 9.65867 19.3553 9.77772 19.2362C9.89676 19.1172 10.0582 19.0503 10.2266 19.0503H17.9108C18.0792 19.0503 18.2406 19.1172 18.3597 19.2362C18.4787 19.3553 18.5456 19.5167 18.5456 19.6851C18.5456 19.8534 18.4787 20.0149 18.3597 20.1339C18.2406 20.2529 18.0792 20.3198 17.9108 20.3198H10.2266C10.0582 20.3198 9.89676 20.2529 9.77772 20.1339C9.65867 20.0149 9.5918 19.8534 9.5918 19.6851ZM23.9162 24.1756C23.9162 24.3439 23.8493 24.5054 23.7303 24.6244C23.6113 24.7435 23.4498 24.8103 23.2814 24.8103H10.2266C10.0582 24.8103 9.89676 24.7435 9.77772 24.6244C9.65867 24.5054 9.5918 24.3439 9.5918 24.1756C9.5918 24.0072 9.65867 23.8458 9.77772 23.7267C9.89676 23.6077 10.0582 23.5408 10.2266 23.5408H23.2814C23.4498 23.5408 23.6113 23.6077 23.7303 23.7267C23.8493 23.8458 23.9162 24.0072 23.9162 24.1756ZM22.2545 28.6661C22.2545 28.8345 22.1876 28.9959 22.0686 29.115C21.9495 29.234 21.7881 29.3009 21.6197 29.3009H10.2266C10.0582 29.3009 9.89676 29.234 9.77772 29.115C9.65867 28.9959 9.5918 28.8345 9.5918 28.6661C9.5918 28.4978 9.65867 28.3363 9.77772 28.2173C9.89676 28.0982 10.0582 28.0313 10.2266 28.0313H21.6197C21.7881 28.0313 21.9495 28.0982 22.0686 28.2173C22.1876 28.3363 22.2545 28.4978 22.2545 28.6661ZM45.0166 41.2753L41.7901 38.4824C42.0263 37.9019 41.9946 37.2059 41.9646 36.5713C41.94 36.0487 41.9145 35.5084 42.0478 35.1868C42.1703 34.8915 42.5578 34.5427 42.9325 34.2055C43.592 33.6119 44.3395 32.9393 44.3395 31.9899C44.3395 31.0406 43.592 30.368 42.9325 29.7744C42.5578 29.4371 42.1703 29.0884 42.0478 28.7931C41.9145 28.4716 41.94 27.9312 41.9646 27.4086C42.0056 26.5403 42.052 25.5562 41.4076 24.9118C40.895 24.3992 40.1656 24.3335 39.5874 24.3335C39.3618 24.3335 39.1326 24.3443 38.9108 24.3548C38.6939 24.365 38.4891 24.3747 38.2927 24.3747C38.0704 24.3747 37.7492 24.3641 37.5264 24.2716C37.2311 24.1491 36.8823 23.7616 36.545 23.3868C36.0932 22.8848 35.595 22.3326 34.9642 22.0972V3.64785C34.9642 1.58359 33.2848 -0.0957031 31.2206 -0.0957031H8.50723C6.44307 -0.0957031 4.76367 1.58369 4.76367 3.64785V31.2317C4.76367 33.296 6.44307 34.9753 8.50723 34.9753H26.4876C26.5403 35.048 26.583 35.1188 26.6112 35.1867C26.7445 35.5082 26.719 36.0486 26.6944 36.5712C26.6645 37.2059 26.6328 37.9018 26.8689 38.4823L23.6424 41.2753C23.546 41.3587 23.4769 41.4692 23.4442 41.5924C23.4115 41.7156 23.4166 41.8458 23.4589 41.9661C23.5013 42.0863 23.5788 42.191 23.6815 42.2665C23.7842 42.3421 23.9073 42.3849 24.0347 42.3895L27.0199 42.4988L27.1292 45.4841C27.1352 45.6483 27.2047 45.8037 27.3229 45.9178C27.4412 46.0319 27.5991 46.0956 27.7634 46.0957C27.8545 46.0957 27.9445 46.0761 28.0273 46.0382C28.1101 46.0004 28.1839 45.9451 28.2435 45.8763L32.476 40.9866C32.9837 41.5179 33.5675 41.9999 34.3296 41.9999C35.0918 41.9999 35.6755 41.5179 36.1832 40.9866L40.4157 45.8763C40.4991 45.9727 40.6096 46.0418 40.7328 46.0746C40.856 46.1073 40.9862 46.1022 41.1065 46.0599C41.2268 46.0176 41.3315 45.94 41.407 45.8373C41.4826 45.7346 41.5254 45.6115 41.53 45.4841L41.6393 42.4988L44.6244 42.3895C44.7518 42.3849 44.8748 42.342 44.9774 42.2664C45.0801 42.1909 45.1576 42.0862 45.1999 41.966C45.2422 41.8457 45.2474 41.7156 45.2147 41.5924C45.182 41.4692 45.113 41.3587 45.0166 41.2753ZM6.0332 31.2318V3.64785C6.0332 2.28359 7.14307 1.17383 8.50723 1.17383H31.2207C32.5849 1.17383 33.6947 2.28369 33.6947 3.64785V22.0973C33.064 22.3327 32.5658 22.8848 32.1139 23.3869C31.7766 23.7616 31.4279 24.1492 31.1325 24.2717C30.9098 24.3641 30.5885 24.3748 30.3663 24.3748C30.1699 24.3748 29.965 24.3651 29.748 24.3549C29.5264 24.3444 29.2971 24.3336 29.0715 24.3336C28.4933 24.3336 27.7639 24.3993 27.2513 24.9118C26.6068 25.5562 26.6532 26.5403 26.6942 27.4086C26.7188 27.9312 26.7444 28.4715 26.611 28.7931C26.4886 29.0884 26.1011 29.4371 25.7263 29.7744C25.0668 30.368 24.3193 31.0406 24.3193 31.99C24.3193 32.6844 24.7195 33.2304 25.1923 33.706H8.50723C7.14297 33.7059 6.0332 32.596 6.0332 31.2318ZM28.2669 41.8629C28.261 41.7027 28.1948 41.5506 28.0814 41.4372C27.968 41.3239 27.816 41.2576 27.6558 41.2518L25.6924 41.1799L27.7396 39.4078C28.1718 39.6121 28.6599 39.6464 29.0717 39.6463C29.2972 39.6463 29.5264 39.6354 29.748 39.625C29.9649 39.6148 30.1698 39.6051 30.3662 39.6051C30.5885 39.6051 30.9098 39.6157 31.1326 39.7082C31.2794 39.769 31.4395 39.8955 31.6047 40.0532L28.3388 43.8262L28.2669 41.8629ZM34.3295 40.7304C33.9456 40.7304 33.4941 40.2288 33.0576 39.7436C32.626 39.264 32.1795 38.768 31.6189 38.5354C31.2855 38.3972 30.8992 38.3355 30.3662 38.3355C30.1399 38.3355 29.9104 38.3464 29.6883 38.3568C29.4718 38.367 29.2673 38.3767 29.0718 38.3767C28.5832 38.3767 28.29 38.311 28.1491 38.1702C27.9016 37.9227 27.934 37.2364 27.9625 36.6311C27.9938 35.9689 28.0261 35.2844 27.784 34.7004C27.5515 34.1397 27.0555 33.6934 26.5758 33.2617C26.0907 32.8251 25.5891 32.3737 25.5891 31.9898C25.5891 31.606 26.0907 31.1545 26.5758 30.718C27.0555 30.2862 27.5515 29.8398 27.784 29.2793C28.0261 28.6954 27.9938 28.0107 27.9625 27.3487C27.934 26.7433 27.9016 26.057 28.1491 25.8095C28.2899 25.6687 28.5831 25.603 29.0717 25.603C29.2673 25.603 29.4719 25.6127 29.6884 25.6228C29.9104 25.6333 30.14 25.6442 30.3664 25.6442C30.8992 25.6442 31.2855 25.5826 31.6189 25.4443C32.1796 25.2118 32.626 24.7158 33.0576 24.2361C33.4942 23.7511 33.9456 23.2494 34.3295 23.2494C34.7134 23.2494 35.1648 23.7511 35.6014 24.2361C36.0331 24.7158 36.4795 25.2118 37.04 25.4443C37.3734 25.5826 37.7598 25.6442 38.2927 25.6442C38.5189 25.6442 38.7486 25.6334 38.9707 25.6229C39.1872 25.6128 39.3918 25.603 39.5874 25.603C40.076 25.603 40.369 25.6687 40.51 25.8095C40.7575 26.057 40.7252 26.7433 40.6966 27.3486C40.6653 28.0107 40.633 28.6954 40.8752 29.2793C41.1076 29.8399 41.6036 30.2863 42.0834 30.718C42.5685 31.1546 43.0701 31.606 43.0701 31.9898C43.0701 32.3737 42.5686 32.8252 42.0834 33.2617C41.6037 33.6934 41.1077 34.1398 40.8752 34.7004C40.6331 35.2843 40.6654 35.9689 40.6966 36.6311C40.7251 37.2365 40.7575 37.9228 40.51 38.1703C40.3691 38.3111 40.076 38.3768 39.5875 38.3768C39.3919 38.3768 39.1873 38.3671 38.9708 38.3568C38.7487 38.3464 38.5191 38.3355 38.2928 38.3355C37.7599 38.3355 37.3735 38.3972 37.0401 38.5354C36.4795 38.7679 36.0331 39.2639 35.6015 39.7436C35.1648 40.2288 34.7134 40.7304 34.3295 40.7304ZM41.0032 41.2518C40.843 41.2576 40.6909 41.3239 40.5776 41.4372C40.4642 41.5506 40.398 41.7027 40.3921 41.8629L40.3202 43.8263L37.0543 40.0533C37.2195 39.8956 37.3796 39.7691 37.5264 39.7083C37.7492 39.6159 38.0704 39.6052 38.2927 39.6052C38.4891 39.6052 38.6939 39.6148 38.9108 39.6251C39.1325 39.6355 39.3618 39.6464 39.5874 39.6464C39.9991 39.6464 40.4872 39.6121 40.9193 39.4078L42.9665 41.1799L41.0032 41.2518Z" fill="black"/>
</g>
<defs>
<clipPath id="clip0_166_305">
<rect width="46" height="46" fill="white"/>
</clipPath>
</defs>
</svg>
