<svg width="50" height="50" viewBox="0 0 50 50" fill="none" xmlns="http://www.w3.org/2000/svg">
<path d="M41.1366 15.0989C40.773 11.3792 37.6214 8.46254 33.8108 8.46254C32.4851 8.46254 31.2199 8.81102 30.0987 9.47011C27.9775 5.71254 24.0457 3.32617 19.8639 3.32617C13.4018 3.32617 8.14418 8.64435 8.09872 15.1974C3.93205 15.9095 0.757812 19.6065 0.757812 23.9019C0.757812 28.7656 4.71993 32.7277 9.59115 32.7277H10.5381C10.9548 32.7277 11.2957 32.3868 11.2957 31.9701C11.2957 31.5534 10.9548 31.2125 10.5381 31.2125H9.59115C5.55327 31.2125 2.27296 27.9322 2.27296 23.9019C2.27296 20.1444 5.19721 16.9474 8.93205 16.6216C9.33357 16.5837 9.6366 16.2125 9.62145 15.811C9.61387 15.6368 9.6063 15.4625 9.6063 15.2883C9.6063 9.53072 14.2048 4.8489 19.8563 4.8489C23.7351 4.8489 27.3714 7.22769 29.1214 10.9019C29.2199 11.1065 29.4093 11.258 29.629 11.311C29.8487 11.3641 30.0836 11.3186 30.2654 11.1747C31.2763 10.3942 32.5186 9.973 33.7957 9.97769C37.023 9.97769 39.6442 12.5989 39.6442 15.8262C39.6442 16.2428 39.9851 16.5837 40.4018 16.5837C44.4321 16.5837 47.7199 19.8641 47.7199 23.9019C47.7199 27.9398 44.4396 31.2201 40.4018 31.2201H39.4851C39.0684 31.2201 38.7275 31.561 38.7275 31.9777C38.7275 32.3944 39.0684 32.7353 39.4851 32.7353H40.4018C45.2805 32.7277 49.2427 28.7656 49.2427 23.9019C49.2427 19.2731 45.6669 15.4701 41.1366 15.0989Z" fill="#2166F3"/>
<path d="M23.5389 33.4173H21.3571V23.9021C21.3571 23.4854 21.0162 23.1445 20.5995 23.1445H14.7283C14.3117 23.1445 13.9708 23.4854 13.9708 23.9021V33.4173H11.7889C11.5086 33.4173 11.2511 33.5688 11.1223 33.8188C10.9935 34.0688 11.0086 34.3642 11.1601 34.5991L17.0314 43.4021C17.1753 43.6142 17.4101 43.743 17.6601 43.743C17.9101 43.743 18.1526 43.6142 18.2889 43.4021L24.1601 34.5991C24.3117 34.3642 24.3268 34.0688 24.198 33.8188C24.0692 33.5688 23.8192 33.4173 23.5389 33.4173ZM17.6677 41.6142L13.2132 34.9324H14.7359C15.1526 34.9324 15.4935 34.5915 15.4935 34.1748V24.6597H19.8495V34.1748C19.8495 34.5915 20.1905 34.9324 20.6071 34.9324H22.1298L17.6677 41.6142ZM32.9708 26.4173C32.6905 25.993 31.9935 25.993 31.7132 26.4173L25.842 35.2203C25.6905 35.4551 25.6753 35.7506 25.8041 36.0006C25.9329 36.2506 26.1905 36.4021 26.4708 36.4021H28.6526V45.9173C28.6526 46.3339 28.9935 46.6748 29.4101 46.6748H35.2814C35.698 46.6748 36.0389 46.3339 36.0389 45.9173V36.4021H38.2208C38.5011 36.4021 38.7586 36.2506 38.8874 36.0006C39.0162 35.7506 39.0011 35.4551 38.8495 35.2203L32.9708 26.4173ZM35.2738 34.887C34.8571 34.887 34.5162 35.2279 34.5162 35.6445V45.1597H30.1602V35.6445C30.1602 35.2279 29.8192 34.887 29.4026 34.887H27.8798L32.3344 28.2051L36.7889 34.887H35.2738Z" fill="#2166F3"/>
</svg>
