<svg width="49" height="49" viewBox="0 0 49 49" fill="none" xmlns="http://www.w3.org/2000/svg">
<path d="M38.7412 47.8125H37.0469V49.4062H39.4138C39.6019 49.4062 39.784 49.3397 39.9277 49.2183C40.0715 49.097 40.1677 48.9287 40.1993 48.7432L46.1731 13.6807L44.6019 13.413L38.7412 47.8125ZM46.7477 5.59028L37.1852 3.90409L36.9085 5.47363L45.6908 7.02246L44.8735 11.8195L46.4445 12.0873L47.3949 6.50917C47.4303 6.30158 47.3822 6.08839 47.2609 5.9162C47.1396 5.74402 46.9551 5.62684 46.7477 5.59028ZM34.6563 1.59375H0.390625C0.179281 1.59375 -0.0234077 1.67771 -0.172851 1.82715C-0.322294 1.97659 -0.40625 2.17928 -0.40625 2.39062V35.0625H1.1875V3.1875H33.8594V47.8125H1.1875V36.6562H-0.40625V48.6094C-0.40625 48.8207 -0.322294 49.0234 -0.172851 49.1729C-0.0234077 49.3223 0.179281 49.4062 0.390625 49.4062H34.6563C34.8676 49.4062 35.0703 49.3223 35.2197 49.1729C35.3692 49.0234 35.4531 48.8207 35.4531 48.6094V2.39062C35.4531 2.17928 35.3692 1.97659 35.2197 1.82715C35.0703 1.67771 34.8676 1.59375 34.6563 1.59375Z" fill="black"/>
<path d="M7.32815 28.1241L6.20117 29.2511L8.5918 31.6417C8.6658 31.7157 8.75365 31.7744 8.85033 31.8145C8.94701 31.8545 9.05064 31.8751 9.15529 31.8751C9.16525 31.8751 9.17521 31.8751 9.18587 31.8745C9.29558 31.8703 9.40323 31.8435 9.50209 31.7957C9.60094 31.7479 9.68885 31.6803 9.76031 31.5969L14.5416 26.0188L13.3315 24.9814L9.11026 29.9062L7.32815 28.1241Z" fill="black"/>
<path d="M3.57812 31.4766C3.57897 32.216 3.87309 32.9249 4.39595 33.4478C4.91882 33.9707 5.62774 34.2648 6.36719 34.2656H10.3516C11.091 34.2648 11.7999 33.9707 12.3228 33.4478C12.8457 32.9249 13.1398 32.216 13.1406 31.4766V31.0781H11.5469V31.4766C11.5465 31.7935 11.4205 32.0973 11.1964 32.3214C10.9723 32.5455 10.6685 32.6715 10.3516 32.6719H6.36719C6.05028 32.6715 5.74644 32.5455 5.52235 32.3214C5.29826 32.0973 5.17222 31.7935 5.17188 31.4766V27.4922C5.17222 27.1753 5.29826 26.8714 5.52235 26.6474C5.74644 26.4233 6.05028 26.2972 6.36719 26.2969H9.95312V24.7031H6.36719C5.62774 24.704 4.91882 24.9981 4.39595 25.521C3.87309 26.0438 3.57897 26.7527 3.57812 27.4922V31.4766ZM7.32912 40.0771L6.20213 41.2041L8.59276 43.5947C8.66676 43.6687 8.75461 43.7274 8.85129 43.7675C8.94798 43.8075 9.0516 43.8281 9.15625 43.8281C9.16621 43.8281 9.17617 43.8281 9.18683 43.8275C9.29654 43.8233 9.4042 43.7965 9.50305 43.7487C9.6019 43.7009 9.68982 43.6333 9.76128 43.5499L14.5425 37.9718L13.3325 36.9345L9.11123 41.8592L7.32912 40.0771Z" fill="black"/>
<path d="M3.57812 43.4297C3.57897 44.1692 3.87309 44.8781 4.39595 45.401C4.91882 45.9238 5.62774 46.218 6.36719 46.2188H10.3516C11.091 46.218 11.7999 45.9238 12.3228 45.401C12.8457 44.8781 13.1398 44.1692 13.1406 43.4297V43.0313H11.5469V43.4297C11.5465 43.7466 11.4205 44.0505 11.1964 44.2746C10.9723 44.4987 10.6685 44.6247 10.3516 44.625H6.36719C6.05028 44.6247 5.74644 44.4987 5.52235 44.2746C5.29826 44.0505 5.17222 43.7466 5.17188 43.4297V39.4454C5.17222 39.1284 5.29826 38.8246 5.52235 38.6005C5.74644 38.3764 6.05028 38.2504 6.36719 38.25H9.95312V36.6563H6.36719C5.62774 36.6571 4.91882 36.9513 4.39595 37.4741C3.87309 37.997 3.57897 38.7059 3.57812 39.4454V43.4297ZM16.3281 36.6563H28.2812V38.25H16.3281V36.6563ZM16.3281 40.6407H20.3125V42.2344H16.3281V40.6407ZM21.9062 40.6407H28.2812V42.2344H21.9062V40.6407ZM16.3281 24.7032H28.2812V26.2969H16.3281V24.7032ZM16.3281 28.6875H20.3125V30.2813H16.3281V28.6875ZM21.9062 28.6875H28.2812V30.2813H21.9062V28.6875ZM25.3984 8.0439L18.2364 4.85033C18.1343 4.80479 18.0237 4.78125 17.9119 4.78125C17.8001 4.78125 17.6895 4.80479 17.5874 4.85033L10.4255 8.0439C10.2655 8.11527 10.1334 8.23739 10.0498 8.39137C9.96617 8.54534 9.93562 8.72258 9.96289 8.89566L10.5598 12.6859C10.5608 12.6921 10.5618 12.6983 10.563 12.7045C11.1677 15.9893 13.0094 18.917 15.7086 20.8841L17.4458 22.1636C17.5821 22.264 17.7467 22.3183 17.9159 22.3188C18.0851 22.3194 18.2501 22.266 18.387 22.1665L20.0421 20.9633C22.7771 18.997 24.6451 16.0485 25.2547 12.7356C25.2558 12.7294 25.2569 12.7233 25.2578 12.7171L25.8607 8.89596C25.8881 8.72286 25.8576 8.54556 25.774 8.39153C25.6904 8.2375 25.5584 8.11532 25.3984 8.0439ZM23.6851 12.4595C23.1464 15.3652 21.5053 17.9503 19.1049 19.6742L17.9219 20.5345L16.6541 19.6009C14.2855 17.8763 12.6675 15.3098 12.1331 12.429L11.6325 9.25147L17.9119 6.45065L24.1915 9.25077L23.6851 12.4595Z" fill="black"/>
<path d="M15.2788 12.1922L14.152 13.3191L16.5426 15.7097C16.692 15.8591 16.8947 15.9431 17.106 15.9431C17.3174 15.9431 17.52 15.8591 17.6695 15.7097L22.4507 10.9284L21.3238 9.80156L17.1061 14.0197L15.2788 12.1922ZM3.57812 4.78125H8.35938V6.375H3.57812V4.78125ZM3.57812 7.96875H6.76562V9.5625H3.57812V7.96875ZM27.4844 4.78125H29.0781V6.375H27.4844V4.78125ZM30.6719 4.78125H32.2656V6.375H30.6719V4.78125Z" fill="black"/>
</svg>
