<svg width="50" height="50" viewBox="0 0 50 50" fill="none" xmlns="http://www.w3.org/2000/svg">
<g clip-path="url(#clip0_166_913)">
<g clip-path="url(#clip1_166_913)">
<path d="M1.51539 27.0457H20.4548C20.8336 27.0457 21.2124 26.7427 21.2124 26.2881V24.4699C22.9548 24.8487 24.3184 26.3639 24.3184 28.2578V40.379C24.3184 43.0305 26.2881 45.3033 28.8639 45.6063V48.4851C28.8639 48.8639 29.1669 49.2427 29.6215 49.2427H48.5608C48.9396 49.2427 49.3184 48.9396 49.3184 48.4851V44.5457C49.3184 43.1821 48.4093 41.9699 47.1215 41.5911L42.5002 40.1518V38.5608C44.773 36.5154 46.2124 32.8033 46.2124 30.076C46.2124 26.1366 42.9548 22.879 39.0154 22.879C35.076 22.879 31.8184 26.1366 31.8184 30.076C31.8184 32.8033 33.2578 36.5154 35.5305 38.5608V40.2275L30.9851 41.6669C29.8487 42.0457 29.0154 43.0305 28.8639 44.1669C27.0457 43.8639 25.7578 42.273 25.7578 40.379V28.2578C25.7578 25.6063 23.7881 23.3336 21.2124 23.0305V22.4245C21.2124 21.0608 20.3033 19.8487 19.0154 19.4699L14.3942 18.0305V16.4396C16.6669 14.3942 18.1063 10.6821 18.1063 7.95478C18.1063 4.01539 14.8487 0.757812 10.9093 0.757812C6.96993 0.757812 3.78812 3.93963 3.78812 7.95478C3.78812 10.6821 5.22751 14.3942 7.50024 16.4396V18.1063L2.87902 19.5457C1.6669 19.8487 0.757812 21.0608 0.757812 22.4245V26.3639C0.757812 26.7427 1.06084 27.0457 1.51539 27.0457ZM39.0154 24.3942C42.1972 24.3942 44.6972 26.9699 44.6972 30.076C44.6972 30.6063 44.6215 31.1366 44.4699 31.6669C44.0912 30.9093 43.9396 29.4699 43.9396 28.5608C43.9396 28.2578 43.7124 27.9548 43.4093 27.879C43.1063 27.8033 42.8033 27.879 42.576 28.1063C41.8942 29.0154 40.6821 29.5457 39.3184 29.6214C37.7275 29.6972 36.2881 29.0911 35.3033 28.0305C35.076 27.8033 34.773 27.7275 34.4699 27.879C34.1669 28.0305 34.0154 28.3336 34.0154 28.6366C34.2427 30.1518 33.9396 31.6669 33.6366 32.6518C33.4851 31.8184 33.3336 30.9093 33.3336 30.1518C33.3336 26.9699 35.9093 24.3942 39.0154 24.3942ZM34.5457 34.5457C35.2275 33.6366 35.6821 31.8942 35.7578 30.2275C36.8942 30.9093 38.1821 31.2124 39.5457 31.2124C40.7578 31.1366 41.8184 30.8336 42.7275 30.2275C42.879 31.2881 43.1821 32.6518 43.9396 33.3336C44.0154 33.4093 44.0912 33.4093 44.1669 33.4851C43.1821 36.1366 41.2881 38.6366 39.1669 38.6366C37.273 38.5608 35.6063 36.7427 34.5457 34.5457ZM39.0154 40.076C39.6972 40.076 40.379 39.9245 40.9851 39.6215V40.7578C40.9851 41.2881 40.0002 41.6669 39.0154 41.6669C38.1063 41.6669 37.0457 41.2881 37.0457 40.7578V39.5457C37.7275 39.8487 38.3336 40.076 39.0154 40.076ZM30.3033 44.6215C30.3033 43.9396 30.7578 43.2578 31.4396 43.1063L35.8336 41.7427C36.0608 42.1215 36.3639 42.4245 36.8184 42.7275C37.4245 43.0305 38.1821 43.2578 39.0154 43.2578C40.5305 43.2578 41.7427 42.7275 42.1972 41.8184L46.5912 43.1821C47.273 43.4093 47.7275 44.0154 47.7275 44.6972V47.879H45.6063V45.5305C45.6063 45.1518 45.3033 44.773 44.8487 44.773C44.3942 44.773 44.0912 45.076 44.0912 45.5305V47.879H33.8639V45.5305C33.8639 45.1518 33.5608 44.773 33.1063 44.773C32.7275 44.773 32.3487 45.076 32.3487 45.5305V47.879H30.3033V44.6215ZM10.9851 2.19721C14.1669 2.19721 16.6669 4.77296 16.6669 7.87902C16.6669 8.40933 16.5911 8.93963 16.4396 9.46993C16.0608 8.71236 15.9093 7.27296 15.9093 6.36387C15.9093 6.06084 15.6821 5.75781 15.379 5.68206C15.076 5.6063 14.773 5.68206 14.5457 5.90933C13.8639 6.81842 12.6518 7.34872 11.2881 7.42448C9.77297 7.50024 8.25781 6.89418 7.27297 5.83357C7.12145 5.68206 6.81842 5.68206 6.51539 5.75781C6.21236 5.90933 6.06084 6.21236 6.1366 6.51539C6.36387 8.03054 6.06084 9.54569 5.75781 10.5305C5.45478 9.62145 5.30327 8.71236 5.30327 7.87902C5.22751 4.77296 7.80327 2.19721 10.9851 2.19721ZM6.43963 12.3487C7.12145 11.4396 7.576 9.69721 7.65175 8.03054C8.78812 8.71236 10.076 9.01539 11.4396 9.01539C12.6518 8.93963 13.7124 8.6366 14.6215 8.03054C14.773 9.09115 15.076 10.4548 15.8336 11.1366C15.9093 11.2124 15.9851 11.2124 16.0608 11.2881C15.076 13.9396 13.1821 16.4396 11.0608 16.4396C9.1669 16.3639 7.50024 14.5457 6.43963 12.3487ZM10.9851 17.879C11.6669 17.879 12.3487 17.7275 12.9548 17.4245V18.5608C12.9548 19.0911 11.9699 19.4699 10.9851 19.4699C10.0002 19.4699 9.01539 19.0911 9.01539 18.5608V17.3487C9.62145 17.6518 10.3033 17.879 10.9851 17.879ZM2.19721 22.4245C2.19721 21.7427 2.65175 21.0608 3.33357 20.9093L7.72751 19.5457C7.95478 19.9245 8.25781 20.2275 8.71236 20.5305C9.31842 20.8336 10.076 21.0608 10.9093 21.0608C12.4245 21.0608 13.6366 20.5305 14.0911 19.6214L18.4851 20.9851C19.1669 21.2124 19.6215 21.8184 19.6215 22.5002V25.6821H17.5002V23.3336C17.5002 22.9548 17.1972 22.576 16.7427 22.576C16.3639 22.576 15.9851 22.879 15.9851 23.3336V25.6821H5.83357V23.3336C5.83357 22.9548 5.53054 22.576 5.07599 22.576C4.62145 22.576 4.31842 22.879 4.31842 23.3336V25.6821H2.19721V22.4245Z" fill="black"/>
<path d="M10.6828 43.0307C12.7283 43.0307 14.3949 41.364 14.3949 39.3186C14.3949 37.2731 12.7283 35.6064 10.6828 35.6064C8.63737 35.6064 6.9707 37.2731 6.9707 39.3186C6.9707 41.364 8.63737 43.0307 10.6828 43.0307ZM10.6828 37.1216C11.8949 37.1216 12.8798 38.1064 12.8798 39.3186C12.8798 40.5307 11.8949 41.5155 10.6828 41.5155C9.4707 41.5155 8.48585 40.5307 8.48585 39.3186C8.48585 38.1064 9.4707 37.1216 10.6828 37.1216Z" fill="black"/>
<path d="M1.28812 41.1364L3.33357 41.7424C3.48509 42.1212 3.6366 42.4243 3.78812 42.8031L2.72751 44.697C2.57599 45 2.65175 45.3031 2.87902 45.6061L4.46993 47.197C4.69721 47.4243 5.07599 47.5 5.37902 47.3485L7.19721 46.2121C7.50024 46.3637 7.87902 46.5152 8.25781 46.6667L8.86387 48.7121C8.93963 49.0152 9.24266 49.2424 9.54569 49.2424H11.8184C12.1214 49.2424 12.4245 49.0152 12.5002 48.7121L13.1063 46.6667C13.4851 46.5152 13.7881 46.4394 14.1669 46.2121L16.0608 47.2728C16.3639 47.4243 16.7427 47.3485 16.9699 47.1212L18.5608 45.5303C18.7881 45.3031 18.8639 44.9243 18.7124 44.6212L17.6517 42.7273C17.8033 42.4243 17.9548 42.0455 18.1063 41.6667L20.1518 41.0606C20.4548 40.9849 20.6821 40.6818 20.6821 40.3788V38.1061C20.6821 37.8031 20.4548 37.5 20.1518 37.4243L18.1063 36.8182C17.9548 36.4394 17.879 36.1364 17.6517 35.7576L18.7124 33.8637C18.8639 33.5606 18.7881 33.2576 18.5608 32.9546L16.9699 31.3637C16.7427 31.1364 16.3639 31.0606 16.0608 31.2121L14.1669 32.2728C13.8639 32.1212 13.4851 31.9697 13.1063 31.8182L12.5002 29.7728C12.4245 29.4697 12.1214 29.2425 11.8184 29.2425H9.54569C9.24266 29.2425 8.93963 29.4697 8.86387 29.7728L8.25781 31.8182C7.87902 31.9697 7.57599 32.0455 7.19721 32.2728L5.30327 31.2121C5.00024 31.0606 4.62145 31.1364 4.39418 31.3637L2.80327 32.9546C2.57599 33.1818 2.50024 33.5606 2.65175 33.8637L3.78812 35.8334C3.6366 36.1364 3.48509 36.5152 3.33357 36.894L1.28812 37.5C0.985085 37.5758 0.757812 37.8788 0.757812 38.1818V40.4546C0.757812 40.7576 0.985085 41.0606 1.28812 41.1364ZM2.19721 38.7121L4.09115 38.1818C4.31842 38.1061 4.54569 37.8788 4.62145 37.6515C4.77296 37.1212 4.92448 36.6667 5.22751 36.2121C5.37902 35.9849 5.37902 35.6818 5.22751 35.4546L4.24266 33.7121L5.07599 32.8788L6.81842 33.8637C7.04569 34.0152 7.34872 34.0152 7.57599 33.8637C8.03054 33.6364 8.48508 33.4091 9.01539 33.2576C9.24266 33.1818 9.46993 33.0303 9.54569 32.7273L10.076 30.8334H11.2124L11.7427 32.7273C11.8184 32.9546 12.0457 33.1818 12.273 33.2576C12.8033 33.4091 13.2578 33.5606 13.7124 33.8637C13.9396 34.0152 14.2427 34.0152 14.4699 33.8637L16.2124 32.8788L17.0457 33.7121L16.0608 35.4546C15.9093 35.6818 15.9093 35.9849 16.0608 36.2121C16.2881 36.6667 16.5154 37.1212 16.6669 37.6515C16.7427 37.8788 16.8942 38.1061 17.1972 38.1818L19.0911 38.7121V39.8485L17.1972 40.3788C16.9699 40.4546 16.7427 40.6818 16.6669 40.9091C16.5154 41.4394 16.3639 41.894 16.0608 42.3485C15.9093 42.5758 15.9093 42.8788 16.0608 43.1061L17.0457 44.8485L16.2124 45.6818L14.4699 44.697C14.2427 44.5455 13.9396 44.5455 13.7124 44.697C13.2578 44.9243 12.8033 45.1515 12.273 45.3031C12.0457 45.3788 11.8184 45.5303 11.7427 45.8334L11.2124 47.7273H10.076L9.54569 45.8334C9.46993 45.6061 9.24266 45.3788 9.01539 45.3031C8.48508 45.1515 8.03054 45 7.57599 44.697C7.34872 44.5455 7.04569 44.5455 6.81842 44.697L5.07599 45.6818L4.24266 44.8485L5.22751 43.1061C5.37902 42.8788 5.37902 42.5758 5.22751 42.3485C5.00024 41.894 4.77296 41.4394 4.62145 40.9091C4.54569 40.6818 4.39418 40.4546 4.09115 40.3788L2.19721 39.8485V38.7121ZM39.3184 6.96973C37.273 6.96973 35.6063 8.63639 35.6063 10.6818C35.6063 12.7273 37.273 14.394 39.3184 14.394C41.3639 14.394 43.0305 12.7273 43.0305 10.6818C43.0305 8.63639 41.3639 6.96973 39.3184 6.96973ZM39.3184 12.8788C38.1063 12.8788 37.1214 11.894 37.1214 10.6818C37.1214 9.46973 38.1063 8.48488 39.3184 8.48488C40.5305 8.48488 41.5154 9.46973 41.5154 10.6818C41.5154 11.894 40.5305 12.8788 39.3184 12.8788Z" fill="black"/>
<path d="M48.7123 12.5002C49.0153 12.4245 49.2426 12.1215 49.2426 11.8184V9.54569C49.2426 9.24266 49.0153 8.93963 48.7123 8.86387L46.6668 8.25781C46.5153 7.87903 46.4396 7.576 46.2123 7.19721L47.2729 5.30327C47.4244 5.00024 47.3487 4.69721 47.1214 4.39418L45.5305 2.80327C45.3032 2.57599 44.9244 2.50024 44.6214 2.65175L42.8032 3.78812C42.5002 3.6366 42.1214 3.48509 41.7426 3.33357L41.1365 1.28812C41.0608 0.985085 40.7578 0.757812 40.4547 0.757812H38.182C37.879 0.757812 37.5759 0.985085 37.5002 1.28812L36.8941 3.33357C36.5153 3.48509 36.2123 3.56084 35.8335 3.78812L33.9396 2.72751C33.6365 2.57599 33.2578 2.65175 33.0305 2.87902L31.4396 4.46993C31.2123 4.69721 31.1365 5.07599 31.2881 5.37903L32.3487 7.27297C32.1971 7.576 32.0456 7.95478 31.8941 8.33357L29.8487 8.93963C29.5456 9.01539 29.3184 9.31842 29.3184 9.62145V11.8942C29.3184 12.1972 29.5456 12.5002 29.8487 12.576L31.8941 13.1821C32.0456 13.5608 32.1214 13.8639 32.3487 14.2427L31.2881 16.1366C31.1365 16.4396 31.2123 16.7427 31.4396 17.0457L33.0305 18.6366C33.2578 18.8639 33.6365 18.9396 33.9396 18.7881L35.8335 17.7275C36.1365 17.879 36.5153 18.0305 36.8941 18.1821L37.5002 20.2275C37.5759 20.5305 37.879 20.7578 38.182 20.7578H40.4547C40.7578 20.7578 41.0608 20.5305 41.1365 20.2275L41.7426 18.1821C42.1214 18.0305 42.4244 17.9548 42.8032 17.7275L44.6971 18.7881C45.0002 18.9396 45.379 18.8639 45.6062 18.6366L47.1971 17.0457C47.4244 16.8184 47.5002 16.4396 47.3487 16.1366L46.2123 14.1669C46.3638 13.8639 46.5153 13.4851 46.6668 13.1063L48.7123 12.5002ZM45.8335 11.8184C45.6062 11.8942 45.379 12.1214 45.3032 12.3487C45.1517 12.879 45.0002 13.3336 44.6971 13.7881C44.5456 14.0154 44.5456 14.3184 44.6971 14.5457L45.682 16.2881L44.8487 17.1215L43.1062 16.1366C42.879 15.9851 42.5759 15.9851 42.3487 16.1366C41.8941 16.3639 41.4396 16.5911 40.9093 16.7427C40.682 16.8184 40.4547 16.9699 40.379 17.273L39.8487 19.1669H38.7123L38.182 17.273C38.1062 17.0457 37.879 16.8184 37.6517 16.7427C37.1214 16.5911 36.6668 16.4396 36.2123 16.1366C35.985 15.9851 35.682 15.9851 35.4547 16.1366L33.7123 17.1215L32.879 16.2881L33.8638 14.5457C34.0153 14.3184 34.0153 14.0154 33.8638 13.7881C33.6365 13.3336 33.4093 12.879 33.2578 12.3487C33.182 12.1214 33.0305 11.8942 32.7275 11.8184L30.8335 11.2881V10.1518L32.7275 9.62145C32.9547 9.54569 33.182 9.31842 33.2578 9.09115C33.4093 8.56084 33.5608 8.1063 33.8638 7.65175C34.0153 7.42448 34.0153 7.12145 33.8638 6.89418L32.879 5.15175L33.7123 4.31842L35.4547 5.30327C35.682 5.45478 35.985 5.45478 36.2123 5.30327C36.6668 5.07599 37.1214 4.84872 37.6517 4.69721C37.879 4.62145 38.1062 4.46993 38.182 4.1669L38.7123 2.27296H39.8487L40.379 4.1669C40.4547 4.39418 40.682 4.62145 40.9093 4.69721C41.4396 4.84872 41.8941 5.00024 42.3487 5.30327C42.5759 5.45478 42.879 5.45478 43.1062 5.30327L44.8487 4.31842L45.682 5.15175L44.6971 6.89418C44.5456 7.12145 44.5456 7.42448 44.6971 7.65175C44.9244 8.1063 45.1517 8.56084 45.3032 9.09115C45.379 9.31842 45.5305 9.54569 45.8335 9.62145L47.7274 10.1518V11.2881L45.8335 11.8184Z" fill="black"/>
</g>
</g>
<defs>
<clipPath id="clip0_166_913">
<rect width="50" height="50" fill="white"/>
</clipPath>
<clipPath id="clip1_166_913">
<rect width="50" height="50" fill="white"/>
</clipPath>
</defs>
</svg>
