<svg width="50" height="50" viewBox="0 0 50 50" fill="none" xmlns="http://www.w3.org/2000/svg">
<path d="M42.1676 22.5418C41.913 22.5418 41.6623 22.4417 41.4751 22.2549L37.8455 18.625H32.3758C31.8344 18.625 31.3965 18.1865 31.3965 17.6457C31.3965 17.1053 31.8344 16.6668 32.3758 16.6668H38.2508C38.5111 16.6668 38.76 16.7693 38.9432 16.9537L41.1883 19.1987V17.6457C41.1883 17.1053 41.6261 16.6668 42.1676 16.6668H43.1465C43.6872 16.6668 44.1258 16.2271 44.1258 15.6875V3.9375C44.1258 3.39783 43.6873 2.95821 43.1465 2.95821H22.584C22.0447 2.95821 21.6051 3.39792 21.6051 3.9375V15.6875C21.6051 16.2272 22.0447 16.6668 22.584 16.6668H24.5426C25.083 16.6668 25.5215 17.1053 25.5215 17.6457C25.5215 18.1864 25.083 18.625 24.5426 18.625H22.584C20.9647 18.625 19.6465 17.3073 19.6465 15.6875V3.9375C19.6465 2.31774 20.9647 1 22.584 1H43.1465C44.7662 1 46.084 2.31774 46.084 3.9375V15.6875C46.084 17.3073 44.7662 18.625 43.1465 18.625V21.5625C43.1465 21.9581 42.9087 22.3155 42.5426 22.4672C42.4211 22.517 42.2938 22.5418 42.1676 22.5418Z" fill="black"/>
<path d="M6.91679 26.4584C6.7902 26.4584 6.66288 26.4351 6.54171 26.3842C6.36288 26.3099 6.21004 26.1844 6.10251 26.0234C5.99497 25.8624 5.93755 25.6731 5.9375 25.4795V22.542C4.31774 22.542 3 21.2238 3 19.6045V7.85449C3 6.23474 4.31774 4.91699 5.9375 4.91699H16.7082C17.2489 4.91699 17.6875 5.35551 17.6875 5.89591C17.6875 6.4366 17.249 6.8752 16.7082 6.8752H5.9375C5.39783 6.8752 4.95821 7.31491 4.95821 7.85449V19.6045C4.95821 20.1438 5.39792 20.5834 5.9375 20.5834H6.91679C7.4572 20.5834 7.89571 21.0223 7.89571 21.5627V23.1157L10.1412 20.8703C10.232 20.7793 10.3398 20.7071 10.4586 20.6579C10.5773 20.6086 10.7047 20.5833 10.8332 20.5834H26.5C27.0404 20.5834 27.4793 20.1438 27.4793 19.6045V7.85449C27.4793 7.31482 27.0404 6.8752 26.5 6.8752H24.5418C24.0011 6.8752 23.5625 6.43669 23.5625 5.89591C23.5625 5.35551 24.001 4.91699 24.5418 4.91699H26.5C28.1198 4.91699 29.4375 6.23474 29.4375 7.85449V19.6045C29.4375 21.2238 28.1198 22.542 26.5 22.542H11.2388L7.60885 26.1716C7.518 26.2625 7.41012 26.3347 7.29137 26.3839C7.17262 26.4331 7.04534 26.4584 6.91679 26.4584ZM11.8125 38.2084C9.11312 38.2084 6.91679 36.0121 6.91679 33.3127V31.3545C6.91679 28.6547 9.11312 26.4584 11.8125 26.4584C14.5119 26.4584 16.7082 28.6547 16.7082 31.3545V33.3127C16.7082 36.0121 14.5119 38.2084 11.8125 38.2084ZM11.8125 28.417C10.1927 28.417 8.875 29.7347 8.875 31.3545V33.3127C8.875 34.9325 10.1927 36.2502 11.8125 36.2502C13.4323 36.2502 14.75 34.9325 14.75 33.3127V31.3545C14.75 29.7347 13.4323 28.417 11.8125 28.417Z" fill="black"/>
<path d="M14.7518 47.9998H8.87316C5.56848 47.9987 3.37793 45.8465 3.28687 45.7547C3.19579 45.6639 3.12356 45.556 3.07433 45.4371C3.0251 45.3183 2.99984 45.1909 3 45.0623V41.6695C3 41.0114 3.32588 40.4025 3.87354 40.0393L8.875 36.7052V36.2498H10.8332V37.2291C10.8332 37.5561 10.6697 37.8616 10.3975 38.0438L4.95821 41.6694V44.6148C5.5459 45.0788 6.98922 46.0405 8.8739 46.0416H14.7518C16.6544 46.0405 18.0841 45.0828 18.6668 44.6187V41.6694L13.2275 38.0438C13.0935 37.9542 12.9837 37.8331 12.9077 37.691C12.8317 37.5489 12.7919 37.3902 12.7918 37.2291V36.2498H14.75V36.7051L19.7537 40.0401C20.022 40.2188 20.242 40.461 20.394 40.7453C20.5461 41.0296 20.6254 41.3471 20.625 41.6695V45.0623C20.625 45.3226 20.5221 45.5715 20.3381 45.7547C20.2471 45.8465 18.0558 47.9987 14.7518 47.9998ZM37.2707 38.208C34.5713 38.208 32.375 36.0117 32.375 33.3123V31.3541C32.375 28.6543 34.5713 26.458 37.2707 26.458C39.9705 26.458 42.1668 28.6543 42.1668 31.3541V33.3123C42.1668 36.0117 39.9705 38.208 37.2707 38.208ZM37.2707 28.4166C35.6514 28.4166 34.3332 29.7343 34.3332 31.3541V33.3123C34.3332 34.9321 35.6514 36.2498 37.2707 36.2498C38.8905 36.2498 40.2082 34.9321 40.2082 33.3123V31.3541C40.2082 29.7343 38.8905 28.4166 37.2707 28.4166Z" fill="black"/>
<path d="M40.2111 47.9998H34.3322C31.0276 47.9987 28.838 45.8465 28.7458 45.7547C28.6548 45.6639 28.5825 45.556 28.5333 45.4371C28.4841 45.3183 28.4588 45.1909 28.459 45.0623V41.6695C28.4584 41.3466 28.5379 41.0286 28.6906 40.744C28.8432 40.4595 29.0642 40.2173 29.3335 40.0393L34.334 36.7052V36.2498H36.2926V37.2291C36.2926 37.5561 36.1291 37.8616 35.8569 38.0438L30.4176 41.6694V44.6148C31.0049 45.0798 32.4482 46.0405 34.3321 46.0416H40.2111C42.1134 46.0405 43.543 45.0828 44.1258 44.6187V41.6694L38.6864 38.0438C38.5525 37.9542 38.4426 37.8331 38.3666 37.691C38.2907 37.5489 38.2509 37.3902 38.2508 37.2291V36.2498H40.209V36.7051L45.2115 40.0401C45.4801 40.2186 45.7003 40.4608 45.8525 40.7451C46.0048 41.0294 46.0843 41.347 46.084 41.6695V45.0623C46.084 45.3226 45.9814 45.5715 45.7971 45.7547C45.7053 45.8465 43.5158 47.9987 40.2111 47.9998ZM23.5633 26.458H25.5215V28.4166H23.5633V26.458ZM19.6465 26.458H21.6051V28.4166H19.6465V26.458ZM27.4801 26.458H29.4383V28.4166H27.4801V26.458Z" fill="black"/>
</svg>
