<svg width="49" height="49" viewBox="0 0 49 49" fill="none" xmlns="http://www.w3.org/2000/svg">
<path d="M34.7784 26.5586C34.6936 26.3271 34.5397 26.1272 34.3374 25.9862C34.1352 25.8451 33.8944 25.7698 33.6478 25.7703H33.6465C33.4005 25.77 33.1604 25.8452 32.9586 25.9857C32.7568 26.1263 32.603 26.3254 32.518 26.5562L28.4047 37.9332C28.178 38.5605 28.6462 39.2159 29.3046 39.2159C29.6963 39.2159 30.0639 38.9736 30.2047 38.584L31.1574 35.9487H36.109L37.0521 38.5813C37.2303 39.079 37.7787 39.3379 38.2757 39.1596C38.7734 38.9814 39.0322 38.4334 38.854 37.9359L34.7784 26.5586ZM31.8496 34.0347L33.6447 29.0694L35.4235 34.0347H31.8496ZM20.7491 19.3449C21.5658 18.2309 22.0496 16.8569 22.0496 15.3712C22.0496 11.6643 19.0437 8.64844 15.349 8.64844C11.6544 8.64844 8.64844 11.6643 8.64844 15.3712C8.64844 19.078 11.6543 22.0938 15.349 22.0938C16.875 22.0938 18.2826 21.5783 19.4104 20.7132L20.4588 21.7656C20.8319 22.1401 21.4378 22.1411 21.8123 21.7682C22.1867 21.3951 22.1879 20.7891 21.8149 20.4147L20.7491 19.3449ZM15.349 20.1796C12.7098 20.1796 10.5625 18.0226 10.5625 15.3711C10.5625 12.7196 12.7098 10.5624 15.349 10.5624C17.9882 10.5624 20.1355 12.7196 20.1355 15.3711C20.1364 16.291 19.8726 17.1918 19.3756 17.9659L18.1401 16.7256C17.7671 16.3512 17.1611 16.3501 16.7866 16.723C16.4122 17.0961 16.4109 17.702 16.784 18.0765L18.0447 19.3421C17.2764 19.8701 16.348 20.1796 15.349 20.1796Z" fill="black"/>
<path d="M49 31.3572C49 21.7837 40.2612 14.4311 30.7155 16.2646C31.2245 7.41546 24.1687 0 15.3711 0C6.89551 0 0 6.89551 0 15.3711C0 19.8663 1.93416 24.0764 5.32492 27.004L4.80985 31.9579C4.79256 32.1241 4.81913 32.292 4.8869 32.4448C4.95468 32.5977 5.0613 32.7301 5.19616 32.8289C5.33101 32.9276 5.48939 32.9894 5.65553 33.0079C5.82166 33.0265 5.98976 33.0012 6.14309 32.9346L12.0308 30.3768C14.0882 30.8327 16.2171 30.8623 18.2863 30.4636C17.7734 39.3452 24.8629 46.7283 33.6289 46.7283C34.7542 46.7283 35.8763 46.6055 36.9694 46.3629L42.857 48.9208C43.0103 48.9874 43.1784 49.0127 43.3446 48.9941C43.5107 48.9755 43.6691 48.9138 43.8039 48.815C43.9388 48.7162 44.0454 48.5838 44.1132 48.431C44.181 48.2782 44.2075 48.1103 44.1902 47.944L43.675 42.9898C47.0657 40.0627 49 35.8527 49 31.3572ZM12.1665 28.4433C11.9635 28.3937 11.7499 28.412 11.5583 28.4952L6.88306 30.5262L7.28138 26.695C7.29791 26.5363 7.27444 26.3759 7.21311 26.2284C7.15178 26.081 7.05454 25.9513 6.93025 25.8511C3.74247 23.2801 1.91406 19.4603 1.91406 15.3711C1.91406 7.95083 7.95082 1.91406 15.3711 1.91406C22.7913 1.91406 28.8281 7.95083 28.8281 15.3711C28.8281 22.7913 22.7913 28.8281 15.3711 28.8281C14.2914 28.8283 13.2155 28.6991 12.1665 28.4433ZM42.0696 41.8369C41.9453 41.9371 41.848 42.0668 41.7867 42.2142C41.7254 42.3616 41.7019 42.522 41.7184 42.6808L42.1169 46.5123L37.4416 44.4812C37.2499 44.3979 37.0362 44.3797 36.8331 44.4293C35.7843 44.6853 34.7085 44.8145 33.6289 44.8142C25.7007 44.8142 19.4141 37.9417 20.2464 29.9492C25.4462 28.2057 29.4139 23.7529 30.4657 18.2757C31.5016 18.026 32.5634 17.8999 33.6289 17.9001C41.0492 17.9001 47.0859 23.9369 47.0859 31.3571C47.0859 35.4465 45.2576 39.2662 42.0696 41.8369Z" fill="black"/>
</svg>
