<svg width="51" height="51" viewBox="0 0 51 51" fill="none" xmlns="http://www.w3.org/2000/svg">
<path d="M18.7183 33.1659H42.8317C43.262 33.1659 43.6047 32.8232 43.6047 32.3929V31.1338C43.6047 30.9904 43.5091 27.6037 40.9989 26.8466C40.5527 26.7112 40.0028 26.4801 39.4131 26.1773C39.3016 26.1215 39.198 26.0657 39.0944 26.0099C39.7558 25.0457 40.1463 23.7548 40.1463 22.5355C40.1463 20.3202 38.7836 18.9496 36.6002 18.9496C34.4088 18.9496 33.0541 20.3282 33.0541 22.5355C33.0541 23.7548 33.4445 25.0457 34.1059 26.0099C33.9944 26.0657 33.8988 26.1215 33.7792 26.1852C33.1736 26.496 32.6477 26.7191 32.1855 26.8546C31.9544 26.9263 31.7392 27.0299 31.532 27.1495C31.1973 26.8387 30.783 26.5837 30.2809 26.4323C29.7789 26.2809 29.1733 26.0259 28.5358 25.6991C28.3923 25.6274 28.2489 25.5477 28.1134 25.476C28.8545 24.4321 29.2928 23.0137 29.2928 21.667C29.2928 19.3002 27.8425 17.834 25.4997 17.834C23.1569 17.834 21.7066 19.3002 21.7066 21.667C21.7066 23.0057 22.1448 24.4321 22.8859 25.476C22.7505 25.5477 22.607 25.6195 22.4636 25.6991C21.8261 26.0259 21.2284 26.2809 20.7184 26.4323C20.2164 26.5837 19.802 26.8387 19.4673 27.1495C19.2602 27.0299 19.045 26.9263 18.8059 26.8546C18.3597 26.7271 17.8098 26.496 17.2122 26.1852C17.1006 26.1295 16.997 26.0737 16.8855 26.0179C17.5469 25.0537 17.9373 23.7627 17.9373 22.5435C17.9373 20.3282 16.5747 18.9576 14.3912 18.9576C12.1998 18.9576 10.8452 20.3362 10.8452 22.5435C10.8452 23.7627 11.2356 25.0537 11.897 26.0179C11.7934 26.0737 11.6819 26.1295 11.5783 26.1852C10.9647 26.496 10.4308 26.7271 9.98453 26.8546C7.49031 27.6116 7.38672 30.9904 7.38672 31.1498V32.3929C7.38672 32.8232 7.72937 33.1659 8.15969 33.1659H18.7183ZM36.6002 20.4955C37.9469 20.4955 38.6003 21.1649 38.6003 22.5355C38.6003 24.217 37.5723 25.994 36.6002 25.994C35.628 25.994 34.6 24.217 34.6 22.5355C34.6 21.1649 35.2534 20.4955 36.6002 20.4955ZM32.6317 28.3288C33.1736 28.1695 33.7952 27.9065 34.4805 27.5559C34.7673 27.4124 35.0223 27.269 35.2614 27.1415C35.6678 27.3885 36.1141 27.5399 36.6002 27.5399C37.0863 27.5399 37.5325 27.3965 37.9389 27.1415C38.17 27.269 38.433 27.4124 38.7119 27.5559C39.182 27.7949 39.8833 28.1296 40.5606 28.3288C41.9631 28.7512 42.0588 31.1418 42.0588 31.1498V31.6199H33.0541V31.0223C33.0541 30.9346 33.0063 29.6277 32.4325 28.4165C32.5042 28.3846 32.56 28.3527 32.6317 28.3288ZM25.4997 19.3799C26.9898 19.3799 27.7469 20.1529 27.7469 21.667C27.7469 23.5635 26.6153 25.492 25.4997 25.492C24.3841 25.492 23.2525 23.5635 23.2525 21.667C23.2525 20.1449 24.0095 19.3799 25.4997 19.3799ZM21.1647 27.9065C21.9138 27.6834 22.6628 27.3248 23.1648 27.0698C23.4836 26.9104 23.7784 26.743 24.0414 26.5996C24.4797 26.8785 24.9738 27.0379 25.4997 27.0379C26.0256 27.0379 26.5197 26.8785 26.958 26.5996C27.197 26.7351 27.4919 26.8945 27.8345 27.0698C28.3366 27.3248 29.0936 27.6834 29.8347 27.9065C31.4284 28.3846 31.5161 31.0302 31.5161 31.0382V31.6199H19.4833V31.0541C19.4913 31.0302 19.5709 28.3846 21.1647 27.9065ZM14.3992 20.4955C15.7459 20.4955 16.3994 21.1649 16.3994 22.5355C16.3994 24.217 15.3714 25.994 14.3992 25.994C13.427 25.994 12.3991 24.217 12.3991 22.5355C12.3991 21.1649 13.0525 20.4955 14.3992 20.4955ZM8.93266 31.1657C8.93266 31.1418 9.03625 28.7512 10.4228 28.3288C10.9647 28.1695 11.5703 27.9145 12.2795 27.5559C12.5584 27.4124 12.8214 27.269 13.0525 27.1415C13.4589 27.3885 13.9052 27.532 14.3912 27.532C14.8773 27.532 15.3236 27.3885 15.73 27.1415C15.9611 27.269 16.2241 27.4124 16.503 27.5559C17.1883 27.9065 17.8178 28.1695 18.3597 28.3288C18.4314 28.3527 18.4952 28.3846 18.5589 28.4165C17.9852 29.6357 17.9373 30.9426 17.9373 31.0382V31.6199H8.93266V31.1657Z" fill="black"/>
<path d="M45.5419 14.3438C45.4426 14.1642 45.276 14.0313 45.0787 13.9746C44.8814 13.9178 44.6697 13.9417 44.4901 14.041C44.3104 14.1403 44.1776 14.307 44.1208 14.5042C44.064 14.7015 44.0879 14.9132 44.1872 15.0929C48.8091 23.3963 47.3429 33.8991 40.6172 40.6247C34.7363 46.5057 25.9229 48.4022 18.1932 45.5972L21.2452 44.5533C21.6516 44.4179 21.8668 43.9796 21.7233 43.5732C21.6911 43.477 21.64 43.3881 21.573 43.3118C21.5061 43.2355 21.4246 43.1733 21.3334 43.1288C21.2422 43.0843 21.143 43.0584 21.0417 43.0526C20.9404 43.0468 20.8389 43.0612 20.7432 43.0951L15.8743 44.7605C15.6751 44.8322 15.5077 44.9837 15.4201 45.1749C15.3324 45.3741 15.3324 45.5972 15.4121 45.7885L17.4282 50.5219C17.5557 50.8168 17.8426 50.9921 18.1374 50.9921C18.265 50.9918 18.3905 50.9599 18.5028 50.8992C18.615 50.8386 18.7105 50.7511 18.7808 50.6446C18.851 50.538 18.8938 50.4158 18.9053 50.2887C18.9167 50.1616 18.8966 50.0337 18.8466 49.9163L17.6115 47.0237C20.1535 47.956 22.8071 48.4102 25.4527 48.4102C31.4293 48.4102 37.3261 46.0913 41.7169 41.7085C48.9286 34.5047 50.4985 23.2449 45.5419 14.3438ZM10.3758 10.3833C16.2647 4.49443 25.0702 2.60584 32.7999 5.41084L29.7638 6.44678C29.3574 6.58224 29.1422 7.02053 29.2857 7.42693C29.3521 7.62071 29.4923 7.78045 29.6758 7.87146C29.8594 7.96247 30.0714 7.97741 30.2658 7.91303L35.1347 6.24756C35.3419 6.17584 35.5013 6.02443 35.589 5.83318C35.6766 5.63396 35.6766 5.41084 35.5969 5.21162L33.5808 0.478181C33.4135 0.0877123 32.9593 -0.0955689 32.5688 0.0717748C32.1783 0.239119 31.9951 0.693337 32.1624 1.08381L33.3976 3.98443C25.0941 0.948337 15.6193 2.9724 9.29208 9.29959C2.07239 16.5033 0.502551 27.7552 5.45911 36.6563C5.55901 36.8354 5.72564 36.9677 5.92267 37.0244C6.11971 37.0811 6.33118 37.0577 6.51099 36.9591C6.88552 36.7519 7.02099 36.2818 6.80583 35.9072C2.18396 27.6038 3.65021 17.109 10.3758 10.3833Z" fill="black"/>
</svg>
