<?xml version="1.0" encoding="UTF-8"?>
<!-- Generator: Adobe Illustrator 19.0.1, SVG Export Plug-In . SVG Version: 6.00 Build 0)  -->
<svg
   xmlns:dc="http://purl.org/dc/elements/1.1/"
   xmlns:cc="http://creativecommons.org/ns#"
   xmlns:rdf="http://www.w3.org/1999/02/22-rdf-syntax-ns#"
   xmlns:svg="http://www.w3.org/2000/svg"
   xmlns="http://www.w3.org/2000/svg"
   version="1.1"
   x="0px"
   y="0px"
   viewBox="0 0 200 200"

   xml:space="preserve"
   id="svg3457">
	<g
     id="Create-and-Build"><g
       id="g3462"><path
         d="m 79,134.9 -30.2,30.1 -15.1,0 0,-15 30.2,-30.2 15.1,15.1 z m -28.8,22.2 -8.5,-8.5 -3.3,3.3 0,3.9 4.6,0 0,4.6 3.9,0 3.3,-3.3 z M 65.1,126 c -0.2,0 -0.4,0.1 -0.6,0.3 l -19.6,19.6 c -0.2,0.2 -0.3,0.4 -0.3,0.6 0,0.5 0.3,0.8 0.8,0.8 0.2,0 0.4,-0.1 0.6,-0.3 l 19.6,-19.6 c 0.2,-0.2 0.3,-0.4 0.3,-0.6 0,-0.5 -0.4,-0.8 -0.8,-0.8 z m 22.2,0.5 -6,6 -15.1,-15.1 6,-6 c 0.8,-0.9 2,-1.4 3.3,-1.4 1.2,0 2.4,0.5 3.3,1.4 l 8.5,8.5 c 0.8,0.9 1.3,2.1 1.3,3.3 0,1.2 -0.5,2.5 -1.3,3.3 z"
         id="path3464"
         pencil="path3464"
         style="fill:#fff" /><path
         d="m 97.9,115.6 c -1.2,1.2 -2.9,1.9 -4.7,1.9 -1.8,0 -3.5,-0.7 -4.7,-1.9 L 83,110 c -1.2,-1.2 -2,-2.9 -2,-4.7 0,-1.8 0.7,-3.5 2,-4.7 l 35.3,-35.3 c 2.7,6.8 8.1,12.2 14.9,14.9 L 97.9,115.6 Z M 96.6,98.7 c -1.8,0 -3.3,1.5 -3.3,3.3 0,1.8 1.5,3.3 3.3,3.3 1.8,0 3.3,-1.5 3.3,-3.3 0,-1.8 -1.5,-3.3 -3.3,-3.3 z M 165,63.1 c -3.3,9.2 -12.1,15.6 -22,15.6 -12.8,0 -23.2,-10.4 -23.2,-23.2 0,-12.8 10.4,-23.2 23.2,-23.2 3.8,0 8.7,1.1 11.9,3.3 0.5,0.4 0.8,0.8 0.8,1.5 0,0.6 -0.4,1.1 -0.8,1.5 l -15.2,8.8 0,11.6 10,5.6 c 1.7,-1 13.8,-8.6 14.8,-8.6 1,0 1.7,0.8 1.7,1.8 0,1.5 -0.6,3.7 -1.2,5.3 z"
         id="wrench"
         style="fill:#fff" />


				 <path
         stroke-miterlimit="10"
         d="m 34.5,112.8 c 0,-0.5 0,-1.2 0,-2.2 0,-0.5 0.1,-1 0.1,-1.6 0.1,-0.6 0.1,-1.2 0.2,-1.8 0.2,-1.3 0.4,-2.8 0.7,-4.3 0.2,-0.8 0.4,-1.6 0.6,-2.4 0.3,-0.8 0.5,-1.7 0.8,-2.5 0.6,-1.7 1.3,-3.5 2.2,-5.3 0.9,-1.8 1.9,-3.5 3,-5.2 1.2,-1.7 2.4,-3.3 3.8,-4.8 1.4,-1.5 2.8,-2.9 4.3,-4.2 1.5,-1.3 3,-2.4 4.6,-3.4 1.6,-0.9 3.1,-1.8 4.6,-2.5 0.7,-0.4 1.5,-0.6 2.2,-0.9 0.7,-0.3 1.4,-0.5 2.1,-0.7 1.3,-0.4 2.5,-0.7 3.6,-1 0.5,-0.1 1,-0.2 1.5,-0.3 0.4,-0.1 0.8,-0.1 1.2,-0.2 0,0 0.1,0 0.1,0 L 71.6,80.8 91.9,58 66.7,44.3 68.1,55.2 c -0.2,0.1 -0.5,0.2 -0.8,0.3 -0.6,0.2 -1.2,0.4 -1.8,0.7 -0.6,0.3 -1.3,0.6 -2,0.9 -1.4,0.6 -2.9,1.4 -4.6,2.4 -0.8,0.5 -1.6,1 -2.5,1.6 -0.8,0.6 -1.7,1.2 -2.6,1.8 -1.7,1.3 -3.4,2.8 -5.1,4.4 -1.7,1.6 -3.3,3.4 -4.7,5.3 -1.5,1.9 -2.8,3.9 -4.1,6 -1.2,2.1 -2.3,4.2 -3.1,6.4 -0.9,2.2 -1.6,4.3 -2.1,6.4 -0.5,2.1 -0.9,4.2 -1.2,6.1 -0.1,1 -0.2,1.9 -0.3,2.8 0,0.9 -0.1,1.8 -0.1,2.6 0,1.7 0.1,3.2 0.2,4.5 0.1,0.7 0.1,1.3 0.2,1.8 0.1,0.6 0.2,1.1 0.3,1.5 0.1,0.9 0.3,1.6 0.4,2.1 0.1,0.5 0.2,0.7 0.2,0.7 0,0 0.1,-0.2 0.1,-0.7 z"
         id="top-arrow"
         style="fill:none;stroke:#fff;stroke-width:2;stroke-miterlimit:10" >
			 	</path>

				 <path
         stroke-miterlimit="10"
         d="m 146.2,116.7 c -0.2,0.8 -0.4,1.6 -0.6,2.4 -0.3,0.8 -0.5,1.7 -0.8,2.5 -0.6,1.7 -1.4,3.5 -2.2,5.3 -0.9,1.8 -1.9,3.5 -3,5.2 -1.2,1.7 -2.4,3.3 -3.8,4.8 -1.4,1.5 -2.8,2.9 -4.3,4.2 -1.5,1.3 -3.1,2.4 -4.6,3.4 -1.6,0.9 -3.1,1.8 -4.6,2.5 -0.7,0.4 -1.5,0.6 -2.2,0.9 -0.7,0.3 -1.4,0.5 -2,0.7 -1.3,0.4 -2.5,0.7 -3.6,1 -0.5,0.1 -1,0.2 -1.5,0.3 -0.4,0.1 -0.8,0.1 -1.2,0.2 0,0 -0.1,0 -0.1,0 l -1.5,-11.3 -20.4,22.9 25.2,13.7 -1.4,-10.9 c 0.2,-0.1 0.5,-0.2 0.8,-0.3 0.5,-0.2 1.2,-0.4 1.8,-0.7 0.6,-0.3 1.3,-0.6 2,-0.9 1.4,-0.6 2.9,-1.4 4.6,-2.4 0.8,-0.5 1.6,-1 2.5,-1.6 0.8,-0.6 1.7,-1.2 2.6,-1.8 1.7,-1.3 3.4,-2.8 5.1,-4.4 1.6,-1.6 3.3,-3.4 4.7,-5.3 1.5,-1.9 2.8,-3.9 4.1,-6 1.2,-2.1 2.2,-4.2 3.1,-6.4 0.9,-2.2 1.6,-4.3 2.1,-6.4 0.5,-2.1 0.9,-4.2 1.2,-6.1 0.1,-1 0.2,-1.9 0.3,-2.8 0,-0.9 0.1,-1.8 0.1,-2.6 0,-1.7 -0.1,-3.2 -0.2,-4.5 -0.1,-0.7 -0.1,-1.3 -0.2,-1.8 -0.1,-0.6 -0.2,-1.1 -0.3,-1.5 -0.1,-0.9 -0.3,-1.6 -0.4,-2.1 -0.1,-0.5 -0.2,-0.8 -0.2,-0.8 0,0 0,0.3 0,0.8 0,0.5 0,1.2 0,2.2 0,0.5 -0.1,1 -0.1,1.6 -0.1,0.6 -0.1,1.2 -0.2,1.8 -0.3,1.2 -0.5,2.6 -0.8,4.2 z"
         id="bottom-arrow"

         style="fill:none;stroke:#fff;stroke-width:2;stroke-miterlimit:10" /></g></g>
 </svg>
