<?xml version="1.0" encoding="utf-8"?>
<svg version="1.1" xmlns="http://www.w3.org/2000/svg" xmlns:xlink="http://www.w3.org/1999/xlink" x="0px" y="0px" viewBox="0 0 200 200" enable-background="new 0 0 200 200" xml:space="preserve">
<g id="Discovery-and-Strategy">
	<g>
		<g>
			<path fill="none" stroke="#fff" stroke-width="3" stroke-miterlimit="10" d="M100.8,140.4c-0.5,0.1-12.6-0.1-13.2,0
				c-10.3,0.1-7.7-7.7-9.3-12.3c-0.3-0.8-2-6.9-9.5-20.9c-23.6-40.8,4-67.7,31.7-67.7c26.9,0,55.4,26.4,31.4,67.9
				c-0.2,0.4-5.4,8.9-7.9,18.1c-2,7.5-0.2,15-10.1,14.9C113.4,140.2,101.4,140.4,100.8,140.4"/>
		</g>
	</g>
	<path fill="#fff" d="M116.9,144.8c0,0.7-0.4,1.2-1,1.2l-30.7,1.5c-0.6,0-1-0.5-1.1-1.1l0,0c0-0.7,0.4-1.2,1-1.2l30.7-1.5
		C116.4,143.7,116.8,144.2,116.9,144.8L116.9,144.8z"/>
	<path fill="#fff" d="M116.9,150.1c0,0.7-0.4,1.2-1,1.2l-30.7,1.5c-0.6,0-1-0.5-1.1-1.1l0,0c0-0.7,0.4-1.2,1-1.2l30.7-1.5
		C116.4,148.9,116.8,149.4,116.9,150.1L116.9,150.1z"/>
	<path fill="#fff" d="M116.9,155.3c0,0.7-0.4,1.2-1,1.2l-30.7,1.5c-0.6,0-1-0.5-1.1-1.1l0,0c0-0.7,0.4-1.2,1-1.2l30.7-1.5
		C116.4,154.2,116.8,154.7,116.9,155.3L116.9,155.3z"/>
	<polyline fill="#fff" points="114.6,161 114.6,166 106.3,173.5 95.2,173.5 85.3,166 85.3,161 	"/>
	<g>
		<polygon fill="#fff" points="97.5,30 100.7,20.6 104,30 		"/>
		<polygon fill="#fff" points="113.9,33 120.6,25.6 120,35.5 		"/>
		<polygon fill="#fff" points="80.9,35.5 80.3,25.6 86.9,33 		"/>
		<polygon fill="#fff" points="66.3,47.6 62,38.6 71,42.9 		"/>
		<polygon fill="#fff" points="130.5,42.9 139.5,38.6 135.1,47.6 		"/>
	</g>
	<path fill="#fff" d="M85.4,85.9h-3.3c-2.4,0-4.7-1.2-4.7-3.9c0-2-0.1-8.6,3-8.6c0.5,0,3,2.1,6.3,2.1c1.1,0,2.2-0.2,3.2-0.6
		c-0.1,0.5-0.1,1.1-0.1,1.6c0,2.2,0.7,4.4,2,6.2C89.3,82.8,87,83.9,85.4,85.9z M86.7,73.4c-3.4,0-6.2-2.8-6.2-6.2
		c0-3.4,2.8-6.2,6.2-6.2c3.4,0,6.2,2.8,6.2,6.2C93,70.7,90.2,73.4,86.7,73.4z M111.3,104.5H90.1c-3.9,0-6.5-2.4-6.5-6.3
		c0-5.5,1.3-13.9,8.4-13.9c0.8,0,3.8,3.4,8.7,3.4c4.9,0,7.9-3.4,8.7-3.4c7.1,0,8.4,8.4,8.4,13.9
		C117.8,102.2,115.2,104.5,111.3,104.5z M100.7,85.9c-5.1,0-9.3-4.2-9.3-9.3c0-5.1,4.2-9.3,9.3-9.3c5.1,0,9.3,4.2,9.3,9.3
		C110.1,81.7,105.9,85.9,100.7,85.9z M114.7,73.4c-3.4,0-6.2-2.8-6.2-6.2c0-3.4,2.8-6.2,6.2-6.2c3.4,0,6.2,2.8,6.2,6.2
		C120.9,70.7,118.1,73.4,114.7,73.4z M119.3,85.9h-3.3c-1.6-1.9-3.9-3-6.4-3.1c1.3-1.8,2-4,2-6.2c0-0.5,0-1.1-0.1-1.6
		c1,0.4,2.1,0.6,3.2,0.6c3.3,0,5.8-2.1,6.3-2.1c3.1,0,3,6.6,3,8.6C124,84.7,121.8,85.9,119.3,85.9z"/>
</g>
</svg>
