<?xml version="1.0" encoding="iso-8859-1"?>
<!-- Generator: Adobe Illustrator 19.0.0, SVG Export Plug-In . SVG Version: 6.00 Build 0)  -->
<svg xmlns="http://www.w3.org/2000/svg" xmlns:xlink="http://www.w3.org/1999/xlink" version="1.1" id="Capa_1" x="0px" y="0px" viewBox="0 0 496 496" style="enable-background:new 0 0 496 496;" xml:space="preserve" width="512px" height="512px">
<g>
	<g>
		<path d="M432,272.472v-95.976c0-20.944-13.368-38.776-32-45.544V112c0-13.232-10.768-24-24-24h-73.36    C294.904,38.248,251.888,0,200,0S105.096,38.248,97.36,88H24C10.768,88,0,98.768,0,112v256c0,13.232,10.768,24,24,24h96v32H88v16    h224v-16h-32v-32h72v32c0,39.704,32.296,72,72,72c39.704,0,72-32.296,72-72v-80C496,307,467.944,276.464,432,272.472z     M400,148.656c9.528,5.672,16,15.968,16,27.84v95.968c-5.56,0.616-10.896,1.92-16,3.728V148.656z M200,16c48.52,0,88,39.48,88,88    c0,21.688-7.96,42.52-22.408,58.664l11.92,10.672C294.592,154.256,304,129.632,304,104h72c4.416,0,8,3.584,8,8v16.024    c-0.168,0-0.328-0.024-0.496-0.024c-17.36,0-33.496,9.368-42.112,24.44L268.72,279.624C262.944,289.728,252.136,296,240.496,296    C222.576,296,208,281.424,208,263.504v-55.808c19.024-1.44,37.096-8,52.672-19.216l-9.344-12.984    C236.312,186.288,218.56,192,200,192c-48.52,0-88-39.48-88-88S151.48,16,200,16z M264,424H136v-32h128V424z M352,376H24    c-4.416,0-8-3.584-8-8v-24h336V376z M16,327.992V112c0-4.416,3.584-8,8-8h72c0,54.64,42.392,99.48,96,103.592v55.904    C192,290.24,213.76,312,240.496,312c17.36,0,33.496-9.368,42.112-24.44l72.672-127.184C361.056,150.272,371.864,144,383.504,144    c0.168,0,0.328,0.048,0.496,0.048v140.12c-15.016,10.072-26,25.656-30.144,43.824H16z M480,424c0,30.872-25.128,56-56,56    s-56-25.128-56-56v-40h112V424z M480,368H368v-24c0-30.872,25.128-56,56-56s56,25.128,56,56V368z" fill="#FFFFFF"/>
	</g>
</g>
<g>
	<g>
		<path d="M448,424c0,13.232-10.768,24-24,24v16c22.056,0,40-17.944,40-40H448z" fill="#FFFFFF"/>
	</g>
</g>
<g>
	<g>
		<rect x="416" y="304" width="16" height="32" fill="#FFFFFF"/>
	</g>
</g>
<g>
	<g>
		<path d="M200,96c-8.824,0-16-7.176-16-16s7.176-16,16-16c8.824,0,16,7.176,16,16h16c0-14.872-10.232-27.288-24-30.864V32h-16    v17.136C178.232,52.712,168,65.128,168,80c0,17.648,14.352,32,32,32c8.824,0,16,7.176,16,16s-7.176,16-16,16    c-8.824,0-16-7.176-16-16h-16c0,14.872,10.232,27.288,24,30.864V176h16v-17.136c13.768-3.576,24-15.992,24-30.864    C232,110.352,217.648,96,200,96z" fill="#FFFFFF"/>
	</g>
</g>
<g>
	<g>
		<rect x="128" y="96" width="16" height="16" fill="#FFFFFF"/>
	</g>
</g>
<g>
	<g>
		<rect x="256" y="96" width="16" height="16" fill="#FFFFFF"/>
	</g>
</g>
<g>
</g>
<g>
</g>
<g>
</g>
<g>
</g>
<g>
</g>
<g>
</g>
<g>
</g>
<g>
</g>
<g>
</g>
<g>
</g>
<g>
</g>
<g>
</g>
<g>
</g>
<g>
</g>
<g>
</g>
</svg>
