<?xml version="1.0" encoding="iso-8859-1"?>
<!-- Generator: Adobe Illustrator 19.0.0, SVG Export Plug-In . SVG Version: 6.00 Build 0)  -->
<svg xmlns="http://www.w3.org/2000/svg" xmlns:xlink="http://www.w3.org/1999/xlink" version="1.1" id="Capa_1" x="0px" y="0px" viewBox="0 0 512 512" style="enable-background:new 0 0 512 512;" xml:space="preserve" width="512px" height="512px">
<g>
	<g>
		<path d="M497,361H15c-8.284,0-15,6.716-15,15v121c0,8.284,6.716,15,15,15h482c8.284,0,15-6.716,15-15V376    C512,367.716,505.284,361,497,361z M482,482h-31v-46c0-8.284-6.716-15-15-15s-15,6.716-15,15v46h-30v-16c0-8.284-6.716-15-15-15    s-15,6.716-15,15v16h-30v-46c0-8.284-6.716-15-15-15s-15,6.716-15,15v46h-30v-16c0-8.284-6.716-15-15-15s-15,6.716-15,15v16h-30    v-46c0-8.284-6.716-15-15-15s-15,6.716-15,15v46h-30v-16c0-8.284-6.716-15-15-15s-15,6.716-15,15v16H91v-46    c0-8.284-6.716-15-15-15s-15,6.716-15,15v46H30v-91h452V482z" fill="#FFFFFF"/>
	</g>
</g>
<g>
	<g>
		<path d="M497,91c8.284,0,15-6.716,15-15V15c0-8.284-6.716-15-15-15h-61c-8.284,0-15,6.716-15,15v15H91V15c0-8.284-6.716-15-15-15    H15C6.716,0,0,6.716,0,15v61c0,8.284,6.716,15,15,15h15v150H15c-8.284,0-15,6.716-15,15v60c0,8.284,6.716,15,15,15h61    c8.284,0,15-6.716,15-15v-15c11.691,0,318.934,0,330,0v15c0,8.284,6.716,15,15,15h61c8.284,0,15-6.716,15-15v-60    c0-8.284-6.716-15-15-15h-15V91H497z M30,30h31v31H30V30z M61,301H30v-30h31V301z M166,271l60-80l60,80H166z M323.5,271    l-52.662-70.215L316,133.042L407.972,271H323.5z M426.367,244.509l-97.886-146.83c-5.919-8.877-19.02-8.913-24.962,0    l-51.769,77.654L238,157c-6.001-8.001-18.011-7.985-24,0l-85.5,114H91v-15c0-8.284-6.716-15-15-15H60V91h16    c8.284,0,15-6.716,15-15V60h330v16c0,8.284,6.716,15,15,15h16v150h-16C432.331,241,428.974,242.321,426.367,244.509z M482,301h-31    v-30h31V301z M451,61V30h31v31H451z" fill="#FFFFFF"/>
	</g>
</g>
<g>
	<g>
		<path d="M136,91c-24.813,0-45,20.187-45,45s20.187,45,45,45s45-20.187,45-45S160.813,91,136,91z M136,151c-8.271,0-15-6.729-15-15    s6.729-15,15-15s15,6.729,15,15S144.271,151,136,151z" fill="#FFFFFF"/>
	</g>
</g>
<g>
</g>
<g>
</g>
<g>
</g>
<g>
</g>
<g>
</g>
<g>
</g>
<g>
</g>
<g>
</g>
<g>
</g>
<g>
</g>
<g>
</g>
<g>
</g>
<g>
</g>
<g>
</g>
<g>
</g>
</svg>
