<?xml version="1.0" encoding="iso-8859-1"?>
<!-- Generator: Adobe Illustrator 19.0.0, SVG Export Plug-In . SVG Version: 6.00 Build 0)  -->
<svg xmlns="http://www.w3.org/2000/svg" xmlns:xlink="http://www.w3.org/1999/xlink" version="1.1" id="Capa_1" x="0px" y="0px" viewBox="0 0 490 490" style="enable-background:new 0 0 490 490;" xml:space="preserve" width="512px" height="512px">
<g>
	<path d="M0,245c0,135.311,109.69,245,245,245s245-109.689,245-245C490,109.69,380.31,0,245,0S0,109.69,0,245z M245,30.625   c118.207,0,214.375,96.169,214.375,214.375c0,118.207-96.168,214.375-214.375,214.375c-118.206,0-214.375-96.168-214.375-214.375   C30.625,126.794,126.794,30.625,245,30.625z" fill="#FFFFFF"/>
	<circle cx="177.77" cy="104.751" r="30.631" fill="#FFFFFF"/>
	<path d="M146.725,142.418c0,0-31.045,0.414-31.045,28.975c0,28.561,0,35.184,0,35.184s60.432,0,60.641,0L146.725,142.418z" fill="#FFFFFF"/>
	<path d="M239.858,206.578c0,0,0-6.624,0-35.184c0-28.561-31.044-28.975-31.044-28.975l-29.596,64.159H239.858z" fill="#FFFFFF"/>
	<polygon points="177.77,142.419 156.452,142.419 177.77,189.606 199.087,142.419  " fill="#FFFFFF"/>
	<circle cx="330.895" cy="257.876" r="30.631" fill="#FFFFFF"/>
	<path d="M268.805,324.519c0,28.561,0,35.184,0,35.184s60.432,0,60.641,0l-29.596-64.159   C299.85,295.543,268.805,295.957,268.805,324.519z" fill="#FFFFFF"/>
	<path d="M392.983,359.703c0,0,0-6.624,0-35.184c0-28.561-31.044-28.975-31.044-28.975l-29.596,64.159H392.983z" fill="#FFFFFF"/>
	<polygon points="330.895,295.544 309.577,295.544 330.895,342.731 352.212,295.544  " fill="#FFFFFF"/>
	<path d="M324.194,204.018l2.213,3.768h33.975l-5.383-11.021c-16.255-33.272-46.177-57.183-82.095-65.602l-9.406-2.198v31.298   l5.638,1.54C292.358,168.144,311.917,183.143,324.194,204.018z" fill="#FFFFFF"/>
	<path d="M153.125,250.344c0-4.157,0.374-8.194,0.912-12.202l1.166-8.673h-31.059l-0.778,6.789   c-0.523,4.621-0.867,9.301-0.867,14.086c0,62.686,48.898,116.249,111.315,121.932l8.344,0.763v-30.625l-6.849-0.718   C188.46,336.761,153.125,297.493,153.125,250.344z" fill="#FFFFFF"/>
</g>
<g>
</g>
<g>
</g>
<g>
</g>
<g>
</g>
<g>
</g>
<g>
</g>
<g>
</g>
<g>
</g>
<g>
</g>
<g>
</g>
<g>
</g>
<g>
</g>
<g>
</g>
<g>
</g>
<g>
</g>
</svg>
