<?xml version="1.0" encoding="iso-8859-1"?>
<!-- Generator: Adobe Illustrator 19.0.0, SVG Export Plug-In . SVG Version: 6.00 Build 0)  -->
<svg xmlns="http://www.w3.org/2000/svg" xmlns:xlink="http://www.w3.org/1999/xlink" version="1.1" id="Capa_1" x="0px" y="0px" viewBox="0 0 512.035 512.035" style="enable-background:new 0 0 512.035 512.035;" xml:space="preserve" width="512px" height="512px">
<g transform="translate(0 -1)">
	<g>
		<g>
			<path d="M469.351,77.835h-96.044C352.975,31.172,306.917,1,256.017,1c-50.9,0-96.958,30.172-117.29,76.835H42.684     C19.131,77.863,0.045,96.949,0.017,120.501v281.6c0.028,23.553,19.114,42.639,42.667,42.667h136.533v17.067h-59.733     c-2.263-0.001-4.434,0.898-6.035,2.499c-1.6,1.6-2.499,3.771-2.499,6.035v34.133c-0.001,2.263,0.898,4.434,2.499,6.035     c1.6,1.6,3.771,2.499,6.035,2.499h273.067c2.263,0.001,4.434-0.898,6.035-2.499c1.6-1.6,2.499-3.771,2.499-6.035v-34.133     c0.001-2.263-0.898-4.434-2.499-6.035c-1.6-1.6-3.771-2.499-6.035-2.499h-59.733v-17.067h136.533     c23.553-0.028,42.639-19.114,42.667-42.667v-281.6C511.99,96.949,492.903,77.863,469.351,77.835z M177.567,50.589L177.567,50.589     c40.556-40.56,105.344-43.517,149.426-6.819c44.082,36.698,52.919,100.949,20.383,148.186     c-5.565,7.547-11.85,14.535-18.767,20.867c-6.683,6.231-12.887,12.957-18.558,20.121c-12.988,17.166-21.857,37.087-25.923,58.225     h-2.51v-48.354l23.892-31.858c1.108-1.477,1.708-3.274,1.708-5.121v-42.667c0.001-2.263-0.898-4.434-2.499-6.035     c-1.6-1.6-3.771-2.499-6.035-2.499h-25.6c-4.713,0-8.533,3.82-8.533,8.533s3.821,8.533,8.533,8.533h17.067v31.287l-23.892,31.858     c-1.108,1.477-1.708,3.274-1.708,5.121v51.2h-17.067v-51.2c-0.001-1.847-0.6-3.644-1.708-5.121l-23.892-31.858v-31.287h17.067     c4.713,0,8.533-3.82,8.533-8.533s-3.82-8.533-8.533-8.533h-25.6c-2.263-0.001-4.434,0.898-6.035,2.499     c-1.6,1.6-2.499,3.771-2.499,6.035v42.667c0.001,1.847,0.6,3.644,1.708,5.121l23.892,31.858v48.354h-2.51     c-4.066-21.138-12.935-41.059-25.923-58.225c-5.671-7.164-11.875-13.89-18.558-20.121c-6.925-6.341-13.219-13.339-18.792-20.896     C134.308,147.857,139.747,88.423,177.567,50.589z M213.351,359.435v-51.2h85.333v51.2H213.351z M281.617,376.501l-7.675,10.233     c-3.232,4.29-8.287,6.819-13.658,6.833h-8.533c-5.37-0.014-10.425-2.541-13.658-6.829l-7.675-10.238H281.617z M17.084,120.501     c0.015-14.132,11.468-25.585,25.6-25.6h90.031c-10.183,36.463-3.632,75.566,17.877,106.721c6.185,8.464,13.185,16.3,20.9,23.396     c6.07,5.645,11.71,11.734,16.875,18.217c10.8,14.275,18.366,30.727,22.176,48.217c-8.212,1.365-14.238,8.458-14.259,16.783v51.2     h-179.2V120.501z M384.017,478.902v17.067h-256v-17.067H384.017z M196.284,461.835v-17.067h119.467v17.067H196.284z      M494.951,402.102c-0.015,14.132-11.468,25.585-25.6,25.6H42.684c-14.132-0.015-25.585-11.468-25.6-25.6v-25.6h192l15.358,20.483     c6.469,8.568,16.572,13.619,27.308,13.65h8.533c10.737-0.031,20.841-5.083,27.308-13.654l15.358-20.479h192V402.102z      M494.951,359.435h-179.2v-51.2c-0.02-8.324-6.047-15.418-14.258-16.783c3.809-17.49,11.376-33.942,22.175-48.217     c5.165-6.483,10.805-12.572,16.875-18.217c7.707-7.087,14.699-14.913,20.875-23.367c21.529-31.157,28.089-70.274,17.902-106.75     h90.031c14.132,0.015,25.585,11.468,25.6,25.6V359.435z" fill="#6c6c6c"/>
			<path d="M273.084,325.301h-34.133c-4.713,0-8.533,3.821-8.533,8.533c0,4.713,3.82,8.533,8.533,8.533h34.133     c4.713,0,8.533-3.821,8.533-8.533C281.617,329.122,277.797,325.301,273.084,325.301z" fill="#6c6c6c"/>
			<path d="M42.684,265.568h34.133c4.713,0,8.533-3.82,8.533-8.533s-3.82-8.533-8.533-8.533H42.684c-4.713,0-8.533,3.82-8.533,8.533     S37.971,265.568,42.684,265.568z" fill="#6c6c6c"/>
			<path d="M125.519,297.203c1.6-1.6,2.499-3.771,2.499-6.035c0.001-2.263-0.898-4.434-2.499-6.035     c-1.6-1.6-3.771-2.499-6.035-2.499H85.351c-4.713,0-8.533,3.82-8.533,8.533s3.82,8.533,8.533,8.533h34.133     C121.747,299.702,123.918,298.803,125.519,297.203z" fill="#6c6c6c"/>
			<path d="M162.151,248.501h-51.2c-4.713,0-8.533,3.82-8.533,8.533s3.82,8.533,8.533,8.533h51.2c4.713,0,8.533-3.82,8.533-8.533     S166.864,248.501,162.151,248.501z" fill="#6c6c6c"/>
			<path d="M76.817,316.768H42.684c-4.713,0-8.533,3.82-8.533,8.533s3.82,8.533,8.533,8.533h34.133c4.713,0,8.533-3.82,8.533-8.533     S81.53,316.768,76.817,316.768z" fill="#6c6c6c"/>
			<path d="M162.151,316.768h-51.2c-4.713,0-8.533,3.82-8.533,8.533s3.82,8.533,8.533,8.533h51.2c4.713,0,8.533-3.82,8.533-8.533     S166.864,316.768,162.151,316.768z" fill="#6c6c6c"/>
			<path d="M42.684,299.702h8.533c4.713,0,8.533-3.82,8.533-8.533s-3.82-8.533-8.533-8.533h-8.533c-4.713,0-8.533,3.82-8.533,8.533     S37.971,299.702,42.684,299.702z" fill="#6c6c6c"/>
			<path d="M162.151,282.635h-8.533c-4.713,0-8.533,3.82-8.533,8.533s3.821,8.533,8.533,8.533h8.533c4.713,0,8.533-3.82,8.533-8.533     S166.864,282.635,162.151,282.635z" fill="#6c6c6c"/>
			<path d="M349.884,265.568h34.133c4.713,0,8.533-3.82,8.533-8.533s-3.82-8.533-8.533-8.533h-34.133     c-4.713,0-8.533,3.82-8.533,8.533S345.171,265.568,349.884,265.568z" fill="#6c6c6c"/>
			<path d="M432.719,297.203c1.6-1.6,2.499-3.771,2.499-6.035c0.001-2.263-0.898-4.434-2.499-6.035     c-1.6-1.6-3.771-2.499-6.035-2.499h-34.133c-4.713,0-8.533,3.82-8.533,8.533s3.821,8.533,8.533,8.533h34.133     C428.947,299.702,431.118,298.803,432.719,297.203z" fill="#6c6c6c"/>
			<path d="M469.351,248.501h-51.2c-4.713,0-8.533,3.82-8.533,8.533s3.82,8.533,8.533,8.533h51.2c4.713,0,8.533-3.82,8.533-8.533     S474.064,248.501,469.351,248.501z" fill="#6c6c6c"/>
			<path d="M384.017,316.768h-34.133c-4.713,0-8.533,3.82-8.533,8.533s3.82,8.533,8.533,8.533h34.133     c4.713,0,8.533-3.82,8.533-8.533S388.73,316.768,384.017,316.768z" fill="#6c6c6c"/>
			<path d="M469.351,316.768h-51.2c-4.713,0-8.533,3.82-8.533,8.533s3.82,8.533,8.533,8.533h51.2c4.713,0,8.533-3.82,8.533-8.533     S474.064,316.768,469.351,316.768z" fill="#6c6c6c"/>
			<path d="M349.884,299.702h8.533c4.713,0,8.533-3.82,8.533-8.533s-3.82-8.533-8.533-8.533h-8.533c-4.713,0-8.533,3.82-8.533,8.533     S345.171,299.702,349.884,299.702z" fill="#6c6c6c"/>
			<path d="M469.351,282.635h-8.533c-4.713,0-8.533,3.82-8.533,8.533s3.821,8.533,8.533,8.533h8.533c4.713,0,8.533-3.82,8.533-8.533     S474.064,282.635,469.351,282.635z" fill="#6c6c6c"/>
		</g>
	</g>
</g>
<g>
</g>
<g>
</g>
<g>
</g>
<g>
</g>
<g>
</g>
<g>
</g>
<g>
</g>
<g>
</g>
<g>
</g>
<g>
</g>
<g>
</g>
<g>
</g>
<g>
</g>
<g>
</g>
<g>
</g>
</svg>
