<?xml version="1.0" encoding="iso-8859-1"?>
<!-- Generator: Adobe Illustrator 19.0.0, SVG Export Plug-In . SVG Version: 6.00 Build 0)  -->
<svg xmlns="http://www.w3.org/2000/svg" xmlns:xlink="http://www.w3.org/1999/xlink" version="1.1" id="Capa_1" x="0px" y="0px" viewBox="0 0 496 496" style="enable-background:new 0 0 496 496;" xml:space="preserve" width="512px" height="512px">
<g>
	<g>
		<g>
			<path d="M384,128c35.288,0,64-28.712,64-64S419.288,0,384,0c-35.288,0-64,28.712-64,64S348.712,128,384,128z M384,16     c26.472,0,48,21.528,48,48s-21.528,48-48,48s-48-21.528-48-48S357.528,16,384,16z" fill="#6c6c6c"/>
			<path d="M440,112v16c13.232,0,24,10.768,24,24v88h-24v-80h-16v80h-80v-80h-16v80h-24v-88c0-13.232,10.768-24,24-24v-16     c-22.056,0-40,17.944-40,40v104h192V152C480,129.944,462.056,112,440,112z" fill="#6c6c6c"/>
			<path d="M56,208h160c22.056,0,40-17.944,40-40V98.96L313.392,32H56c-22.056,0-40,17.944-40,40v96C16,190.056,33.944,208,56,208z      M32,72c0-13.232,10.768-24,24-24h222.608L240,93.04V168c0,13.232-10.768,24-24,24H56c-13.232,0-24-10.768-24-24V72z" fill="#6c6c6c"/>
			<rect x="208" y="160" width="16" height="16" fill="#6c6c6c"/>
			<rect x="48" y="160" width="144" height="16" fill="#6c6c6c"/>
			<rect x="48" y="128" width="176" height="16" fill="#6c6c6c"/>
			<rect x="80" y="96" width="144" height="16" fill="#6c6c6c"/>
			<rect x="48" y="96" width="16" height="16" fill="#6c6c6c"/>
			<rect x="48" y="64" width="176" height="16" fill="#6c6c6c"/>
			<path d="M48,304c0,35.288,28.712,64,64,64s64-28.712,64-64c0-35.288-28.712-64-64-64C76.712,240,48,268.712,48,304z M160,304     c0,26.472-21.528,48-48,48s-48-21.528-48-48s21.528-48,48-48S160,277.528,160,304z" fill="#6c6c6c"/>
			<path d="M168,352v16c13.232,0,24,10.768,24,24v88h-24v-80h-16v80H72v-80H56v80H32v-88c0-13.232,10.768-24,24-24v-16     c-22.056,0-40,17.944-40,40v104h192V392C208,369.944,190.056,352,168,352z" fill="#6c6c6c"/>
			<path d="M440,272H182.608L240,338.96V408c0,22.056,17.944,40,40,40h160c22.056,0,40-17.944,40-40v-96     C480,289.944,462.056,272,440,272z M464,408c0,13.232-10.768,24-24,24H280c-13.232,0-24-10.768-24-24v-74.96L217.392,288H440     c13.232,0,24,10.768,24,24V408z" fill="#6c6c6c"/>
			<rect x="272" y="400" width="144" height="16" fill="#6c6c6c"/>
			<rect x="432" y="400" width="16" height="16" fill="#6c6c6c"/>
			<rect x="272" y="368" width="176" height="16" fill="#6c6c6c"/>
			<rect x="272" y="336" width="16" height="16" fill="#6c6c6c"/>
			<rect x="304" y="336" width="144" height="16" fill="#6c6c6c"/>
			<rect x="272" y="304" width="176" height="16" fill="#6c6c6c"/>
		</g>
	</g>
</g>
<g>
</g>
<g>
</g>
<g>
</g>
<g>
</g>
<g>
</g>
<g>
</g>
<g>
</g>
<g>
</g>
<g>
</g>
<g>
</g>
<g>
</g>
<g>
</g>
<g>
</g>
<g>
</g>
<g>
</g>
</svg>
