<?xml version="1.0" encoding="utf-8"?>
<!-- Generator: Adobe Illustrator 19.0.1, SVG Export Plug-In . SVG Version: 6.00 Build 0)  -->
<svg version="1.1" xmlns="http://www.w3.org/2000/svg" xmlns:xlink="http://www.w3.org/1999/xlink" x="0px" y="0px"
	 viewBox="0 0 200 200" enable-background="new 0 0 200 200" xml:space="preserve">
<g id="Lauch-and-Market">
	<g>
		<g>
			<rect x="107.8" y="114.3" fill="#fff" width="12" height="48.2"/>
			<rect x="125.9" y="126.4" fill="#fff" width="12" height="36.1"/>
			<rect x="143.9" y="108.3" fill="#fff" width="12" height="54.2"/>
			<rect x="89.7" y="138.4" fill="#fff" width="12" height="24.1"/>
			<polygon fill="#fff" stroke="#FFFFFF" stroke-width="3" stroke-miterlimit="10" points="77.7,168.5 77.7,102.3 71.7,102.3
				71.7,174.5 168,174.5 168,168.5 			"/>
		</g>
		<path id="rocket" fill="#fff" stroke="#FFFFFF" stroke-width="4" stroke-miterlimit="10" d="M101.5,95.4c-3.6,3.4-7.7,6.8-12.1,10.3
			l-1.9,22.9c-0.1,0.6-0.5,1.2-1,1.5l-23.6,12.9c-0.3,0.2-0.6,0.2-1,0.2c-0.5,0-1-0.2-1.4-0.6l-3.8-4c-0.5-0.6-0.6-1.3-0.4-2
			l5.6-16.6l-16.5-17.5l-16.8,4.7c-0.2,0.1-0.4,0.1-0.5,0c-0.5,0-1-0.2-1.4-0.6l-3.8-4c-0.6-0.7-0.7-1.7-0.2-2.4l14.2-22.9
			c0.4-0.5,1-0.9,1.6-0.9l23-0.6c3.8-4.2,7.4-8.1,11-11.5C88,50,99.7,45.5,120.7,46.1c1.1,0,2,0.9,2,2
			C122.2,68.2,116.2,81.4,101.5,95.4z M103,59.2c-3.2-0.1-5.9,2.4-6,5.6c-0.1,3.2,2.4,5.9,5.6,6c3.2,0.1,5.9-2.4,6-5.6
			C108.8,61.9,106.2,59.3,103,59.2z"/>
	</g>
</g>
</svg>
