<?xml version="1.0" encoding="iso-8859-1"?>
<!-- Generator: Adobe Illustrator 19.0.0, SVG Export Plug-In . SVG Version: 6.00 Build 0)  -->
<svg xmlns="http://www.w3.org/2000/svg" xmlns:xlink="http://www.w3.org/1999/xlink" version="1.1" id="Capa_1" x="0px" y="0px" viewBox="0 0 512.001 512.001" style="enable-background:new 0 0 512.001 512.001;" xml:space="preserve" width="512px" height="512px">
<g>
	<g>
		<path d="M155.802,118.277c-3.506-4.253-9.824-4.838-14.087-1.347c-0.016,0.014-0.102,0.084-0.118,0.098    c-4.241,3.519-4.801,9.776-1.295,14.028c1.971,2.391,4.831,3.622,7.714,3.622c2.246,0,4.506-0.747,6.373-2.275    c0.016-0.014,0.102-0.084,0.118-0.098C158.748,128.786,159.308,122.529,155.802,118.277z" fill="#6c6c6c"/>
	</g>
</g>
<g>
	<g>
		<path d="M256.001,76c-27.176,0-53.296,5.907-77.632,17.559c-4.981,2.385-7.086,8.356-4.702,13.338    c2.385,4.98,8.356,7.086,13.337,4.701C208.624,101.248,231.838,96,256.001,96c88.224,0,160,71.775,160,160    c0,18.894-3.258,37.383-9.684,54.954c-1.897,5.187,0.77,10.93,5.957,12.826c1.133,0.414,2.293,0.611,3.434,0.611    c4.079,0,7.91-2.515,9.393-6.568c7.233-19.779,10.9-40.578,10.9-61.823C436.001,156.748,355.254,76,256.001,76z" fill="#6c6c6c"/>
	</g>
</g>
<g>
	<g>
		<path d="M508.702,312.717l-11.541-10.42c-13.077-11.805-20.576-28.68-20.576-46.297s7.5-34.492,20.576-46.298l11.541-10.419    c3.142-2.837,4.157-7.345,2.536-11.254l-26.734-64.453c-1.621-3.907-5.515-6.378-9.747-6.156l-15.543,0.794    c-17.576,0.909-34.805-5.727-47.252-18.175c-12.448-12.447-19.072-29.67-18.174-47.252l0.793-15.543    c0.216-4.224-2.249-8.126-6.155-9.747L323.972,0.763c-3.91-1.618-8.417-0.606-11.254,2.536L302.299,14.84    c-11.806,13.076-28.68,20.576-46.298,20.576c-17.618,0-34.492-7.5-46.298-20.576L199.284,3.299    c-2.837-3.143-7.345-4.156-11.254-2.536l-64.453,26.734c-3.906,1.621-6.371,5.523-6.155,9.747l0.793,15.543    c0.898,17.582-5.727,34.805-18.174,47.252c-12.448,12.448-29.675,19.083-47.252,18.175l-15.543-0.794    c-4.235-0.208-8.127,2.249-9.747,6.156L0.764,188.03c-1.622,3.909-0.606,8.417,2.536,11.254l11.541,10.42    c13.077,11.805,20.576,28.68,20.576,46.297s-7.5,34.492-20.576,46.298L3.3,312.717c-3.142,2.837-4.157,7.345-2.536,11.254    l26.734,64.453c1.62,3.906,5.518,6.372,9.747,6.156l15.543-0.794c17.579-0.908,34.805,5.726,47.252,18.175    c12.448,12.447,19.072,29.67,18.174,47.252l-0.793,15.543c-0.216,4.224,2.249,8.126,6.155,9.747l64.453,26.734    c3.911,1.619,8.417,0.606,11.254-2.536l10.419-11.541c11.806-13.076,28.68-20.576,46.298-20.576s34.492,7.5,46.298,20.576    l10.419,11.541c1.937,2.146,4.652,3.299,7.425,3.299c1.288,0,2.589-0.249,3.829-0.763l64.453-26.734    c3.906-1.621,6.371-5.523,6.155-9.747l-0.793-15.543c-0.898-17.582,5.727-34.805,18.175-47.252    c12.447-12.448,29.668-19.082,47.251-18.175l15.543,0.794c4.235,0.228,8.127-2.249,9.747-6.156l26.734-64.453    C512.86,320.062,511.845,315.554,508.702,312.717z M468.733,374.246l-8.499-0.435c-23.222-1.178-45.972,7.563-62.415,24.007    c-16.442,16.442-25.192,39.191-24.005,62.414l0.434,8.499l-51.416,21.326l-5.688-6.3c-15.59-17.27-37.876-27.174-61.143-27.174    c-23.267,0-45.552,9.904-61.143,27.174l-5.688,6.3l-51.416-21.326l0.434-8.499c1.187-23.223-7.563-45.972-24.006-62.414    s-39.192-25.203-62.415-24.007l-8.499,0.435L21.943,322.83l6.3-5.688c17.27-15.591,27.174-37.877,27.174-61.143    c0-23.266-9.904-45.552-27.174-61.143l-6.3-5.688l21.327-51.416l8.499,0.435c23.231,1.184,45.972-7.563,62.415-24.007    c16.442-16.442,25.192-39.191,24.005-62.414l-0.434-8.499l51.416-21.326l5.688,6.3c15.59,17.27,37.876,27.174,61.143,27.174    c23.267,0,45.552-9.904,61.143-27.174l5.688-6.3l51.416,21.326l-0.434,8.499c-1.187,23.223,7.563,45.972,24.005,62.414    c16.443,16.442,39.192,25.196,62.415,24.007l8.499-0.435l21.327,51.416l-6.3,5.688c-17.27,15.591-27.174,37.877-27.174,61.143    c0,23.266,9.904,45.552,27.174,61.143l6.3,5.688L468.733,374.246z" fill="#6c6c6c"/>
	</g>
</g>
<g>
	<g>
		<path d="M351.548,352.073l-36.671-36.672c-12.35-12.351-31.364-14.581-46.237-5.422l-18.573,11.436l-59.48-59.48l11.437-18.572    c9.159-14.873,6.929-33.887-5.422-46.237l-36.672-36.672c-14.639-14.638-38.46-14.641-53.101,0.001    c-35.616,35.616-35.616,93.567,0,129.184l115.535,115.535c17.253,17.253,40.193,26.755,64.592,26.755s47.339-9.502,64.592-26.755    C366.188,390.534,366.188,366.713,351.548,352.073z M337.406,391.03c-3.004,3.004-6.239,5.689-9.648,8.076l-35.431-35.431    c-3.905-3.903-10.237-3.904-14.142,0c-3.905,3.905-3.906,10.237,0,14.143l30.68,30.681c-6.989,2.246-14.356,3.43-21.909,3.43    c-19.058,0-36.974-7.421-50.45-20.897L120.971,275.495c-19.533-19.533-25.33-47.664-17.431-72.322l34.146,34.146    c1.953,1.952,4.512,2.929,7.071,2.929c2.559,0,5.119-0.977,7.071-2.929c3.905-3.905,3.905-10.237,0-14.143l-38.924-38.924    c2.367-3.392,5.042-6.633,8.066-9.657c3.421-3.421,7.915-5.132,12.409-5.132c4.493,0,8.987,1.711,12.408,5.132l36.672,36.672    c5.772,5.771,6.814,14.657,2.534,21.608l-15.579,25.3c-2.429,3.943-1.831,9.039,1.444,12.314l70.654,70.654    c3.274,3.273,8.37,3.871,12.314,1.443l25.3-15.578c6.952-4.28,15.837-3.237,21.609,2.534l36.671,36.671    C344.248,373.056,344.248,384.188,337.406,391.03z" fill="#6c6c6c"/>
	</g>
</g>
<g>
	<g>
		<path d="M296.205,246h-30.063c0.324-7.021,6.138-12.635,13.238-12.635c14.791,0,26.825-12.033,26.825-26.824    c0-14.791-12.034-26.825-26.825-26.825h-23.252c-5.523,0-10,4.478-10,10c0,5.522,4.477,10,10,10h23.252    c3.763,0,6.825,3.062,6.825,6.825s-3.062,6.825-6.825,6.825c-18.335,0-33.252,14.917-33.252,33.252V256c0,5.522,4.477,10,10,10    h40.077c5.523,0,10-4.478,10-10C306.205,250.478,301.728,246,296.205,246z" fill="#6c6c6c"/>
	</g>
</g>
<g>
	<g>
		<path d="M370.244,179.963c-5.523,0-10,4.478-10,10v23.349h-20.077v-23.083c0-5.522-4.477-10-10-10s-10,4.478-10,10v33.083    c0,5.522,4.477,10,10,10h30.077v22.815c0,5.522,4.477,10,10,10s10-4.478,10-10v-66.164    C380.244,184.441,375.767,179.963,370.244,179.963z" fill="#6c6c6c"/>
	</g>
</g>
<g>
</g>
<g>
</g>
<g>
</g>
<g>
</g>
<g>
</g>
<g>
</g>
<g>
</g>
<g>
</g>
<g>
</g>
<g>
</g>
<g>
</g>
<g>
</g>
<g>
</g>
<g>
</g>
<g>
</g>
</svg>
