<?xml version="1.0" encoding="iso-8859-1"?>
<!-- Generator: Adobe Illustrator 19.0.0, SVG Export Plug-In . SVG Version: 6.00 Build 0)  -->
<svg xmlns="http://www.w3.org/2000/svg" xmlns:xlink="http://www.w3.org/1999/xlink" version="1.1" id="Layer_1" x="0px" y="0px" viewBox="0 0 512 512" style="enable-background:new 0 0 512 512;" xml:space="preserve" width="512px" height="512px">
<g>
	<g>
		<g>
			<path d="M469.333,21.333H42.667C19.135,21.333,0,40.469,0,64v298.667c0,23.531,19.135,42.667,42.667,42.667h149.362     c-0.46,17.052-3.728,44.306-15.893,57.104c-4.469,4.708-9.604,6.896-16.135,6.896c-5.896,0-10.667,4.771-10.667,10.667     c0,5.896,4.771,10.667,10.667,10.667h192c5.896,0,10.667-4.771,10.667-10.667c0-5.896-4.771-10.667-10.667-10.667     c-6.531,0-11.667-2.188-16.135-6.896c-12.165-12.798-15.434-40.052-15.893-57.104h149.362c23.531,0,42.667-19.135,42.667-42.667     V64C512,40.469,492.865,21.333,469.333,21.333z M197.729,469.333c12.881-19.749,15.374-48.188,15.695-64h85.151     c0.322,15.813,2.814,44.251,15.695,64H197.729z M490.667,362.667c0,11.76-9.573,21.333-21.333,21.333H42.667     c-11.76,0-21.333-9.573-21.333-21.333V320h469.333V362.667z M490.667,298.667H21.333V64c0-11.76,9.573-21.333,21.333-21.333     h426.667c11.76,0,21.333,9.573,21.333,21.333V298.667z" fill="#757575"/>
			<circle cx="256" cy="352" r="21.333" fill="#757575"/>
			<path d="M256,85.333c-7.901,0-14.536,4.517-18.224,10.919C122.872,98.81,78.518,158.111,75.017,216.378     C68.557,220.049,64,226.723,64,234.667C64,246.427,73.573,256,85.333,256c11.76,0,21.333-9.573,21.333-21.333     c0-7.652-4.275-14.07-10.346-17.836c2.243-29.951,21.13-96.565,141.81-99.227C241.889,123.704,248.326,128,256,128     c11.76,0,21.333-9.573,21.333-21.333C277.333,94.906,267.76,85.333,256,85.333z" fill="#757575"/>
			<path d="M444,194.333L337.333,109c-3.219-2.573-7.614-3.063-11.292-1.281c-3.688,1.781-6.042,5.51-6.042,9.615V256     c0,4.531,2.865,8.563,7.135,10.063c1.156,0.406,2.354,0.604,3.531,0.604c3.177,0,6.26-1.427,8.333-4l39.458-49.333h58.875     c4.531,0,8.563-2.865,10.063-7.135C448.896,201.927,447.531,197.167,444,194.333z M373.333,192c-3.24,0-6.302,1.469-8.333,4     l-23.667,29.594v-86.063L406.927,192H373.333z" fill="#757575"/>
		</g>
	</g>
</g>
<g>
</g>
<g>
</g>
<g>
</g>
<g>
</g>
<g>
</g>
<g>
</g>
<g>
</g>
<g>
</g>
<g>
</g>
<g>
</g>
<g>
</g>
<g>
</g>
<g>
</g>
<g>
</g>
<g>
</g>
</svg>
