<svg width="51" height="50" viewBox="0 0 51 50" fill="none" xmlns="http://www.w3.org/2000/svg">
<path d="M25.5 15.0293C23.528 15.0293 21.6003 15.6141 19.9606 16.7097C18.3209 17.8053 17.0429 19.3625 16.2883 21.1844C15.5336 23.0063 15.3362 25.0111 15.7209 26.9452C16.1056 28.8793 17.0552 30.6559 18.4497 32.0504C19.8441 33.4448 21.6207 34.3944 23.5548 34.7791C25.4889 35.1638 27.4937 34.9664 29.3156 34.2117C31.1375 33.4571 32.6947 32.1791 33.7903 30.5394C34.8859 28.8998 35.4707 26.972 35.4707 25C35.4674 22.3566 34.4158 19.8225 32.5466 17.9534C30.6775 16.0842 28.1434 15.0327 25.5 15.0293Z" fill="black"/>
<path d="M39.8164 15.915C42.3254 15.915 44.3594 13.8811 44.3594 11.3721C44.3594 8.86306 42.3254 6.8291 39.8164 6.8291C37.3074 6.8291 35.2734 8.86306 35.2734 11.3721C35.2734 13.8811 37.3074 15.915 39.8164 15.915Z" fill="black"/>
<path fill-rule="evenodd" clip-rule="evenodd" d="M2 25C2 12.3176 12.3181 2 25 2C29.1334 2 33.0156 3.09602 36.3714 5.01271C35.3631 5.62513 34.5217 6.4851 33.9317 7.50827C31.2506 6.1337 28.2142 5.35764 25 5.35764C14.1693 5.35764 5.35764 14.1693 5.35764 25C5.35764 35.8307 14.1693 44.6424 25 44.6424C35.8307 44.6424 44.6424 35.8307 44.6424 24.9995C44.6424 22.2659 44.081 19.661 43.0676 17.2938C44.133 16.7736 45.0468 15.9907 45.7246 15.0295C47.1824 18.0473 48 21.43 48 25C48 37.6824 37.6824 48 25 48C12.3181 48 2 37.6824 2 25Z" fill="black"/>
</svg>
