<svg width="50" height="50" viewBox="0 0 50 50" fill="none" xmlns="http://www.w3.org/2000/svg">
<path d="M41.8004 1C40.2558 1.01319 38.756 1.52053 37.5205 2.44775C36.2851 3.37497 35.379 4.67336 34.9348 6.1528C33.8023 5.64378 32.6288 5.23138 31.4268 4.92C31.4188 4.92 31.4108 4.9144 31.4028 4.9136C26.8013 3.72364 21.9403 4.0319 17.526 5.7936C17.5044 5.8016 17.4844 5.8088 17.4636 5.8184C16.7043 6.11983 15.9621 6.46274 15.2404 6.8456C14.917 5.2108 14.0406 3.73722 12.7585 2.67263C11.4764 1.60805 9.86678 1.01739 8.2004 1C6.26911 1.02489 4.42654 1.81472 3.07679 3.19626C1.72705 4.5778 0.980322 6.43826 1.00039 8.3696C1.00039 11.2496 3.42599 14.8616 5.4124 17.336C4.20115 19.9797 3.52523 22.837 3.42359 25.7432C3.42359 25.7632 3.41319 25.78 3.41319 25.8C3.41319 25.82 3.42039 25.8264 3.42119 25.84C3.41319 26.0936 3.40039 26.3456 3.40039 26.6C3.40039 32.5408 5.76039 38.2384 9.9612 42.4392C14.162 46.64 19.8595 49 25.8004 49C31.7412 49 37.4388 46.64 41.6396 42.4392C45.8404 38.2384 48.2004 32.5408 48.2004 26.6C48.1782 22.9307 47.2727 19.3206 45.5604 16.0752C47.2868 13.7296 49.0004 10.7952 49.0004 8.3696C49.0205 6.43826 48.2738 4.5778 46.924 3.19626C45.5743 1.81472 43.7317 1.02489 41.8004 1ZM18.6004 7.0872C20.6543 6.33356 22.8141 5.90835 25.0004 5.8272V6.368C25.001 6.51913 24.9588 6.66734 24.8787 6.79547C24.7985 6.9236 24.6838 7.02641 24.5476 7.092L19.7204 8.9352C19.598 8.98814 19.4642 9.00944 19.3314 8.99714C19.1986 8.98484 19.071 8.93933 18.9604 8.8648C18.8494 8.7931 18.7583 8.69463 18.6954 8.57845C18.6325 8.46227 18.5998 8.33212 18.6004 8.2V7.0872ZM8.2004 2.6C9.7074 2.62464 11.1432 3.24582 12.1929 4.32735C13.2426 5.40889 13.8207 6.86253 13.8004 8.3696C13.8004 11.3832 10.25 15.7968 8.7228 17.5552C8.65762 17.6296 8.5773 17.6893 8.4872 17.7301C8.39711 17.771 8.29932 17.7921 8.2004 17.7921C8.10147 17.7921 8.00368 17.771 7.91359 17.7301C7.82349 17.6893 7.74317 17.6296 7.678 17.5552C6.1508 15.8 2.60039 11.3832 2.60039 8.3696C2.58007 6.86253 3.15815 5.40889 4.20789 4.32735C5.25764 3.24582 6.69339 2.62464 8.2004 2.6ZM8.2004 19.4C8.52934 19.3986 8.85414 19.3265 9.15272 19.1884C9.4513 19.0504 9.71667 18.8497 9.9308 18.6C10.8229 17.5775 11.6614 16.5094 12.4428 15.4H15.9844C16.1096 15.3995 16.2336 15.4237 16.3493 15.4714C16.4651 15.519 16.5702 15.5891 16.6587 15.6777C16.7472 15.7662 16.8174 15.8713 16.865 15.9871C16.9127 16.1028 16.9369 16.2268 16.9364 16.352C16.9354 16.5805 16.8535 16.8013 16.7052 16.9752L12.886 21.4256C12.4029 21.995 12.1373 22.7173 12.1364 23.464C12.136 23.8712 11.974 24.2617 11.686 24.5496C11.3981 24.8376 11.0076 24.9996 10.6004 25H5.0676C5.22553 22.8299 5.72949 20.699 6.5604 18.688C6.77171 18.911 7.0259 19.089 7.30772 19.2114C7.58954 19.3337 7.89317 19.3979 8.2004 19.4ZM7.3748 36.2336L8.9404 32.708C9.11304 32.3185 9.39508 31.9876 9.75226 31.7554C10.1094 31.5232 10.5264 31.3997 10.9524 31.4C11.5379 31.4012 12.0993 31.6331 12.5148 32.0456L12.7308 32.2616C13.1471 32.6819 13.657 32.9977 14.2188 33.1832L18.0116 34.4472C18.6489 34.6586 19.2033 35.0653 19.5963 35.6098C19.9892 36.1542 20.2006 36.8086 20.2004 37.48V40.36C20.2017 40.6712 20.1255 40.9779 19.9788 41.2523C19.832 41.5267 19.6192 41.7603 19.3596 41.932C18.8789 42.2493 18.4847 42.6813 18.2125 43.1889C17.9403 43.6966 17.7987 44.264 17.8004 44.84V45.8C13.3197 43.9187 9.63354 40.5364 7.3748 36.2336ZM25.8004 47.4C23.6272 47.4006 21.4674 47.0591 19.4004 46.388V44.84C19.3991 44.5288 19.4753 44.2221 19.622 43.9477C19.7688 43.6733 19.9816 43.4397 20.2412 43.268C20.7219 42.9507 21.1161 42.5187 21.3883 42.0111C21.6605 41.5034 21.8021 40.936 21.8004 40.36V37.48C21.8012 36.4731 21.4847 35.4915 20.8959 34.6746C20.3071 33.8578 19.4759 33.2472 18.5204 32.9296L14.722 31.664C14.3971 31.5568 14.1024 31.3739 13.862 31.1304L13.646 30.9144C13.2092 30.4785 12.673 30.1553 12.0835 29.9727C11.494 29.7901 10.869 29.7535 10.2623 29.8662C9.65556 29.9789 9.08532 30.2373 8.60069 30.6194C8.11607 31.0014 7.73159 31.4955 7.4804 32.0592L6.486 34.2992C5.50434 31.851 5.00008 29.2377 5.0004 26.6H10.6004C11.4318 26.5989 12.2288 26.2682 12.8167 25.6803C13.4046 25.0924 13.7353 24.2954 13.7364 23.464C13.7368 23.098 13.8669 22.7439 14.1036 22.4648L17.9212 18.0152C18.3168 17.5512 18.5348 16.9618 18.5364 16.352C18.5369 16.0167 18.4713 15.6846 18.3432 15.3748C18.2151 15.0649 18.0272 14.7834 17.7901 14.5463C17.553 14.3092 17.2715 14.1213 16.9616 13.9932C16.6518 13.8651 16.3197 13.7995 15.9844 13.8H13.4804C14.5178 12.2419 15.1701 10.4596 15.3836 8.6C15.9121 8.29493 16.4511 8.0144 17.0004 7.7584V8.2C17.0001 8.59648 17.0984 8.98682 17.2864 9.33592C17.4743 9.68502 17.7461 9.98194 18.0772 10.2C18.4733 10.4609 18.9373 10.6 19.4116 10.6C19.7227 10.6005 20.0307 10.5382 20.3172 10.4168L25.1532 8.5704C25.5822 8.3834 25.9474 8.07558 26.2044 7.68449C26.4614 7.2934 26.599 6.83596 26.6004 6.368V5.8224C27.758 5.86503 28.91 6.00445 30.0444 6.2392L27.0844 11.1816C26.6491 11.8826 26.4983 12.7234 26.6628 13.532C26.8214 14.2958 27.2416 14.9802 27.8509 15.4673C28.4602 15.9544 29.2205 16.2135 30.0004 16.2H33.0004C33.107 16.1997 33.2126 16.2213 33.3105 16.2634C33.4085 16.3055 33.4968 16.3673 33.57 16.4448C33.6534 16.5257 33.7171 16.6247 33.7562 16.7342C33.7953 16.8436 33.8088 16.9605 33.7956 17.076C33.7617 17.2829 33.6538 17.4704 33.4919 17.6036C33.33 17.7368 33.1252 17.8066 32.9156 17.8H30.8356C29.1423 17.7802 27.5068 18.4151 26.2704 19.5723C25.0341 20.7295 24.2925 22.3195 24.2004 24.0104C24.175 24.8667 24.3218 25.7193 24.6321 26.5178C24.9423 27.3163 25.4097 28.0444 26.0065 28.659C26.6034 29.2735 27.3175 29.7619 28.1066 30.0953C28.8957 30.4288 29.7437 30.6004 30.6004 30.6C31.2351 30.6002 31.844 30.8509 32.2948 31.2976C32.5226 31.528 32.7022 31.8014 32.8234 32.1019C32.9445 32.4024 33.0047 32.724 33.0004 33.048V38.16C32.9995 38.7844 33.2047 39.3917 33.5841 39.8876C33.9635 40.3835 34.4959 40.7404 35.0988 40.903C35.7017 41.0655 36.3414 41.0246 36.9186 40.7865C37.4959 40.5485 37.9785 40.1266 38.2916 39.5864L38.7756 38.768C41.1104 35.0015 43.0202 30.9876 44.47 26.8C44.5718 26.5064 44.6023 26.1928 44.559 25.885C44.5156 25.5773 44.3996 25.2843 44.2206 25.0303C44.0416 24.7763 43.8047 24.5685 43.5295 24.4241C43.2543 24.2797 42.9488 24.2029 42.638 24.2C42.4215 24.2026 42.2126 24.1204 42.056 23.9708C41.8995 23.8213 41.8077 23.6164 41.8004 23.4C41.8041 23.189 41.8896 22.9876 42.0388 22.8384C42.188 22.6892 42.3894 22.6037 42.6004 22.6H43.4004C43.7924 22.6033 44.1763 22.489 44.5026 22.2718C44.8289 22.0546 45.0826 21.7445 45.2308 21.3816L45.6508 20.4104C46.6256 23.5235 46.8538 26.8225 46.3169 30.0402C45.78 33.2579 44.493 36.304 42.5602 38.9319C40.6274 41.5599 38.103 43.6959 35.1914 45.167C32.2797 46.6382 29.0626 47.4031 25.8004 47.4ZM44.8404 18.2512L43.7524 20.7672C43.7233 20.8364 43.6743 20.8955 43.6117 20.937C43.549 20.9784 43.4755 21.0003 43.4004 21H42.6004C42.2852 21.0064 41.9744 21.0747 41.6856 21.2012C41.3969 21.3277 41.1359 21.5098 40.9175 21.7372C40.6992 21.9645 40.5277 22.2327 40.413 22.5263C40.2982 22.8199 40.2424 23.1332 40.2488 23.4484C40.2552 23.7636 40.3235 24.0744 40.45 24.3632C40.5765 24.6519 40.7586 24.9129 40.986 25.1313C41.2133 25.3496 41.4815 25.5211 41.7751 25.6358C42.0687 25.7506 42.382 25.8064 42.6972 25.8C42.9284 25.8 43.0172 26.1096 42.954 26.2888C41.5388 30.369 39.6763 34.2801 37.4004 37.9504C37.2172 38.2576 37.0516 38.536 36.906 38.788C36.7978 38.9747 36.6424 39.1295 36.4553 39.237C36.2682 39.3444 36.0561 39.4007 35.8404 39.4C35.5116 39.3998 35.1963 39.2691 34.9638 39.0366C34.7313 38.8041 34.6006 38.4888 34.6004 38.16V33C34.6009 32.4746 34.4978 31.9542 34.297 31.4686C34.0962 30.9831 33.8015 30.5419 33.43 30.1704C33.0585 29.7989 32.6173 29.5042 32.1318 29.3034C31.6462 29.1026 31.1258 28.9995 30.6004 29C29.9576 29.0003 29.3213 28.8715 28.7293 28.6212C28.1372 28.3709 27.6014 28.0043 27.1538 27.543C26.7061 27.0818 26.3556 26.5353 26.1231 25.936C25.8906 25.3368 25.7809 24.6969 25.8004 24.0544C25.8789 22.7801 26.4458 21.5851 27.383 20.7181C28.3203 19.8512 29.5558 19.3791 30.8324 19.4H32.9124C33.522 19.4085 34.113 19.19 34.5705 18.7872C35.0281 18.3843 35.3196 17.8258 35.3884 17.22C35.4179 16.8881 35.3781 16.5536 35.2716 16.2379C35.1651 15.9221 34.9942 15.6319 34.7697 15.3856C34.5452 15.1393 34.2721 14.9423 33.9675 14.8071C33.663 14.6719 33.3336 14.6014 33.0004 14.6H30.0004C29.5937 14.609 29.1962 14.478 28.8745 14.229C28.5528 13.98 28.3264 13.628 28.2332 13.232C28.1481 12.815 28.2245 12.3813 28.4468 12.0184L31.6684 6.6392C32.6828 6.94155 33.6724 7.32161 34.6284 7.776C34.6109 7.97341 34.601 8.17143 34.5988 8.3696C34.5988 11.7944 38.0252 16.252 40.0684 18.604C40.2824 18.8536 40.5478 19.054 40.8465 19.1913C41.1452 19.3287 41.47 19.3998 41.7988 19.3998C42.1276 19.3998 42.4524 19.3287 42.7511 19.1913C43.0498 19.054 43.3152 18.8536 43.5292 18.604C43.8228 18.2664 44.146 17.884 44.482 17.4664C44.61 17.7248 44.7252 17.988 44.8404 18.2512ZM42.322 17.5552C42.2568 17.6296 42.1765 17.6893 42.0864 17.7301C41.9963 17.771 41.8985 17.7921 41.7996 17.7921C41.7007 17.7921 41.6029 17.771 41.5128 17.7301C41.4227 17.6893 41.3424 17.6296 41.2772 17.5552C39.7508 15.8 36.2004 11.3832 36.2004 8.3696C36.2004 7.6342 36.3452 6.906 36.6267 6.22657C36.9081 5.54715 37.3206 4.92981 37.8406 4.4098C38.3606 3.88979 38.978 3.4773 39.6574 3.19587C40.3368 2.91445 41.065 2.7696 41.8004 2.7696C42.5358 2.7696 43.264 2.91445 43.9434 3.19587C44.6229 3.4773 45.2402 3.88979 45.7602 4.4098C46.2802 4.92981 46.6927 5.54715 46.9741 6.22657C47.2556 6.906 47.4004 7.6342 47.4004 8.3696C47.4004 11.3832 43.8492 15.8 42.322 17.5552Z" fill="black" stroke="black"/>
<path d="M6.56325 10.9224C6.64876 10.9852 6.7557 11.0114 6.86056 10.9954C6.96542 10.9793 7.05961 10.9223 7.1224 10.8368L9.4724 7.63681C9.50349 7.59446 9.52594 7.5464 9.53845 7.49538C9.55097 7.44435 9.55331 7.39136 9.54535 7.33943C9.53739 7.2875 9.51927 7.23765 9.49204 7.19272C9.46481 7.14779 9.429 7.10866 9.38665 7.07757C9.3443 7.04648 9.29624 7.02404 9.24521 7.01152C9.19419 6.999 9.1412 6.99666 9.08927 7.00462C9.03733 7.01258 8.98748 7.0307 8.94255 7.05793C8.89762 7.08516 8.85849 7.12097 8.8274 7.16332L6.4774 10.3633C6.44632 10.4056 6.42389 10.4537 6.41138 10.5047C6.39888 10.5557 6.39654 10.6087 6.40452 10.6606C6.41249 10.7125 6.43061 10.7624 6.45785 10.8073C6.48508 10.8522 6.5209 10.8913 6.56325 10.9224ZM10.16 10.92C10.2449 10.9837 10.3515 11.011 10.4566 10.996C10.5616 10.981 10.6563 10.9249 10.72 10.84L11.92 9.24003C11.9719 9.17079 12 9.08658 12 9.00004C12 8.91349 11.9719 8.82928 11.92 8.76004L10.72 7.16007C10.6885 7.11805 10.649 7.08264 10.6038 7.05588C10.5586 7.02912 10.5086 7.01152 10.4566 7.00409C10.4046 6.99666 10.3516 6.99955 10.3007 7.01259C10.2498 7.02562 10.202 7.04855 10.16 7.08007C10.118 7.11159 10.0826 7.15107 10.0558 7.19627C10.029 7.24147 10.0114 7.2915 10.004 7.3435C9.99659 7.3955 9.99948 7.44845 10.0125 7.49933C10.0256 7.55022 10.0485 7.59804 10.08 7.64006L11.1 9.00004L10.08 10.36C10.0163 10.4449 9.98902 10.5516 10.004 10.6566C10.019 10.7616 10.0751 10.8563 10.16 10.92ZM5.28 10.84C5.34365 10.9249 5.43841 10.981 5.54343 10.996C5.64845 11.011 5.75513 10.9837 5.84 10.92C5.92487 10.8563 5.98098 10.7616 5.99598 10.6566C6.01098 10.5516 5.98365 10.4449 5.92 10.36L4.9 9.00004L5.92 7.64006C5.95152 7.59804 5.97445 7.55022 5.98749 7.49933C6.00052 7.44845 6.00341 7.3955 5.99598 7.3435C5.98855 7.2915 5.97095 7.24147 5.94419 7.19627C5.91743 7.15107 5.88202 7.11159 5.84 7.08007C5.79798 7.04855 5.75016 7.02562 5.69927 7.01259C5.64839 6.99955 5.59543 6.99666 5.54343 7.00409C5.49143 7.01152 5.4414 7.02912 5.3962 7.05588C5.351 7.08264 5.31152 7.11805 5.28 7.16007L4.08 8.76004C4.02807 8.82928 4 8.91349 4 9.00004C4 9.08658 4.02807 9.17079 4.08 9.24003L5.28 10.84Z" fill="black"/>
<path d="M39.5633 10.9224C39.6488 10.9852 39.7557 11.0114 39.8606 10.9954C39.9654 10.9793 40.0596 10.9223 40.1224 10.8368L42.4724 7.63681C42.5035 7.59446 42.5259 7.5464 42.5385 7.49538C42.551 7.44435 42.5533 7.39136 42.5453 7.33943C42.5374 7.2875 42.5193 7.23765 42.492 7.19272C42.4648 7.14779 42.429 7.10866 42.3867 7.07757C42.3443 7.04648 42.2962 7.02404 42.2452 7.01152C42.1942 6.999 42.1412 6.99666 42.0893 7.00462C42.0373 7.01258 41.9875 7.0307 41.9425 7.05793C41.8976 7.08516 41.8585 7.12097 41.8274 7.16332L39.4774 10.3633C39.4463 10.4056 39.4239 10.4537 39.4114 10.5047C39.3989 10.5557 39.3965 10.6087 39.4045 10.6606C39.4125 10.7125 39.4306 10.7624 39.4578 10.8073C39.4851 10.8522 39.5209 10.8913 39.5633 10.9224ZM43.16 10.92C43.2449 10.9837 43.3515 11.011 43.4566 10.996C43.5616 10.981 43.6563 10.9249 43.72 10.84L44.92 9.24003C44.9719 9.17079 45 9.08658 45 9.00004C45 8.91349 44.9719 8.82928 44.92 8.76004L43.72 7.16007C43.6885 7.11805 43.649 7.08264 43.6038 7.05588C43.5586 7.02912 43.5086 7.01152 43.4566 7.00409C43.4046 6.99666 43.3516 6.99955 43.3007 7.01259C43.2498 7.02562 43.202 7.04855 43.16 7.08007C43.118 7.11159 43.0826 7.15107 43.0558 7.19627C43.029 7.24147 43.0114 7.2915 43.004 7.3435C42.9966 7.3955 42.9995 7.44845 43.0125 7.49933C43.0256 7.55022 43.0485 7.59804 43.08 7.64006L44.1 9.00004L43.08 10.36C43.0163 10.4449 42.989 10.5516 43.004 10.6566C43.019 10.7616 43.0751 10.8563 43.16 10.92ZM38.28 10.84C38.3437 10.9249 38.4384 10.981 38.5434 10.996C38.6485 11.011 38.7551 10.9837 38.84 10.92C38.9249 10.8563 38.981 10.7616 38.996 10.6566C39.011 10.5516 38.9837 10.4449 38.92 10.36L37.9 9.00004L38.92 7.64006C38.9515 7.59804 38.9744 7.55022 38.9875 7.49933C39.0005 7.44845 39.0034 7.3955 38.996 7.3435C38.9886 7.2915 38.971 7.24147 38.9442 7.19627C38.9174 7.15107 38.882 7.11159 38.84 7.08007C38.798 7.04855 38.7502 7.02562 38.6993 7.01259C38.6484 6.99955 38.5954 6.99666 38.5434 7.00409C38.4914 7.01152 38.4414 7.02912 38.3962 7.05588C38.351 7.08264 38.3115 7.11805 38.28 7.16007L37.08 8.76004C37.0281 8.82928 37 8.91349 37 9.00004C37 9.08658 37.0281 9.17079 37.08 9.24003L38.28 10.84Z" fill="black"/>
</svg>
