<svg width="23" height="24" viewBox="0 0 23 24" fill="none" xmlns="http://www.w3.org/2000/svg">
<path d="M12.0001 22.0837C6.43121 22.0837 1.91675 17.5692 1.91675 12.0003C1.91675 6.43145 6.43121 1.91699 12.0001 1.91699C16.9429 1.91699 21.055 5.47344 21.9172 10.167M7.73821 3.17781C7.82013 5.8447 8.59105 10.2566 11.4939 8.34C15.1225 5.94422 14.3557 6.62419 16.3638 7.03512C17.9703 7.36386 19.3943 6.53943 19.9055 6.08612M3.25559 7.7003C3.31632 9.10754 3.91058 12.2698 5.80178 13.6611C8.16577 15.4002 10.7034 14.2457 8.82247 21.3927M13.413 14.7923L15.234 20.2508C15.5579 21.2217 16.9196 21.253 17.2866 20.2981L17.9488 18.5752C18.0595 18.2872 18.2871 18.0597 18.5751 17.949L20.2979 17.2868C21.2529 16.9198 21.2215 15.558 20.2507 15.2341L14.7922 13.4131C13.9395 13.1287 13.1285 13.9396 13.413 14.7923Z" stroke="#16162E" stroke-width="2" stroke-linecap="round"/>
</svg>
