<svg width="24" height="24" viewBox="0 0 24 24" fill="none" xmlns="http://www.w3.org/2000/svg">
<path d="M11.6248 10.6249C11.0725 10.6249 10.6248 11.0727 10.6248 11.6249C10.6248 12.1772 11.0725 12.6249 11.6248 12.6249V10.6249ZM12.3748 12.6249C12.927 12.6249 13.3748 12.1772 13.3748 11.6249C13.3748 11.0727 12.927 10.6249 12.3748 10.6249V12.6249ZM11.6248 11.3749C11.0725 11.3749 10.6248 11.8227 10.6248 12.3749C10.6248 12.9272 11.0725 13.3749 11.6248 13.3749V11.3749ZM12.3748 13.3749C12.927 13.3749 13.3748 12.9272 13.3748 12.3749C13.3748 11.8227 12.927 11.3749 12.3748 11.3749V13.3749ZM13.8011 3.18005C14.3423 3.28992 14.8701 2.94021 14.98 2.39897C15.0899 1.85772 14.7402 1.32989 14.1989 1.22002L13.8011 3.18005ZM12 12V14C13.1046 14 14 13.1046 14 12H12ZM12 12H10C10 13.1046 10.8954 14 12 14V12ZM12 12V10C10.8954 10 10 10.8954 10 12H12ZM12 12H14C14 10.8954 13.1046 10 12 10V12ZM11.6248 12.6249H12.3748V10.6249H11.6248V12.6249ZM11.6248 13.3749H12.3748V11.3749H11.6248V13.3749ZM16 12C16 14.2091 14.2091 16 12 16V18C15.3137 18 18 15.3137 18 12H16ZM12 16C9.79086 16 8 14.2091 8 12H6C6 15.3137 8.68629 18 12 18V16ZM8 12C8 9.79086 9.79086 8 12 8V6C8.68629 6 6 8.68629 6 12H8ZM12 8C14.2091 8 16 9.79086 16 12H18C18 8.68629 15.3137 6 12 6V8ZM21 12C21 16.9706 16.9706 21 12 21V23C18.0751 23 23 18.0751 23 12H21ZM12 21C7.02944 21 3 16.9706 3 12H1C1 18.0751 5.92487 23 12 23V21ZM3 12C3 7.02944 7.02944 3 12 3V1C5.92487 1 1 5.92487 1 12H3ZM12 3C12.6177 3 13.22 3.06209 13.8011 3.18005L14.1989 1.22002C13.4876 1.07563 12.7521 1 12 1V3ZM19.7966 7.50073C20.5617 8.82349 21 10.359 21 12H23C23 9.99808 22.4643 8.11825 21.5278 6.49927L19.7966 7.50073ZM17 3C17 3.55228 16.5523 4 16 4V6C17.6569 6 19 4.65685 19 3H17ZM16 4C15.4477 4 15 3.55228 15 3H13C13 4.65685 14.3431 6 16 6V4ZM15 3C15 2.44772 15.4477 2 16 2V0C14.3431 0 13 1.34315 13 3H15ZM16 2C16.5523 2 17 2.44772 17 3H19C19 1.34315 17.6569 0 16 0V2Z" fill="#16162E"/>
</svg>
