<svg width="24" height="24" viewBox="0 0 24 24" fill="none" xmlns="http://www.w3.org/2000/svg">
<path d="M11.6248 6.62494H12.3748M11.6248 7.37494H12.3748M6 9C6.66667 9.66667 8.8 11 12 11C15.2 11 17.3333 9.66667 18 9M10 11L9.00115 18.9908C9.00109 18.9913 9.00135 18.9917 9.00178 18.9919L9.00196 18.9919C9.00247 18.9921 9.00304 18.9919 9.00324 18.9914C9.5056 17.6552 10.8026 15 12 15C13.1974 15 14.4944 17.6552 14.9968 18.9914C14.997 18.9919 14.9975 18.9921 14.998 18.9919L14.9982 18.9919C14.9986 18.9917 14.9989 18.9913 14.9989 18.9908L14 11M13 7C13 7.55228 12.5523 8 12 8C11.4477 8 11 7.55228 11 7C11 6.44772 11.4477 6 12 6C12.5523 6 13 6.44772 13 7ZM23 12C23 18.0751 18.0751 23 12 23C5.92487 23 1 18.0751 1 12C1 5.92487 5.92487 1 12 1C18.0751 1 23 5.92487 23 12Z" stroke="#16162E" stroke-width="2" stroke-linecap="round"/>
</svg>
