<svg width="33" height="33" viewBox="0 0 33 33" fill="none" xmlns="http://www.w3.org/2000/svg">
<path d="M11.92 9.2C11.44 9.01333 10.9467 8.84 10.44 8.68C9.96 8.49333 9.48 8.30667 9 8.12C9.18667 7.53333 9.45333 6.89333 9.8 6.2C10.1467 5.48 10.6267 4.81333 11.24 4.2C11.8533 3.58667 12.6267 3.06667 13.56 2.64C14.4933 2.21333 15.64 2 17 2C18.0933 2 19.12 2.21333 20.08 2.64C21.04 3.04 21.8667 3.6 22.56 4.32C23.28 5.01334 23.84 5.84 24.24 6.8C24.64 7.73333 24.84 8.73334 24.84 9.8C24.84 11.2933 24.48 12.6 23.76 13.72C23.0667 14.8133 22.12 15.8133 20.92 16.72C20.5467 16.9867 20.1467 17.2667 19.72 17.56C19.2933 17.8267 18.8933 18.1467 18.52 18.52C18.1467 18.8667 17.84 19.2933 17.6 19.8C17.36 20.28 17.24 20.88 17.24 21.6V24.72H13.88V20.84C13.88 19.9867 14.0133 19.2933 14.28 18.76C14.5467 18.2267 14.9067 17.76 15.36 17.36C15.8133 16.9333 16.32 16.5467 16.88 16.2C17.44 15.8267 18.0267 15.4 18.64 14.92C19.6 14.2 20.3067 13.4133 20.76 12.56C21.2133 11.7067 21.44 10.7867 21.44 9.8C21.44 8.49334 21.0267 7.41333 20.2 6.56C19.4 5.68 18.3333 5.24 17 5.24C15.5067 5.24 14.3867 5.57333 13.64 6.24C12.8933 6.90667 12.32 7.89333 11.92 9.2ZM15.52 31.28C14.9867 31.28 14.5067 31.0933 14.08 30.72C13.6533 30.32 13.44 29.8133 13.44 29.2C13.44 28.5867 13.6533 28.08 14.08 27.68C14.5067 27.28 14.9867 27.08 15.52 27.08C16.0267 27.08 16.4933 27.28 16.92 27.68C17.3467 28.08 17.56 28.5867 17.56 29.2C17.56 29.8133 17.3467 30.32 16.92 30.72C16.4933 31.0933 16.0267 31.28 15.52 31.28Z" fill="#16162E"/>
</svg>
