<svg width="32" height="32" viewBox="0 0 32 32" fill="none" xmlns="http://www.w3.org/2000/svg">
<path d="M19.5277 26.6663C18.5875 27.4961 17.3526 27.9996 16 27.9996C14.6475 27.9996 13.4125 27.4961 12.4724 26.6663M23.9966 17.5741V13.333C23.9966 8.9033 20.4297 5.33301 16 5.33301C11.5703 5.33301 7.95517 8.75109 7.95517 13.333V17.5454C7.95517 18.1896 7.85477 18.8296 7.65781 19.4408L6.67319 22.4961C6.64623 22.5798 6.70644 22.6662 6.79169 22.6662H25.151C25.2411 22.6662 25.3051 22.5783 25.2774 22.4925L24.2861 19.4164C24.0943 18.8211 23.9966 18.1995 23.9966 17.5741Z" stroke="#16162E" stroke-width="2" stroke-linecap="round"/>
</svg>
