<svg width="20" height="21" viewBox="0 0 20 21" fill="none" xmlns="http://www.w3.org/2000/svg">
<path fill-rule="evenodd" clip-rule="evenodd" d="M9.16667 3.65846C5.94501 3.65846 3.33334 6.33838 3.33334 9.64424C3.33334 12.9501 5.94501 15.63 9.16667 15.63C12.3883 15.63 15 12.9501 15 9.64424C15 6.33838 12.3883 3.65846 9.16667 3.65846ZM1.66667 9.64424C1.66667 5.39386 5.02454 1.94824 9.16667 1.94824C13.3088 1.94824 16.6667 5.39386 16.6667 9.64424C16.6667 13.8946 13.3088 17.3402 9.16667 17.3402C5.02454 17.3402 1.66667 13.8946 1.66667 9.64424Z" fill="black"/>
<path fill-rule="evenodd" clip-rule="evenodd" d="M13.2857 13.8715C13.6112 13.5376 14.1388 13.5376 14.4643 13.8715L18.0893 17.5913C18.4147 17.9252 18.4147 18.4666 18.0893 18.8006C17.7638 19.1345 17.2362 19.1345 16.9108 18.8006L13.2857 15.0809C12.9603 14.7469 12.9603 14.2055 13.2857 13.8715Z" fill="black"/>
</svg>
