<svg width="24" height="24" viewBox="0 0 24 24" fill="none" xmlns="http://www.w3.org/2000/svg">
<g clip-path="url(#clip0_1949_1096)">
<path d="M2.74475 13.1032L1.74059 13.5789L1.74059 13.5789L2.74475 13.1032ZM2.28507 16.8032L3.3241 17.1968L3.3241 17.1968L2.28507 16.8032ZM2.9038 15.1702L3.94283 15.5638L3.94283 15.5638L2.9038 15.1702ZM21.2553 17.5476L22.2594 18.0232L22.2594 18.0232L21.2553 17.5476ZM21.7149 21.2475L22.754 20.8539L22.754 20.8538L21.7149 21.2475ZM21.0962 19.6145L20.0572 20.0082L20.0572 20.0082L21.0962 19.6145ZM21.8406 9.64026C21.5239 9.11465 20.8411 8.94531 20.3154 9.26201C19.7898 9.57872 19.6205 10.2616 19.9372 10.7872L21.8406 9.64026ZM10.7873 19.9372C10.2617 19.6205 9.57888 19.7898 9.26218 20.3154C8.94548 20.841 9.11483 21.5239 9.64044 21.8406L10.7873 19.9372ZM9.77778 8.53836L8.95816 9.28855C9.16864 9.51851 9.46604 9.64947 9.77778 9.64947C10.0895 9.64947 10.3869 9.51851 10.5974 9.28855L9.77778 8.53836ZM6.86585 10.4055L7.72017 9.69506L7.72017 9.69506L6.86585 10.4055ZM12.6852 10.4055L11.8308 9.69506L11.8308 9.69506L12.6852 10.4055ZM9.60181 12.8915L10.3102 12.0355L9.60181 12.8915ZM9.72785 12.9764L9.42946 14.0467L9.42946 14.0467L9.72785 12.9764ZM9.94918 12.8915L9.24075 12.0355L9.24075 12.0355L9.94918 12.8915ZM9.82315 12.9764L10.1215 14.0467L10.1215 14.0467L9.82315 12.9764ZM16.4445 9.77778C16.4445 13.4597 13.4597 16.4445 9.77778 16.4445V18.6667C14.687 18.6667 18.6667 14.687 18.6667 9.77778H16.4445ZM3.11111 9.77778C3.11111 6.09588 6.09588 3.11111 9.77778 3.11111V0.888888C4.86858 0.888888 0.888888 4.86858 0.888888 9.77778H3.11111ZM9.77778 3.11111C13.4597 3.11111 16.4445 6.09588 16.4445 9.77778H18.6667C18.6667 4.86858 14.687 0.888888 9.77778 0.888888V3.11111ZM2.80459 18.6667H9.77778V16.4445H2.80459V18.6667ZM3.74891 12.6276C3.34025 11.7649 3.11111 10.7996 3.11111 9.77778H0.888888C0.888888 11.1355 1.19406 12.4251 1.74059 13.5789L3.74891 12.6276ZM3.3241 17.1968L3.94283 15.5638L1.86477 14.7765L1.24604 16.4095L3.3241 17.1968ZM1.74059 13.5789C1.95848 14.0389 1.98366 14.4627 1.86477 14.7765L3.94283 15.5638C4.33333 14.5332 4.14645 13.4669 3.74891 12.6276L1.74059 13.5789ZM2.80459 16.4445C3.19328 16.4445 3.46182 16.8334 3.3241 17.1968L1.24604 16.4095C0.832885 17.4999 1.6385 18.6667 2.80459 18.6667V16.4445ZM21.1954 20.8888H14.2222V23.111H21.1954V20.8888ZM22.2594 18.0232C22.806 16.8694 23.1111 15.5799 23.1111 14.2221H20.8889C20.8889 15.244 20.6598 16.2092 20.2511 17.072L22.2594 18.0232ZM22.754 20.8538L22.1352 19.2208L20.0572 20.0082L20.6759 21.6412L22.754 20.8538ZM23.1111 14.2221C23.1111 12.5482 22.6473 10.9791 21.8406 9.64026L19.9372 10.7872C20.5412 11.7895 20.8889 12.9635 20.8889 14.2221H23.1111ZM9.64044 21.8406C10.9793 22.6473 12.5483 23.111 14.2222 23.111V20.8888C12.9636 20.8888 11.7897 20.5411 10.7873 19.9372L9.64044 21.8406ZM20.2511 17.072C19.8536 17.9113 19.6667 18.9775 20.0572 20.0082L22.1352 19.2208C22.0164 18.9071 22.0415 18.4833 22.2594 18.0232L20.2511 17.072ZM21.1954 23.111C22.3615 23.111 23.1671 21.9443 22.754 20.8539L20.6759 21.6412C20.5382 21.2777 20.8067 20.8888 21.1954 20.8888V23.111ZM10.5974 7.78817C10.183 7.33539 9.59416 6.86514 8.91035 6.61856C8.19684 6.36128 7.27376 6.32482 6.46937 6.96712L7.85598 8.70366C7.88661 8.67921 7.93786 8.63017 8.15654 8.70903C8.40491 8.79859 8.70613 9.0132 8.95816 9.28855L10.5974 7.78817ZM6.46937 6.96712C5.16526 8.00843 4.94397 9.83212 6.01152 11.1159L7.72017 9.69506C7.47623 9.40171 7.49006 8.99585 7.85598 8.70366L6.46937 6.96712ZM13.5395 11.1159C14.5963 9.84505 14.4161 8.0035 13.0699 6.95789L11.7067 8.71289C12.0593 8.98675 12.0855 9.38878 11.8308 9.69506L13.5395 11.1159ZM13.0699 6.95789C12.265 6.33271 11.3527 6.36301 10.6372 6.62132C9.95451 6.86776 9.37059 7.33757 8.95816 7.78817L10.5974 9.28855C10.8514 9.01102 11.1481 8.79948 11.3917 8.71153C11.6025 8.63545 11.6622 8.67833 11.7067 8.71289L13.0699 6.95789ZM6.01152 11.1159C6.34789 11.5204 6.96208 12.0849 7.50048 12.5598C8.06128 13.0544 8.61905 13.5204 8.89339 13.7475L10.3102 12.0355C10.0438 11.815 9.50619 11.3658 8.9705 10.8932C8.41241 10.401 7.92901 9.9462 7.72017 9.69506L6.01152 11.1159ZM10.6576 13.7475C10.9319 13.5204 11.4897 13.0544 12.0505 12.5598C12.5889 12.0849 13.2031 11.5204 13.5395 11.1159L11.8308 9.69506C11.622 9.9462 11.1386 10.401 10.5805 10.8932C10.0448 11.3658 9.5072 11.815 9.24075 12.0355L10.6576 13.7475ZM8.89339 13.7475C8.91051 13.7616 8.97158 13.8132 9.03486 13.8577C9.11221 13.9122 9.24546 13.9954 9.42946 14.0467L10.0262 11.9061C10.175 11.9476 10.2754 12.0134 10.3137 12.0404C10.3312 12.0527 10.3411 12.0608 10.3373 12.0578C10.3334 12.0546 10.3273 12.0496 10.3102 12.0355L8.89339 13.7475ZM9.24075 12.0355C9.22375 12.0496 9.21759 12.0546 9.21367 12.0578C9.2099 12.0608 9.21978 12.0527 9.23727 12.0404C9.27556 12.0134 9.37604 11.9476 9.52475 11.9061L10.1215 14.0467C10.3055 13.9954 10.4388 13.9122 10.5161 13.8577C10.5794 13.8132 10.6405 13.7616 10.6576 13.7475L9.24075 12.0355ZM9.42946 14.0467C9.65546 14.1097 9.89554 14.1097 10.1215 14.0467L9.52475 11.9061C9.68916 11.8603 9.86184 11.8603 10.0262 11.9061L9.42946 14.0467Z" fill="#16162E"/>
</g>
<defs>
<clipPath id="clip0_1949_1096">
<rect width="24" height="24" fill="white"/>
</clipPath>
</defs>
</svg>
