<svg width="22" height="18" viewBox="0 0 22 18" fill="none" xmlns="http://www.w3.org/2000/svg">
<path d="M10.3536 6.35355L11.0607 5.64645L11.0607 5.64645L10.3536 6.35355ZM13.6464 9.64645L12.9393 10.3536L12.9393 10.3536L13.6464 9.64645ZM14.3536 9.64645L15.0607 10.3536L15.0607 10.3536L14.3536 9.64645ZM20.7071 4.70711C21.0976 4.31658 21.0976 3.68342 20.7071 3.29289C20.3166 2.90237 19.6834 2.90237 19.2929 3.29289L20.7071 4.70711ZM4.29289 10.2929C3.90237 10.6834 3.90237 11.3166 4.29289 11.7071C4.68342 12.0976 5.31658 12.0976 5.70711 11.7071L4.29289 10.2929ZM16 2C15.4477 2 15 2.44772 15 3C15 3.55228 15.4477 4 16 4V2ZM20 8C20 8.55228 20.4477 9 21 9C21.5523 9 22 8.55228 22 8H20ZM21 18C21.5523 18 22 17.5523 22 17C22 16.4477 21.5523 16 21 16V18ZM2 1C2 0.447715 1.55228 0 1 0C0.447715 0 0 0.447715 0 1H2ZM3.18404 16.564L3.63803 15.673L3.63803 15.673L3.18404 16.564ZM1.43597 14.816L0.544967 15.27L1.43597 14.816ZM9.64645 7.06066L12.9393 10.3536L14.3536 8.93934L11.0607 5.64645L9.64645 7.06066ZM15.0607 10.3536L20.7071 4.70711L19.2929 3.29289L13.6464 8.93934L15.0607 10.3536ZM5.70711 11.7071L10.3536 7.06066L8.93934 5.64645L4.29289 10.2929L5.70711 11.7071ZM12.9393 10.3536C13.5251 10.9393 14.4749 10.9393 15.0607 10.3536L13.6464 8.93934C13.8417 8.74408 14.1583 8.74407 14.3536 8.93934L12.9393 10.3536ZM11.0607 5.64645C10.4749 5.06066 9.52513 5.06066 8.93934 5.64645L10.3536 7.06066C10.1583 7.25592 9.84171 7.25592 9.64645 7.06066L11.0607 5.64645ZM16 4H20.5V2H16V4ZM20 3.5V8H22V3.5H20ZM20.5 4C20.2239 4 20 3.77614 20 3.5H22C22 2.67157 21.3284 2 20.5 2V4ZM21 16H7.4V18H21V16ZM2 10.6V1H0V10.6H2ZM7.4 16C6.26339 16 5.47108 15.9992 4.85424 15.9488C4.24907 15.8994 3.90138 15.8072 3.63803 15.673L2.73005 17.455C3.32234 17.7568 3.96253 17.8826 4.69138 17.9422C5.40855 18.0008 6.2964 18 7.4 18V16ZM0 10.6C0 11.7036 -0.000777706 12.5914 0.0578178 13.3086C0.117367 14.0375 0.24318 14.6777 0.544967 15.27L2.32698 14.362C2.19279 14.0986 2.10062 13.7509 2.05118 13.1458C2.00078 12.5289 2 11.7366 2 10.6H0ZM3.63803 15.673C3.07354 15.3854 2.6146 14.9265 2.32698 14.362L0.544967 15.27C1.02433 16.2108 1.78924 16.9757 2.73005 17.455L3.63803 15.673Z" fill="#16162E"/>
</svg>
