<svg width="58" height="58" viewBox="0 0 58 58" fill="none" xmlns="http://www.w3.org/2000/svg">
<g clip-path="url(#clip0_430_1539)">
<path d="M29.0015 15.0938L35.8884 9.35484H44.9047V0H22.4531V9.35484H29.0015V15.0938ZM24.3241 7.48387V1.87097H43.0338V7.48387H35.2114L30.8725 11.0997V7.48387H24.3241Z" fill="#2166F3"/>
<path d="M26.1935 3.74194H28.0645V5.61291H26.1935V3.74194ZM29.9355 3.74194H37.4194V5.61291H29.9355V3.74194ZM39.2903 3.74194H41.1613V5.61291H39.2903V3.74194ZM47.6206 56.129L46.8642 48.5561C49.9876 48.0624 52.3871 45.3578 52.3871 42.0968V29.9355H48.6452V28.6428C48.6452 27.3711 47.9462 26.2292 46.8226 25.6436C47.94 24.6173 48.6452 23.1496 48.6452 21.5161V19.6452C48.6452 16.5495 46.1279 14.0323 43.0323 14.0323C39.9366 14.0323 37.4194 16.5495 37.4194 19.6452V21.5161C37.4194 23.9379 38.9637 25.9999 41.1174 26.7856L36.0965 31.8065H30.8504C30.7458 30.247 29.6747 28.8877 28.1572 28.4537L24.3226 27.3592V25.6884C25.4677 24.6602 26.1935 23.1738 26.1935 21.5161V19.6452C26.1935 16.5495 23.6763 14.0323 20.5806 14.0323C17.485 14.0323 14.9677 16.5495 14.9677 19.6452V21.5161C14.9677 23.1729 15.6936 24.6592 16.8387 25.6884V27.3602L13.004 28.4546C11.4062 28.91 10.2903 30.3899 10.2903 32.0527V35.5484H6.54839V41.1613H8.41935V56.129H0V58H58V56.129H47.6206ZM39.2903 41.1613V36.8712L45.9192 30.2424C46.3982 29.7632 46.6833 29.1196 46.7473 28.4482C46.7555 28.5136 46.7742 28.5752 46.7742 28.6428V40.2258C46.7742 41.7729 45.5148 43.0323 43.9677 43.0323H36.4839V41.1613H39.2903ZM36.4839 48.6452H41.2504L41.9985 56.129H36.4839V48.6452ZM43.1305 48.6452H44.9923L45.7405 56.129H43.8786L43.1305 48.6452ZM48.6452 40.2258V31.8065H50.5161V42.0968C50.5161 44.6758 48.4177 46.7742 45.8387 46.7742H36.4839V44.9032H43.9677C46.5468 44.9032 48.6452 42.8048 48.6452 40.2258ZM39.2903 21.5161V19.6452C39.2903 17.5815 40.9686 15.9032 43.0323 15.9032C45.0959 15.9032 46.7742 17.5815 46.7742 19.6452V21.5161C46.7742 23.5798 45.0959 25.2581 43.0323 25.2581C40.9686 25.2581 39.2903 23.5798 39.2903 21.5161ZM36.8712 33.6774L43.1126 27.436C43.3098 27.24 43.5764 27.1297 43.8544 27.129C44.4328 27.129 44.9032 27.5995 44.9032 28.1778C44.9026 28.4559 44.7923 28.7225 44.5963 28.9197L37.9674 35.5484H28.0645C27.5484 35.5484 27.129 35.1291 27.129 34.6129C27.129 34.0968 27.5484 33.6774 28.0645 33.6774H36.8712ZM16.8387 19.6452C16.8387 17.5815 18.517 15.9032 20.5806 15.9032C22.6443 15.9032 24.3226 17.5815 24.3226 19.6452V21.5161C24.3226 23.5798 22.6443 25.2581 20.5806 25.2581C18.517 25.2581 16.8387 23.5798 16.8387 21.5161V19.6452ZM20.5806 27.129C21.2375 27.129 21.8651 27.0094 22.4516 26.8016V27.8064C22.2196 28.1645 21.5751 29 20.5806 29C19.5862 29 18.9417 28.1645 18.7097 27.8064V26.8015C19.2962 27.0094 19.9238 27.129 20.5806 27.129ZM12.1613 32.0526C12.1613 31.2208 12.7199 30.4818 13.518 30.2534L17.3718 29.1526C17.9144 29.8597 18.9704 30.871 20.5806 30.871C22.1908 30.871 23.2468 29.8597 23.7895 29.1517L27.6433 30.2525C28.3601 30.4576 28.8598 31.0806 28.9598 31.8055H28.0645C26.5175 31.8055 25.2581 33.0649 25.2581 34.612C25.2581 34.9414 25.3252 35.2537 25.4303 35.5475H12.1613V32.0526ZM8.41935 37.4194H37.4194V39.2903H8.41935V37.4194ZM10.2903 44.9032H13.0968V43.0323H10.2903V41.1613H34.6129V43.0323H14.9677V44.9032H34.6129V56.129H32.3847L30.5137 52.3871H14.3895L12.5185 56.129H10.2903V44.9032ZM30.2927 56.129H14.6105L15.546 54.2581H29.3572L30.2927 56.129Z" fill="#2166F3"/>
</g>
<defs>
<clipPath id="clip0_430_1539">
<rect width="58" height="58" fill="white"/>
</clipPath>
</defs>
</svg>
