<svg width="54" height="54" viewBox="0 0 54 54" fill="none" xmlns="http://www.w3.org/2000/svg">
<path d="M52.8749 51.75H1.12503C0.504034 51.75 0 52.2539 0 52.8749C0 53.4959 0.504034 54 1.12503 54H52.875C53.496 54 54 53.4959 54 52.8749C53.9999 52.2539 53.4959 51.75 52.8749 51.75Z" fill="#2166F3"/>
<path d="M10.125 38.25H3.37503C2.75403 38.25 2.25 38.754 2.25 39.375V52.875C2.25 53.4959 2.75403 53.9999 3.37503 53.9999H10.125C10.746 53.9999 11.2501 53.4959 11.2501 52.8749V39.3749C11.2501 38.7539 10.746 38.25 10.125 38.25ZM8.99999 51.75H4.50007V40.5H9.00009L8.99999 51.75Z" fill="#2166F3"/>
<path d="M23.625 27H16.875C16.254 27 15.75 27.504 15.75 28.125V52.875C15.75 53.496 16.254 54.0001 16.875 54.0001H23.625C24.246 54.0001 24.7501 53.496 24.7501 52.875V28.125C24.7501 27.504 24.246 27 23.625 27ZM22.5 51.75H18V29.25H22.5V51.75Z" fill="#2166F3"/>
<path d="M37.125 31.5H30.375C29.754 31.5 29.25 32.004 29.25 32.625V52.875C29.25 53.496 29.754 54 30.375 54H37.125C37.746 54 38.2501 53.496 38.2501 52.875V32.625C38.2501 32.0039 37.746 31.5 37.125 31.5ZM36 51.75H31.5V33.75H36V51.75Z" fill="#2166F3"/>
<path d="M50.625 18H43.875C43.254 18 42.75 18.504 42.75 19.125V52.875C42.75 53.496 43.254 54 43.875 54H50.625C51.246 54 51.7501 53.496 51.7501 52.875V19.125C51.7501 18.5039 51.246 18 50.625 18ZM49.5 51.7499H45V20.25H49.5V51.7499Z" fill="#2166F3"/>
<path d="M6.75003 20.25C4.26825 20.25 2.25 22.2682 2.25 24.75C2.25 27.2318 4.26825 29.2501 6.75003 29.2501C9.23181 29.2501 11.2501 27.2318 11.2501 24.75C11.2501 22.2682 9.23181 20.25 6.75003 20.25ZM6.75003 27C5.50803 27 4.50007 25.9897 4.50007 24.75C4.50007 23.5102 5.50803 22.5001 6.75003 22.5001C7.99202 22.5001 8.99999 23.5103 8.99999 24.75C8.99999 25.9897 7.99202 27 6.75003 27Z" fill="#2166F3"/>
<path d="M20.25 9C17.7682 9 15.75 11.0182 15.75 13.5C15.75 15.9818 17.7682 18.0001 20.25 18.0001C22.7318 18.0001 24.7501 15.9818 24.7501 13.5C24.7501 11.0182 22.7318 9 20.25 9ZM20.25 15.75C19.008 15.75 18.0001 14.7397 18.0001 13.5C18.0001 12.2602 19.008 11.2501 20.25 11.2501C21.492 11.2501 22.5 12.2603 22.5 13.5C22.5 14.7398 21.492 15.75 20.25 15.75Z" fill="#2166F3"/>
<path d="M33.75 13.5C31.2682 13.5 29.25 15.5182 29.25 18C29.25 20.4818 31.2682 22.5001 33.75 22.5001C36.2318 22.5001 38.2501 20.4818 38.2501 18C38.2501 15.5182 36.2318 13.5 33.75 13.5ZM33.75 20.25C32.508 20.25 31.5001 19.2397 31.5001 18C31.5001 16.7602 32.508 15.7501 33.75 15.7501C34.992 15.7501 36 16.7604 36 18C36 19.2397 34.992 20.25 33.75 20.25Z" fill="#2166F3"/>
<path d="M47.25 0C44.7682 0 42.75 2.01825 42.75 4.50003C42.75 6.98181 44.7682 9.00005 47.25 9.00005C49.7318 9.00005 51.7501 6.98181 51.7501 4.50003C51.7501 2.01825 49.7318 0 47.25 0ZM47.25 6.74999C46.008 6.74999 45.0001 5.7397 45.0001 4.50003C45.0001 3.26024 46.008 2.25007 47.25 2.25007C48.492 2.25007 49.5 3.26035 49.5 4.50003C49.5 5.7397 48.492 6.74999 47.25 6.74999Z" fill="#2166F3"/>
<path d="M45.6615 6.08834C45.2228 5.64959 44.5095 5.64959 44.0707 6.08834L35.3408 14.8183C34.902 15.257 34.902 15.9703 35.3408 16.4091C35.5613 16.6273 35.8492 16.7376 36.1373 16.7376C36.423 16.7376 36.711 16.6296 36.9316 16.4091L45.6615 7.67912C46.1003 7.24037 46.1003 6.52709 45.6615 6.08834Z" fill="#2166F3"/>
<path d="M31.0262 15.4036L23.7991 13.3426C23.1938 13.1671 22.5796 13.5181 22.4108 14.1167C22.2399 14.7152 22.5863 15.3362 23.1826 15.5072L30.4096 17.5681C30.513 17.5973 30.6166 17.6108 30.7179 17.6108C31.2084 17.6108 31.6583 17.289 31.8001 16.7941C31.9711 16.1979 31.6247 15.5745 31.0262 15.4036Z" fill="#2166F3"/>
<path d="M18.4941 14.9018C18.1071 14.4158 17.4006 14.337 16.9146 14.7217L8.43204 21.4852C7.94604 21.8745 7.86505 22.5809 8.25433 23.0669C8.47708 23.3459 8.80561 23.49 9.13404 23.49C9.37926 23.49 9.62679 23.409 9.83383 23.247L18.3163 16.4835C18.8023 16.0942 18.8833 15.3878 18.4941 14.9018Z" fill="#2166F3"/>
</svg>
