<svg width="46" height="46" fill="none" xmlns="http://www.w3.org/2000/svg"><path d="M25.35 23.3c-.1-.25-.4-.45-.7-.45-.3 0-.55.15-.65.45l-3.4 7.85c-.15.4 0 .8.4 1 .4.15.8 0 1-.4l.75-1.7h3.9l.75 1.7c.1.3.4.45.7.45.1 0 .2 0 .3-.05.4-.15.55-.6.4-1l-3.45-7.85zm-2 5.2 1.3-3.05L26 28.5h-2.65zm8.5-5.65c-.4 0-.75.35-.75.75v7.85c0 .4.35.75.75.75s.75-.35.75-.75V23.6c0-.45-.35-.75-.75-.75zM4.4 12.5h2.1c.4 0 .75-.35.75-.75S6.95 11 6.5 11H4.35c-.4 0-.75.35-.75.75s.35.75.8.75zm1.7 12.55c0-.4-.35-.75-.75-.75H1.3c-.4 0-.75.35-.75.75s.35.75.75.75h4.05c.45 0 .75-.35.75-.75zM4.75 37.6H2.6c-.4 0-.75.35-.75.75s.35.75.75.75h2.15c.4 0 .75-.35.75-.75s-.35-.75-.75-.75z" fill="#000"/><path d="m38.05 12.95 1.3-3.35.75.3c.35.15.7.2 1 .2 1.15 0 2.2-.7 2.65-1.8.25-.7.25-1.5-.05-2.15-.3-.7-.85-1.25-1.55-1.5L32.05.7c-1.45-.55-3.1.15-3.7 1.65C27.8 3.8 28.5 5.45 30 6l.75.3-1.3 3.35c-3.05-.35-6.2.1-9.1 1.35h-9.4c-.4 0-.75.35-.75.75s.35.75.75.75h6.6c-1.25.85-2.4 1.8-3.4 2.95H8.3c-.4 0-.75.35-.75.75s.35.75.75.75h4.65c-.65.9-1.25 1.9-1.75 2.95H2.25c-.4 0-.75.35-.75.75s.35.75.75.75h8.3c-.85 2.4-1.2 4.9-1.05 7.35H4.9c-.4 0-.75.35-.75.75s.35.75.75.75h4.75c.15 1 .4 1.95.7 2.95h-3c-.4 0-.75.35-.75.75s.35.75.75.75h3.55c0 .05.05.1.05.15.45 1 .95 1.9 1.55 2.8H9.1c-.4 0-.75.35-.75.75s.35.75.75.75h4.5c1.95 2.3 4.4 4.1 7.3 5.2 2.1.8 4.3 1.2 6.5 1.2 2.45 0 4.95-.5 7.3-1.55 4.4-1.95 7.75-5.5 9.5-9.95 3.05-7.85.25-16.4-6.15-21.1zm-8.3-10.1c.25-.7 1.05-1.05 1.75-.75L41.55 6c.35.15.6.4.75.7.15.35.15.7.05 1.05-.25.7-1.05 1.05-1.75.75L30.5 4.6c-.65-.3-1-1.05-.75-1.75zM32.1 6.8l5.8 2.25-1.2 3.05c-.9-.55-1.8-1-2.8-1.4-1-.4-2-.65-3-.85l1.2-3.05zm10.75 26.65c-3.3 8.5-12.85 12.7-21.35 9.45-4.1-1.6-7.35-4.7-9.15-8.7-1.8-4.05-1.9-8.5-.3-12.6.7-1.8 1.7-3.45 2.9-4.85l.05-.05c1.55-1.8 3.5-3.25 5.75-4.25C22.9 11.5 25.2 11 27.45 11c2 0 4 .35 5.95 1.1 8.5 3.3 12.7 12.85 9.45 21.35z" fill="#000"/><path d="M32.45 14.65c-7.1-2.75-15.1.8-17.85 7.9-1.35 3.45-1.25 7.2.25 10.55 1.5 3.35 4.2 5.95 7.65 7.3 1.6.6 3.3.95 4.95.95 1.9 0 3.8-.4 5.6-1.2 3.35-1.5 5.95-4.2 7.3-7.65 2.7-7.1-.85-15.1-7.9-17.85zm.65 23.75-.55-1.3c-.15-.4-.6-.55-1-.4-.4.15-.55.6-.4 1l.55 1.3c-2.6.95-5.35 1.05-8 .2l.95-2.5c.15-.4-.05-.8-.45-.95-.4-.15-.8.05-.95.45l-.95 2.5a12.64 12.64 0 0 1-5.8-5.5l1.3-.55c.4-.15.55-.6.4-1-.15-.4-.6-.55-1-.4l-1.3.55c-.95-2.5-1.05-5.3-.2-8l2.5.95c.1.05.2.05.25.05.3 0 .6-.2.7-.5.15-.4-.05-.8-.45-.95l-2.5-.95a12.64 12.64 0 0 1 5.5-5.8l.55 1.3c.1.3.4.45.7.45.1 0 .2 0 .3-.05.4-.15.55-.6.4-1L23.2 16c1.35-.5 2.8-.8 4.3-.8 1.25 0 2.5.2 3.7.6l-.95 2.5c-.15.4.05.8.45.95.1.05.2.05.25.05.3 0 .6-.2.7-.5l.95-2.5a12.64 12.64 0 0 1 5.8 5.5l-1.3.55c-.4.15-.55.6-.4 1 .1.3.4.45.7.45.1 0 .2 0 .3-.05l1.3-.55c.95 2.5 1.05 5.3.2 8l-2.5-.95c-.4-.15-.8.05-.95.45-.15.4.05.8.45.95l2.5.95a12.36 12.36 0 0 1-5.6 5.8z" fill="#000"/></svg>