<svg width="50" height="50" fill="none" xmlns="http://www.w3.org/2000/svg"><g clip-path="url(#a)" fill="#000"><path d="M10.723 25a5.377 5.377 0 0 0-5.371-5.371c-7.116.27-7.114 10.473 0 10.742A5.377 5.377 0 0 0 10.722 25zm-5.371 3.418A3.422 3.422 0 0 1 1.934 25c.172-4.528 6.664-4.527 6.836 0a3.422 3.422 0 0 1-3.418 3.418zM21.074 9.766h7.813c.54 0 .976-.438.976-.977V6.494a19.278 19.278 0 0 1 10.45 7.052l-.44-.084a.977.977 0 1 0-.367 1.918l2.713.52a.978.978 0 0 0 1.143-.775l.52-2.712a.977.977 0 1 0-1.918-.368l-.068.353a20.972 20.972 0 0 0-4.588-4.515 20.976 20.976 0 0 0-7.445-3.402V.977A.977.977 0 0 0 28.887 0h-7.813a.977.977 0 0 0-.976.977v7.812c0 .54.437.977.976.977zm.977-7.813h5.86v5.86h-5.86v-5.86zm6.836 38.282h-7.813a.977.977 0 0 0-.976.976v2.295a19.256 19.256 0 0 1-10.45-7.052l.44.084a.977.977 0 0 0 .367-1.918l-2.712-.52a.977.977 0 0 0-1.143.775l-.52 2.712a.977.977 0 0 0 1.918.368l.068-.357a21.212 21.212 0 0 0 12.032 7.921v3.504c0 .54.437.977.977.977h7.812c.54 0 .977-.437.977-.977v-7.812a.977.977 0 0 0-.977-.977zm-.977 7.812h-5.86v-5.86h5.86v5.86zM49.98 25a5.377 5.377 0 0 0-5.37-5.371c-6.393.154-7.35 9.042-1.218 10.601a18.994 18.994 0 0 1-6.959 10.107l.086-.444a.977.977 0 0 0-1.919-.367l-.52 2.712a.977.977 0 0 0 .775 1.143l2.713.52a.977.977 0 0 0 .368-1.918l-.353-.068c3.816-2.825 6.628-6.996 7.81-11.602A5.379 5.379 0 0 0 49.98 25zm-5.37 3.418A3.422 3.422 0 0 1 41.192 25c.172-4.528 6.664-4.527 6.836 0a3.422 3.422 0 0 1-3.418 3.418zM8.407 13.556a.977.977 0 0 0 1.369-.182 19.065 19.065 0 0 1 3.752-3.71l-.085.443a.977.977 0 0 0 1.918.368l.52-2.713a.977.977 0 0 0-.775-1.143l-2.713-.52a.977.977 0 0 0-.368 1.918l.352.067a21.012 21.012 0 0 0-4.153 4.104.977.977 0 0 0 .183 1.368zm25.74 13.36-1.404-1.032a7.874 7.874 0 0 0 0-1.768l1.404-1.032a.978.978 0 0 0 .267-1.275l-1.953-3.383a.977.977 0 0 0-1.237-.406l-1.597.699a7.742 7.742 0 0 0-1.53-.885l-.193-1.731a.977.977 0 0 0-.97-.869h-3.907a.976.976 0 0 0-.97.869l-.192 1.73a7.747 7.747 0 0 0-1.531.886l-1.597-.7a.977.977 0 0 0-1.237.407l-1.953 3.383a.977.977 0 0 0 .267 1.274l1.404 1.034a7.861 7.861 0 0 0 0 1.766l-1.404 1.034a.977.977 0 0 0-.267 1.274l1.953 3.383a.976.976 0 0 0 1.237.406l1.597-.699c.474.353.988.65 1.53.885l.193 1.731a.976.976 0 0 0 .97.869h3.906a.977.977 0 0 0 .971-.869l.192-1.73a7.732 7.732 0 0 0 1.531-.886l1.597.7a.976.976 0 0 0 1.237-.407l1.953-3.383a.976.976 0 0 0-.267-1.274zm-3.416-3.049a5.919 5.919 0 0 1 0 2.265.976.976 0 0 0 .38.975l1.175.865-1.08 1.869-1.337-.587a.976.976 0 0 0-1.035.16 5.828 5.828 0 0 1-1.958 1.132.977.977 0 0 0-.655.816l-.161 1.45h-2.158l-.161-1.45a.977.977 0 0 0-.655-.816 5.82 5.82 0 0 1-1.959-1.132.976.976 0 0 0-1.034-.16l-1.339.587-1.079-1.87 1.176-.864a.976.976 0 0 0 .38-.974 5.913 5.913 0 0 1 0-2.265.976.976 0 0 0-.38-.975l-1.176-.865 1.08-1.869 1.338.587a.976.976 0 0 0 1.034-.16 5.826 5.826 0 0 1 1.959-1.132.977.977 0 0 0 .655-.816l.16-1.45h2.159l.16 1.45a.976.976 0 0 0 .656.816c.721.246 1.38.627 1.958 1.133a.975.975 0 0 0 1.035.159l1.338-.587 1.079 1.87-1.176.864a.977.977 0 0 0-.38.974z"/><path d="M24.982 21.582A3.422 3.422 0 0 0 21.564 25c.172 4.528 6.664 4.527 6.836 0a3.422 3.422 0 0 0-3.418-3.418zm0 4.883A1.467 1.467 0 0 1 23.517 25c.073-1.94 2.856-1.94 2.93 0 0 .808-.658 1.465-1.465 1.465zM6.729 17.519c1.294-.048 1.293-1.905 0-1.953h-.001c-1.295.048-1.293 1.906 0 1.953z"/></g><defs><clipPath id="a"><path fill="#fff" d="M0 0h50v50H0z"/></clipPath></defs></svg>