<svg width="58" height="58" viewBox="0 0 58 58" fill="none" xmlns="http://www.w3.org/2000/svg">
<path fill-rule="evenodd" clip-rule="evenodd" d="M32.625 48.0312H30.9521C27.3724 48.0312 24.4688 45.142 24.4688 41.5868C24.4688 38.0316 27.3724 35.1425 30.9521 35.1425C31.0336 35.1425 31.1152 35.1434 31.1967 35.147C31.1731 34.8943 31.1613 34.6405 31.1614 34.3867C31.1614 29.9152 34.8136 26.2812 39.3177 26.2812C43.7157 26.2812 47.3035 29.7476 47.4676 34.0767C47.7213 34.0486 47.9796 34.035 48.2406 34.035C52.1284 34.035 55.2812 37.1725 55.2812 41.0331C55.2812 44.8937 52.1284 48.0312 48.2406 48.0312H47.125V54.3749C47.125 54.6153 47.0295 54.8458 46.8596 55.0157C46.6896 55.1857 46.4591 55.2812 46.2188 55.2812H33.5312C33.2909 55.2812 33.0604 55.1857 32.8904 55.0157C32.7205 54.8458 32.625 54.6153 32.625 54.3749V48.0312ZM47.125 46.2187H48.2406C51.1243 46.2187 53.4688 43.8969 53.4688 41.0331C53.4688 38.1694 51.1243 35.8475 48.2406 35.8475C47.7322 35.8475 47.2401 35.9191 46.7752 36.0533C46.6321 36.0947 46.4811 36.1002 46.3354 36.0693C46.1897 36.0384 46.0538 35.9721 45.9399 35.8762C45.8259 35.7804 45.7373 35.6579 45.6819 35.5196C45.6266 35.3814 45.6061 35.2316 45.6224 35.0836C45.6482 34.8522 45.6613 34.6195 45.6614 34.3867C45.6614 30.9121 42.8167 28.0937 39.3177 28.0937C35.8177 28.0937 32.9739 30.9121 32.9739 34.3867C32.9739 34.9377 33.0446 35.4724 33.1787 35.9817C33.2192 36.1338 33.2194 36.2938 33.1791 36.446C33.1388 36.5982 33.0595 36.7372 32.949 36.8493C32.8385 36.9614 32.7007 37.0428 32.5492 37.0853C32.3976 37.1279 32.2376 37.1301 32.0849 37.0918C31.7142 37.0005 31.3338 36.9545 30.9521 36.955C28.3756 36.955 26.2812 39.0285 26.2812 41.5868C26.2812 44.1452 28.3756 46.2187 30.9521 46.2187H32.625V39.8749C32.625 39.6346 32.7205 39.4041 32.8904 39.2341C33.0604 39.0641 33.2909 38.9687 33.5312 38.9687H38.9688C39.2091 38.9687 39.4396 39.0641 39.6096 39.2341C39.7795 39.4041 39.875 39.6346 39.875 39.8749C39.875 40.1153 39.7795 40.3458 39.6096 40.5157C39.4396 40.6857 39.2091 40.7812 38.9688 40.7812H34.4375V46.2187H45.3125V40.7812H42.5938C42.3534 40.7812 42.1229 40.6857 41.9529 40.5157C41.783 40.3458 41.6875 40.1153 41.6875 39.8749C41.6875 39.6346 41.783 39.4041 41.9529 39.2341C42.1229 39.0641 42.3534 38.9687 42.5938 38.9687H46.2188C46.4591 38.9687 46.6896 39.0641 46.8596 39.2341C47.0295 39.4041 47.125 39.6346 47.125 39.8749V46.2187ZM34.4375 48.0312V53.4687H45.3125V48.0312H34.4375ZM38.0625 51.6562C37.8221 51.6562 37.5916 51.5607 37.4217 51.3907C37.2517 51.2208 37.1562 50.9903 37.1562 50.7499C37.1562 50.5096 37.2517 50.2791 37.4217 50.1091C37.5916 49.9391 37.8221 49.8437 38.0625 49.8437H41.6875C41.9279 49.8437 42.1584 49.9391 42.3283 50.1091C42.4983 50.2791 42.5938 50.5096 42.5938 50.7499C42.5938 50.9903 42.4983 51.2208 42.3283 51.3907C42.1584 51.5607 41.9279 51.6562 41.6875 51.6562H38.0625ZM38.0625 44.4062C37.8221 44.4062 37.5916 44.3107 37.4217 44.1407C37.2517 43.9708 37.1562 43.7403 37.1562 43.4999C37.1562 43.2596 37.2517 43.0291 37.4217 42.8591C37.5916 42.6891 37.8221 42.5937 38.0625 42.5937H41.6875C41.9279 42.5937 42.1584 42.6891 42.3283 42.8591C42.4983 43.0291 42.5938 43.2596 42.5938 43.4999C42.5938 43.7403 42.4983 43.9708 42.3283 44.1407C42.1584 44.3107 41.9279 44.4062 41.6875 44.4062H38.0625ZM10.875 28.9999H9.20206C5.62238 28.9999 2.71875 26.1108 2.71875 22.5556C2.71875 19.0004 5.62238 16.1112 9.20206 16.1112C9.28363 16.1112 9.36519 16.1121 9.44675 16.1158C9.42307 15.863 9.41128 15.6093 9.41141 15.3554C9.41141 10.884 13.0636 7.24991 17.5677 7.24991C22.0038 7.24991 25.6152 10.777 25.7212 15.1579C25.9062 15.2285 26.063 15.3578 26.1677 15.5259C26.2724 15.6941 26.3192 15.8919 26.3009 16.0891C26.2826 16.2863 26.2003 16.4721 26.0665 16.6181C25.9327 16.7642 25.7547 16.8624 25.5599 16.8979C25.3797 16.9303 25.2012 16.9718 25.0252 17.022C24.8821 17.0634 24.7311 17.0689 24.5854 17.038C24.4397 17.0072 24.3038 16.9409 24.1899 16.845C24.0759 16.7491 23.9873 16.6266 23.9319 16.4884C23.8766 16.3501 23.8561 16.2004 23.8724 16.0523C23.8982 15.8209 23.9113 15.5883 23.9114 15.3554C23.9114 11.8809 21.0667 9.06241 17.5677 9.06241C14.0677 9.06241 11.2239 11.8809 11.2239 15.3554C11.2239 15.9064 11.2946 16.4411 11.4287 16.9504C11.4692 17.1025 11.4694 17.2626 11.4291 17.4147C11.3888 17.5669 11.3095 17.7059 11.199 17.8181C11.0885 17.9302 10.9507 18.0115 10.7992 18.0541C10.6476 18.0966 10.4876 18.0988 10.3349 18.0606C9.96421 17.9692 9.58382 17.9233 9.20206 17.9237C6.62559 17.9237 4.53125 19.9972 4.53125 22.5556C4.53125 25.1139 6.62559 27.1874 9.20206 27.1874H10.875V20.8437C10.875 20.6033 10.9705 20.3728 11.1404 20.2028C11.3104 20.0329 11.5409 19.9374 11.7812 19.9374H24.4688C24.7091 19.9374 24.9396 20.0329 25.1096 20.2028C25.2795 20.3728 25.375 20.6033 25.375 20.8437V27.1874H26.4906C29.3734 27.1874 31.7188 24.8656 31.7188 22.0019C31.7188 19.893 30.4473 18.0787 28.6266 17.2676C28.5179 17.2192 28.4198 17.1498 28.3379 17.0634C28.256 16.9771 28.1919 16.8754 28.1493 16.7643C28.0632 16.5399 28.0698 16.2905 28.1676 16.0709C28.2654 15.8513 28.4465 15.6796 28.6709 15.5935C28.782 15.5509 28.9005 15.5306 29.0194 15.5337C29.1384 15.5369 29.2556 15.5634 29.3643 15.6119C31.8203 16.7057 33.5312 19.1571 33.5312 22.0019C33.5312 25.8625 30.3784 28.9999 26.4906 28.9999H25.375V35.3437C25.375 35.584 25.2795 35.8145 25.1096 35.9845C24.9396 36.1544 24.7091 36.2499 24.4688 36.2499H11.7812C11.5409 36.2499 11.3104 36.1544 11.1404 35.9845C10.9705 35.8145 10.875 35.584 10.875 35.3437V28.9999ZM23.5625 27.1874V21.7499H12.6875V27.1874H23.5625ZM12.6875 28.9999V34.4374H23.5625V28.9999H12.6875ZM16.3125 32.6249C16.0721 32.6249 15.8416 32.5294 15.6717 32.3595C15.5017 32.1895 15.4062 31.959 15.4062 31.7187C15.4062 31.4783 15.5017 31.2478 15.6717 31.0778C15.8416 30.9079 16.0721 30.8124 16.3125 30.8124H19.9375C20.1779 30.8124 20.4084 30.9079 20.5783 31.0778C20.7483 31.2478 20.8438 31.4783 20.8438 31.7187C20.8438 31.959 20.7483 32.1895 20.5783 32.3595C20.4084 32.5294 20.1779 32.6249 19.9375 32.6249H16.3125ZM16.3125 25.3749C16.0721 25.3749 15.8416 25.2794 15.6717 25.1095C15.5017 24.9395 15.4062 24.709 15.4062 24.4687C15.4062 24.2283 15.5017 23.9978 15.6717 23.8278C15.8416 23.6579 16.0721 23.5624 16.3125 23.5624H19.9375C20.1779 23.5624 20.4084 23.6579 20.5783 23.8278C20.7483 23.9978 20.8438 24.2283 20.8438 24.4687C20.8438 24.709 20.7483 24.9395 20.5783 25.1095C20.4084 25.2794 20.1779 25.3749 19.9375 25.3749H16.3125ZM54.8635 23.5479L48.9003 27.3614C48.7885 27.4332 48.6623 27.4795 48.5306 27.497C48.3989 27.5145 48.2649 27.5028 48.1383 27.4626C48.0116 27.4225 47.8953 27.3549 47.7977 27.2648C47.7001 27.1746 47.6236 27.064 47.5736 26.9409L44.8974 20.3878C44.8324 20.2284 44.8141 20.0537 44.8448 19.8842C44.8754 19.7148 44.9537 19.5576 45.0705 19.431C45.1873 19.3044 45.3377 19.2137 45.5041 19.1696C45.6706 19.1254 45.8462 19.1296 46.0103 19.1816L47.4114 19.6257C47.4734 18.4796 47.3532 17.331 47.0552 16.2227C46.1236 12.7617 43.5045 9.83091 39.8369 8.66819C36.1612 7.50185 32.3214 8.39541 29.5646 10.7C29.3857 10.8494 29.156 10.924 28.9235 10.9085C28.6909 10.893 28.4733 10.7885 28.3158 10.6166L25.8635 7.9432C25.7813 7.85348 25.718 7.74813 25.6774 7.63343C25.6368 7.51873 25.6197 7.39703 25.6271 7.27558C25.6346 7.15414 25.6664 7.03543 25.7207 6.92655C25.775 6.81766 25.8507 6.72083 25.9432 6.64182C30.0866 3.10382 35.9093 1.71816 41.48 3.48445C47.7802 5.48182 52.0197 10.9583 52.7519 17.1244C52.9176 18.514 52.9021 19.9193 52.7057 21.3049L54.6487 21.9212C54.8133 21.9727 54.9597 22.0702 55.0707 22.2021C55.1818 22.3341 55.2528 22.495 55.2753 22.666C55.2979 22.837 55.2711 23.0108 55.1981 23.1671C55.1252 23.3233 55.0091 23.4555 54.8635 23.5479ZM52.2571 23.064L51.4088 22.7948C51.1972 22.7278 51.0175 22.5853 50.9039 22.3945C50.7903 22.2038 50.7507 21.9779 50.7926 21.7599C51.079 20.2736 51.1243 18.7847 50.9521 17.3383C50.3014 11.8564 46.5332 6.98801 40.9326 5.21266C36.3007 3.74363 31.4732 4.72691 27.8545 7.43298L29.0861 8.77604C30.6932 7.60507 32.5534 6.82872 34.5161 6.50976C36.4788 6.1908 38.4891 6.33818 40.3843 6.93998C44.6627 8.29663 47.7186 11.715 48.8052 15.7524C49.2627 17.4507 49.3602 19.2259 49.0916 20.9642C49.071 21.0931 49.0229 21.2161 48.9505 21.3248C48.8782 21.4335 48.7833 21.5254 48.6723 21.5942C48.5613 21.663 48.4368 21.707 48.3073 21.7234C48.1778 21.7398 48.0462 21.7282 47.9216 21.6892L47.3072 21.4944L48.8396 25.2489L52.2571 23.064Z" fill="#2166F3"/>
</svg>
