<svg width="51" height="50" viewBox="0 0 51 50" fill="none" xmlns="http://www.w3.org/2000/svg">
<g clip-path="url(#clip0_641_84)">
<path d="M49.6674 38.3074H48.834V8.30698C48.834 8.08596 48.7462 7.874 48.59 7.71771C48.4337 7.56143 48.2217 7.47363 48.0007 7.47363H3.00004C2.77902 7.47363 2.56705 7.56143 2.41077 7.71771C2.25449 7.874 2.16669 8.08596 2.16669 8.30698V38.3074H1.33335C1.11233 38.3074 0.900364 38.3952 0.744081 38.5515C0.587799 38.7078 0.5 38.9197 0.5 39.1408V40.8075C0.5 41.4705 0.763396 42.1064 1.23224 42.5752C1.70109 43.0441 2.33699 43.3075 3.00004 43.3075H48.0007C48.6637 43.3075 49.2996 43.0441 49.7685 42.5752C50.2373 42.1064 50.5007 41.4705 50.5007 40.8075V39.1408C50.5007 38.9197 50.4129 38.7078 50.2566 38.5515C50.1004 38.3952 49.8884 38.3074 49.6674 38.3074ZM3.83338 9.14032H47.1673V38.3074H41.3123C41.8638 37.5904 42.1642 36.7119 42.1673 35.8074V32.9423C42.1827 30.3514 42.9363 27.8185 44.3398 25.6406C45.2868 24.142 45.6719 22.3563 45.4267 20.6006C45.1815 18.845 44.3219 17.2331 43.0006 16.0513C41.9978 15.1527 40.7715 14.5407 39.4506 14.2795C38.1297 14.0183 36.7628 14.1176 35.4935 14.5668C34.2241 15.016 33.0991 15.7987 32.2365 16.8326C31.374 17.8666 30.8057 19.1137 30.5913 20.443C30.524 20.8791 30.4936 21.3201 30.5004 21.7613V21.6405C30.5004 21.4195 30.4126 21.2075 30.2564 21.0512C30.1001 20.895 29.8881 20.8072 29.6671 20.8072H27.6779C27.4471 19.9019 27.0888 19.034 26.6137 18.2296L28.0179 16.8254C28.1741 16.6692 28.2619 16.4572 28.2619 16.2363C28.2619 16.0153 28.1741 15.8034 28.0179 15.6471L25.6604 13.2896C25.5041 13.1333 25.2922 13.0456 25.0712 13.0456C24.8502 13.0456 24.6383 13.1333 24.482 13.2896L23.0778 14.6946C22.2734 14.2193 21.4056 13.8607 20.5003 13.6296V11.6404C20.5003 11.4193 20.4125 11.2074 20.2562 11.0511C20.0999 10.8948 19.888 10.807 19.6669 10.807H16.3336C16.1125 10.807 15.9006 10.8948 15.7443 11.0511C15.588 11.2074 15.5002 11.4193 15.5002 11.6404V13.6296C14.5949 13.8607 13.7271 14.2193 12.9227 14.6946L11.5185 13.2896C11.3622 13.1333 11.1503 13.0456 10.9293 13.0456C10.7083 13.0456 10.4964 13.1333 10.3401 13.2896L7.98261 15.6471C7.82638 15.8034 7.73862 16.0153 7.73862 16.2363C7.73862 16.4572 7.82638 16.6692 7.98261 16.8254L9.3868 18.2296C8.91174 19.034 8.55343 19.9019 8.32261 20.8072H6.33342C6.1124 20.8072 5.90044 20.895 5.74415 21.0512C5.58787 21.2075 5.50007 21.4195 5.50007 21.6405V24.9739C5.50007 25.1949 5.58787 25.4069 5.74415 25.5632C5.90044 25.7194 6.1124 25.8072 6.33342 25.8072H8.32261C8.55343 26.7125 8.91174 27.5803 9.3868 28.3848L7.98261 29.789C7.82638 29.9452 7.73862 30.1572 7.73862 30.3781C7.73862 30.5991 7.82638 30.811 7.98261 30.9673L10.3401 33.3248C10.4964 33.4811 10.7083 33.5688 10.9293 33.5688C11.1503 33.5688 11.3622 33.4811 11.5185 33.3248L12.9227 31.9198C13.7271 32.3951 14.5949 32.7537 15.5002 32.9848V34.974C15.5002 35.1951 15.588 35.407 15.7443 35.5633C15.9006 35.7196 16.1125 35.8074 16.3336 35.8074H19.6669C19.888 35.8074 20.0999 35.7196 20.2562 35.5633C20.4125 35.407 20.5003 35.1951 20.5003 34.974V32.9848C21.4056 32.7537 22.2734 32.3951 23.0778 31.9198L24.482 33.3248C24.6383 33.4811 24.8502 33.5688 25.0712 33.5688C25.2922 33.5688 25.5041 33.4811 25.6604 33.3248L28.0179 30.9673C28.1741 30.811 28.2619 30.5991 28.2619 30.3781C28.2619 30.1572 28.1741 29.9452 28.0179 29.789L26.6137 28.3848C27.0888 27.5803 27.4471 26.7125 27.6779 25.8072H29.6671C29.8881 25.8072 30.1001 25.7194 30.2564 25.5632C30.4126 25.4069 30.5004 25.1949 30.5004 24.9739V21.7838C30.5215 23.1002 30.8938 24.3871 31.5788 25.5114C33.0013 27.7343 33.7817 30.3071 33.8338 32.9457V35.8074C33.8369 36.7119 34.1373 37.5904 34.6888 38.3074H3.83338V9.14032ZM41.9231 22.718L41.0898 21.8847C40.9804 21.7752 40.8427 21.6984 40.6921 21.6628C40.5416 21.6272 40.3841 21.6342 40.2372 21.683L38.0005 22.433L35.7638 21.683C35.617 21.6342 35.4595 21.6272 35.309 21.6628C35.1584 21.6984 35.0207 21.7752 34.9113 21.8847L34.078 22.718C33.9543 22.8416 33.8726 23.001 33.8445 23.1736C33.8163 23.3462 33.8432 23.5232 33.9213 23.6797L35.5005 26.8372V32.474H35.4922C35.3518 29.6942 34.4949 26.998 33.0046 24.6472C32.2873 23.4646 32.0163 22.0645 32.2405 20.6997C32.4515 19.449 33.0617 18.3002 33.9798 17.4251C34.8979 16.55 36.0745 15.9955 37.3339 15.8446C38.4267 15.7189 39.5328 15.9047 40.5245 16.3807C41.5162 16.8566 42.3532 17.6033 42.9387 18.5345C43.5243 19.4657 43.8347 20.5435 43.834 21.6435C43.8333 22.7435 43.5215 23.8209 42.9348 24.7514C41.449 27.0618 40.6109 29.7289 40.5081 32.474H40.5006V26.8372L42.0839 23.6797C42.1615 23.5228 42.1877 23.3455 42.1588 23.1729C42.13 23.0003 42.0475 22.8411 41.9231 22.718ZM35.5005 34.974V34.1407H40.5006V34.974H35.5005ZM40.3472 36.6407C40.1775 37.1279 39.8604 37.5501 39.4399 37.8489C39.0194 38.1477 38.5164 38.3082 38.0005 38.3082C37.4847 38.3082 36.9816 38.1477 36.5611 37.8489C36.1406 37.5501 35.8236 37.1279 35.6538 36.6407H40.3472ZM37.0839 26.2681L35.6813 23.4739L35.7263 23.4297L37.7372 24.1005C37.9081 24.1575 38.0929 24.1575 38.2639 24.1005L40.2747 23.4297L40.3197 23.4739L38.9214 26.2706C38.8641 26.3855 38.8342 26.5121 38.8339 26.6406V32.474H37.1672V26.6406C37.1686 26.5116 37.1401 26.3841 37.0839 26.2681ZM24.962 29.0898L26.2504 30.3781L25.0712 31.5573L23.782 30.2698C23.6443 30.132 23.4627 30.0469 23.2688 30.0291C23.0749 30.0112 22.8808 30.0619 22.7203 30.1723C21.7583 30.8361 20.6661 31.2875 19.5161 31.4965C19.3245 31.5317 19.1514 31.633 19.0267 31.7826C18.902 31.9323 18.8337 32.1209 18.8336 32.3157V34.1407H17.1669V32.3157C17.167 32.1207 17.0988 31.9319 16.9741 31.7821C16.8494 31.6323 16.6761 31.5309 16.4844 31.4956C15.3345 31.2867 14.2422 30.8353 13.2802 30.1715C13.1197 30.0611 12.9257 30.0104 12.7317 30.0282C12.5378 30.046 12.3562 30.1312 12.2185 30.269L10.9293 31.5573L9.75014 30.3781L11.0377 29.0898C11.1754 28.9521 11.2606 28.7705 11.2784 28.5766C11.2962 28.3826 11.2455 28.1886 11.1352 28.0281C10.4715 27.0657 10.0201 25.9732 9.81097 24.8231C9.77571 24.6315 9.67447 24.4583 9.52482 24.3336C9.37517 24.209 9.18657 24.1406 8.99179 24.1405H7.16676V22.4739H8.99179C9.18672 22.474 9.37551 22.4057 9.52533 22.281C9.67515 22.1563 9.77652 21.983 9.8118 21.7913C10.0209 20.6412 10.4723 19.5487 11.136 18.5863C11.2464 18.4258 11.297 18.2318 11.2792 18.0378C11.2614 17.8439 11.1762 17.6623 11.0385 17.5246L9.75014 16.2363L10.9293 15.0571L12.2185 16.3446C12.3562 16.4823 12.5378 16.5675 12.7317 16.5853C12.9257 16.6032 13.1197 16.5525 13.2802 16.4421C14.2422 15.7783 15.3345 15.3269 16.4844 15.1179C16.676 15.0827 16.8491 14.9814 16.9738 14.8318C17.0985 14.6821 17.1668 14.4935 17.1669 14.2987V12.4737H18.8336V14.2987C18.8335 14.4937 18.9017 14.6825 19.0264 14.8323C19.1511 14.9821 19.3244 15.0835 19.5161 15.1187C20.6661 15.3277 21.7583 15.7791 22.7203 16.4429C22.8808 16.5533 23.0749 16.604 23.2688 16.5862C23.4627 16.5684 23.6443 16.4832 23.782 16.3454L25.0712 15.0571L26.2504 16.2363L24.9629 17.5246C24.8251 17.6623 24.7399 17.8439 24.7221 18.0378C24.7043 18.2318 24.755 18.4258 24.8654 18.5863C25.529 19.5487 25.9804 20.6412 26.1895 21.7913C26.2248 21.9829 26.326 22.1561 26.4757 22.2808C26.6253 22.4054 26.8139 22.4738 27.0087 22.4739H28.8337V24.1405H27.0087C26.8138 24.1404 26.625 24.2087 26.4752 24.3334C26.3254 24.4581 26.224 24.6313 26.1887 24.8231C25.9796 25.9732 25.5282 27.0657 24.8645 28.0281C24.7541 28.1886 24.7035 28.3826 24.7213 28.5766C24.7391 28.7705 24.8243 28.9521 24.962 29.0898ZM48.834 40.8075C48.834 41.0285 48.7462 41.2404 48.59 41.3967C48.4337 41.553 48.2217 41.6408 48.0007 41.6408H3.00004C2.77902 41.6408 2.56705 41.553 2.41077 41.3967C2.25449 41.2404 2.16669 41.0285 2.16669 40.8075V39.9741H48.834V40.8075Z" fill="#2166F3"/>
<path d="M17.9988 16.6406C16.6802 16.6406 15.3913 17.0316 14.2949 17.7642C13.1986 18.4967 12.3441 19.5379 11.8395 20.7561C11.3349 21.9743 11.2029 23.3148 11.4601 24.608C11.7174 25.9012 12.3523 27.0891 13.2847 28.0215C14.217 28.9539 15.405 29.5888 16.6982 29.8461C17.9914 30.1033 19.3319 29.9713 20.5501 29.4667C21.7682 28.9621 22.8095 28.1076 23.542 27.0112C24.2746 25.9149 24.6656 24.6259 24.6656 23.3074C24.6636 21.5399 23.9605 19.8453 22.7107 18.5955C21.4609 17.3456 19.7663 16.6426 17.9988 16.6406ZM17.9988 28.3075C17.0099 28.3075 16.0432 28.0142 15.2209 27.4648C14.3986 26.9154 13.7578 26.1345 13.3793 25.2208C13.0009 24.3072 12.9019 23.3018 13.0948 22.3319C13.2877 21.362 13.7639 20.4711 14.4632 19.7718C15.1625 19.0725 16.0534 18.5963 17.0233 18.4034C17.9933 18.2105 18.9986 18.3095 19.9122 18.6879C20.8259 19.0664 21.6068 19.7072 22.1562 20.5295C22.7056 21.3518 22.9989 22.3185 22.9989 23.3074C22.9975 24.6331 22.4703 25.9041 21.5329 26.8415C20.5955 27.7789 19.3245 28.3061 17.9988 28.3075Z" fill="#2166F3"/>
<path d="M18.0014 19.9738C17.3421 19.9738 16.6976 20.1693 16.1494 20.5356C15.6013 20.9018 15.174 21.4224 14.9217 22.0315C14.6694 22.6406 14.6034 23.3109 14.732 23.9575C14.8606 24.6041 15.1781 25.198 15.6443 25.6642C16.1105 26.1304 16.7044 26.4479 17.351 26.5765C17.9977 26.7051 18.6679 26.6391 19.277 26.3868C19.8861 26.1345 20.4067 25.7073 20.773 25.1591C21.1392 24.6109 21.3347 23.9664 21.3347 23.3072C21.3347 22.4231 20.9835 21.5752 20.3584 20.9501C19.7333 20.325 18.8854 19.9738 18.0014 19.9738ZM18.0014 24.9739C17.6717 24.9739 17.3495 24.8761 17.0754 24.693C16.8013 24.5098 16.5877 24.2495 16.4615 23.945C16.3354 23.6404 16.3024 23.3053 16.3667 22.982C16.431 22.6587 16.5897 22.3617 16.8228 22.1286C17.0559 21.8955 17.3529 21.7368 17.6762 21.6725C17.9995 21.6082 18.3346 21.6412 18.6392 21.7673C18.9437 21.8935 19.204 22.1071 19.3872 22.3812C19.5703 22.6553 19.668 22.9775 19.668 23.3072C19.668 23.7492 19.4924 24.1731 19.1799 24.4857C18.8673 24.7983 18.4434 24.9739 18.0014 24.9739ZM23.5106 36.3632L24.1589 37.8982C24.7628 37.6427 25.3503 37.3502 25.9181 37.0224L25.0848 35.579C24.577 35.873 24.0512 36.1349 23.5106 36.3632ZM26.9065 34.3265L27.954 35.6223C29.7257 34.1853 31.1694 32.3858 32.1882 30.3448L30.6957 29.6031C29.7837 31.4296 28.4918 33.0401 26.9065 34.3265ZM37.1683 9.97363H38.835V13.307H37.1683V9.97363ZM41.475 13.6779L43.1417 11.1778L44.5284 12.102L42.8617 14.602L41.475 13.6779ZM31.4749 12.1028L32.8616 11.1778L34.5283 13.6779L33.1416 14.6029L31.4749 12.1028Z" fill="#2166F3"/>
</g>
<defs>
<clipPath id="clip0_641_84">
<rect width="50" height="50" fill="white" transform="translate(0.5)"/>
</clipPath>
</defs>
</svg>
