<svg width="51" height="50" viewBox="0 0 51 50" fill="none" xmlns="http://www.w3.org/2000/svg">
<g clip-path="url(#clip0_641_89)">
<path d="M21.3854 26.3671H29.6145M25.5 22.0727V12.6953M30.3828 22.4609V28.3202L28.4296 30.2733H22.5703L20.6172 28.3202V22.4609C20.6172 20.6417 20.3561 20.1027 17.7291 16.6572C16.4776 15.0156 15.7344 12.9657 15.7344 10.7421C15.7344 5.34881 20.1066 0.976562 25.5 0.976562C30.8933 0.976562 35.2655 5.34881 35.2655 10.7421C35.2655 12.9657 34.5223 15.0156 33.2708 16.6572C30.6438 20.1028 30.3828 20.6417 30.3828 22.4609Z" stroke="#2166F3" stroke-width="2" stroke-miterlimit="22.9256" stroke-linecap="round" stroke-linejoin="round"/>
<path d="M27.453 10.7422L25.4999 12.6953L23.5468 10.7422M21.0179 22.4609H29.9819M9.38659 10.7422H11.3398M11.5454 2.68555L13.2369 3.66211M11.5454 18.7988L13.2369 17.8222M41.6131 10.7422H39.66M39.4543 2.68555L37.7629 3.66211M39.4543 18.7988L37.7629 17.8222M2.45302 41.6993V38.208C7.77585 38.208 10.6145 36.2058 13.1776 35.2257C18.497 33.1913 22.5875 34.8187 25.4999 39.9714M25.4999 39.9714C28.4123 34.8187 32.5028 33.1913 37.8222 35.2257C40.3852 36.2058 43.224 38.208 48.5468 38.208V41.6993M25.4999 39.9714V43.0116M25.4999 43.9881C26.2293 42.7247 27.3761 42.1875 28.8341 42.1875H49.5233V46.5821H28.7761C28.3559 47.9939 27.0482 49.0235 25.4999 49.0235C23.9516 49.0235 22.6441 47.9939 22.2237 46.5821H1.47656V42.1875H22.1657C23.6237 42.1875 24.7705 42.7247 25.4999 43.9881Z" stroke="#2166F3" stroke-width="2" stroke-miterlimit="22.9256" stroke-linecap="round" stroke-linejoin="round"/>
</g>
<defs>
<clipPath id="clip0_641_89">
<rect width="50" height="50" fill="white" transform="translate(0.5)"/>
</clipPath>
</defs>
</svg>
