<svg width="51" height="50" viewBox="0 0 51 50" fill="none" xmlns="http://www.w3.org/2000/svg">
<g clip-path="url(#clip0_641_93)">
<path d="M49.0352 26.4648H1.96484C1.15586 26.4648 0.5 27.1207 0.5 27.9297C0.5 28.7387 1.15586 29.3945 1.96484 29.3945H22.9128L15.4548 41.8245C14.8697 42.7998 15.5739 44.043 16.7109 44.043H34.2891C35.4265 44.043 36.1301 42.7994 35.5451 41.8245L28.0872 29.3945H49.0352C49.8441 29.3945 50.5 28.7387 50.5 27.9297C50.5 27.1207 49.8441 26.4648 49.0352 26.4648ZM19.2981 41.1133L25.5 30.7769L31.7019 41.1133H19.2981ZM9.28906 23.5352C14.1354 23.5352 18.0781 19.5924 18.0781 14.7461C18.0781 9.8998 14.1354 5.95703 9.28906 5.95703C4.44277 5.95703 0.5 9.8998 0.5 14.7461C0.5 19.5924 4.44277 23.5352 9.28906 23.5352ZM9.28906 8.88672C12.5199 8.88672 15.1484 11.5152 15.1484 14.7461C15.1484 17.977 12.5199 20.6055 9.28906 20.6055C6.0582 20.6055 3.42969 17.977 3.42969 14.7461C3.42969 11.5152 6.0582 8.88672 9.28906 8.88672ZM41.7109 23.5352C46.5572 23.5352 50.5 19.5924 50.5 14.7461C50.5 9.8998 46.5572 5.95703 41.7109 5.95703C36.8646 5.95703 32.9219 9.8998 32.9219 14.7461C32.9219 19.5924 36.8646 23.5352 41.7109 23.5352ZM41.7109 8.88672C44.9418 8.88672 47.5703 11.5152 47.5703 14.7461C47.5703 17.977 44.9418 20.6055 41.7109 20.6055C38.4801 20.6055 35.8516 17.977 35.8516 14.7461C35.8516 11.5152 38.4801 8.88672 41.7109 8.88672Z" fill="#2166F3"/>
</g>
<defs>
<clipPath id="clip0_641_93">
<rect width="50" height="50" fill="white" transform="translate(0.5)"/>
</clipPath>
</defs>
</svg>
