<svg width="51" height="50" viewBox="0 0 51 50" fill="none" xmlns="http://www.w3.org/2000/svg">
<path d="M24.7188 43.75H26.2812V45.3125H24.7188V43.75ZM38.1984 38.8109L39.3031 37.7062L40.4078 38.8109L39.3031 39.9156L38.1984 38.8109ZM44.25 24.2188H45.8125V25.7812H44.25V24.2188Z" fill="#2166F3" stroke="#2166F3" stroke-width="0.5"/>
<path d="M48.1571 19.531H42.6181C42.3158 18.5777 41.9329 17.652 41.4735 16.7638L45.3884 12.8481C45.5348 12.7016 45.6171 12.503 45.6171 12.2958C45.6171 12.0886 45.5348 11.89 45.3884 11.7435L42.0735 8.4294C39.9049 6.21906 37.3197 4.46038 34.4674 3.25497C31.6151 2.04956 28.5522 1.42131 25.4557 1.40652C22.3592 1.39173 19.2904 1.99069 16.4267 3.16881C13.563 4.34692 10.9612 6.08083 8.77152 8.27035C6.58185 10.4599 4.84776 13.0616 3.66944 15.9252C2.49112 18.7888 1.89194 21.8575 1.90651 24.954C1.92108 28.0505 2.54911 31.1135 3.75433 33.9659C4.95954 36.8183 6.71803 39.4036 8.92821 41.5724L12.2423 44.8872C12.3888 45.0337 12.5875 45.1159 12.7946 45.1159C13.0018 45.1159 13.2005 45.0337 13.347 44.8872L17.2626 40.9724C18.1516 41.4315 19.0781 41.8142 20.0321 42.1161V47.656C20.0321 47.8632 20.1144 48.0619 20.2609 48.2084C20.4075 48.3549 20.6062 48.4372 20.8134 48.4372H30.1884C30.3956 48.4372 30.5943 48.3549 30.7408 48.2084C30.8873 48.0619 30.9696 47.8632 30.9696 47.656V42.1169C31.9228 41.8148 32.8485 41.4322 33.7368 40.9731L37.6524 44.888C37.7989 45.0345 37.9976 45.1167 38.2048 45.1167C38.4119 45.1167 38.6106 45.0345 38.7571 44.888L45.386 38.2591C45.5325 38.1126 45.6148 37.9139 45.6148 37.7067C45.6148 37.4996 45.5325 37.3009 45.386 37.1544L41.4712 33.2388C41.9312 32.3496 42.3146 31.4228 42.6173 30.4685H48.1571C48.3643 30.4685 48.563 30.3861 48.7095 30.2396C48.8561 30.0931 48.9384 29.8944 48.9384 29.6872V20.3122C48.9384 20.105 48.8561 19.9063 48.7095 19.7598C48.563 19.6133 48.3643 19.531 48.1571 19.531ZM10.0321 9.53096C14.0381 5.52373 19.4431 3.22798 25.1084 3.12742C30.7737 3.02687 36.2568 5.12936 40.4024 8.9919L39.2993 10.095C35.4439 6.53705 30.3615 4.60874 25.1163 4.71391C19.8711 4.81908 14.87 6.94957 11.1604 10.6592C7.45073 14.3689 5.32024 19.3699 5.21507 24.6151C5.1099 29.8603 7.03821 34.9428 10.5962 38.7981L9.49306 39.9013C5.63052 35.7556 3.52803 30.2725 3.62859 24.6072C3.72914 18.942 6.02489 13.5369 10.0321 9.53096ZM32.1298 18.3708C33.8643 20.1338 34.8319 22.5107 34.8218 24.9839C34.8117 27.4571 33.8248 29.826 32.076 31.5748C30.3272 33.3237 27.9582 34.3106 25.4851 34.3206C23.0119 34.3307 20.6349 33.3631 18.872 31.6286C18.7255 31.4822 18.5268 31.3999 18.3196 31.3999C18.1125 31.3999 17.9138 31.4822 17.7673 31.6286L11.7017 37.6942C8.42506 34.1342 6.65147 29.4454 6.75169 24.6081C6.85191 19.7708 8.81818 15.1595 12.2394 11.7383C15.6606 8.31702 20.272 6.35075 25.1093 6.25053C29.9466 6.15031 34.6354 7.9239 38.1954 11.2005L32.1298 17.2653C32.0571 17.3379 31.9995 17.4241 31.9602 17.5189C31.9209 17.6137 31.9006 17.7154 31.9006 17.8181C31.9006 17.9207 31.9209 18.0224 31.9602 18.1172C31.9995 18.2121 32.0571 18.2982 32.1298 18.3708ZM47.3759 28.906H42.0352C41.8645 28.9059 41.6983 28.9617 41.5623 29.065C41.4263 29.1683 41.3279 29.3133 41.2821 29.4778C40.939 30.7033 40.4509 31.8835 39.8282 32.9935C39.7443 33.1424 39.7115 33.3147 39.7349 33.4841C39.7584 33.6534 39.8367 33.8104 39.9579 33.931L43.7306 37.7044L38.2071 43.2278L34.4337 39.4552C34.3131 39.334 34.1561 39.2556 33.9868 39.2322C33.8175 39.2088 33.6451 39.2416 33.4962 39.3255C32.3863 39.9482 31.2061 40.4362 29.9806 40.7794C29.816 40.8252 29.671 40.9236 29.5677 41.0596C29.4644 41.1956 29.4086 41.3617 29.4087 41.5325V46.8747H21.5946V41.5341C21.5947 41.3633 21.5389 41.1972 21.4356 41.0612C21.3323 40.9252 21.1873 40.8267 21.0227 40.781C19.7972 40.4378 18.617 39.9497 17.5071 39.3271C17.3582 39.2431 17.1858 39.2104 17.0165 39.2338C16.8472 39.2572 16.6902 39.3355 16.5696 39.4567L12.7962 43.2294L10.5868 41.02L18.3407 33.2669C20.4312 35.0767 23.1295 36.0276 25.8927 35.9282C28.6559 35.8288 31.279 34.6866 33.234 32.7314C35.1891 30.7761 36.3311 28.1529 36.4301 25.3897C36.5292 22.6265 35.5781 19.9282 33.7681 17.838L41.5212 10.0841L43.7306 12.2935L39.9579 16.0669C39.8367 16.1874 39.7584 16.3444 39.7349 16.5138C39.7115 16.6831 39.7443 16.8555 39.8282 17.0044C40.451 18.1143 40.9391 19.2945 41.2821 20.52C41.3279 20.6846 41.4263 20.8296 41.5623 20.9328C41.6983 21.0361 41.8645 21.092 42.0352 21.0919H47.3759V28.906Z" fill="#2166F3" stroke="#2166F3" stroke-width="0.5"/>
<path d="M26.2812 21.9859V13.2812C26.2812 13.074 26.1989 12.8753 26.0524 12.7288C25.9059 12.5823 25.7072 12.5 25.5 12.5C25.2928 12.5 25.0941 12.5823 24.9476 12.7288C24.8011 12.8753 24.7188 13.074 24.7188 13.2812V21.9859C24.1818 22.1263 23.692 22.4072 23.2996 22.7996C22.9072 23.192 22.6263 23.6818 22.4859 24.2188H16.9062C16.699 24.2188 16.5003 24.3011 16.3538 24.4476C16.2073 24.5941 16.125 24.7928 16.125 25C16.125 25.2072 16.2073 25.4059 16.3538 25.5524C16.5003 25.6989 16.699 25.7812 16.9062 25.7812H22.4859C22.6226 26.3144 22.8978 26.8019 23.2838 27.1942C23.6697 27.5865 24.1526 27.8697 24.6834 28.0151C25.2142 28.1604 25.774 28.1627 26.306 28.0217C26.838 27.8808 27.3232 27.6015 27.7124 27.2124C28.1015 26.8232 28.3808 26.338 28.5217 25.806C28.6627 25.274 28.6604 24.7142 28.5151 24.1834C28.3697 23.6526 28.0865 23.1697 27.6942 22.7838C27.3019 22.3978 26.8144 22.1226 26.2812 21.9859ZM25.5 26.5625C25.191 26.5625 24.8889 26.4709 24.6319 26.2992C24.375 26.1275 24.1747 25.8835 24.0564 25.5979C23.9382 25.3124 23.9072 24.9983 23.9675 24.6952C24.0278 24.3921 24.1766 24.1137 24.3951 23.8951C24.6137 23.6766 24.8921 23.5278 25.1952 23.4675C25.4983 23.4072 25.8124 23.4382 26.0979 23.5564C26.3835 23.6747 26.6275 23.875 26.7992 24.1319C26.9709 24.3889 27.0625 24.691 27.0625 25C27.0625 25.4144 26.8979 25.8118 26.6049 26.1049C26.3118 26.3979 25.9144 26.5625 25.5 26.5625ZM25.5 10.1562C25.2928 10.1562 25.0941 10.0739 24.9476 9.92743C24.8011 9.78091 24.7188 9.5822 24.7188 9.375V7.8125C24.7188 7.6053 24.8011 7.40659 24.9476 7.26007C25.0941 7.11356 25.2928 7.03125 25.5 7.03125C25.7072 7.03125 25.9059 7.11356 26.0524 7.26007C26.1989 7.40659 26.2812 7.6053 26.2812 7.8125V9.375C26.2812 9.5822 26.1989 9.78091 26.0524 9.92743C25.9059 10.0739 25.7072 10.1562 25.5 10.1562ZM33.3125 12.25C33.1754 12.2499 33.0408 12.2137 32.9222 12.145C32.8035 12.0764 32.705 11.9778 32.6365 11.859C32.568 11.7403 32.532 11.6056 32.5321 11.4685C32.5321 11.3315 32.5682 11.1968 32.6367 11.0781L33.418 9.72422C33.5223 9.54624 33.6928 9.41676 33.8923 9.36403C34.0917 9.3113 34.3039 9.3396 34.4826 9.44275C34.6612 9.54591 34.7918 9.71554 34.8459 9.91464C34.9 10.1137 34.8731 10.3261 34.7711 10.5055L33.9898 11.8594C33.9212 11.9783 33.8225 12.0769 33.7036 12.1455C33.5846 12.2141 33.4498 12.2501 33.3125 12.25ZM17.6875 12.25C17.5502 12.2501 17.4154 12.2141 17.2964 12.1455C17.1775 12.0769 17.0788 11.9783 17.0102 11.8594L16.2289 10.5055C16.1269 10.3261 16.1 10.1137 16.1541 9.91464C16.2082 9.71554 16.3388 9.54591 16.5174 9.44275C16.6961 9.3396 16.9083 9.3113 17.1077 9.36403C17.3072 9.41676 17.4777 9.54624 17.582 9.72422L18.3633 11.0781C18.4318 11.1968 18.4679 11.3315 18.4679 11.4685C18.468 11.6056 18.432 11.7403 18.3635 11.859C18.295 11.9778 18.1965 12.0764 18.0778 12.145C17.9592 12.2137 17.8246 12.2499 17.6875 12.25ZM11.968 17.9688C11.8308 17.969 11.696 17.9329 11.5773 17.8641L10.2234 17.0828C10.0455 16.9785 9.91598 16.808 9.86325 16.6085C9.81052 16.4091 9.83882 16.1969 9.94197 16.0182C10.0451 15.8395 10.2148 15.7089 10.4139 15.6549C10.613 15.6008 10.8253 15.6277 11.0047 15.7297L12.3586 16.5109C12.5075 16.5969 12.6239 16.7297 12.6897 16.8885C12.7555 17.0474 12.7671 17.2236 12.7226 17.3897C12.6781 17.5558 12.58 17.7026 12.4435 17.8073C12.3071 17.912 12.1399 17.9687 11.968 17.9688ZM9.875 25.7812H8.3125C8.1053 25.7812 7.90659 25.6989 7.76007 25.5524C7.61356 25.4059 7.53125 25.2072 7.53125 25C7.53125 24.7928 7.61356 24.5941 7.76007 24.4476C7.90659 24.3011 8.1053 24.2188 8.3125 24.2188H9.875C10.0822 24.2188 10.2809 24.3011 10.4274 24.4476C10.5739 24.5941 10.6562 24.7928 10.6562 25C10.6562 25.2072 10.5739 25.4059 10.4274 25.5524C10.2809 25.6989 10.0822 25.7812 9.875 25.7812ZM10.6156 34.375C10.4437 34.375 10.2765 34.3182 10.1401 34.2135C10.0036 34.1089 9.90554 33.9621 9.86103 33.796C9.81652 33.6298 9.82806 33.4537 9.89387 33.2948C9.95968 33.1359 10.0761 33.0032 10.225 32.9172L11.5789 32.1359C11.6678 32.0838 11.7661 32.0498 11.8682 32.0359C11.9703 32.0219 12.0741 32.0283 12.1737 32.0546C12.2733 32.0809 12.3667 32.1267 12.4486 32.1893C12.5304 32.2519 12.5991 32.33 12.6506 32.4193C12.7021 32.5085 12.7355 32.607 12.7488 32.7092C12.762 32.8114 12.755 32.9152 12.728 33.0146C12.701 33.114 12.6546 33.2071 12.5915 33.2886C12.5283 33.37 12.4497 33.4381 12.3602 33.4891L11.0062 34.2703C10.8876 34.3392 10.7528 34.3753 10.6156 34.375Z" fill="#2166F3" stroke="#2166F3" stroke-width="0.5"/>
<path d="M25.5017 32.8123C24.4754 32.8151 23.4587 32.614 22.5107 32.2205C21.5628 31.827 20.7025 31.249 19.9799 30.5201C19.9054 30.4479 19.846 30.3616 19.8052 30.2663C19.7644 30.1709 19.743 30.0683 19.7422 29.9646C19.7415 29.8609 19.7614 29.758 19.8008 29.6621C19.8402 29.5661 19.8983 29.479 19.9718 29.4057C20.0452 29.3325 20.1326 29.2746 20.2286 29.2355C20.3247 29.1963 20.4276 29.1767 20.5313 29.1777C20.635 29.1788 20.7375 29.2005 20.8328 29.2416C20.928 29.2826 21.0142 29.3423 21.0861 29.417C21.6638 30.0071 22.3528 30.4768 23.1133 30.7989C23.8737 31.121 24.6904 31.2891 25.5163 31.2935C26.3421 31.2979 27.1606 31.1384 27.9244 30.8244C28.6882 30.5104 29.3821 30.0481 29.9661 29.4641C30.55 28.8802 31.0124 28.1862 31.3264 27.4224C31.6404 26.6586 31.7998 25.8401 31.7954 25.0143C31.791 24.1885 31.6229 23.3717 31.3008 22.6113C30.9787 21.8509 30.509 21.1619 29.9189 20.5842C29.8442 20.5122 29.7846 20.4261 29.7435 20.3308C29.7024 20.2356 29.6807 20.1331 29.6797 20.0294C29.6787 19.9256 29.6983 19.8227 29.7374 19.7267C29.7766 19.6306 29.8345 19.5433 29.9077 19.4698C29.981 19.3964 30.0681 19.3383 30.164 19.2988C30.26 19.2594 30.3628 19.2395 30.4666 19.2403C30.5703 19.241 30.6728 19.2624 30.7682 19.3032C30.8636 19.344 30.9499 19.4034 31.0221 19.4779C32.1136 20.5704 32.8569 21.9619 33.158 23.4766C33.4591 24.9913 33.3045 26.5612 32.7138 27.9881C32.123 29.415 31.1227 30.6348 29.839 31.4935C28.5554 32.3521 27.0461 32.811 25.5017 32.8123Z" fill="#2166F3" stroke="#2166F3" stroke-width="0.5"/>
</svg>
