<svg width="52" height="51" viewBox="0 0 52 51" fill="none" xmlns="http://www.w3.org/2000/svg">
<path d="M40.6523 4.89258H47.043" stroke="#2166F3" stroke-width="1.8" stroke-miterlimit="10" stroke-linecap="round" stroke-linejoin="round"/>
<path d="M37.0234 4.89258H37.8024" stroke="#2166F3" stroke-width="1.8" stroke-miterlimit="10" stroke-linecap="round" stroke-linejoin="round"/>
<path d="M37.0234 8.33301H47.0433" stroke="#2166F3" stroke-width="1.8" stroke-miterlimit="10" stroke-linecap="round" stroke-linejoin="round"/>
<mask id="mask0_645_118" style="mask-type:luminance" maskUnits="userSpaceOnUse" x="0" y="-1" width="52" height="53">
<path d="M1.05469 0.522606H51.0545V50.5225H1.05469V0.522606Z" fill="white" stroke="white" stroke-width="1.8"/>
</mask>
<g mask="url(#mask0_645_118)">
<path d="M31.8778 18.1653V21.1621C31.8778 22.3999 30.8744 23.4033 29.6365 23.4033H27.7891" stroke="#2166F3" stroke-width="1.8" stroke-miterlimit="10" stroke-linecap="round" stroke-linejoin="round"/>
<path d="M37.9488 46.6096H3.36005C2.49023 46.6096 1.78516 47.3147 1.78516 48.1845C1.78516 49.0542 2.49023 49.7593 3.36005 49.7593H37.9488C38.8186 49.7593 39.5237 49.0542 39.5237 48.1845C39.5237 47.3147 38.8186 46.6096 37.9488 46.6096Z" stroke="#2166F3" stroke-width="1.8" stroke-miterlimit="10" stroke-linecap="round" stroke-linejoin="round"/>
<path d="M22.6197 46.6094C22.6197 45.3188 23.1033 44.0779 23.9668 43.1188L23.9861 43.0972C24.6923 42.3071 25.1217 41.2646 25.1217 40.1215C25.1217 38.4558 24.2098 37.0031 22.8581 36.2351C22.6016 36.0893 22.2832 36.2726 22.2832 36.5675V39.8908C22.2832 40.4479 21.8316 40.8994 21.2745 40.8994H20.0347C19.4776 40.8994 19.026 40.4479 19.026 39.8908V36.5675C19.026 36.2726 18.7074 36.0893 18.451 36.2351C17.0993 37.0031 16.1875 38.4558 16.1875 40.1215C16.1875 41.2646 16.6169 42.3071 17.323 43.0972L17.3424 43.1188C18.2059 44.0779 18.6894 45.3188 18.6894 46.6094" stroke="#2166F3" stroke-width="1.8" stroke-miterlimit="10" stroke-linecap="round" stroke-linejoin="round"/>
<path d="M5.5625 43.7513L5.71758 46.6094" stroke="#2166F3" stroke-width="1.8" stroke-miterlimit="10" stroke-linecap="round" stroke-linejoin="round"/>
<path d="M35.5942 46.6094L36.3201 33.2362C36.3899 31.9485 35.3647 30.8661 34.0751 30.8661H7.23657C5.94703 30.8661 4.92174 31.9485 4.99166 33.2362L5.37779 40.352" stroke="#2166F3" stroke-width="1.8" stroke-miterlimit="10" stroke-linecap="round" stroke-linejoin="round"/>
<path d="M38.9377 46.9595V43.8914C38.9377 40.9363 37.9109 38.1851 36.168 36.0118" stroke="#2166F3" stroke-width="1.8" stroke-miterlimit="10" stroke-linecap="round" stroke-linejoin="round"/>
<path d="M5.14081 36.0118C3.39785 38.1851 2.37109 40.9363 2.37109 43.8914V46.9595" stroke="#2166F3" stroke-width="1.8" stroke-miterlimit="10" stroke-linecap="round" stroke-linejoin="round"/>
<path d="M28.1111 7.29268H28.029C27.9209 7.29269 27.8138 7.27141 27.714 7.23005C27.6141 7.1887 27.5233 7.12807 27.4469 7.05165C27.3705 6.97522 27.3098 6.88448 27.2685 6.78462C27.2271 6.68476 27.2058 6.57772 27.2058 6.46963C27.2058 5.12364 26.1148 4.03253 24.7688 4.03253H17.0121C13.5601 4.03253 10.7617 6.83086 10.7617 10.2829V14.4135C10.7617 14.7095 10.8538 14.9982 11.0253 15.2395C11.1968 15.4808 11.4391 15.6627 11.7187 15.76L13.2582 16.2961C13.7964 16.4835 14.3584 16.0834 14.3575 15.5135L14.3541 12.6009C14.3482 11.1844 15.4778 10.0311 16.8772 10.0251L16.9077 10.025C17.3343 10.0233 17.7584 10.089 18.1644 10.2197C18.8814 10.4501 19.6244 10.5897 20.3775 10.5865H20.9323C21.6854 10.5897 22.4284 10.4501 23.1454 10.2197C23.5514 10.089 23.9756 10.0233 24.4021 10.025L24.4326 10.0251C25.832 10.0311 26.9616 11.1844 26.9557 12.6009L26.9529 15.5137C26.9521 16.0836 27.5141 16.4835 28.0521 16.2961L29.5913 15.76C29.8708 15.6627 30.1131 15.4807 30.2845 15.2395C30.456 14.9982 30.5481 14.7095 30.5481 14.4136V9.72978C30.5481 8.38379 29.457 7.29268 28.1111 7.29268Z" stroke="#2166F3" stroke-width="1.8" stroke-miterlimit="10" stroke-linecap="round" stroke-linejoin="round"/>
<path d="M12.6602 20.0069H12.6738C12.7277 22.1313 13.6184 24.1726 15.2177 25.5546C16.5054 26.6673 18.3128 27.6355 20.6951 27.6523C23.0771 27.6152 24.8765 26.6315 26.1547 25.5079C27.7111 24.14 28.5791 22.1444 28.6471 20.0648" stroke="#2166F3" stroke-width="1.8" stroke-miterlimit="10" stroke-linecap="round" stroke-linejoin="round"/>
<path d="M10.7615 14.0928C10.004 14.2322 9.42969 14.8947 9.42969 15.6926V18.4744C9.42969 19.3736 10.1586 20.1025 11.0578 20.1025H12.6613V16.0885" stroke="#2166F3" stroke-width="1.8" stroke-miterlimit="10" stroke-linecap="round" stroke-linejoin="round"/>
<path d="M28.6484 16.0887V20.1025H30.2519C31.1511 20.1025 31.88 19.3736 31.88 18.4745V15.6927C31.88 14.8948 31.3057 14.2322 30.5481 14.0929" stroke="#2166F3" stroke-width="1.8" stroke-miterlimit="10" stroke-linecap="round" stroke-linejoin="round"/>
<path d="M26.1821 24.5527H24.344C23.6428 24.5527 23.0742 23.9843 23.0742 23.283C23.0742 22.5816 23.6428 22.0132 24.344 22.0132H26.1821C26.8834 22.0132 27.4518 22.5816 27.4518 23.283C27.4518 23.9843 26.8834 24.5527 26.1821 24.5527Z" stroke="#2166F3" stroke-width="1.8" stroke-miterlimit="10" stroke-linecap="round" stroke-linejoin="round"/>
<path d="M25.8478 30.8662C25.1748 30.5014 24.7305 29.7918 24.7305 28.9927V26.5375" stroke="#2166F3" stroke-width="1.8" stroke-miterlimit="10" stroke-linecap="round" stroke-linejoin="round"/>
<path d="M16.5766 26.5299V28.9927C16.5766 29.8055 16.1192 30.5062 15.457 30.8662" stroke="#2166F3" stroke-width="1.8" stroke-miterlimit="10" stroke-linecap="round" stroke-linejoin="round"/>
<path d="M50.3208 4.83331V3.41573C50.3208 2.23937 49.3671 1.28576 48.1907 1.28576H35.8723C34.6958 1.28576 33.7422 2.23937 33.7422 3.41573V9.57665C33.7422 10.753 34.6958 11.7066 35.8723 11.7066C36.5593 11.7066 37.1162 12.2636 37.1162 12.9506V16.7606C37.1162 17.2443 37.7532 17.4207 38.0019 17.0058L40.8175 12.3108C40.928 12.1266 41.0843 11.9741 41.2713 11.8682C41.4582 11.7623 41.6694 11.7066 41.8843 11.7066H48.1907C49.3671 11.7066 50.3208 10.753 50.3208 9.57665V8.25752" stroke="#2166F3" stroke-width="1.8" stroke-miterlimit="10" stroke-linecap="round" stroke-linejoin="round"/>
</g>
</svg>
