<?xml version="1.0" standalone="no"?>
<!DOCTYPE svg PUBLIC "-//W3C//DTD SVG 20010904//EN"
 "http://www.w3.org/TR/2001/REC-SVG-20010904/DTD/svg10.dtd">
<svg version="1.0" xmlns="http://www.w3.org/2000/svg"
 width="128.000000pt" height="128.000000pt" viewBox="0 0 128.000000 128.000000"
 preserveAspectRatio="xMidYMid meet">

<g transform="translate(0.000000,128.000000) scale(0.100000,-0.100000)"
fill="#000000" stroke="none">
<path d="M115 1255 l-25 -24 0 -591 0 -591 25 -24 24 -25 413 0 c309 1 417 4
429 13 21 16 39 51 39 76 0 18 -6 21 -40 21 -29 0 -40 -4 -40 -15 0 -13 -49
-15 -385 -15 l-385 0 0 560 0 560 230 0 230 0 0 40 0 40 -245 0 -246 0 -24
-25z"/>
<path d="M710 1270 c-12 -7 -16 -39 -18 -159 -4 -197 -10 -191 166 -191 112 0
131 2 145 18 10 10 17 24 17 30 0 11 -242 289 -264 304 -15 10 -28 10 -46 -2z
m125 -205 l47 -55 -51 0 -51 0 0 55 c0 30 2 55 4 55 2 0 25 -25 51 -55z"/>
<path d="M282 1023 l3 -38 148 -3 147 -3 0 41 0 40 -151 0 -150 0 3 -37z"/>
<path d="M280 830 l0 -40 275 0 275 0 0 40 0 40 -275 0 -275 0 0 -40z"/>
<path d="M940 820 l0 -40 40 0 40 0 0 40 0 40 -40 0 -40 0 0 -40z"/>
<path d="M853 729 c-97 -19 -188 -97 -219 -191 -71 -215 132 -427 349 -364 80
23 135 70 175 146 32 61 34 70 30 140 -5 87 -27 137 -85 192 -66 64 -164 94
-250 77z m148 -102 c164 -87 132 -331 -48 -377 -152 -38 -291 113 -242 261 41
120 178 175 290 116z"/>
<path d="M926 489 c-53 -57 -58 -60 -75 -45 -25 22 -34 20 -59 -13 l-22 -30
42 -30 c23 -17 52 -31 63 -31 22 0 165 137 165 158 0 6 -13 20 -29 31 l-29 21
-56 -61z"/>
<path d="M280 640 l0 -40 140 0 140 0 0 40 0 40 -140 0 -140 0 0 -40z"/>
<path d="M280 450 l0 -40 135 0 135 0 0 40 0 40 -135 0 -135 0 0 -40z"/>
<path d="M287 293 c-4 -3 -7 -21 -7 -40 l0 -33 140 0 140 0 0 40 0 40 -133 0
c-74 0 -137 -3 -140 -7z"/>
</g>
</svg>
