<?xml version="1.0" standalone="no"?>
<!DOCTYPE svg PUBLIC "-//W3C//DTD SVG 20010904//EN"
 "http://www.w3.org/TR/2001/REC-SVG-20010904/DTD/svg10.dtd">
<svg version="1.0" xmlns="http://www.w3.org/2000/svg"
 width="100.000000pt" height="100.000000pt" viewBox="0 0 100.000000 100.000000"
 preserveAspectRatio="xMidYMid meet">

<g transform="translate(0.000000,100.000000) scale(0.100000,-0.100000)"
fill="#000000" stroke="none">
<path d="M435 955 c-76 -27 -135 -115 -135 -200 1 -75 73 -164 152 -186 168
-45 313 135 233 291 -21 40 -79 87 -122 99 -50 14 -79 13 -128 -4z m153 -43
c80 -37 112 -156 64 -234 -68 -110 -226 -110 -294 0 -45 72 -21 181 49 228 55
36 114 38 181 6z"/>
<path d="M542 764 c-62 -45 -70 -47 -104 -22 -25 18 -33 3 -15 -26 30 -45 50
-42 132 18 71 53 90 76 63 76 -7 0 -41 -21 -76 -46z"/>
<path d="M444 456 c-24 -20 -28 -33 -32 -88 -4 -58 -1 -67 22 -95 37 -44 33
-53 -20 -53 -42 0 -82 -13 -94 -30 -8 -11 -80 1 -80 14 0 6 7 20 15 30 9 12
15 42 15 71 0 42 -5 56 -25 75 -31 29 -80 29 -109 1 -26 -27 -28 -115 -3 -151
24 -34 22 -40 -13 -40 -68 0 -104 -42 -98 -116 l3 -39 478 -3 477 -2 0 58 c0
70 -17 91 -79 99 -46 6 -48 9 -24 43 25 35 23 124 -2 149 -33 32 -85 31 -115
-1 -25 -27 -28 -114 -5 -144 8 -10 15 -24 15 -30 0 -13 -72 -25 -80 -14 -12
17 -52 30 -94 30 -53 0 -57 9 -20 53 23 28 26 37 22 95 -4 55 -8 68 -32 88
-17 15 -40 24 -61 24 -21 0 -44 -9 -61 -24z m92 -14 c35 -23 46 -111 18 -150
-21 -30 -77 -30 -98 0 -23 33 -21 109 4 136 21 22 55 28 76 14z m-308 -84 c7
-7 12 -31 12 -55 0 -34 -5 -46 -24 -58 -29 -19 -65 -6 -67 23 -4 52 0 85 12
93 20 12 53 11 67 -3z m626 -10 c7 -13 12 -34 11 -48 -2 -14 -4 -30 -4 -37 -1
-7 -10 -17 -22 -23 -16 -9 -26 -8 -45 5 -19 12 -24 24 -24 58 0 24 5 48 12 55
19 19 56 14 72 -10z m-334 -118 c0 -5 -7 -10 -15 -10 -8 0 -15 5 -15 10 0 6 7
10 15 10 8 0 15 -4 15 -10z m-313 -36 c-3 -3 -12 -4 -19 -1 -8 3 -5 6 6 6 11
1 17 -2 13 -5z m620 0 c-3 -3 -12 -4 -19 -1 -8 3 -5 6 6 6 11 1 17 -2 13 -5z
m-167 -24 c27 -27 29 -113 3 -108 -10 2 -18 12 -18 23 0 11 -7 20 -15 20 -8 0
-15 -9 -15 -20 0 -19 -7 -20 -110 -20 -107 0 -110 1 -113 23 -4 28 -26 24 -30
-6 -2 -12 -10 -22 -18 -22 -23 0 -19 85 6 110 18 18 33 20 155 20 122 0 137
-2 155 -20z m-362 -43 c2 -18 -1 -27 -10 -25 -7 2 -14 -7 -16 -20 -3 -22 -7
-23 -79 -20 -65 3 -77 6 -79 21 -1 11 -5 21 -8 24 -9 9 -26 -8 -26 -28 0 -10
-7 -19 -15 -19 -10 0 -15 10 -15 34 0 56 26 67 145 64 l100 -3 3 -28z m640 17
c26 -18 32 -84 7 -84 -8 0 -15 9 -15 19 0 20 -17 37 -26 28 -3 -3 -7 -13 -8
-24 -2 -15 -14 -18 -79 -21 -72 -3 -76 -2 -79 20 -2 13 -9 22 -16 21 -13 -3
-17 39 -5 50 3 4 50 7 102 7 71 0 102 -4 119 -16z"/>
</g>
</svg>
