<?xml version="1.0" encoding="iso-8859-1"?>
<!-- Generator: Adobe Illustrator 19.0.0, SVG Export Plug-In . SVG Version: 6.00 Build 0)  -->
<svg xmlns="http://www.w3.org/2000/svg" xmlns:xlink="http://www.w3.org/1999/xlink" version="1.1" id="Layer_1" x="0px" y="0px" viewBox="0 0 489.359 489.359" style="enable-background:new 0 0 489.359 489.359;" xml:space="preserve" width="512px" height="512px">
<g>
	<g>
		<path d="M201.127,385.477c-3.6-15.3-9.1-45.1-49.9-74.5c-3.9-2.8-9.5-8.3-12.5-12.1l-45.4-58.3c-4.7-7.9-15.9-10.6-24.4-5.3    c-8.6,5.2-11.2,16.4-6.6,24.3l43.6,71.2c1.4,2.3,0.6,5.4-1.8,6.7c-2.2,1.2-4.9,0.5-6.3-1.5l-1.8-2.7c0,0-33-45.1-49.4-80.8    c-3-6.5-4.7-13.1-5.1-20.2c-0.1-1.1-0.1-2.6-0.2-3.7c-0.5-16.2-3.1-39.3-5.8-55.4c-0.8-4.5-3.1-21.4-7.8-26.7    c-6.7-7.6-15.7-5.9-21.4-1.3c-4.7,3.8-6.9,10.1-6.2,16.1l12.7,123.1l0.7,4.4c2.3,15.5,9.6,28.3,20.4,39.7l72.9,87.8l1.4,40.5    c0,3.6,2.9,6.5,6.5,6.5l76.7,0.4c3.6,0,6.5-2.9,6.6-6.5l2.7-49c0.7-5.1,0.8-10.3,0.8-14.3    C201.527,388.977,201.127,385.477,201.127,385.477z" fill="#FFFFFF"/>
	</g>
</g>
<g>
	<g>
		<path d="M82.027,185.477c-1.7-6.3-5.3-10.8-11.5-12.9c2,9.2,7.2,26.2,8.4,35.1l0.8,6.1c0.1,0.6,0.1,1.2,0.1,1.8    c3.7,0.1,7.4,0.9,10.9,2.2C89.527,209.577,84.027,193.077,82.027,185.477z" fill="#FFFFFF"/>
	</g>
</g>
<g>
	<g>
		<path d="M373.227,68.177l-61.8-41.6c-3.4-2.3-7.9,0.1-7.9,4.2v22.5h-153.6c-10.6,0-19.1,8.6-19.1,19.1v106.5    c0,2.3,2.6,3.7,4.5,2.4l30-20.2c2.3-1.5,3.7-4.1,3.7-6.9v-62.7h134.4v22.5c0,4.1,4.5,6.5,7.9,4.2l61.8-41.6    C376.227,74.577,376.227,70.177,373.227,68.177z" fill="#FFFFFF"/>
	</g>
</g>
<g>
	<g>
		<path d="M431.727,167.877c-3.3,12.4-7.8,36.5-9.5,49.2c0.1,0.2,0.2,0.3,0.3,0.4c2.4,0.8,4.7,1.9,6.9,3.2c1.8,1.1,3.4,2.3,4.9,3.7    c0-1.4,0.1-2.7,0.1-4.1c0.3-13.3,3.7-38.5,6-52.4c0.7-4.2,1.5-8.6,2.9-12.9C437.027,157.077,433.327,161.577,431.727,167.877z" fill="#FFFFFF"/>
	</g>
</g>
<g>
	<g>
		<path d="M354.127,117.977l-30,20.2c-2.3,1.5-3.7,4.1-3.7,6.9v62.6h-134.5v-22.5c0-4.1-4.5-6.5-7.9-4.2l-61.8,41.6    c-3,2-3,6.4,0,8.4l61.8,41.6c3.4,2.3,7.9-0.1,7.9-4.2v-22.5h153.5c10.6,0.1,19.2-8.5,19.2-19.1v-106.4    C358.627,118.077,356.027,116.677,354.127,117.977z" fill="#FFFFFF"/>
	</g>
</g>
<g>
	<g>
		<path d="M483.027,145.077c-5.7-4.6-14.7-6.3-21.4,1.3c-4.8,5.4-7,22.2-7.8,26.7c-2.7,16.1-5.4,39.2-5.8,55.4    c0,1.1-0.1,2.6-0.2,3.7c-0.4,7.1-2.1,13.7-5.1,20.2c-16.4,35.7-49.4,80.8-49.4,80.8l-1.8,2.7c-1.4,2-4.1,2.7-6.3,1.5    c-2.4-1.3-3.2-4.4-1.8-6.7l43.6-71.2c4.7-7.9,2-19.1-6.6-24.3c-8.6-5.2-19.7-2.6-24.4,5.3l-45.3,58.4c-3,3.8-8.5,9.3-12.5,12.1    c-40.8,29.4-46.3,59.2-49.9,74.5c0,0-0.3,3.4-0.4,8.4c0,4.1,0.1,9.2,0.8,14.3l2.7,49c0,3.6,2.9,6.5,6.5,6.5l76.7-0.4    c3.6,0,6.5-2.9,6.5-6.5l1.4-40.5l72.9-87.8c10.8-11.4,18.1-24.2,20.4-39.7l0.7-4.5l12.7-123.1    C489.927,155.177,487.827,148.877,483.027,145.077z" fill="#FFFFFF"/>
	</g>
</g>
<g>
	<g>
		<path d="M57.727,167.877c-1.6-6.3-5.3-10.8-11.6-12.9c1.3,4.4,2.2,8.7,2.9,12.9c2.4,13.9,5.8,39,6,52.4c0,1.4,0.1,2.7,0.1,4.1    c1.5-1.3,3.1-2.6,4.9-3.7c2.2-1.4,4.5-2.4,6.9-3.2c0.1-0.2,0.2-0.3,0.3-0.4C65.527,204.377,61.027,180.277,57.727,167.877z" fill="#FFFFFF"/>
	</g>
</g>
<g>
	<g>
		<path d="M407.527,185.377c-2.1,7.7-7.6,24.1-8.8,32.4c3.5-1.3,7.2-2,10.9-2.2c0-0.6,0-1.2,0.1-1.8l0.8-6.1    c1.2-9,6.4-25.9,8.4-35.1C412.727,174.677,409.127,179.177,407.527,185.377z" fill="#FFFFFF"/>
	</g>
</g>
<g>
</g>
<g>
</g>
<g>
</g>
<g>
</g>
<g>
</g>
<g>
</g>
<g>
</g>
<g>
</g>
<g>
</g>
<g>
</g>
<g>
</g>
<g>
</g>
<g>
</g>
<g>
</g>
<g>
</g>
</svg>
