<svg xmlns="http://www.w3.org/2000/svg" xmlns:xlink="http://www.w3.org/1999/xlink" preserveAspectRatio="xMidYMid" width="27.313" height="59.53" viewBox="0 0 27.313 59.53">
  <defs>
    <style>
      .cls-1 {
        fill: #622871;
        fill-rule: evenodd;
      }
    </style>
  </defs>
  <path d="M5.379,31.768 C6.016,31.930 6.611,32.317 7.164,32.741 C9.503,34.535 14.551,38.835 14.844,39.065 C15.172,39.324 15.725,39.270 15.831,38.828 C15.942,38.370 13.190,30.260 12.909,29.550 C10.794,24.198 2.301,5.462 0.351,1.375 C0.230,1.123 -0.237,0.190 0.163,0.003 C0.563,-0.185 3.144,0.957 3.904,1.502 C4.639,2.030 5.158,2.763 5.621,3.528 C5.884,3.966 6.131,4.412 6.392,4.851 C8.549,8.479 17.150,25.990 20.283,34.581 C20.567,35.359 20.886,35.771 21.628,35.192 C21.822,35.041 21.905,34.661 21.983,34.446 C22.170,33.932 22.335,33.410 22.489,32.884 C22.878,31.560 23.875,27.598 24.065,26.575 C24.220,25.746 24.556,24.632 25.529,24.450 C26.905,24.193 27.230,25.777 27.302,26.811 C27.325,27.131 26.030,39.846 25.775,45.924 C25.637,49.191 25.694,52.487 25.207,55.725 C25.020,56.972 24.641,58.758 23.376,59.372 C22.400,59.845 20.824,59.153 20.285,58.223 C18.016,54.303 9.482,40.764 7.322,38.057 C6.196,36.645 4.982,35.350 3.786,34.005 C2.524,32.584 3.548,31.304 5.379,31.768 Z" class="cls-1"/>
</svg>
