<svg xmlns="http://www.w3.org/2000/svg" xmlns:xlink="http://www.w3.org/1999/xlink" preserveAspectRatio="xMidYMid" width="26" height="23" viewBox="0 0 26 23">
  <defs>
    <style>
      .cls-1 {
        fill: #ffffff;
        fill-rule: evenodd;
      }
    </style>
  </defs>
  <path d="M25.087,2.786 L7.533,23.000 L0.005,10.531 C0.005,10.531 -0.137,8.934 1.776,9.923 C2.493,10.293 3.510,11.351 4.763,12.964 C5.390,13.771 6.076,14.716 6.813,15.783 L7.898,17.378 C7.958,17.419 7.996,17.432 8.019,17.428 C8.038,17.385 8.048,17.354 8.053,17.333 L8.056,17.318 L8.056,17.312 L8.057,17.309 L8.057,17.308 L8.088,17.270 L8.627,16.633 C9.353,15.775 10.115,14.887 10.908,13.974 C17.245,6.677 24.271,-0.344 25.264,0.012 C26.257,0.367 26.292,1.398 25.087,2.786 Z" class="cls-1"/>
</svg>
