<svg xmlns="http://www.w3.org/2000/svg" width="2054.647" height="369.426" viewBox="0 0 2054.647 369.426"><circle fill="#DADADA" cx="745.105" cy="242.789" r="22.377"/><circle fill="#DADADA" cx="472.843" cy="130.94" r="22.377"/><circle fill="#DADADA" cx="422.621" cy="121.294" r="10.377"/><circle fill="#DADADA" cx="781.104" cy="205.291" r="10.378"/><circle fill="#DADADA" cx="1189.083" cy="113.794" r="10.378"/><circle fill="#DADADA" cx="874.099" cy="82.296" r="10.378"/><circle fill="#DADADA" cx="878" cy="144.675" r="10.378"/><circle fill="#DADADA" cx="1519.066" cy="280.287" r="10.378"/><circle fill="#DADADA" cx="1593" cy="203.676" r="5.378"/><circle fill="#DADADA" cx="1112" cy="34.675" r="5.378"/><circle fill="#DADADA" cx="848" cy="155.676" r="5.378"/><circle fill="#DADADA" cx="385" cy="109.675" r="5.378"/><circle fill="#DADADA" cx="1528.5" cy="173.176" r="9.748"/><circle fill="#DADADA" cx="1242" cy="199.676" r="5.378"/><circle fill="#DADADA" cx="784" cy="130.675" r="5.378"/><circle fill="#DADADA" cx="437" cy="199.676" r="5.378"/><path opacity=".2" fill-rule="evenodd" clip-rule="evenodd" fill="#1E1E1C" d="M470.62 224.79c-.002 5.92-9 5.917-8.998-.007.003-5.924 9.002-5.918 8.997.006zm3.996.003c-.007 11.184-17 11.174-16.993-.014.008-11.184 17-11.175 16.993.013zm4.247 3.355c-.307 1.164-.77 2.268-1.365 3.285l1.637 2.72-3.66 3.653-2.72-1.635c-1.018.597-2.122 1.056-3.29 1.362l-.768 3.082-5.17-.004-.77-3.082c-1.167-.31-2.267-.77-3.284-1.365l-2.72 1.635-3.655-3.66 1.637-2.72c-.595-1.02-1.057-2.122-1.362-3.29l-3.078-.766v-5.174l3.082-.766c.31-1.164.77-2.268 1.366-3.285l-1.635-2.725 3.66-3.648 2.72 1.633c1.016-.594 2.12-1.057 3.288-1.36l.768-3.08 5.174.003.764 3.082c1.166.305 2.27.77 3.286 1.365l2.722-1.633 3.655 3.658-1.636 2.72c.592 1.015 1.054 2.12 1.358 3.29l3.08.766-.005 5.172-3.08.768zM1160.783 70.42c-.002 10.97-16.676 10.965-16.67-.01.007-10.977 16.68-10.966 16.67.01zm7.406.007c-.014 20.722-31.498 20.704-31.487-.024.017-20.722 31.497-20.705 31.486.024zm7.87 6.217c-.57 2.158-1.427 4.203-2.53 6.09l3.032 5.035-6.782 6.77-5.04-3.03c-1.885 1.104-3.93 1.956-6.097 2.523l-1.42 5.71-9.582-.006-1.42-5.71c-2.165-.573-4.202-1.43-6.088-2.53l-5.04 3.027-6.772-6.78 3.032-5.042c-1.102-1.886-1.958-3.932-2.524-6.093l-5.703-1.42.002-9.587 5.71-1.42c.57-2.155 1.425-4.2 2.53-6.087l-3.03-5.047 6.78-6.763 5.042 3.025c1.88-1.1 3.928-1.955 6.092-2.517l1.422-5.71 9.586.006 1.415 5.71c2.16.566 4.205 1.43 6.09 2.53l5.042-3.026 6.772 6.78-3.03 5.04c1.098 1.88 1.953 3.926 2.518 6.094l5.707 1.42-.01 9.58-5.706 1.426zM1272.657 227.42c0 6.855-10.42 6.852-10.417-.008.004-6.857 10.423-6.85 10.417.008zm4.628.004c-.008 12.95-19.682 12.938-19.676-.016.01-12.95 19.682-12.937 19.675.016zm4.918 3.885c-.355 1.35-.892 2.626-1.58 3.804l1.894 3.146-4.237 4.232-3.15-1.895c-1.178.69-2.456 1.223-3.81 1.578l-.888 3.566h-5.987l-.89-3.57c-1.35-.358-2.624-.894-3.803-1.58l-3.15 1.892-4.23-4.236 1.896-3.152c-.688-1.178-1.224-2.455-1.578-3.807l-3.563-.887v-5.99l3.568-.887c.357-1.348.892-2.625 1.582-3.805l-1.893-3.154 4.236-4.225 3.15 1.89c1.176-.686 2.455-1.223 3.808-1.572l.888-3.568 5.99.004.885 3.568c1.352.354 2.63.893 3.806 1.58l3.15-1.89 4.233 4.235-1.895 3.15c.687 1.174 1.22 2.453 1.573 3.807l3.566.887-.006 5.99-3.565.89zM712.644 148.327c4.05 9.53 15.064 13.985 24.607 9.935 9.54-4.055 13.987-15.067 9.94-24.608-4.057-9.54-15.07-13.988-24.61-9.936-9.538 4.05-13.99 15.066-9.936 24.61zm7.568-3.218c2.276 5.353 8.465 7.852 13.82 5.575 5.36-2.276 7.856-8.457 5.582-13.812-2.273-5.363-8.463-7.863-13.818-5.586-5.358 2.278-7.86 8.463-5.584 13.822zm1.19-33.18l2.59 4.833c3.827-.938 7.733-.934 11.418-.097l2.504-4.88 6.528 2.634-1.59 5.25c3.234 1.962 6.046 4.674 8.147 8.005l5.223-1.68 2.748 6.48-4.835 2.592c.94 3.826.936 7.725.102 11.416l4.88 2.504-2.637 6.528-5.25-1.586c-1.958 3.235-4.67 6.044-8.005 8.142l1.682 5.225-6.482 2.752-2.584-4.84c-3.833.946-7.733.94-11.42.103l-2.505 4.88-6.53-2.638 1.59-5.252c-3.233-1.96-6.042-4.666-8.142-8.002l-5.224 1.685-2.752-6.487 4.835-2.59c-.94-3.827-.938-7.73-.1-11.412l-4.884-2.508 2.638-6.527 5.248 1.592c1.96-3.237 4.668-6.052 8.008-8.148l-1.682-5.22 6.48-2.753zm3.885 31.02c1.084 2.563 4.037 3.75 6.593 2.67 2.557-1.088 3.746-4.042 2.664-6.598-1.09-2.556-4.04-3.748-6.6-2.664-2.552 1.09-3.74 4.042-2.657 6.593zM1118.162 173.418c3.425 8.062 12.744 11.83 20.814 8.402 8.07-3.428 11.832-12.744 8.408-20.814-3.432-8.072-12.747-11.833-20.816-8.405-8.068 3.425-11.834 12.746-8.406 20.818zm6.402-2.72c1.926 4.528 7.16 6.642 11.69 4.716 4.533-1.926 6.646-7.154 4.722-11.684-1.924-4.537-7.158-6.652-11.69-4.727-4.53 1.93-6.646 7.16-4.722 11.694zm1.006-28.068l2.19 4.088c3.24-.795 6.543-.79 9.66-.082l2.118-4.13 5.52 2.23-1.343 4.44c2.734 1.66 5.113 3.954 6.89 6.772l4.42-1.42 2.325 5.482-4.092 2.19c.796 3.237.792 6.536.086 9.66l4.13 2.116-2.23 5.52-4.44-1.34c-1.658 2.737-3.95 5.114-6.773 6.888l1.423 4.418-5.482 2.328-2.185-4.092c-3.244.8-6.543.795-9.662.088l-2.117 4.127-5.525-2.232 1.347-4.44c-2.735-1.658-5.11-3.947-6.888-6.77l-4.42 1.424-2.327-5.486 4.09-2.19c-.794-3.237-.792-6.54-.085-9.653l-4.13-2.123 2.232-5.52 4.438 1.344c1.658-2.738 3.95-5.12 6.774-6.893l-1.423-4.415 5.48-2.328zm3.287 26.24c.917 2.167 3.415 3.173 5.577 2.26 2.163-.923 3.17-3.42 2.253-5.583-.922-2.162-3.417-3.17-5.582-2.254-2.16.922-3.165 3.42-2.248 5.578zM1543.185 247.363c3.425 8.062 12.744 11.83 20.815 8.402 8.068-3.428 11.832-12.744 8.408-20.816-3.432-8.07-12.748-11.833-20.816-8.403-8.07 3.424-11.834 12.744-8.407 20.816zm6.403-2.722c1.925 4.53 7.16 6.644 11.69 4.718 4.532-1.926 6.646-7.152 4.722-11.682-1.924-4.54-7.158-6.652-11.69-4.727s-6.648 7.157-4.722 11.69zm1.006-28.064l2.19 4.086c3.238-.793 6.542-.79 9.66-.082l2.117-4.127 5.523 2.23-1.345 4.44c2.735 1.658 5.114 3.953 6.892 6.77l4.418-1.42 2.326 5.48-4.092 2.193c.795 3.236.79 6.533.086 9.656l4.13 2.12-2.23 5.52-4.442-1.342c-1.656 2.738-3.95 5.113-6.77 6.887l1.42 4.42-5.48 2.328-2.187-4.092c-3.245.8-6.544.795-9.663.086l-2.118 4.128-5.526-2.232 1.346-4.44c-2.735-1.66-5.11-3.95-6.888-6.77l-4.418 1.423-2.328-5.487 4.09-2.19c-.794-3.24-.792-6.54-.084-9.653l-4.13-2.123 2.23-5.52 4.44 1.345c1.658-2.738 3.95-5.12 6.773-6.893l-1.422-4.415 5.48-2.33zm3.287 26.24c.917 2.166 3.415 3.17 5.577 2.258 2.163-.922 3.17-3.42 2.254-5.582-.92-2.162-3.417-3.17-5.58-2.254-2.16.922-3.167 3.42-2.25 5.578z"/><path opacity=".4" fill-rule="evenodd" clip-rule="evenodd" fill="#BABBBC" d="M1282.604 129.704c3.272 0 5.922 2.648 5.922 5.92 0 3.273-2.65 5.924-5.922 5.924-3.27 0-5.923-2.65-5.923-5.924.002-3.27 2.653-5.92 5.924-5.92zm-29.893 16.037c-4.043-5.705-6.645-12.867-6.914-20.504 5.606 5.86 11.636 10.187 19.974 10.396 1.283-1.64 2.533-3.482 3.74-5.547 2.157-5.097 6.744-8.674 13.095-8.674 6.35 0 12.506 4.796 13.89 11.193l8.28 2.79-8.18 2.766c-5.386 29.916-43.134 31.135-63.25 9.47 6.897.656 13.388.458 19.366-1.89z"/><path fill="none" stroke="#B3B2B2" stroke-width="2.499" stroke-miterlimit="10" stroke-dasharray="12.496" d="M2054.03 156.297c-239.99-136.493-427.48 0-427.48 0-184.49 131.994-424.48 1.5-424.48 1.5-218.988-137.994-409.478 1.5-409.478 1.5s-175.49 136.494-383.98-3c0 0-182.99-133.494-407.98-1.5"/><path fill="#D71B60" d="M703.417 216.06c0 57.104-46.29 103.394-103.396 103.394s-103.397-46.29-103.397-103.395 46.293-103.4 103.398-103.4 103.397 46.293 103.397 103.4z"/><circle fill="#299d00" cx="1004.229" cy="103.399" r="103.397"/><circle fill="#6441A5" cx="1402.468" cy="216.059" r="103.398"/><g fill="#1E1E1C"><path d="M548.016 351.46c0-.26.208-.495.494-.495h6.267c3.198 0 5.824 2.6 5.824 5.746 0 3.226-2.625 5.852-5.797 5.852h-2.73v6.11c0 .26-.234.494-.494.494h-3.07c-.285 0-.493-.234-.493-.494V351.46zm6.526 7.306c1.118 0 2.055-.885 2.055-2.055 0-1.09-.937-1.923-2.055-1.923h-2.47v3.98h2.47zM559.95 368.49l8.138-17.5c.078-.155.26-.285.442-.285h.26c.183 0 .364.13.442.285l8.138 17.5c.156.338-.052.676-.44.676h-2.888c-.468 0-.676-.156-.91-.65l-.936-2.055h-7.072l-.936 2.08c-.13.313-.416.626-.937.626h-2.86c-.388 0-.596-.338-.44-.677zm10.687-5.564l-1.977-4.29h-.026l-1.95 4.29h3.953zM578.46 366.695l1.224-2.158c.208-.338.702-.285.884-.156.104.054 1.977 1.432 3.692 1.432 1.04 0 1.794-.65 1.794-1.56 0-1.093-.91-1.925-2.678-2.627-2.236-.884-5.045-2.626-5.045-5.746 0-2.575 2.003-5.175 6.008-5.175 2.704 0 4.784 1.378 5.563 1.95.313.182.262.65.157.83l-1.326 2.004c-.18.285-.648.52-.883.337-.234-.13-2.132-1.56-3.718-1.56-.938 0-1.64.623-1.64 1.325 0 .962.78 1.69 2.834 2.522 2.028.806 5.253 2.393 5.253 5.928 0 2.68-2.314 5.383-6.137 5.383-3.38 0-5.252-1.404-5.85-2.002-.26-.26-.337-.363-.13-.728zM592.71 366.695l1.222-2.158c.208-.338.702-.285.884-.156.104.054 1.977 1.432 3.692 1.432 1.04 0 1.794-.65 1.794-1.56 0-1.093-.91-1.925-2.678-2.627-2.236-.884-5.045-2.626-5.045-5.746 0-2.575 2-5.175 6.006-5.175 2.704 0 4.784 1.378 5.563 1.95.31.182.26.65.155.83l-1.326 2.004c-.183.285-.65.52-.885.337-.234-.13-2.132-1.56-3.718-1.56-.937 0-1.64.623-1.64 1.325 0 .962.78 1.69 2.835 2.522 2.028.806 5.253 2.393 5.253 5.928 0 2.68-2.314 5.383-6.137 5.383-3.38 0-5.252-1.404-5.85-2.002-.26-.26-.337-.363-.13-.728zM607.997 351.46c0-.26.234-.495.494-.495h3.12c.26 0 .495.234.495.494v17.212c0 .26-.234.494-.494.494h-3.12c-.26 0-.493-.234-.493-.494V351.46zM624.585 350.705c5.2 0 9.36 4.186 9.36 9.387 0 5.2-4.16 9.334-9.36 9.334s-9.334-4.135-9.334-9.334c0-5.2 4.135-9.387 9.335-9.387zm0 14.56c2.86 0 5.2-2.34 5.2-5.173 0-2.86-2.34-5.227-5.2-5.227-2.834 0-5.174 2.365-5.174 5.227 0 2.834 2.34 5.174 5.175 5.174zM637.064 351.173c0-.26.233-.468.494-.468h.65l10.374 9.984h.025v-9.23c0-.26.208-.495.494-.495h3.12c.26 0 .495.234.495.494v17.497c0 .26-.234.47-.494.47h-.415c-.078 0-.286-.08-.338-.132l-10.27-10.322h-.026v9.7c0 .26-.207.493-.493.493h-3.095c-.26 0-.494-.234-.494-.494l-.024-17.5z"/></g><g fill="#1E1E1C"><path d="M972.27 238.8c0-.26.235-.493.495-.493h3.12c.26 0 .494.234.494.494v17.214c0 .26-.234.494-.495.494h-3.12c-.26 0-.494-.234-.494-.494V238.8zM980.852 238.8c0-.26.208-.493.468-.493h6.345c5.018 0 9.126 4.082 9.126 9.074 0 5.046-4.107 9.128-9.125 9.128h-6.345c-.26 0-.468-.234-.468-.494V238.8zm6.55 13.86c2.94 0 5.07-2.314 5.07-5.28 0-2.937-2.13-5.25-5.07-5.25h-2.495v10.53h2.496zM999.96 238.8c0-.26.21-.493.495-.493h10.765c.286 0 .494.234.494.494v2.835c0 .26-.208.494-.494.494h-7.202v3.224h5.928c.26 0 .494.233.494.493v2.835c0 .285-.233.493-.494.493h-5.928v3.51h7.202c.286 0 .494.234.494.495v2.834c0 .26-.208.494-.494.494h-10.765c-.286 0-.494-.234-.494-.494V238.8zM1012.857 255.83l8.138-17.498c.078-.155.26-.285.442-.285h.26c.183 0 .364.13.442.285l8.137 17.5c.156.338-.052.676-.44.676h-2.888c-.47 0-.677-.156-.91-.65l-.937-2.055h-7.072l-.935 2.08c-.13.312-.416.625-.937.625h-2.86c-.39 0-.597-.338-.44-.677zm10.687-5.562l-1.977-4.29h-.026l-1.948 4.29h3.952zM1031.368 254.037l1.223-2.158c.21-.34.703-.286.885-.157.104.053 1.977 1.43 3.692 1.43 1.04 0 1.794-.65 1.794-1.56 0-1.092-.91-1.924-2.677-2.626-2.236-.884-5.045-2.626-5.045-5.746 0-2.573 2.002-5.173 6.007-5.173 2.704 0 4.784 1.378 5.563 1.95.312.182.26.65.156.83l-1.326 2.004c-.182.287-.65.52-.884.34-.234-.13-2.132-1.56-3.718-1.56-.937 0-1.64.622-1.64 1.324 0 .962.78 1.69 2.835 2.522 2.03.806 5.254 2.393 5.254 5.928 0 2.68-2.314 5.383-6.137 5.383-3.38 0-5.252-1.404-5.85-2.002-.26-.26-.337-.364-.13-.728z"/></g><g fill="#1E1E1C"><path d="M1351.585 351.46c0-.26.208-.495.494-.495h7.773c3.12 0 5.668 2.52 5.668 5.616 0 2.393-1.585 4.317-3.847 5.227l3.562 6.605c.183.338 0 .754-.44.754h-3.46c-.208 0-.363-.13-.416-.234l-3.46-6.89h-1.793v6.63c0 .26-.233.494-.494.494h-3.094c-.287 0-.495-.234-.495-.494V351.46zm7.93 7.28c1.066 0 1.977-.99 1.977-2.08 0-1.094-.91-1.977-1.976-1.977h-3.85v4.056h3.85zM1369.005 351.46c0-.26.208-.495.494-.495h10.764c.286 0 .494.234.494.494v2.833c0 .26-.208.494-.494.494h-7.202v3.225h5.928c.26 0 .494.233.494.493v2.835c0 .285-.234.493-.494.493h-5.928v3.51h7.202c.286 0 .494.234.494.495v2.834c0 .26-.208.494-.494.494H1369.5c-.287 0-.495-.234-.495-.494V351.46zM1383.2 366.695l1.223-2.158c.208-.338.702-.285.884-.156.104.054 1.977 1.432 3.692 1.432 1.04 0 1.793-.65 1.793-1.56 0-1.093-.91-1.925-2.678-2.627-2.236-.884-5.045-2.626-5.045-5.746 0-2.575 2.003-5.175 6.007-5.175 2.704 0 4.784 1.378 5.564 1.95.313.182.26.65.156.83l-1.326 2.004c-.182.285-.65.52-.884.337-.233-.13-2.132-1.56-3.718-1.56-.937 0-1.64.623-1.64 1.325 0 .962.78 1.69 2.836 2.522 2.027.806 5.252 2.393 5.252 5.928 0 2.68-2.314 5.383-6.137 5.383-3.38 0-5.253-1.404-5.85-2.002-.26-.26-.337-.363-.13-.728zM1398.23 351.46c0-.26.233-.495.493-.495h3.198c.287 0 .495.234.495.494v10.53c0 1.82 1.352 3.275 3.198 3.275 1.872 0 3.25-1.456 3.25-3.276v-10.53c0-.26.208-.495.494-.495h3.198c.26 0 .494.234.494.494v10.737c0 3.952-3.33 7.23-7.438 7.23-4.082 0-7.385-3.277-7.385-7.23V351.46zM1417.234 351.46c0-.26.208-.495.494-.495h3.094c.26 0 .494.234.494.494v13.884h6.188c.286 0 .494.233.494.494v2.834c0 .26-.208.494-.494.494h-9.776c-.286 0-.494-.234-.494-.494V351.46zM1431.872 354.787h-3.718c-.286 0-.494-.234-.494-.494v-2.834c0-.26.208-.495.494-.495h11.544c.286 0 .494.234.494.494v2.833c0 .26-.208.494-.494.494h-3.718v13.885c0 .26-.234.494-.494.494h-3.12c-.26 0-.494-.234-.494-.494v-13.885zM1441.752 366.695l1.222-2.158c.208-.338.702-.285.885-.156.103.054 1.975 1.432 3.69 1.432 1.04 0 1.795-.65 1.795-1.56 0-1.093-.91-1.925-2.68-2.627-2.235-.884-5.043-2.626-5.043-5.746 0-2.575 2.002-5.175 6.006-5.175 2.704 0 4.784 1.378 5.564 1.95.312.182.26.65.156.83l-1.326 2.004c-.182.285-.65.52-.884.337-.234-.13-2.133-1.56-3.72-1.56-.935 0-1.637.623-1.637 1.325 0 .962.78 1.69 2.835 2.522 2.028.806 5.252 2.393 5.252 5.928 0 2.68-2.313 5.383-6.136 5.383-3.38 0-5.25-1.404-5.85-2.002-.258-.26-.336-.363-.128-.728z"/></g><path fill="#FFF" d="M620.515 182.938c-11.498 0-22.682 13.795-22.682 13.795s-11.184-13.795-22.682-13.795c-11.5 0-22.475 5.75-22.475 22.684 0 12.02 11.29 22.578 11.29 22.578l33.867 33.762L631.7 228.2s11.29-10.56 11.29-22.578c0-16.934-10.975-22.684-22.475-22.684zM980.163 66.36c1.547-1.04 3.19-1.94 4.87-2.77l-5.88-10.177c-.773-1.34-2.49-1.793-3.824-1.027-1.335.772-1.8 2.487-1.024 3.827l5.857 10.146zm-24.38 10.43l10.173 5.87c.834-1.683 1.732-3.322 2.77-4.865l-10.144-5.857c-1.335-.77-3.05-.316-3.823 1.023-.776 1.34-.31 3.052 1.022 3.83zm76.78-20.576c.773-1.34.31-3.055-1.025-3.827-1.34-.766-3.05-.312-3.824 1.027l-5.88 10.176c1.68.83 3.324 1.73 4.872 2.77l5.856-10.146zm18.514 20.575c1.334-.778 1.8-2.49 1.024-3.83-.773-1.34-2.49-1.792-3.82-1.022l-10.147 5.857c1.036 1.543 1.938 3.187 2.77 4.866l10.174-5.87zm-89.445 24.273c0-.943.082-1.87.14-2.8H950.03c-1.547 0-2.798 1.256-2.798 2.8 0 1.546 1.25 2.8 2.798 2.8h11.708c-.066-.93-.104-1.86-.104-2.8zm44.598-41.654V47.66c0-1.547-1.253-2.8-2.8-2.8-1.54 0-2.8 1.253-2.8 2.8v11.75c.935-.068 1.854-.145 2.808-.145.942 0 1.864.077 2.792.144zm50.6 38.853h-11.74c.058.932.138 1.857.138 2.8 0 .94-.036 1.87-.104 2.8h11.707c1.55 0 2.802-1.253 2.802-2.8 0-1.543-1.253-2.8-2.8-2.8zm-5.753 27.076l-10.158-5.865c-.827 1.676-1.772 3.294-2.808 4.845l10.167 5.87c.44.256.92.374 1.39.374.974 0 1.91-.5 2.432-1.4.775-1.338.31-3.05-1.025-3.825zm-95.295 0c-1.333.776-1.798 2.486-1.023 3.827.52.898 1.458 1.4 2.43 1.4.472 0 .957-.122 1.393-.377l10.167-5.868c-1.04-1.554-1.98-3.172-2.807-4.844l-10.16 5.86zm66.037-22.207c-1.194 0-2.85.688-3.7 1.536l-1.258 1.256c-.842.843-2.21.843-3.06 0l-1.26-1.26c-.846-.85-2.26-1.533-3.167-1.533-.89 0-2.307.685-3.153 1.532l-1.26 1.26c-.847.844-2.22.844-3.065 0l-1.26-1.256c-.84-.85-2.254-1.537-3.152-1.537s-2.314.688-3.162 1.536l-1.26 1.256c-.85.843-2.218.843-3.064 0l-1.253-1.257c-.848-.85-2.5-1.537-3.7-1.537h-1.04c-1.19 0-1.48.688-.633 1.536l6.625 6.623c.846.847 2.215.847 3.062 0l2.89-2.885c.84-.848 2.21-.848 3.06 0l2.886 2.885c.847.847 2.22.847 3.066 0l2.887-2.885c.85-.848 2.22-.848 3.06 0l2.895 2.888c.848.844 2.217.844 3.064-.003l6.624-6.624c.848-.85.56-1.537-.635-1.537h-1.04zm-18.382-37.676c-19.674 0-35.617 15.948-35.617 35.606 0 11.98 5.924 22.538 14.987 28.99.92.66 1.694 2.046 1.71 3.184v14.933h.308c.995 2.01 4.45 3.712 9.22 4.7.728 3.09 4.632 5.458 9.394 5.458 4.74 0 8.655-2.37 9.392-5.46 4.752-.986 8.215-2.687 9.2-4.698h.32v-14.907c0-1.138.786-2.55 1.716-3.212 9.055-6.453 14.97-17.008 14.97-28.986 0-19.66-15.936-35.607-35.6-35.607zm15.213 59.856l-1.524.966c-.97.61-1.73 2.102-1.73 3.395v4.317c-3.257.96-7.414 1.54-11.957 1.54-4.556 0-8.712-.58-11.968-1.54v-4.317c0-1.294-.758-2.786-1.73-3.396l-1.52-.967c-8.42-5.286-13.445-14.353-13.445-24.25 0-15.8 12.857-28.658 28.662-28.658 15.802 0 28.657 12.857 28.657 28.658 0 9.894-5.03 18.96-13.446 24.25zM1373.183 229.062h-21.73c-1.485 0-2.688 1.205-2.688 2.69v24.413h27.11v-24.412c0-1.485-1.205-2.69-2.692-2.69zm36.146-22.59h-21.73c-1.486 0-2.688 1.202-2.688 2.688v47.006h27.11V209.16c0-1.486-1.207-2.69-2.693-2.69zm38.827 49.694v-67.764c0-1.488 1.205-2.69 2.692-2.69h6.646c1.486 0 1.84-.855.795-1.903l-21.55-21.548c-1.055-1.05-2.754-1.05-3.806 0l-21.545 21.547c-1.054 1.048-.698 1.9.788 1.9h6.186c1.49 0 2.69 1.204 2.69 2.692v67.764h27.103z"/></svg>