<svg width="51" height="50" viewBox="0 0 51 50" fill="none" xmlns="http://www.w3.org/2000/svg">
<g clip-path="url(#clip0_63_113)">
<path fill-rule="evenodd" clip-rule="evenodd" d="M36.2827 40.1601C36.2057 40.1603 36.1295 40.1452 36.0584 40.1157C35.9873 40.0862 35.9228 40.0429 35.8686 39.9883L34.5444 38.664C34.4347 38.5542 34.373 38.4052 34.373 38.25C34.373 38.0947 34.4347 37.9458 34.5444 37.8359C34.6543 37.7262 34.8032 37.6646 34.9585 37.6646C35.1137 37.6646 35.2627 37.7262 35.3725 37.8359L36.6967 39.1601C36.8065 39.2702 36.8682 39.4193 36.8682 39.5747C36.8682 39.7301 36.8065 39.8792 36.6967 39.9892C36.6424 40.0436 36.5779 40.0867 36.5068 40.1161C36.4357 40.1454 36.3596 40.1604 36.2827 40.1601Z" fill="#2166F3"/>
<path fill-rule="evenodd" clip-rule="evenodd" d="M27.7002 41.8428C24.8018 41.8428 22.0771 40.7139 20.0273 38.6641C17.9775 36.6143 16.8496 33.8896 16.8496 30.9912C16.8496 28.0928 17.9775 25.3682 20.0273 23.3184C22.0771 21.2695 24.8018 20.1406 27.7002 20.1406C30.5986 20.1406 33.3232 21.2686 35.373 23.3184C37.4229 25.3682 38.5508 28.0928 38.5508 30.9912C38.5508 33.8896 37.4229 36.6143 35.373 38.6641C33.3232 40.7139 30.5986 41.8428 27.7002 41.8428ZM27.7002 21.3115C25.1143 21.3115 22.6836 22.3184 20.8555 24.1465C19.0273 25.9756 18.0205 28.4063 18.0205 30.9912C18.0205 33.5771 19.0273 36.0078 20.8555 37.8359C22.6836 39.6641 25.1143 40.6709 27.7002 40.6709C30.2861 40.6709 32.7168 39.6641 34.5449 37.8359C36.373 36.0078 37.3799 33.5771 37.3799 30.9912C37.3799 28.4063 36.373 25.9756 34.5449 24.1465C32.7168 22.3184 30.2861 21.3115 27.7002 21.3115Z" fill="#2166F3"/>
<path fill-rule="evenodd" clip-rule="evenodd" d="M27.7009 39.6299C25.3933 39.6299 23.2244 38.7314 21.5925 37.0996C18.2244 33.7314 18.2244 28.251 21.5925 24.8828C23.2244 23.252 25.3933 22.3535 27.7009 22.3535C30.0085 22.3535 32.1775 23.252 33.8093 24.8828C35.4402 26.5146 36.3386 28.6836 36.3386 30.9912C36.3386 33.2988 35.4402 35.4678 33.8093 37.0996C32.1775 38.7314 30.0085 39.6299 27.7009 39.6299ZM27.7009 23.5244C25.7058 23.5244 23.8308 24.3008 22.4207 25.7119C19.5095 28.623 19.5095 33.3594 22.4207 36.2715C23.8318 37.6816 25.7068 38.458 27.7009 38.458C29.6951 38.458 31.5701 37.6816 32.9812 36.2715C34.3914 34.8613 35.1677 32.9863 35.1677 30.9912C35.1677 28.9971 34.3914 27.1221 32.9812 25.7119C31.5701 24.3008 29.6951 23.5244 27.7009 23.5244ZM42.0886 47.9111C41.4099 47.9111 40.7732 47.6484 40.2966 47.1709L35.8699 42.7451C34.8816 41.7568 34.8816 40.1484 35.8699 39.1602C36.3474 38.6836 36.9841 38.4199 37.6628 38.4199C38.3406 38.4199 38.9773 38.6836 39.4548 39.1602L43.8806 43.5869C44.3582 44.0635 44.6208 44.7002 44.6208 45.3789C44.6208 46.0576 44.3582 46.6943 43.8806 47.1709C43.4031 47.6484 42.7673 47.9111 42.0886 47.9111ZM37.6619 39.5918C37.2966 39.5918 36.9539 39.7324 36.698 39.9883C36.1667 40.5205 36.1667 41.3848 36.698 41.917L41.1248 46.3428C41.3806 46.5986 41.7224 46.7402 42.0886 46.7402C42.4539 46.7402 42.7966 46.5986 43.0525 46.3428C43.3084 46.0869 43.449 45.7441 43.449 45.3789C43.449 45.0127 43.3084 44.6709 43.0525 44.415L38.6267 39.9883C38.3699 39.7324 38.0281 39.5918 37.6619 39.5918Z" fill="#2166F3"/>
<path fill-rule="evenodd" clip-rule="evenodd" d="M24.042 33.7715C23.965 33.7717 23.8888 33.7566 23.8177 33.7271C23.7466 33.6976 23.6821 33.6543 23.6279 33.5996L21.4336 31.4053C21.3239 31.2954 21.2622 31.1465 21.2622 30.9912C21.2622 30.8359 21.3239 30.687 21.4336 30.5771L23.6279 28.3828C23.7378 28.2731 23.8867 28.2115 24.042 28.2115C24.1973 28.2115 24.3462 28.2731 24.4561 28.3828C24.5106 28.4371 24.5539 28.5016 24.5834 28.5727C24.613 28.6437 24.6282 28.7199 24.6282 28.7969C24.6282 28.8738 24.613 28.95 24.5834 29.0211C24.5539 29.0921 24.5106 29.1567 24.4561 29.2109L22.6758 30.9912L24.4561 32.7725C24.5106 32.8267 24.5539 32.8913 24.5834 32.9623C24.613 33.0334 24.6282 33.1096 24.6282 33.1865C24.6282 33.2635 24.613 33.3397 24.5834 33.4107C24.5539 33.4818 24.5106 33.5463 24.4561 33.6006C24.4017 33.655 24.3372 33.6981 24.2661 33.7274C24.195 33.7568 24.1189 33.7717 24.042 33.7715ZM31.3555 33.7715C31.2785 33.7717 31.2023 33.7566 31.1312 33.7271C31.0601 33.6976 30.9956 33.6543 30.9414 33.5996C30.8317 33.4897 30.77 33.3408 30.77 33.1855C30.77 33.0303 30.8317 32.8813 30.9414 32.7715L32.7227 30.9912L30.9414 29.2109C30.8317 29.1011 30.77 28.9521 30.77 28.7969C30.77 28.6416 30.8317 28.4927 30.9414 28.3828C31.0513 28.2731 31.2002 28.2115 31.3555 28.2115C31.5107 28.2115 31.6597 28.2731 31.7695 28.3828L33.9648 30.5771C34.0746 30.687 34.1362 30.8359 34.1362 30.9912C34.1362 31.1465 34.0746 31.2954 33.9648 31.4053L31.7695 33.5996C31.7154 33.6543 31.6509 33.6977 31.5798 33.7272C31.5087 33.7567 31.4324 33.7718 31.3555 33.7715ZM26.4316 33.7715C26.332 33.7715 26.2314 33.7461 26.1397 33.6934C25.8594 33.5312 25.7627 33.1728 25.9248 32.8936L28.459 28.5039C28.5366 28.3694 28.6645 28.2713 28.8144 28.231C28.9644 28.1907 29.1242 28.2116 29.2588 28.2891C29.3933 28.3669 29.4914 28.4949 29.5317 28.645C29.572 28.7952 29.5511 28.9551 29.4736 29.0898L26.9395 33.4785C26.8311 33.667 26.6338 33.7715 26.4316 33.7715ZM8.80078 16.5586H4.95117C4.62695 16.5586 4.36523 16.2969 4.36523 15.9736C4.36523 15.6494 4.62695 15.3877 4.95117 15.3877H8.80078C9.125 15.3877 9.38672 15.6494 9.38672 15.9736C9.38672 16.0505 9.37156 16.1267 9.3421 16.1977C9.31264 16.2687 9.26947 16.3333 9.21504 16.3876C9.16062 16.4419 9.09602 16.485 9.02494 16.5143C8.95385 16.5437 8.87768 16.5587 8.80078 16.5586ZM18.0234 16.5586H14.1729C13.8496 16.5586 13.5869 16.2969 13.5869 15.9736C13.5869 15.6494 13.8496 15.3877 14.1729 15.3877H18.0234C18.1003 15.3877 18.1765 15.4029 18.2475 15.4323C18.3186 15.4618 18.3831 15.5049 18.4374 15.5594C18.4917 15.6138 18.5348 15.6784 18.5642 15.7495C18.5935 15.8206 18.6085 15.8967 18.6084 15.9736C18.6084 16.2969 18.3467 16.5586 18.0234 16.5586ZM27.2461 16.5586H23.3955C23.0723 16.5586 22.8096 16.2969 22.8096 15.9736C22.8096 15.6494 23.0723 15.3877 23.3955 15.3877H27.2461C27.323 15.3877 27.3991 15.4029 27.4702 15.4323C27.5412 15.4618 27.6057 15.5049 27.6601 15.5594C27.7144 15.6138 27.7575 15.6784 27.7868 15.7495C27.8161 15.8206 27.8312 15.8967 27.8311 15.9736C27.8311 16.2969 27.5693 16.5586 27.2461 16.5586ZM36.4678 16.5586H32.6172C32.2939 16.5586 32.0322 16.2969 32.0322 15.9736C32.0322 15.6494 32.2939 15.3877 32.6172 15.3877H36.4678C36.791 15.3877 37.0537 15.6494 37.0537 15.9736C37.0537 16.2969 36.791 16.5586 36.4678 16.5586ZM45.6904 16.5586H41.8398C41.5166 16.5586 41.2539 16.2969 41.2539 15.9736C41.2539 15.6494 41.5166 15.3877 41.8398 15.3877H45.6904C45.7673 15.3877 45.8435 15.4029 45.9145 15.4323C45.9855 15.4618 46.0501 15.5049 46.1044 15.5594C46.1587 15.6138 46.2018 15.6784 46.2311 15.7495C46.2605 15.8206 46.2755 15.8967 46.2754 15.9736C46.2754 16.2969 46.0137 16.5586 45.6904 16.5586ZM8.80078 22.4248H4.95117C4.62695 22.4248 4.36523 22.1621 4.36523 21.8389C4.36523 21.5156 4.62695 21.2529 4.95117 21.2529H8.80078C9.125 21.2529 9.38672 21.5156 9.38672 21.8389C9.38672 22.1621 9.125 22.4248 8.80078 22.4248ZM18.0234 22.4248H14.1729C13.8496 22.4248 13.5869 22.1621 13.5869 21.8389C13.5869 21.5156 13.8496 21.2529 14.1729 21.2529H18.0234C18.3467 21.2529 18.6084 21.5156 18.6084 21.8389C18.6084 22.1621 18.3467 22.4248 18.0234 22.4248ZM45.6904 22.4248H41.8398C41.5166 22.4248 41.2539 22.1621 41.2539 21.8389C41.2539 21.5156 41.5166 21.2529 41.8398 21.2529H45.6904C46.0137 21.2529 46.2754 21.5156 46.2754 21.8389C46.2754 22.1621 46.0137 22.4248 45.6904 22.4248ZM8.80078 28.29H4.95117C4.62695 28.29 4.36523 28.0273 4.36523 27.7041C4.36523 27.3809 4.62695 27.1182 4.95117 27.1182H8.80078C9.125 27.1182 9.38672 27.3809 9.38672 27.7041C9.38672 28.0273 9.125 28.29 8.80078 28.29ZM17.9717 28.29H14.1729C13.8496 28.29 13.5869 28.0273 13.5869 27.7041C13.5869 27.3809 13.8496 27.1182 14.1729 27.1182H17.9717C18.2949 27.1182 18.5576 27.3809 18.5576 27.7041C18.5576 28.0273 18.2949 28.29 17.9717 28.29ZM45.6904 28.29H41.8398C41.5166 28.29 41.2539 28.0273 41.2539 27.7041C41.2539 27.3809 41.5166 27.1182 41.8398 27.1182H45.6904C46.0137 27.1182 46.2754 27.3809 46.2754 27.7041C46.2754 28.0273 46.0137 28.29 45.6904 28.29ZM8.80078 34.1562H4.95117C4.62695 34.1562 4.36523 33.8936 4.36523 33.5703C4.36523 33.2471 4.62695 32.9844 4.95117 32.9844H8.80078C9.125 32.9844 9.38672 33.2471 9.38672 33.5703C9.38672 33.8936 9.125 34.1562 8.80078 34.1562ZM17.7617 34.1562H14.1729C13.8496 34.1562 13.5869 33.8936 13.5869 33.5703C13.5869 33.2471 13.8496 32.9844 14.1729 32.9844H17.7617C18.085 32.9844 18.3477 33.2471 18.3477 33.5703C18.3477 33.8936 18.085 34.1562 17.7617 34.1562ZM45.6904 34.1562H41.8398C41.5166 34.1562 41.2539 33.8936 41.2539 33.5703C41.2539 33.2471 41.5166 32.9844 41.8398 32.9844H45.6904C46.0137 32.9844 46.2754 33.2471 46.2754 33.5703C46.2754 33.8936 46.0137 34.1562 45.6904 34.1562ZM8.80078 40.0215H4.95117C4.62695 40.0215 4.36523 39.7588 4.36523 39.4355C4.36523 39.1123 4.62695 38.8496 4.95117 38.8496H8.80078C9.125 38.8496 9.38672 39.1123 9.38672 39.4355C9.38672 39.7588 9.125 40.0215 8.80078 40.0215ZM18.0234 40.0215H14.1729C13.8496 40.0215 13.5869 39.7588 13.5869 39.4355C13.5869 39.1123 13.8496 38.8496 14.1729 38.8496H18.0234C18.3467 38.8496 18.6084 39.1123 18.6084 39.4355C18.6084 39.7588 18.3467 40.0215 18.0234 40.0215ZM45.6904 40.0215H41.8398C41.5166 40.0215 41.2539 39.7588 41.2539 39.4355C41.2539 39.1123 41.5166 38.8496 41.8398 38.8496H45.6904C46.0137 38.8496 46.2754 39.1123 46.2754 39.4355C46.2754 39.7588 46.0137 40.0215 45.6904 40.0215Z" fill="#2166F3" stroke="#2166F3"/>
<path fill-rule="evenodd" clip-rule="evenodd" d="M46.709 44.3779H43.2568C43.1016 44.3779 42.9531 44.3164 42.8428 44.2061L38.626 39.9893C38.3691 39.7324 38.0273 39.5918 37.6621 39.5918C37.3076 39.5918 36.9756 39.7236 36.7227 39.9648C36.708 39.9814 36.6914 39.9971 36.6748 40.0127C36.166 40.5459 36.1738 41.3926 36.6973 41.917L38.1582 43.3779C38.2402 43.4597 38.2961 43.5639 38.3187 43.6775C38.3413 43.791 38.3296 43.9087 38.2852 44.0156C38.2411 44.1229 38.1661 44.2145 38.0698 44.2791C37.9734 44.3436 37.8601 44.378 37.7441 44.3779H3.93457C1.94824 44.3779 0.332031 42.7617 0.332031 40.7764V5.69043C0.332031 3.7041 1.94824 2.08887 3.93457 2.08887H46.709C48.6943 2.08887 50.3105 3.7041 50.3105 5.69043V40.7764C50.3105 42.7617 48.6943 44.3779 46.709 44.3779ZM43.5 43.2061H46.708C48.0488 43.2061 49.1387 42.1162 49.1387 40.7764V5.69043C49.1387 4.35059 48.0488 3.25977 46.708 3.25977H3.93457C2.59375 3.25977 1.50391 4.35059 1.50391 5.69043V40.7764C1.50391 42.1162 2.59375 43.2061 3.93457 43.2061H36.3301L35.8691 42.7451C35.0234 41.8994 34.9014 40.5996 35.5029 39.623L34.9482 39.0674C32.9541 40.8613 30.4023 41.8428 27.7002 41.8428C24.8018 41.8428 22.0771 40.7139 20.0273 38.6641C15.7969 34.4336 15.7969 27.5488 20.0273 23.3184C22.0771 21.2695 24.8018 20.1406 27.7002 20.1406C30.5986 20.1406 33.3232 21.2695 35.373 23.3184C37.4229 25.3682 38.5508 28.0928 38.5508 30.9912C38.5518 33.6934 37.5703 36.2451 35.7764 38.2393L36.3311 38.7939C36.7266 38.5508 37.1836 38.4199 37.6611 38.4199C38.3398 38.4199 38.9766 38.6836 39.4541 39.1602L43.5 43.2061ZM27.7002 21.3115C25.1143 21.3115 22.6836 22.3184 20.8555 24.1465C17.082 27.9209 17.082 34.0615 20.8555 37.8359C22.6836 39.6641 25.1143 40.6709 27.7002 40.6709C30.2832 40.6709 32.7109 39.666 34.5391 37.8418L34.5449 37.8359L34.5508 37.8301C36.375 36.002 37.3799 33.5742 37.3799 30.9912C37.3799 28.4063 36.373 25.9746 34.5449 24.1465C32.7168 22.3184 30.2852 21.3115 27.7002 21.3115Z" fill="#2166F3"/>
<path fill-rule="evenodd" clip-rule="evenodd" d="M49.7236 12.2031H0.916992C0.59375 12.2031 0.332031 11.9404 0.332031 11.6172C0.332031 11.2939 0.59375 11.0312 0.916992 11.0312H49.7236C50.0469 11.0312 50.3096 11.2939 50.3096 11.6172C50.3096 11.9404 50.0469 12.2031 49.7236 12.2031ZM9.0498 7.73145H7.41504C7.0918 7.73145 6.8291 7.46875 6.8291 7.14551C6.8291 6.82227 7.0918 6.56055 7.41504 6.56055H9.0498C9.37305 6.56055 9.63476 6.82227 9.63476 7.14551C9.63476 7.46875 9.37305 7.73145 9.0498 7.73145ZM14.4795 7.73145H12.8447C12.5215 7.73145 12.2588 7.46875 12.2588 7.14551C12.2588 6.82227 12.5215 6.56055 12.8447 6.56055H14.4795C14.8027 6.56055 15.0645 6.82227 15.0645 7.14551C15.0645 7.46875 14.8027 7.73145 14.4795 7.73145ZM19.9092 7.73145H18.2744C17.9512 7.73145 17.6885 7.46875 17.6885 7.14551C17.6885 6.82227 17.9512 6.56055 18.2744 6.56055H19.9092C20.2324 6.56055 20.4941 6.82227 20.4941 7.14551C20.4941 7.46875 20.2324 7.73145 19.9092 7.73145Z" fill="#2166F3" stroke="#2166F3"/>
</g>
<defs>
<clipPath id="clip0_63_113">
<rect width="50" height="50" fill="white" transform="translate(0.320312)"/>
</clipPath>
</defs>
</svg>
