<svg width="56" height="56" viewBox="0 0 56 56" fill="none" xmlns="http://www.w3.org/2000/svg">
<g clip-path="url(#clip0_681_515)">
<path d="M8.437 15.9868C9.74922 15.9862 11.0411 15.6622 12.1982 15.0432C13.3553 14.4243 14.3419 13.5296 15.0707 12.4384H34.1628V10.6642H15.9551C16.2514 9.83033 16.4209 8.93703 16.4209 8.00291C16.4209 3.60025 12.8388 0.019043 8.437 0.019043C4.03522 0.019043 0.453125 3.60025 0.453125 8.00291C0.453125 12.4056 4.03522 15.9868 8.437 15.9868ZM8.437 1.79324C11.8612 1.79324 14.6467 4.57961 14.6467 8.00291C14.6467 11.4262 11.8612 14.2126 8.437 14.2126C5.0128 14.2126 2.22732 11.4262 2.22732 8.00291C2.22732 4.57961 5.0128 1.79324 8.437 1.79324Z" fill="#2166F3"/>
<path d="M12.6128 5.9688L11.3585 4.71445L6.66309 9.40985L5.51607 8.26283L4.26172 9.51719L6.66309 11.9186L12.6128 5.9688ZM50.1308 0.019043V12.4384H48.3566V3.56743H43.0341V12.4384H41.2599V7.11582H35.9373V14.2126H55.4534V0.019043H50.1308ZM39.4857 12.4384H37.7115V8.89001H39.4857V12.4384ZM44.8083 5.34162H46.5824V12.4384H44.8083V5.34162ZM53.6792 12.4384H51.905V1.79324H53.6792V12.4384ZM27.9534 24.8578C26.4862 24.8578 25.2921 26.0518 25.2921 27.519C25.2921 28.9863 26.4862 30.1803 27.9534 30.1803C29.4207 30.1803 30.6147 28.9863 30.6147 27.519C30.6147 26.0518 29.4207 24.8578 27.9534 24.8578ZM27.9534 28.4061C27.725 28.3959 27.5093 28.298 27.3513 28.1328C27.1933 27.9675 27.1051 27.7477 27.1051 27.519C27.1051 27.2904 27.1933 27.0706 27.3513 26.9053C27.5093 26.7401 27.725 26.6422 27.9534 26.6319C28.1818 26.6422 28.3975 26.7401 28.5555 26.9053C28.7135 27.0706 28.8017 27.2904 28.8017 27.519C28.8017 27.7477 28.7135 27.9675 28.5555 28.1328C28.3975 28.298 28.1818 28.3959 27.9534 28.4061Z" fill="#2166F3"/>
<path d="M31.7175 19.9921L30.6149 21.0947V19.5352H25.2923V21.0947L24.1896 19.9921L20.4266 23.756L21.5284 24.8578H19.9697V30.1804H21.5284L20.4266 31.2821L24.1896 35.0461L25.2923 33.9443V35.5029H30.6149V33.9434L31.7175 35.0461L35.4815 31.2821L34.3788 30.1804H35.9375V24.8578H34.3788L35.4806 23.756L31.7175 19.9921ZM34.1633 28.4062H32.3731L31.706 30.0163L32.9719 31.2821L31.7167 32.5374L30.4508 31.2706L28.8407 31.9386V33.7288H27.0665V31.9386L25.4564 31.2706L24.1896 32.5374L22.9353 31.2821L24.2021 30.0145L23.535 28.4062H21.7439V26.632H23.5341L24.2012 25.0219L22.9353 23.756L24.1896 22.5008L25.4555 23.7675L27.0665 23.0996V21.3094H28.8407V23.0996L30.4508 23.7675L31.7167 22.5008L32.9719 23.756L31.706 25.0219L32.3731 26.632H34.1633V28.4062ZM44.8084 25.7449C44.8084 26.2346 44.4101 26.632 43.9213 26.632H37.7117V28.4062H43.9213C45.3886 28.4062 46.5826 27.2121 46.5826 25.7449V15.9868H44.8084V25.7449ZM49.5482 39.0513H48.9388C47.3732 39.0532 45.8723 39.676 44.7654 40.7831C43.6585 41.8902 43.0359 43.3912 43.0342 44.9567C43.0342 46.5331 43.6481 48.0154 44.7641 49.1323L46.5826 50.9508V52.3578C46.5826 53.825 47.7767 55.0191 49.2439 55.0191C50.7112 55.0191 51.9052 53.825 51.9052 52.3578V50.9508L53.7246 49.1323C54.2744 48.5851 54.7103 47.9343 55.0071 47.2176C55.3038 46.5009 55.4556 45.7325 55.4536 44.9567C55.452 43.391 54.8293 41.8899 53.7221 40.7828C52.615 39.6757 51.1139 39.053 49.5482 39.0513ZM49.2439 53.2449C48.7551 53.2449 48.3568 52.8475 48.3568 52.3578V51.4707H50.131V52.3578C50.131 52.8475 49.7327 53.2449 49.2439 53.2449ZM52.4694 47.8779L50.6509 49.6965H50.131V46.1481H51.9052V44.3739H46.5826V46.1481H48.3568V49.6965H47.837L46.0184 47.8779C45.6336 47.4952 45.3286 47.0399 45.1209 46.5385C44.9132 46.0371 44.807 45.4995 44.8084 44.9567C44.8096 43.8614 45.2452 42.8113 46.0197 42.0368C46.7942 41.2623 47.8443 40.8267 48.9396 40.8255H49.5491C50.6442 40.8269 51.6941 41.2627 52.4684 42.0371C53.2427 42.8116 53.6782 43.8616 53.6794 44.9567C53.6809 45.4995 53.5747 46.0371 53.367 46.5385C53.1593 47.0399 52.8542 47.4952 52.4694 47.8779ZM48.3568 33.7288H50.131V37.2771H48.3568V33.7288ZM44.0278 34.9325L45.668 34.253L47.0271 37.5326L45.3877 38.2121L44.0278 34.9325ZM51.5016 37.5539L52.8615 34.2752L54.5009 34.9547L53.1409 38.2334L51.5016 37.5539Z" fill="#2166F3"/>
<path d="M7.5499 48.8093V47.9222H11.0983C12.0768 47.9222 12.8725 47.1264 12.8725 46.148V31.9544C12.8725 30.9759 12.0768 30.1802 11.0983 30.1802H7.5499V29.2931C7.5499 28.8034 7.94821 28.406 8.437 28.406H18.1951V26.6318H8.437C6.96974 26.6318 5.77571 27.8259 5.77571 29.2931V30.1802H2.22732C1.24885 30.1802 0.453125 30.9759 0.453125 31.9544V46.148C0.453125 47.1264 1.24885 47.9222 2.22732 47.9222H5.77571V48.8093C5.77571 50.2765 6.96974 51.4705 8.437 51.4705H43.0338V49.6964H8.437C7.94821 49.6964 7.5499 49.2989 7.5499 48.8093ZM2.22732 31.9544H11.0983L11.0992 46.148H2.22732V31.9544Z" fill="#2166F3"/>
<path d="M4.00195 33.7285H9.32453V35.5027H4.00195V33.7285ZM4.00195 37.2769H9.32453V39.0511H4.00195V37.2769ZM4.00195 40.8253H9.32453V42.5995H4.00195V40.8253Z" fill="#2166F3"/>
</g>
<defs>
<clipPath id="clip0_681_515">
<rect width="55" height="55" fill="white" transform="translate(0.453125 0.019043)"/>
</clipPath>
</defs>
</svg>
