<svg width="51" height="51" viewBox="0 0 51 51" fill="none" xmlns="http://www.w3.org/2000/svg">
<g clip-path="url(#clip0_681_196)">
<path d="M43.2388 24.3124V20.1578C43.2388 20.0246 43.191 19.8958 43.104 19.7949C43.0171 19.694 42.8968 19.6276 42.7651 19.6079L39.0488 19.0518C38.6815 17.7401 38.1577 16.4772 37.4886 15.2906L39.7244 12.2669C39.8036 12.1598 39.8417 12.0279 39.8318 11.895C39.8219 11.7622 39.7647 11.6374 39.6705 11.5432L34.7148 6.5874C34.6206 6.49323 34.4957 6.43599 34.3629 6.42611C34.2301 6.41623 34.0981 6.45436 33.991 6.53356L30.9678 8.76925C29.7812 8.10018 28.5184 7.57635 27.2065 7.20907L26.6505 3.4928C26.6308 3.36107 26.5644 3.24079 26.4635 3.15384C26.3626 3.0669 26.2338 3.01906 26.1006 3.01904H19.0918C18.9586 3.01907 18.8298 3.06691 18.7289 3.15388C18.628 3.24084 18.5617 3.36114 18.542 3.49289L17.9859 7.20916C16.6742 7.57653 15.4113 8.10036 14.2247 8.76935L11.201 6.53356C11.0939 6.45438 10.962 6.41627 10.8291 6.42615C10.6963 6.43603 10.5715 6.49325 10.4773 6.5874L5.52112 11.5432C5.42695 11.6374 5.36971 11.7622 5.35981 11.895C5.34991 12.0279 5.38801 12.1598 5.46718 12.2669L7.70297 15.2901C7.03401 16.4768 6.51019 17.7396 6.14278 19.0514L2.42651 19.6074C2.29475 19.6272 2.17448 19.6937 2.0876 19.7947C2.00072 19.8957 1.953 20.0246 1.95313 20.1578V27.1662C1.95319 27.2993 2.00103 27.428 2.08795 27.5289C2.17487 27.6298 2.2951 27.6961 2.42679 27.7158L6.14306 28.2719C6.51043 29.5836 7.03428 30.8464 7.70334 32.033L5.46755 35.057C5.38833 35.1641 5.3502 35.2961 5.3601 35.429C5.37 35.5618 5.42727 35.6867 5.52149 35.7809L10.4773 40.7367C10.5715 40.8309 10.6963 40.8881 10.8291 40.898C10.9619 40.9079 11.0939 40.8698 11.201 40.7906L14.2241 38.5548C15.4108 39.2238 16.6736 39.7476 17.9854 40.115L18.5414 43.8313C18.5611 43.963 18.6275 44.0833 18.7284 44.1703C18.8293 44.2572 18.9581 44.3051 19.0913 44.3051H26.0998C26.233 44.305 26.3617 44.2572 26.4627 44.1703C26.5636 44.0834 26.6299 43.9631 26.6496 43.8314L27.016 41.3872C28.1118 43.1121 29.6252 44.5327 31.416 45.5171C33.2068 46.5016 35.2171 47.0182 37.2607 47.019C43.9561 47.0189 49.4028 41.5722 49.4028 34.8773C49.4013 32.7285 48.8301 30.6186 47.7472 28.7626C46.6644 26.9066 45.1087 25.3711 43.2388 24.3124ZM25.6213 43.1926H19.5707L19.0311 39.5896C19.0149 39.4815 18.9672 39.3806 18.894 39.2995C18.8208 39.2183 18.7252 39.1606 18.6194 39.1334C17.1617 38.7592 15.7646 38.1796 14.47 37.4122C14.3759 37.3564 14.2675 37.3297 14.1583 37.3353C14.0491 37.3408 13.944 37.3785 13.856 37.4435L10.9249 39.6114L6.64656 35.3332L8.81423 32.4019C8.87924 32.3139 8.91689 32.2088 8.92246 32.0996C8.92803 31.9904 8.90128 31.882 8.84556 31.7879C8.07798 30.4934 7.49846 29.0963 7.1244 27.6386C7.09726 27.5327 7.0395 27.4371 6.95833 27.3639C6.87717 27.2906 6.7762 27.2429 6.66806 27.2267L3.06523 26.6871V20.6368L6.66816 20.0973C6.77627 20.0811 6.8772 20.0334 6.95835 19.9601C7.0395 19.8869 7.09725 19.7913 7.1244 19.6855C7.49858 18.2277 8.0781 16.8306 8.84556 15.536C8.90128 15.4419 8.92803 15.3335 8.92246 15.2243C8.91689 15.1151 8.87924 15.01 8.81423 14.922L6.64656 11.9908L10.9249 7.71257L13.856 9.88015C13.9439 9.94518 14.0491 9.98284 14.1583 9.98843C14.2675 9.99401 14.3759 9.96728 14.47 9.91157C15.7646 9.1441 17.1617 8.56461 18.6194 8.1905C18.7253 8.16335 18.8208 8.10558 18.8941 8.02442C18.9673 7.94325 19.015 7.84229 19.0312 7.73417L19.5707 4.13124H25.6211L26.1606 7.73417C26.1768 7.84229 26.2245 7.94325 26.2977 8.02442C26.371 8.10558 26.4665 8.16335 26.5724 8.1905C28.0302 8.56448 29.4273 9.14395 30.7218 9.91147C30.8159 9.96722 30.9243 9.99398 31.0335 9.98841C31.1428 9.98284 31.2479 9.94518 31.3359 9.88015L34.2671 7.71257L38.5454 11.9908L36.3777 14.922C36.3127 15.01 36.2751 15.1151 36.2695 15.2243C36.2639 15.3335 36.2906 15.4419 36.3463 15.536C37.1139 16.8305 37.6934 18.2276 38.0675 19.6854C38.0946 19.7913 38.1524 19.8868 38.2335 19.9601C38.3147 20.0334 38.4156 20.0811 38.5237 20.0973L42.1267 20.6368V23.7544C40.6523 23.1088 39.0642 22.763 37.4548 22.7372C35.8455 22.7114 34.2471 23.0061 32.7528 23.6041C32.7388 21.4879 32.0637 19.429 30.8218 17.7154C29.5799 16.0019 27.8334 14.7194 25.8266 14.0475C23.8199 13.3756 21.6532 13.3478 19.6299 13.9681C17.6066 14.5883 15.8278 15.8256 14.5424 17.5068C13.257 19.1879 12.5293 21.2289 12.4611 23.3441C12.3929 25.4592 12.9877 27.5428 14.1622 29.3032C15.3367 31.0637 17.0321 32.4129 19.0113 33.1622C20.9905 33.9114 23.1544 34.0232 25.2003 33.4819C25.1468 33.9451 25.1199 34.411 25.1197 34.8773C25.118 36.5522 25.465 38.2092 26.1384 39.7427L25.6213 43.1926ZM25.4043 32.2616C23.6782 32.8246 21.8227 32.8551 20.0791 32.349C18.3355 31.8428 16.7846 30.8236 15.6284 29.4238C16.1504 28.322 16.9263 27.3597 17.8925 26.616C18.8586 25.8722 19.9874 25.3683 21.1862 25.1455C22.3849 24.9227 23.6194 24.9874 24.7882 25.3344C25.9571 25.6813 27.027 26.3006 27.91 27.1413C26.6792 28.6243 25.8202 30.3797 25.4043 32.2616ZM19.7375 21.0447C19.7375 20.4793 19.9052 19.9265 20.2194 19.4563C20.5335 18.9862 20.9801 18.6198 21.5025 18.4034C22.0249 18.187 22.5998 18.1304 23.1544 18.2407C23.709 18.3511 24.2184 18.6234 24.6182 19.0232C25.018 19.4231 25.2903 19.9325 25.4006 20.4871C25.5109 21.0417 25.4543 21.6166 25.2379 22.139C25.0215 22.6614 24.655 23.1079 24.1848 23.4221C23.7146 23.7362 23.1619 23.9039 22.5964 23.9038C21.8384 23.903 21.1117 23.6015 20.5757 23.0655C20.0397 22.5295 19.7383 21.8027 19.7375 21.0447ZM28.6584 26.3184C27.6145 25.3334 26.3469 24.6169 24.9646 24.2304C25.6347 23.7326 26.1308 23.0362 26.3825 22.2403C26.6342 21.4444 26.6286 20.5894 26.3667 19.7968C26.1047 19.0042 25.5996 18.3143 24.9231 17.8252C24.2467 17.336 23.4333 17.0725 22.5985 17.0721C21.7638 17.0716 20.9501 17.3342 20.2731 17.8226C19.5961 18.311 19.0902 19.0003 18.8274 19.7926C18.5645 20.585 18.5581 21.4399 18.8089 22.2361C19.0597 23.0323 19.5551 23.7292 20.2246 24.2278C19.1049 24.5389 18.0579 25.0686 17.144 25.7864C16.2301 26.5042 15.4674 27.3959 14.8998 28.41C14.1655 27.2198 13.7172 25.8756 13.59 24.4829C13.4629 23.0902 13.6605 21.687 14.1673 20.3835C14.6741 19.0801 15.4762 17.9119 16.5107 16.9708C17.5451 16.0297 18.7837 15.3413 20.1291 14.9598C21.4746 14.5782 22.8901 14.5138 24.2647 14.7717C25.6392 15.0296 26.9351 15.6027 28.0507 16.446C29.1663 17.2893 30.0712 18.3799 30.6942 19.6319C31.3172 20.884 31.6413 22.2635 31.6411 23.662C31.6411 23.8158 31.6359 23.9701 31.6282 24.1241C30.5325 24.7007 29.531 25.4406 28.6579 26.3184H28.6584ZM37.2616 45.9068C35.0801 45.9068 32.9476 45.2601 31.1338 44.0482C29.3199 42.8363 27.9062 41.1137 27.0713 39.0983C26.2364 37.083 26.0179 34.8653 26.4435 32.7257C26.869 30.5862 27.9194 28.6208 29.4619 27.0783C31.0044 25.5357 32.9697 24.4852 35.1093 24.0596C37.2488 23.634 39.4665 23.8524 41.4819 24.6872C43.4973 25.522 45.2199 26.9357 46.4319 28.7495C47.6438 30.5634 48.2907 32.6958 48.2907 34.8773C48.2874 37.8015 47.1243 40.605 45.0566 42.6727C42.9888 44.7404 40.1853 45.9035 37.2611 45.9068H37.2616ZM43.882 30.5865C43.9863 30.6907 44.0449 30.8322 44.0449 30.9796C44.0449 31.1271 43.9863 31.2685 43.882 31.3728L36.0863 39.1681C35.982 39.2723 35.8406 39.3309 35.6931 39.3309C35.5456 39.3309 35.4042 39.2723 35.2999 39.1681L30.641 34.5089C30.5879 34.4576 30.5455 34.3963 30.5164 34.3284C30.4872 34.2606 30.4719 34.1876 30.4712 34.1138C30.4706 34.04 30.4847 33.9667 30.5126 33.8984C30.5406 33.8301 30.5819 33.768 30.6341 33.7158C30.6863 33.6636 30.7484 33.6223 30.8167 33.5943C30.8851 33.5664 30.9583 33.5523 31.0321 33.5529C31.1059 33.5536 31.1789 33.5689 31.2467 33.5981C31.3146 33.6272 31.3759 33.6696 31.4272 33.7227L35.6931 37.9884L43.0952 30.5864C43.1995 30.4821 43.3409 30.4235 43.4884 30.4236C43.6359 30.4236 43.7773 30.4822 43.8816 30.5865H43.882Z" fill="black" stroke="black" stroke-width="1.5"/>
</g>
<defs>
<clipPath id="clip0_681_196">
<rect width="50" height="50" fill="white" transform="translate(0.953125 0.019043)"/>
</clipPath>
</defs>
</svg>
