<svg width="61" height="61" viewBox="0 0 61 61" fill="none" xmlns="http://www.w3.org/2000/svg">
<g clip-path="url(#clip0_681_475)">
<path d="M17.7721 58.0347H22.5183C23.614 58.0347 24.5023 57.1464 24.5023 56.0507V52.1729C24.5023 51.0772 23.614 50.1889 22.5183 50.1889H3.43618C2.34045 50.1889 1.45215 51.0772 1.45215 52.1729V56.0507C1.45215 57.1464 2.34045 58.0347 3.43618 58.0347H13.6704M41.5754 33.6684L39.0771 31.7977C39.1989 31.2129 39.2601 30.6172 39.2597 30.0198C39.2601 29.4221 39.1989 28.826 39.0771 28.2409L41.5754 26.3702C42.0214 26.0369 42.147 25.4223 41.8687 24.9395L40.6206 22.7775C40.4862 22.5443 40.2708 22.3686 40.0154 22.2836C39.7599 22.1987 39.4822 22.2104 39.2349 22.3166L36.3635 23.5458C35.4713 22.7464 34.4234 22.1404 33.2856 21.7659L32.9144 18.667C32.8824 18.3998 32.7536 18.1535 32.5523 17.9748C32.351 17.7961 32.0912 17.6974 31.822 17.6973H29.3248C28.768 17.6973 28.2991 18.1143 28.2323 18.667L27.8623 21.7659C26.7241 22.1402 25.6757 22.7463 24.7833 23.5458L21.913 22.3166C21.6656 22.2103 21.3879 22.1986 21.1325 22.2835C20.877 22.3685 20.6617 22.5443 20.5272 22.7775L19.2781 24.9395C18.9997 25.4224 19.1255 26.037 19.5714 26.3702L22.0706 28.2409C21.9489 28.826 21.8877 29.4221 21.888 30.0198C21.888 30.6294 21.9508 31.2241 22.0706 31.7977L19.5714 33.6684C19.356 33.8298 19.2073 34.0645 19.1532 34.3281C19.0991 34.5917 19.1436 34.866 19.2781 35.0991L20.5272 37.2621C20.6618 37.4951 20.8772 37.6707 21.1326 37.7557C21.3879 37.8406 21.6656 37.829 21.913 37.723L24.7833 36.4938C25.6757 37.2933 26.724 37.8994 27.8623 38.2736L28.2323 41.3725C28.2646 41.6396 28.3936 41.8856 28.5948 42.0641C28.7961 42.2426 29.0558 42.3412 29.3248 42.3413H31.822C32.3788 42.3413 32.8486 41.9253 32.9144 41.3725L33.2856 38.2736C34.4234 37.899 35.4713 37.293 36.3635 36.4938L39.2349 37.723C39.4823 37.8289 39.7599 37.8405 40.0152 37.7555C40.2706 37.6706 40.486 37.495 40.6206 37.2621L41.8687 35.0991C42.0033 34.866 42.0477 34.5917 41.9937 34.3281C41.9396 34.0644 41.7908 33.8297 41.5754 33.6684ZM30.5738 34.5464C28.0736 34.5464 26.0472 32.519 26.0472 30.0198C26.0472 27.5196 28.0736 25.4932 30.5738 25.4932C33.073 25.4932 35.0993 27.5196 35.0993 30.0198C35.0993 32.5191 33.073 34.5464 30.5738 34.5464ZM22.518 50.1883H3.43641C2.34057 50.1883 1.45227 49.3 1.45227 48.2041V44.3256C1.45227 43.2297 2.34057 42.3414 3.43641 42.3414H22.518C23.6139 42.3414 24.5022 43.2297 24.5022 44.3256V48.2041C24.5022 49.3 23.6139 50.1883 22.518 50.1883Z" stroke="#2166F3" stroke-width="2" stroke-miterlimit="10" stroke-linecap="round" stroke-linejoin="round"/>
<path d="M5.83582 47.9197C6.74994 47.9197 7.49098 47.1786 7.49098 46.2645C7.49098 45.3504 6.74994 44.6094 5.83582 44.6094C4.9217 44.6094 4.18066 45.3504 4.18066 46.2645C4.18066 47.1786 4.9217 47.9197 5.83582 47.9197Z" stroke="#2166F3" stroke-width="2" stroke-miterlimit="10" stroke-linecap="round" stroke-linejoin="round"/>
<path d="M11.3221 47.9197C12.2363 47.9197 12.9773 47.1786 12.9773 46.2645C12.9773 45.3504 12.2363 44.6094 11.3221 44.6094C10.408 44.6094 9.66699 45.3504 9.66699 46.2645C9.66699 47.1786 10.408 47.9197 11.3221 47.9197Z" stroke="#2166F3" stroke-width="2" stroke-miterlimit="10" stroke-linecap="round" stroke-linejoin="round"/>
<path d="M5.83582 55.7664C6.74994 55.7664 7.49098 55.0253 7.49098 54.1112C7.49098 53.1971 6.74994 52.4561 5.83582 52.4561C4.9217 52.4561 4.18066 53.1971 4.18066 54.1112C4.18066 55.0253 4.9217 55.7664 5.83582 55.7664Z" stroke="#2166F3" stroke-width="2" stroke-miterlimit="10" stroke-linecap="round" stroke-linejoin="round"/>
<path d="M11.3221 55.7664C12.2363 55.7664 12.9773 55.0253 12.9773 54.1112C12.9773 53.1971 12.2363 52.4561 11.3221 52.4561C10.408 52.4561 9.66699 53.1971 9.66699 54.1112C9.66699 55.0253 10.408 55.7664 11.3221 55.7664Z" stroke="#2166F3" stroke-width="2" stroke-miterlimit="10" stroke-linecap="round" stroke-linejoin="round"/>
<path d="M16.3184 46.2647H21.51M16.3184 54.1115H21.51M55.3176 21.4923H57.9931C58.8005 21.4923 59.4544 20.8384 59.4544 20.0309V2.35863C59.4544 1.55236 58.8005 0.898438 57.9931 0.898438H52.8508C51.6285 0.898438 50.4554 1.38361 49.5905 2.24847L44.5619 7.27827C43.6979 8.14286 43.2123 9.31502 43.2119 10.5373V20.0309C43.2119 20.8384 43.8658 21.4923 44.6732 21.4923H51.216" stroke="#2166F3" stroke-width="2" stroke-miterlimit="10" stroke-linecap="round" stroke-linejoin="round"/>
<path d="M53.2665 0.897949C51.9819 0.897949 50.9407 1.93918 50.9407 3.22371V7.16763C50.9407 7.97437 50.2867 8.6284 49.4799 8.6284H45.5374C44.2529 8.6284 43.2117 9.66964 43.2117 10.9542M47.6703 12.8399H54.9951M47.6703 16.5022H54.9951M17.9486 9.3408C19.226 8.5568 20.5737 7.89233 21.9729 7.35912L22.2706 9.12166C22.3878 9.81777 23.2151 10.1248 23.7589 9.67597L29.3489 5.05516C29.8926 4.60515 29.7461 3.73559 29.0852 3.48949L22.2893 0.957013C21.6272 0.710914 20.9475 1.27343 21.0647 1.96837L21.3834 3.86216C16.2892 5.65751 11.7363 8.974 8.45853 13.3042C4.79165 18.1488 2.85449 23.9286 2.85449 30.019C2.85449 31.1733 2.92598 32.3324 3.06778 33.4632C3.17794 34.3445 3.92913 34.9902 4.79516 34.9902C4.86665 34.9902 4.94048 34.9855 5.01431 34.9762C5.96941 34.8566 6.64677 33.9847 6.52723 33.0296C6.40301 32.0429 6.3409 31.0292 6.3409 30.019C6.3409 24.6939 8.0343 19.6418 11.2383 15.4089C12.2444 14.081 13.3853 12.8608 14.6427 11.7678M58.0783 26.5754C57.9586 25.6202 57.0883 24.9427 56.132 25.0623C55.1768 25.182 54.4993 26.0534 54.619 27.0086C54.7434 28.0074 54.8056 29.0128 54.8053 30.0193C54.8053 35.3444 53.1115 40.3967 49.9072 44.63C47.1623 48.2564 43.3963 51.0691 39.1725 52.6794L38.8754 50.9172C38.7581 50.2211 37.9311 49.9131 37.3869 50.3629L31.7969 54.9832C31.2527 55.4329 31.3995 56.3029 32.0609 56.5494L38.8567 59.0813C39.5183 59.3277 40.1985 58.7657 40.0811 58.0696L39.7619 56.1761C44.8564 54.3805 49.4094 51.0644 52.6871 46.7342C56.3536 41.8903 58.2917 36.1103 58.2917 30.0194C58.2918 28.8681 58.2205 27.7179 58.0783 26.5754Z" stroke="#2166F3" stroke-width="2" stroke-miterlimit="10" stroke-linecap="round" stroke-linejoin="round"/>
</g>
<defs>
<clipPath id="clip0_681_475">
<rect width="60" height="60" fill="white" transform="translate(0.453125 0.019043)"/>
</clipPath>
</defs>
</svg>
