<svg width="54" height="54" viewBox="0 0 54 54" fill="none" xmlns="http://www.w3.org/2000/svg">
<path fill-rule="evenodd" clip-rule="evenodd" d="M30.7451 46.0505H29.0722C25.4925 46.0505 22.5889 43.1613 22.5889 39.6061C22.5889 36.0509 25.4925 33.1618 29.0722 33.1618C29.1537 33.1618 29.2353 33.1627 29.3169 33.1663C29.2932 32.9135 29.2814 32.6598 29.2815 32.406C29.2815 27.9345 32.9337 24.3005 37.4378 24.3005C41.8358 24.3005 45.4236 27.7669 45.5877 32.096C45.8414 32.0679 46.0997 32.0543 46.3607 32.0543C50.2485 32.0543 53.4014 35.1918 53.4014 39.0524C53.4014 42.913 50.2485 46.0505 46.3607 46.0505H45.2451V52.3942C45.2451 52.6346 45.1496 52.8651 44.9797 53.035C44.8097 53.205 44.5792 53.3005 44.3389 53.3005H31.6514C31.411 53.3005 31.1805 53.205 31.0106 53.035C30.8406 52.8651 30.7451 52.6346 30.7451 52.3942V46.0505ZM45.2451 44.238H46.3607C49.2444 44.238 51.5889 41.9161 51.5889 39.0524C51.5889 36.1886 49.2444 33.8668 46.3607 33.8668C45.8523 33.8668 45.3602 33.9384 44.8953 34.0725C44.7522 34.1139 44.6012 34.1195 44.4555 34.0886C44.3098 34.0577 44.174 33.9914 44.06 33.8955C43.946 33.7997 43.8574 33.6772 43.8021 33.5389C43.7467 33.4007 43.7263 33.2509 43.7426 33.1029C43.7684 32.8715 43.7814 32.6388 43.7815 32.406C43.7815 28.9314 40.9368 26.113 37.4378 26.113C33.9378 26.113 31.094 28.9314 31.094 32.406C31.094 32.957 31.1647 33.4916 31.2988 34.001C31.3394 34.1531 31.3395 34.3131 31.2992 34.4653C31.2589 34.6174 31.1796 34.7565 31.0691 34.8686C30.9587 34.9807 30.8208 35.0621 30.6693 35.1046C30.5177 35.1471 30.3577 35.1494 30.205 35.1111C29.8343 35.0198 29.4539 34.9738 29.0722 34.9743C26.4957 34.9743 24.4014 37.0478 24.4014 39.6061C24.4014 42.1645 26.4957 44.238 29.0722 44.238H30.7451V37.8942C30.7451 37.6538 30.8406 37.4233 31.0106 37.2534C31.1805 37.0834 31.411 36.988 31.6514 36.988H37.0889C37.3292 36.988 37.5597 37.0834 37.7297 37.2534C37.8996 37.4233 37.9951 37.6538 37.9951 37.8942C37.9951 38.1346 37.8996 38.3651 37.7297 38.535C37.5597 38.705 37.3292 38.8005 37.0889 38.8005H32.5576V44.238H43.4326V38.8005H40.7139C40.4735 38.8005 40.243 38.705 40.0731 38.535C39.9031 38.3651 39.8076 38.1346 39.8076 37.8942C39.8076 37.6538 39.9031 37.4233 40.0731 37.2534C40.243 37.0834 40.4735 36.988 40.7139 36.988H44.3389C44.5792 36.988 44.8097 37.0834 44.9797 37.2534C45.1496 37.4233 45.2451 37.6538 45.2451 37.8942V44.238ZM32.5576 46.0505V51.488H43.4326V46.0505H32.5576ZM36.1826 49.6755C35.9423 49.6755 35.7118 49.58 35.5418 49.41C35.3718 49.2401 35.2764 49.0096 35.2764 48.7692C35.2764 48.5288 35.3718 48.2983 35.5418 48.1284C35.7118 47.9584 35.9423 47.863 36.1826 47.863H39.8076C40.048 47.863 40.2785 47.9584 40.4484 48.1284C40.6184 48.2983 40.7139 48.5288 40.7139 48.7692C40.7139 49.0096 40.6184 49.2401 40.4484 49.41C40.2785 49.58 40.048 49.6755 39.8076 49.6755H36.1826ZM36.1826 42.4255C35.9423 42.4255 35.7118 42.33 35.5418 42.16C35.3718 41.9901 35.2764 41.7596 35.2764 41.5192C35.2764 41.2788 35.3718 41.0483 35.5418 40.8784C35.7118 40.7084 35.9423 40.613 36.1826 40.613H39.8076C40.048 40.613 40.2785 40.7084 40.4484 40.8784C40.6184 41.0483 40.7139 41.2788 40.7139 41.5192C40.7139 41.7596 40.6184 41.9901 40.4484 42.16C40.2785 42.33 40.048 42.4255 39.8076 42.4255H36.1826ZM8.99512 27.0192H7.32218C3.74249 27.0192 0.838867 24.1301 0.838867 20.5749C0.838867 17.0196 3.74249 14.1305 7.32218 14.1305C7.40374 14.1305 7.4853 14.1314 7.56687 14.135C7.54319 13.8823 7.5314 13.6286 7.53152 13.3747C7.53152 8.90326 11.1837 5.2692 15.6878 5.2692C20.1239 5.2692 23.7353 8.79633 23.8413 13.1771C24.0263 13.2478 24.1832 13.3771 24.2878 13.5452C24.3925 13.7134 24.4393 13.9111 24.421 14.1084C24.4027 14.3056 24.3204 14.4914 24.1866 14.6374C24.0528 14.7835 23.8749 14.8817 23.68 14.9171C23.4998 14.9496 23.3214 14.9911 23.1453 15.0413C23.0022 15.0827 22.8512 15.0882 22.7055 15.0573C22.5598 15.0265 22.424 14.9602 22.31 14.8643C22.196 14.7684 22.1074 14.6459 22.0521 14.5077C21.9967 14.3694 21.9763 14.2196 21.9926 14.0716C22.0184 13.8402 22.0314 13.6075 22.0315 13.3747C22.0315 9.90014 19.1868 7.0817 15.6878 7.0817C12.1878 7.0817 9.34402 9.90014 9.34402 13.3747C9.34402 13.9257 9.41471 14.4604 9.54884 14.9697C9.58936 15.1218 9.58949 15.2819 9.54921 15.434C9.50892 15.5862 9.42962 15.7252 9.31914 15.8373C9.20866 15.9495 9.07083 16.0308 8.91927 16.0734C8.76771 16.1159 8.60768 16.1181 8.45499 16.0799C8.08433 15.9885 7.70393 15.9426 7.32218 15.943C4.74571 15.943 2.65137 18.0165 2.65137 20.5749C2.65137 23.1332 4.74571 25.2067 7.32218 25.2067H8.99512V18.863C8.99512 18.6226 9.0906 18.3921 9.26055 18.2221C9.43051 18.0522 9.66101 17.9567 9.90137 17.9567H22.5889C22.8292 17.9567 23.0597 18.0522 23.2297 18.2221C23.3996 18.3921 23.4951 18.6226 23.4951 18.863V25.2067H24.6107C27.4935 25.2067 29.8389 22.8849 29.8389 20.0211C29.8389 17.9123 28.5674 16.098 26.7467 15.2869C26.638 15.2385 26.5399 15.1691 26.458 15.0827C26.3761 14.9964 26.312 14.8947 26.2694 14.7836C26.1833 14.5592 26.1899 14.3097 26.2877 14.0902C26.3855 13.8706 26.5666 13.6989 26.791 13.6128C26.9021 13.5702 27.0206 13.5499 27.1395 13.553C27.2585 13.5562 27.3757 13.5827 27.4844 13.6312C29.9404 14.725 31.6514 17.1764 31.6514 20.0211C31.6514 23.8818 28.4985 27.0192 24.6107 27.0192H23.4951V33.363C23.4951 33.6033 23.3996 33.8338 23.2297 34.0038C23.0597 34.1737 22.8292 34.2692 22.5889 34.2692H9.90137C9.66101 34.2692 9.43051 34.1737 9.26055 34.0038C9.0906 33.8338 8.99512 33.6033 8.99512 33.363V27.0192ZM21.6826 25.2067V19.7692H10.8076V25.2067H21.6826ZM10.8076 27.0192V32.4567H21.6826V27.0192H10.8076ZM14.4326 30.6442C14.1923 30.6442 13.9618 30.5487 13.7918 30.3788C13.6218 30.2088 13.5264 29.9783 13.5264 29.738C13.5264 29.4976 13.6218 29.2671 13.7918 29.0971C13.9618 28.9272 14.1923 28.8317 14.4326 28.8317H18.0576C18.298 28.8317 18.5285 28.9272 18.6984 29.0971C18.8684 29.2671 18.9639 29.4976 18.9639 29.738C18.9639 29.9783 18.8684 30.2088 18.6984 30.3788C18.5285 30.5487 18.298 30.6442 18.0576 30.6442H14.4326ZM14.4326 23.3942C14.1923 23.3942 13.9618 23.2987 13.7918 23.1288C13.6218 22.9588 13.5264 22.7283 13.5264 22.488C13.5264 22.2476 13.6218 22.0171 13.7918 21.8471C13.9618 21.6772 14.1923 21.5817 14.4326 21.5817H18.0576C18.298 21.5817 18.5285 21.6772 18.6984 21.8471C18.8684 22.0171 18.9639 22.2476 18.9639 22.488C18.9639 22.7283 18.8684 22.9588 18.6984 23.1288C18.5285 23.2987 18.298 23.3942 18.0576 23.3942H14.4326ZM52.9836 21.5672L47.0205 25.3807C46.9087 25.4525 46.7824 25.4988 46.6507 25.5163C46.519 25.5338 46.385 25.5221 46.2584 25.4819C46.1317 25.4418 46.0154 25.3742 45.9178 25.284C45.8203 25.1939 45.7437 25.0833 45.6937 24.9602L43.0176 18.4071C42.9525 18.2477 42.9342 18.073 42.9649 17.9035C42.9955 17.7341 43.0738 17.5768 43.1906 17.4503C43.3074 17.3237 43.4578 17.233 43.6242 17.1889C43.7907 17.1447 43.9663 17.1489 44.1304 17.2009L45.5315 17.645C45.5935 16.4989 45.4733 15.3503 45.1753 14.242C44.2437 10.781 41.6246 7.8502 37.9571 6.68748C34.2813 5.52114 30.4415 6.4147 27.6847 8.7193C27.5058 8.86866 27.2762 8.94334 27.0436 8.92781C26.811 8.91228 26.5934 8.80775 26.4359 8.63592L23.9836 5.96248C23.9014 5.87277 23.8381 5.76742 23.7975 5.65272C23.7569 5.53802 23.7398 5.41632 23.7473 5.29487C23.7547 5.17342 23.7865 5.05472 23.8408 4.94583C23.8951 4.83695 23.9708 4.74012 24.0633 4.66111C28.2067 1.12311 34.0294 -0.262549 39.6001 1.50373C45.9003 3.50111 50.1398 8.97758 50.872 15.1437C51.0377 16.5333 51.0222 17.9386 50.8258 19.3242L52.7688 19.9405C52.9334 19.992 53.0798 20.0894 53.1909 20.2214C53.3019 20.3534 53.3729 20.5143 53.3954 20.6853C53.418 20.8563 53.3912 21.0301 53.3183 21.1864C53.2453 21.3426 53.1292 21.4748 52.9836 21.5672ZM50.3772 21.0833L49.529 20.8141C49.3173 20.747 49.1376 20.6046 49.024 20.4138C48.9104 20.2231 48.8708 19.9972 48.9127 19.7792C49.1991 18.2929 49.2444 16.804 49.0722 15.3576C48.4215 9.87567 44.6533 5.00729 39.0527 3.23195C34.4209 1.76292 29.5933 2.7462 25.9746 5.45226L27.2062 6.79533C28.8134 5.62436 30.6735 4.84801 32.6362 4.52905C34.599 4.21008 36.6092 4.35746 38.5044 4.95926C42.7828 6.31592 45.8387 9.73429 46.9253 13.7716C47.3828 15.47 47.4803 17.2452 47.2117 18.9835C47.1911 19.1124 47.143 19.2354 47.0707 19.3441C46.9983 19.4528 46.9034 19.5447 46.7924 19.6135C46.6815 19.6822 46.557 19.7263 46.4274 19.7427C46.2979 19.7591 46.1663 19.7474 46.0417 19.7085L45.4273 19.5136L46.9597 23.2682L50.3772 21.0833Z" fill="#2166F3"/>
</svg>
