<svg width="59" height="59" viewBox="0 0 59 59" fill="none" xmlns="http://www.w3.org/2000/svg">
<g clip-path="url(#clip0_681_304)">
<path d="M53.8054 22.7286C53.9432 22.6491 54.0576 22.5347 54.1372 22.3969C54.2167 22.2592 54.2586 22.1029 54.2586 21.9438V15.0289C54.2586 14.8698 54.2167 14.7135 54.1372 14.5757C54.0576 14.438 53.9432 14.3236 53.8054 14.2441L47.8169 10.7866C47.6792 10.707 47.5229 10.6651 47.3638 10.6651C47.2047 10.6651 47.0484 10.707 46.9107 10.7866L41.3753 13.9825L36.0152 10.8878V4.4961C36.0152 4.33702 35.9733 4.18073 35.8938 4.04297C35.8143 3.9052 35.6998 3.7908 35.5621 3.71128L29.5736 0.253826C29.4358 0.174231 29.2795 0.132324 29.1204 0.132324C28.9613 0.132324 28.8051 0.174231 28.6673 0.253826L22.6788 3.71128C22.541 3.79079 22.4266 3.90519 22.3471 4.04296C22.2675 4.18073 22.2257 4.33701 22.2257 4.4961V10.8879L16.8656 13.9826L11.3303 10.7866C11.1925 10.707 11.0363 10.6651 10.8772 10.6651C10.7181 10.6651 10.5618 10.707 10.424 10.7866L4.43555 14.2441C4.29776 14.3236 4.18334 14.438 4.1038 14.5757C4.02425 14.7135 3.98239 14.8698 3.98242 15.0289V21.9438C3.9824 22.1029 4.02427 22.2591 4.10381 22.3969C4.18335 22.5347 4.29777 22.6491 4.43555 22.7286L9.97092 25.9245V32.1137L4.43555 35.3095C4.29776 35.389 4.18334 35.5034 4.1038 35.6412C4.02425 35.7789 3.98239 35.9352 3.98242 36.0943V43.0092C3.9824 43.1683 4.02427 43.3246 4.10381 43.4624C4.18335 43.6001 4.29777 43.7145 4.43555 43.794L10.424 47.2515C10.5642 47.3325 10.7207 47.3729 10.8772 47.3729C11.0336 47.3729 11.1902 47.3325 11.3303 47.2515L16.8657 44.0556L22.2257 47.1502V53.542C22.2257 53.7011 22.2675 53.8574 22.3471 53.9951C22.4266 54.1329 22.541 54.2473 22.6788 54.3268L28.6673 57.7844C28.8074 57.8654 28.964 57.9058 29.1204 57.9058C29.2769 57.9058 29.4334 57.8654 29.5736 57.7844L35.5619 54.3269C35.6997 54.2474 35.8142 54.133 35.8937 53.9953C35.9732 53.8575 36.0151 53.7012 36.0151 53.5421V47.1503L41.3751 44.0557L46.9105 47.2516C47.0506 47.3326 47.2071 47.373 47.3636 47.373C47.52 47.373 47.6766 47.3326 47.8167 47.2516L53.8052 43.7942C53.943 43.7146 54.0574 43.6003 54.137 43.4625C54.2165 43.3247 54.2584 43.1684 54.2583 43.0093V36.0944C54.2584 35.9353 54.2165 35.7791 54.1369 35.6413C54.0574 35.5035 53.943 35.3891 53.8052 35.3096L48.2698 32.1138V25.9246L53.8054 22.7286ZM48.27 23.8316V19.0095L52.446 16.5985V21.4205L48.27 23.8316ZM47.3637 38.5054L43.1877 36.0943L47.3637 33.6832L51.5397 36.0943L47.3637 38.5054ZM35.1088 45.5807L30.0267 42.6465V40.2741C35.8305 39.811 40.4119 34.9401 40.4119 29.0191C40.4119 27.2871 40.0195 25.6453 39.3196 24.177L41.3752 22.9902L46.4575 25.9244V32.1136L40.9221 35.3094C40.7843 35.3889 40.6699 35.5033 40.5903 35.6411C40.5108 35.7788 40.4689 35.9351 40.469 36.0942V42.486L35.1088 45.5807ZM29.1204 49.0382L24.9444 46.6272L29.1204 44.216L33.2963 46.6271L29.1204 49.0382ZM17.7719 42.4861V36.0943C17.7719 35.9352 17.7301 35.779 17.6505 35.6412C17.571 35.5034 17.4566 35.389 17.3188 35.3095L11.7834 32.1137V25.9245L16.8657 22.9902L18.9213 24.177C18.2214 25.6453 17.8289 27.2871 17.8289 29.0191C17.8289 34.9401 22.4101 39.811 28.2142 40.2741V42.6465L23.1319 45.5807L17.7719 42.4861ZM10.8772 38.5054L6.70117 36.0943L10.8772 33.6832L15.0532 36.0943L10.8772 38.5054ZM23.1319 12.4574L28.6673 15.6533C28.8074 15.7343 28.964 15.7747 29.1204 15.7747C29.2769 15.7747 29.4334 15.7343 29.5736 15.6533L35.1088 12.4574L40.4688 15.552V21.4207L38.4105 22.6091C36.371 19.6622 32.9676 17.7276 29.1204 17.7276C25.2732 17.7276 21.8699 19.6621 19.8302 22.609L17.7719 21.4205V15.552L23.1319 12.4574ZM28.2142 8.47669V13.2988L24.0382 10.8878V6.06561L28.2142 8.47669ZM30.0267 8.47669L34.2026 6.06572V10.8878L30.0267 13.2988V8.47669ZM46.4575 19.0096V23.8317L42.2815 21.4207V16.5986L46.4575 19.0096ZM29.1204 38.498C23.8936 38.498 19.6414 34.2458 19.6414 29.0191C19.6414 23.7923 23.8936 19.5401 29.1204 19.5401C34.3471 19.5401 38.5994 23.7923 38.5994 29.0191C38.5994 34.2458 34.3471 38.498 29.1204 38.498ZM11.7834 23.8316V19.0096L15.9594 16.5985V21.4205L11.7834 23.8316ZM47.3637 12.6178L51.5397 15.0289L47.3637 17.4398L43.1878 15.0289L47.3637 12.6178ZM29.1204 2.08502L33.2964 4.4961L29.1204 6.90717L24.9444 4.4961L29.1204 2.08502ZM10.8772 12.6178L15.0532 15.0289L10.8772 17.4398L6.70106 15.0289L10.8772 12.6178ZM5.79481 21.4205V16.5985L9.97081 19.0095V23.8316L5.79481 21.4205ZM5.79481 37.6639L9.97081 40.075V44.8972L5.79481 42.486V37.6639ZM11.7834 44.8971V40.0749L15.9594 37.6638V42.4859L11.7834 44.8971ZM24.0382 48.1967L28.2142 50.6077V55.4298L24.0382 53.0188V48.1967ZM34.2027 53.0188L30.0267 55.43V50.6078L34.2026 48.1968V53.0188H34.2027ZM42.2815 37.6639L46.4575 40.075V44.8972L42.2815 42.486V37.6639ZM48.27 44.8971V40.0749L52.446 37.6638V42.4859L48.27 44.8971ZM22.2267 27.5924C22.0567 27.7624 21.8262 27.8579 21.5859 27.8579C21.3455 27.8579 21.115 27.7624 20.945 27.5924C20.7751 27.4225 20.6796 27.192 20.6796 26.9516C20.6796 26.7113 20.7751 26.4807 20.945 26.3108C25.4531 21.803 32.788 21.803 37.2961 26.3108C37.466 26.4807 37.5615 26.7113 37.5615 26.9516C37.5615 27.192 37.466 27.4225 37.2961 27.5924C37.1261 27.7624 36.8956 27.8579 36.6552 27.8579C36.4149 27.8579 36.1844 27.7624 36.0144 27.5924C32.2131 23.7912 26.0279 23.7912 22.2267 27.5924ZM35.2867 28.32C35.4566 28.49 35.5521 28.7205 35.5521 28.9609C35.5521 29.2012 35.4566 29.4318 35.2867 29.6017C35.1167 29.7717 34.8862 29.8672 34.6458 29.8672C34.4055 29.8672 34.175 29.7717 34.005 29.6017C31.3115 26.9081 26.929 26.9083 24.236 29.6017C24.066 29.7717 23.8355 29.8672 23.5951 29.8672C23.3548 29.8672 23.1243 29.7717 22.9543 29.6017C22.7844 29.4318 22.6889 29.2012 22.6889 28.9609C22.6889 28.7205 22.7844 28.49 22.9543 28.32C24.6014 26.6731 26.7913 25.7659 29.1207 25.7659C31.4497 25.7659 33.6396 26.6731 35.2867 28.32ZM33.2775 30.3292C33.4475 30.4992 33.543 30.7297 33.543 30.97C33.543 31.2104 33.4475 31.4409 33.2775 31.6109C33.1076 31.7808 32.877 31.8763 32.6367 31.8763C32.3963 31.8763 32.1658 31.7808 31.9959 31.6109C31.2279 30.8428 30.2067 30.4197 29.1206 30.4197C28.0343 30.4197 27.0132 30.8427 26.2452 31.6108C26.1612 31.695 26.0613 31.7619 25.9513 31.8075C25.8413 31.853 25.7235 31.8764 25.6044 31.8763C25.4854 31.8765 25.3675 31.8531 25.2576 31.8076C25.1476 31.762 25.0477 31.6952 24.9637 31.6109C24.8795 31.5267 24.8128 31.4268 24.7672 31.3169C24.7217 31.207 24.6982 31.0891 24.6982 30.9701C24.6982 30.8511 24.7216 30.7333 24.7672 30.6233C24.8127 30.5134 24.8794 30.4135 24.9636 30.3293C26.074 29.2188 27.5502 28.6074 29.1206 28.6074C30.6907 28.6074 32.167 29.2189 33.2775 30.3292ZM29.1204 31.4489C27.7975 31.4489 26.7213 32.5251 26.7213 33.848C26.7213 35.1708 27.7975 36.2471 29.1204 36.2471C30.4433 36.2471 31.5195 35.1708 31.5195 33.848C31.5195 32.5251 30.4433 31.4489 29.1204 31.4489ZM29.1204 34.4346C28.797 34.4346 28.5338 34.1715 28.5338 33.848C28.5338 33.5244 28.7969 33.2614 29.1204 33.2614C29.444 33.2614 29.707 33.5244 29.707 33.848C29.707 34.1715 29.444 34.4346 29.1204 34.4346Z" fill="#2166F3"/>
</g>
<defs>
<clipPath id="clip0_681_304">
<rect width="58" height="58" fill="white" transform="translate(0.120117 0.019043)"/>
</clipPath>
</defs>
</svg>
