<svg width="59" height="59" viewBox="0 0 59 59" fill="none" xmlns="http://www.w3.org/2000/svg">
<g clip-path="url(#clip0_681_322)">
<path d="M29.1187 15.1128L36.0056 9.37388H45.0219V0.019043H22.5703V9.37388H29.1187V15.1128ZM24.4413 7.50291V1.89001H43.151V7.50291H35.3286L30.9897 11.1188V7.50291H24.4413Z" fill="#2166F3"/>
<path d="M26.3127 3.76074H28.1837V5.63171H26.3127V3.76074ZM30.0546 3.76074H37.5385V5.63171H30.0546V3.76074ZM39.4095 3.76074H41.2804V5.63171H39.4095V3.76074ZM47.7397 56.1478L46.9834 48.5749C50.1067 48.0812 52.5062 45.3766 52.5062 42.1156V29.9543H48.7643V28.6616C48.7643 27.3899 48.0654 26.248 46.9417 25.6624C48.0592 24.6361 48.7643 23.1684 48.7643 21.5349V19.664C48.7643 16.5683 46.247 14.0511 43.1514 14.0511C40.0558 14.0511 37.5385 16.5683 37.5385 19.664V21.5349C37.5385 23.9567 39.0829 26.0187 41.2366 26.8044L36.2156 31.8253H30.9695C30.865 30.2658 29.7939 28.9065 28.2764 28.4725L24.4417 27.378V25.7072C25.5869 24.679 26.3127 23.1926 26.3127 21.5349V19.664C26.3127 16.5683 23.7954 14.0511 20.6998 14.0511C17.6042 14.0511 15.0869 16.5683 15.0869 19.664V21.5349C15.0869 23.1917 15.8127 24.678 16.9578 25.7072V27.379L13.1232 28.4734C11.5254 28.9288 10.4095 30.4087 10.4095 32.0715V35.5672H6.66753V41.1801H8.5385V56.1478H0.119141V58.0188H58.1191V56.1478H47.7397ZM39.4095 41.1801V36.89L46.0383 30.2612C46.5174 29.782 46.8025 29.1384 46.8664 28.467C46.8746 28.5324 46.8933 28.594 46.8933 28.6616V40.2446C46.8933 41.7917 45.6339 43.0511 44.0869 43.0511H36.603V41.1801H39.4095ZM36.603 48.664H41.3695L42.1177 56.1478H36.603V48.664ZM43.2496 48.664H45.1115L45.8596 56.1478H43.9978L43.2496 48.664ZM48.7643 40.2446V31.8253H50.6353V42.1156C50.6353 44.6946 48.5369 46.793 45.9579 46.793H36.603V44.922H44.0869C46.6659 44.922 48.7643 42.8236 48.7643 40.2446ZM39.4095 21.5349V19.664C39.4095 17.6003 41.0877 15.922 43.1514 15.922C45.2151 15.922 46.8933 17.6003 46.8933 19.664V21.5349C46.8933 23.5986 45.2151 25.2769 43.1514 25.2769C41.0877 25.2769 39.4095 23.5986 39.4095 21.5349ZM36.9903 33.6962L43.2317 27.4548C43.429 27.2588 43.6955 27.1485 43.9736 27.1478C44.5519 27.1478 45.0224 27.6183 45.0224 28.1966C45.0217 28.4747 44.9114 28.7413 44.7154 28.9385L38.0866 35.5672H28.1837C27.6675 35.5672 27.2482 35.1479 27.2482 34.6317C27.2482 34.1156 27.6675 33.6962 28.1837 33.6962H36.9903ZM16.9578 19.664C16.9578 17.6003 18.6361 15.922 20.6998 15.922C22.7635 15.922 24.4417 17.6003 24.4417 19.664V21.5349C24.4417 23.5986 22.7635 25.2769 20.6998 25.2769C18.6361 25.2769 16.9578 23.5986 16.9578 21.5349V19.664ZM20.6998 27.1478C21.3566 27.1478 21.9842 27.0282 22.5708 26.8204V27.8252C22.3388 28.1833 21.6942 29.0188 20.6998 29.0188C19.7054 29.0188 19.0608 28.1833 18.8288 27.8252V26.8203C19.4154 27.0282 20.043 27.1478 20.6998 27.1478ZM12.2804 32.0714C12.2804 31.2396 12.839 30.5006 13.6371 30.2722L17.491 29.1714C18.0335 29.8785 19.0896 30.8898 20.6998 30.8898C22.31 30.8898 23.3659 29.8785 23.9086 29.1705L27.7625 30.2713C28.4793 30.4764 28.9789 31.0994 29.0789 31.8243H28.1837C26.6366 31.8243 25.3772 33.0837 25.3772 34.6308C25.3772 34.9602 25.4443 35.2725 25.5495 35.5663H12.2804V32.0714ZM8.5385 37.4382H37.5385V39.3091H8.5385V37.4382ZM10.4095 44.922H13.2159V43.0511H10.4095V41.1801H34.732V43.0511H15.0869V44.922H34.732V56.1478H32.5038L30.6329 52.4059H14.5086L12.6377 56.1478H10.4095V44.922ZM30.4119 56.1478H14.7296L15.6651 54.2769H29.4764L30.4119 56.1478Z" fill="#2166F3"/>
</g>
<defs>
<clipPath id="clip0_681_322">
<rect width="58" height="58" fill="white" transform="translate(0.119141 0.019043)"/>
</clipPath>
</defs>
</svg>
