<svg width="61" height="61" viewBox="0 0 61 61" fill="none" xmlns="http://www.w3.org/2000/svg">
<g clip-path="url(#clip0_681_489)">
<path d="M46.3906 13.3198C44.8106 13.3198 43.273 13.5767 41.8037 14.0849C39.6029 11.7508 36.5009 10.3901 33.2656 10.3901C31.1398 10.3901 29.0469 10.9771 27.2342 12.0642C24.6924 9.86795 21.4147 8.63232 18.0312 8.63232C10.2772 8.63232 3.96875 14.9408 3.96875 22.6948C3.96875 23.7229 4.07961 24.7416 4.2991 25.7364C1.87203 27.9446 0.453125 31.1067 0.453125 34.4136C0.453125 40.7294 5.47484 45.8943 11.7354 46.1244C14.3956 49.4476 18.4345 51.4058 22.7188 51.4058C25.1776 51.4058 27.5983 50.7612 29.7191 49.5419C31.3718 48.5917 32.8188 47.3091 33.9628 45.7894C34.8848 46.0179 35.8313 46.1331 36.7812 46.1324C40.5175 46.1324 43.9502 44.3977 46.1585 41.443C46.2362 41.4442 46.3136 41.4449 46.3906 41.4449C54.1447 41.4449 60.4531 35.1365 60.4531 27.3824C60.4531 19.6284 54.1447 13.3198 46.3906 13.3198ZM46.3906 37.9292C46.0753 37.9292 45.7496 37.9142 45.4227 37.8845L44.3391 37.7862L43.7679 38.7122C42.2598 41.1571 39.6479 42.6167 36.7812 42.6167C35.7852 42.6176 34.7973 42.4364 33.8664 42.0819L32.4991 41.5617L31.7393 42.8119C29.8066 45.9917 26.4345 47.8901 22.7188 47.8901C19.2687 47.8901 16.0302 46.1963 14.0558 43.3592L13.5029 42.5649L12.536 42.6072C12.4147 42.613 12.2933 42.6162 12.1719 42.6167C7.64867 42.6167 3.96875 38.9368 3.96875 34.4136C3.96875 31.8119 5.2243 29.3378 7.32723 27.7952L8.34066 27.0517L7.96484 25.8522C7.64541 24.8302 7.4834 23.7656 7.48438 22.6948C7.48438 16.8793 12.2157 12.1479 18.0312 12.1479C20.9541 12.1479 23.7723 13.3779 25.763 15.5227L26.8739 16.7194L28.1491 15.6998C29.6169 14.5262 31.3862 13.9058 33.2656 13.9058C35.8921 13.9058 38.2968 15.119 39.8629 17.2344L40.7111 18.38L42.0073 17.7867C43.3864 17.1555 44.8612 16.8354 46.3906 16.8354C52.2062 16.8354 56.9375 21.5668 56.9375 27.3823C56.9375 33.1979 52.2062 37.9292 46.3906 37.9292Z" fill="#2166F3"/>
</g>
<defs>
<clipPath id="clip0_681_489">
<rect width="60" height="60" fill="white" transform="translate(0.453125 0.019043)"/>
</clipPath>
</defs>
</svg>
