<svg width="46" height="49" viewBox="0 0 46 49" fill="none" xmlns="http://www.w3.org/2000/svg">
<path d="M9.63109 41.9472C9.36229 41.9473 9.10021 41.8631 8.88172 41.7065C8.70533 41.5788 8.53872 41.438 8.38328 41.2854L5.33594 38.2347C5.01649 37.922 4.7627 37.5488 4.58945 37.1367C4.4162 36.7247 4.32699 36.2823 4.32703 35.8353C4.32365 35.3807 4.41116 34.93 4.58442 34.5097C4.75768 34.0894 5.01319 33.708 5.33594 33.3878L6.11625 32.5886C6.24521 32.4475 6.32721 32.2699 6.35092 32.0803C6.37462 31.8906 6.33887 31.6983 6.24859 31.5298C6.00453 30.9833 5.78453 30.459 5.58687 29.9142C5.53002 29.7323 5.42015 29.5714 5.27134 29.4523C5.12252 29.3332 4.94154 29.2612 4.75156 29.2456H3.61719C2.70579 29.2447 1.83197 28.8822 1.18751 28.2378C0.543054 27.5933 0.180598 26.7195 0.179688 25.8081V21.5112C0.180598 20.5998 0.543054 19.726 1.18751 19.0816C1.83197 18.4371 2.70579 18.0746 3.61719 18.0737H4.75156C4.94182 18.0574 5.12289 17.9848 5.27167 17.8651C5.42045 17.7454 5.53019 17.584 5.58687 17.4017C5.78625 16.8603 6.00453 16.3361 6.24 15.8101C6.3338 15.6442 6.37422 15.4534 6.35577 15.2636C6.33732 15.0739 6.26089 14.8944 6.13688 14.7497L5.32562 13.9229C5.00564 13.6028 4.75268 13.222 4.58152 12.803C4.41035 12.3839 4.32442 11.935 4.32875 11.4823C4.32916 11.0334 4.41939 10.589 4.59414 10.1755C4.76888 9.76196 5.02461 9.38756 5.34625 9.07436L8.37812 6.04248C8.69124 5.72322 9.06485 5.46956 9.47712 5.29633C9.88938 5.12311 10.332 5.03378 10.7792 5.03357H10.7964C11.2479 5.03252 11.695 5.12116 12.1119 5.29436C12.5288 5.46755 12.9072 5.72185 13.225 6.04248L14.0242 6.82279C14.1658 6.95145 14.3437 7.03322 14.5335 7.05691C14.7233 7.0806 14.9158 7.04506 15.0847 6.95514C15.6295 6.71107 16.1572 6.49107 16.7003 6.29342C16.8818 6.23608 17.0421 6.12603 17.1609 5.97728C17.2797 5.82852 17.3515 5.6478 17.3672 5.45811V4.32373C17.3681 3.41233 17.7306 2.53852 18.375 1.89406C19.0195 1.2496 19.8933 0.887141 20.8047 0.88623H25.1016C26.013 0.887141 26.8868 1.2496 27.5312 1.89406C28.1757 2.53852 28.5382 3.41233 28.5391 4.32373V5.45811C28.5554 5.6488 28.6282 5.83029 28.7483 5.97939C28.8683 6.12849 29.03 6.23842 29.2128 6.29514C29.7491 6.49279 30.2767 6.71107 30.8009 6.94482C30.9667 7.0386 31.1572 7.07932 31.3468 7.0615C31.5364 7.04367 31.716 6.96816 31.8614 6.84514L32.6916 6.03217C33.0087 5.71425 33.3857 5.46232 33.8008 5.29092C34.2159 5.11952 34.6608 5.03206 35.1098 5.03357H35.127C35.5761 5.03392 36.0206 5.12395 36.4343 5.29838C36.8481 5.47281 37.2229 5.72813 37.5367 6.04936L40.5703 9.08467C40.8898 9.39729 41.1435 9.77056 41.3168 10.1826C41.49 10.5946 41.5793 11.0371 41.5792 11.484C41.5826 11.9386 41.4951 12.3893 41.3218 12.8096C41.1486 13.2299 40.8931 13.6114 40.5703 13.9315L39.79 14.7308C39.6608 14.8717 39.5787 15.0493 39.5549 15.239C39.5312 15.4287 39.5671 15.6211 39.6577 15.7895C39.9017 16.3361 40.1217 16.8603 40.3194 17.4051C40.3762 17.5871 40.4861 17.7479 40.6349 17.867C40.7837 17.9861 40.9647 18.0581 41.1547 18.0737H42.2891C43.2005 18.0746 44.0743 18.4371 44.7187 19.0816C45.3632 19.726 45.7257 20.5998 45.7266 21.5112V25.8081C45.7257 26.7195 45.3632 27.5933 44.7187 28.2378C44.0743 28.8822 43.2005 29.2447 42.2891 29.2456H41.1547C40.9644 29.2619 40.7834 29.3346 40.6346 29.4543C40.4858 29.574 40.3761 29.7353 40.3194 29.9176C40.12 30.459 39.9017 30.9833 39.6663 31.5092C39.5725 31.6752 39.532 31.866 39.5505 32.0557C39.5689 32.2454 39.6454 32.4249 39.7694 32.5697L40.5806 33.3964C40.9006 33.7166 41.1536 34.0973 41.3247 34.5164C41.4959 34.9354 41.5818 35.3844 41.5775 35.837C41.5771 36.286 41.4869 36.7303 41.3121 37.1438C41.1374 37.5574 40.8816 37.9318 40.56 38.245L39.6937 39.1112C39.4494 39.3389 39.1262 39.4629 38.7922 39.457C38.4583 39.4511 38.1396 39.3158 37.9035 39.0796C37.6673 38.8435 37.532 38.5248 37.5261 38.1909C37.5202 37.8569 37.6442 37.5337 37.8719 37.2894L38.7484 36.4128C38.8282 36.3367 38.8917 36.2452 38.9351 36.1439C38.9785 36.0426 39.001 35.9335 39.0011 35.8233C39.0017 35.7092 38.9795 35.5962 38.9359 35.4908C38.8922 35.3854 38.8279 35.2898 38.7467 35.2097L37.9475 34.3933C37.4471 33.8786 37.1184 33.2215 37.0066 32.5123C36.8949 31.8032 37.0056 31.0769 37.3236 30.4333C37.5264 29.9829 37.7189 29.512 37.8994 29.0239C38.1386 28.3471 38.5782 27.7591 39.1597 27.3382C39.7412 26.9173 40.437 26.6833 41.1547 26.6675H42.2891C42.517 26.6675 42.7356 26.5769 42.8967 26.4158C43.0579 26.2546 43.1484 26.036 43.1484 25.8081V21.5112C43.1484 21.2833 43.0579 21.0647 42.8967 20.9036C42.7356 20.7424 42.517 20.6519 42.2891 20.6519H41.1547C40.4377 20.6362 39.7424 20.4027 39.1612 19.9824C38.5801 19.5621 38.1406 18.9749 37.9011 18.2989C37.722 17.8143 37.5259 17.3362 37.3133 16.8654C36.999 16.2188 36.8932 15.4906 37.0105 14.7812C37.1278 14.0719 37.4624 13.4165 37.9681 12.9054L38.7381 12.1183C38.8216 12.0376 38.888 11.941 38.9332 11.834C38.9784 11.7271 39.0015 11.6122 39.0011 11.4961C39.0012 11.3881 38.9796 11.2812 38.9377 11.1818C38.8958 11.0823 38.8344 10.9922 38.757 10.9169L35.7063 7.86436C35.5402 7.71753 35.3308 7.62883 35.1098 7.6117C34.9973 7.61189 34.886 7.63431 34.7821 7.67767C34.6783 7.72103 34.5841 7.78447 34.5048 7.86436L33.685 8.66529C33.1706 9.1656 32.5138 9.49421 31.805 9.60594C31.0961 9.71767 30.3701 9.60701 29.7267 9.2892C29.2641 9.08145 28.7946 8.88942 28.3191 8.71342C27.6386 8.47979 27.0468 8.0417 26.6247 7.45902C26.2026 6.87635 25.9708 6.17753 25.9609 5.45811V4.32373C25.9609 4.09581 25.8704 3.87722 25.7092 3.71606C25.5481 3.5549 25.3295 3.46436 25.1016 3.46436H20.8047C20.5768 3.46436 20.3582 3.5549 20.197 3.71606C20.0359 3.87722 19.9453 4.09581 19.9453 4.32373V5.45811C19.9361 6.17652 19.7053 6.87457 19.2845 7.45691C18.8636 8.03924 18.2733 8.47746 17.5941 8.7117C17.1008 8.89217 16.6316 9.08811 16.1589 9.29951C15.5123 9.61382 14.784 9.71963 14.0747 9.60233C13.3654 9.48503 12.7099 9.15041 12.1989 8.64467L11.4117 7.87467C11.2458 7.71136 11.024 7.61734 10.7912 7.6117C10.6825 7.61131 10.5747 7.63271 10.4744 7.67462C10.374 7.71654 10.2831 7.77813 10.2069 7.85576L7.16125 10.9065C7.08121 10.9825 7.0174 11.0739 6.97368 11.1753C6.92995 11.2766 6.90723 11.3857 6.90688 11.4961C6.90625 11.6101 6.92843 11.7232 6.97211 11.8286C7.0158 11.9339 7.0801 12.0295 7.16125 12.1097L7.96047 12.9261C8.46092 13.4408 8.78961 14.0979 8.90133 14.807C9.01306 15.5161 8.90233 16.2424 8.58437 16.8861C8.38156 17.3364 8.18906 17.8073 8.00859 18.2954C7.76927 18.9725 7.32942 19.5607 6.74759 19.9816C6.16576 20.4026 5.46953 20.6364 4.75156 20.6519H3.61719C3.38927 20.6519 3.17068 20.7424 3.00952 20.9036C2.84835 21.0647 2.75781 21.2833 2.75781 21.5112V25.8081C2.75781 26.036 2.84835 26.2546 3.00952 26.4158C3.17068 26.5769 3.38927 26.6675 3.61719 26.6675H4.75156C5.46859 26.6832 6.16387 26.9167 6.74502 27.337C7.32617 27.7572 7.76568 28.3444 8.00516 29.0204C8.18562 29.512 8.37984 29.9829 8.59297 30.4539C8.90728 31.1005 9.01309 31.8288 8.89579 32.5381C8.77849 33.2474 8.44387 33.9029 7.93812 34.4139L7.16812 35.2011C7.08462 35.2817 7.01828 35.3784 6.97309 35.4853C6.9279 35.5922 6.90479 35.7072 6.90516 35.8233C6.90507 35.9312 6.92662 36.0381 6.96854 36.1376C7.01046 36.2371 7.0719 36.3271 7.14922 36.4025L10.2 39.455C10.2573 39.5111 10.3188 39.5628 10.3839 39.6097C10.6062 39.7687 10.7722 39.9942 10.8579 40.2537C10.9436 40.5131 10.9447 40.7932 10.8609 41.0533C10.7772 41.3134 10.6129 41.5402 10.3918 41.7008C10.1708 41.8615 9.90437 41.9478 9.63109 41.9472Z" fill="#2166F3"/>
<path d="M14.5313 34.1097C14.2116 34.11 13.9034 33.9911 13.6667 33.7762C12.6711 32.8765 11.8175 31.8311 11.135 30.6756C9.86631 28.5556 9.19849 26.1303 9.20315 23.6597C9.20315 20.0129 10.6518 16.5156 13.2304 13.9369C15.8091 11.3583 19.3064 9.90967 22.9531 9.90967C26.5999 9.90967 30.0972 11.3583 32.6759 13.9369C35.2545 16.5156 36.7031 20.0129 36.7031 23.6597C36.7071 26.1331 36.0374 28.5608 34.7661 30.6825C34.6823 30.8339 34.5687 30.9669 34.4324 31.0735C34.296 31.1801 34.1395 31.2582 33.9723 31.303C33.8052 31.3479 33.6306 31.3586 33.4592 31.3345C33.2878 31.3104 33.123 31.2521 32.9746 31.1629C32.8262 31.0738 32.6973 30.9557 32.5956 30.8156C32.4938 30.6756 32.4213 30.5165 32.3824 30.3478C32.3435 30.1791 32.3389 30.0044 32.369 29.8339C32.3991 29.6634 32.4632 29.5008 32.5575 29.3556C33.5872 27.6344 34.1291 25.6654 34.125 23.6597C34.125 20.6967 32.948 17.8551 30.8529 15.76C28.7577 13.6648 25.9161 12.4878 22.9531 12.4878C19.9902 12.4878 17.1486 13.6648 15.0534 15.76C12.9583 17.8551 11.7813 20.6967 11.7813 23.6597C11.7772 25.6654 12.3191 27.6344 13.3488 29.3556C13.9007 30.29 14.5902 31.136 15.3941 31.865C15.587 32.0396 15.7225 32.2685 15.7829 32.5217C15.8432 32.7748 15.8255 33.0402 15.7322 33.2831C15.6388 33.526 15.4741 33.7349 15.2598 33.8825C15.0455 34.03 14.7915 34.1092 14.5313 34.1097Z" fill="#2166F3"/>
<path d="M33.9398 48.152H11.9673C11.1235 48.1521 10.295 47.9263 9.56792 47.498C8.84084 47.0697 8.24166 46.4546 7.83263 45.7165C7.4236 44.9784 7.21962 44.1443 7.24188 43.3008C7.26414 42.4572 7.51183 41.635 7.95922 40.9195L18.9455 23.3436C19.3703 22.6638 19.9611 22.1032 20.6623 21.7146C21.3635 21.326 22.1519 21.1221 22.9536 21.1221C23.7552 21.1221 24.5437 21.326 25.2449 21.7146C25.9461 22.1032 26.5368 22.6638 26.9617 23.3436L37.948 40.9195C38.3954 41.635 38.643 42.4572 38.6653 43.3008C38.6876 44.1443 38.4836 44.9784 38.0746 45.7165C37.6655 46.4546 37.0664 47.0697 36.3393 47.498C35.6122 47.9263 34.7837 48.1521 33.9398 48.152ZM21.13 24.7083L10.1455 42.2876C9.94257 42.613 9.83036 42.9866 9.82046 43.3699C9.81056 43.7532 9.90334 44.1322 10.0892 44.4676C10.275 44.8029 10.5471 45.0825 10.8774 45.2773C11.2076 45.4722 11.5839 45.5751 11.9673 45.5756H33.9398C34.3235 45.5757 34.7002 45.4731 35.0307 45.2784C35.3613 45.0837 35.6337 44.804 35.8196 44.4685C36.0056 44.1329 36.0983 43.7537 36.0881 43.3701C36.0779 42.9866 35.9652 42.6129 35.7617 42.2876L24.7772 24.7117C24.5745 24.415 24.3024 24.1722 23.9846 24.0045C23.6669 23.8367 23.3129 23.7491 22.9536 23.7491C22.5943 23.7491 22.2403 23.8367 21.9226 24.0045C21.6048 24.1722 21.3327 24.415 21.13 24.7117V24.7083Z" fill="#2166F3"/>
<path d="M22.9531 38.6992C22.6112 38.6992 22.2834 38.5634 22.0416 38.3217C21.7999 38.0799 21.6641 37.752 21.6641 37.4102V32.2539C21.6641 31.912 21.7999 31.5841 22.0416 31.3424C22.2834 31.1007 22.6112 30.9648 22.9531 30.9648C23.295 30.9648 23.6229 31.1007 23.8646 31.3424C24.1064 31.5841 24.2422 31.912 24.2422 32.2539V37.4102C24.2422 37.752 24.1064 38.0799 23.8646 38.3217C23.6229 38.5634 23.295 38.6992 22.9531 38.6992Z" fill="#2166F3"/>
<path d="M22.9531 42.9961C23.6651 42.9961 24.2422 42.419 24.2422 41.707C24.2422 40.9951 23.6651 40.418 22.9531 40.418C22.2412 40.418 21.6641 40.9951 21.6641 41.707C21.6641 42.419 22.2412 42.9961 22.9531 42.9961Z" fill="#2166F3"/>
</svg>
