<svg width="172" height="31" viewBox="0 0 172 31" fill="none" xmlns="http://www.w3.org/2000/svg">
<path d="M14.3347 2.94211C14.6226 2.36142 15.4542 2.36142 15.7421 2.94211L19.0069 9.52878C19.1212 9.75938 19.3421 9.91921 19.5977 9.95619L26.8981 11.0124C27.5417 11.1055 27.7987 11.8931 27.333 12.3451L22.0504 17.4721C21.8654 17.6516 21.781 17.9102 21.8247 18.1636L23.0718 25.4031C23.1817 26.0413 22.5089 26.528 21.9332 26.2267L15.4035 22.8087C15.1749 22.689 14.9018 22.689 14.6732 22.8087L8.14358 26.2267C7.56791 26.528 6.89509 26.0413 7.00503 25.4031L8.25209 18.1636C8.29575 17.9102 8.21136 17.6516 8.02641 17.4721L2.74381 12.3451C2.27808 11.8931 2.53507 11.1055 3.17869 11.0124L10.4791 9.95619C10.7347 9.91921 10.9556 9.75938 11.0699 9.52878L14.3347 2.94211Z" fill="#E62A2A"/>
<path d="M49.7204 2.94211C50.0082 2.36142 50.8398 2.36142 51.1277 2.94211L54.3925 9.52878C54.5068 9.75938 54.7277 9.91921 54.9833 9.95619L62.2837 11.0124C62.9273 11.1055 63.1843 11.8931 62.7186 12.3451L57.436 17.4721C57.251 17.6516 57.1667 17.9102 57.2103 18.1636L58.4574 25.4031C58.5673 26.0413 57.8945 26.528 57.3188 26.2267L50.7892 22.8087C50.5606 22.689 50.2875 22.689 50.0589 22.8087L43.5292 26.2267C42.9535 26.528 42.2807 26.0413 42.3907 25.4031L43.6377 18.1636C43.6814 17.9102 43.597 17.6516 43.412 17.4721L38.1294 12.3451C37.6637 11.8931 37.9207 11.1055 38.5643 11.0124L45.8647 9.95619C46.1203 9.91921 46.3412 9.75938 46.4555 9.52878L49.7204 2.94211Z" fill="#E62A2A"/>
<path d="M85.106 2.94211C85.3938 2.36142 86.2255 2.36142 86.5133 2.94211L89.7781 9.52878C89.8924 9.75938 90.1134 9.91921 90.3689 9.95619L97.6693 11.0124C98.313 11.1055 98.5699 11.8931 98.1042 12.3451L92.8216 17.4721C92.6367 17.6516 92.5523 17.9102 92.5959 18.1636L93.843 25.4031C93.9529 26.0413 93.2801 26.528 92.7044 26.2267L86.1748 22.8087C85.9462 22.689 85.6731 22.689 85.4445 22.8087L78.9148 26.2267C78.3391 26.528 77.6663 26.0413 77.7763 25.4031L79.0233 18.1636C79.067 17.9102 78.9826 17.6516 78.7977 17.4721L73.515 12.3451C73.0493 11.8931 73.3063 11.1055 73.9499 11.0124L81.2503 9.95619C81.5059 9.91921 81.7268 9.75938 81.8411 9.52878L85.106 2.94211Z" fill="#E62A2A"/>
<path d="M120.492 2.94211C120.779 2.36142 121.611 2.36142 121.899 2.94211L125.164 9.52878C125.278 9.75938 125.499 9.91921 125.755 9.95619L133.055 11.0124C133.699 11.1055 133.956 11.8931 133.49 12.3451L128.207 17.4721C128.022 17.6516 127.938 17.9102 127.982 18.1636L129.229 25.4031C129.339 26.0413 128.666 26.528 128.09 26.2267L121.56 22.8087C121.332 22.689 121.059 22.689 120.83 22.8087L114.3 26.2267C113.725 26.528 113.052 26.0413 113.162 25.4031L114.409 18.1636C114.453 17.9102 114.368 17.6516 114.183 17.4721L108.901 12.3451C108.435 11.8931 108.692 11.1055 109.336 11.0124L116.636 9.95619C116.892 9.91921 117.112 9.75938 117.227 9.52878L120.492 2.94211Z" fill="#E62A2A"/>
<mask id="mask0_4_1097" style="mask-type:alpha" maskUnits="userSpaceOnUse" x="144" y="2" width="26" height="25">
<path d="M155.877 2.94211C156.165 2.36142 156.997 2.36142 157.285 2.94211L160.549 9.52878C160.664 9.75938 160.885 9.91921 161.14 9.95619L168.441 11.0124C169.084 11.1055 169.341 11.8931 168.875 12.3451L163.593 17.4721C163.408 17.6516 163.324 17.9102 163.367 18.1636L164.614 25.4031C164.724 26.0413 164.051 26.528 163.476 26.2267L156.946 22.8087C156.717 22.689 156.444 22.689 156.216 22.8087L149.686 26.2267C149.11 26.528 148.438 26.0413 148.548 25.4031L149.795 18.1636C149.838 17.9102 149.754 17.6516 149.569 17.4721L144.286 12.3451C143.821 11.8931 144.078 11.1055 144.721 11.0124L152.022 9.95619C152.277 9.91921 152.498 9.75938 152.612 9.52878L155.877 2.94211Z" fill="#E62A2A"/>
</mask>
<g mask="url(#mask0_4_1097)">
<rect x="141.542" width="21.2314" height="30.0778" fill="#E52A2A"/>
</g>
</svg>
