<svg width="62" height="63" viewBox="0 0 62 63" fill="none" xmlns="http://www.w3.org/2000/svg">
<g clip-path="url(#clip0_478_149)">
<path d="M54.2498 62.2367H7.7498C3.46992 62.2367 0 58.7667 0 54.4863V7.98631C0 3.70643 3.46992 0.236511 7.7498 0.236511H54.2498C58.5302 0.236511 62.0002 3.70643 62.0002 7.98631V54.4863C62.0002 58.7667 58.5302 62.2367 54.2498 62.2367ZM7.7498 3.33632C5.18184 3.33632 3.0998 5.41835 3.0998 7.98631V54.4863C3.0998 57.0548 5.18184 59.1363 7.7498 59.1363H54.2498C56.8183 59.1363 58.8998 57.0548 58.8998 54.4863V7.98631C58.8998 5.41835 56.8183 3.33632 54.2498 3.33632H7.7498Z" fill="black"/>
<path d="M46.5002 48.2867H44.95C40.6701 48.2867 37.2002 44.8167 37.2002 40.5363H40.3C40.3 43.1048 42.382 45.1863 44.95 45.1863H46.5002C49.0681 45.1863 51.1502 43.1048 51.1502 40.5363V37.4365C51.1502 34.8685 49.0681 32.7865 46.5002 32.7865H44.95C40.6701 32.7865 37.2002 29.3166 37.2002 25.0367V21.9363C37.2002 17.6564 40.6701 14.1865 44.95 14.1865H46.5002C50.7806 14.1865 54.25 17.6564 54.25 21.9363H51.1502C51.1502 19.3683 49.0681 17.2863 46.5002 17.2863H44.95C42.382 17.2863 40.3 19.3683 40.3 21.9363V25.0367C40.3 27.6046 42.382 29.6867 44.95 29.6867H46.5002C50.7806 29.6867 54.25 33.156 54.25 37.4365V40.5363C54.25 44.8167 50.7806 48.2867 46.5002 48.2867ZM24.8004 48.2867H23.2502C18.9697 48.2867 15.5004 44.8167 15.5004 40.5363V21.9363C15.5004 17.6564 18.9697 14.1865 23.2502 14.1865H24.8004C29.0803 14.1865 32.5502 17.6564 32.5502 21.9363V40.5363C32.5502 44.8167 29.0803 48.2867 24.8004 48.2867ZM23.2502 17.2863C20.6822 17.2863 18.6002 19.3683 18.6002 21.9363V40.5363C18.6002 43.1048 20.6822 45.1863 23.2502 45.1863H24.8004C27.3683 45.1863 29.4504 43.1048 29.4504 40.5363V21.9363C29.4504 19.3683 27.3683 17.2863 24.8004 17.2863H23.2502ZM7.75 31.2363H10.8504V48.2867H7.75V31.2363ZM10.8504 25.0367H7.75V28.1365H10.8504V25.0367Z" fill="black"/>
</g>
<defs>
<clipPath id="clip0_478_149">
<rect width="62" height="62" fill="white" transform="translate(0 0.236511)"/>
</clipPath>
</defs>
</svg>
