<svg width="63" height="63" viewBox="0 0 63 63" fill="none" xmlns="http://www.w3.org/2000/svg">
<path d="M54.8496 44.596V40.59C54.848 39.2644 54.3207 37.9936 53.3834 37.0562C52.4461 36.1189 51.1752 35.5916 49.8496 35.59H41.4316C42.3572 33.8825 43.1038 32.084 43.6596 30.223L47.4596 27.182C48.0503 26.7105 48.4821 26.0691 48.6967 25.3444C48.9114 24.6197 48.8986 23.8466 48.6601 23.1294C48.4216 22.4122 47.9688 21.7855 47.3629 21.3337C46.757 20.8819 46.027 20.6269 45.2716 20.603L47.4996 14.477C48.0681 12.9136 48.2514 11.2362 48.0339 9.58698C47.8164 7.93772 47.2046 6.36518 46.2503 5.00259C45.296 3.64 44.0273 2.52752 42.5517 1.7594C41.0761 0.991277 39.4371 0.590154 37.7736 0.590013H29.2836C22.9309 0.588428 16.7059 2.37375 11.3196 5.74201C11.1578 5.84226 11.0279 5.98662 10.9453 6.15812C10.8627 6.32962 10.8307 6.52115 10.8532 6.71018C10.8757 6.89922 10.9516 7.07791 11.0722 7.22527C11.1927 7.37262 11.3528 7.4825 11.5336 7.54201L13.9446 8.34201C14.2764 8.45271 14.5822 8.63004 14.843 8.86312C15.1039 9.0962 15.3144 9.38012 15.4616 9.69746C15.6088 10.0148 15.6896 10.3589 15.699 10.7086C15.7085 11.0582 15.6464 11.4062 15.5166 11.731C15.277 12.3299 15.1669 12.9727 15.1937 13.6171C15.2204 14.2616 15.3833 14.893 15.6716 15.47L18.2496 20.621C17.5121 20.6797 16.8093 20.9588 16.2324 21.4221C15.6556 21.8853 15.2314 22.5113 15.0149 23.2188C14.7983 23.9262 14.7995 24.6824 15.0183 25.3892C15.2371 26.0959 15.6633 26.7206 16.2416 27.182L20.0416 30.223C20.5967 32.0839 21.3427 33.8825 22.2676 35.59H13.8496C12.524 35.5916 11.2532 36.1189 10.3158 37.0562C9.37849 37.9936 8.8512 39.2644 8.84961 40.59V44.596C6.48285 45.5847 4.46092 47.2506 3.03763 49.3844C1.61435 51.5183 0.853156 54.025 0.849609 56.59V61.59C0.849609 61.8552 0.954966 62.1096 1.1425 62.2971C1.33004 62.4847 1.58439 62.59 1.84961 62.59H61.8496C62.1148 62.59 62.3692 62.4847 62.5567 62.2971C62.7443 62.1096 62.8496 61.8552 62.8496 61.59V56.59C62.8461 54.025 62.0849 51.5183 60.6616 49.3844C59.2383 47.2506 57.2164 45.5847 54.8496 44.596ZM39.8496 20.59H33.8496C33.5844 20.59 33.33 20.6954 33.1425 20.8829C32.955 21.0704 32.8496 21.3248 32.8496 21.59V22.59H30.8496V21.59C30.8496 21.3248 30.7443 21.0704 30.5567 20.8829C30.3692 20.6954 30.1148 20.59 29.8496 20.59H20.8496V19.125L27.0916 14.964C28.4348 14.0667 30.0142 13.5885 31.6296 13.59C33.9407 13.5873 36.1825 12.8008 37.9886 11.359L39.6226 10.052L41.3376 12.626C42.325 14.1035 42.8513 15.841 42.8496 17.618V20.59H39.8496ZM38.8496 22.59V25.59C38.8496 25.8552 38.7443 26.1096 38.5567 26.2971C38.3692 26.4847 38.1148 26.59 37.8496 26.59H35.8496C35.5844 26.59 35.33 26.4847 35.1425 26.2971C34.955 26.1096 34.8496 25.8552 34.8496 25.59V22.59H38.8496ZM28.8496 22.59V25.59C28.8496 25.8552 28.7443 26.1096 28.5567 26.2971C28.3692 26.4847 28.1148 26.59 27.8496 26.59H25.8496C25.5844 26.59 25.33 26.4847 25.1425 26.2971C24.955 26.1096 24.8496 25.8552 24.8496 25.59V22.59H28.8496ZM46.8496 24.29C46.8501 24.5451 46.793 24.7971 46.6825 25.027C46.5721 25.257 46.4111 25.459 46.2116 25.618L44.3986 27.068C44.6629 25.5893 44.8084 24.0919 44.8336 22.59H45.1496C45.6005 22.59 46.0329 22.7691 46.3517 23.0879C46.6705 23.4067 46.8496 23.8391 46.8496 24.29ZM17.3726 12.474C17.6036 11.8962 17.7142 11.2773 17.6975 10.6553C17.6808 10.0333 17.5372 9.42122 17.2755 8.85668C17.0137 8.29214 16.6394 7.78702 16.1755 7.37231C15.7116 6.9576 15.1678 6.64205 14.5776 6.44501L14.2716 6.34501C18.891 3.87879 24.0471 2.58909 29.2836 2.59001H37.7736C39.1153 2.59026 40.4372 2.91382 41.6273 3.53329C42.8174 4.15276 43.8408 5.0499 44.6106 6.14873C45.3805 7.24757 45.8742 8.51574 46.05 9.84586C46.2259 11.176 46.0786 12.5289 45.6206 13.79L44.7516 16.18C44.5344 14.5103 43.9356 12.913 43.0016 11.512L40.6816 8.03101C40.6046 7.91571 40.5045 7.81768 40.3876 7.74314C40.2707 7.6686 40.1396 7.61918 40.0026 7.59801C39.8657 7.57733 39.7259 7.58503 39.5921 7.62064C39.4583 7.65625 39.3332 7.71901 39.2246 7.80501L36.7396 9.79801C35.2878 10.9557 33.4865 11.5874 31.6296 11.59C29.6192 11.5882 27.6534 12.1833 25.9816 13.3L19.2946 17.758C19.2326 17.8001 19.1756 17.8491 19.1246 17.904L17.4606 14.575C17.2984 14.2509 17.2068 13.8961 17.1916 13.5339C17.1764 13.1718 17.2381 12.8106 17.3726 12.474ZM17.4886 25.62C17.2126 25.4003 17.0118 25.1001 16.914 24.7611C16.8162 24.4222 16.8264 24.0612 16.943 23.7282C17.0595 23.3952 17.2768 23.1068 17.5647 22.9028C17.8526 22.6989 18.1968 22.5896 18.5496 22.59H18.8636C18.8888 24.0926 19.0342 25.5907 19.2986 27.07L17.4886 25.62ZM20.8656 22.59H22.8496V25.59C22.8496 26.3857 23.1657 27.1487 23.7283 27.7113C24.2909 28.2739 25.054 28.59 25.8496 28.59H27.8496C28.6453 28.59 29.4083 28.2739 29.9709 27.7113C30.5335 27.1487 30.8496 26.3857 30.8496 25.59V24.59H32.8496V25.59C32.8496 26.3857 33.1657 27.1487 33.7283 27.7113C34.2909 28.2739 35.054 28.59 35.8496 28.59H37.8496C38.6453 28.59 39.4083 28.2739 39.9709 27.7113C40.5335 27.1487 40.8496 26.3857 40.8496 25.59V22.59H42.8336C42.756 27.1735 41.4763 31.6563 39.1226 35.59H24.5766C22.2229 31.6563 20.9433 27.1735 20.8656 22.59ZM13.8496 37.59H49.8496C50.6453 37.59 51.4083 37.9061 51.9709 38.4687C52.5335 39.0313 52.8496 39.7944 52.8496 40.59V60.59H10.8496V40.59C10.8496 39.7944 11.1657 39.0313 11.7283 38.4687C12.2909 37.9061 13.054 37.59 13.8496 37.59ZM2.84961 56.59C2.85232 54.5638 3.41385 52.5775 4.47242 50.8497C5.53099 49.122 7.04559 47.7196 8.84961 46.797V60.59H2.84961V56.59ZM60.8496 60.59H54.8496V46.797C56.6536 47.7197 58.1681 49.1221 59.2267 50.8498C60.2852 52.5776 60.8468 54.5638 60.8496 56.59V60.59Z" fill="#3D79F4"/>
<path d="M31.8494 57.59C32.6405 57.59 33.4139 57.3554 34.0717 56.9159C34.7295 56.4764 35.2422 55.8517 35.5449 55.1207C35.8477 54.3898 35.9269 53.5856 35.7725 52.8097C35.6182 52.0337 35.2372 51.321 34.6778 50.7616C34.1184 50.2022 33.4057 49.8212 32.6298 49.6669C31.8538 49.5125 31.0496 49.5917 30.3187 49.8945C29.5878 50.1972 28.963 50.7099 28.5235 51.3677C28.084 52.0255 27.8494 52.7989 27.8494 53.59C27.8494 54.6509 28.2708 55.6683 29.021 56.4184C29.7711 57.1686 30.7885 57.59 31.8494 57.59ZM31.8494 51.59C32.245 51.59 32.6316 51.7073 32.9605 51.9271C33.2894 52.1468 33.5458 52.4592 33.6972 52.8246C33.8485 53.1901 33.8881 53.5922 33.811 53.9802C33.7338 54.3682 33.5433 54.7245 33.2636 55.0042C32.9839 55.2839 32.6275 55.4744 32.2396 55.5516C31.8516 55.6288 31.4495 55.5891 31.084 55.4378C30.7186 55.2864 30.4062 55.0301 30.1865 54.7012C29.9667 54.3723 29.8494 53.9856 29.8494 53.59C29.8494 53.0596 30.0601 52.5509 30.4352 52.1758C30.8103 51.8007 31.319 51.59 31.8494 51.59ZM25.1424 48.297L26.5564 46.883L23.2634 43.59L26.5564 40.297L25.1424 38.883L21.1424 42.883C20.9549 43.0705 20.8496 43.3248 20.8496 43.59C20.8496 43.8552 20.9549 44.1095 21.1424 44.297L25.1424 48.297ZM38.5564 48.297L42.5564 44.297C42.7439 44.1095 42.8492 43.8552 42.8492 43.59C42.8492 43.3248 42.7439 43.0705 42.5564 42.883L38.5564 38.883L37.1424 40.297L40.4354 43.59L37.1424 46.883L38.5564 48.297ZM28.0494 46.989L34.0494 38.99L35.6494 40.19L29.6484 48.19L28.0494 46.989Z" fill="#3D79F4"/>
</svg>
