<svg width="63" height="81" viewBox="0 0 63 81" fill="none" xmlns="http://www.w3.org/2000/svg">
<path d="M23.4926 7.69714H29.8348C30.1658 7.69714 30.4831 7.56568 30.7171 7.33169C30.9511 7.09769 31.0826 6.78033 31.0826 6.44941C31.0826 6.11849 30.9511 5.80112 30.7171 5.56712C30.4831 5.33313 30.1658 5.20167 29.8348 5.20167H23.4926C23.1617 5.20167 22.8443 5.33313 22.6103 5.56712C22.3763 5.80112 22.2449 6.11849 22.2449 6.44941C22.2449 6.78033 22.3763 7.09769 22.6103 7.33169C22.8443 7.56568 23.1617 7.69714 23.4926 7.69714ZM17.8366 74.8702H29.1486C29.4795 74.8702 29.7969 74.7388 30.0309 74.5048C30.2649 74.2708 30.3963 73.9534 30.3963 73.6225C30.3963 73.2916 30.2649 72.9742 30.0309 72.7402C29.7969 72.5062 29.4795 72.3748 29.1486 72.3748H17.8366C17.5057 72.3748 17.1883 72.5062 16.9543 72.7402C16.7203 72.9742 16.5889 73.2916 16.5889 73.6225C16.5889 73.9534 16.7203 74.2708 16.9543 74.5048C17.1883 74.7388 17.5057 74.8702 17.8366 74.8702Z" fill="#3D79F4"/>
<path d="M1.75311 62.4553C2.08403 62.4553 2.40139 62.3238 2.63539 62.0898C2.86939 61.8558 3.00084 61.5385 3.00084 61.2075V12.3786H43.9827V18.797C43.9827 19.1279 44.1142 19.4453 44.3482 19.6793C44.5822 19.9133 44.8995 20.0447 45.2305 20.0447C45.5614 20.0447 45.8788 19.9133 46.1128 19.6793C46.3467 19.4453 46.4782 19.1279 46.4782 18.797L46.4832 5.49114C46.4832 2.7586 44.2497 0.525156 41.5085 0.525156H5.47136C2.86359 0.525156 0.505371 2.67126 0.505371 5.49489V61.2075C0.505371 61.5385 0.636829 61.8558 0.870825 62.0898C1.10482 62.3238 1.42219 62.4553 1.75311 62.4553ZM41.506 3.02063C42.8248 3.02063 43.984 4.09992 43.984 5.49489V9.88317H3.00084V5.49114C3.00084 4.13111 4.11632 3.02063 5.4751 3.02063H41.506Z" fill="#3D79F4"/>
<path d="M31.192 31.9631C31.4272 32.1959 31.7451 32.3257 32.076 32.3241C32.4068 32.3224 32.7235 32.1894 32.9563 31.9544L38.1719 26.6914C38.4031 26.4578 38.5328 26.1424 38.5328 25.8136C38.5328 25.4849 38.4031 25.1695 38.1719 24.9359L32.9563 19.6729C32.7211 19.4499 32.4083 19.3273 32.0842 19.3309C31.7601 19.3345 31.4501 19.4641 31.2198 19.6922C30.9896 19.9204 30.8571 20.2291 30.8506 20.5532C30.844 20.8773 30.9637 21.1912 31.1845 21.4285L35.5279 25.8143L31.1833 30.1988C30.9505 30.4339 30.8207 30.7519 30.8223 31.0828C30.824 31.4136 30.9569 31.7303 31.192 31.9631ZM15.7912 19.6642C15.675 19.5486 15.537 19.4572 15.3853 19.395C15.2336 19.3329 15.0712 19.3014 14.9073 19.3022C14.7433 19.303 14.5812 19.3362 14.4301 19.3998C14.2791 19.4634 14.142 19.5562 14.0269 19.6729L8.81264 24.9359C8.58138 25.1695 8.45166 25.4849 8.45166 25.8136C8.45166 26.1424 8.58138 26.4578 8.81264 26.6914L14.0282 31.9544C14.142 32.0767 14.2793 32.175 14.4319 32.2433C14.5845 32.3116 14.7492 32.3485 14.9163 32.3519C15.0834 32.3553 15.2495 32.3251 15.4048 32.2631C15.56 32.201 15.7011 32.1084 15.8199 31.9908C15.9386 31.8731 16.0325 31.7328 16.096 31.5782C16.1594 31.4235 16.1912 31.2577 16.1893 31.0906C16.1875 30.9234 16.152 30.7584 16.0852 30.6052C16.0183 30.452 15.9213 30.3138 15.8 30.1988L11.4566 25.8143L15.8 21.4285C16.0327 21.1933 16.1626 20.8754 16.1609 20.5445C16.1593 20.2137 16.0263 19.897 15.7912 19.6642ZM25.5036 16.1381L18.1794 34.5671C18.1188 34.7194 18.0889 34.8822 18.0912 35.046C18.0936 35.2099 18.1282 35.3717 18.1931 35.5222C18.258 35.6728 18.3518 35.809 18.4694 35.9232C18.5869 36.0374 18.7258 36.1274 18.8781 36.1879C19.0304 36.2485 19.1932 36.2784 19.357 36.2761C19.5209 36.2737 19.6827 36.2391 19.8332 36.1743C19.9837 36.1094 20.12 36.0155 20.2342 35.8979C20.3484 35.7804 20.4384 35.6415 20.4989 35.4892L27.8231 17.0601C27.9454 16.7524 27.9404 16.4087 27.8093 16.1046C27.6781 15.8005 27.4315 15.561 27.1238 15.4387C26.816 15.3164 26.4723 15.3214 26.1682 15.4526C25.8641 15.5837 25.6246 15.8303 25.5023 16.1381H25.5036ZM45.2365 39.2549C41.5807 39.2549 38.6111 42.2245 38.6111 45.8804C38.6111 49.5712 41.6206 52.5058 45.2365 52.5058C48.8375 52.5058 51.8495 49.5761 51.8495 45.8804C51.8495 42.2245 48.8799 39.2549 45.2365 39.2549ZM46.4843 49.8107V45.0568C46.4843 44.3706 45.9228 43.8091 45.2365 43.8091C44.5378 43.8091 43.9888 44.3706 43.9888 45.0568V49.8232C43.0509 49.5227 42.251 48.8974 41.7332 48.0597C41.2153 47.222 41.0134 46.227 41.1638 45.2537C41.3142 44.2804 41.8071 43.3928 42.5537 42.7505C43.3004 42.1083 44.2517 41.7536 45.2365 41.7503C47.5074 41.7503 49.3541 43.6095 49.3541 45.8804C49.3541 47.727 48.1438 49.2867 46.4843 49.8107Z" fill="#3D79F4"/>
<path d="M61.3949 41.9375L58.3255 41.5881C58.0884 40.8645 57.7889 40.1532 57.4271 39.467L59.2238 36.9216C59.5857 36.435 59.5233 35.7487 59.0991 35.3245L55.518 31.756C55.3026 31.5373 55.0139 31.4062 54.7075 31.3877C54.401 31.3693 54.0987 31.4649 53.8586 31.6562L51.4504 33.5902C50.7642 33.2408 50.053 32.9538 49.3168 32.7292L48.8052 29.6473C48.7551 29.3565 48.6034 29.0929 48.3773 28.9033C48.1511 28.7137 47.8651 28.6103 47.57 28.6117H42.5166C41.8803 28.6117 41.3438 29.0858 41.2689 29.7222L40.932 32.8041C40.1959 33.0412 39.4971 33.3406 38.8233 33.69L36.2655 31.8808C36.0266 31.7095 35.7344 31.6292 35.4416 31.6544C35.1487 31.6795 34.8745 31.8085 34.6684 32.018L31.0999 35.5865C30.6507 36.0357 30.6132 36.7469 31.0125 37.246L32.934 39.6666C32.5847 40.3529 32.2977 41.0641 32.0731 41.8003L29.0037 42.3118C28.4047 42.4241 27.9556 42.9357 27.9556 43.5471V48.6004C27.9556 49.2368 28.4422 49.7608 29.066 49.8357L32.1355 50.185C32.3725 50.9212 32.6845 51.6324 33.0338 52.3062L31.2371 54.8391C30.8877 55.3382 30.9377 56.012 31.3744 56.4487L34.9429 60.0172C35.3921 60.4664 36.1033 60.5038 36.6024 60.1045L39.023 58.183C39.7092 58.5199 40.408 58.8069 41.1441 59.0315L41.6557 62.1134C41.7032 62.4065 41.8537 62.6731 42.0801 62.8652C42.3065 63.0573 42.594 63.1624 42.891 63.1615H43.989V65.919H1.75311C1.06685 65.919 0.505371 66.4805 0.505371 67.1667V75.4143C0.508665 76.7303 1.03292 77.9915 1.96351 78.9221C2.8941 79.8527 4.15531 80.377 5.47136 80.3803H41.506C44.251 80.3803 46.4844 78.1468 46.4844 75.4143V63.1615H47.9443C48.5806 63.1615 49.1172 62.6874 49.192 62.051L49.5414 58.9691C50.2669 58.7309 50.9721 58.4346 51.6501 58.0832L54.1954 59.8924C54.6945 60.2418 55.3683 60.1794 55.805 59.7552L59.3611 56.1742C59.8103 55.725 59.8477 55.0138 59.4484 54.5272L57.5269 52.1066C57.8763 51.4078 58.1632 50.6966 58.3878 49.9729L61.4573 49.4489C62.0562 49.3491 62.5054 48.825 62.5054 48.2261V43.1728C62.5054 42.5364 62.0312 41.9999 61.3949 41.9375ZM43.989 75.4143C43.989 76.7743 42.8785 77.8848 41.506 77.8848H5.47136C4.11133 77.8848 3.00084 76.7743 3.00084 75.4143V68.4145H43.989V75.4143ZM60.0099 47.1655L57.19 47.6397C56.6909 47.727 56.3041 48.0888 56.1793 48.5879C55.9298 49.636 55.518 50.6467 54.969 51.6075C54.707 52.0442 54.7444 52.6057 55.0689 53.0049L56.8032 55.2009L54.7819 57.2472L52.4361 55.5753C52.2361 55.4355 51.9994 55.3574 51.7555 55.3508C51.5115 55.3441 51.271 55.4092 51.0636 55.5378C50.1528 56.0993 49.1546 56.5235 48.094 56.7856C47.5824 56.9103 47.2081 57.347 47.1457 57.8586L46.8338 60.666H43.9391L43.4649 57.8337C43.4259 57.5931 43.316 57.3696 43.1493 57.1918C42.9826 57.014 42.7667 56.8899 42.5291 56.8355C41.481 56.5735 40.4704 56.1617 39.5346 55.6127C39.3173 55.484 39.0659 55.4245 38.814 55.4424C38.5621 55.4602 38.3216 55.5544 38.1246 55.7125L35.9161 57.4593L33.8823 55.4255L35.5293 53.1172C35.7951 52.7417 35.8413 52.1864 35.5792 51.7198C35.0177 50.8089 34.581 49.7982 34.3065 48.7252C34.2463 48.4809 34.1121 48.2611 33.9222 48.0958C33.7324 47.9306 33.4963 47.8279 33.246 47.8019L30.451 47.4775V44.6077L33.2709 44.1335C33.77 44.0462 34.1693 43.6719 34.2816 43.1852C34.5311 42.1247 34.9429 41.114 35.5044 40.1907C35.7664 39.7415 35.7414 39.18 35.417 38.7683L33.6577 36.5598L35.6915 34.526L38.0248 36.1854C38.2236 36.3271 38.4596 36.4074 38.7036 36.4162C38.9475 36.4251 39.1887 36.3622 39.3973 36.2354C40.3081 35.6739 41.3188 35.2496 42.3919 34.9751C42.891 34.8504 43.2528 34.4261 43.3152 33.9146L43.6271 31.1072H46.5219L46.996 33.927C47.0834 34.4261 47.4452 34.8254 47.9318 34.9377C48.9924 35.1873 50.0031 35.599 50.9389 36.1605C51.388 36.4225 51.9495 36.3851 52.3488 36.0607L54.5448 34.3014L56.5786 36.3477L54.9316 38.6684C54.6696 39.039 54.6159 39.5805 54.8817 40.0534C55.4557 40.9892 55.8799 41.9999 56.1419 43.0355C56.2667 43.5346 56.6909 43.9089 57.215 43.9713L60.0099 44.2833V47.1655Z" fill="#3D79F4"/>
</svg>
