<svg width="63" height="64" viewBox="0 0 63 64" fill="none" xmlns="http://www.w3.org/2000/svg">
<path fill-rule="evenodd" clip-rule="evenodd" d="M33.4094 11.3182C34.6505 10.0767 36.3138 9.34851 38.0679 9.27856C39.8219 9.20862 41.5379 9.8021 42.8739 10.9408C44.21 12.0794 45.0679 13.6796 45.2769 15.4226C45.4859 17.1655 45.0305 18.9232 44.0015 20.3454C43.3852 18.8419 42.1987 17.6436 40.7013 17.0125C41.1367 16.5521 41.4277 15.9743 41.5383 15.3504C41.6489 14.7265 41.5743 14.0838 41.3237 13.5019C41.0731 12.9199 40.6574 12.4241 40.1281 12.0758C39.5989 11.7274 38.9791 11.5418 38.3455 11.5418C37.7119 11.5418 37.0921 11.7274 36.5628 12.0758C36.0335 12.4241 35.6179 12.9199 35.3673 13.5019C35.1167 14.0838 35.0421 14.7265 35.1527 15.3504C35.2633 15.9743 35.5542 16.5521 35.9896 17.0125C34.4923 17.6436 33.3057 18.842 32.6893 20.3454C31.7166 19.0008 31.2548 17.3535 31.3868 15.6992C31.5188 14.0448 32.2358 12.4916 33.4094 11.3182ZM39.5876 16.0283C39.875 15.7409 40.0539 15.3627 40.0938 14.9581C40.1336 14.5536 40.032 14.1477 39.8061 13.8097C39.5803 13.4717 39.2442 13.2225 38.8553 13.1045C38.4663 12.9865 38.0484 13.007 37.6728 13.1626C37.2973 13.3182 36.9873 13.5992 36.7957 13.9577C36.6041 14.3162 36.5427 14.73 36.622 15.1287C36.7013 15.5274 36.9164 15.8862 37.2307 16.1441C37.5449 16.402 37.9389 16.5429 38.3454 16.5428C38.5762 16.5435 38.8048 16.4983 39.018 16.41C39.2312 16.3217 39.4248 16.1919 39.5876 16.0283ZM33.8488 21.5923C35.1084 22.6499 36.7004 23.2296 38.3451 23.2296C39.9898 23.2296 41.5818 22.6499 42.8414 21.5923C42.6037 20.5782 42.0302 19.6742 41.214 19.0271C40.3977 18.3801 39.3867 18.028 38.3451 18.028C37.3035 18.028 36.2925 18.3801 35.4763 19.0271C34.66 19.6742 34.0865 20.5782 33.8488 21.5923ZM38.3451 24.7158C40.3016 24.7138 42.197 24.0335 43.7082 22.7909C45.2194 21.5482 46.2531 19.8201 46.6331 17.9008C47.0131 15.9815 46.7159 13.9899 45.7923 12.2651C44.8686 10.5404 43.3755 9.1892 41.5673 8.44179C39.7592 7.69439 37.7479 7.59698 35.8759 8.16616C34.004 8.73534 32.3874 9.93591 31.3013 11.5633C30.2153 13.1908 29.7271 15.1444 29.9198 17.0914C30.1126 19.0384 30.9744 20.8583 32.3585 22.2412C33.1443 23.0275 34.0777 23.6509 35.105 24.0756C36.1324 24.5003 37.2335 24.7178 38.3451 24.7158ZM28.3156 10.23C28.3822 10.34 28.4191 10.4653 28.4227 10.5938C28.4263 10.7222 28.3965 10.8494 28.3363 10.963C28.0051 11.5882 27.7334 12.2431 27.5248 12.9192C27.487 13.0418 27.4181 13.1525 27.3248 13.2406C27.2315 13.3287 27.117 13.3912 26.9925 13.422L24.1675 14.1164V18.3921L26.9925 19.0864C27.1172 19.1169 27.2318 19.1793 27.3252 19.2674C27.4185 19.3556 27.4873 19.4665 27.5248 19.5893C27.7333 20.2654 28.0049 20.9204 28.3363 21.5455C28.3965 21.659 28.4263 21.7863 28.4227 21.9147C28.4191 22.0432 28.3822 22.1685 28.3156 22.2785L26.8085 24.7677L29.8315 27.7911L32.3214 26.2831C32.4314 26.2169 32.5567 26.1802 32.685 26.1765C32.8134 26.1728 32.9406 26.2023 33.0542 26.2621C33.6793 26.5938 34.3342 26.8658 35.0104 27.0745C35.1331 27.1122 35.2438 27.1811 35.3319 27.2744C35.4199 27.3677 35.4822 27.4823 35.5127 27.6069L36.2074 30.4325H40.4822L41.1778 27.6067C41.2083 27.482 41.2707 27.3674 41.3589 27.2741C41.447 27.1807 41.5578 27.1119 41.6806 27.0743C42.3566 26.8652 43.0115 26.5932 43.6368 26.2618C43.7504 26.202 43.8774 26.1726 44.0058 26.1763C44.1341 26.1799 44.2593 26.2167 44.3692 26.2829L46.8591 27.7909L49.8821 24.7673L48.3749 22.2776C48.3082 22.1677 48.2713 22.0424 48.2676 21.9139C48.2639 21.7854 48.2936 21.6582 48.3538 21.5447C48.6853 20.9195 48.957 20.2646 49.1655 19.5885C49.203 19.4657 49.2718 19.3547 49.3652 19.2666C49.4585 19.1784 49.5732 19.116 49.6979 19.0855L52.5229 18.3912V14.1163L49.6979 13.4218C49.5733 13.3912 49.4588 13.3287 49.3654 13.2406C49.2721 13.1525 49.2033 13.0417 49.1655 12.919C48.9571 12.2429 48.6853 11.5879 48.3538 10.9628C48.2936 10.8493 48.2639 10.7221 48.2676 10.5936C48.2713 10.4651 48.3082 10.3398 48.3749 10.2299L49.8821 7.74018L46.8593 4.71686L44.3695 6.22487C44.2595 6.29111 44.1342 6.32785 44.0059 6.33154C43.8775 6.33523 43.7504 6.30573 43.6368 6.24591C43.0117 5.91425 42.3567 5.64224 41.6806 5.43347C41.5578 5.39584 41.447 5.327 41.3589 5.23368C41.2707 5.14035 41.2083 5.02575 41.1778 4.90109L40.4827 2.07574H36.2079L35.5132 4.90121C35.4827 5.02589 35.4203 5.1405 35.3321 5.23382C35.244 5.32715 35.1331 5.39598 35.0104 5.43359C34.3343 5.64243 33.6793 5.91445 33.0542 6.24604C32.9406 6.30586 32.8135 6.33535 32.6852 6.33167C32.5568 6.32798 32.4316 6.29123 32.3216 6.22499L29.8318 4.71698L26.8085 7.74043L28.3159 10.2301L28.3156 10.23ZM23.2468 12.8126C23.0855 12.8524 22.9422 12.9452 22.8397 13.076C22.7372 13.2068 22.6815 13.3682 22.6815 13.5344V18.9735C22.6815 19.1397 22.7372 19.301 22.8397 19.4319C22.9422 19.5627 23.0855 19.6554 23.2468 19.6953L26.2368 20.4306C26.406 20.9193 26.6045 21.3973 26.8311 21.8621L25.236 24.4968C25.1499 24.6389 25.114 24.8058 25.134 24.9707C25.154 25.1357 25.2287 25.2892 25.3462 25.4067L29.1929 29.2536C29.3105 29.3711 29.464 29.4457 29.629 29.4656C29.794 29.4855 29.9609 29.4495 30.1031 29.3634L32.7377 27.7679C33.2025 27.9948 33.6806 28.1932 34.1694 28.3621L34.9046 31.3524C34.9443 31.5138 35.0369 31.6572 35.1677 31.7597C35.2985 31.8623 35.4598 31.9181 35.626 31.9182H41.0651C41.2313 31.9182 41.3927 31.8625 41.5235 31.7599C41.6543 31.6573 41.7469 31.5138 41.7865 31.3524L42.5219 28.3621C43.0107 28.1936 43.4888 27.9951 43.9534 27.7679L46.5883 29.3635C46.7304 29.4497 46.8973 29.4857 47.0623 29.4657C47.2273 29.4458 47.3809 29.3712 47.4984 29.2537L51.3447 25.4068C51.4622 25.2893 51.5369 25.1358 51.5568 24.9709C51.5768 24.8059 51.5409 24.6391 51.4549 24.4969L49.86 21.8624C50.0865 21.3975 50.285 20.9195 50.4543 20.4309L53.4442 19.6955C53.6055 19.6558 53.7489 19.563 53.8514 19.4322C53.954 19.3014 54.0097 19.1399 54.0097 18.9737V13.5345C54.0097 13.3683 53.954 13.2069 53.8514 13.076C53.7489 12.9452 53.6055 12.8525 53.4442 12.8127L50.4545 12.0774C50.2853 11.5887 50.0869 11.1107 49.8602 10.6459L51.4551 8.01145C51.5412 7.8693 51.5771 7.70239 51.5571 7.53742C51.5372 7.37245 51.4625 7.21895 51.3449 7.10144L47.4982 3.25453C47.3806 3.13706 47.2271 3.0624 47.0621 3.04249C46.8971 3.02258 46.7302 3.05857 46.588 3.14471L43.9534 4.73914C43.4885 4.51287 43.0105 4.31471 42.5219 4.14572L41.7865 1.15607C41.747 0.994598 41.6544 0.851063 41.5236 0.748438C41.3928 0.645812 41.2314 0.590028 41.0651 0.590012H35.6257C35.4596 0.590173 35.2982 0.645996 35.1674 0.748574C35.0367 0.851151 34.944 0.994571 34.9043 1.15595L34.1691 4.1456C33.6805 4.31467 33.2024 4.51283 32.7375 4.73902L30.1028 3.14459C29.9607 3.05845 29.7938 3.02246 29.6288 3.04237C29.4638 3.06228 29.3102 3.13694 29.1927 3.25441L25.3462 7.10144C25.2286 7.21895 25.1539 7.37245 25.134 7.53742C25.114 7.70239 25.1499 7.8693 25.236 8.01145L26.8311 10.6459C26.6042 11.1105 26.4057 11.5886 26.2368 12.0774L23.2468 12.8126ZM10.2058 45.3909C10.2058 45.5119 10.17 45.6303 10.1028 45.7309C10.0356 45.8316 9.9401 45.9101 9.8283 45.9564C9.7165 46.0028 9.59346 46.015 9.47475 45.9914C9.35603 45.9679 9.24697 45.9096 9.16137 45.824C9.07576 45.7385 9.01744 45.6295 8.99381 45.5108C8.97017 45.3921 8.98226 45.269 9.02856 45.1572C9.07486 45.0454 9.15329 44.9498 9.25392 44.8825C9.35454 44.8153 9.47286 44.7794 9.59389 44.7794C9.75601 44.7797 9.91142 44.8442 10.0261 44.9588C10.1408 45.0734 10.2054 45.2288 10.2058 45.3909ZM7.49617 45.3909C7.4961 45.8058 7.61907 46.2114 7.84953 46.5564C8.07999 46.9015 8.40759 47.1704 8.7909 47.3292C9.17421 47.488 9.59601 47.5296 10.003 47.4487C10.4099 47.3678 10.7837 47.168 11.0771 46.8747C11.3705 46.5813 11.5703 46.2075 11.6513 45.8006C11.7322 45.3936 11.6907 44.9718 11.5319 44.5885C11.3731 44.2052 11.1043 43.8775 10.7593 43.647C10.4143 43.4165 10.0087 43.2935 9.59377 43.2935C9.03766 43.2941 8.5045 43.5153 8.11124 43.9085C7.71798 44.3017 7.49686 44.8348 7.49617 45.3909ZM21.8811 53.9982L12.2332 40.8857C13.5119 38.2832 16.4405 36.94 18.7182 36.2648C23.4818 34.8561 28.8335 35.366 30.8433 36.7268C30.9663 36.8097 31.1113 36.854 31.2597 36.854H43.0437C43.462 36.854 43.8761 36.9364 44.2626 37.0965C44.649 37.2565 45.0001 37.4912 45.2959 37.7869C45.5916 38.0827 45.8262 38.4338 45.9863 38.8202C46.1464 39.2066 46.2287 39.6208 46.2287 40.0391C46.2287 40.4573 46.1464 40.8715 45.9863 41.2579C45.8262 41.6443 45.5916 41.9955 45.2959 42.2912C45.0001 42.587 44.649 42.8216 44.2626 42.9816C43.8761 43.1417 43.462 43.2241 43.0437 43.2241H31.2597C31.0627 43.2241 30.8737 43.3023 30.7344 43.4417C30.5951 43.581 30.5168 43.7699 30.5168 43.9669C30.5168 44.164 30.5951 44.3529 30.7344 44.4922C30.8737 44.6315 31.0627 44.7098 31.2597 44.7098H43.0437C44.2265 44.7085 45.3649 44.2589 46.2294 43.4517C47.0939 42.6444 47.6204 41.5394 47.7026 40.3595L55.5658 32.496C56.194 31.8838 57.0382 31.5436 57.9155 31.5492C58.7927 31.5549 59.6324 31.9059 60.2528 32.5262C60.8731 33.1465 61.2241 33.9863 61.2297 34.8635C61.2354 35.7408 60.8952 36.585 60.2829 37.2132L47.4484 50.0484C47.0169 50.4968 46.4974 50.8511 45.9224 51.0891C45.3475 51.3271 44.7295 51.4437 44.1074 51.4315H26.6403C25.8402 51.4227 25.0594 51.6769 24.4178 52.155L21.8811 53.9982ZM14.4319 62.442L22.0986 56.801L9.95282 40.2923L2.28537 45.9334L14.4319 62.442ZM26.6403 52.9172C26.1544 52.9082 25.6794 53.0626 25.2917 53.3557L22.7616 55.1943L23.3758 56.03C23.5876 56.3187 23.6762 56.6796 23.6224 57.0335C23.5685 57.3874 23.3764 57.7056 23.0883 57.9181L15.2032 63.7188C14.9726 63.889 14.6934 63.9809 14.4066 63.9809C14.3375 63.9809 14.2684 63.976 14.1999 63.9663C14.0245 63.9397 13.8561 63.8788 13.7043 63.787C13.5525 63.6952 13.4204 63.5743 13.3155 63.4313L1.00876 46.7045C0.796841 46.4158 0.708093 46.0548 0.761988 45.7007C0.815883 45.3466 1.00802 45.0284 1.29625 44.8158L9.18111 39.014C9.46983 38.8025 9.8306 38.714 10.1844 38.7678C10.5383 38.8217 10.8564 39.0135 11.0691 39.3014L11.2658 39.5688C12.9015 36.9233 15.9191 35.5438 18.2971 34.8406C23.0237 33.4429 28.7343 33.683 31.4783 35.3679H43.0441C44.0139 35.3691 44.9593 35.6718 45.7496 36.2339C46.5398 36.7961 47.1358 37.59 47.455 38.5058L54.5152 31.4449C55.4196 30.5407 56.6461 30.0327 57.9249 30.0328C59.2038 30.0328 60.4302 30.5409 61.3345 31.4453C62.2387 32.3496 62.7467 33.5761 62.7466 34.855C62.7465 36.1338 62.2384 37.3603 61.3341 38.2645L48.499 51.0985C47.9292 51.6844 47.2458 52.1478 46.4907 52.4605C45.7355 52.7732 44.9246 52.9286 44.1074 52.9172H26.6403Z" fill="#2166F3"/>
</svg>
