<svg width="51" height="50" viewBox="0 0 51 50" fill="none" xmlns="http://www.w3.org/2000/svg">
<path d="M44.25 3.125H34.875C34.0465 3.12583 33.2521 3.45533 32.6662 4.0412C32.0803 4.62708 31.7508 5.42145 31.75 6.25V9.375H19.25V6.25C19.2492 5.42145 18.9197 4.62708 18.3338 4.0412C17.7479 3.45533 16.9535 3.12583 16.125 3.125H6.75C5.92145 3.12583 5.12708 3.45533 4.5412 4.0412C3.95533 4.62708 3.62583 5.42145 3.625 6.25V15.625C3.62583 16.4535 3.95533 17.2479 4.5412 17.8338C5.12708 18.4197 5.92145 18.7492 6.75 18.75H9.875V31.25H6.75C5.92145 31.2508 5.12708 31.5803 4.5412 32.1662C3.95533 32.7521 3.62583 33.5465 3.625 34.375V43.75C3.62583 44.5785 3.95533 45.3729 4.5412 45.9588C5.12708 46.5447 5.92145 46.8742 6.75 46.875H16.125C16.9535 46.8742 17.7479 46.5447 18.3338 45.9588C18.9197 45.3729 19.2492 44.5785 19.25 43.75V40.625H31.75V43.75C31.7508 44.5785 32.0803 45.3729 32.6662 45.9588C33.2521 46.5447 34.0465 46.8742 34.875 46.875H44.25C45.0785 46.8742 45.8729 46.5447 46.4588 45.9588C47.0447 45.3729 47.3742 44.5785 47.375 43.75V34.375C47.3742 33.5465 47.0447 32.7521 46.4588 32.1662C45.8729 31.5803 45.0785 31.2508 44.25 31.25H41.125V18.75H44.25C45.0785 18.7492 45.8729 18.4197 46.4588 17.8338C47.0447 17.2479 47.3742 16.4535 47.375 15.625V6.25C47.3742 5.42145 47.0447 4.62708 46.4588 4.0412C45.8729 3.45533 45.0785 3.12583 44.25 3.125ZM6.75 6.25H16.125V10.9438L16.1297 15.625H6.75V6.25ZM6.75 43.75V34.375H16.125L16.1281 43.75H6.75ZM44.2531 43.75H34.875V34.375H44.25L44.2531 43.75ZM38 31.25H34.875C34.0465 31.2508 33.2521 31.5803 32.6662 32.1662C32.0803 32.7521 31.7508 33.5465 31.75 34.375V37.5H19.25V34.375C19.2492 33.5465 18.9197 32.7521 18.3338 32.1662C17.7479 31.5803 16.9535 31.2508 16.125 31.25H13V18.75H16.125C16.9535 18.7492 17.7479 18.4197 18.3338 17.8338C18.9197 17.2479 19.2492 16.4535 19.25 15.625V12.5H31.75V15.625C31.7508 16.4535 32.0803 17.2479 32.6662 17.8338C33.2521 18.4197 34.0465 18.7492 34.875 18.75H38V31.25ZM34.875 15.625V6.25H44.25L44.2531 15.625H34.875Z" fill="black"/>
</svg>
