<svg width="63" height="67" viewBox="0 0 63 67" fill="none" xmlns="http://www.w3.org/2000/svg">
<path fill-rule="evenodd" clip-rule="evenodd" d="M21.3229 43.786H13.2859C6.31547 43.786 0.65625 38.1268 0.65625 31.1564C0.65625 24.186 6.31547 18.5268 13.2859 18.5268C13.7325 18.5268 14.1722 18.5497 14.6074 18.5945C14.4926 17.823 14.434 17.0342 14.434 16.2305C14.434 7.35874 21.6364 0.156404 30.5081 0.156404C39.3798 0.156404 46.5822 7.35874 46.5822 16.2305L46.581 16.4211C47.3402 16.294 48.1087 16.2303 48.8785 16.2305C56.4827 16.2305 62.6563 22.4041 62.6563 30.0083C62.6563 30.9348 62.5644 31.8396 62.3899 32.7144C62.3265 33.0094 62.1496 33.2675 61.8975 33.4331C61.6453 33.5987 61.3381 33.6583 61.0423 33.5992C60.7465 33.5401 60.4858 33.3669 60.3167 33.1171C60.1475 32.8673 60.0835 32.561 60.1384 32.2644C60.2842 31.5353 60.36 30.781 60.36 30.0083C60.36 23.6716 55.2151 18.5268 48.8785 18.5268C47.7636 18.5268 46.6844 18.6864 45.6648 18.9826C45.4835 19.0361 45.2917 19.0438 45.1067 19.0052C44.9216 18.9666 44.749 18.8828 44.6042 18.7613C44.4594 18.6398 44.3469 18.4843 44.2767 18.3088C44.2065 18.1332 44.1809 17.9431 44.2021 17.7552C44.2572 17.2546 44.2859 16.746 44.2859 16.2305C44.2859 8.62629 38.1123 2.4527 30.5081 2.4527C22.9039 2.4527 16.7303 8.62629 16.7303 16.2305C16.7303 17.4372 16.8853 18.6083 17.1781 19.7243C17.2285 19.9171 17.2278 20.1197 17.1762 20.3122C17.1245 20.5047 17.0236 20.6804 16.8835 20.8221C16.7433 20.9638 16.5686 21.0665 16.3767 21.1203C16.1848 21.174 15.9822 21.1768 15.7888 21.1285C14.9701 20.9249 14.1295 20.8223 13.2859 20.8231C7.58303 20.8231 2.95255 25.4536 2.95255 31.1564C2.95255 36.8593 7.58303 41.4897 13.2859 41.4897H48.8785C50.8168 41.4901 52.7237 40.9995 54.4212 40.0637C56.1187 39.1279 57.5515 37.7774 58.5861 36.1382C58.755 35.8946 59.0116 35.7256 59.3022 35.6667C59.5927 35.6078 59.8948 35.6634 60.1453 35.822C60.3959 35.9806 60.5754 36.2299 60.6464 36.5178C60.7174 36.8056 60.6744 37.1098 60.5264 37.3667C59.2847 39.333 57.5653 40.9529 55.5285 42.0753C53.4918 43.1978 51.204 43.7863 48.8785 43.786H41.9896V48.8172L48.2435 51.9448C48.4344 52.0398 48.5949 52.1863 48.7071 52.3676C48.8193 52.549 48.8786 52.758 48.8785 52.9712V57.7085C49.9601 57.9888 50.9024 58.6538 51.529 59.5788C52.1557 60.5039 52.4237 61.6256 52.283 62.734C52.1422 63.8424 51.6023 64.8616 50.7643 65.6006C49.9263 66.3396 48.8476 66.7479 47.7303 66.749C45.1964 66.749 43.1377 64.6915 43.1377 62.1564C43.1387 61.1383 43.4773 60.1494 44.1006 59.3444C44.724 58.5395 45.5967 57.9641 46.5822 57.7085V53.6808L40.3282 50.5532C40.1374 50.4581 39.9768 50.3117 39.8647 50.1304C39.7525 49.949 39.6931 49.74 39.6933 49.5268V43.786H32.8044V57.7085C33.886 57.9888 34.8283 58.6538 35.455 59.5788C36.0816 60.5039 36.3497 61.6256 36.2089 62.734C36.0681 63.8424 35.5282 64.8616 34.6902 65.6006C33.8522 66.3396 32.7736 66.7479 31.6563 66.749C30.5389 66.7479 29.4603 66.3396 28.6223 65.6006C27.7843 64.8616 27.2444 63.8424 27.1036 62.734C26.9628 61.6256 27.2309 60.5039 27.8575 59.5788C28.4842 58.6538 29.4265 57.9888 30.5081 57.7085V43.786H23.6192V49.5268C23.6194 49.74 23.56 49.949 23.4478 50.1304C23.3357 50.3117 23.1751 50.4581 22.9843 50.5532L16.7303 53.6808V57.7085C17.8119 57.9888 18.7542 58.6538 19.3809 59.5788C20.0075 60.5039 20.2756 61.6256 20.1348 62.734C19.994 63.8424 19.4541 64.8616 18.6161 65.6006C17.7781 66.3396 16.6995 66.7479 15.5822 66.749C14.4649 66.7479 13.3862 66.3396 12.5482 65.6006C11.7102 64.8616 11.1703 63.8424 11.0295 62.734C10.8888 61.6256 11.1568 60.5039 11.7835 59.5788C12.4101 58.6538 13.3524 57.9888 14.434 57.7085V52.9712C14.434 52.5361 14.6797 52.1388 15.069 51.9448L21.3229 48.8172V43.786ZM47.7303 59.8601C47.4287 59.8602 47.13 59.9197 46.8514 60.0352C46.5728 60.1507 46.3196 60.3199 46.1064 60.5332C45.8931 60.7466 45.724 60.9998 45.6086 61.2785C45.4933 61.5572 45.434 61.8559 45.434 62.1575C45.4341 62.4592 45.4936 62.7578 45.6091 63.0365C45.7246 63.3151 45.8938 63.5683 46.1072 63.7815C46.3205 63.9947 46.5738 64.1639 46.8525 64.2792C47.1312 64.3946 47.4298 64.4539 47.7315 64.4538C48.3406 64.4537 48.9248 64.2116 49.3554 63.7807C49.7861 63.3498 50.0279 62.7656 50.0278 62.1564C50.0276 61.5472 49.7855 60.9631 49.3546 60.5324C48.9238 60.1018 48.3395 59.86 47.7303 59.8601ZM31.6563 59.8601C31.3546 59.8602 31.056 59.9197 30.7773 60.0352C30.4987 60.1507 30.2455 60.3199 30.0323 60.5332C29.8191 60.7466 29.6499 60.9998 29.5346 61.2785C29.4192 61.5572 29.3599 61.8559 29.36 62.1575C29.36 62.4592 29.4195 62.7578 29.535 63.0365C29.6505 63.3151 29.8198 63.5683 30.0331 63.7815C30.2464 63.9947 30.4997 64.1639 30.7784 64.2792C31.0571 64.3946 31.3558 64.4539 31.6574 64.4538C32.2666 64.4537 32.8507 64.2116 33.2814 63.7807C33.712 63.3498 33.9538 62.7656 33.9537 62.1564C33.9535 61.5472 33.7114 60.9631 33.2806 60.5324C32.8497 60.1018 32.2654 59.86 31.6563 59.8601ZM15.5822 59.8601C15.2805 59.8602 14.9819 59.9197 14.7032 60.0352C14.4246 60.1507 14.1714 60.3199 13.9582 60.5332C13.745 60.7466 13.5759 60.9998 13.4605 61.2785C13.3451 61.5572 13.2858 61.8559 13.2859 62.1575C13.286 62.4592 13.3454 62.7578 13.4609 63.0365C13.5764 63.3151 13.7457 63.5683 13.959 63.7815C14.1724 63.9947 14.4256 64.1639 14.7043 64.2792C14.983 64.3946 15.2817 64.4539 15.5833 64.4538C16.1925 64.4537 16.7766 64.2116 17.2073 63.7807C17.6379 63.3498 17.8798 62.7656 17.8796 62.1564C17.8795 61.5472 17.6373 60.9631 17.2065 60.5324C16.7756 60.1018 16.1913 59.86 15.5822 59.8601ZM19.0266 35.749V28.8601C19.0266 28.6117 19.1072 28.37 19.2563 28.1712L22.7007 23.5786C22.8076 23.436 22.9463 23.3203 23.1057 23.2406C23.2652 23.1609 23.441 23.1194 23.6192 23.1194C23.7975 23.1194 23.9733 23.1609 24.1327 23.2406C24.2921 23.3203 24.4308 23.436 24.5377 23.5786L27.9822 28.1712C28.1312 28.37 28.2118 28.6117 28.2118 28.8601V35.749C28.2118 36.0535 28.0908 36.3455 27.8755 36.5609C27.6602 36.7762 27.3682 36.8971 27.0637 36.8971C26.7592 36.8971 26.4671 36.7762 26.2518 36.5609C26.0365 36.3455 25.9155 36.0535 25.9155 35.749V32.3046H21.3229V35.749C21.3229 36.0535 21.202 36.3455 20.9866 36.5609C20.7713 36.7762 20.4793 36.8971 20.1748 36.8971C19.8703 36.8971 19.5782 36.7762 19.3629 36.5609C19.1476 36.3455 19.0266 36.0535 19.0266 35.749ZM25.9155 30.0083V29.2424L23.6192 26.1815L21.3229 29.2424V30.0083H25.9155ZM32.8044 28.8601H37.397V26.2561C37.397 25.9516 37.518 25.6596 37.7333 25.4442C37.9486 25.2289 38.2406 25.108 38.5451 25.108C38.8496 25.108 39.1417 25.2289 39.357 25.4442C39.5723 25.6596 39.6933 25.9516 39.6933 26.2561V30.0083C39.6933 30.3128 39.5723 30.6048 39.357 30.8201C39.1417 31.0354 38.8496 31.1564 38.5451 31.1564H32.8044V35.749C32.7912 36.0446 32.6644 36.3237 32.4506 36.5283C32.2367 36.7328 31.9522 36.8469 31.6563 36.8469C31.3603 36.8469 31.0758 36.7328 30.8619 36.5283C30.6481 36.3237 30.5213 36.0446 30.5081 35.749V24.2675C30.5081 23.963 30.6291 23.671 30.8444 23.4556C31.0597 23.2403 31.3517 23.1194 31.6563 23.1194H35.1007C35.4052 23.1194 35.6972 23.2403 35.9126 23.4556C36.1279 23.671 36.2488 23.963 36.2488 24.2675C36.2488 24.572 36.1279 24.8641 35.9126 25.0794C35.6972 25.2947 35.4052 25.4157 35.1007 25.4157H32.8044V28.8601ZM41.9896 24.2675C41.9896 23.963 42.1105 23.671 42.3259 23.4556C42.5412 23.2403 42.8332 23.1194 43.1377 23.1194C43.4422 23.1194 43.7343 23.2403 43.9496 23.4556C44.1649 23.671 44.2859 23.963 44.2859 24.2675V35.749C44.2859 36.0535 44.1649 36.3455 43.9496 36.5609C43.7343 36.7762 43.4422 36.8971 43.1377 36.8971C42.8332 36.8971 42.5412 36.7762 42.3259 36.5609C42.1105 36.3455 41.9896 36.0535 41.9896 35.749V24.2675Z" fill="#3D79F4"/>
</svg>
