<svg width="49" height="50" fill="none" xmlns="http://www.w3.org/2000/svg"><path d="M13.972 21.99a.585.585 0 0 0 1.01 0c.79-1.339 1.93-2.296 3.032-3.222 2.051-1.724 4.172-3.506 3.968-7.619a.585.585 0 0 0-.584-.556H7.556a.586.586 0 0 0-.585.556c-.205 4.113 1.917 5.895 3.969 7.619 1.101.926 2.24 1.883 3.032 3.222zM8.129 11.765h12.694c-.024 3.133-1.672 4.516-3.564 6.105-.969.814-1.964 1.65-2.783 2.762-.82-1.113-1.815-1.948-2.784-2.762-1.89-1.589-3.539-2.973-3.563-6.105zM14.98 28.01a.585.585 0 0 0-1.01 0c-.79 1.339-1.93 2.296-3.032 3.222-2.051 1.724-4.172 3.506-3.968 7.619a.586.586 0 0 0 .585.556h13.84c.313 0 .57-.245.585-.556.206-4.113-1.916-5.895-3.968-7.619-1.1-.925-2.24-1.883-3.032-3.222zm5.843 10.225H8.13c.024-3.133 1.672-4.516 3.564-6.105.97-.814 1.964-1.65 2.784-2.762.819 1.113 1.814 1.948 2.783 2.762 1.891 1.589 3.539 2.972 3.563 6.105zm17.592-25.962h8.795c.69 0 1.25-.561 1.25-1.25V2.227c0-.69-.56-1.25-1.25-1.25h-8.795c-.69 0-1.25.56-1.25 1.25v3.811h-2.58c-2.339 0-4.242 1.925-4.242 4.29V23.71H17.926c.075-.365.255-.673.531-.902l2.695-2.239c2.663-2.212 4.13-5.5 4.13-9.262V8.898h.635a2.624 2.624 0 0 0 2.621-2.62V4.24a.586.586 0 0 0-.586-.586H1a.586.586 0 0 0-.586.586v2.035a2.624 2.624 0 0 0 2.621 2.621h.635v2.409c0 3.761 1.467 7.05 4.13 9.262l2.695 2.239c.374.31.572.764.572 1.311 0 .547-.198 1.001-.572 1.312L7.8 27.668c-2.663 2.212-4.13 5.5-4.13 9.263v4.17h-.635a2.624 2.624 0 0 0-2.62 2.622v2.035c0 .323.262.586.585.586h26.952a.586.586 0 0 0 .586-.586v-2.035a2.624 2.624 0 0 0-2.621-2.621h-.635V36.93c0-3.762-1.467-7.051-4.13-9.263l-2.695-2.238a1.512 1.512 0 0 1-.417-.55h12.303v14.79c0 2.365 1.903 4.29 4.242 4.29h2.58v3.812c0 .689.56 1.25 1.25 1.25h8.795c.69 0 1.25-.561 1.25-1.25v-8.795c0-.69-.56-1.25-1.25-1.25h-8.795c-.69 0-1.25.56-1.25 1.25v3.811h-2.58c-1.693 0-3.07-1.4-3.07-3.118V24.882h5.65v3.811c0 .69.56 1.25 1.25 1.25h8.795c.69 0 1.25-.56 1.25-1.25v-8.795c0-.689-.56-1.25-1.25-1.25h-8.795c-.69 0-1.25.561-1.25 1.25v3.812h-5.65V10.33c0-1.72 1.377-3.12 3.07-3.12h2.58v3.813c0 .689.56 1.25 1.25 1.25zM1.585 6.276V4.827h25.781v1.45c0 .798-.65 1.449-1.449 1.449H3.035a1.45 1.45 0 0 1-1.45-1.45zm25.781 37.448v1.449H1.586v-1.45c0-.798.65-1.449 1.45-1.449h22.881a1.45 1.45 0 0 1 1.45 1.45zM20.403 28.57c2.39 1.986 3.707 4.954 3.707 8.362v4.17H4.843v-4.17c0-3.408 1.316-6.376 3.707-8.362l2.695-2.238c.642-.533.995-1.32.995-2.213s-.353-1.68-.995-2.213L8.55 19.668c-2.39-1.985-3.707-4.954-3.707-8.361V8.898H24.11v2.409c0 3.407-1.316 6.376-3.707 8.361l-2.695 2.238c-.642.534-.995 1.319-.995 2.213 0 .895.353 1.68.995 2.213l2.695 2.238zm17.934 10.407a.08.08 0 0 1 .078-.078h8.795a.08.08 0 0 1 .078.078v.013l-.022.019-4.623 4.623-1.311-1.31a.586.586 0 0 0-.828.827l1.726 1.726a.583.583 0 0 0 .828 0l4.231-4.231v7.13a.08.08 0 0 1-.078.078h-8.795a.08.08 0 0 1-.078-.079v-8.796h-.001zm0-19.079a.08.08 0 0 1 .078-.078h8.795a.08.08 0 0 1 .078.078v.013l-.022.019-4.623 4.623-1.31-1.31a.587.587 0 0 0-.83.828l1.727 1.725a.586.586 0 0 0 .828 0l4.231-4.232v7.13a.08.08 0 0 1-.078.079h-8.795a.08.08 0 0 1-.078-.079v-8.796h-.001zm0-17.671a.08.08 0 0 1 .078-.079h8.795a.08.08 0 0 1 .078.079v.012l-.022.019-4.623 4.623-1.311-1.31a.587.587 0 0 0-.83.828l1.726 1.725a.586.586 0 0 0 .829 0l4.232-4.231v7.13a.08.08 0 0 1-.078.078h-8.795a.08.08 0 0 1-.078-.079V2.228h-.001z" fill="#2166F3" stroke="#2166F3" stroke-width=".5"/></svg>