<svg width="49" height="34" viewBox="0 0 49 34" fill="none" xmlns="http://www.w3.org/2000/svg">
<path d="M11.2441 0.821599C10.2175 0.865349 2.38874 1.52992 1.83249 1.58149C1.27624 1.6268 0.662834 1.88405 1.21908 3.23249C1.77533 4.58093 10.6645 24.174 10.9145 24.7443C11.163 25.3131 11.8084 26.2424 13.3163 25.8674C14.8616 25.4861 20.2224 24.0532 23.1521 23.2673C24.6974 26.136 27.8548 31.9514 28.4408 32.7827C29.2173 33.8983 29.7586 33.7085 30.9524 33.335C31.8899 33.0428 45.5711 28.0111 46.1867 27.7564C46.8024 27.4939 47.1807 27.3151 46.7635 26.6791C46.4557 26.2151 42.8451 21.2696 40.956 18.6774C42.2529 18.3259 46.8588 17.074 47.3495 16.9318C47.926 16.7803 48.0069 16.4977 47.6913 16.1384C47.3834 15.779 43.0932 10.2885 42.3385 9.36042C41.5838 8.43229 41.2094 8.59438 40.7485 8.66157C40.2798 8.72875 34.8535 9.66467 34.2238 9.76935C33.5942 9.88185 33.1985 10.1363 33.586 10.691C33.9298 11.1847 37.4982 16.3634 38.2888 17.5025L24.1012 20.9754L12.8127 1.6883C12.3658 1.00705 12.2691 0.768474 11.2441 0.821599ZM11.0671 2.16132C11.3312 2.1457 11.3014 2.20478 11.3967 2.36884C11.3967 2.36884 21.8113 20.7512 21.9863 21.0731C22.1769 21.3949 22.0696 21.4933 21.9008 21.5308C21.7321 21.5683 13.784 23.5137 13.359 23.6121C12.934 23.709 12.9345 23.6645 12.8829 23.5145C12.8313 23.3645 3.43774 3.53891 3.30649 3.29047C3.17524 3.0436 3.18149 2.84797 3.30649 2.84797C3.43149 2.84797 10.8109 2.17538 11.0671 2.16132ZM41.2673 9.94636C41.3726 9.97077 41.4832 10.0496 41.6152 10.2332C41.8793 10.6004 45.4678 15.2507 45.6069 15.4304C45.7382 15.6038 45.5027 15.7094 45.1949 15.7844C44.8871 15.8516 39.8055 17.1393 39.8055 17.1393L35.6521 11.3135C35.5349 11.1417 35.4407 10.9757 35.7345 10.9382C36.0267 10.9007 40.7435 10.0222 40.956 9.97687C41.0623 9.95031 41.162 9.92194 41.2673 9.94636ZM39.3233 18.9643C39.4214 18.9754 39.5039 19.0449 39.6133 19.2206C39.8273 19.5816 44.1849 25.6276 44.3099 25.8308C44.4349 26.0323 44.5635 26.1677 44.1604 26.3099C43.7651 26.4599 30.7095 30.9612 30.461 31.0737C30.2048 31.1862 30.0047 31.2224 29.6828 30.7349C29.361 30.2474 25.1143 22.7363 25.1143 22.7363L38.9388 19.0589C39.1107 19.0027 39.2253 18.9532 39.3233 18.9643Z" fill="#2166F3" stroke="#2166F3" stroke-width="0.5"/>
</svg>
