<svg width="50" height="50" viewBox="0 0 50 50" fill="none" xmlns="http://www.w3.org/2000/svg">
<path d="M49.3718 27.5945L38.014 21.0358V7.84641C38.014 7.67091 37.9678 7.49851 37.8801 7.34653C37.7923 7.19454 37.6661 7.06833 37.5141 6.98059L25.6545 0.133948C25.5025 0.046197 25.3301 0 25.1546 0C24.9791 0 24.8067 0.046197 24.6547 0.133948L12.795 6.98059C12.6431 7.06833 12.5168 7.19454 12.4291 7.34653C12.3413 7.49851 12.2951 7.67091 12.2951 7.84641V21.0258L0.937401 27.5945C0.785415 27.6822 0.659205 27.8084 0.571454 27.9604C0.483703 28.1124 0.437504 28.2848 0.4375 28.4603V42.1536C0.437504 42.3291 0.483703 42.5015 0.571454 42.6535C0.659205 42.8055 0.785415 42.9317 0.937401 43.0194L12.795 49.866C12.947 49.9538 13.1194 50 13.2949 50C13.4704 50 13.6429 49.9538 13.7948 49.866L25.1546 43.2974L36.5143 49.8561C36.6663 49.9438 36.8387 49.99 37.0142 49.99C37.1897 49.99 37.3621 49.9438 37.5141 49.8561L49.3718 43.0094C49.5238 42.9217 49.65 42.7955 49.7377 42.6435C49.8255 42.4915 49.8717 42.3191 49.8717 42.1436V28.4503C49.8699 28.2765 49.8229 28.1062 49.7352 27.9561C49.6476 27.806 49.5223 27.6814 49.3718 27.5945ZM37.0142 34.1512L27.1542 28.4503L37.0142 22.7574L46.8723 28.4503L37.0142 34.1512ZM24.1548 15.2709V26.6547L14.2947 20.9618V9.57807L24.1548 15.2709ZM36.0144 20.9618L26.1544 26.6547V15.2709L36.0144 9.57807V20.9618ZM13.2949 22.7614L23.155 28.4503L13.2949 34.1412L3.4369 28.4503L13.2949 22.7614ZM14.2947 35.8768L24.1548 30.18V41.5657L14.2947 47.2586V35.8768ZM25.1546 2.15355L35.0146 7.84641L25.1546 13.5393L15.2945 7.84641L25.1546 2.15355ZM2.4371 30.18L12.2951 35.8728V47.2586L2.4371 41.5657V30.18ZM26.1544 30.18L36.0144 35.8728V47.2586L26.1544 41.5657V30.18ZM38.014 47.2586V35.8728L47.8721 30.18V41.5657L38.014 47.2586Z" fill="#2166F3"/>
</svg>
