<svg width="51" height="50" viewBox="0 0 51 50" fill="none" xmlns="http://www.w3.org/2000/svg">
<path d="M49.4375 21.5C49.1775 21.5 48.9175 21.39 48.7275 21.21C48.5475 21.02 48.4375 20.76 48.4375 20.5C48.4375 20.24 48.5475 19.98 48.7275 19.79C49.1075 19.42 49.7775 19.42 50.1475 19.79C50.3275 19.98 50.4375 20.24 50.4375 20.5C50.4375 20.77 50.3275 21.02 50.1475 21.21C49.9575 21.39 49.6975 21.5 49.4375 21.5ZM15.4375 39.5C15.1775 39.5 14.9175 39.39 14.7275 39.21C14.5475 39.02 14.4375 38.76 14.4375 38.5C14.4375 38.24 14.5475 37.98 14.7275 37.79C15.1075 37.42 15.7675 37.42 16.1475 37.79C16.3275 37.98 16.4375 38.24 16.4375 38.5C16.4375 38.76 16.3275 39.02 16.1475 39.21C15.9575 39.39 15.6975 39.5 15.4375 39.5ZM49.4375 29.5C49.1723 29.5 48.9179 29.3946 48.7304 29.2071C48.5429 29.0196 48.4375 28.7652 48.4375 28.5V24.5C48.4375 24.2348 48.5429 23.9804 48.7304 23.7929C48.9179 23.6054 49.1723 23.5 49.4375 23.5C49.7027 23.5 49.9571 23.6054 50.1446 23.7929C50.3321 23.9804 50.4375 24.2348 50.4375 24.5V28.5C50.4375 28.7652 50.3321 29.0196 50.1446 29.2071C49.9571 29.3946 49.7027 29.5 49.4375 29.5ZM49.4375 17.5C49.1723 17.5 48.9179 17.3946 48.7304 17.2071C48.5429 17.0196 48.4375 16.7652 48.4375 16.5V5C48.4375 4.73478 48.5429 4.48043 48.7304 4.29289C48.9179 4.10536 49.1723 4 49.4375 4C49.7027 4 49.9571 4.10536 50.1446 4.29289C50.3321 4.48043 50.4375 4.73478 50.4375 5V16.5C50.4375 16.7652 50.3321 17.0196 50.1446 17.2071C49.9571 17.3946 49.7027 17.5 49.4375 17.5ZM15.4375 35.5C15.1723 35.5 14.9179 35.3946 14.7304 35.2071C14.5429 35.0196 14.4375 34.7652 14.4375 34.5V22.692C14.4375 22.4268 14.5429 22.1724 14.7304 21.9849C14.9179 21.7974 15.1723 21.692 15.4375 21.692C15.7027 21.692 15.9571 21.7974 16.1446 21.9849C16.3321 22.1724 16.4375 22.4268 16.4375 22.692V34.5C16.4375 34.7652 16.3321 35.0196 16.1446 35.2071C15.9571 35.3946 15.7027 35.5 15.4375 35.5ZM15.4375 47.5C15.1723 47.5 14.9179 47.3946 14.7304 47.2071C14.5429 47.0196 14.4375 46.7652 14.4375 46.5V42.5C14.4375 42.2348 14.5429 41.9804 14.7304 41.7929C14.9179 41.6054 15.1723 41.5 15.4375 41.5C15.7027 41.5 15.9571 41.6054 16.1446 41.7929C16.3321 41.9804 16.4375 42.2348 16.4375 42.5V46.5C16.4375 46.7652 16.3321 47.0196 16.1446 47.2071C15.9571 47.3946 15.7027 47.5 15.4375 47.5ZM28.5665 47.008C28.3013 47.008 28.0469 46.9026 27.8594 46.7151C27.6719 46.5276 27.5665 46.2732 27.5665 46.008V30.5C27.5665 30.2348 27.6719 29.9804 27.8594 29.7929C28.0469 29.6054 28.3013 29.5 28.5665 29.5C28.8317 29.5 29.0861 29.6054 29.2736 29.7929C29.4611 29.9804 29.5665 30.2348 29.5665 30.5V46.008C29.5665 46.2732 29.4611 46.5276 29.2736 46.7151C29.0861 46.9026 28.8317 47.008 28.5665 47.008Z" fill="#2166F3"/>
<path d="M47.4375 31.5C47.1723 31.5 46.9179 31.3946 46.7304 31.2071C46.5429 31.0196 46.4375 30.7652 46.4375 30.5C46.4375 30.2348 46.5429 29.9804 46.7304 29.7929C46.9179 29.6054 47.1723 29.5 47.4375 29.5C47.9885 29.5 48.4375 29.051 48.4375 28.5C48.4375 28.2348 48.5429 27.9804 48.7304 27.7929C48.9179 27.6054 49.1723 27.5 49.4375 27.5C49.7027 27.5 49.9571 27.6054 50.1446 27.7929C50.3321 27.9804 50.4375 28.2348 50.4375 28.5C50.4375 30.154 49.0915 31.5 47.4375 31.5Z" fill="#2166F3"/>
<path d="M47.4375 31.5H15.4375C15.1723 31.5 14.9179 31.3946 14.7304 31.2071C14.5429 31.0196 14.4375 30.7652 14.4375 30.5C14.4375 30.2348 14.5429 29.9804 14.7304 29.7929C14.9179 29.6054 15.1723 29.5 15.4375 29.5H47.4375C47.7027 29.5 47.9571 29.6054 48.1446 29.7929C48.3321 29.9804 48.4375 30.2348 48.4375 30.5C48.4375 30.7652 48.3321 31.0196 48.1446 31.2071C47.9571 31.3946 47.7027 31.5 47.4375 31.5ZM43.4375 14H28.8015C28.5363 14 28.2819 13.8946 28.0944 13.7071C27.9069 13.5196 27.8015 13.2652 27.8015 13C27.8015 12.7348 27.9069 12.4804 28.0944 12.2929C28.2819 12.1054 28.5363 12 28.8015 12H43.4375C43.7027 12 43.9571 12.1054 44.1446 12.2929C44.3321 12.4804 44.4375 12.7348 44.4375 13C44.4375 13.2652 44.3321 13.5196 44.1446 13.7071C43.9571 13.8946 43.7027 14 43.4375 14ZM43.4375 18H29.9225C29.6573 18 29.4029 17.8946 29.2154 17.7071C29.0279 17.5196 28.9225 17.2652 28.9225 17C28.9225 16.7348 29.0279 16.4804 29.2154 16.2929C29.4029 16.1054 29.6573 16 29.9225 16H43.4375C43.7027 16 43.9571 16.1054 44.1446 16.2929C44.3321 16.4804 44.4375 16.7348 44.4375 17C44.4375 17.2652 44.3321 17.5196 44.1446 17.7071C43.9571 17.8946 43.7027 18 43.4375 18ZM43.4375 22H27.9325C27.6673 22 27.4129 21.8946 27.2254 21.7071C27.0379 21.5196 26.9325 21.2652 26.9325 21C26.9325 20.7348 27.0379 20.4804 27.2254 20.2929C27.4129 20.1054 27.6673 20 27.9325 20H43.4375C43.7027 20 43.9571 20.1054 44.1446 20.2929C44.3321 20.4804 44.4375 20.7348 44.4375 21C44.4375 21.2652 44.3321 21.5196 44.1446 21.7071C43.9571 21.8946 43.7027 22 43.4375 22ZM39.4375 10H20.4375C20.1723 10 19.9179 9.89464 19.7304 9.70711C19.5429 9.51957 19.4375 9.26522 19.4375 9C19.4375 8.73478 19.5429 8.48043 19.7304 8.29289C19.9179 8.10536 20.1723 8 20.4375 8H39.4375C39.7027 8 39.9571 8.10536 40.1446 8.29289C40.3321 8.48043 40.4375 8.73478 40.4375 9C40.4375 9.26522 40.3321 9.51957 40.1446 9.70711C39.9571 9.89464 39.7027 10 39.4375 10ZM29.9375 4C29.6723 4 29.4179 3.89464 29.2304 3.70711C29.0429 3.51957 28.9375 3.26522 28.9375 3V1C28.9375 0.734784 29.0429 0.48043 29.2304 0.292893C29.4179 0.105357 29.6723 0 29.9375 0C30.2027 0 30.4571 0.105357 30.6446 0.292893C30.8321 0.48043 30.9375 0.734784 30.9375 1V3C30.9375 3.26522 30.8321 3.51957 30.6446 3.70711C30.4571 3.89464 30.2027 4 29.9375 4ZM10.4375 9.996C10.1723 9.996 9.91793 9.89064 9.73039 9.70311C9.54286 9.51557 9.4375 9.26122 9.4375 8.996V5C9.4375 4.73478 9.54286 4.48043 9.73039 4.29289C9.91793 4.10536 10.1723 4 10.4375 4C10.7027 4 10.9571 4.10536 11.1446 4.29289C11.3321 4.48043 11.4375 4.73478 11.4375 5V8.996C11.4375 9.12732 11.4116 9.25736 11.3614 9.37868C11.3111 9.50001 11.2375 9.61025 11.1446 9.70311C11.0517 9.79596 10.9415 9.86963 10.8202 9.91988C10.6989 9.97013 10.5688 9.996 10.4375 9.996Z" fill="#2166F3"/>
<path d="M10.4375 6C10.1723 6 9.91793 5.89464 9.73039 5.70711C9.54286 5.51957 9.4375 5.26522 9.4375 5C9.4375 3.346 10.7835 2 12.4375 2C12.7027 2 12.9571 2.10536 13.1446 2.29289C13.3321 2.48043 13.4375 2.73478 13.4375 3C13.4375 3.26522 13.3321 3.51957 13.1446 3.70711C12.9571 3.89464 12.7027 4 12.4375 4C11.8865 4 11.4375 4.449 11.4375 5C11.4375 5.26522 11.3321 5.51957 11.1446 5.70711C10.9571 5.89464 10.7027 6 10.4375 6Z" fill="#2166F3"/>
<path d="M47.4375 4H12.4375C12.1723 4 11.9179 3.89464 11.7304 3.70711C11.5429 3.51957 11.4375 3.26522 11.4375 3C11.4375 2.73478 11.5429 2.48043 11.7304 2.29289C11.9179 2.10536 12.1723 2 12.4375 2H47.4375C47.7027 2 47.9571 2.10536 48.1446 2.29289C48.3321 2.48043 48.4375 2.73478 48.4375 3C48.4375 3.26522 48.3321 3.51957 48.1446 3.70711C47.9571 3.89464 47.7027 4 47.4375 4Z" fill="#2166F3"/>
<path d="M49.4374 6C49.1722 6 48.9178 5.89464 48.7303 5.70711C48.5427 5.51957 48.4374 5.26522 48.4374 5C48.4374 4.449 47.9884 4 47.4374 4C47.1722 4 46.9178 3.89464 46.7303 3.70711C46.5427 3.51957 46.4374 3.26522 46.4374 3C46.4374 2.73478 46.5427 2.48043 46.7303 2.29289C46.9178 2.10536 47.1722 2 47.4374 2C49.0914 2 50.4374 3.346 50.4374 5C50.4374 5.26522 50.332 5.51957 50.1445 5.70711C49.957 5.89464 49.7026 6 49.4374 6ZM4.27738 20.602C4.03872 20.602 3.80794 20.5167 3.62671 20.3614C3.44548 20.2061 3.32576 19.9911 3.28917 19.7553C3.25258 19.5195 3.30154 19.2783 3.4272 19.0755C3.55286 18.8726 3.74694 18.7213 3.97438 18.649C7.20945 17.6192 10.6512 17.4177 13.9844 18.063C14.5264 18.168 14.8804 18.693 14.7764 19.235C14.7253 19.4951 14.5734 19.7244 14.3538 19.8728C14.1342 20.0212 13.8647 20.0766 13.6044 20.027C10.6003 19.4451 7.49812 19.6267 4.58238 20.555C4.48359 20.5856 4.38081 20.6015 4.27738 20.602Z" fill="#2166F3"/>
<path d="M13.7948 20.0437C13.5669 20.0441 13.3457 19.9667 13.1678 19.8242C12.9899 19.6817 12.8661 19.4827 12.8167 19.2602C12.7673 19.0377 12.7955 18.805 12.8964 18.6007C12.9974 18.3964 13.1651 18.2327 13.3718 18.1367L22.6738 13.7997C22.9143 13.6876 23.1893 13.6757 23.4386 13.7664C23.6878 13.8572 23.8908 14.0433 24.0028 14.2837C24.1149 14.5241 24.1269 14.7992 24.0361 15.0484C23.9453 15.2977 23.7593 15.5006 23.5188 15.6127L14.2168 19.9497C14.085 20.0122 13.9408 20.0444 13.7948 20.0437Z" fill="#2166F3"/>
<path d="M24.7883 19.3321C24.5607 19.3323 24.3399 19.2548 24.1622 19.1125C23.9846 18.9701 23.8609 18.7715 23.8115 18.5493C23.762 18.3271 23.7899 18.0947 23.8904 17.8905C23.9909 17.6863 24.1581 17.5225 24.3643 17.4261C25.1703 17.0501 24.8593 16.2761 24.7883 16.1251C24.7183 15.9741 24.3293 15.2401 23.5183 15.6141C23.2779 15.7262 23.0028 15.7381 22.7536 15.6474C22.5044 15.5566 22.3014 15.3706 22.1893 15.1301C22.0773 14.8897 22.0653 14.6146 22.1561 14.3654C22.2469 14.1162 22.4329 13.9132 22.6733 13.8011C24.4173 12.9861 25.9703 13.9281 26.6003 15.2801C27.2303 16.6311 26.9543 18.4251 25.2093 19.2391C25.0775 19.3005 24.9338 19.3323 24.7883 19.3321Z" fill="#2166F3"/>
<path d="M15.4382 23.6919C15.2106 23.6921 14.9898 23.6146 14.8121 23.4723C14.6345 23.3299 14.5108 23.1312 14.4614 22.9091C14.4119 22.6869 14.4398 22.4545 14.5403 22.2503C14.6408 22.0461 14.808 21.8823 15.0142 21.7859L24.3642 17.4259C24.4832 17.3704 24.612 17.3388 24.7431 17.333C24.8743 17.3272 25.0053 17.3473 25.1288 17.3922C25.2522 17.437 25.3655 17.5057 25.4624 17.5944C25.5592 17.6831 25.6377 17.7899 25.6932 17.9089C25.7488 18.0279 25.7803 18.1566 25.7861 18.2878C25.7919 18.419 25.7718 18.55 25.727 18.6734C25.6821 18.7969 25.6134 18.9102 25.5247 19.0071C25.4361 19.1039 25.3292 19.1824 25.2102 19.2379L15.8602 23.5979C15.7282 23.66 15.5841 23.6921 15.4382 23.6919ZM19.2072 49.9999C19.0036 49.9999 18.8048 49.9378 18.6374 49.8218C18.47 49.7057 18.3421 49.5414 18.2706 49.3507C18.1992 49.16 18.1877 48.952 18.2377 48.7546C18.2876 48.5572 18.3967 48.3797 18.5502 48.2459L27.9112 40.0919C28.1112 39.9177 28.3722 39.83 28.6368 39.8482C28.9014 39.8664 29.148 39.9889 29.3222 40.1889C29.4965 40.3889 29.5841 40.6499 29.566 40.9145C29.5478 41.1791 29.4252 41.4257 29.2252 41.5999L19.8642 49.7539C19.6822 49.9126 19.4488 50 19.2072 49.9999Z" fill="#2166F3"/>
<path d="M37.9275 49.9997C37.6862 50 37.4531 49.9126 37.2715 49.7537L27.9105 41.5997C27.8115 41.5134 27.7304 41.4085 27.672 41.2909C27.6135 41.1733 27.5788 41.0453 27.5698 40.9143C27.5608 40.7833 27.5777 40.6517 27.6195 40.5272C27.6613 40.4027 27.7272 40.2877 27.8135 40.1887C27.8998 40.0897 28.0047 40.0086 28.1223 39.9502C28.2399 39.8917 28.3679 39.857 28.4989 39.848C28.6299 39.839 28.7614 39.8558 28.8859 39.8977C29.0104 39.9395 29.1255 40.0054 29.2245 40.0917L38.5855 48.2457C38.7391 48.3795 38.8482 48.5571 38.8981 48.7546C38.9481 48.9521 38.9365 49.1602 38.8649 49.3509C38.7934 49.5417 38.6652 49.706 38.4977 49.822C38.3302 49.9379 38.1312 49.9999 37.9275 49.9997ZM1.4375 34.7457C1.17228 34.7457 0.91793 34.6403 0.730393 34.4528C0.542857 34.2653 0.4375 34.0109 0.4375 33.7457V23.4297C0.4375 23.1645 0.542857 22.9101 0.730393 22.7226C0.91793 22.535 1.17228 22.4297 1.4375 22.4297C1.70272 22.4297 1.95707 22.535 2.14461 22.7226C2.33214 22.9101 2.4375 23.1645 2.4375 23.4297V33.7457C2.4375 34.0109 2.33214 34.2653 2.14461 34.4528C1.95707 34.6403 1.70272 34.7457 1.4375 34.7457Z" fill="#2166F3"/>
<path d="M1.43754 24.4301C1.17233 24.4301 0.917973 24.3248 0.730436 24.1372C0.5429 23.9497 0.437543 23.6953 0.437543 23.4301C0.433087 22.3559 0.776618 21.309 1.41673 20.4463C2.05685 19.5836 2.95912 18.9513 3.98854 18.6441C4.11452 18.605 4.247 18.5911 4.37835 18.6034C4.5097 18.6156 4.63733 18.6538 4.75388 18.7156C4.87043 18.7774 4.97359 18.8616 5.05744 18.9635C5.14128 19.0654 5.20414 19.1828 5.2424 19.309C5.28066 19.4353 5.29356 19.5679 5.28036 19.6991C5.26715 19.8304 5.22811 19.9577 5.16547 20.0738C5.10284 20.1899 5.01785 20.2925 4.9154 20.3756C4.81295 20.4587 4.69507 20.5208 4.56854 20.5581C3.95085 20.7425 3.40946 21.122 3.02534 21.6397C2.64121 22.1574 2.435 22.7855 2.43754 23.4301C2.43754 23.6953 2.33219 23.9497 2.14465 24.1372C1.95711 24.3248 1.70276 24.4301 1.43754 24.4301ZM5.43754 47.5001C5.17233 47.5001 4.91797 47.3948 4.73044 47.2072C4.5429 47.0197 4.43754 46.7653 4.43754 46.5001V24.5151C4.43754 24.2499 4.5429 23.9955 4.73044 23.808C4.91797 23.6205 5.17233 23.5151 5.43754 23.5151C5.70276 23.5151 5.95711 23.6205 6.14465 23.808C6.33219 23.9955 6.43754 24.2499 6.43754 24.5151V46.5001C6.43754 46.7653 6.33219 47.0197 6.14465 47.2072C5.95711 47.3948 5.70276 47.5001 5.43754 47.5001ZM10.4375 19.6891C7.26854 19.6891 4.59054 17.0111 4.59054 13.8421C4.59054 10.6731 7.26854 7.99512 10.4375 7.99512C13.6065 7.99512 16.2845 10.6721 16.2845 13.8421C16.2845 17.0121 13.6065 19.6891 10.4375 19.6891ZM10.4375 9.99612C8.35254 9.99612 6.59054 11.7581 6.59054 13.8431C6.59054 15.9281 8.35254 17.6901 10.4375 17.6901C12.5225 17.6901 14.2845 15.9281 14.2845 13.8431C14.2845 11.7571 12.5225 9.99612 10.4375 9.99612ZM10.4375 47.5001C10.1723 47.5001 9.91797 47.3948 9.73043 47.2072C9.5429 47.0197 9.43754 46.7653 9.43754 46.5001V33.7461C9.43754 33.4809 9.5429 33.2265 9.73043 33.039C9.91797 32.8515 10.1723 32.7461 10.4375 32.7461C10.7028 32.7461 10.9571 32.8515 11.1446 33.039C11.3322 33.2265 11.4375 33.4809 11.4375 33.7461V46.5001C11.4375 46.7653 11.3322 47.0197 11.1446 47.2072C10.9571 47.3948 10.7028 47.5001 10.4375 47.5001Z" fill="#2166F3"/>
<path d="M3.4375 36.6811C1.9465 36.6811 0.4375 35.6731 0.4375 33.7461C0.4375 33.4809 0.542857 33.2265 0.730393 33.039C0.91793 32.8515 1.17228 32.7461 1.4375 32.7461C1.70272 32.7461 1.95707 32.8515 2.14461 33.039C2.33214 33.2265 2.4375 33.4809 2.4375 33.7461C2.4375 34.6361 3.2705 34.6811 3.4375 34.6811C3.6045 34.6811 4.4375 34.6361 4.4375 33.7461C4.4375 33.4809 4.54286 33.2265 4.73039 33.039C4.91793 32.8515 5.17228 32.7461 5.4375 32.7461C5.70272 32.7461 5.95707 32.8515 6.14461 33.039C6.33214 33.2265 6.4375 33.4809 6.4375 33.7461C6.4375 35.6731 4.9285 36.6811 3.4375 36.6811ZM12.9375 49.9181C12.0435 49.9181 11.2015 49.6181 10.5665 49.0721C9.8385 48.4461 9.4375 47.5321 9.4375 46.5001C9.4375 46.2349 9.54286 45.9805 9.73039 45.793C9.91793 45.6055 10.1723 45.5001 10.4375 45.5001C10.7027 45.5001 10.9571 45.6055 11.1446 45.793C11.3321 45.9805 11.4375 46.2349 11.4375 46.5001C11.4375 47.8781 12.7845 47.9181 12.9375 47.9181C13.0905 47.9181 14.4375 47.8781 14.4375 46.5001C14.4375 46.2349 14.5429 45.9805 14.7304 45.793C14.9179 45.6055 15.1723 45.5001 15.4375 45.5001C15.7027 45.5001 15.9571 45.6055 16.1446 45.793C16.3321 45.9805 16.4375 46.2349 16.4375 46.5001C16.4375 48.7441 14.6765 49.9181 12.9375 49.9181Z" fill="#2166F3"/>
<path d="M7.9375 49.918C7.0435 49.918 6.2015 49.618 5.5665 49.072C4.8385 48.446 4.4375 47.532 4.4375 46.5C4.4375 46.2348 4.54286 45.9804 4.73039 45.7929C4.91793 45.6054 5.17228 45.5 5.4375 45.5C5.70272 45.5 5.95707 45.6054 6.14461 45.7929C6.33214 45.9804 6.4375 46.2348 6.4375 46.5C6.4375 47.878 7.7845 47.918 7.9375 47.918C8.0905 47.918 9.4375 47.878 9.4375 46.5C9.4375 46.2348 9.54286 45.9804 9.73039 45.7929C9.91793 45.6054 10.1723 45.5 10.4375 45.5C10.7027 45.5 10.9571 45.6054 11.1446 45.7929C11.3321 45.9804 11.4375 46.2348 11.4375 46.5C11.4375 48.744 9.6765 49.918 7.9375 49.918Z" fill="#2166F3"/>
</svg>
