<svg width="51" height="51" viewBox="0 0 51 51" fill="none" xmlns="http://www.w3.org/2000/svg">
<path fill-rule="evenodd" clip-rule="evenodd" d="M23.8163 3.75491L22.6523 5.95881C22.6317 5.99776 22.6025 6.03146 22.5669 6.05734C22.5313 6.08321 22.4902 6.10055 22.4468 6.10803L19.9906 6.53459C19.659 6.5924 19.3495 6.73947 19.0953 6.96001C18.841 7.18055 18.6517 7.4662 18.5477 7.78627C18.4437 8.10634 18.4288 8.44871 18.5048 8.77657C18.5808 9.10444 18.7446 9.4054 18.9788 9.64709L20.7156 11.4362C20.7781 11.5002 20.807 11.5893 20.7945 11.6776L20.4406 14.1447C20.3922 14.4782 20.4358 14.8185 20.5667 15.1289C20.6977 15.4394 20.9109 15.7081 21.1835 15.9062C21.456 16.1043 21.7775 16.2241 22.1132 16.2528C22.4489 16.2815 22.786 16.2179 23.0882 16.069L25.3257 14.9697C25.3654 14.9505 25.4089 14.9405 25.4531 14.9405C25.4972 14.9405 25.5407 14.9505 25.5804 14.9697L27.8179 16.069C28.1201 16.2174 28.4571 16.2805 28.7926 16.2515C29.128 16.2226 29.4493 16.1027 29.7216 15.9048C29.994 15.7068 30.2072 15.4383 30.3383 15.1282C30.4694 14.8181 30.5134 14.478 30.4656 14.1447L30.1117 11.6776C30.1054 11.634 30.1093 11.5895 30.123 11.5477C30.1367 11.5058 30.1598 11.4677 30.1906 11.4362L31.9273 9.64709C32.1612 9.40529 32.3249 9.10433 32.4007 8.77654C32.4765 8.44875 32.4616 8.10651 32.3576 7.78654C32.2536 7.46658 32.0644 7.18099 31.8103 6.96042C31.5563 6.73985 31.247 6.59264 30.9156 6.53459L28.4593 6.10803C28.4159 6.10055 28.3748 6.08321 28.3392 6.05734C28.3036 6.03146 28.2744 5.99776 28.2538 5.95881L27.0898 3.75491C26.9324 3.45731 26.6968 3.20825 26.4084 3.03454C26.12 2.86084 25.7897 2.76904 25.4531 2.76904C25.1164 2.76904 24.7861 2.86084 24.4977 3.03454C24.2093 3.20825 23.9738 3.45731 23.8163 3.75491ZM25.1984 4.48459C25.2227 4.43811 25.2593 4.39917 25.3042 4.372C25.3491 4.34484 25.4006 4.33047 25.4531 4.33047C25.5055 4.33047 25.557 4.34484 25.6019 4.372C25.6468 4.39917 25.6834 4.43811 25.7077 4.48459L26.8726 6.6885C27.0044 6.93874 27.192 7.15538 27.4207 7.32171C27.6495 7.48804 27.9134 7.59963 28.1921 7.64788L30.6484 8.07444C30.7003 8.08292 30.7489 8.10552 30.7888 8.13976C30.8287 8.17401 30.8584 8.21857 30.8747 8.26858C30.891 8.31859 30.8933 8.37212 30.8812 8.42331C30.8691 8.4745 30.8431 8.52138 30.8062 8.55881L29.0695 10.3471C28.8724 10.5501 28.7244 10.7956 28.6371 11.0647C28.5497 11.3338 28.5253 11.6194 28.5656 11.8994L28.9187 14.3666C28.9265 14.4186 28.9199 14.4718 28.8996 14.5203C28.8792 14.5688 28.846 14.6109 28.8035 14.6418C28.7609 14.6727 28.7107 14.6914 28.6583 14.6958C28.6059 14.7002 28.5533 14.6901 28.5062 14.6666L26.2687 13.5674C26.0148 13.4428 25.7358 13.3781 25.4531 13.3781C25.1703 13.3781 24.8913 13.4428 24.6374 13.5674L22.3999 14.6666C22.3529 14.6901 22.3002 14.7002 22.2478 14.6958C22.1954 14.6914 22.1452 14.6727 22.1027 14.6418C22.0601 14.6109 22.0269 14.5688 22.0066 14.5203C21.9862 14.4718 21.9796 14.4186 21.9874 14.3666L22.3406 11.8994C22.3809 11.6194 22.3564 11.3338 22.269 11.0647C22.1817 10.7956 22.0338 10.5501 21.8367 10.3471L20.0999 8.55881C20.0638 8.52105 20.0386 8.47419 20.027 8.42323C20.0153 8.37227 20.0177 8.31911 20.0339 8.26941C20.0501 8.21972 20.0795 8.17534 20.1189 8.141C20.1583 8.10667 20.2063 8.08367 20.2577 8.07444L22.714 7.64788C22.9927 7.59963 23.2566 7.48804 23.4854 7.32171C23.7142 7.15538 23.9017 6.93874 24.0335 6.6885L25.1984 4.48459ZM44.7179 11.0565L42.3359 11.7916C42.2939 11.8046 42.2494 11.8079 42.206 11.8011C42.1625 11.7943 42.1212 11.7777 42.0851 11.7526L40.0468 10.3166C39.7715 10.123 39.4485 10.0081 39.1128 9.98427C38.777 9.96045 38.4411 10.0286 38.1412 10.1814C37.8412 10.3342 37.5887 10.5659 37.4106 10.8516C37.2325 11.1372 37.1356 11.466 37.1304 11.8026L37.0937 14.2955C37.093 14.3395 37.0823 14.3828 37.0622 14.4219C37.0422 14.4611 37.0134 14.4951 36.9781 14.5213L34.9835 16.0166C34.7138 16.2183 34.5043 16.4899 34.3775 16.8019C34.2507 17.114 34.2116 17.4547 34.2642 17.7874C34.3169 18.1201 34.4594 18.432 34.6763 18.6897C34.8932 18.9473 35.1764 19.1409 35.4952 19.2494L37.8546 20.0541C37.8963 20.0684 37.9341 20.092 37.9653 20.1232C37.9964 20.1543 38.02 20.1922 38.0343 20.2338L38.8398 22.5932C38.9489 22.9115 39.1426 23.194 39.4002 23.4105C39.6578 23.6269 39.9695 23.7691 40.3018 23.8217C40.6341 23.8743 40.9745 23.8354 41.2863 23.7091C41.5982 23.5828 41.8697 23.3739 42.0718 23.1049L43.5671 21.1104C43.5934 21.075 43.6276 21.0461 43.6669 21.0261C43.7062 21.006 43.7496 20.9953 43.7937 20.9948L46.2859 20.958C46.6224 20.9528 46.9512 20.856 47.2369 20.6779C47.5225 20.4998 47.7542 20.2472 47.907 19.9473C48.0598 19.6473 48.128 19.3114 48.1042 18.9757C48.0803 18.6399 47.9654 18.317 47.7718 18.0416L46.3367 16.0041C46.3112 15.968 46.2944 15.9266 46.2874 15.883C46.2805 15.8394 46.2837 15.7947 46.2968 15.7526L47.032 13.3713C47.1317 13.0496 47.1416 12.7067 47.0608 12.3797C46.9799 12.0528 46.8114 11.7541 46.5732 11.5158C46.3351 11.2776 46.0364 11.1089 45.7095 11.028C45.3825 10.947 45.0397 10.9569 44.7179 11.0565ZM45.1788 12.5494C45.229 12.5337 45.2825 12.532 45.3336 12.5446C45.3846 12.5572 45.4312 12.5835 45.4684 12.6207C45.5055 12.6579 45.5317 12.7046 45.5442 12.7557C45.5566 12.8067 45.5548 12.8602 45.539 12.9104L44.8038 15.2916C44.7202 15.5619 44.6998 15.8478 44.7441 16.1272C44.7884 16.4066 44.8962 16.6722 45.0593 16.9033L46.4945 18.9416C46.5246 18.9845 46.5425 19.0349 46.5461 19.0872C46.5498 19.1395 46.5391 19.1918 46.5152 19.2385C46.4914 19.2852 46.4552 19.3245 46.4107 19.3522C46.3661 19.3798 46.3149 19.3948 46.2624 19.3955L43.7702 19.4323C43.4873 19.4364 43.2092 19.5054 42.9571 19.634C42.7051 19.7625 42.4859 19.9471 42.3163 20.1737L40.8218 22.1682C40.7904 22.2103 40.7481 22.2429 40.6994 22.2627C40.6508 22.2825 40.5977 22.2886 40.5458 22.2804C40.4939 22.2722 40.4453 22.25 40.4051 22.2162C40.365 22.1824 40.3348 22.1382 40.3179 22.0885L39.5132 19.7291C39.4218 19.4614 39.2702 19.2183 39.0702 19.0183C38.8702 18.8182 38.627 18.6667 38.3593 18.5752L35.9999 17.7705C35.9504 17.7534 35.9065 17.7231 35.8728 17.683C35.8392 17.6428 35.8171 17.5942 35.8089 17.5425C35.8007 17.4907 35.8067 17.4377 35.8264 17.3891C35.846 17.3405 35.8784 17.2982 35.9202 17.2666L37.9156 15.7721C38.1419 15.6024 38.3263 15.3832 38.4547 15.1311C38.583 14.8791 38.652 14.601 38.6562 14.3182L38.6929 11.826C38.6938 11.7736 38.7089 11.7225 38.7366 11.6781C38.7643 11.6336 38.8036 11.5976 38.8503 11.5738C38.8969 11.55 38.9492 11.5394 39.0015 11.5431C39.0537 11.5468 39.1039 11.5647 39.1468 11.5948L41.1851 13.0299C41.6538 13.3596 42.2492 13.4541 42.7968 13.2846L45.1788 12.5494ZM3.87415 13.3713L4.60931 15.7526C4.62238 15.7947 4.62559 15.8394 4.61868 15.883C4.61177 15.9266 4.59493 15.968 4.56947 16.0041L3.13431 18.0416C2.94012 18.3168 2.82475 18.6398 2.80064 18.9758C2.77654 19.3118 2.84461 19.648 2.99753 19.9481C3.15044 20.2482 3.38239 20.5009 3.66835 20.6788C3.95432 20.8568 4.28345 20.9534 4.62025 20.958L7.11244 20.9948C7.15655 20.9953 7.19994 21.006 7.23924 21.0261C7.27854 21.0461 7.31268 21.075 7.339 21.1104L8.83431 23.1049C9.03637 23.3739 9.30792 23.5828 9.61978 23.7091C9.93163 23.8354 10.272 23.8743 10.6043 23.8217C10.9366 23.7691 11.2483 23.6269 11.5059 23.4105C11.7635 23.194 11.9573 22.9115 12.0663 22.5932L12.8718 20.2338C12.8861 20.1922 12.9097 20.1543 12.9409 20.1232C12.972 20.092 13.0098 20.0684 13.0515 20.0541L15.4109 19.2494C15.7297 19.1409 16.0129 18.9473 16.2298 18.6897C16.4467 18.432 16.5892 18.1201 16.6419 17.7874C16.6945 17.4547 16.6554 17.114 16.5286 16.8019C16.4019 16.4899 16.1923 16.2183 15.9226 16.0166L13.9281 14.5221C13.8928 14.4956 13.864 14.4615 13.844 14.4222C13.8239 14.3829 13.8132 14.3396 13.8124 14.2955L13.7757 11.8026C13.7705 11.466 13.6737 11.1372 13.4956 10.8516C13.3175 10.5659 13.0649 10.3342 12.7649 10.1814C12.465 10.0286 12.1291 9.96045 11.7933 9.98427C11.4576 10.0081 11.1347 10.123 10.8593 10.3166L8.82103 11.7518C8.7851 11.7772 8.74378 11.7941 8.70029 11.801C8.6568 11.8079 8.6123 11.8047 8.57025 11.7916L6.18822 11.0565C5.86645 10.9569 5.52359 10.947 5.19664 11.028C4.86968 11.1089 4.57103 11.2776 4.3329 11.5158C4.09477 11.7541 3.92619 12.0528 3.84535 12.3797C3.7645 12.7067 3.77446 13.0496 3.87415 13.3713ZM5.36712 12.9104C5.35187 12.8603 5.3505 12.807 5.36316 12.7562C5.37582 12.7054 5.40204 12.659 5.43902 12.622C5.476 12.5849 5.52234 12.5586 5.57311 12.5458C5.62388 12.533 5.67717 12.5343 5.72728 12.5494L8.10931 13.2846C8.37956 13.3681 8.66536 13.3886 8.94475 13.3445C9.22415 13.3003 9.48971 13.1927 9.72103 13.0299L11.7593 11.5948C11.8022 11.5647 11.8524 11.5468 11.9047 11.5431C11.9569 11.5394 12.0092 11.55 12.0558 11.5738C12.1025 11.5976 12.1418 11.6336 12.1695 11.6781C12.1973 11.7225 12.2124 11.7736 12.2132 11.826L12.2499 14.3182C12.2541 14.601 12.3231 14.8791 12.4515 15.1311C12.5798 15.3832 12.7643 15.6024 12.9906 15.7721L14.9859 17.2666C15.0277 17.2982 15.0602 17.3405 15.0798 17.3891C15.0994 17.4377 15.1054 17.4907 15.0972 17.5425C15.0891 17.5942 15.067 17.6428 15.0333 17.683C14.9996 17.7231 14.9557 17.7534 14.9062 17.7705L12.5468 18.5752C12.2791 18.6667 12.036 18.8182 11.8359 19.0183C11.6359 19.2183 11.4844 19.4614 11.3929 19.7291L10.5882 22.0885C10.5711 22.138 10.5408 22.182 10.5007 22.2156C10.4605 22.2493 10.4119 22.2714 10.3602 22.2796C10.3084 22.2877 10.2554 22.2817 10.2068 22.2621C10.1582 22.2425 10.1159 22.21 10.0843 22.1682L8.58978 20.1737C8.42027 19.9471 8.20105 19.7625 7.949 19.634C7.69695 19.5054 7.41877 19.4364 7.13587 19.4323L4.64369 19.3955C4.59125 19.3948 4.54001 19.3798 4.49546 19.3522C4.45092 19.3245 4.41477 19.2852 4.3909 19.2385C4.36704 19.1918 4.35635 19.1395 4.36001 19.0872C4.36367 19.0349 4.38152 18.9845 4.41165 18.9416L5.84681 16.9033C6.17728 16.4346 6.27181 15.8401 6.10228 15.2916L5.36712 12.9104ZM25.4531 18.1033C17.4046 18.1033 10.8702 24.6377 10.8702 32.6862C10.8702 40.7354 17.4046 47.269 25.4531 47.269C33.5015 47.269 40.0359 40.7354 40.0359 32.6862C40.0359 24.6377 33.5015 18.1033 25.4531 18.1033ZM25.4531 19.6658C32.639 19.6658 38.4734 25.5002 38.4734 32.6862C38.4734 39.8729 32.639 45.7065 25.4531 45.7065C18.2671 45.7065 12.4327 39.8729 12.4327 32.6862C12.4327 25.5002 18.2671 19.6658 25.4531 19.6658Z" fill="black" stroke="black"/>
<path fill-rule="evenodd" clip-rule="evenodd" d="M31.0678 33.9752C28.1654 33.9752 22.735 33.9752 19.8334 33.9955C19.4519 33.9959 19.0764 34.0902 18.74 34.2702C18.4037 34.4502 18.1169 34.7103 17.9049 35.0275C17.693 35.3447 17.5625 35.7092 17.5249 36.0889C17.4874 36.4685 17.544 36.8515 17.6897 37.2041C18.9287 40.2697 21.9397 42.4385 25.4529 42.4385C28.9639 42.4385 31.974 40.2721 33.235 37.2127C33.3819 36.8566 33.4387 36.4697 33.4005 36.0863C33.3623 35.703 33.2301 35.335 33.0158 35.0149C32.8014 34.6947 32.5114 34.4324 32.1715 34.2511C31.8316 34.0697 31.453 33.975 31.0678 33.9752ZM31.0678 35.5377C31.1962 35.5376 31.3226 35.5692 31.4359 35.6297C31.5491 35.6901 31.6458 35.7775 31.7172 35.8842C31.7887 35.9908 31.8327 36.1135 31.8455 36.2412C31.8583 36.369 31.8394 36.4979 31.7904 36.6166C30.7631 39.1096 28.3131 40.876 25.4529 40.876C24.0954 40.8755 22.7689 40.4695 21.6436 39.7102C20.5182 38.951 19.6452 37.8729 19.1365 36.6143L19.1342 36.6096C19.0866 36.4939 19.0682 36.3683 19.0807 36.2439C19.0931 36.1194 19.136 35.9999 19.2056 35.896C19.2752 35.7921 19.3693 35.7069 19.4796 35.6479C19.5899 35.589 19.713 35.5581 19.8381 35.558H19.8436C22.7428 35.5377 28.1678 35.5377 31.0678 35.5377ZM18.5897 29.7533C18.6404 29.4283 18.8912 29.2041 19.1756 29.0041C19.3373 28.89 19.5311 28.8268 19.7318 28.7564C20.0179 28.6579 20.3206 28.6173 20.6225 28.6369C20.8787 28.6213 21.1311 28.6455 21.3678 28.7111C21.5373 28.758 21.7037 28.7986 21.8522 28.876C22.249 29.0822 22.5951 29.3479 22.6553 29.7533C22.6529 29.8065 22.6613 29.8595 22.68 29.9093C22.6987 29.9591 22.7273 30.0046 22.7641 30.043C22.8008 30.0814 22.845 30.112 22.8939 30.1329C22.9428 30.1538 22.9955 30.1646 23.0486 30.1646C23.1018 30.1646 23.1545 30.1538 23.2034 30.1329C23.2523 30.112 23.2964 30.0814 23.3332 30.043C23.37 30.0046 23.3986 29.9591 23.4173 29.9093C23.436 29.8595 23.4444 29.8065 23.442 29.7533C23.5483 29.0322 23.1787 28.3525 22.5873 27.8213C22.2303 27.501 21.7662 27.2791 21.2647 27.1518C21.0539 27.1038 20.8386 27.0781 20.6225 27.0752C20.3346 27.0804 20.0488 27.124 19.7725 27.2049C19.3506 27.3385 18.9592 27.5361 18.6522 27.8127C18.0592 28.3471 17.6928 29.0307 17.8029 29.7533C17.8075 29.8546 17.8509 29.9503 17.9241 30.0203C17.9974 30.0904 18.0949 30.1295 18.1963 30.1295C18.2977 30.1295 18.3952 30.0904 18.4685 30.0203C18.5417 29.9503 18.5851 29.8546 18.5897 29.7533ZM28.2506 29.7533C28.3022 29.4283 28.5522 29.2041 28.8373 29.0041C28.9983 28.89 29.1928 28.8268 29.3928 28.7564C29.6788 28.658 29.9815 28.6174 30.2834 28.6369C30.5397 28.6213 30.792 28.6455 31.0287 28.7111C31.199 28.758 31.3647 28.7986 31.5131 28.876C31.9108 29.0822 32.2561 29.3479 32.3162 29.7533C32.3207 29.8546 32.3642 29.9503 32.4374 30.0203C32.5107 30.0904 32.6082 30.1295 32.7096 30.1295C32.811 30.1295 32.9085 30.0904 32.9817 30.0203C33.055 29.9503 33.0984 29.8546 33.1029 29.7533C33.2092 29.0322 32.8404 28.3525 32.2483 27.8213C31.8912 27.501 31.4272 27.2791 30.9256 27.1518C30.7148 27.1037 30.4996 27.078 30.2834 27.0752C29.9956 27.0804 29.7097 27.1241 29.4334 27.2049C29.0115 27.3385 28.6201 27.5361 28.3131 27.8127C27.7209 28.3471 27.3537 29.0307 27.4639 29.7533C27.4684 29.8546 27.5118 29.9503 27.5851 30.0203C27.6584 30.0904 27.7558 30.1295 27.8572 30.1295C27.9586 30.1295 28.0561 30.0904 28.1294 30.0203C28.2027 29.9503 28.2461 29.8546 28.2506 29.7533Z" fill="black" stroke="black"/>
</svg>
