<svg width="48" height="51" viewBox="0 0 48 51" fill="none" xmlns="http://www.w3.org/2000/svg">
<mask id="mask0_681_504" style="mask-type:luminance" maskUnits="userSpaceOnUse" x="0" y="0" width="48" height="51">
<path d="M0.923828 0.0191879H47.9825V50.019H0.923828V0.0191879Z" fill="white"/>
</mask>
<g mask="url(#mask0_681_504)">
<path d="M24.453 38.4561C31.4184 38.4561 37.0994 32.4199 37.0994 25.0193C37.0994 17.6186 31.4184 11.5825 24.453 11.5825C17.4876 11.5825 11.8066 17.6186 11.8066 25.0193C11.8066 32.4199 17.4876 38.4561 24.453 38.4561Z" stroke="#2166F3" stroke-width="2" stroke-miterlimit="22.926" stroke-linecap="round" stroke-linejoin="round"/>
<path d="M28.3137 6.62044C30.3203 7.09408 32.2334 7.93685 33.9668 9.11067L37.3866 5.47708L42.8459 11.2776L39.4266 14.9106C40.5144 16.7255 41.3184 18.7512 41.771 20.9175H46.6041V29.1207H41.771C41.3251 31.2529 40.5317 33.2858 39.4266 35.1276L42.8459 38.7607L37.3866 44.5611L33.9668 40.9276C32.2587 42.0829 30.3524 42.937 28.3137 43.4178V48.5542H20.5931V43.4178C18.5543 42.937 16.6481 42.0829 14.94 40.9276L11.5202 44.5611L6.0609 38.7607L9.48019 35.1276C8.3751 33.2858 7.58168 31.2529 7.13581 29.1207H2.30273V20.9175H7.13581C7.58838 18.7512 8.39242 16.7255 9.48019 14.9106L6.0609 11.2776L11.5202 5.47708L14.94 9.11067C16.6734 7.93683 18.5865 7.09407 20.5931 6.62044V1.48403H28.3137V6.62044Z" stroke="#2166F3" stroke-width="2" stroke-miterlimit="22.926" stroke-linecap="round" stroke-linejoin="round"/>
<path d="M19.3196 37.2344L19.3174 33.5564C19.3168 32.4776 20.1455 31.5976 21.1609 31.5976C23.3312 31.5976 25.5471 31.6004 27.7174 31.6004C28.7329 31.6004 29.5906 32.4807 29.59 33.5592L29.5878 37.2344" stroke="#2166F3" stroke-width="2" stroke-miterlimit="22.926" stroke-linecap="round" stroke-linejoin="round"/>
<path d="M24.4521 27.6113C26.3137 27.6113 27.8319 25.9981 27.8319 24.0203C27.8319 22.0424 26.3137 20.4292 24.4521 20.4292C22.5906 20.4292 21.0723 22.0424 21.0723 24.0203C21.0723 25.9981 22.5906 27.6113 24.4521 27.6113Z" stroke="#2166F3" stroke-width="2" stroke-miterlimit="22.926" stroke-linecap="round" stroke-linejoin="round"/>
</g>
</svg>
