<svg width="48" height="51" viewBox="0 0 48 51" fill="none" xmlns="http://www.w3.org/2000/svg">
<path d="M33.1629 7.13938L33.1628 7.13928C32.4549 6.26223 31.5764 5.55778 30.5875 5.07462C29.5985 4.59146 28.5226 4.34113 27.4336 4.34104H27.4336C27.2088 4.34104 26.9946 4.43594 26.8375 4.6028C26.6807 4.76946 26.5935 4.99434 26.5935 5.2277C26.5935 5.46106 26.6807 5.68594 26.8375 5.8526C26.9945 6.01943 27.2088 6.11433 27.4335 6.11437C28.2786 6.11543 29.1136 6.31071 29.8815 6.68704C30.6494 7.06338 31.332 7.61199 31.8823 8.29561C31.9608 8.39307 32.0585 8.47175 32.1691 8.52586C32.2797 8.57998 32.4003 8.60812 32.5226 8.60812L32.5238 8.60811C32.7265 8.60563 32.9207 8.52593 33.0713 8.38502C33.1548 8.30909 33.223 8.21678 33.2724 8.11351C33.322 8.01002 33.3518 7.8974 33.3602 7.78207C33.3687 7.66673 33.3557 7.5507 33.3219 7.44052C33.2882 7.33034 33.2342 7.22798 33.1629 7.13938Z" fill="#2166F3" stroke="#2166F3" stroke-width="0.19"/>
<mask id="path-2-outside-1_681_549" maskUnits="userSpaceOnUse" x="1.10059" y="0.291992" width="46" height="49" fill="black">
<rect fill="white" x="1.10059" y="0.291992" width="46" height="49"/>
<path d="M37.8653 12.3527C37.8603 9.75987 36.9999 7.25091 35.4338 5.26243C33.8676 3.27395 31.6949 1.93182 29.2936 1.46957C26.8924 1.00731 24.4146 1.4542 22.2914 2.73246C20.1682 4.01073 18.534 6.03946 17.6731 8.46566C16.5033 8.60072 15.3807 9.03029 14.3984 9.71871C13.4162 10.4071 12.6026 11.3346 12.0253 12.424C11.699 12.3805 11.3706 12.3567 11.0418 12.3527C6.104 12.3527 2.10059 16.6064 2.10059 21.8527C2.10059 27.0991 6.104 31.3527 11.0418 31.3527H13.4112C14.25 33.57 15.6619 35.4899 17.484 36.8907C19.3061 38.2916 21.464 39.1162 23.7084 39.2694V40.8527H12.532C11.9391 40.8527 11.3706 41.1029 10.9514 41.5483C10.5322 41.9937 10.2967 42.5978 10.2967 43.2277V46.3944C10.2967 47.0243 10.5322 47.6284 10.9514 48.0738C11.3706 48.5192 11.9391 48.7694 12.532 48.7694H36.3751C36.9679 48.7694 37.5365 48.5192 37.9557 48.0738C38.3749 47.6284 38.6104 47.0243 38.6104 46.3944V43.2277C38.6104 42.5978 38.3749 41.9937 37.9557 41.5483C37.5365 41.1029 36.9679 40.8527 36.3751 40.8527H25.1986V39.2694C27.4431 39.1162 29.6009 38.2916 31.423 36.8907C33.2451 35.4899 34.6571 33.57 35.4959 31.3527H37.8653C42.8031 31.3527 46.8065 27.0991 46.8065 21.8527C46.8065 16.6064 42.8031 12.3527 37.8653 12.3527ZM37.1202 43.2277V46.3944C37.1202 46.6043 37.0417 46.8057 36.902 46.9542C36.7622 47.1026 36.5727 47.186 36.3751 47.186H12.532C12.3343 47.186 12.1448 47.1026 12.0051 46.9542C11.8654 46.8057 11.7869 46.6043 11.7869 46.3944V43.2277C11.7869 43.0178 11.8654 42.8164 12.0051 42.6679C12.1448 42.5195 12.3343 42.4361 12.532 42.4361H36.3751C36.5727 42.4361 36.7622 42.5195 36.902 42.6679C37.0417 42.8164 37.1202 43.0178 37.1202 43.2277ZM33.2829 32.469C31.8193 30.9003 29.9536 29.8238 27.9182 29.3736C28.9459 28.5936 29.7138 27.4871 30.1113 26.2134C30.5088 24.9398 30.5154 23.565 30.1299 22.2871C29.7445 21.0093 28.9871 19.8946 27.9669 19.1037C26.9467 18.3128 25.7164 17.8866 24.4535 17.8866C23.1906 17.8866 21.9604 18.3128 20.9402 19.1037C19.92 19.8946 19.1625 21.0093 18.7771 22.2871C18.3917 23.565 18.3982 24.9398 18.7957 26.2134C19.1932 27.4871 19.9612 28.5936 20.9888 29.3736C18.9535 29.8238 17.0878 30.9003 15.6241 32.469C14.5768 30.7148 14.0212 28.6801 14.0222 26.6027C14.0222 20.4816 18.6924 15.5194 24.4535 15.5194C30.2146 15.5194 34.8849 20.4816 34.8849 26.6027C34.8859 28.6801 34.3303 30.7148 33.2829 32.469ZM19.9829 24.2277C19.9829 22.968 20.4539 21.7598 21.2923 20.869C22.1307 19.9782 23.2679 19.4777 24.4535 19.4777C25.6392 19.4777 26.7763 19.9782 27.6147 20.869C28.4531 21.7598 28.9241 22.968 28.9241 24.2277C28.9241 25.4875 28.4531 26.6957 27.6147 27.5865C26.7763 28.4773 25.6392 28.9777 24.4535 28.9777C23.2679 28.9777 22.1307 28.4773 21.2923 27.5865C20.4539 26.6957 19.9829 25.4875 19.9829 24.2277ZM24.4535 37.6861C22.9427 37.6866 21.45 37.3369 20.0795 36.6615C18.709 35.986 17.4936 35.0011 16.5182 33.7752C17.8594 32.1919 20.2437 30.5611 24.4535 30.5611C28.6633 30.5611 31.0476 32.2077 32.3888 33.7752C31.4134 35.0011 30.1981 35.986 28.8276 36.6615C27.457 37.3369 25.9643 37.6866 24.4535 37.6861ZM37.8653 29.7694H35.9802C36.241 28.7363 36.3736 27.6715 36.3751 26.6027C36.3751 19.6068 31.038 13.9361 24.4535 13.9361C17.8691 13.9361 12.532 19.6068 12.532 26.6027C12.5334 27.6715 12.6661 28.7363 12.9269 29.7694H11.0418C6.92659 29.7694 3.59078 26.2251 3.59078 21.8527C3.59078 17.4804 6.92659 13.9361 11.0418 13.9361C12.5119 13.9311 13.9497 14.3943 15.1696 15.2661C15.3356 15.3762 15.5355 15.4133 15.7268 15.3695C15.9181 15.3257 16.0859 15.2045 16.1944 15.0314C16.303 14.8584 16.3438 14.6472 16.3083 14.4428C16.2728 14.2383 16.1637 14.0565 16.0041 13.9361C15.2573 13.4031 14.4382 12.9946 13.5751 12.7248C14.1021 11.9083 14.802 11.2345 15.6185 10.7574C16.435 10.2804 17.3454 10.0133 18.2767 9.97774H18.4406C19.7493 9.95787 21.0266 10.4038 22.0692 11.2444C22.2273 11.3704 22.426 11.4245 22.6216 11.3948C22.8173 11.3651 22.9938 11.254 23.1124 11.0861C23.2309 10.9181 23.2818 10.707 23.2539 10.4991C23.2259 10.2913 23.1214 10.1037 22.9633 9.97774C21.8928 9.12108 20.6229 8.59017 19.29 8.44191C20.1331 6.46519 21.5878 4.85477 23.4121 3.87857C25.2364 2.90238 27.3202 2.61927 29.317 3.07633C31.3138 3.5334 33.103 4.70308 34.3872 6.3908C35.6713 8.07852 36.3728 10.1825 36.3751 12.3527V12.4873C35.1336 12.701 33.9496 13.1951 32.9029 13.9361C32.7389 14.0537 32.6256 14.2356 32.5879 14.442C32.5501 14.6484 32.5911 14.8622 32.7018 15.0365C32.8124 15.2108 32.9837 15.3312 33.1779 15.3713C33.3722 15.4114 33.5734 15.3678 33.7374 15.2502C34.959 14.3841 36.3967 13.9264 37.8653 13.9361C41.9805 13.9361 45.3163 17.4804 45.3163 21.8527C45.3163 26.2251 41.9805 29.7694 37.8653 29.7694Z"/>
</mask>
<path d="M37.8653 12.3527C37.8603 9.75987 36.9999 7.25091 35.4338 5.26243C33.8676 3.27395 31.6949 1.93182 29.2936 1.46957C26.8924 1.00731 24.4146 1.4542 22.2914 2.73246C20.1682 4.01073 18.534 6.03946 17.6731 8.46566C16.5033 8.60072 15.3807 9.03029 14.3984 9.71871C13.4162 10.4071 12.6026 11.3346 12.0253 12.424C11.699 12.3805 11.3706 12.3567 11.0418 12.3527C6.104 12.3527 2.10059 16.6064 2.10059 21.8527C2.10059 27.0991 6.104 31.3527 11.0418 31.3527H13.4112C14.25 33.57 15.6619 35.4899 17.484 36.8907C19.3061 38.2916 21.464 39.1162 23.7084 39.2694V40.8527H12.532C11.9391 40.8527 11.3706 41.1029 10.9514 41.5483C10.5322 41.9937 10.2967 42.5978 10.2967 43.2277V46.3944C10.2967 47.0243 10.5322 47.6284 10.9514 48.0738C11.3706 48.5192 11.9391 48.7694 12.532 48.7694H36.3751C36.9679 48.7694 37.5365 48.5192 37.9557 48.0738C38.3749 47.6284 38.6104 47.0243 38.6104 46.3944V43.2277C38.6104 42.5978 38.3749 41.9937 37.9557 41.5483C37.5365 41.1029 36.9679 40.8527 36.3751 40.8527H25.1986V39.2694C27.4431 39.1162 29.6009 38.2916 31.423 36.8907C33.2451 35.4899 34.6571 33.57 35.4959 31.3527H37.8653C42.8031 31.3527 46.8065 27.0991 46.8065 21.8527C46.8065 16.6064 42.8031 12.3527 37.8653 12.3527ZM37.1202 43.2277V46.3944C37.1202 46.6043 37.0417 46.8057 36.902 46.9542C36.7622 47.1026 36.5727 47.186 36.3751 47.186H12.532C12.3343 47.186 12.1448 47.1026 12.0051 46.9542C11.8654 46.8057 11.7869 46.6043 11.7869 46.3944V43.2277C11.7869 43.0178 11.8654 42.8164 12.0051 42.6679C12.1448 42.5195 12.3343 42.4361 12.532 42.4361H36.3751C36.5727 42.4361 36.7622 42.5195 36.902 42.6679C37.0417 42.8164 37.1202 43.0178 37.1202 43.2277ZM33.2829 32.469C31.8193 30.9003 29.9536 29.8238 27.9182 29.3736C28.9459 28.5936 29.7138 27.4871 30.1113 26.2134C30.5088 24.9398 30.5154 23.565 30.1299 22.2871C29.7445 21.0093 28.9871 19.8946 27.9669 19.1037C26.9467 18.3128 25.7164 17.8866 24.4535 17.8866C23.1906 17.8866 21.9604 18.3128 20.9402 19.1037C19.92 19.8946 19.1625 21.0093 18.7771 22.2871C18.3917 23.565 18.3982 24.9398 18.7957 26.2134C19.1932 27.4871 19.9612 28.5936 20.9888 29.3736C18.9535 29.8238 17.0878 30.9003 15.6241 32.469C14.5768 30.7148 14.0212 28.6801 14.0222 26.6027C14.0222 20.4816 18.6924 15.5194 24.4535 15.5194C30.2146 15.5194 34.8849 20.4816 34.8849 26.6027C34.8859 28.6801 34.3303 30.7148 33.2829 32.469ZM19.9829 24.2277C19.9829 22.968 20.4539 21.7598 21.2923 20.869C22.1307 19.9782 23.2679 19.4777 24.4535 19.4777C25.6392 19.4777 26.7763 19.9782 27.6147 20.869C28.4531 21.7598 28.9241 22.968 28.9241 24.2277C28.9241 25.4875 28.4531 26.6957 27.6147 27.5865C26.7763 28.4773 25.6392 28.9777 24.4535 28.9777C23.2679 28.9777 22.1307 28.4773 21.2923 27.5865C20.4539 26.6957 19.9829 25.4875 19.9829 24.2277ZM24.4535 37.6861C22.9427 37.6866 21.45 37.3369 20.0795 36.6615C18.709 35.986 17.4936 35.0011 16.5182 33.7752C17.8594 32.1919 20.2437 30.5611 24.4535 30.5611C28.6633 30.5611 31.0476 32.2077 32.3888 33.7752C31.4134 35.0011 30.1981 35.986 28.8276 36.6615C27.457 37.3369 25.9643 37.6866 24.4535 37.6861ZM37.8653 29.7694H35.9802C36.241 28.7363 36.3736 27.6715 36.3751 26.6027C36.3751 19.6068 31.038 13.9361 24.4535 13.9361C17.8691 13.9361 12.532 19.6068 12.532 26.6027C12.5334 27.6715 12.6661 28.7363 12.9269 29.7694H11.0418C6.92659 29.7694 3.59078 26.2251 3.59078 21.8527C3.59078 17.4804 6.92659 13.9361 11.0418 13.9361C12.5119 13.9311 13.9497 14.3943 15.1696 15.2661C15.3356 15.3762 15.5355 15.4133 15.7268 15.3695C15.9181 15.3257 16.0859 15.2045 16.1944 15.0314C16.303 14.8584 16.3438 14.6472 16.3083 14.4428C16.2728 14.2383 16.1637 14.0565 16.0041 13.9361C15.2573 13.4031 14.4382 12.9946 13.5751 12.7248C14.1021 11.9083 14.802 11.2345 15.6185 10.7574C16.435 10.2804 17.3454 10.0133 18.2767 9.97774H18.4406C19.7493 9.95787 21.0266 10.4038 22.0692 11.2444C22.2273 11.3704 22.426 11.4245 22.6216 11.3948C22.8173 11.3651 22.9938 11.254 23.1124 11.0861C23.2309 10.9181 23.2818 10.707 23.2539 10.4991C23.2259 10.2913 23.1214 10.1037 22.9633 9.97774C21.8928 9.12108 20.6229 8.59017 19.29 8.44191C20.1331 6.46519 21.5878 4.85477 23.4121 3.87857C25.2364 2.90238 27.3202 2.61927 29.317 3.07633C31.3138 3.5334 33.103 4.70308 34.3872 6.3908C35.6713 8.07852 36.3728 10.1825 36.3751 12.3527V12.4873C35.1336 12.701 33.9496 13.1951 32.9029 13.9361C32.7389 14.0537 32.6256 14.2356 32.5879 14.442C32.5501 14.6484 32.5911 14.8622 32.7018 15.0365C32.8124 15.2108 32.9837 15.3312 33.1779 15.3713C33.3722 15.4114 33.5734 15.3678 33.7374 15.2502C34.959 14.3841 36.3967 13.9264 37.8653 13.9361C41.9805 13.9361 45.3163 17.4804 45.3163 21.8527C45.3163 26.2251 41.9805 29.7694 37.8653 29.7694Z" fill="#2166F3"/>
<path d="M37.8653 12.3527C37.8603 9.75987 36.9999 7.25091 35.4338 5.26243C33.8676 3.27395 31.6949 1.93182 29.2936 1.46957C26.8924 1.00731 24.4146 1.4542 22.2914 2.73246C20.1682 4.01073 18.534 6.03946 17.6731 8.46566C16.5033 8.60072 15.3807 9.03029 14.3984 9.71871C13.4162 10.4071 12.6026 11.3346 12.0253 12.424C11.699 12.3805 11.3706 12.3567 11.0418 12.3527C6.104 12.3527 2.10059 16.6064 2.10059 21.8527C2.10059 27.0991 6.104 31.3527 11.0418 31.3527H13.4112C14.25 33.57 15.6619 35.4899 17.484 36.8907C19.3061 38.2916 21.464 39.1162 23.7084 39.2694V40.8527H12.532C11.9391 40.8527 11.3706 41.1029 10.9514 41.5483C10.5322 41.9937 10.2967 42.5978 10.2967 43.2277V46.3944C10.2967 47.0243 10.5322 47.6284 10.9514 48.0738C11.3706 48.5192 11.9391 48.7694 12.532 48.7694H36.3751C36.9679 48.7694 37.5365 48.5192 37.9557 48.0738C38.3749 47.6284 38.6104 47.0243 38.6104 46.3944V43.2277C38.6104 42.5978 38.3749 41.9937 37.9557 41.5483C37.5365 41.1029 36.9679 40.8527 36.3751 40.8527H25.1986V39.2694C27.4431 39.1162 29.6009 38.2916 31.423 36.8907C33.2451 35.4899 34.6571 33.57 35.4959 31.3527H37.8653C42.8031 31.3527 46.8065 27.0991 46.8065 21.8527C46.8065 16.6064 42.8031 12.3527 37.8653 12.3527ZM37.1202 43.2277V46.3944C37.1202 46.6043 37.0417 46.8057 36.902 46.9542C36.7622 47.1026 36.5727 47.186 36.3751 47.186H12.532C12.3343 47.186 12.1448 47.1026 12.0051 46.9542C11.8654 46.8057 11.7869 46.6043 11.7869 46.3944V43.2277C11.7869 43.0178 11.8654 42.8164 12.0051 42.6679C12.1448 42.5195 12.3343 42.4361 12.532 42.4361H36.3751C36.5727 42.4361 36.7622 42.5195 36.902 42.6679C37.0417 42.8164 37.1202 43.0178 37.1202 43.2277ZM33.2829 32.469C31.8193 30.9003 29.9536 29.8238 27.9182 29.3736C28.9459 28.5936 29.7138 27.4871 30.1113 26.2134C30.5088 24.9398 30.5154 23.565 30.1299 22.2871C29.7445 21.0093 28.9871 19.8946 27.9669 19.1037C26.9467 18.3128 25.7164 17.8866 24.4535 17.8866C23.1906 17.8866 21.9604 18.3128 20.9402 19.1037C19.92 19.8946 19.1625 21.0093 18.7771 22.2871C18.3917 23.565 18.3982 24.9398 18.7957 26.2134C19.1932 27.4871 19.9612 28.5936 20.9888 29.3736C18.9535 29.8238 17.0878 30.9003 15.6241 32.469C14.5768 30.7148 14.0212 28.6801 14.0222 26.6027C14.0222 20.4816 18.6924 15.5194 24.4535 15.5194C30.2146 15.5194 34.8849 20.4816 34.8849 26.6027C34.8859 28.6801 34.3303 30.7148 33.2829 32.469ZM19.9829 24.2277C19.9829 22.968 20.4539 21.7598 21.2923 20.869C22.1307 19.9782 23.2679 19.4777 24.4535 19.4777C25.6392 19.4777 26.7763 19.9782 27.6147 20.869C28.4531 21.7598 28.9241 22.968 28.9241 24.2277C28.9241 25.4875 28.4531 26.6957 27.6147 27.5865C26.7763 28.4773 25.6392 28.9777 24.4535 28.9777C23.2679 28.9777 22.1307 28.4773 21.2923 27.5865C20.4539 26.6957 19.9829 25.4875 19.9829 24.2277ZM24.4535 37.6861C22.9427 37.6866 21.45 37.3369 20.0795 36.6615C18.709 35.986 17.4936 35.0011 16.5182 33.7752C17.8594 32.1919 20.2437 30.5611 24.4535 30.5611C28.6633 30.5611 31.0476 32.2077 32.3888 33.7752C31.4134 35.0011 30.1981 35.986 28.8276 36.6615C27.457 37.3369 25.9643 37.6866 24.4535 37.6861ZM37.8653 29.7694H35.9802C36.241 28.7363 36.3736 27.6715 36.3751 26.6027C36.3751 19.6068 31.038 13.9361 24.4535 13.9361C17.8691 13.9361 12.532 19.6068 12.532 26.6027C12.5334 27.6715 12.6661 28.7363 12.9269 29.7694H11.0418C6.92659 29.7694 3.59078 26.2251 3.59078 21.8527C3.59078 17.4804 6.92659 13.9361 11.0418 13.9361C12.5119 13.9311 13.9497 14.3943 15.1696 15.2661C15.3356 15.3762 15.5355 15.4133 15.7268 15.3695C15.9181 15.3257 16.0859 15.2045 16.1944 15.0314C16.303 14.8584 16.3438 14.6472 16.3083 14.4428C16.2728 14.2383 16.1637 14.0565 16.0041 13.9361C15.2573 13.4031 14.4382 12.9946 13.5751 12.7248C14.1021 11.9083 14.802 11.2345 15.6185 10.7574C16.435 10.2804 17.3454 10.0133 18.2767 9.97774H18.4406C19.7493 9.95787 21.0266 10.4038 22.0692 11.2444C22.2273 11.3704 22.426 11.4245 22.6216 11.3948C22.8173 11.3651 22.9938 11.254 23.1124 11.0861C23.2309 10.9181 23.2818 10.707 23.2539 10.4991C23.2259 10.2913 23.1214 10.1037 22.9633 9.97774C21.8928 9.12108 20.6229 8.59017 19.29 8.44191C20.1331 6.46519 21.5878 4.85477 23.4121 3.87857C25.2364 2.90238 27.3202 2.61927 29.317 3.07633C31.3138 3.5334 33.103 4.70308 34.3872 6.3908C35.6713 8.07852 36.3728 10.1825 36.3751 12.3527V12.4873C35.1336 12.701 33.9496 13.1951 32.9029 13.9361C32.7389 14.0537 32.6256 14.2356 32.5879 14.442C32.5501 14.6484 32.5911 14.8622 32.7018 15.0365C32.8124 15.2108 32.9837 15.3312 33.1779 15.3713C33.3722 15.4114 33.5734 15.3678 33.7374 15.2502C34.959 14.3841 36.3967 13.9264 37.8653 13.9361C41.9805 13.9361 45.3163 17.4804 45.3163 21.8527C45.3163 26.2251 41.9805 29.7694 37.8653 29.7694Z" stroke="#2166F3" stroke-width="0.38" mask="url(#path-2-outside-1_681_549)"/>
<path d="M14.7666 45.6979H15.5117C15.7364 45.6979 15.9507 45.603 16.1077 45.4361C16.2646 45.2694 16.3518 45.0446 16.3518 44.8112C16.3518 44.5778 16.2646 44.353 16.1077 44.1863C15.9507 44.0194 15.7364 43.9245 15.5117 43.9245H14.7666C14.5419 43.9245 14.3276 44.0194 14.1705 44.1863C14.0137 44.353 13.9265 44.5778 13.9265 44.8112C13.9265 45.0446 14.0137 45.2694 14.1705 45.4361C14.3276 45.603 14.5419 45.6979 14.7666 45.6979ZM18.4921 45.6979H19.2372C19.4619 45.6979 19.6762 45.603 19.8332 45.4361C19.9901 45.2694 20.0773 45.0446 20.0773 44.8112C20.0773 44.5778 19.9901 44.353 19.8332 44.1863C19.6762 44.0194 19.4619 43.9245 19.2372 43.9245H18.4921C18.2673 43.9245 18.0531 44.0194 17.896 44.1863C17.7392 44.353 17.652 44.5778 17.652 44.8112C17.652 45.0446 17.7392 45.2694 17.896 45.4361C18.0531 45.603 18.2673 45.6979 18.4921 45.6979ZM22.2176 45.6979H22.9627C23.1874 45.6979 23.4017 45.603 23.5587 45.4361C23.7156 45.2694 23.8028 45.0446 23.8028 44.8112C23.8028 44.5778 23.7156 44.353 23.5587 44.1863C23.4017 44.0194 23.1874 43.9245 22.9627 43.9245H22.2176C21.9928 43.9245 21.7786 44.0194 21.6215 44.1863C21.4647 44.353 21.3775 44.5778 21.3775 44.8112C21.3775 45.0446 21.4647 45.2694 21.6215 45.4361C21.7786 45.603 21.9928 45.6979 22.2176 45.6979ZM25.9431 45.6979H26.6882C26.9129 45.6979 27.1272 45.603 27.2842 45.4361C27.4411 45.2694 27.5283 45.0446 27.5283 44.8112C27.5283 44.5778 27.4411 44.353 27.2842 44.1863C27.1272 44.0194 26.9129 43.9245 26.6882 43.9245H25.9431C25.7183 43.9245 25.5041 44.0194 25.347 44.1863C25.1902 44.353 25.103 44.5778 25.103 44.8112C25.103 45.0446 25.1902 45.2694 25.347 45.4361C25.5041 45.603 25.7183 45.6979 25.9431 45.6979ZM29.6685 45.6979H30.4136C30.6384 45.6979 30.8526 45.603 31.0097 45.4361C31.1665 45.2694 31.2537 45.0446 31.2537 44.8112C31.2537 44.5778 31.1665 44.353 31.0097 44.1863C30.8526 44.0194 30.6384 43.9245 30.4136 43.9245H29.6685C29.4438 43.9245 29.2295 44.0194 29.0725 44.1863C28.9156 44.353 28.8284 44.5778 28.8284 44.8112C28.8284 45.0446 28.9156 45.2694 29.0725 45.4361C29.2295 45.603 29.4438 45.6979 29.6685 45.6979ZM33.394 45.6979H34.1391C34.3639 45.6979 34.5781 45.603 34.7352 45.4361C34.892 45.2694 34.9792 45.0446 34.9792 44.8112C34.9792 44.5778 34.892 44.353 34.7352 44.1863C34.5781 44.0194 34.3639 43.9245 34.1391 43.9245H33.394C33.1693 43.9245 32.955 44.0194 32.798 44.1863C32.6411 44.353 32.5539 44.5778 32.5539 44.8112C32.5539 45.0446 32.6411 45.2694 32.798 45.4361C32.955 45.603 33.1693 45.6979 33.394 45.6979Z" fill="#2166F3" stroke="#2166F3" stroke-width="0.19"/>
</svg>
