<svg width="45" height="40" viewBox="0 0 45 40" fill="none" xmlns="http://www.w3.org/2000/svg">
<path d="M41.2031 39.8106C41.0912 39.8105 40.9801 39.7926 40.8739 39.7575L35.8406 38.0762C32.4754 39.8122 28.5934 40.2637 24.9197 39.3462C21.246 38.4287 18.0319 36.2051 15.8781 33.0908C15.7964 32.9785 15.738 32.8511 15.7063 32.7159C15.6745 32.5807 15.6702 32.4405 15.6934 32.3036C15.7166 32.1667 15.767 32.0359 15.8416 31.9187C15.9161 31.8016 16.0133 31.7005 16.1275 31.6215C16.2417 31.5424 16.3705 31.487 16.5064 31.4585C16.6423 31.43 16.7825 31.4289 16.9188 31.4554C17.0552 31.4818 17.1848 31.5353 17.3002 31.6125C17.4155 31.6898 17.5143 31.7894 17.5906 31.9054C19.4956 34.6606 22.357 36.6091 25.6185 37.3722C28.8801 38.1353 32.3089 37.6586 35.2385 36.0346C35.3647 35.9653 35.5038 35.9227 35.6472 35.9094C35.7905 35.8962 35.9351 35.9125 36.0718 35.9575L39.7833 37.1971L38.9864 33.621C38.9518 33.4671 38.9525 33.3074 38.9886 33.1538C39.0247 33.0003 39.0952 32.8569 39.1948 32.7346C40.6901 30.9017 41.6789 28.7089 42.0628 26.3748C42.4466 24.0407 42.2121 21.6467 41.3825 19.4315C40.5529 17.2163 39.1573 15.2571 37.3347 13.7493C35.5121 12.2414 33.3262 11.2376 30.9948 10.8377C30.7224 10.791 30.4797 10.638 30.3201 10.4124C30.1605 10.1868 30.097 9.90698 30.1437 9.63458C30.1904 9.36218 30.3434 9.11948 30.569 8.95988C30.7947 8.80028 31.0744 8.73685 31.3468 8.78354C33.9938 9.23882 36.4787 10.3687 38.5618 12.0642C40.6448 13.7597 42.2556 15.9635 43.2388 18.4629C44.2219 20.9623 44.5442 23.673 44.1745 26.3333C43.8048 28.9935 42.7555 31.5136 41.1281 33.6502L42.2187 38.546C42.252 38.698 42.2508 38.8555 42.2153 39.0069C42.1798 39.1584 42.1108 39.2999 42.0133 39.4212C41.9159 39.5425 41.7926 39.6404 41.6524 39.7078C41.5122 39.7752 41.3587 39.8103 41.2031 39.8106Z" fill="#2166F3"/>
<path d="M4.74488 34.6024C4.59886 34.6031 4.45432 34.5731 4.32063 34.5144C4.18695 34.4556 4.06711 34.3695 3.96888 34.2614C3.87066 34.1534 3.79625 34.0259 3.75048 33.8872C3.70471 33.7486 3.68861 33.6018 3.70321 33.4565L4.30946 27.393C1.92941 24.457 0.618559 20.799 0.592202 17.0196C0.565845 13.2402 1.82555 9.56417 4.16442 6.59531C6.50329 3.62644 9.78227 1.54123 13.4628 0.682134C17.1434 -0.176958 21.0067 0.241153 24.4182 1.8678C27.8297 3.49444 30.5866 6.2329 32.2362 9.63342C33.8857 13.0339 34.3298 16.8943 33.4954 20.5806C32.6611 24.2668 30.598 27.5597 27.6449 29.9185C24.6918 32.2773 21.0244 33.5616 17.2449 33.5607C14.9296 33.5618 12.6402 33.0745 10.5261 32.1305L5.16779 34.5128C5.03469 34.5721 4.89058 34.6026 4.74488 34.6024ZM17.2449 2.31069C14.4551 2.30809 11.7233 3.10645 9.37399 4.61092C7.02469 6.11539 5.15669 8.2627 3.99199 10.7977C2.82729 13.3327 2.41485 16.1487 2.80369 18.9112C3.19253 21.6737 4.36629 24.2665 6.1855 26.3815C6.27727 26.4885 6.34638 26.613 6.38863 26.7475C6.43089 26.8819 6.44542 27.0236 6.43133 27.1638L5.95946 31.8805L10.1095 30.0367C10.2469 29.9754 10.396 29.9445 10.5465 29.9463C10.6971 29.9481 10.8454 29.9825 10.9813 30.0472C12.9353 30.988 15.0761 31.4769 17.2449 31.4774C21.1126 31.4774 24.8219 29.9409 27.5568 27.206C30.2918 24.4711 31.8282 20.7618 31.8282 16.894C31.8282 13.0263 30.2918 9.31696 27.5568 6.58205C24.8219 3.84715 21.1126 2.31069 17.2449 2.31069Z" fill="#2166F3"/>
<path d="M23.4945 11.6859H14.1195C13.8432 11.6859 13.5782 11.5761 13.3829 11.3808C13.1875 11.1854 13.0778 10.9205 13.0778 10.6442C13.0778 10.3679 13.1875 10.103 13.3829 9.90764C13.5782 9.71229 13.8432 9.60254 14.1195 9.60254H23.4945C23.7707 9.60254 24.0357 9.71229 24.231 9.90764C24.4264 10.103 24.5361 10.3679 24.5361 10.6442C24.5361 10.9205 24.4264 11.1854 24.231 11.3808C24.0357 11.5761 23.7707 11.6859 23.4945 11.6859ZM23.4945 16.8942H9.9528C9.67653 16.8942 9.41158 16.7845 9.21623 16.5891C9.02088 16.3938 8.91113 16.1288 8.91113 15.8525C8.91113 15.5763 9.02088 15.3113 9.21623 15.116C9.41158 14.9206 9.67653 14.8109 9.9528 14.8109H23.4945C23.7707 14.8109 24.0357 14.9206 24.231 15.116C24.4264 15.3113 24.5361 15.5763 24.5361 15.8525C24.5361 16.1288 24.4264 16.3938 24.231 16.5891C24.0357 16.7845 23.7707 16.8942 23.4945 16.8942ZM18.2861 22.1025H9.9528C9.67653 22.1025 9.41158 21.9928 9.21623 21.7974C9.02088 21.6021 8.91113 21.3371 8.91113 21.0609C8.91113 20.7846 9.02088 20.5197 9.21623 20.3243C9.41158 20.129 9.67653 20.0192 9.9528 20.0192H18.2861C18.5624 20.0192 18.8274 20.129 19.0227 20.3243C19.2181 20.5197 19.3278 20.7846 19.3278 21.0609C19.3278 21.3371 19.2181 21.6021 19.0227 21.7974C18.8274 21.9928 18.5624 22.1025 18.2861 22.1025ZM23.4945 22.1025H21.4111C21.1349 22.1025 20.8699 21.9928 20.6746 21.7974C20.4792 21.6021 20.3695 21.3371 20.3695 21.0609C20.3695 20.7846 20.4792 20.5197 20.6746 20.3243C20.8699 20.129 21.1349 20.0192 21.4111 20.0192H23.4945C23.7707 20.0192 24.0357 20.129 24.231 20.3243C24.4264 20.5197 24.5361 20.7846 24.5361 21.0609C24.5361 21.3371 24.4264 21.6021 24.231 21.7974C24.0357 21.9928 23.7707 22.1025 23.4945 22.1025Z" fill="#2166F3"/>
</svg>
