<svg width="45" height="46" viewBox="0 0 45 46" fill="none" xmlns="http://www.w3.org/2000/svg">
<path fill-rule="evenodd" clip-rule="evenodd" d="M11.6495 3.74805C9.43937 3.74805 7.31976 4.68089 5.75695 6.34137C4.19415 8.00185 3.31618 10.2539 3.31618 12.6022V33.4355C3.31618 35.7838 4.19415 38.0359 5.75695 39.6964C7.31976 41.3569 9.43937 42.2897 11.6495 42.2897H31.2574C33.4675 42.2897 35.5871 41.3569 37.1499 39.6964C38.7127 38.0359 39.5907 35.7838 39.5907 33.4355V16.7689C39.5907 16.3545 39.7456 15.9571 40.0214 15.664C40.2972 15.371 40.6713 15.2064 41.0613 15.2064C41.4513 15.2064 41.8254 15.371 42.1011 15.664C42.3769 15.9571 42.5319 16.3545 42.5319 16.7689V33.4355C42.5319 36.6126 41.344 39.6596 39.2296 41.9061C37.1153 44.1526 34.2475 45.4147 31.2574 45.4147H11.6495C8.65932 45.4147 5.79161 44.1526 3.67723 41.9061C1.56285 39.6596 0.375 36.6126 0.375 33.4355V12.6022C0.375 9.42514 1.56285 6.37819 3.67723 4.13166C5.79161 1.88513 8.65932 0.623047 11.6495 0.623047H29.2966C29.6866 0.623047 30.0606 0.787667 30.3364 1.08069C30.6122 1.37372 30.7672 1.77115 30.7672 2.18555C30.7672 2.59995 30.6122 2.99738 30.3364 3.2904C30.0606 3.58343 29.6866 3.74805 29.2966 3.74805H11.6495Z" fill="#2166F3"/>
<path fill-rule="evenodd" clip-rule="evenodd" d="M39.1006 3.74805C39.7506 3.74805 40.374 4.02241 40.8337 4.51079C41.2933 4.99917 41.5516 5.66155 41.5516 6.35221C41.5516 7.04288 41.2933 7.70526 40.8337 8.19364C40.374 8.68201 39.7506 8.95638 39.1006 8.95638C38.4505 8.95638 37.8271 8.68201 37.3675 8.19364C36.9078 7.70526 36.6496 7.04288 36.6496 6.35221C36.6496 5.66155 36.9078 4.99917 37.3675 4.51079C37.8271 4.02241 38.4505 3.74805 39.1006 3.74805ZM44.4927 6.35221C44.4927 4.83274 43.9246 3.37551 42.9134 2.30108C41.9022 1.22665 40.5307 0.623047 39.1006 0.623047C37.6705 0.623047 36.299 1.22665 35.2878 2.30108C34.2765 3.37551 33.7084 4.83274 33.7084 6.35221C33.7084 7.87168 34.2765 9.32892 35.2878 10.4033C36.299 11.4778 37.6705 12.0814 39.1006 12.0814C40.5307 12.0814 41.9022 11.4778 42.9134 10.4033C43.9246 9.32892 44.4927 7.87168 44.4927 6.35221ZM10.681 29.923C10.3878 29.65 10.2086 29.2645 10.1829 28.8512C10.1572 28.4378 10.2869 28.0306 10.5437 27.7189L17.4065 19.3855C17.6593 19.079 18.0149 18.8896 18.3973 18.8577C18.7797 18.8258 19.1587 18.9539 19.4535 19.2147L24.2339 23.446L30.1516 16.2605C30.2771 16.1002 30.4315 15.9682 30.6058 15.8722C30.7801 15.7763 30.9707 15.7184 31.1664 15.702C31.3621 15.6856 31.5588 15.7109 31.7452 15.7766C31.9315 15.8422 32.1035 15.9469 32.2512 16.0843C32.3988 16.2217 32.5191 16.3891 32.6049 16.5767C32.6907 16.7643 32.7403 16.9682 32.7507 17.1764C32.7612 17.3847 32.7323 17.5931 32.6658 17.7893C32.5992 17.9855 32.4964 18.1656 32.3633 18.3189L25.5006 26.6522C25.2477 26.9587 24.8922 27.1482 24.5098 27.1801C24.1273 27.212 23.7483 27.0839 23.4535 26.823L18.6731 22.5918L12.7555 29.7772C12.4985 30.0887 12.1356 30.2791 11.7466 30.3064C11.3576 30.3338 10.9743 30.1959 10.681 29.923Z" fill="#2166F3"/>
</svg>
