<svg width="61" height="61" viewBox="0 0 61 61" fill="none" xmlns="http://www.w3.org/2000/svg">
<g clip-path="url(#clip0_681_456)">
<path d="M26.1807 13.1098C24.3625 11.4735 21.9079 10.7462 19.4534 11.0189C15.3625 11.5644 12.1807 14.8371 12.1807 18.7462V18.928C12.2716 20.4735 13.0898 25.4735 18.9988 26.4735C19.5443 26.5644 19.9988 26.6553 20.5443 26.6553C22.5443 26.6553 24.4534 25.928 25.9988 24.6553C27.817 23.2007 28.817 21.0189 28.817 18.8371C28.817 16.5644 27.9079 14.5644 26.1807 13.1098ZM24.817 23.2007C23.2716 24.4735 21.2716 25.0189 19.2716 24.6553C14.817 23.928 14.0898 20.2916 13.9988 18.7462V18.6553C13.9988 15.6553 16.4534 13.1098 19.6352 12.7462C21.5443 12.4735 23.5443 13.1098 24.9988 14.3825C26.2716 15.5644 26.9988 17.1098 26.9988 18.7462C26.9988 20.4735 26.1807 22.1098 24.817 23.2007Z" fill="#2166F3" stroke="#2166F3" stroke-width="0.5"/>
<path d="M32.1803 33.0191L35.7258 29.6555C36.0894 29.3828 36.0894 28.8373 35.8167 28.4737L33.2712 24.9282C33.6349 24.201 33.9985 23.4737 34.1803 22.7464L38.7258 21.9282C39.1803 21.8373 39.453 21.4737 39.453 21.0191V16.2919C39.453 15.8373 39.0894 15.4737 38.7258 15.3828L34.0894 14.5646C33.8167 13.8373 33.5439 13.11 33.0894 12.3828L35.6349 8.83731C35.9076 8.47368 35.8167 7.92822 35.5439 7.6555C35.453 7.56459 32.1803 4.56459 31.9076 4.38277C31.6349 4.20095 31.3621 4.11004 30.9985 4.20095C30.9076 4.20095 30.7258 4.29186 30.6349 4.38277L27.1803 6.56459C27.0894 6.6555 26.9985 6.6555 26.9076 6.7464C26.1803 6.38277 25.453 6.11004 24.7258 5.92822L23.8167 1.6555C23.7258 1.20095 23.3621 0.928223 22.9076 0.928223H17.9076C17.453 0.928223 17.0894 1.29186 16.9985 1.7464L16.0894 5.92822C15.2712 6.20095 14.453 6.47368 13.7258 6.83731C11.7258 5.56459 10.6349 4.92822 9.99849 4.56459L9.81667 4.38277V4.47368C9.27122 4.20095 9.18031 4.29186 8.90758 4.38277C8.90758 4.47368 8.72576 4.56459 8.72576 4.6555L5.27122 7.83731C4.90758 8.20095 4.90758 8.7464 5.27122 9.11004C5.54395 9.47368 6.36213 10.5646 6.99849 11.4737L7.72576 12.6555C7.36213 13.3828 6.99849 14.11 6.81667 14.8373L2.27122 15.6555C1.81667 15.7464 1.54395 16.11 1.54395 16.5646V21.2919C1.54395 21.6555 1.72576 21.9282 1.99849 22.11C2.18031 22.2009 2.27122 22.2919 2.45304 22.201L6.90758 22.9282C7.0894 23.4737 7.36213 24.201 7.90758 25.11C6.63485 26.9282 5.90758 27.9282 5.54395 28.5646L5.36213 28.7464C5.0894 29.2919 5.0894 29.3828 5.27122 29.6555C5.36213 29.8373 5.45304 29.9282 5.63485 30.0191C6.27122 30.5646 8.90758 33.0191 9.0894 33.201C9.36213 33.3828 9.63485 33.4737 9.99849 33.3828C10.0894 33.3828 10.2712 33.2919 10.3621 33.201L14.0894 30.7464C14.8167 31.11 15.5439 31.3828 16.2712 31.5646L17.1803 35.8373C17.2712 36.2919 17.6349 36.5646 18.0894 36.5646H23.0894C23.5439 36.5646 23.9076 36.2919 23.9985 35.8373L24.9076 31.5646C25.7258 31.2919 26.5439 31.0191 27.2712 30.6555L31.1803 33.11C31.3621 33.3828 31.8167 33.2919 32.1803 33.0191ZM26.8167 28.8373C25.9076 29.3828 24.9076 29.7464 23.8167 30.0191C23.453 30.11 23.1803 30.3828 23.1803 30.7464L22.2712 34.7464H18.7258L17.9076 30.6555C17.8167 30.2919 17.5439 30.0191 17.2712 29.9282C16.2712 29.6555 15.2712 29.2919 14.453 28.8373C14.1803 28.6555 13.8167 28.6555 13.5439 28.8373L9.81667 31.201C9.27122 30.9282 8.45304 30.201 7.27122 29.11C8.0894 27.9282 9.63486 25.7464 9.63486 25.6555C9.81667 25.3828 9.81667 24.9282 9.63486 24.6555C8.99849 23.5646 8.72576 22.9282 8.45304 22.201L8.36213 21.8373C8.27122 21.5646 7.99849 21.2919 7.63485 21.2919L3.27122 20.5646V17.3828L7.63485 16.5646C7.99849 16.4737 8.27122 16.201 8.36213 15.9282C8.54395 15.2919 8.90758 14.2919 9.45304 13.3828C9.81667 13.11 9.90758 12.8373 9.45304 12.2009C9.45304 12.11 9.36213 12.11 9.36213 12.0191C9.18031 11.6555 8.81667 11.2919 8.45304 10.6555L7.0894 8.6555C7.54395 8.20095 8.27122 7.56459 9.27122 6.56459L9.54395 6.38277C10.7258 7.11004 13.1803 8.6555 13.2712 8.74641C13.5439 8.92822 13.9076 8.92822 14.1803 8.74641C15.0894 8.29186 16.0894 7.83731 17.1803 7.56459C17.5439 7.47368 17.8167 7.20095 17.8167 6.83731L18.7258 2.7464H22.2712L23.0894 6.83731C23.1803 7.20095 23.453 7.47368 23.7258 7.56459C24.7258 7.83731 25.5439 8.11004 26.453 8.56459C26.7258 8.7464 27.1803 8.83731 27.453 8.56459L31.1803 6.20095C31.6349 6.6555 32.453 7.38277 33.6349 8.47368L31.1803 11.9282C30.9985 12.201 30.9985 12.6555 31.1803 12.9282C31.7258 13.8373 32.1803 14.7464 32.453 15.6555C32.5439 16.0191 32.8167 16.201 33.1803 16.2919L37.5439 17.0191V20.201L33.1803 21.0191C32.8167 21.11 32.5439 21.2919 32.453 21.6555C32.3621 22.7464 31.9076 23.6555 31.3621 24.4737C31.1803 24.7464 31.1803 25.201 31.3621 25.4737L33.8167 28.8373L31.3621 31.11L27.7258 28.8373C27.453 28.7464 27.0894 28.6555 26.8167 28.8373ZM51.6349 43.11C50.9985 39.9282 48.0894 37.5646 44.9076 37.5646C41.0894 37.5646 37.9985 40.6555 37.9985 44.4737V44.5646C37.9985 46.6555 38.9076 48.4737 40.5439 49.8373C41.8167 50.8373 43.3621 51.3828 44.9076 51.3828C46.1803 51.3828 47.3621 51.0191 48.5439 50.3828C50.9985 48.9282 52.1803 46.0191 51.6349 43.11ZM47.5439 48.8373C46.0894 49.7464 43.7258 50.11 41.7258 48.4737C40.5439 47.4737 39.9076 46.11 39.9076 44.5646V44.4737C39.9076 41.6555 42.1803 39.3828 44.9985 39.3828C47.3621 39.3828 49.453 41.11 49.9985 43.3828C50.3621 46.11 48.9985 47.9282 47.5439 48.8373Z" fill="#2166F3" stroke="#2166F3" stroke-width="0.5"/>
<path d="M59.3623 42.4736C59.3623 42.019 59.0896 41.6554 58.635 41.5645L55.2714 40.9281C55.0896 40.3827 54.9078 39.8372 54.635 39.3827L56.4532 36.5645C56.7259 36.2008 56.635 35.7463 56.3623 35.3827C54.9987 34.1099 54.2714 33.2918 53.8169 32.9281C53.8169 32.8372 53.7259 32.7463 53.635 32.7463C53.1805 32.3827 53.0896 32.3827 52.8169 32.4736C52.635 32.4736 52.5441 32.5645 52.4532 32.6554C51.9987 32.9281 50.7259 33.8372 49.9078 34.3827L49.8169 34.4736C49.3623 34.2008 48.9078 34.019 48.3623 33.9281L47.7259 30.5645C47.635 30.1099 47.2714 29.8372 46.8169 29.8372H42.9987C42.5441 29.8372 42.1805 30.2008 42.0896 30.6554L41.4532 33.9281C40.9078 34.1099 40.3623 34.2918 39.9078 34.5645C39.0896 34.019 37.2714 32.8372 37.0896 32.6554C36.635 32.3827 36.0896 32.4736 35.8169 32.8372L34.2714 34.5645L34.0896 34.7463L33.9078 34.9281L33.8169 35.019L33.7259 35.1099L33.1805 35.6554C32.9078 35.9281 32.8169 36.4736 33.0896 36.8372C33.0896 36.9281 34.3623 38.7463 34.9987 39.6554C34.7259 40.2008 34.5441 40.7463 34.3623 41.2918L31.0896 41.8372C30.635 41.9281 30.3623 42.2918 30.3623 42.7463V46.5645C30.4532 47.1099 30.5441 47.2008 30.8169 47.3827C30.9078 47.4736 31.0896 47.4736 31.2714 47.4736L34.4532 48.019C34.635 48.4736 34.8169 48.9281 35.0896 49.5645C34.635 50.2008 33.9078 51.2918 33.5441 51.9281L33.2714 52.3827C32.9987 52.8372 33.0896 53.3827 33.5441 53.6554L36.1805 56.2008C36.4532 56.3827 36.7259 56.4736 37.0896 56.4736C37.1805 56.4736 37.3623 56.3827 37.4532 56.2918L40.1805 54.3827C40.635 54.5645 41.0896 54.8372 41.635 54.9281L42.2714 58.2918C42.3623 58.7463 42.7259 59.019 43.1805 59.019H46.8169C47.2714 59.019 47.635 58.7463 47.7259 58.2918L48.3623 54.9281C48.9078 54.7463 49.4532 54.5645 49.9078 54.2918L52.7259 56.2008C53.0896 56.4736 53.5441 56.3827 53.9078 56.1099L56.5441 53.3827C56.8169 53.1099 56.9078 52.5645 56.635 52.2008L54.7259 49.3827C54.9987 48.8372 55.1805 48.3827 55.3623 47.7463L58.635 47.1099C59.0896 47.019 59.3623 46.6554 59.3623 46.2008V42.4736ZM54.4532 46.2008C54.0896 46.2918 53.8169 46.5645 53.7259 46.8372C53.5441 47.6554 53.1805 48.3827 52.8169 49.019C52.635 49.2918 52.635 49.6554 52.8169 50.019L54.635 52.6554L52.9987 54.2918L50.3623 52.4736C50.0896 52.2918 49.7259 52.2918 49.3623 52.4736C48.7259 52.8372 47.9078 53.2008 47.1805 53.3827C46.8169 53.4736 46.635 53.7463 46.5441 54.1099L45.9987 57.2918H43.7259L43.0896 54.2008C42.9987 53.8372 42.7259 53.5645 42.4532 53.4736C41.7259 53.2918 40.9987 53.019 40.3623 52.6554C40.0896 52.4736 39.7259 52.4736 39.3623 52.7463L36.7259 54.5645L35.0896 52.9281C35.7259 52.019 36.8169 50.3827 36.8169 50.2918C36.9987 50.019 36.9987 49.6554 36.8169 49.2918C36.3623 48.4736 36.1805 47.9281 35.9987 47.3827L35.9078 47.1099C35.9078 46.6554 35.635 46.3827 35.2714 46.3827L32.1805 45.8372V43.5645L35.2714 42.9281C35.635 42.8372 35.9078 42.5645 35.9987 42.2008C36.0896 41.7463 36.4532 40.8372 36.8169 40.1099C36.8169 40.019 36.9078 40.019 36.9078 39.9281C36.9987 39.6554 37.0896 39.5645 36.8169 39.019C36.8169 38.9281 36.7259 38.9281 36.635 38.8372C36.3623 38.3827 35.9078 37.6554 34.9987 36.3827L35.0896 36.2918L35.1805 36.2008L36.7259 34.6554C37.2714 35.1099 38.1805 35.6554 39.3623 36.4736C39.635 36.6554 39.9987 36.6554 40.3623 36.4736C40.9987 36.1099 41.7259 35.7463 42.5441 35.5645C42.9078 35.4736 43.0896 35.2008 43.1805 34.8372L43.8169 31.7463H46.0896L46.7259 34.8372C46.8169 35.2008 46.9987 35.4736 47.3623 35.5645C48.0896 35.7463 48.635 36.019 49.2714 36.2918C49.635 36.6554 49.9987 36.5645 50.3623 36.2918C50.7259 36.019 50.4532 36.2008 50.4532 36.2008C50.635 36.1099 50.7259 36.019 50.9078 35.9281C51.4532 35.5645 52.3623 34.9281 52.9078 34.4736L54.5441 36.1099L52.8169 38.7463C52.635 39.019 52.635 39.3827 52.8169 39.7463C53.1805 40.4736 53.5441 41.2008 53.7259 41.9281C53.8169 42.2918 54.0896 42.4736 54.4532 42.5645L57.5441 43.1099V45.3827L54.4532 46.2008ZM25.9078 53.4736C17.7259 53.2918 10.9078 47.2008 9.63503 39.2918L11.0896 40.7463C11.4532 41.1099 11.9987 41.1099 12.3623 40.7463C12.7259 40.3827 12.7259 39.8372 12.3623 39.4736L9.08958 36.2918C8.72594 35.9281 8.18049 35.9281 7.81685 36.2918L4.63503 39.5645C4.2714 39.9281 4.2714 40.4736 4.63503 40.8372C4.99867 41.2008 5.54412 41.2008 5.90776 40.8372L7.72594 39.019C8.90776 48.019 16.4532 55.1099 25.9078 55.3827C26.4532 55.3827 26.8169 54.9281 26.8169 54.4736C26.8169 53.8372 26.4532 53.4736 25.9078 53.4736ZM58.635 24.5645C58.2714 24.2008 57.7259 24.2008 57.3623 24.5645L55.635 26.2918C55.9078 17.2008 49.5441 9.10994 40.5441 7.29175C40.0896 7.20085 39.5441 7.56448 39.5441 8.10994C39.4532 8.56448 39.8169 9.01903 40.2714 9.10994C48.3623 10.7463 54.0896 18.019 53.9078 26.2008L52.1805 24.5645C51.8169 24.2008 51.2714 24.2008 50.9078 24.5645C50.5441 24.9281 50.5441 25.4736 50.9078 25.8372L54.0896 29.019C54.2714 29.2008 54.4532 29.2918 54.7259 29.2918C54.9987 29.2918 55.1805 29.2008 55.3623 29.019L58.5441 25.8372C58.9987 25.4736 58.9987 24.9281 58.635 24.5645Z" fill="#2166F3" stroke="#2166F3" stroke-width="0.5"/>
</g>
<defs>
<clipPath id="clip0_681_456">
<rect width="60" height="60" fill="white" transform="translate(0.453125 0.019043)"/>
</clipPath>
</defs>
</svg>
