<svg width="61" height="61" viewBox="0 0 61 61" fill="none" xmlns="http://www.w3.org/2000/svg">
<g clip-path="url(#clip0_681_281)">
<path d="M30.7881 31.0737C35.3185 31.0737 38.9912 27.4011 38.9912 22.8706C38.9912 18.3401 35.3185 14.6675 30.7881 14.6675C26.2576 14.6675 22.585 18.3401 22.585 22.8706C22.585 27.4011 26.2576 31.0737 30.7881 31.0737Z" stroke="#2166F3" stroke-width="2.5" stroke-miterlimit="10" stroke-linecap="round" stroke-linejoin="round"/>
<path d="M30.7881 43.9644V51.23" stroke="#2166F3" stroke-width="2.5" stroke-miterlimit="10" stroke-linecap="round" stroke-linejoin="round"/>
<path d="M30.7881 58.2612C32.7297 58.2612 34.3037 56.6872 34.3037 54.7456C34.3037 52.804 32.7297 51.23 30.7881 51.23C28.8465 51.23 27.2725 52.804 27.2725 54.7456C27.2725 56.6872 28.8465 58.2612 30.7881 58.2612Z" stroke="#2166F3" stroke-width="2.5" stroke-miterlimit="10" stroke-linecap="round" stroke-linejoin="round"/>
<path d="M48.8088 53.0384L41.3351 48.8864V39.1426M12.7676 53.0384L20.2413 48.8864V39.1426" stroke="#2166F3" stroke-width="2.5" stroke-miterlimit="10" stroke-linecap="round" stroke-linejoin="round"/>
<path d="M51.8818 26.3862V19.355L47.7504 18.3222C47.349 16.8224 46.76 15.4029 46.0002 14.0896L48.1895 10.441L43.2177 5.4692L39.5689 7.65838C38.2556 6.89854 36.8364 6.30967 35.3366 5.9083L34.3037 1.77686H27.2725L26.2397 5.9083C24.7399 6.30967 23.3205 6.89854 22.0073 7.65838L18.3586 5.4692L13.3868 10.441L15.5761 14.0896C14.8163 15.4029 14.2274 16.8224 13.8259 18.3222L9.69434 19.355V26.3862L13.8258 27.419C14.2271 28.9187 14.8161 30.3383 15.5759 31.6515L13.3867 35.3001L18.3585 40.272L22.0072 38.0827C23.3205 38.8424 24.7399 39.4314 26.2397 39.8329L27.2725 43.9644H34.3037L35.3365 39.8329C36.8362 39.4315 38.2556 38.8424 39.5689 38.0827L43.2177 40.272L48.1895 35.3001L46.0003 31.6515C46.76 30.3383 47.349 28.9187 47.7504 27.419L51.8818 26.3862Z" stroke="#2166F3" stroke-width="2.5" stroke-miterlimit="10" stroke-linecap="round" stroke-linejoin="round"/>
<path d="M51.8818 58.2612C53.8235 58.2612 55.3975 56.6872 55.3975 54.7456C55.3975 52.804 53.8235 51.23 51.8818 51.23C49.9402 51.23 48.3662 52.804 48.3662 54.7456C48.3662 56.6872 49.9402 58.2612 51.8818 58.2612Z" stroke="#2166F3" stroke-width="2.5" stroke-miterlimit="10" stroke-linecap="round" stroke-linejoin="round"/>
<path d="M9.69434 58.2612C11.636 58.2612 13.21 56.6872 13.21 54.7456C13.21 52.804 11.636 51.23 9.69434 51.23C7.75271 51.23 6.17871 52.804 6.17871 54.7456C6.17871 56.6872 7.75271 58.2612 9.69434 58.2612Z" stroke="#2166F3" stroke-width="2.5" stroke-miterlimit="10" stroke-linecap="round" stroke-linejoin="round"/>
</g>
<defs>
<clipPath id="clip0_681_281">
<rect width="60" height="60" fill="white" transform="translate(0.788086 0.019043)"/>
</clipPath>
</defs>
</svg>
