<svg width="61" height="61" viewBox="0 0 61 61" fill="none" xmlns="http://www.w3.org/2000/svg">
<g clip-path="url(#clip0_681_466)">
<path d="M32.1595 1.89381L1.222 7.51881C1.0036 7.55874 0.806464 7.67489 0.665687 7.84657C0.524909 8.01825 0.449629 8.23432 0.45325 8.45631V51.5813C0.449629 51.8033 0.524909 52.0194 0.665687 52.191C0.806464 52.3627 1.0036 52.4789 1.222 52.5188L32.1595 58.1438C32.2157 58.1484 32.2721 58.1484 32.3283 58.1438C32.5769 58.1438 32.8153 58.045 32.9912 57.8692C33.167 57.6934 33.2658 57.4549 33.2658 57.2063V2.83131C33.266 2.69358 33.2358 2.5575 33.1775 2.43273C33.1192 2.30796 33.0341 2.19758 32.9282 2.10944C32.8239 2.01912 32.7009 1.95297 32.568 1.9157C32.4351 1.87842 32.2956 1.87095 32.1595 1.89381ZM31.3908 56.0813L2.32825 50.7985V9.23912L31.3908 3.95631V56.0813ZM54.3595 23.9251C53.5739 23.9324 52.7972 24.0916 52.072 24.3938C50.7073 21.4628 48.4138 19.0638 45.547 17.5688C45.7938 16.9026 45.9207 16.198 45.922 15.4876C45.9214 14.2673 45.5544 13.0753 44.8685 12.0659C44.1827 11.0566 43.2096 10.2764 42.0753 9.8264C40.941 9.37642 39.6977 9.27736 38.5065 9.54205C37.3152 9.80674 36.2309 10.423 35.3939 11.311C35.2229 11.4925 35.1311 11.7345 35.1386 11.9837C35.146 12.2329 35.2522 12.469 35.4337 12.6399C35.6152 12.8108 35.8572 12.9027 36.1064 12.8952C36.3556 12.8877 36.5917 12.7816 36.7626 12.6001C37.1541 12.1786 37.6285 11.8427 38.1561 11.6136C38.6837 11.3845 39.2531 11.2671 39.8283 11.2688C40.9471 11.2688 42.0202 11.7133 42.8114 12.5045C43.6025 13.2956 44.047 14.3687 44.047 15.4876C44.047 16.6064 43.6025 17.6795 42.8114 18.4707C42.0202 19.2618 40.9471 19.7063 39.8283 19.7063C39.2531 19.708 38.6837 19.5906 38.1561 19.3615C37.6285 19.1324 37.1541 18.7965 36.7626 18.3751C36.5917 18.1936 36.3556 18.0874 36.1064 18.0799C35.8572 18.0724 35.6152 18.1643 35.4337 18.3352C35.2522 18.5062 35.146 18.7422 35.1386 18.9914C35.1311 19.2406 35.2229 19.4826 35.3939 19.6641C35.9991 20.3029 36.7354 20.803 37.5523 21.1301C38.3692 21.4572 39.2472 21.6036 40.126 21.559C41.0048 21.5145 41.8636 21.2801 42.6432 20.8721C43.4228 20.4641 44.1048 19.8921 44.6423 19.1954C47.2186 20.5237 49.2678 22.6869 50.4548 25.3313C49.7483 25.9237 49.1854 26.6686 48.8085 27.51C48.4316 28.3514 48.2506 29.2674 48.279 30.1889C48.3074 31.1105 48.5446 32.0135 48.9726 32.8301C49.4007 33.6467 50.0084 34.3555 50.7501 34.9032C49.7021 37.6918 47.7124 40.0264 45.1251 41.5032C44.6512 40.6796 43.9912 39.9783 43.1979 39.4553C42.4046 38.9322 41.5 38.602 40.5563 38.4908C39.6126 38.3797 38.656 38.4908 37.7629 38.8153C36.8698 39.1397 36.0649 39.6685 35.4126 40.3594C35.2417 40.5409 35.1499 40.7829 35.1573 41.0321C35.1648 41.2814 35.271 41.5174 35.4525 41.6883C35.634 41.8593 35.876 41.9511 36.1252 41.9436C36.3744 41.9362 36.6104 41.83 36.7814 41.6485C37.1719 41.2319 37.6439 40.9 38.168 40.6734C38.6921 40.4468 39.2572 40.3304 39.8283 40.3313C40.9471 40.3313 42.0202 40.7758 42.8114 41.567C43.6025 42.3581 44.047 43.4312 44.047 44.5501C44.047 45.6689 43.6025 46.742 42.8114 47.5332C42.0202 48.3243 40.9471 48.7688 39.8283 48.7688C39.2531 48.7705 38.6837 48.6531 38.1561 48.424C37.6285 48.1949 37.1541 47.859 36.7626 47.4376C36.5917 47.2561 36.3556 47.1499 36.1064 47.1424C35.8572 47.1349 35.6152 47.2268 35.4337 47.3977C35.2522 47.5687 35.146 47.8047 35.1386 48.0539C35.1311 48.3031 35.2229 48.5451 35.3939 48.7266C36.3063 49.6936 37.5099 50.3356 38.8212 50.5549C40.1325 50.7741 41.4795 50.5584 42.6568 49.9408C43.8341 49.3232 44.7772 48.3375 45.3422 47.1341C45.9071 45.9306 46.063 44.5754 45.7861 43.2751C48.8098 41.6323 51.1582 38.9769 52.4189 35.7751C53.2582 36.0665 54.1511 36.1709 55.035 36.081C55.9189 35.991 56.7725 35.7088 57.5359 35.2542C58.2992 34.7996 58.954 34.1836 59.4542 33.4493C59.9544 32.715 60.288 31.8802 60.4316 31.0034C60.5751 30.1266 60.5253 29.229 60.2854 28.3735C60.0456 27.518 59.6215 26.7253 59.043 26.0509C58.4645 25.3766 57.7456 24.8369 56.9365 24.4696C56.1275 24.1024 55.2479 23.9165 54.3595 23.9251ZM54.3595 34.2376C53.5251 34.2376 52.7095 33.9901 52.0157 33.5266C51.3219 33.063 50.7812 32.4041 50.4619 31.6333C50.1426 30.8624 50.059 30.0141 50.2218 29.1958C50.3846 28.3774 50.7864 27.6257 51.3764 27.0357C51.9664 26.4457 52.7181 26.0439 53.5365 25.8811C54.3548 25.7183 55.2031 25.8019 55.9739 26.1212C56.7448 26.4405 57.4037 26.9812 57.8673 27.675C58.3308 28.3688 58.5783 29.1844 58.5783 30.0188C58.5783 31.1377 58.1338 32.2107 57.3426 33.0019C56.5514 33.7931 55.4784 34.2376 54.3595 34.2376Z" fill="#2166F3" stroke="#2166F3"/>
<path d="M14.9844 38.9249C14.2216 38.8971 13.4796 38.6692 12.8328 38.2639C12.6535 38.1104 12.4228 38.0301 12.1868 38.0392C11.9509 38.0483 11.7271 38.1461 11.5601 38.3131C11.3931 38.4801 11.2953 38.7039 11.2862 38.9398C11.2771 39.1758 11.3574 39.4065 11.5109 39.5858C12.2234 40.303 13.9156 40.7999 14.9844 40.7999C18.4578 40.7999 21.0781 38.3811 21.0781 35.1749C21.0781 32.0858 18.7344 30.5718 16.6672 29.2311C14.7594 27.9983 13.1094 26.9296 13.1094 24.8624C13.1043 24.4301 13.1858 24.0012 13.3489 23.6008C13.512 23.2004 13.7535 22.8367 14.0592 22.531C14.3649 22.2253 14.7287 21.9838 15.129 21.8207C15.5294 21.6575 15.9583 21.5761 16.3906 21.5811C16.8831 21.5689 17.3724 21.6635 17.8247 21.8585C18.2771 22.0535 18.6818 22.3443 19.0109 22.7108C19.1903 22.8644 19.421 22.9447 19.6569 22.9356C19.8929 22.9264 20.1167 22.8286 20.2837 22.6617C20.4506 22.4947 20.5484 22.2709 20.5575 22.0349C20.5667 21.799 20.4864 21.5683 20.3328 21.3889C19.83 20.8483 19.2193 20.4192 18.5402 20.1293C17.8612 19.8395 17.1289 19.6953 16.3906 19.7061C15.0231 19.7061 13.7116 20.2494 12.7446 21.2164C11.7776 22.1833 11.2344 23.4949 11.2344 24.8624C11.2344 27.9514 13.5781 29.4655 15.6453 30.8061C17.5531 32.0389 19.2031 33.1077 19.2031 35.1749C19.2031 37.6358 17.0797 38.9249 14.9844 38.9249Z" fill="#2166F3" stroke="#2166F3"/>
</g>
<defs>
<clipPath id="clip0_681_466">
<rect width="60" height="60" fill="white" transform="translate(0.453125 0.019043)"/>
</clipPath>
</defs>
</svg>
