<svg width="80" height="80" viewBox="0 0 80 80" fill="none" xmlns="http://www.w3.org/2000/svg">
<path d="M6.66663 40.0001C6.66663 24.2867 6.66663 16.4301 11.5466 11.5467C16.4333 6.66675 24.2866 6.66675 40 6.66675C55.7133 6.66675 63.57 6.66675 68.45 11.5467C73.3333 16.4334 73.3333 24.2867 73.3333 40.0001C73.3333 55.7134 73.3333 63.5701 68.45 68.4501C63.5733 73.3334 55.7133 73.3334 40 73.3334C24.2866 73.3334 16.43 73.3334 11.5466 68.4501C6.66663 63.5734 6.66663 55.7134 6.66663 40.0001Z" stroke="#2166F3" stroke-width="5"/>
<path d="M56.6666 50.0002H39.9999M23.3333 33.3335L24.1133 33.9835C28.3866 37.5435 30.5233 39.3235 30.5233 41.6668C30.5233 44.0102 28.3899 45.7902 24.1133 49.3502L23.3333 50.0002" stroke="#2166F3" stroke-width="5" stroke-linecap="round"/>
</svg>
