<svg width="50" height="50" viewBox="0 0 50 50" fill="none" xmlns="http://www.w3.org/2000/svg">
<path d="M25 2C12.3181 2 2 12.3176 2 25C2 37.6824 12.3181 48 25 48C37.6824 48 48 37.6824 48 25C48 12.3176 37.6819 2 25 2ZM25 44.6424C14.1693 44.6424 5.35764 35.8307 5.35764 25C5.35764 14.1693 14.1693 5.35764 25 5.35764C35.8307 5.35764 44.6424 14.1692 44.6424 24.9995C44.6424 35.8307 35.8307 44.6424 25 44.6424Z" fill="black"/>
<path d="M32.8337 24.9999H25.5588V14.9269C25.5588 13.9996 24.8073 13.248 23.88 13.248C22.9527 13.248 22.2012 13.9996 22.2012 14.9269V26.6787C22.2012 27.606 22.9527 28.3575 23.88 28.3575H32.8337C33.761 28.3575 34.5126 27.606 34.5126 26.6787C34.5126 25.7514 33.761 24.9999 32.8337 24.9999Z" fill="black"/>
</svg>
