<svg width="50" height="50" viewBox="0 0 50 50" fill="none" xmlns="http://www.w3.org/2000/svg">
<g clip-path="url(#clip0_137_65)">
<path d="M21.0636 43.1474H20.9878L20.9018 42.8043C20.4745 41.1017 20.0326 39.3413 19.6239 37.6061C18.9935 34.9289 18.3473 33.2204 14.7575 32.202L11.2874 29.7095C10.7116 29.296 10.0077 29.1306 9.30461 29.243L6.99337 23.7875C5.42834 20.0933 3.39455 20.5248 2.80861 20.7452C1.36564 21.2876 0.51857 23.1994 1.03156 24.7562C1.03156 24.7562 4.03996 33.8885 4.07199 33.9868C4.55314 35.4635 5.15187 37.3012 6.5298 38.2483L10.5466 41.0089C10.9947 41.3169 11.262 41.7067 11.3879 42.2357L11.6046 43.1469H11.1518C10.7107 43.1469 10.2972 43.3176 9.98742 43.6276C9.67765 43.9377 9.50724 44.3514 9.50773 44.7926L9.50998 47.2291C9.51086 48.1347 10.2484 48.8715 11.1539 48.8715L21.0658 48.8722C21.5069 48.8722 21.9204 48.7015 22.2302 48.3914C22.54 48.0813 22.7104 47.6677 22.7099 47.2265L22.7075 44.79C22.7067 43.8842 21.9693 43.1474 21.0636 43.1474ZM12.718 41.9191C12.5147 41.0647 12.0447 40.3793 11.321 39.882L7.30422 37.1215C6.30822 36.4369 5.78908 34.8435 5.37189 33.5631C5.33937 33.4633 2.33009 24.3283 2.33009 24.3283C2.02336 23.3973 2.60129 22.2836 3.28966 22.0249C4.08478 21.7259 4.99904 22.5844 5.73459 24.3207L8.05343 29.7941C7.86368 29.9464 7.6956 30.1238 7.55382 30.3215C7.1382 30.9001 6.97306 31.608 7.08898 32.3147C7.2049 33.0215 7.58732 33.6395 8.16584 34.0552L12.9082 37.4617C13.0555 37.5675 13.2387 37.6104 13.4177 37.5811C13.5966 37.5517 13.7565 37.4525 13.8623 37.3053C13.9681 37.158 14.011 36.9747 13.9817 36.7958C13.9524 36.6169 13.8531 36.4569 13.7059 36.3512L8.96349 32.9446C8.68146 32.7421 8.49494 32.4397 8.4381 32.0934C8.38127 31.747 8.46154 31.401 8.66408 31.1189C8.86671 30.8369 9.16896 30.6503 9.51535 30.5935C9.86173 30.5366 10.2077 30.617 10.4898 30.8196L14.0583 33.3829C14.1242 33.4302 14.198 33.4654 14.2762 33.4868C17.3198 34.3223 17.727 35.515 18.2932 37.9192C18.7041 39.6641 19.1472 41.4295 19.5757 43.1368L19.5782 43.147L13.0099 43.1466L12.718 41.9191ZM21.263 47.4248C21.2372 47.4507 21.2064 47.4711 21.1726 47.4848C21.1387 47.4985 21.1024 47.5053 21.0658 47.5047L11.1539 47.504C11.0806 47.5039 11.0103 47.4747 10.9584 47.4229C10.9065 47.3711 10.8773 47.3008 10.8772 47.2274L10.8749 44.7909C10.8743 44.7544 10.881 44.7181 10.8947 44.6842C10.9084 44.6503 10.9288 44.6195 10.9546 44.5936C10.9804 44.5678 11.0112 44.5474 11.0451 44.5336C11.0789 44.5199 11.1152 44.5131 11.1518 44.5138L20.4525 44.5143L20.4541 44.5144L20.4564 44.5143H21.0637C21.137 44.5145 21.2073 44.5436 21.2592 44.5955C21.3111 44.6473 21.3403 44.7176 21.3404 44.7909L21.3428 47.2274C21.3428 47.3246 21.2993 47.3884 21.263 47.4248ZM47.1931 20.7451C46.6067 20.5249 44.5731 20.0936 43.0082 23.7874L40.697 29.2429C39.9938 29.1305 39.29 29.2958 38.7142 29.7094L35.2441 32.2019C31.6542 33.2203 31.0081 34.9288 30.3777 37.606C29.9698 39.3375 29.5289 41.0945 29.1025 42.7934L29.0137 43.1472H28.938C28.0323 43.1472 27.2948 43.884 27.2941 44.7895L27.2917 47.2262C27.2913 47.6673 27.4617 48.0809 27.7715 48.391C28.0813 48.7011 28.4947 48.8718 28.9365 48.8718L38.8478 48.8711C39.7534 48.8711 40.4909 48.1343 40.4917 47.2287L40.4941 44.7922C40.4944 44.351 40.3241 43.9373 40.0144 43.6272C39.7046 43.3172 39.2911 43.1465 38.8499 43.1465H38.3971L38.6138 42.2353C38.7397 41.7062 39.0069 41.3164 39.4551 41.0085L43.4719 38.2479C44.8499 37.3009 45.4486 35.463 45.9298 33.9862C45.9617 33.8879 48.9701 24.7559 48.9701 24.7559C49.483 23.1993 48.6361 21.2875 47.1931 20.7451ZM38.8499 44.5139C38.8865 44.5132 38.9228 44.52 38.9567 44.5337C38.9906 44.5474 39.0214 44.5678 39.0472 44.5937C39.0731 44.6195 39.0934 44.6503 39.1071 44.6842C39.1208 44.7181 39.1275 44.7545 39.1269 44.791L39.1245 47.2276C39.1244 47.301 39.0952 47.3712 39.0433 47.4231C38.9914 47.4749 38.9211 47.504 38.8478 47.5041L28.936 47.5048C28.8994 47.5054 28.8631 47.4987 28.8292 47.4849C28.7953 47.4712 28.7645 47.4508 28.7387 47.425C28.7128 47.3991 28.6924 47.3683 28.6788 47.3344C28.6651 47.3005 28.6584 47.2642 28.659 47.2276L28.6613 44.791C28.6615 44.7177 28.6907 44.6474 28.7426 44.5956C28.7945 44.5438 28.8648 44.5146 28.9381 44.5145H29.5454L29.5477 44.5146L29.5493 44.5145L38.8499 44.5139ZM47.6715 24.3284C47.6715 24.3284 44.6622 33.4633 44.6298 33.563C44.2127 34.8434 43.6935 36.4369 42.6975 37.1215L38.6808 39.8819C37.957 40.3794 37.487 41.0647 37.2837 41.9191L36.9917 43.1468L30.4234 43.1472L30.4285 43.1264C30.8562 41.4225 31.2983 39.6608 31.7084 37.9195C32.2745 35.5153 32.6818 34.3226 35.7254 33.4871C35.8036 33.4657 35.8774 33.4305 35.9433 33.3832L39.5118 30.8199C39.7938 30.6173 40.1398 30.5369 40.4862 30.5938C40.8326 30.6506 41.1349 30.8372 41.3375 31.1192C41.5401 31.4013 41.6203 31.7473 41.5636 32.0936C41.5069 32.44 41.3202 32.7424 41.0382 32.9449L36.2958 36.3515C36.1485 36.4572 36.0493 36.6172 36.02 36.7961C35.9907 36.975 36.0336 37.1583 36.1394 37.3056C36.2451 37.4528 36.4051 37.552 36.584 37.5814C36.7629 37.6107 36.9462 37.5678 37.0935 37.462L41.8359 34.0555C42.4145 33.6398 42.7969 33.0217 42.9127 32.315C43.0286 31.6083 42.8635 30.9004 42.4479 30.3218C42.3061 30.1241 42.138 29.9467 41.9483 29.7944L44.2671 24.321C45.0027 22.5845 45.9166 21.7265 46.712 22.0252C47.4004 22.2836 47.9783 23.3973 47.6715 24.3284ZM27.7493 3.0329C27.8569 2.67109 28.2375 2.46533 28.5994 2.57245C31.6043 3.46572 34.1454 5.44374 35.7548 8.14199C37.1206 10.4319 37.7086 13.0634 37.4594 15.6805L38.9738 14.5678C39.2779 14.3439 39.7059 14.4097 39.9295 14.7139C39.9827 14.7862 40.021 14.8683 40.0425 14.9555C40.0639 15.0427 40.0679 15.1332 40.0543 15.2219C40.0408 15.3107 40.0098 15.3958 39.9633 15.4726C39.9168 15.5494 39.8557 15.6163 39.7833 15.6694L36.9172 17.7753C36.8449 17.8285 36.7628 17.8669 36.6756 17.8883C36.5884 17.9097 36.4978 17.9138 36.4091 17.9002C36.2299 17.8728 36.0689 17.7753 35.9615 17.6292L33.8557 14.7629C33.8025 14.6905 33.7641 14.6084 33.7427 14.5213C33.7213 14.4341 33.7173 14.3436 33.7309 14.2548C33.7444 14.1661 33.7753 14.0809 33.8218 14.0041C33.8684 13.9273 33.9295 13.8605 34.0019 13.8073C34.0742 13.7541 34.1563 13.7157 34.2435 13.6943C34.3307 13.6728 34.4212 13.6688 34.51 13.6824C34.5987 13.6959 34.6839 13.7268 34.7607 13.7734C34.8375 13.8199 34.9044 13.881 34.9575 13.9534L36.1011 15.5099C36.5639 10.3454 33.2934 5.39404 28.21 3.88281C28.1239 3.85729 28.0437 3.81506 27.9739 3.75852C27.9042 3.70199 27.8463 3.63226 27.8035 3.55333C27.7607 3.4744 27.7339 3.38781 27.7246 3.29851C27.7153 3.20921 27.7237 3.11895 27.7493 3.0329ZM33.6343 23.5462C31.3524 25.7074 28.3618 26.9195 25.2136 26.9593C22.552 26.9917 19.9892 26.1862 17.8524 24.6653L18.0587 26.5331C18.0774 26.7127 18.0244 26.8924 17.911 27.033C17.7977 27.1736 17.6334 27.2637 17.4539 27.2835C17.2744 27.3033 17.0944 27.2514 16.9531 27.1389C16.8118 27.0264 16.7208 26.8627 16.6998 26.6833L16.3092 23.1482C16.2893 22.968 16.3417 22.7873 16.4551 22.6458C16.5684 22.5043 16.7333 22.4136 16.9135 22.3936L20.4486 22.003C20.6275 21.9857 20.8061 22.0395 20.9456 22.1528C21.0851 22.2661 21.1744 22.4298 21.1942 22.6084C21.2139 22.7871 21.1625 22.9663 21.0511 23.1073C20.9397 23.2484 20.7772 23.3399 20.5988 23.362L18.6791 23.5741C22.9213 26.5594 28.839 26.2048 32.6942 22.5537C32.8263 22.4318 33.0011 22.3669 33.1807 22.373C33.3603 22.379 33.5303 22.4556 33.6539 22.5861C33.7775 22.7165 33.8448 22.8905 33.8411 23.0702C33.8374 23.2498 33.7631 23.4209 33.6343 23.5462ZM12.953 17.4196C12.2233 14.3665 12.667 11.1738 14.2025 8.42949C15.5027 6.10556 17.486 4.28408 19.8746 3.19257L18.154 2.43749C17.9917 2.36226 17.8653 2.22639 17.802 2.05903C17.7387 1.89168 17.7435 1.70617 17.8154 1.54233C17.8873 1.37848 18.0205 1.24934 18.1866 1.18262C18.3526 1.1159 18.5381 1.11691 18.7034 1.18544L21.9603 2.61474C22.1263 2.68764 22.2565 2.82348 22.3224 2.9924C22.3883 3.16132 22.3844 3.34948 22.3115 3.51552L20.8822 6.77236C20.8093 6.93834 20.6735 7.06859 20.5046 7.13446C20.3357 7.20033 20.1476 7.19643 19.9816 7.12363C19.8155 7.05073 19.6853 6.91489 19.6194 6.74597C19.5535 6.57705 19.5575 6.38888 19.6303 6.22284L20.4065 4.45419C15.7013 6.63544 13.049 11.9408 14.2826 17.1019C14.3067 17.2025 14.3076 17.3071 14.2854 17.408C14.2631 17.509 14.2183 17.6035 14.1543 17.6846C14.0902 17.7657 14.0086 17.8313 13.9156 17.8763C13.8226 17.9213 13.7205 17.9447 13.6172 17.9446C13.4636 17.9444 13.3146 17.8925 13.1941 17.7972C13.0737 17.702 12.9887 17.569 12.953 17.4196ZM24.6933 12.2491C21.7339 12.4401 19.3844 14.9069 19.3844 17.9135C19.3844 18.5767 19.7327 19.4954 21.3925 20.1064C22.372 20.4671 23.6753 20.6657 25.0623 20.6657C27.6816 20.6657 30.7403 19.9449 30.7403 17.9135C30.7403 14.9069 28.3908 12.4401 25.4317 12.2491C26.9077 12.0665 28.0543 10.8056 28.0543 9.28085C28.0543 7.63124 26.7121 6.28925 25.0624 6.28925C23.4126 6.28925 22.0705 7.63124 22.0705 9.28085C22.0705 10.8055 23.2171 12.0665 24.6933 12.2491ZM29.373 17.9135C29.373 18.5685 27.6027 19.2985 25.0622 19.2985C22.5218 19.2985 20.7515 18.5685 20.7515 17.9135C20.7515 15.5366 22.6854 13.6029 25.0624 13.6029C27.4393 13.6029 29.373 15.5366 29.373 17.9135ZM25.0624 7.65644C25.9582 7.65644 26.6871 8.38515 26.6871 9.28085C26.6871 10.1768 25.9583 10.9056 25.0624 10.9056C24.1665 10.9056 23.4377 10.1768 23.4377 9.28085C23.4377 8.38515 24.1666 7.65644 25.0624 7.65644Z" fill="#2166F3" stroke="#2166F3" stroke-width="0.5"/>
</g>
<defs>
<clipPath id="clip0_137_65">
<rect width="50" height="50" fill="white"/>
</clipPath>
</defs>
</svg>
