<svg width="52" height="52" viewBox="0 0 52 52" fill="none" xmlns="http://www.w3.org/2000/svg">
<path d="M48.8639 18.4425L44.6776 17.6053C44.4003 16.7219 44.0448 15.8637 43.6164 15.044L45.9847 11.4915C46.6844 10.4419 46.545 9.0329 45.6529 8.14071L43.858 6.34579C42.966 5.4537 41.5569 5.31396 40.5072 6.01396L36.9546 8.38231C36.1348 7.9539 35.2766 7.59833 34.3933 7.32108L33.556 3.13476C33.3087 1.89775 32.2136 1 30.9522 1H28.4136C27.1523 1 26.0571 1.89775 25.8097 3.13476L24.9724 7.32108C24.089 7.59833 23.2308 7.9539 22.4111 8.38231L18.8586 6.01396C17.809 5.31425 16.3997 5.45361 15.5078 6.3456L13.7128 8.14071C12.8209 9.0327 12.6814 10.4418 13.3811 11.4913L15.7495 15.0438C15.3211 15.8637 14.9655 16.7218 14.6883 17.6052L10.502 18.4424C9.26504 18.6898 8.36719 19.7848 8.36719 21.0464V23.5847C8.36719 24.8462 9.26494 25.9414 10.502 26.1887L13.2124 26.7307C13.64 26.8161 14.0559 26.5389 14.1413 26.1114C14.2267 25.6839 13.9495 25.2679 13.522 25.1825L10.8115 24.6405C10.3102 24.5404 9.94619 24.0963 9.94619 23.5849V21.0466C9.94619 20.5352 10.3102 20.0911 10.8115 19.9909L15.4643 19.0603C15.7558 19.002 15.9897 18.785 16.0698 18.4988C16.373 17.4148 16.8066 16.3687 17.3582 15.3894C17.5041 15.1304 17.4921 14.8114 17.3272 14.564L14.6949 10.6155C14.4112 10.19 14.4679 9.61864 14.8295 9.25721L16.6245 7.4621C16.9861 7.10048 17.5573 7.04403 17.9828 7.32772L21.9313 9.95995C22.1786 10.1249 22.4976 10.1368 22.7567 9.991C23.7361 9.43934 24.7822 9.00595 25.8661 8.70272C26.1523 8.62265 26.3692 8.38876 26.4276 8.09726L27.3582 3.44443C27.4585 2.94297 27.9024 2.579 28.4137 2.579H30.9523C31.4636 2.579 31.9077 2.94297 32.0079 3.44443L32.9384 8.09726C32.9967 8.38876 33.2137 8.62265 33.5 8.70272C34.5837 9.00595 35.6299 9.43934 36.6093 9.991C36.8684 10.1368 37.1874 10.1249 37.4347 9.95995L41.3833 7.32763C41.8088 7.04394 42.3801 7.10038 42.7416 7.4622L44.5366 9.25712C44.8983 9.61884 44.9547 10.19 44.6711 10.6155L42.0388 14.564C41.8739 14.8114 41.8619 15.1304 42.0079 15.3894C42.5594 16.3687 42.9929 17.4148 43.2962 18.4988C43.3763 18.785 43.6103 19.0019 43.9017 19.0603L48.5545 19.9909C49.056 20.0911 49.4199 20.5352 49.4199 21.0466V23.5849C49.4199 24.0963 49.0559 24.5404 48.5545 24.6406L43.9017 25.5712C43.6103 25.6295 43.3763 25.8464 43.2962 26.1326C42.993 27.2164 42.5595 28.2625 42.0079 29.242C41.862 29.501 41.874 29.82 42.0388 30.0673L44.6711 34.0159C44.9548 34.4414 44.8982 35.0127 44.5366 35.3742L42.7415 37.1693C42.3799 37.5309 41.8088 37.5873 41.3833 37.3037L37.4347 34.6714C37.072 34.4295 36.5818 34.5275 36.34 34.8904C36.0981 35.2531 36.1962 35.7433 36.5589 35.9851L40.5075 38.6174C40.9549 38.9158 41.4675 39.0616 41.9779 39.0616C42.6644 39.0616 43.3465 38.7975 43.8582 38.2858L45.6532 36.4907C46.5451 35.5987 46.6845 34.1896 45.9848 33.1401L43.6165 29.5876C44.0449 28.7676 44.4004 27.9095 44.6777 27.0262L48.864 26.1891C50.1009 25.9417 50.9988 24.8465 50.9988 23.5851V21.0467C50.9987 19.785 50.1009 18.69 48.8639 18.4425Z" fill="#2166F3" stroke="#2166F3" stroke-width="0.5"/>
<path d="M32.3158 28.3684H24.9473C24.5113 28.3684 24.1579 28.7218 24.1579 29.1579C24.1579 29.594 24.5114 29.9473 24.9473 29.9473H32.3158C33.0414 29.9473 33.6316 30.5376 33.6316 31.2632V32.3158C33.6316 33.0414 33.0414 33.6316 32.3158 33.6316H24.9473C24.5113 33.6316 24.1579 33.985 24.1579 34.4211C24.1579 34.8572 24.5114 35.2105 24.9473 35.2105H32.3158C33.0414 35.2105 33.6316 35.8008 33.6316 36.5263V37.579C33.6316 38.3046 33.0414 38.8948 32.3158 38.8948H24.9473C24.5113 38.8948 24.1579 39.2481 24.1579 39.6842C24.1579 40.1204 24.5114 40.4737 24.9473 40.4737H32.3158C33.0414 40.4737 33.6316 41.0639 33.6316 41.7895V42.8422C33.6316 43.5677 33.0414 44.158 32.3158 44.158H24.9473C24.5113 44.158 24.1579 44.5113 24.1579 44.9474C24.1579 45.3836 24.5114 45.7369 24.9473 45.7369H32.3158C33.0414 45.7369 33.6316 46.3271 33.6316 47.0527V48.1053C33.6316 48.8309 33.0414 49.4211 32.3158 49.4211H18.015C17.2685 49.4211 16.566 49.1311 16.0369 48.6047C15.2016 47.7737 14.0991 47.3159 12.9324 47.3159H11V38.6317C11 38.1956 10.6465 37.8423 10.2105 37.8423C9.7746 37.8423 9.42108 38.1956 9.42108 38.6317V49.158C9.42108 49.3031 9.30301 49.4211 9.1579 49.4211H6.78944V38.6315C6.78944 38.1954 6.43593 37.8421 5.99999 37.8421C5.56406 37.8421 5.21054 38.1954 5.21054 38.6315V49.421H2.84209C2.69707 49.421 2.5789 49.303 2.5789 49.1578V31.2632C2.5789 31.118 2.69697 31 2.84209 31H9.1579C9.30292 31 9.42108 31.1179 9.42108 31.2632V35.4737C9.42108 35.9098 9.7746 36.2632 10.2105 36.2632C10.6465 36.2632 11 35.9098 11 35.4737V33.1053H12.9035C14.1513 33.1053 15.255 32.3097 15.6497 31.126L15.9435 30.2439C16.8541 27.513 17.3157 24.6684 17.3157 21.7894C17.3157 21.0639 17.9059 20.4736 18.6315 20.4736C19.2642 20.4736 19.859 20.72 20.3063 21.1674C20.7537 21.6147 21 22.2095 21 22.8422V31.263C21 31.699 21.3535 32.0524 21.7894 32.0524C22.2255 32.0524 22.5789 31.6991 22.5789 31.263V22.8422C22.5789 21.7878 22.1683 20.7964 21.4227 20.0508C20.6771 19.3052 19.6858 18.8945 18.6313 18.8945C17.0351 18.8945 15.7366 20.1932 15.7366 21.7893C15.7366 24.4982 15.3022 27.1747 14.4455 29.7444L14.1514 30.6264C13.9721 31.1645 13.4705 31.5262 12.9032 31.5262H11V31.263C11 30.2472 10.1735 29.4209 9.1579 29.4209H2.84209C1.82646 29.4211 1 30.2474 1 31.2632V49.1579C1 50.1735 1.82646 51 2.84209 51H9.1579C10.1736 51 11 50.1735 11 49.1579V48.8947H12.9323C13.6788 48.8947 14.3858 49.1892 14.9231 49.7239C15.7502 50.5467 16.8482 51 18.0149 51H32.3158C33.912 51 35.2105 49.7013 35.2105 48.1052V47.0526C35.2105 46.224 34.8605 45.4755 34.3006 44.9473C34.8605 44.4191 35.2105 43.6707 35.2105 42.8421V41.7894C35.2105 40.9608 34.8605 40.2124 34.3006 39.6841C34.8605 39.1559 35.2105 38.4075 35.2105 37.5789V36.5262C35.2105 35.6976 34.8605 34.9492 34.3006 34.421C34.8605 33.8927 35.2105 33.1443 35.2105 32.3157V31.2631C35.2105 29.6671 33.912 28.3684 32.3158 28.3684Z" fill="#2166F3" stroke="#2166F3" stroke-width="0.5"/>
<path d="M29.6812 26.3688C29.8881 26.3688 30.0977 26.3529 30.3084 26.32C32.5162 25.9752 34.0319 23.8988 33.6873 21.6912C33.3428 19.4834 31.2658 17.9673 29.0586 18.3121C26.8508 18.6568 25.3351 20.7333 25.6797 22.9409C25.9914 24.9378 27.7201 26.3687 29.6812 26.3688ZM29.3022 19.872C30.6498 19.6628 31.9171 20.587 32.1275 21.9344C32.3378 23.282 31.4126 24.5494 30.0652 24.7598C28.7177 24.9702 27.4502 24.0449 27.2399 22.6974C27.0295 21.3499 27.9547 20.0825 29.3022 19.872Z" fill="#2166F3" stroke="#2166F3" stroke-width="0.5"/>
<path d="M36.8227 29.9475C37.0306 29.9475 37.2381 29.866 37.3931 29.704C39.7156 27.2772 40.7508 23.9843 40.2334 20.6694C39.9705 18.9854 39.3342 17.4357 38.3417 16.0637C38.0862 15.7105 37.5928 15.631 37.2392 15.8866C36.886 16.1422 36.8067 16.6356 37.0622 16.9891C37.9071 18.1574 38.4492 19.4776 38.6732 20.9129C39.114 23.7376 38.2317 26.5439 36.2523 28.6124C35.9509 28.9273 35.9618 29.4271 36.2768 29.7286C36.43 29.8749 36.6265 29.9475 36.8227 29.9475Z" fill="#2166F3" stroke="#2166F3" stroke-width="0.5"/>
</svg>
