<svg width="72" height="72" viewBox="0 0 72 72" fill="none" xmlns="http://www.w3.org/2000/svg">
<path d="M38.0587 17.4702H33.9411V33.9408H21.5881V38.0585H38.0587V17.4702Z" fill="#2166F3"/>
<path d="M72 36C72 16.6564 55.3462 0 36 0C16.6564 0 0 16.6536 0 36C0 55.3436 16.6536 72 36 72C39.5215 72 43.1709 71.0253 46.5 70C48.6943 70.9928 50.9392 71 53.5 71C63.1496 71 71 63.1496 71 53.5C71 50.9392 70.9928 48.1942 70 46C71.0252 42.6709 72 39.5217 72 36ZM36 66.8824C31.1154 66.8824 26.4929 65.7407 22.3828 63.7129L24.4006 60.2179L20.8347 58.1591L18.8194 61.6498C15.4763 59.4023 12.601 56.5274 10.3528 53.1847L13.8504 51.1654L11.7915 47.5995L8.2892 49.6216C6.54757 46.0925 5.46092 42.1854 5.18792 38.0588H11.2941V33.9412H5.18792C5.46092 29.8147 6.54757 25.9075 8.28947 22.3785L11.7918 24.4006L13.8506 20.8347L10.3531 18.8154C12.6001 15.4739 15.474 12.6 18.8155 10.353L20.8348 13.8505L24.4007 11.7917L22.3787 8.28933C25.9076 6.54757 29.8149 5.46092 33.9413 5.18792V11.2941H38.059V5.18792C42.1855 5.46092 46.0926 6.54757 49.6216 8.28933L47.5994 11.7917L51.1653 13.8505L53.1846 10.353C56.5261 12.6 59.4 15.4739 61.6469 18.8154L58.1495 20.8347L60.2083 24.4006L63.7107 22.3785C65.7398 26.4897 66.8824 31.1136 66.8824 36C66.8824 37.9092 66.708 39.7974 66.3655 41.6505C63.1655 38.1788 58.5827 36 53.5 36C43.8504 36 36 43.8504 36 53.5C36 58.5827 38.1788 63.1655 41.6505 66.3655C39.7867 66.7098 37.8953 66.8828 36 66.8824ZM53.5 66.8824C46.1209 66.8824 40.1176 60.8791 40.1176 53.5C40.1176 46.1209 46.1209 40.1176 53.5 40.1176C60.8791 40.1176 66.8824 46.1209 66.8824 53.5C66.8824 60.8791 60.8791 66.8824 53.5 66.8824Z" fill="#2166F3"/>
<path d="M51.4398 53.5882L51.4398 62.2061L55.5575 62.2061L55.5575 53.5882L58.2194 56.25L61.1309 53.3386L53.4987 45.7062L45.8665 53.3386L48.7779 56.25L51.4398 53.5882Z" fill="#2166F3"/>
</svg>
