<svg width="58" height="58" viewBox="0 0 58 58" fill="none" xmlns="http://www.w3.org/2000/svg">
<path d="M44.7096 54.9792H13.293C10.8902 54.9766 8.58663 54.021 6.88764 52.322C5.18865 50.623 4.23303 48.3194 4.23047 45.9167V21.75C4.23303 19.3473 5.18865 17.0437 6.88764 15.3447C8.58663 13.6457 10.8902 12.6901 13.293 12.6875H44.7096C47.1124 12.6901 49.416 13.6457 51.115 15.3447C52.814 17.0437 53.7696 19.3473 53.7721 21.75V45.9167C53.7696 48.3194 52.814 50.623 51.115 52.322C49.416 54.021 47.1124 54.9766 44.7096 54.9792ZM13.293 16.3125C11.8512 16.3138 10.4689 16.8871 9.44949 17.9065C8.43004 18.926 7.85675 20.3083 7.85547 21.75V45.9167C7.85675 47.3584 8.43004 48.7407 9.44949 49.7601C10.4689 50.7796 11.8512 51.3529 13.293 51.3542H44.7096C46.1514 51.3529 47.5337 50.7796 48.5531 49.7601C49.5726 48.7407 50.1459 47.3584 50.1471 45.9167V21.75C50.1459 20.3083 49.5726 18.926 48.5531 17.9065C47.5337 16.8871 46.1514 16.3138 44.7096 16.3125H13.293Z" fill="#111111"/>
<path d="M26.5837 42.3089C26.028 42.3093 25.4777 42.2 24.9643 41.9874C24.4509 41.7749 23.9845 41.4631 23.5917 41.0701C23.1988 40.6771 22.8874 40.2104 22.6751 39.6969C22.4628 39.1834 22.3539 38.633 22.3545 38.0774V29.5876C22.3546 28.8666 22.5389 28.1577 22.89 27.528C23.2412 26.8983 23.7474 26.3689 24.3608 25.9899C24.9741 25.611 25.6742 25.3951 26.3944 25.3628C27.1146 25.3306 27.8312 25.483 28.4759 25.8055L35.7525 29.445C36.415 29.7762 36.979 30.2755 37.3879 30.893C37.7968 31.5106 38.0364 32.2247 38.0826 32.9639C38.1289 33.7031 37.9802 34.4415 37.6514 35.1052C37.3227 35.7689 36.8254 36.3346 36.2093 36.7458L28.9303 41.596C28.2357 42.0604 27.4192 42.3084 26.5837 42.3089ZM26.5837 28.981C26.4717 28.9816 26.362 29.0134 26.2671 29.0729C26.1782 29.1259 26.1048 29.2014 26.0544 29.2917C26.0039 29.3821 25.9781 29.4841 25.9795 29.5876V38.0774C25.9768 38.1874 26.0053 38.296 26.0617 38.3906C26.1182 38.4851 26.2003 38.5617 26.2985 38.6114C26.3941 38.6666 26.5035 38.6929 26.6137 38.6874C26.7239 38.6818 26.8301 38.6445 26.9196 38.58L34.1962 33.7298C34.2839 33.6709 34.3547 33.59 34.4016 33.4953C34.4485 33.4006 34.4698 33.2953 34.4635 33.1898C34.4571 33.0843 34.4233 32.9823 34.3654 32.8939C34.3075 32.8055 34.2275 32.7338 34.1334 32.6858L26.8544 29.0487C26.7706 29.0056 26.6779 28.9824 26.5837 28.981ZM29.0004 16.3129C28.7623 16.3134 28.5265 16.2668 28.3066 16.1755C28.0868 16.0842 27.8872 15.9502 27.7195 15.7812L18.0529 6.11453C17.7327 5.77094 17.5584 5.31649 17.5667 4.84693C17.575 4.37737 17.7652 3.92936 18.0973 3.59728C18.4294 3.26519 18.8774 3.07497 19.3469 3.06669C19.8165 3.0584 20.2709 3.2327 20.6145 3.55286L29.0004 11.9363L37.3862 3.55286C37.7298 3.2327 38.1842 3.0584 38.6538 3.06669C39.1234 3.07497 39.5714 3.26519 39.9034 3.59728C40.2355 3.92936 40.4257 4.37737 40.434 4.84693C40.4423 5.31649 40.268 5.77094 39.9479 6.11453L30.2812 15.7812C30.1135 15.9502 29.914 16.0842 29.6941 16.1755C29.4742 16.2668 29.2384 16.3134 29.0004 16.3129Z" fill="#111111"/>
</svg>
