<svg width="58" height="58" viewBox="0 0 58 58" fill="none" xmlns="http://www.w3.org/2000/svg">
<g clip-path="url(#clip0_441_1858)">
<path d="M56.5063 11.1059L55.3047 9.90443L56.5063 8.70285C58.4937 6.71544 58.4937 3.48147 56.5062 1.49406C54.5188 -0.493356 51.2847 -0.493469 49.2973 1.49406L48.0957 2.69564L46.8941 1.49406C44.9067 -0.493356 41.6728 -0.493469 39.6854 1.49406L38.4838 2.69564L37.2823 1.49417C35.2901 -0.498 32.0657 -0.498114 30.0734 1.49417L25.2675 6.30003C24.6039 6.96364 24.6039 8.03936 25.2675 8.70297L33.6779 17.1133L17.1139 33.6776L8.70337 25.2672C8.03977 24.6036 6.96405 24.6036 6.30044 25.2672L1.49447 30.0731C-0.492834 32.0605 -0.492834 35.2945 1.49447 37.282L2.69605 38.4835L1.49447 39.6851C-0.492834 41.6725 -0.492834 44.9064 1.49447 46.8939L2.69605 48.0953L1.49447 49.297C-0.492947 51.2844 -0.492947 54.5184 1.49447 56.5058C3.48188 58.4932 6.71585 58.4933 8.70337 56.5058L9.90495 55.3042L11.1065 56.5058C13.0939 58.4933 16.328 58.4932 18.3153 56.5058L19.5169 55.3042L20.7185 56.5057C22.7107 58.498 25.9351 58.498 27.9274 56.5057L32.7333 51.6998C33.3969 51.0362 33.3969 49.9605 32.7333 49.2969L24.3229 40.8865L40.8872 24.3221L49.2975 32.7325C49.9611 33.3961 51.0369 33.3961 51.7005 32.7325L56.5064 27.9266C58.4937 25.9392 58.4937 22.7053 56.5064 20.7177L55.3049 19.5163L56.5064 18.3147C58.4937 16.3273 58.4937 13.0933 56.5063 11.1059ZM21.9197 33.6777L24.3227 36.0807L21.9197 38.4836L19.5168 36.0807L21.9197 33.6777ZM6.30056 54.1029C5.63797 54.7655 4.5601 54.7655 3.89751 54.1029C3.23493 53.4403 3.23493 52.3624 3.89751 51.6999L5.09909 50.4984L7.50202 52.9013L6.30056 54.1029ZM15.9124 54.1029C15.2498 54.7655 14.1719 54.7653 13.5095 54.1029L3.89751 44.4909C3.23493 43.8283 3.23493 42.7505 3.89751 42.088L5.09909 40.8864C5.62698 41.4145 16.5869 52.3744 17.1139 52.9014L15.9124 54.1029ZM29.1285 50.4985L25.5241 54.1029C24.8599 54.767 23.7854 54.767 23.1212 54.1029L3.8974 34.8792C3.23481 34.2166 3.23481 33.1387 3.8974 32.4763L7.50191 28.8718L29.1285 50.4985ZM51.7002 3.8971C52.3628 3.23452 53.4407 3.23463 54.1032 3.8971C54.7658 4.55969 54.7658 5.63756 54.1032 6.30003L52.9016 7.50161L50.4988 5.09857L51.7002 3.8971ZM42.0885 3.8971C42.7511 3.23452 43.829 3.23463 44.4914 3.8971L54.1033 13.5091C54.7659 14.1716 54.7659 15.2495 54.1033 15.912L52.9018 17.1135C52.3739 16.5853 41.4139 5.62533 40.887 5.09846L42.0885 3.8971ZM26.7257 33.6776L24.3228 31.2746L31.2752 24.322L33.6781 26.7251L26.7257 33.6776ZM36.0811 24.3222L33.6781 21.9193L36.0811 19.5164L38.484 21.9193L36.0811 24.3222ZM54.1034 25.5237L50.4989 29.1282L28.8723 7.5015L32.4767 3.89699C33.1408 3.23293 34.2154 3.23282 34.8796 3.89699L54.1034 23.1207C54.7659 23.7833 54.7659 24.8612 54.1034 25.5237Z" fill="#111111"/>
</g>
<defs>
<clipPath id="clip0_441_1858">
<rect width="58" height="58" fill="white"/>
</clipPath>
</defs>
</svg>
