<svg width="58" height="58" viewBox="0 0 58 58" fill="none" xmlns="http://www.w3.org/2000/svg">
<g clip-path="url(#clip0_441_1862)">
<path d="M29.0013 45.5797C38.1578 45.5797 45.5807 38.1568 45.5807 29.0003C45.5807 19.8437 38.1578 12.4209 29.0013 12.4209C19.8447 12.4209 12.4219 19.8437 12.4219 29.0003C12.4219 38.1568 19.8447 45.5797 29.0013 45.5797Z" stroke="#111111" stroke-width="3" stroke-miterlimit="10" stroke-linecap="round" stroke-linejoin="round"/>
<path d="M56.3008 33.4845V24.5155L51.8687 24.3153C51.264 21.3479 50.0951 18.5862 48.4809 16.1447L51.4756 12.8665L45.1335 6.52443L41.8553 9.51914C39.4138 7.90477 36.6521 6.73604 33.6847 6.13135L33.4845 1.69922H24.5155L24.3153 6.13135C21.3479 6.73604 18.5862 7.90488 16.1447 9.51914L12.8665 6.52443L6.52443 12.8665L9.51914 16.1447C7.90477 18.5862 6.73604 21.3479 6.13135 24.3153L1.69922 24.5155V33.4845L6.13135 33.6847C6.73604 36.6521 7.90488 39.4138 9.51914 41.8553L6.52443 45.1335L12.8664 51.4756L16.1446 48.4809C18.5861 50.0952 21.3477 51.264 24.3151 51.8687L24.5155 56.3008H33.4845L33.6847 51.8687C36.6521 51.264 39.4138 50.0951 41.8553 48.4809L45.1335 51.4756L51.4756 45.1335L48.4809 41.8553C50.0952 39.4138 51.264 36.6521 51.8687 33.6847L56.3008 33.4845Z" stroke="#111111" stroke-width="3" stroke-miterlimit="10" stroke-linecap="round" stroke-linejoin="round"/>
<path d="M32.397 45.1172V30.1323H38.2276L28.9986 19.2041L19.7695 30.1323H25.6001V45.1172" stroke="#111111" stroke-width="3" stroke-miterlimit="10" stroke-linecap="round" stroke-linejoin="round"/>
</g>
<defs>
<clipPath id="clip0_441_1862">
<rect width="58" height="58" fill="white"/>
</clipPath>
</defs>
</svg>
