<svg width="51" height="55" viewBox="0 0 51 55" fill="none" xmlns="http://www.w3.org/2000/svg">
<mask id="path-1-outside-1_348_141" maskUnits="userSpaceOnUse" x="12.2085" y="11.7084" width="26" height="26" fill="black">
<rect fill="white" x="12.2085" y="11.7084" width="26" height="26"/>
<path d="M15.6335 18.2584L16.9168 19.9084C16.4002 20.725 16.0002 21.6084 15.7335 22.5417L13.7585 22.7917C13.4418 22.8334 13.2085 23.1 13.2085 23.4084V26.5917C13.2085 26.9084 13.4418 27.175 13.7585 27.2084L15.5585 27.4334C15.7752 28.475 16.1502 29.475 16.6835 30.3917L15.6418 31.7334C15.4502 31.9834 15.4668 32.3334 15.6918 32.5584L17.9418 34.8084C18.1668 35.0334 18.5168 35.05 18.7668 34.8584L20.0085 33.8917C20.9668 34.5084 22.0085 34.9584 23.1085 35.225L23.3002 36.7334C23.3418 37.05 23.6085 37.2834 23.9168 37.2834H27.1002C27.4168 37.2834 27.6835 37.05 27.7168 36.7334L27.9085 35.225C29.0085 34.9584 30.0502 34.5084 31.0085 33.8917L32.2502 34.8584C32.5002 35.05 32.8502 35.0334 33.0752 34.8084L35.3252 32.5584C35.5502 32.3334 35.5668 31.9834 35.3752 31.7334L34.3335 30.3917C34.8585 29.4667 35.2418 28.475 35.4585 27.4334L37.2585 27.2084C37.5752 27.1667 37.8085 26.9 37.8085 26.5917V23.4084C37.8085 23.0917 37.5752 22.825 37.2585 22.7917L35.2835 22.5417C35.0168 21.6084 34.6168 20.725 34.1002 19.9084L35.3835 18.2584C35.5752 18.0084 35.5585 17.6584 35.3335 17.4334L33.0835 15.1834C32.9757 15.0759 32.8324 15.0115 32.6805 15.0023C32.5285 14.993 32.3785 15.0397 32.2585 15.1334L30.5002 16.5C29.7085 16.05 28.8668 15.7084 28.0085 15.4917L27.7335 13.2584C27.7147 13.1076 27.6419 12.9687 27.5285 12.8675C27.4151 12.7664 27.2688 12.7098 27.1168 12.7084H23.9335C23.6168 12.7084 23.3502 12.9417 23.3168 13.2584L23.0418 15.4917C22.1752 15.7084 21.3418 16.05 20.5502 16.5L18.7918 15.1334C18.6719 15.0397 18.5218 14.993 18.3699 15.0023C18.2179 15.0115 18.0746 15.0759 17.9668 15.1834L15.7168 17.4334C15.4585 17.6584 15.4418 18.0084 15.6335 18.2584ZM18.4252 16.4584L20.0835 17.75C20.2918 17.9084 20.5752 17.925 20.8002 17.7834C21.7085 17.2167 22.6918 16.825 23.7002 16.6167C23.9668 16.5667 24.1585 16.35 24.1918 16.0834L24.4585 13.9584H26.5335L26.8002 16.0834C26.8335 16.35 27.0335 16.5667 27.2918 16.6167C28.3085 16.825 29.2835 17.2167 30.1918 17.7834C30.4168 17.925 30.7002 17.9084 30.9085 17.75L32.5668 16.4584L34.0335 17.925L32.8085 19.5C32.7269 19.6057 32.6812 19.7347 32.6782 19.8681C32.6752 20.0016 32.715 20.1325 32.7918 20.2417C33.4335 21.15 33.8835 22.1667 34.1502 23.2584C34.2085 23.5084 34.4252 23.7 34.6835 23.7334L36.5335 23.9667V26.0417L34.8335 26.25C34.5585 26.2834 34.3418 26.5 34.2918 26.775C34.1002 27.9667 33.6752 29.0917 33.0335 30.1084C32.8918 30.3334 32.9085 30.6167 33.0668 30.825L34.0335 32.075L32.5668 33.5417L31.4002 32.6334C31.2945 32.5518 31.1655 32.5061 31.0321 32.5031C30.8986 32.5001 30.7677 32.5399 30.6585 32.6167C29.6168 33.3584 28.4585 33.8584 27.2085 34.1C26.9418 34.15 26.7418 34.3667 26.7085 34.6334L26.5335 36.0334H24.4585L24.2835 34.6334C24.2675 34.5029 24.2105 34.3809 24.1206 34.285C24.0307 34.1892 23.9127 34.1244 23.7835 34.1C22.5418 33.8584 21.3835 33.3584 20.3335 32.6167C20.2243 32.5399 20.0934 32.5001 19.9599 32.5031C19.8265 32.5061 19.6975 32.5518 19.5918 32.6334L18.4252 33.5417L16.9585 32.075L17.9252 30.825C18.0835 30.6167 18.1002 30.3334 17.9585 30.1084C17.3168 29.0917 16.8918 27.9667 16.7002 26.775C16.6776 26.6412 16.6129 26.5181 16.5155 26.4237C16.418 26.3292 16.2929 26.2684 16.1585 26.25L14.4502 26.0334V23.9584L16.3002 23.725C16.5585 23.6917 16.7668 23.5084 16.8335 23.25C17.1002 22.1584 17.5502 21.1417 18.1918 20.2334C18.2686 20.1242 18.3084 19.9933 18.3054 19.8598C18.3024 19.7263 18.2568 19.5973 18.1752 19.4917L16.9502 17.9167L18.4252 16.4584Z"/>
</mask>
<path d="M15.6335 18.2584L16.9168 19.9084C16.4002 20.725 16.0002 21.6084 15.7335 22.5417L13.7585 22.7917C13.4418 22.8334 13.2085 23.1 13.2085 23.4084V26.5917C13.2085 26.9084 13.4418 27.175 13.7585 27.2084L15.5585 27.4334C15.7752 28.475 16.1502 29.475 16.6835 30.3917L15.6418 31.7334C15.4502 31.9834 15.4668 32.3334 15.6918 32.5584L17.9418 34.8084C18.1668 35.0334 18.5168 35.05 18.7668 34.8584L20.0085 33.8917C20.9668 34.5084 22.0085 34.9584 23.1085 35.225L23.3002 36.7334C23.3418 37.05 23.6085 37.2834 23.9168 37.2834H27.1002C27.4168 37.2834 27.6835 37.05 27.7168 36.7334L27.9085 35.225C29.0085 34.9584 30.0502 34.5084 31.0085 33.8917L32.2502 34.8584C32.5002 35.05 32.8502 35.0334 33.0752 34.8084L35.3252 32.5584C35.5502 32.3334 35.5668 31.9834 35.3752 31.7334L34.3335 30.3917C34.8585 29.4667 35.2418 28.475 35.4585 27.4334L37.2585 27.2084C37.5752 27.1667 37.8085 26.9 37.8085 26.5917V23.4084C37.8085 23.0917 37.5752 22.825 37.2585 22.7917L35.2835 22.5417C35.0168 21.6084 34.6168 20.725 34.1002 19.9084L35.3835 18.2584C35.5752 18.0084 35.5585 17.6584 35.3335 17.4334L33.0835 15.1834C32.9757 15.0759 32.8324 15.0115 32.6805 15.0023C32.5285 14.993 32.3785 15.0397 32.2585 15.1334L30.5002 16.5C29.7085 16.05 28.8668 15.7084 28.0085 15.4917L27.7335 13.2584C27.7147 13.1076 27.6419 12.9687 27.5285 12.8675C27.4151 12.7664 27.2688 12.7098 27.1168 12.7084H23.9335C23.6168 12.7084 23.3502 12.9417 23.3168 13.2584L23.0418 15.4917C22.1752 15.7084 21.3418 16.05 20.5502 16.5L18.7918 15.1334C18.6719 15.0397 18.5218 14.993 18.3699 15.0023C18.2179 15.0115 18.0746 15.0759 17.9668 15.1834L15.7168 17.4334C15.4585 17.6584 15.4418 18.0084 15.6335 18.2584ZM18.4252 16.4584L20.0835 17.75C20.2918 17.9084 20.5752 17.925 20.8002 17.7834C21.7085 17.2167 22.6918 16.825 23.7002 16.6167C23.9668 16.5667 24.1585 16.35 24.1918 16.0834L24.4585 13.9584H26.5335L26.8002 16.0834C26.8335 16.35 27.0335 16.5667 27.2918 16.6167C28.3085 16.825 29.2835 17.2167 30.1918 17.7834C30.4168 17.925 30.7002 17.9084 30.9085 17.75L32.5668 16.4584L34.0335 17.925L32.8085 19.5C32.7269 19.6057 32.6812 19.7347 32.6782 19.8681C32.6752 20.0016 32.715 20.1325 32.7918 20.2417C33.4335 21.15 33.8835 22.1667 34.1502 23.2584C34.2085 23.5084 34.4252 23.7 34.6835 23.7334L36.5335 23.9667V26.0417L34.8335 26.25C34.5585 26.2834 34.3418 26.5 34.2918 26.775C34.1002 27.9667 33.6752 29.0917 33.0335 30.1084C32.8918 30.3334 32.9085 30.6167 33.0668 30.825L34.0335 32.075L32.5668 33.5417L31.4002 32.6334C31.2945 32.5518 31.1655 32.5061 31.0321 32.5031C30.8986 32.5001 30.7677 32.5399 30.6585 32.6167C29.6168 33.3584 28.4585 33.8584 27.2085 34.1C26.9418 34.15 26.7418 34.3667 26.7085 34.6334L26.5335 36.0334H24.4585L24.2835 34.6334C24.2675 34.5029 24.2105 34.3809 24.1206 34.285C24.0307 34.1892 23.9127 34.1244 23.7835 34.1C22.5418 33.8584 21.3835 33.3584 20.3335 32.6167C20.2243 32.5399 20.0934 32.5001 19.9599 32.5031C19.8265 32.5061 19.6975 32.5518 19.5918 32.6334L18.4252 33.5417L16.9585 32.075L17.9252 30.825C18.0835 30.6167 18.1002 30.3334 17.9585 30.1084C17.3168 29.0917 16.8918 27.9667 16.7002 26.775C16.6776 26.6412 16.6129 26.5181 16.5155 26.4237C16.418 26.3292 16.2929 26.2684 16.1585 26.25L14.4502 26.0334V23.9584L16.3002 23.725C16.5585 23.6917 16.7668 23.5084 16.8335 23.25C17.1002 22.1584 17.5502 21.1417 18.1918 20.2334C18.2686 20.1242 18.3084 19.9933 18.3054 19.8598C18.3024 19.7263 18.2568 19.5973 18.1752 19.4917L16.9502 17.9167L18.4252 16.4584Z" fill="#2166F3"/>
<path d="M15.6335 18.2584L16.9168 19.9084C16.4002 20.725 16.0002 21.6084 15.7335 22.5417L13.7585 22.7917C13.4418 22.8334 13.2085 23.1 13.2085 23.4084V26.5917C13.2085 26.9084 13.4418 27.175 13.7585 27.2084L15.5585 27.4334C15.7752 28.475 16.1502 29.475 16.6835 30.3917L15.6418 31.7334C15.4502 31.9834 15.4668 32.3334 15.6918 32.5584L17.9418 34.8084C18.1668 35.0334 18.5168 35.05 18.7668 34.8584L20.0085 33.8917C20.9668 34.5084 22.0085 34.9584 23.1085 35.225L23.3002 36.7334C23.3418 37.05 23.6085 37.2834 23.9168 37.2834H27.1002C27.4168 37.2834 27.6835 37.05 27.7168 36.7334L27.9085 35.225C29.0085 34.9584 30.0502 34.5084 31.0085 33.8917L32.2502 34.8584C32.5002 35.05 32.8502 35.0334 33.0752 34.8084L35.3252 32.5584C35.5502 32.3334 35.5668 31.9834 35.3752 31.7334L34.3335 30.3917C34.8585 29.4667 35.2418 28.475 35.4585 27.4334L37.2585 27.2084C37.5752 27.1667 37.8085 26.9 37.8085 26.5917V23.4084C37.8085 23.0917 37.5752 22.825 37.2585 22.7917L35.2835 22.5417C35.0168 21.6084 34.6168 20.725 34.1002 19.9084L35.3835 18.2584C35.5752 18.0084 35.5585 17.6584 35.3335 17.4334L33.0835 15.1834C32.9757 15.0759 32.8324 15.0115 32.6805 15.0023C32.5285 14.993 32.3785 15.0397 32.2585 15.1334L30.5002 16.5C29.7085 16.05 28.8668 15.7084 28.0085 15.4917L27.7335 13.2584C27.7147 13.1076 27.6419 12.9687 27.5285 12.8675C27.4151 12.7664 27.2688 12.7098 27.1168 12.7084H23.9335C23.6168 12.7084 23.3502 12.9417 23.3168 13.2584L23.0418 15.4917C22.1752 15.7084 21.3418 16.05 20.5502 16.5L18.7918 15.1334C18.6719 15.0397 18.5218 14.993 18.3699 15.0023C18.2179 15.0115 18.0746 15.0759 17.9668 15.1834L15.7168 17.4334C15.4585 17.6584 15.4418 18.0084 15.6335 18.2584ZM18.4252 16.4584L20.0835 17.75C20.2918 17.9084 20.5752 17.925 20.8002 17.7834C21.7085 17.2167 22.6918 16.825 23.7002 16.6167C23.9668 16.5667 24.1585 16.35 24.1918 16.0834L24.4585 13.9584H26.5335L26.8002 16.0834C26.8335 16.35 27.0335 16.5667 27.2918 16.6167C28.3085 16.825 29.2835 17.2167 30.1918 17.7834C30.4168 17.925 30.7002 17.9084 30.9085 17.75L32.5668 16.4584L34.0335 17.925L32.8085 19.5C32.7269 19.6057 32.6812 19.7347 32.6782 19.8681C32.6752 20.0016 32.715 20.1325 32.7918 20.2417C33.4335 21.15 33.8835 22.1667 34.1502 23.2584C34.2085 23.5084 34.4252 23.7 34.6835 23.7334L36.5335 23.9667V26.0417L34.8335 26.25C34.5585 26.2834 34.3418 26.5 34.2918 26.775C34.1002 27.9667 33.6752 29.0917 33.0335 30.1084C32.8918 30.3334 32.9085 30.6167 33.0668 30.825L34.0335 32.075L32.5668 33.5417L31.4002 32.6334C31.2945 32.5518 31.1655 32.5061 31.0321 32.5031C30.8986 32.5001 30.7677 32.5399 30.6585 32.6167C29.6168 33.3584 28.4585 33.8584 27.2085 34.1C26.9418 34.15 26.7418 34.3667 26.7085 34.6334L26.5335 36.0334H24.4585L24.2835 34.6334C24.2675 34.5029 24.2105 34.3809 24.1206 34.285C24.0307 34.1892 23.9127 34.1244 23.7835 34.1C22.5418 33.8584 21.3835 33.3584 20.3335 32.6167C20.2243 32.5399 20.0934 32.5001 19.9599 32.5031C19.8265 32.5061 19.6975 32.5518 19.5918 32.6334L18.4252 33.5417L16.9585 32.075L17.9252 30.825C18.0835 30.6167 18.1002 30.3334 17.9585 30.1084C17.3168 29.0917 16.8918 27.9667 16.7002 26.775C16.6776 26.6412 16.6129 26.5181 16.5155 26.4237C16.418 26.3292 16.2929 26.2684 16.1585 26.25L14.4502 26.0334V23.9584L16.3002 23.725C16.5585 23.6917 16.7668 23.5084 16.8335 23.25C17.1002 22.1584 17.5502 21.1417 18.1918 20.2334C18.2686 20.1242 18.3084 19.9933 18.3054 19.8598C18.3024 19.7263 18.2568 19.5973 18.1752 19.4917L16.9502 17.9167L18.4252 16.4584Z" stroke="#2166F3" stroke-width="0.4" mask="url(#path-1-outside-1_348_141)"/>
<path d="M25.5003 31.025C28.6305 31.025 31.1753 28.4803 31.1753 25.35C31.1753 22.2198 28.6305 19.675 25.5003 19.675C22.3701 19.675 19.8253 22.2198 19.8253 25.35C19.8253 28.4803 22.3701 31.025 25.5003 31.025ZM25.5003 21.125C27.8284 21.125 29.7253 23.0219 29.7253 25.35C29.7253 27.6781 27.8284 29.575 25.5003 29.575C23.1722 29.575 21.2753 27.6781 21.2753 25.35C21.2753 23.0219 23.1722 21.125 25.5003 21.125ZM34.692 14.8917C35.0889 14.8917 35.417 14.5636 35.417 14.1667V9.05837H38.1948C38.5256 10.4888 39.8049 11.5584 41.3336 11.5584C43.1139 11.5584 44.5586 10.1136 44.5586 8.33337C44.5586 6.55315 43.1139 5.10837 41.3336 5.10837C39.8055 5.10837 38.5177 6.17739 38.1943 7.60837H34.692C34.2951 7.60837 33.967 7.93648 33.967 8.33337V14.1667C33.967 14.5627 34.2859 14.8917 34.692 14.8917ZM41.3336 6.55837C42.3117 6.55837 43.1086 7.35527 43.1086 8.33337C43.1086 9.31148 42.3117 10.1084 41.3336 10.1084C40.3555 10.1084 39.5586 9.31148 39.5586 8.33337C39.5586 7.35527 40.3555 6.55837 41.3336 6.55837Z" fill="#2166F3" stroke="#2166F3" stroke-width="0.2"/>
<path d="M47.1668 11.775C45.6387 11.775 44.3509 12.844 44.0275 14.275H41.3335C40.9366 14.275 40.6085 14.6031 40.6085 15V19.275H36.3252C35.9283 19.275 35.6002 19.6031 35.6002 20C35.6002 20.3969 35.9283 20.725 36.3252 20.725H40.6085V24.275H39.6668C39.2699 24.275 38.9418 24.6031 38.9418 25C38.9418 25.3969 39.2699 25.725 39.6668 25.725H41.3335C41.7304 25.725 42.0585 25.3969 42.0585 25V20.725H43.0002C44.4366 20.725 45.6085 21.8969 45.6085 23.3333V42.6083H5.39183V23.3333C5.39183 21.8969 6.56372 20.725 8.00016 20.725H8.94183V25C8.94183 25.3969 9.26993 25.725 9.66683 25.725H11.3335C11.7304 25.725 12.0585 25.3969 12.0585 25C12.0585 24.6031 11.7304 24.275 11.3335 24.275H10.3918V20.725H14.6752C15.0721 20.725 15.4002 20.3969 15.4002 20C15.4002 19.6031 15.0721 19.275 14.6752 19.275H10.3918V15C10.3918 14.6031 10.0637 14.275 9.66683 14.275H6.97237C6.6415 12.8446 5.36222 11.775 3.8335 11.775C2.05327 11.775 0.608496 13.2198 0.608496 15C0.608496 16.7802 2.05327 18.225 3.8335 18.225C5.36162 18.225 6.6494 17.156 6.97281 15.725H8.94183V19.275H8.00016C5.7616 19.275 3.94183 21.0948 3.94183 23.3333V45C3.94183 47.2386 5.7616 49.0583 8.00016 49.0583H17.2752V52.6083H14.6668C14.2699 52.6083 13.9418 52.9364 13.9418 53.3333C13.9418 53.7302 14.2699 54.0583 14.6668 54.0583H36.3335C36.7304 54.0583 37.0585 53.7302 37.0585 53.3333C37.0585 52.9364 36.7304 52.6083 36.3335 52.6083H33.7252V49.0583H43.0002C45.2387 49.0583 47.0585 47.2386 47.0585 45V23.3333C47.0585 21.0948 45.2387 19.275 43.0002 19.275H42.0585V15.725H44.028C44.3588 17.1554 45.6381 18.225 47.1668 18.225C48.9471 18.225 50.3918 16.7802 50.3918 15C50.3918 13.2198 48.9471 11.775 47.1668 11.775ZM3.8335 16.775C2.85539 16.775 2.0585 15.9781 2.0585 15C2.0585 14.0219 2.85539 13.225 3.8335 13.225C4.8116 13.225 5.6085 14.0219 5.6085 15C5.6085 15.9781 4.8116 16.775 3.8335 16.775ZM32.2752 52.6083H18.7252V49.0583H32.2752V52.6083ZM45.6085 45C45.6085 46.4364 44.4366 47.6083 43.0002 47.6083H8.00016C6.56372 47.6083 5.39183 46.4364 5.39183 45V44.0583H45.6085V45ZM47.1668 16.775C46.1887 16.775 45.3918 15.9781 45.3918 15C45.3918 14.0219 46.1887 13.225 47.1668 13.225C48.1449 13.225 48.9418 14.0219 48.9418 15C48.9418 15.9781 48.1449 16.775 47.1668 16.775Z" fill="#2166F3" stroke="#2166F3" stroke-width="0.2"/>
<path d="M9.66699 11.5584C11.1951 11.5584 12.4829 10.4893 12.8063 9.05835H15.5837V14.1667C15.5837 14.5636 15.9118 14.8917 16.3087 14.8917C16.7056 14.8917 17.0337 14.5636 17.0337 14.1667V8.33335C17.0337 7.93646 16.7056 7.60835 16.3087 7.60835H12.8059C12.475 6.17795 11.1957 5.10835 9.66699 5.10835C7.88676 5.10835 6.44199 6.55312 6.44199 8.33335C6.44199 10.1136 7.88676 11.5584 9.66699 11.5584ZM9.66699 6.55835C10.6451 6.55835 11.442 7.35525 11.442 8.33335C11.442 9.31146 10.6451 10.1084 9.66699 10.1084C8.68889 10.1084 7.89199 9.31146 7.89199 8.33335C7.89199 7.35525 8.68889 6.55835 9.66699 6.55835ZM22.2753 4.16669C22.2753 5.69481 23.3443 6.98259 24.7753 7.306V10.8334C24.7753 11.2302 25.1034 11.5584 25.5003 11.5584C25.8972 11.5584 26.2253 11.2302 26.2253 10.8334V7.30556C27.6557 6.97469 28.7253 5.69541 28.7253 4.16669C28.7253 2.38646 27.2806 0.941687 25.5003 0.941687C23.7201 0.941687 22.2753 2.38646 22.2753 4.16669ZM25.5003 2.39169C26.4784 2.39169 27.2753 3.18858 27.2753 4.16669C27.2753 5.14479 26.4784 5.94169 25.5003 5.94169C24.5222 5.94169 23.7253 5.14479 23.7253 4.16669C23.7253 3.18858 24.5222 2.39169 25.5003 2.39169Z" fill="#2166F3" stroke="#2166F3" stroke-width="0.2"/>
</svg>
