<svg width="55" height="55" viewBox="0 0 55 55" fill="none" xmlns="http://www.w3.org/2000/svg">
<path d="M47.5872 53.0001H26.999C26.609 53.0001 26.2349 52.8452 25.9591 52.5694C25.6833 52.2936 25.5284 51.9195 25.5284 51.5295V45.7472C24.5986 46.0204 23.618 46.0731 22.6643 45.9012C21.7106 45.7293 20.8101 45.3375 20.0343 44.7568C19.2585 44.1762 18.6287 43.4227 18.1948 42.5561C17.761 41.6896 17.5352 40.7339 17.5352 39.7648C17.5352 38.7957 17.761 37.84 18.1948 36.9735C18.6287 36.1069 19.2585 35.3535 20.0343 34.7728C20.8101 34.1921 21.7106 33.8003 22.6643 33.6284C23.618 33.4565 24.5986 33.5092 25.5284 33.7824V28.0001C25.5284 27.6101 25.6833 27.236 25.9591 26.9602C26.2349 26.6844 26.609 26.5295 26.999 26.5295H35.2637C35.5503 26.5293 35.8306 26.6129 36.0704 26.7699C36.3101 26.9269 36.4987 27.1505 36.6131 27.4133C36.7274 27.676 36.7625 27.9665 36.714 28.2489C36.6655 28.5313 36.5356 28.7935 36.3402 29.003C35.7725 29.6076 35.4569 30.4061 35.4578 31.2354C35.4578 32.109 35.8049 32.9469 36.4226 33.5647C37.0404 34.1824 37.8783 34.5295 38.7519 34.5295C39.6256 34.5295 40.4635 34.1824 41.0812 33.5647C41.699 32.9469 42.046 32.109 42.046 31.2354C42.047 30.4061 41.7314 29.6076 41.1637 29.003C40.9668 28.792 40.8364 28.5277 40.7887 28.2431C40.7409 27.9584 40.778 27.666 40.8953 27.4023C41.0126 27.1386 41.2049 26.9152 41.4482 26.76C41.6915 26.6048 41.9751 26.5247 42.2637 26.5295H50.5284C50.9184 26.5295 51.2925 26.6844 51.5683 26.9602C51.8441 27.236 51.999 27.6101 51.999 28.0001V48.5883C51.999 49.7584 51.5342 50.8806 50.7068 51.7079C49.8794 52.5353 48.7573 53.0001 47.5872 53.0001ZM28.4696 50.0589H47.5872C47.9772 50.0589 48.3513 49.904 48.6271 49.6282C48.9029 49.3524 49.0578 48.9784 49.0578 48.5883V29.4707H44.749C44.9153 30.0441 44.9995 30.6383 44.999 31.2354C44.999 32.8891 44.3421 34.4751 43.1727 35.6444C42.0034 36.8138 40.4174 37.4707 38.7637 37.4707C37.11 37.4707 35.524 36.8138 34.3547 35.6444C33.1853 34.4751 32.5284 32.8891 32.5284 31.2354C32.5279 30.6383 32.6121 30.0441 32.7784 29.4707H28.4696V36.2648C28.4692 36.5508 28.3855 36.8305 28.2286 37.0696C28.0718 37.3087 27.8486 37.497 27.5864 37.6112C27.3242 37.7254 27.0344 37.7607 26.7525 37.7128C26.4705 37.6649 26.2087 37.5357 25.999 37.3413C25.5282 36.9079 24.9413 36.621 24.3101 36.5156C23.6789 36.4103 23.0307 36.4911 22.4447 36.7481C21.8587 37.0052 21.3602 37.4274 21.0102 37.9631C20.6602 38.4988 20.4738 39.1249 20.4738 39.7648C20.4738 40.4047 20.6602 41.0308 21.0102 41.5665C21.3602 42.1023 21.8587 42.5244 22.4447 42.7815C23.0307 43.0385 23.6789 43.1193 24.3101 43.014C24.9413 42.9087 25.5282 42.6218 25.999 42.1883C26.2087 41.9939 26.4705 41.8648 26.7525 41.8168C27.0344 41.7689 27.3242 41.8042 27.5864 41.9184C27.8486 42.0327 28.0718 42.2209 28.2286 42.46C28.3855 42.6991 28.4692 42.9788 28.4696 43.2648V50.0589Z" fill="#2166F3"/>
<path d="M27 52.9999H6.41177C5.24169 52.9999 4.11954 52.5351 3.29218 51.7077C2.46481 50.8803 2 49.7582 2 48.5881V27.9999C2 27.6099 2.15494 27.2358 2.43073 26.96C2.70651 26.6842 3.08056 26.5293 3.47059 26.5293C3.86061 26.5293 4.23466 26.6842 4.51045 26.96C4.78624 27.2358 4.94118 27.6099 4.94118 27.9999V48.5881C4.94118 48.9782 5.09611 49.3522 5.3719 49.628C5.64769 49.9038 6.02174 50.0587 6.41177 50.0587H27C27.39 50.0587 27.7641 50.2137 28.0399 50.4894C28.3157 50.7652 28.4706 51.1393 28.4706 51.5293C28.4706 51.9193 28.3157 52.2934 28.0399 52.5692C27.7641 52.845 27.39 52.9999 27 52.9999Z" fill="#2166F3"/>
<path d="M27 29.4706H18.7353C18.4487 29.4708 18.1684 29.3872 17.9286 29.2302C17.6889 29.0732 17.5003 28.8496 17.3859 28.5868C17.2716 28.3241 17.2365 28.0336 17.285 27.7512C17.3334 27.4688 17.4634 27.2067 17.6588 26.9971C18.2265 26.3925 18.5421 25.5941 18.5412 24.7647C18.5412 23.8911 18.1941 23.0532 17.5764 22.4354C16.9586 21.8177 16.1207 21.4706 15.2471 21.4706C14.3734 21.4706 13.5355 21.8177 12.9178 22.4354C12.3 23.0532 11.9529 23.8911 11.9529 24.7647C11.952 25.5941 12.2676 26.3925 12.8353 26.9971C13.0322 27.2081 13.1626 27.4724 13.2103 27.757C13.258 28.0417 13.221 28.3341 13.1037 28.5978C12.9864 28.8615 12.7941 29.0849 12.5508 29.2401C12.3075 29.3953 12.0239 29.4754 11.7353 29.4706H3.47059C3.08056 29.4706 2.70651 29.3157 2.43073 29.0399C2.15494 28.7641 2 28.39 2 28V7.41177C2 6.24169 2.46481 5.11954 3.29218 4.29218C4.11954 3.46481 5.24169 3 6.41177 3H27C27.39 3 27.7641 3.15494 28.0399 3.43073C28.3157 3.70651 28.4706 4.08056 28.4706 4.47059V10.2529C29.4003 9.97973 30.381 9.92699 31.3347 10.0989C32.2884 10.2708 33.1889 10.6626 33.9647 11.2433C34.7405 11.824 35.3703 12.5774 35.8042 13.444C36.238 14.3105 36.4638 15.2662 36.4638 16.2353C36.4638 17.2044 36.238 18.1601 35.8042 19.0266C35.3703 19.8932 34.7405 20.6467 33.9647 21.2273C33.1889 21.808 32.2884 22.1998 31.3347 22.3717C30.381 22.5436 29.4003 22.4909 28.4706 22.2177V28C28.4706 28.39 28.3157 28.7641 28.0399 29.0399C27.7641 29.3157 27.39 29.4706 27 29.4706ZM21.2206 26.5294H25.5294V19.7353C25.5298 19.4493 25.6135 19.1696 25.7704 18.9305C25.9272 18.6914 26.1504 18.5031 26.4126 18.3889C26.6748 18.2747 26.9646 18.2394 27.2465 18.2873C27.5285 18.3352 27.7903 18.4644 28 18.6588C28.4708 19.0922 29.0577 19.3792 29.6889 19.4845C30.3201 19.5898 30.9683 19.509 31.5543 19.252C32.1403 18.9949 32.6388 18.5727 32.9888 18.037C33.3388 17.5013 33.5252 16.8752 33.5252 16.2353C33.5252 15.5954 33.3388 14.9693 32.9888 14.4336C32.6388 13.8979 32.1403 13.4757 31.5543 13.2186C30.9683 12.9616 30.3201 12.8808 29.6889 12.9861C29.0577 13.0915 28.4708 13.3784 28 13.8118C27.7903 14.0062 27.5285 14.1354 27.2465 14.1833C26.9646 14.2312 26.6748 14.1959 26.4126 14.0817C26.1504 13.9675 25.9272 13.7792 25.7704 13.5401C25.6135 13.301 25.5298 13.0213 25.5294 12.7353V5.94118H6.41177C6.02174 5.94118 5.64769 6.09611 5.3719 6.3719C5.09611 6.64769 4.94118 7.02174 4.94118 7.41177V26.5294H9.25C9.0837 25.956 8.99952 25.3618 9 24.7647C9 23.111 9.65693 21.525 10.8263 20.3557C11.9956 19.1863 13.5816 18.5294 15.2353 18.5294C16.889 18.5294 18.475 19.1863 19.6443 20.3557C20.8137 21.525 21.4706 23.111 21.4706 24.7647C21.4711 25.3618 21.3869 25.956 21.2206 26.5294Z" fill="#2166F3"/>
</svg>
