<svg width="58" height="58" viewBox="0 0 58 58" fill="none" xmlns="http://www.w3.org/2000/svg">
<g clip-path="url(#clip0_441_1848)">
<path d="M55.4974 39.4308C56.6861 37.9147 57.2561 36.2894 57.1833 34.6156C57.1106 32.7721 56.2858 31.3287 55.6066 30.4433C56.395 28.4785 56.6982 25.3856 54.0662 22.9841C52.1377 21.2254 48.863 20.4371 44.3268 20.6554C41.1369 20.8009 38.4686 21.3952 38.3594 21.4195H38.3473C37.7408 21.5286 37.098 21.6621 36.4431 21.8076C36.3945 21.0314 36.528 19.1029 37.9592 14.7608C39.6572 9.59389 39.5602 5.6399 37.6438 2.99582C35.6304 0.218319 32.4163 0 31.4702 0C30.5606 0 29.7237 0.375993 29.1294 1.06734C27.7831 2.63195 27.9408 5.51861 28.1106 6.85278C26.5096 11.1464 22.0219 21.6742 18.2256 24.5972C18.1528 24.6458 18.0922 24.7064 18.0315 24.767C16.9157 25.9435 16.1637 27.2171 15.6543 28.3329C14.9387 27.9448 14.126 27.7265 13.2528 27.7265H5.85418C3.06455 27.7265 0.808594 29.9946 0.808594 32.7721V52.4814C0.808594 55.271 3.07668 57.527 5.85418 57.527H13.2528C14.3322 57.527 15.3389 57.1874 16.1637 56.6052L19.0139 56.9448C19.4506 57.0054 27.213 57.9879 35.1817 57.8302C36.625 57.9394 37.9834 58 39.2448 58C41.4159 58 43.308 57.8302 44.8847 57.4906C48.5961 56.7022 51.1311 55.1255 52.4167 52.8089C53.3991 51.0381 53.3991 49.2794 53.2415 48.1635C55.6551 45.9803 56.0796 43.5667 55.9947 41.8687C55.9462 40.8862 55.7279 40.0494 55.4974 39.4308ZM5.85418 54.2522C4.87175 54.2522 4.08337 53.4517 4.08337 52.4814V32.7599C4.08337 31.7775 4.88388 30.9891 5.85418 30.9891H13.2528C14.2352 30.9891 15.0236 31.7896 15.0236 32.7599V52.4693C15.0236 53.4517 14.2231 54.2401 13.2528 54.2401H5.85418V54.2522ZM52.3924 38.0117C51.883 38.5454 51.786 39.358 52.1741 39.9887C52.1741 40.0008 52.6714 40.8499 52.7321 42.0142C52.817 43.6031 52.0528 45.01 50.4518 46.2108C49.8818 46.6474 49.6513 47.3994 49.8939 48.0786C49.8939 48.0908 50.4155 49.6918 49.5664 51.2079C48.7538 52.6633 46.9466 53.7064 44.2055 54.2886C42.0102 54.7616 39.0265 54.8465 35.3636 54.5554H35.1938C27.395 54.7252 19.5112 53.7064 19.4263 53.6943H19.4142L18.1892 53.5487C18.262 53.2091 18.2983 52.8453 18.2983 52.4814V32.7599C18.2983 32.2384 18.2134 31.729 18.0679 31.256C18.2862 30.4433 18.8927 28.6361 20.3239 27.0958C25.7697 22.7779 31.0942 8.21121 31.3247 7.58051C31.4217 7.3258 31.446 7.04684 31.3975 6.76788C31.1913 5.40945 31.264 3.7478 31.5551 3.25052C32.198 3.26265 33.9324 3.44458 34.9755 4.88791C36.2126 6.59808 36.1641 9.65454 34.8299 13.7056C32.7923 19.8791 32.6225 23.1297 34.2356 24.5609C35.0361 25.2765 36.1035 25.3128 36.8797 25.0339C37.6196 24.8641 38.323 24.7185 38.9901 24.6094C39.0386 24.5972 39.0993 24.5851 39.1478 24.573C42.8713 23.7604 49.5422 23.2631 51.8588 25.3735C53.8237 27.1685 52.4288 29.5458 52.2712 29.8005C51.8224 30.4797 51.9558 31.3651 52.5623 31.9109C52.5744 31.923 53.8479 33.1238 53.9086 34.7369C53.9571 35.8164 53.4477 36.9201 52.3924 38.0117Z" fill="#111111"/>
</g>
<defs>
<clipPath id="clip0_441_1848">
<rect width="58" height="58" fill="white"/>
</clipPath>
</defs>
</svg>
