<svg width="58" height="58" viewBox="0 0 58 58" fill="none" xmlns="http://www.w3.org/2000/svg">
<path d="M40 2H18.4C15.4236 2 13 4.42357 13 7.4V50.6C13 53.5786 15.4236 56 18.4 56H40C42.9787 56 45.4 53.5786 45.4 50.6V7.4C45.4 4.42357 42.9787 2 40 2ZM43.24 50.6C43.24 52.3863 41.7863 53.84 40 53.84H18.4C16.6137 53.84 15.16 52.3863 15.16 50.6V7.4C15.16 5.61368 16.6137 4.16 18.4 4.16H40C41.7863 4.16 43.24 5.61368 43.24 7.4V50.6Z" fill="#111111" stroke="#111111"/>
<path d="M31.36 6.32031H27.04C26.4438 6.32031 25.96 6.8042 25.96 7.40031C25.96 7.99642 26.4439 8.48031 27.04 8.48031H31.36C31.9561 8.48031 32.44 7.99642 32.44 7.40031C32.44 6.8042 31.9561 6.32031 31.36 6.32031ZM29.2 49.5203C28.6039 49.5203 28.12 50.0042 28.12 50.6003C28.12 51.1964 28.6039 51.6803 29.2 51.6803C29.7961 51.6803 30.28 51.1964 30.28 50.6003C30.28 50.0042 29.7961 49.5203 29.2 49.5203ZM44.32 10.6403H14.08C13.4838 10.6403 13 11.1242 13 11.7203C13 12.3165 13.4838 12.8003 14.08 12.8003H44.32C44.9161 12.8003 45.4 12.3164 45.4 11.7203C45.4 11.1242 44.9161 10.6403 44.32 10.6403ZM44.32 45.2003H14.08C13.4838 45.2003 13 45.6842 13 46.2803C13 46.8764 13.4838 47.3603 14.08 47.3603H44.32C44.9161 47.3603 45.4 46.8764 45.4 46.2803C45.4 45.6842 44.9161 45.2003 44.32 45.2003Z" fill="#111111" stroke="#111111"/>
</svg>
