<?xml version="1.0" encoding="iso-8859-1"?>
<!-- Generator: Adobe Illustrator 19.0.0, SVG Export Plug-In . SVG Version: 6.00 Build 0)  -->
<svg xmlns="http://www.w3.org/2000/svg" xmlns:xlink="http://www.w3.org/1999/xlink" version="1.1" id="Capa_1" x="0px" y="0px" viewBox="0 0 490 490" style="enable-background:new 0 0 490 490;" xml:space="preserve" width="512px" height="512px">
<path d="M467.031,30.625H22.969C10.336,30.625,0,40.961,0,53.594v13.868v9.101v382.813h490V76.563v-9.101V53.594  C490,40.961,479.664,30.625,467.031,30.625z M77.679,47.054c3.612,0,6.54,2.928,6.54,6.54c0,3.612-2.928,6.539-6.54,6.539  c-3.612,0-6.539-2.928-6.539-6.539C71.139,49.982,74.067,47.054,77.679,47.054z M38.441,60.133c-3.612,0-6.539-2.928-6.539-6.539  c0-3.612,2.928-6.54,6.539-6.54c3.612,0,6.54,2.928,6.54,6.54C44.98,57.206,42.052,60.133,38.441,60.133z M51.52,53.594  c0-3.612,2.928-6.54,6.539-6.54c3.612,0,6.54,2.928,6.54,6.54c0,3.612-2.928,6.539-6.54,6.539  C54.448,60.133,51.52,57.206,51.52,53.594z M221.991,403.862H53.554V120.581h168.437V403.862z M320.672,403.862h-68.056v-68.906  h68.056V403.862z M320.672,296.675h-68.056v-68.906h68.056V296.675z M320.672,189.488h-68.056v-68.906h68.056V189.488z   M436.366,396.206h-84.219v-7.656h84.219V396.206z M436.366,373.237h-84.219v-7.656h84.219V373.237z M436.366,350.269h-84.219  v-7.656h84.219V350.269z M436.366,289.019h-84.219v-7.656h84.219V289.019z M436.366,266.05h-84.219v-7.656h84.219V266.05z   M436.366,243.081h-84.219v-7.656h84.219V243.081z M436.366,181.831h-84.219v-7.656h84.219V181.831z M436.366,158.863h-84.219  v-7.656h84.219V158.863z M436.366,135.894h-84.219v-7.656h84.219V135.894z M424.922,65.078H141.641  c-6.316,0-11.484-5.168-11.484-11.484c0-6.316,5.168-11.484,11.484-11.484h283.281c6.316,0,11.484,5.168,11.484,11.484  C436.406,59.91,431.238,65.078,424.922,65.078z" fill="#757575"/>
<g>
</g>
<g>
</g>
<g>
</g>
<g>
</g>
<g>
</g>
<g>
</g>
<g>
</g>
<g>
</g>
<g>
</g>
<g>
</g>
<g>
</g>
<g>
</g>
<g>
</g>
<g>
</g>
<g>
</g>
</svg>
