<?xml version="1.0" encoding="iso-8859-1"?>
<!-- Generator: Adobe Illustrator 19.0.0, SVG Export Plug-In . SVG Version: 6.00 Build 0)  -->
<svg xmlns="http://www.w3.org/2000/svg" xmlns:xlink="http://www.w3.org/1999/xlink" version="1.1" id="Capa_1" x="0px" y="0px" viewBox="0 0 513.164 513.164" style="enable-background:new 0 0 513.164 513.164;" xml:space="preserve" width="512px" height="512px">
<g>
	<g>
		<path d="M500.945,139.636c-6.982,0-11.636,4.655-11.636,11.636V384c0,6.982-4.655,11.636-11.636,11.636h-46.545    c-6.982,0-11.636,4.655-11.636,11.636c0,6.982,4.655,11.636,11.636,11.636h46.545c19.782,0,34.909-15.127,34.909-34.909V151.273    C512.582,144.291,507.927,139.636,500.945,139.636z" fill="#757575"/>
	</g>
</g>
<g>
	<g>
		<circle cx="58.764" cy="58.182" r="11.636" fill="#757575"/>
	</g>
</g>
<g>
	<g>
		<circle cx="93.673" cy="58.182" r="11.636" fill="#757575"/>
	</g>
</g>
<g>
	<g>
		<circle cx="128.582" cy="58.182" r="11.636" fill="#757575"/>
	</g>
</g>
<g>
	<g>
		<path d="M454.4,46.545H175.127c-6.982,0-11.636,4.655-11.636,11.636s4.655,11.636,11.636,11.636H454.4    c6.982,0,11.636-4.655,11.636-11.636S461.382,46.545,454.4,46.545z" fill="#757575"/>
	</g>
</g>
<g>
	<g>
		<path d="M416,286.255l-15.127-3.491c-3.491-10.473-6.982-19.782-12.8-30.255l8.145-12.8c8.145-13.964,5.818-31.418-5.818-43.055    l-5.818-5.818c-11.636-11.636-29.091-13.964-43.055-5.818l-12.8,8.145c-9.309-4.655-19.782-9.309-30.255-12.8l-3.491-15.127    c-3.491-15.127-17.455-25.6-33.745-25.6h-10.473c-16.291,0-30.255,10.473-33.745,26.764l-3.491,15.127    c-10.473,3.491-19.782,6.982-30.255,12.8l-12.8-8.145c-13.964-8.145-31.418-5.818-43.055,5.818l-5.818,5.818    c-11.636,11.636-13.964,29.091-5.818,43.055l8.145,12.8c-4.655,9.309-9.309,19.782-12.8,30.255L96,287.418    c-15.127,3.491-25.6,17.455-25.6,33.745v10.473c0,16.291,10.473,30.255,26.764,33.745l15.127,3.491    c3.491,10.473,6.982,19.782,12.8,30.255l-8.145,12.8c-9.309,12.8-6.982,30.255,4.655,41.891l6.982,6.982    c11.636,11.636,29.091,13.964,43.055,5.818l12.8-8.145c9.309,4.655,19.782,9.309,30.255,12.8l3.491,15.127    c3.491,15.127,17.455,26.764,33.745,26.764H262.4c16.291,0,30.255-10.473,33.745-26.764l3.491-15.127    c10.473-3.491,19.782-6.982,30.255-12.8l12.8,8.145c13.964,8.146,31.418,5.818,43.055-5.818l6.982-6.982    c11.636-11.636,13.964-29.091,5.818-43.055l-8.145-12.8c4.655-9.309,9.309-19.782,12.8-30.255l12.8-3.491    c15.127-3.491,26.764-17.455,26.764-33.745V320C442.764,303.709,432.291,289.745,416,286.255z M419.491,330.473    c0,5.818-3.491,10.473-9.309,11.636l-20.945,5.818c-4.655,1.164-6.982,3.491-8.146,8.145c-3.491,12.8-8.145,24.436-15.127,36.073    c-2.327,3.491-2.327,8.146,0,11.636L377.6,422.4c2.327,4.655,2.327,10.473-2.327,13.964l-6.982,6.982    c-3.491,3.491-9.309,4.655-13.964,2.327l-18.618-11.636c-3.491-2.327-8.145-2.327-11.636,0    c-11.636,6.982-23.273,11.636-36.073,15.127c-4.655,1.164-6.982,4.655-8.145,8.145l-5.818,20.945    c-1.164,4.655-5.818,9.309-11.636,9.309h-10.473c-5.818,0-10.473-3.491-11.636-9.309l-5.818-20.945    c-1.164-4.655-4.655-6.982-8.145-8.145c-12.8-3.491-24.436-8.145-36.073-15.127c-2.327-1.164-3.491-1.164-5.818-1.164    s-4.655,0-5.818,1.164L160,445.673c-4.655,2.327-10.473,2.327-13.964-2.327l-6.982-6.982c-3.491-3.491-4.655-9.309-2.327-13.964    l11.636-18.618c2.327-3.491,2.327-8.146,0-11.636c-6.982-11.636-11.636-23.273-15.127-36.073    c-1.164-4.655-4.655-6.982-8.146-8.145l-20.945-5.818c-4.655-1.164-9.309-5.818-9.309-11.636V320    c0-5.818,3.491-10.473,9.309-11.636l20.945-5.818c4.655-1.164,6.982-4.655,8.146-8.145c3.491-12.8,8.145-24.436,15.127-36.073    c2.327-3.491,2.327-8.145,0-11.636l-11.636-18.618c-2.327-4.655-2.327-10.473,2.327-13.964l6.982-6.982    c3.491-3.491,9.309-4.655,13.964-2.327l18.618,11.636c3.491,2.327,8.145,2.327,11.636,0c11.636-6.982,23.273-11.636,36.073-15.127    c4.655-1.164,6.982-4.655,8.145-8.146l5.818-20.945c1.164-4.655,5.818-9.309,11.636-9.309H262.4    c5.818,0,10.473,3.491,11.636,9.309l5.818,20.945c1.164,4.655,4.655,6.982,8.145,8.146c12.8,3.491,24.436,8.145,36.073,15.127    c3.491,2.327,8.145,2.327,11.636,0l18.618-11.636c4.655-2.327,10.473-2.327,13.964,2.327l6.982,6.982    c3.491,3.491,4.655,9.309,2.327,13.964l-11.636,18.618c-2.327,3.491-2.327,8.145,0,11.636    c6.982,11.636,11.636,23.273,15.127,36.073c1.164,4.655,4.655,6.982,8.146,8.145l20.945,5.818    c4.655,1.164,9.309,5.818,9.309,11.636V330.473z" fill="#757575"/>
	</g>
</g>
<g>
	<g>
		<path d="M477.673,0H35.491C15.709,0,0.582,15.127,0.582,34.909V384c0,19.782,15.127,34.909,34.909,34.909h46.545    c6.982,0,11.636-4.655,11.636-11.636c0-6.982-4.655-11.636-11.636-11.636H35.491c-6.982,0-11.636-4.655-11.636-11.636V34.909    c0-6.982,4.655-11.636,11.636-11.636h442.182c6.982,0,11.636,4.655,11.636,11.636v58.182H58.764    c-6.982,0-11.636,4.655-11.636,11.636s4.655,11.636,11.636,11.636h442.182c6.982,0,11.636-4.655,11.636-11.636V34.909    C512.582,15.127,497.455,0,477.673,0z" fill="#757575"/>
	</g>
</g>
<g>
	<g>
		<path d="M310.109,249.018c-5.818-3.491-12.8-2.327-16.291,2.327c-3.491,5.818-2.327,12.8,2.327,16.291    c18.618,13.964,30.255,34.909,30.255,58.182c0,8.146-1.164,16.291-4.655,24.436l-53.527-31.418v-74.473    c0-6.982-4.655-11.636-11.636-11.636c-51.2,0-93.091,41.891-93.091,93.091s41.891,93.091,93.091,93.091    s93.091-41.891,93.091-93.091C349.673,295.564,334.545,266.473,310.109,249.018z M186.764,325.818    c0-34.909,25.6-62.836,58.182-68.655v61.673l-53.527,31.418C187.927,342.109,186.764,333.964,186.764,325.818z M256.582,395.636    c-22.109,0-40.727-9.309-53.527-25.6l53.527-31.418l53.527,31.418C297.309,386.327,278.691,395.636,256.582,395.636z" fill="#757575"/>
	</g>
</g>
<g>
</g>
<g>
</g>
<g>
</g>
<g>
</g>
<g>
</g>
<g>
</g>
<g>
</g>
<g>
</g>
<g>
</g>
<g>
</g>
<g>
</g>
<g>
</g>
<g>
</g>
<g>
</g>
<g>
</g>
</svg>
