<svg width="56" height="50" viewBox="0 0 56 50" fill="none" xmlns="http://www.w3.org/2000/svg">
<path d="M47.0041 35.2587H45.1009C44.6025 35.2587 44.1947 34.8509 44.1947 34.3525C44.1947 33.854 44.6025 33.4462 45.1009 33.4462H47.0041C50.6381 33.4462 53.5925 30.4918 53.5925 26.8578C53.5925 23.9396 51.7256 21.4021 48.9434 20.5503C48.4903 20.4053 48.2184 19.9431 48.3272 19.4718C48.4269 19.064 48.4722 18.6109 48.4722 18.0943C48.4722 14.4965 45.5541 11.5331 41.9744 11.4878C41.811 11.4851 41.6514 11.4382 41.5125 11.352C41.3737 11.2659 41.2608 11.1436 41.1859 10.9984C39.8919 8.50407 37.9367 6.41371 35.5344 4.95599C33.132 3.49827 30.375 2.72937 27.565 2.7334C20.2063 2.7334 13.8625 7.97152 12.4759 15.1943C12.3853 15.6656 11.9503 15.9828 11.47 15.9193C11.3703 15.9103 11.2616 15.9103 11.1619 15.9103C6.33156 15.9103 2.39844 19.8434 2.39844 24.6828C2.39844 29.5131 6.33156 33.4462 11.1619 33.4462H12.1044C12.6028 33.4462 13.0106 33.854 13.0106 34.3525C13.0106 34.8509 12.6028 35.2587 12.1044 35.2587H11.1619C5.32563 35.2587 0.585938 30.51 0.585938 24.6828C0.585938 18.9462 5.17156 14.2609 10.8628 14.0978C12.6934 6.41277 19.5991 0.920898 27.565 0.920898C33.8091 0.920898 39.5003 4.27402 42.5363 9.70246C46.85 10.0378 50.2847 13.699 50.2847 18.0943C50.2847 18.4387 50.2666 18.774 50.2303 19.0821C53.3569 20.3781 55.3959 23.405 55.3959 26.8578C55.4141 31.4887 51.6441 35.2587 47.0041 35.2587Z" fill="#2166F3" stroke="#2166F3" stroke-width="0.5"/>
<path d="M42.1748 49.0789H15.0417C12.9211 49.0789 11.1992 47.3571 11.1992 45.2364V25.7883C11.1992 23.6677 12.9211 21.9458 15.0417 21.9458H42.1748C44.2955 21.9458 46.0173 23.6677 46.0173 25.7883V45.2364C46.0173 47.3571 44.2955 49.0789 42.1748 49.0789ZM15.0417 23.7583C13.927 23.7583 13.0117 24.6646 13.0117 25.7883V45.2364C13.0117 46.3511 13.918 47.2664 15.0417 47.2664H42.1748C43.2895 47.2664 44.2048 46.3602 44.2048 45.2364V25.7883C44.2048 24.6736 43.2986 23.7583 42.1748 23.7583H15.0417Z" fill="#2166F3" stroke="#2166F3" stroke-width="0.5"/>
<path d="M45.1111 29.6762H12.1055C11.607 29.6762 11.1992 29.2684 11.1992 28.77C11.1992 28.2716 11.607 27.8637 12.1055 27.8637H45.102C45.6005 27.8637 46.0083 28.2716 46.0083 28.77C46.0083 29.2684 45.6095 29.6762 45.1111 29.6762ZM37.562 26.74H36.828C36.3295 26.74 35.9217 26.3322 35.9217 25.8337C35.9217 25.3353 36.3295 24.9275 36.828 24.9275H37.562C38.0605 24.9275 38.4683 25.3353 38.4683 25.8337C38.4683 26.3322 38.0605 26.74 37.562 26.74ZM40.9967 26.74H40.2627C39.7642 26.74 39.3564 26.3322 39.3564 25.8337C39.3564 25.3353 39.7642 24.9275 40.2627 24.9275H40.9967C41.4952 24.9275 41.903 25.3353 41.903 25.8337C41.903 26.3322 41.4952 26.74 40.9967 26.74ZM22.8808 42.9347C22.6905 42.9347 22.4911 42.8712 22.328 42.7444L17.8964 39.3097C17.6789 39.1375 17.552 38.8837 17.543 38.6119C17.5339 38.34 17.6608 38.0772 17.8692 37.8959L22.3008 34.1984C22.3924 34.1223 22.4982 34.0649 22.612 34.0296C22.7258 33.9943 22.8454 33.9818 22.9641 33.9927C23.0827 34.0036 23.1981 34.0378 23.3035 34.0933C23.409 34.1489 23.5024 34.2246 23.5786 34.3162C23.6548 34.4079 23.7121 34.5136 23.7474 34.6274C23.7827 34.7412 23.7953 34.8609 23.7843 34.9795C23.7734 35.0982 23.7392 35.2135 23.6837 35.319C23.6282 35.4244 23.5524 35.5179 23.4608 35.5941L19.8992 38.5666L23.4336 41.3034C23.8323 41.6116 23.9048 42.1825 23.5967 42.5722C23.4155 42.8169 23.1436 42.9347 22.8808 42.9347ZM25.4636 45.445C25.3167 45.4443 25.1722 45.4081 25.0425 45.3392C24.9128 45.2704 24.8017 45.1711 24.7188 45.0499C24.6359 44.9287 24.5836 44.7891 24.5666 44.6433C24.5495 44.4974 24.5681 44.3496 24.6208 44.2125L29.3423 32.0687C29.5236 31.6066 30.0492 31.3709 30.5114 31.5522C30.9736 31.7334 31.2092 32.2591 31.028 32.7212L26.3064 44.865C26.1705 45.2184 25.8261 45.445 25.4636 45.445ZM32.768 42.9347C32.4961 42.9347 32.2333 42.8169 32.052 42.5812C31.9787 42.4875 31.9248 42.3802 31.8933 42.2654C31.8618 42.1507 31.8534 42.0308 31.8685 41.9128C31.8837 41.7948 31.9222 41.6809 31.9817 41.5779C32.0412 41.4748 32.1205 41.3846 32.2152 41.3125L35.7495 38.5756L32.188 35.6031C31.8073 35.2859 31.753 34.715 32.0702 34.3253C32.3873 33.9447 32.9583 33.8903 33.348 34.2075L37.7705 37.905C37.9789 38.0772 38.0967 38.34 38.0967 38.6209C38.0877 38.8928 37.9608 39.1556 37.7433 39.3187L33.3208 42.7534C33.1577 42.8712 32.9583 42.9347 32.768 42.9347Z" fill="#2166F3" stroke="#2166F3" stroke-width="0.5"/>
</svg>
