<svg width="58" height="49" viewBox="0 0 58 49" fill="none" xmlns="http://www.w3.org/2000/svg">
<path d="M1 8.42878V7.30652C1 6.1865 1.90818 5.27832 3.02819 5.27832H10.4503M1 12.3725V39.583C1 40.4788 1.36282 41.29 1.94987 41.8771C2.53692 42.4641 3.3482 42.827 4.24398 42.827M4.24398 42.827H35.2494M4.24398 42.827C6.03668 42.827 7.47896 41.325 7.47896 39.5334V15.4869C7.47896 14.3669 8.38714 13.4587 9.50715 13.4587H47.8344C48.9544 13.4587 49.8626 14.3669 49.8626 15.4869V17.9523M49.8626 27.0093V21.896" stroke="#2166F3" stroke-width="2" stroke-miterlimit="10" stroke-linecap="round" stroke-linejoin="round"/>
<path d="M11.4314 17.4742H17.3618M11.4314 21.4179H20.3547M46.8902 13.4587V3.02819C46.8902 1.90818 45.9821 1 44.8621 1H12.4774C11.3574 1 10.4492 1.90818 10.4492 3.02819V13.4587M22.6986 38.8837H12.5582C11.9359 38.8837 11.4314 38.3793 11.4314 37.757V34.689C11.4314 34.0667 11.9359 33.5622 12.5582 33.5622H22.6986C23.3209 33.5622 23.8254 34.0667 23.8254 34.689V37.757C23.8254 38.3793 23.3209 38.8837 22.6986 38.8837Z" stroke="#2166F3" stroke-width="2" stroke-miterlimit="10" stroke-linecap="round" stroke-linejoin="round"/>
<path d="M26.5357 9.82138L27.4613 4.69275C27.4844 4.57263 27.652 4.56137 27.691 4.67731L29.1968 9.78138C29.2333 9.89011 29.3873 9.88932 29.4227 9.78025L30.8771 4.67821C30.9149 4.56193 31.0824 4.57139 31.1069 4.69117L32.0873 9.82138M23.0899 5.04565C22.6552 4.75176 22.1423 4.59511 21.6176 4.59596C20.1633 4.59596 18.9844 5.7749 18.9844 7.22923C18.9844 8.68356 20.1633 9.8625 21.6176 9.8625C22.2083 9.8625 22.6942 9.66802 23.0628 9.33968C23.1394 9.27146 23.2108 9.19776 23.2766 9.11917M38.179 5.13737C38.179 5.13737 37.234 4.343 36.1196 4.67866C35.0964 4.98695 34.9531 6.1668 35.6935 6.64939C35.6935 6.64939 36.42 6.97345 37.2256 7.2707C39.1651 7.98609 38.3296 9.86239 36.7683 9.86239C35.9864 9.86239 35.3302 9.51996 34.933 9.08176M56.9986 36.9308V33.6631C56.9986 33.5735 56.963 33.4875 56.8996 33.4241C56.8362 33.3607 56.7502 33.3251 56.6606 33.3251H54.6169C54.4608 33.3251 54.3226 33.2194 54.2867 33.0674C54.0482 32.0592 53.6484 31.0962 53.1027 30.2156C53.021 30.0835 53.0434 29.9121 53.1533 29.8022L54.6015 28.354C54.6329 28.3226 54.6578 28.2853 54.6748 28.2443C54.6918 28.2033 54.7005 28.1594 54.7005 28.115C54.7005 28.0706 54.6918 28.0266 54.6748 27.9856C54.6578 27.9446 54.6329 27.9073 54.6015 27.8759L52.2909 25.5654C52.2595 25.534 52.2223 25.5091 52.1813 25.4921C52.1403 25.4751 52.0963 25.4663 52.0519 25.4663C52.0075 25.4663 51.9635 25.4751 51.9225 25.4921C51.8815 25.5091 51.8442 25.534 51.8128 25.5654L50.3646 27.0136C50.2549 27.1233 50.0834 27.1459 49.9513 27.0642C49.0707 26.5184 48.1076 26.1186 47.0994 25.8802C46.9474 25.8443 46.8417 25.7061 46.8417 25.5499V23.5063C46.8417 23.4166 46.8061 23.3307 46.7427 23.2673C46.6793 23.2039 46.5934 23.1683 46.5037 23.1683H43.2361C43.1464 23.1683 43.0604 23.2039 42.997 23.2673C42.9336 23.3307 42.898 23.4166 42.898 23.5063V25.5499C42.898 25.7061 42.7923 25.8442 42.6403 25.8802C41.6321 26.1186 40.6691 26.5185 39.7885 27.0642C39.6564 27.1459 39.485 27.1235 39.3752 27.0136L37.9269 25.5654C37.8955 25.534 37.8583 25.5091 37.8173 25.4921C37.7762 25.4751 37.7323 25.4663 37.6879 25.4663C37.6435 25.4663 37.5995 25.4751 37.5585 25.4921C37.5175 25.5091 37.4802 25.534 37.4488 25.5654L35.1383 27.8759C35.1069 27.9073 35.082 27.9446 35.065 27.9856C35.048 28.0266 35.0392 28.0706 35.0392 28.115C35.0392 28.1594 35.048 28.2033 35.065 28.2443C35.082 28.2853 35.1069 28.3226 35.1383 28.354L36.5865 29.8022C36.6963 29.912 36.7188 30.0835 36.6371 30.2156C36.0914 31.0962 35.6915 32.0592 35.4531 33.0674C35.4173 33.2194 35.279 33.3251 35.1228 33.3251H33.0792C32.9895 33.3251 32.9036 33.3607 32.8402 33.4241C32.7768 33.4875 32.7412 33.5735 32.7412 33.6631V36.9308C32.7412 37.0204 32.7768 37.1064 32.8402 37.1698C32.9036 37.2332 32.9895 37.2688 33.0792 37.2688H35.1228C35.279 37.2688 35.4171 37.3745 35.4531 37.5265C35.6915 38.5347 36.0914 39.4978 36.6371 40.3784C36.7188 40.5104 36.6964 40.6818 36.5865 40.7917L35.1383 42.2399C35.1069 42.2713 35.082 42.3086 35.065 42.3496C35.048 42.3906 35.0392 42.4346 35.0392 42.479C35.0392 42.5234 35.048 42.5673 35.065 42.6083C35.082 42.6494 35.1069 42.6866 35.1383 42.718L37.4488 45.0286C37.4802 45.06 37.5175 45.0849 37.5585 45.1019C37.5995 45.1189 37.6435 45.1276 37.6879 45.1276C37.7323 45.1276 37.7762 45.1189 37.8173 45.1019C37.8583 45.0849 37.8955 45.06 37.9269 45.0286L39.3752 43.5803C39.4849 43.4706 39.6564 43.4481 39.7885 43.5297C40.6691 44.0755 41.6321 44.4753 42.6403 44.7138C42.7923 44.7496 42.898 44.8879 42.898 45.044V47.0877C42.898 47.1773 42.9336 47.2633 42.997 47.3267C43.0604 47.3901 43.1464 47.4257 43.2361 47.4257H46.5037C46.5934 47.4257 46.6793 47.3901 46.7427 47.3267C46.8061 47.2633 46.8417 47.1773 46.8417 47.0877V45.044C46.8417 44.8879 46.9474 44.7497 47.0994 44.7138C48.1076 44.4753 49.0707 44.0755 49.9513 43.5297C50.0834 43.4481 50.2547 43.4705 50.3646 43.5803L51.8128 45.0286C51.8442 45.06 51.8815 45.0849 51.9225 45.1019C51.9635 45.1189 52.0075 45.1276 52.0519 45.1276C52.0963 45.1276 52.1403 45.1189 52.1813 45.1019C52.2223 45.0849 52.2595 45.06 52.2909 45.0286L54.6015 42.718C54.6329 42.6866 54.6578 42.6494 54.6748 42.6083C54.6918 42.5673 54.7005 42.5234 54.7005 42.479C54.7005 42.4346 54.6918 42.3906 54.6748 42.3496C54.6578 42.3086 54.6329 42.2713 54.6015 42.2399L53.1533 40.7917C53.0435 40.6819 53.021 40.5104 53.1027 40.3784C53.6484 39.4978 54.0483 38.5347 54.2867 37.5265C54.3225 37.3745 54.4608 37.2688 54.6169 37.2688H56.6606C56.7502 37.2688 56.8362 37.2332 56.8996 37.1698C56.963 37.1064 56.9986 37.0204 56.9986 36.9308Z" stroke="#2166F3" stroke-width="2" stroke-miterlimit="10" stroke-linecap="round" stroke-linejoin="round"/>
<path d="M44.8706 39.4606C47.17 39.4606 49.0341 37.5966 49.0341 35.2971C49.0341 32.9976 47.17 31.1335 44.8706 31.1335C42.5711 31.1335 40.707 32.9976 40.707 35.2971C40.707 37.5966 42.5711 39.4606 44.8706 39.4606Z" stroke="#2166F3" stroke-width="2" stroke-miterlimit="10" stroke-linecap="round" stroke-linejoin="round"/>
</svg>
