<svg width="50" height="50" fill="none" xmlns="http://www.w3.org/2000/svg"><g clip-path="url(#a)" fill="#000" stroke="#000" stroke-width=".5"><path d="M41.261 26.427a.728.728 0 0 0-.727.728.925.925 0 0 1-1.848 0 .727.727 0 1 0-1.456 0 2.382 2.382 0 0 0 2.38 2.38 2.382 2.382 0 0 0 2.379-2.38.727.727 0 0 0-.728-.728z"/><path d="m48.09 26.546-2.048-.656a.856.856 0 0 1-.553-.56 13.206 13.206 0 0 0-1.936-3.83 14.055 14.055 0 0 0-1.293-1.526c.302-1.325.466-2.825.445-4.121-.03-1.854-.401-2.941-1.133-3.325-.394-.206-1.593-.834-8.084 2.137a2.36 2.36 0 0 0-.43.256 28.162 28.162 0 0 0-1.335-.324l-.165-.033a9.911 9.911 0 0 0 .891-3.686.73.73 0 0 0-.694-.76.727.727 0 0 0-.76.695 8.454 8.454 0 0 1-2.474 5.612 8.425 8.425 0 0 1-3.065 1.958 21.1 21.1 0 0 0-5.857 0 8.425 8.425 0 0 1-3.065-1.958 8.42 8.42 0 0 1-2.483-5.994 8.42 8.42 0 0 1 2.483-5.993 8.42 8.42 0 0 1 5.994-2.483 8.42 8.42 0 0 1 5.993 2.483 8.474 8.474 0 0 1 1.58 2.182.726.726 0 0 0 1.341-.1.73.73 0 0 0-.04-.555A9.923 9.923 0 0 0 29.55 3.41a9.867 9.867 0 0 0-7.022-2.91 9.867 9.867 0 0 0-7.023 2.91 9.867 9.867 0 0 0-2.91 7.022 9.867 9.867 0 0 0 2.91 7.023c.53.53 1.117.999 1.752 1.396-.452.118-.9.25-1.345.398a.728.728 0 0 0 .462 1.38 19.527 19.527 0 0 1 12.308 0 .726.726 0 0 0 .881-1.014.728.728 0 0 0-.42-.366 20.52 20.52 0 0 0-1.346-.398h.001a9.926 9.926 0 0 0 3.02-2.953 28.092 28.092 0 0 1 1.376.304c-.008.032-.017.063-.023.096-.355 1.684-.332 3.173.068 4.426.36 1.127 1.01 2.04 1.93 2.713 1.085.794 2.395 1.137 3.582 1.137.893 0 1.716-.195 2.32-.537.685-.388 1.258-1.204 1.711-2.43a11.749 11.749 0 0 1 2.319 4.16 2.314 2.314 0 0 0 1.497 1.51l2.049.656a1.289 1.289 0 0 1 .898 1.231v3.396a1.288 1.288 0 0 1-.898 1.231l-3.3 1.057c-.528.17-.975.532-1.258 1.022-1.297 2.24-3.335 4.094-6.058 5.51a1.14 1.14 0 0 0-.599.804l-1.057 5.596a.327.327 0 0 1-.32.266h-3.437a.327.327 0 0 1-.321-.266l-.586-3.093a1.143 1.143 0 0 0-1.3-.92 30.42 30.42 0 0 1-4.533.338c-1.136 0-2.258-.063-3.335-.189a1.153 1.153 0 0 0-1.26.925l-.557 2.939a.327.327 0 0 1-.321.266h-3.436a.328.328 0 0 1-.322-.268L14.63 42.49a1.143 1.143 0 0 0-.587-.794c-4.643-2.479-7.097-6.62-7.097-11.975 0-2.706.592-5.099 1.76-7.112 1.09-1.879 2.68-3.432 4.73-4.617a.728.728 0 0 0-.73-1.26c-3.972 2.298-6.368 5.843-7.028 10.346-.07-.006-.14-.012-.21-.02a3.623 3.623 0 0 0-.266-1.451c-.422-1.05-1.29-1.807-2.21-1.93-.725-.097-1.415.21-1.893.843-.695.918-.581 1.644-.364 2.091.366.755 1.308 1.29 2.872 1.625a2.85 2.85 0 0 1-.142.194C2.54 29.59 1.452 29.846.744 29.87a.764.764 0 0 0-.744.76v.004c0 .408.322.74.73.76.052.002.107.003.164.003.894 0 2.329-.33 3.708-2.058.217-.273.395-.561.531-.858.137.015.27.028.396.04-.026.4-.039.8-.039 1.2 0 3.03.723 5.732 2.147 8.031 1.313 2.12 3.194 3.854 5.591 5.16l.99 5.138c.159.84.895 1.45 1.75 1.45h3.437c.855 0 1.592-.61 1.751-1.45l.503-2.657a31.96 31.96 0 0 0 7.678-.144l.53 2.8c.159.841.895 1.451 1.75 1.451h3.437c.856 0 1.592-.61 1.751-1.45l1.03-5.449c2.906-1.537 5.097-3.557 6.513-6.003a.796.796 0 0 1 .443-.365l3.3-1.057A2.74 2.74 0 0 0 50 32.56v-3.396a2.74 2.74 0 0 0-1.91-2.617zm-6.95-8.648c-.28 2.395-1.03 4.444-1.786 4.871-.858.486-2.839.58-4.326-.508-1.49-1.09-1.985-3.048-1.434-5.665a.878.878 0 0 1 .5-.607c3.643-1.668 5.743-2.214 6.523-2.214.118 0 .206.013.264.036.235.25.542 1.67.26 4.087zM2.043 25.977c-.075-.156.103-.429.215-.578.179-.236.343-.284.468-.284.026 0 .05.002.073.005.335.045.803.413 1.052 1.03.087.22.138.451.152.687-1.007-.209-1.79-.51-1.96-.86z"/><path d="M23.234 9.597V6.994c.898.064 1.231.474 1.539.474.385 0 .564-.487.564-.731 0-.629-1.231-.898-2.103-.924v-.346c0-.154-.193-.295-.385-.295-.218 0-.372.141-.372.295v.372c-1.219.128-2.438.77-2.438 2.386 0 1.642 1.283 2.104 2.438 2.514v3.015c-1.309-.103-1.655-1-2.078-1-.321 0-.59.423-.59.73 0 .629 1.077 1.488 2.668 1.514v.398c0 .154.154.295.372.295.192 0 .385-.141.385-.295v-.436c1.385-.193 2.334-1.065 2.334-2.643 0-1.745-1.218-2.31-2.334-2.72zm-.68-.243c-.68-.257-1.232-.526-1.232-1.257 0-.667.513-.988 1.232-1.078v2.335zm.603 4.374v-2.707c.628.27 1.128.629 1.128 1.437 0 .731-.436 1.142-1.128 1.27z"/></g><defs><clipPath id="a"><path fill="#fff" d="M0 0h50v50H0z"/></clipPath></defs></svg>