<svg width="50" height="50" fill="none" xmlns="http://www.w3.org/2000/svg"><g clip-path="url(#a)"><mask id="b" style="mask-type:luminance" maskUnits="userSpaceOnUse" x="0" y="0" width="50" height="50"><path d="M49 49V1H1v48h48z" fill="#fff" stroke="#fff" stroke-width="2"/></mask><g mask="url(#b)" stroke="#000" stroke-width="2" stroke-miterlimit="10" stroke-linecap="round" stroke-linejoin="round"><path d="m25 42.61-12.17 5.156c-1.843.78-3.853-.68-3.68-2.673l1.143-13.17-8.665-9.983c-1.31-1.51-.543-3.873 1.405-4.325l12.878-2.983 6.815-11.326c1.032-1.714 3.516-1.714 4.548 0l6.815 11.326 12.877 2.983c1.949.452 2.717 2.815 1.406 4.325l-8.665 9.983 1.143 13.17c.172 1.993-1.837 3.453-3.68 2.673L25 42.61z"/><path d="M30.319 18.362a5.318 5.318 0 1 1-10.635 0 5.318 5.318 0 0 1 10.635 0z"/><path d="M31.972 30.27H18.027v-1.674a4.916 4.916 0 0 1 4.916-4.916h4.113a4.916 4.916 0 0 1 4.916 4.916v1.674zM19.332 37.988h11.337M16.602 34.141h3.983M29.414 34.141h3.984"/></g></g><defs><clipPath id="a"><path fill="#fff" d="M0 0h50v50H0z"/></clipPath></defs></svg>