<svg width="58" height="58" viewBox="0 0 58 58" fill="none" xmlns="http://www.w3.org/2000/svg">
<path d="M53.6863 22.7096C53.8241 22.63 53.9385 22.5157 54.018 22.3779C54.0976 22.2401 54.1395 22.0838 54.1394 21.9247V15.0098C54.1394 14.8507 54.0976 14.6945 54.018 14.5567C53.9385 14.4189 53.8241 14.3045 53.6863 14.225L47.6978 10.7676C47.5601 10.688 47.4038 10.6461 47.2447 10.6461C47.0856 10.6461 46.9293 10.688 46.7916 10.7676L41.2562 13.9635L35.896 10.8687V4.47705C35.8961 4.31797 35.8542 4.16169 35.7747 4.02392C35.6951 3.88616 35.5807 3.77176 35.4429 3.69224L29.4544 0.234783C29.3167 0.155188 29.1604 0.113281 29.0013 0.113281C28.8422 0.113281 28.6859 0.155188 28.5482 0.234783L22.5597 3.69224C22.4219 3.77175 22.3075 3.88615 22.2279 4.02391C22.1484 4.16168 22.1065 4.31797 22.1065 4.47705V10.8688L16.7464 13.9636L11.2112 10.7676C11.0734 10.688 10.9171 10.6461 10.758 10.6461C10.5989 10.6461 10.4427 10.688 10.3049 10.7676L4.31641 14.225C4.17862 14.3045 4.0642 14.4189 3.98466 14.5567C3.90511 14.6945 3.86325 14.8507 3.86328 15.0098V21.9247C3.86326 22.0838 3.90513 22.2401 3.98467 22.3779C4.06421 22.5156 4.17863 22.63 4.31641 22.7096L9.85178 25.9054V32.0947L4.31641 35.2905C4.17862 35.37 4.0642 35.4844 3.98466 35.6221C3.90511 35.7599 3.86325 35.9162 3.86328 36.0753V42.9902C3.86326 43.1493 3.90513 43.3056 3.98467 43.4433C4.06421 43.5811 4.17863 43.6955 4.31641 43.775L10.3049 47.2325C10.445 47.3135 10.6016 47.3539 10.758 47.3539C10.9145 47.3539 11.071 47.3135 11.2112 47.2325L16.7465 44.0366L22.1065 47.1312V53.523C22.1065 53.682 22.1484 53.8383 22.2279 53.9761C22.3075 54.1139 22.4219 54.2283 22.5597 54.3078L28.5482 57.7653C28.6883 57.8463 28.8449 57.8868 29.0013 57.8868C29.1577 57.8868 29.3143 57.8463 29.4544 57.7653L35.4428 54.3079C35.5806 54.2284 35.695 54.114 35.7746 53.9762C35.8541 53.8384 35.896 53.6822 35.8959 53.5231V47.1313L41.2559 44.0367L46.7913 47.2326C46.9315 47.3136 47.088 47.354 47.2444 47.354C47.4009 47.354 47.5574 47.3136 47.6976 47.2326L53.6861 43.7751C53.8239 43.6956 53.9383 43.5812 54.0178 43.4434C54.0974 43.3057 54.1392 43.1494 54.1392 42.9903V36.0754C54.1392 35.9163 54.0974 35.76 54.0178 35.6223C53.9383 35.4845 53.8239 35.3701 53.6861 35.2906L48.1507 32.0948V25.9056L53.6863 22.7096ZM48.1508 23.8126V18.9904L52.3268 16.5795V21.4015L48.1508 23.8126ZM47.2446 38.4864L43.0686 36.0753L47.2446 33.6642L51.4206 36.0753L47.2446 38.4864ZM34.9897 45.5617L29.9075 42.6275V40.255C35.7114 39.7919 40.2927 34.921 40.2927 29.0001C40.2927 27.2681 39.9003 25.6262 39.2005 24.158L41.2561 22.9711L46.3383 25.9053V32.0946L40.8029 35.2903C40.6651 35.3699 40.5507 35.4843 40.4712 35.622C40.3916 35.7598 40.3498 35.9161 40.3498 36.0752V42.4669L34.9897 45.5617ZM29.0013 49.0191L24.8253 46.6082L29.0013 44.197L33.1772 46.6081L29.0013 49.0191ZM17.6528 42.4671V36.0753C17.6528 35.9162 17.6109 35.7599 17.5314 35.6221C17.4518 35.4844 17.3374 35.37 17.1997 35.2905L11.6643 32.0947V25.9054L16.7465 22.9711L18.8021 24.158C18.1023 25.6262 17.7098 27.2681 17.7098 29.0001C17.7098 34.921 22.291 39.7919 28.095 40.255V42.6275L23.0128 45.5617L17.6528 42.4671ZM10.758 38.4864L6.58203 36.0753L10.758 33.6642L14.934 36.0753L10.758 38.4864ZM23.0128 12.4383L28.5482 15.6342C28.6883 15.7152 28.8449 15.7557 29.0013 15.7557C29.1577 15.7557 29.3143 15.7152 29.4544 15.6342L34.9897 12.4383L40.3497 15.533V21.4016L38.2914 22.59C36.2519 19.6431 32.8484 17.7085 29.0013 17.7085C25.154 17.7085 21.7507 19.643 19.7111 22.5899L17.6528 21.4015V15.533L23.0128 12.4383ZM28.095 8.45764V13.2798L23.919 10.8687V6.04656L28.095 8.45764ZM29.9075 8.45764L34.0834 6.04668V10.8687L29.9075 13.2798V8.45764ZM46.3383 18.9905V23.8127L42.1623 21.4016V16.5796L46.3383 18.9905ZM29.0013 38.479C23.7745 38.479 19.5223 34.2267 19.5223 29.0001C19.5223 23.7733 23.7745 19.521 29.0013 19.521C34.228 19.521 38.4802 23.7733 38.4802 29.0001C38.4802 34.2267 34.228 38.479 29.0013 38.479ZM11.6643 23.8126V18.9905L15.8403 16.5795V21.4015L11.6643 23.8126ZM47.2446 12.5988L51.4206 15.0098L47.2446 17.4208L43.0687 15.0098L47.2446 12.5988ZM29.0013 2.06597L33.1773 4.47705L29.0013 6.88813L24.8253 4.47705L29.0013 2.06597ZM10.758 12.5988L14.934 15.0098L10.758 17.4208L6.58192 15.0098L10.758 12.5988ZM5.67567 21.4015V16.5795L9.85167 18.9904V23.8126L5.67567 21.4015ZM5.67567 37.6449L9.85167 40.056V44.8781L5.67567 42.4669V37.6449ZM11.6643 44.878V40.0559L15.8403 37.6448V42.4668L11.6643 44.878ZM23.919 48.1777L28.095 50.5886V55.4108L23.919 52.9997V48.1777ZM34.0835 52.9997L29.9075 55.4109V50.5888L34.0834 48.1778V52.9997H34.0835ZM42.1623 37.6449L46.3383 40.056V44.8781L42.1623 42.4669V37.6449ZM48.1508 44.878V40.0559L52.3268 37.6448V42.4668L48.1508 44.878ZM22.1076 27.5734C21.9376 27.7434 21.7071 27.8388 21.4667 27.8388C21.2264 27.8388 20.9959 27.7434 20.8259 27.5734C20.6559 27.4034 20.5605 27.1729 20.5605 26.9326C20.5605 26.6922 20.6559 26.4617 20.8259 26.2917C25.3339 21.7839 32.6689 21.7839 37.1769 26.2917C37.3469 26.4617 37.4424 26.6922 37.4424 26.9326C37.4424 27.1729 37.3469 27.4034 37.1769 27.5734C37.007 27.7434 36.7764 27.8388 36.5361 27.8388C36.2957 27.8388 36.0652 27.7434 35.8953 27.5734C32.094 23.7721 25.9087 23.7721 22.1076 27.5734ZM35.1675 28.301C35.3375 28.471 35.433 28.7015 35.433 28.9418C35.433 29.1822 35.3375 29.4127 35.1675 29.5827C34.9976 29.7526 34.7671 29.8481 34.5267 29.8481C34.2863 29.8481 34.0558 29.7526 33.8859 29.5827C31.1924 26.8891 26.8099 26.8893 24.1168 29.5827C23.9469 29.7526 23.7164 29.8481 23.476 29.8481C23.2356 29.8481 23.0051 29.7526 22.8352 29.5827C22.6652 29.4127 22.5697 29.1822 22.5697 28.9418C22.5697 28.7015 22.6652 28.471 22.8352 28.301C24.4823 26.654 26.6721 25.7469 29.0015 25.7469C31.3306 25.7469 33.5204 26.654 35.1675 28.301ZM33.1584 30.3102C33.3283 30.4801 33.4238 30.7106 33.4238 30.951C33.4238 31.1914 33.3283 31.4219 33.1584 31.5918C32.9884 31.7618 32.7579 31.8573 32.5175 31.8573C32.2772 31.8573 32.0467 31.7618 31.8767 31.5918C31.1088 30.8238 30.0876 30.4007 29.0014 30.4007C27.9152 30.4007 26.894 30.8237 26.1261 31.5917C26.042 31.676 25.9422 31.7429 25.8322 31.7884C25.7222 31.834 25.6043 31.8574 25.4853 31.8572C25.3663 31.8574 25.2484 31.8341 25.1384 31.7885C25.0285 31.743 24.9286 31.6761 24.8446 31.5918C24.7604 31.5077 24.6936 31.4078 24.6481 31.2979C24.6025 31.1879 24.5791 31.0701 24.5791 30.9511C24.579 30.8321 24.6025 30.7142 24.648 30.6043C24.6935 30.4943 24.7603 30.3944 24.8444 30.3103C25.9548 29.1998 27.4311 28.5884 29.0014 28.5884C30.5716 28.5884 32.0479 29.1999 33.1584 30.3102ZM29.0013 31.4298C27.6784 31.4298 26.6021 32.506 26.6021 33.8289C26.6021 35.1518 27.6784 36.2281 29.0013 36.2281C30.3242 36.2281 31.4004 35.1518 31.4004 33.8289C31.4004 32.506 30.3242 31.4298 29.0013 31.4298ZM29.0013 34.4156C28.6779 34.4156 28.4146 34.1524 28.4146 33.8289C28.4146 33.5054 28.6778 33.2423 29.0013 33.2423C29.3248 33.2423 29.5879 33.5054 29.5879 33.8289C29.5879 34.1524 29.3248 34.4156 29.0013 34.4156Z" fill="#2166F3"/>
</svg>
