<svg width="50" height="50" fill="none" xmlns="http://www.w3.org/2000/svg"><path d="m23.632 20.82-.576-4.619-.01-.146V13.73c0-.673.567-1.23 1.25-1.23h1.406c.684 0 1.25.547 1.25 1.23v2.325l-.01.146-.566 4.62a1.253 1.253 0 0 1-1.24 1.083c-.41 0-.723 0-1.074-.302a1.25 1.25 0 0 1-.43-.782zm.586-4.756.576 4.62c.01.078.205.048.332.048.04 0 .069-.01.078-.048.362-2.96.567-4.18.567-6.944 0-.039-.04-.049-.079-.049h-1.406c-.039 0-.078.02-.078.05.01.595-.058 1.786.01 2.323zm-1.055 9.561v-1.162c0-.674.567-1.23 1.25-1.23h1.201c.684 0 1.25.546 1.25 1.23v1.162c0 .674-.566 1.22-1.25 1.22h-1.2c-.684 0-1.25-.546-1.25-1.22zm1.172-1.172v1.162c0 .03.04.05.078.05h1.201c.04 0 .078-.02.078-.05v-1.162c0-.03-.038-.049-.078-.049h-1.2c-.04 0-.079.02-.079.05zm4.121-14.726 8.281 14.335c.733 1.27.733 2.725 0 3.995a4.054 4.054 0 0 1-1.455 1.474 4.014 4.014 0 0 1-2.011.528H16.718c-1.465 0-2.734-.733-3.467-2.002-.732-1.26-.742-2.744 0-4.004l8.281-14.336c1.553-2.666 5.381-2.666 6.924.01zm7.276 14.921L27.45 10.313c-.527-.909-1.406-1.417-2.45-1.417-1.055 0-1.925.508-2.452 1.416l-8.281 14.336a2.777 2.777 0 0 0 0 2.832c.537.909 1.396 1.416 2.45 1.416h16.554c.527 0 1.005-.127 1.416-.36 1.318-.782 1.855-2.481 1.045-3.888zm-10.733 19.18a39.768 39.768 0 0 0 18.145-33.281L24.999 5.693 6.864 10.547A39.759 39.759 0 0 0 25 43.828zm14.258-13.672A41.052 41.052 0 0 1 25.331 45.01a.576.576 0 0 1-.634.01C12.694 37.401 5.634 24.2 5.701 10.264v-.127a.588.588 0 0 1 .43-.606l18.72-5.02a.532.532 0 0 1 .303 0l18.721 5.02c.244.069.43.293.43.557.049 7.031-1.65 13.877-5.049 20.068zm-14.56 18.291C10.82 40.41 2.284 25.4 2.782 9.111c.01-.459.03-.898.059-1.318a.584.584 0 0 1 .44-.527l21.572-5.782a.531.531 0 0 1 .302 0l21.573 5.782c.263.068.43.302.44.556.029.41.048.84.058 1.29.498 16.298-8.037 31.298-21.924 39.345a.607.607 0 0 1-.605-.01zM9.617 31.767A42.932 42.932 0 0 0 24.99 47.276c13.623-8.027 21.827-22.949 21.016-38.984L24.999 2.656 3.984 8.291a42.667 42.667 0 0 0 5.634 23.477z" fill="#000" stroke="#000" stroke-width=".5"/></svg>