<svg width="50" height="50" fill="none" xmlns="http://www.w3.org/2000/svg"><g clip-path="url(#a)"><path d="M29.492 11.719h6.717l-9.217 9.218 2.071 2.071 9.218-9.217v6.717h2.93V8.789H29.492v2.93zM44.141 0v2.93h2.93v2.93H50V0h-5.86zm2.93 38.086h-2.93v2.93H50v-5.86h-2.93v2.93zm0-29.297H50v5.86h-2.93v-5.86zm0 8.79H50v5.858h-2.93v-5.859zm0 8.788H50v5.86h-2.93v-5.86zM11.913 2.93h2.93V0h-5.86v5.86h2.93V2.93zm-2.93 5.86h2.93v5.858h-2.93V8.79zm0 8.788h2.93v5.86h-2.93v-5.86zM17.774 0h5.859v2.93h-5.86V0zm8.788 0h5.86v2.93h-5.86V0zm8.79 0h5.859v2.93h-5.86V0zm-8.79 38.086h5.86v2.93h-5.86v-2.93zm8.79 0h5.859v2.93h-5.86v-2.93zM0 50h23.438V26.562H0V50zm2.93-20.508h17.578V47.07H2.93V29.492z" fill="#000"/></g><defs><clipPath id="a"><path fill="#fff" d="M0 0h50v50H0z"/></clipPath></defs></svg>