<svg width="24" height="25" viewBox="0 0 24 25" fill="none" xmlns="http://www.w3.org/2000/svg">
<path d="M11.9992 1.69995C6.0442 1.69995 1.19922 6.54494 1.19922 12.5C1.19922 18.455 6.0442 23.2999 11.9992 23.2999C17.9542 23.2999 22.7992 18.455 22.7992 12.5C22.7992 6.54494 17.9542 1.69995 11.9992 1.69995ZM11.9992 21.9499C6.7884 21.9499 2.54922 17.7108 2.54922 12.5C2.54922 7.28913 6.7884 3.04996 11.9992 3.04996C17.21 3.04996 21.4492 7.28913 21.4492 12.5C21.4492 17.7108 17.21 21.9499 11.9992 21.9499Z" fill="#F7DF1E" stroke="#F7DF1E"/>
<path d="M12.6742 5.75H11.3242V12.7795L15.572 17.0272L16.5265 16.0727L12.6742 12.2205V5.75Z" fill="#F7DF1E" stroke="#F7DF1E"/>
</svg>
