<svg width="22" height="22" viewBox="0 0 22 22" fill="none" xmlns="http://www.w3.org/2000/svg">
<g clip-path="url(#clip0_430_1333)">
<path d="M17.9613 0.890858C15.0573 3.07986 11.2183 7.09486 8.27034 11.0219C7.68734 11.8029 7.19234 12.4299 7.15934 12.4299C7.12634 12.4299 6.02634 11.6159 4.72834 10.6149C3.43034 9.62486 2.28634 8.79986 2.19834 8.79986C1.97834 8.79986 0.449337 10.4279 0.372337 10.7469C0.317337 10.9449 0.691337 11.5939 2.05534 13.6619C4.05734 16.7089 5.28934 18.6669 6.29034 20.4049C7.04934 21.7139 7.30234 21.9009 7.64334 21.4279C7.74234 21.2849 8.27034 20.3609 8.82034 19.3599C12.7253 12.2649 17.2903 5.66486 20.9753 1.75986C22.1083 0.549858 21.9653 0.329858 20.0623 0.329858H18.7093L17.9613 0.890858Z" fill="#F7DF1E"/>
</g>
<defs>
<clipPath id="clip0_430_1333">
<rect width="22" height="22" fill="white"/>
</clipPath>
</defs>
</svg>
