<svg width="55" height="53" viewBox="0 0 55 53" fill="none" xmlns="http://www.w3.org/2000/svg">
<path d="M51.5627 25.6409C51.3348 25.6409 51.1162 25.7314 50.955 25.8926C50.7939 26.0537 50.7033 26.2723 50.7033 26.5002C50.7048 32.1294 48.6593 37.567 44.9482 41.7995C41.2371 46.0321 36.1135 48.7708 30.5325 49.5051C24.9515 50.2395 19.2938 48.9194 14.6141 45.791C9.9344 42.6625 6.55192 37.9391 5.09715 32.5012L8.1909 34.1341C8.39261 34.2405 8.62834 34.2625 8.84624 34.1951C9.06413 34.1277 9.24634 33.9766 9.35278 33.7748C9.45922 33.5731 9.48117 33.3374 9.4138 33.1195C9.34643 32.9016 9.19527 32.7194 8.99356 32.613L4.34004 30.1569C4.23182 30.0886 4.1104 30.0441 3.98374 30.0261C3.85708 30.0081 3.72804 30.0171 3.6051 30.0525C3.48216 30.0878 3.36809 30.1488 3.27037 30.2314C3.17265 30.3139 3.09349 30.4162 3.03809 30.5316L0.924887 35.6242C0.881664 35.7285 0.859403 35.8403 0.859375 35.9531C0.859347 36.066 0.881553 36.1778 0.924725 36.2821C0.967897 36.3864 1.03119 36.4812 1.11099 36.561C1.19079 36.6409 1.28553 36.7042 1.38981 36.7474C1.49409 36.7906 1.60586 36.8129 1.71874 36.8129C1.83162 36.813 1.9434 36.7908 2.0477 36.7476C2.152 36.7044 2.24677 36.6411 2.32661 36.5613C2.40645 36.4815 2.46979 36.3868 2.51301 36.2825L3.62075 33.6133C5.33319 39.3466 9.05121 44.2724 14.0955 47.4907C19.1399 50.7091 25.1737 52.0052 31.0947 51.1422C37.0157 50.2792 42.4286 47.3147 46.3444 42.7903C50.2601 38.266 52.4174 32.4838 52.4221 26.5002C52.4221 26.2723 52.3315 26.0537 52.1704 25.8926C52.0092 25.7314 51.7906 25.6409 51.5627 25.6409ZM53.6106 16.253C53.5063 16.2098 53.3945 16.1875 53.2817 16.1875C53.1688 16.1874 53.057 16.2096 52.9527 16.2528C52.8484 16.296 52.7536 16.3593 52.6737 16.4391C52.5939 16.5189 52.5306 16.6137 52.4874 16.718L51.3797 19.3872C49.6672 13.6539 45.9492 8.72809 40.9049 5.50972C35.8605 2.29135 29.8267 0.995281 23.9057 1.8583C17.9847 2.72131 12.5718 5.68581 8.65604 10.2102C4.74026 14.7345 2.58297 20.5167 2.57832 26.5002C2.57832 26.7282 2.66887 26.9467 2.83003 27.1079C2.99119 27.2691 3.20978 27.3596 3.4377 27.3596C3.66562 27.3596 3.88421 27.2691 4.04537 27.1079C4.20653 26.9467 4.29707 26.7282 4.29707 26.5002C4.29561 20.8711 6.34107 15.4335 10.0522 11.201C13.7633 6.9684 18.8869 4.2297 24.4679 3.49533C30.0489 2.76096 35.7066 4.08104 40.3863 7.20949C45.066 10.338 48.4485 15.0613 49.9032 20.4992L46.8095 18.8664C46.6078 18.76 46.3721 18.738 46.1542 18.8054C45.9363 18.8727 45.7541 19.0239 45.6476 19.2256C45.5412 19.4273 45.5192 19.6631 45.5866 19.881C45.654 20.0988 45.8051 20.2811 46.0068 20.3875L50.6638 22.8462C50.7712 22.917 50.8927 22.9638 51.0199 22.9831C51.147 23.0025 51.2769 22.994 51.4005 22.9583C51.5242 22.9226 51.6385 22.8605 51.7358 22.7763C51.8331 22.6921 51.911 22.5878 51.964 22.4706L54.0772 17.378C54.1207 17.2735 54.1431 17.1615 54.1432 17.0483C54.1432 16.9351 54.1209 16.8231 54.0776 16.7186C54.0342 16.6141 53.9706 16.5191 53.8905 16.4392C53.8104 16.3593 53.7152 16.2961 53.6106 16.253Z" fill="#2166F3" stroke="#2166F3" stroke-width="1.5"/>
<path d="M27.5 37.6719C29.7096 37.6719 31.8696 37.0167 33.7068 35.7891C35.544 34.5615 36.9759 32.8167 37.8215 30.7753C38.667 28.7339 38.8883 26.4876 38.4572 24.3205C38.0261 22.1533 36.9621 20.1627 35.3997 18.6003C33.8373 17.0379 31.8467 15.9739 29.6795 15.5428C27.5124 15.1117 25.2661 15.333 23.2247 16.1785C21.1833 17.0241 19.4385 18.456 18.2109 20.2932C16.9833 22.1304 16.3281 24.2904 16.3281 26.5C16.3315 29.4619 17.5097 32.3016 19.6041 34.3959C21.6985 36.4903 24.5381 37.6685 27.5 37.6719ZM27.5 17.0469C29.3697 17.0469 31.1973 17.6013 32.7519 18.64C34.3064 19.6787 35.5181 21.1551 36.2335 22.8824C36.949 24.6098 37.1362 26.5105 36.7715 28.3442C36.4067 30.1779 35.5064 31.8623 34.1844 33.1844C32.8623 34.5064 31.1779 35.4067 29.3442 35.7715C27.5105 36.1362 25.6098 35.949 23.8824 35.2336C22.1551 34.5181 20.6787 33.3064 19.64 31.7519C18.6013 30.1973 18.0469 28.3697 18.0469 26.5C18.0498 23.9938 19.0467 21.5911 20.8189 19.8189C22.5911 18.0467 24.9938 17.0498 27.5 17.0469Z" fill="#2166F3" stroke="#2166F3"/>
<path d="M33.5156 27.3594H34.375C34.6029 27.3594 34.8215 27.2688 34.9827 27.1077C35.1438 26.9465 35.2344 26.7279 35.2344 26.5C35.2344 26.2721 35.1438 26.0535 34.9827 25.8923C34.8215 25.7312 34.6029 25.6406 34.375 25.6406H33.5156C33.2877 25.6406 33.0691 25.7312 32.908 25.8923C32.7468 26.0535 32.6562 26.2721 32.6562 26.5C32.6562 26.7279 32.7468 26.9465 32.908 27.1077C33.0691 27.2688 33.2877 27.3594 33.5156 27.3594ZM22.3438 26.5C22.3438 26.2721 22.2532 26.0535 22.092 25.8923C21.9309 25.7312 21.7123 25.6406 21.4844 25.6406H20.625C20.3971 25.6406 20.1785 25.7312 20.0173 25.8923C19.8562 26.0535 19.7656 26.2721 19.7656 26.5C19.7656 26.7279 19.8562 26.9465 20.0173 27.1077C20.1785 27.2688 20.3971 27.3594 20.625 27.3594H21.4844C21.7123 27.3594 21.9309 27.2688 22.092 27.1077C22.2532 26.9465 22.3438 26.7279 22.3438 26.5ZM27.5 34.2344C27.7279 34.2344 27.9465 34.1438 28.1077 33.9827C28.2688 33.8215 28.3594 33.6029 28.3594 33.375V32.5156C28.3594 32.2877 28.2688 32.0691 28.1077 31.908C27.9465 31.7468 27.7279 31.6562 27.5 31.6562C27.2721 31.6562 27.0535 31.7468 26.8923 31.908C26.7312 32.0691 26.6406 32.2877 26.6406 32.5156V33.375C26.6406 33.6029 26.7312 33.8215 26.8923 33.9827C27.0535 34.1438 27.2721 34.2344 27.5 34.2344ZM27.9426 27.2365L32.2395 24.6584C32.3383 24.6013 32.4249 24.5252 32.494 24.4343C32.5632 24.3435 32.6135 24.2398 32.6421 24.1293C32.6707 24.0187 32.677 23.9036 32.6607 23.7907C32.6443 23.6777 32.6056 23.5691 32.5468 23.4712C32.488 23.3734 32.4103 23.2882 32.3182 23.2207C32.2261 23.1533 32.1215 23.1048 32.0105 23.0782C31.8995 23.0516 31.7843 23.0473 31.6716 23.0658C31.5589 23.0842 31.4511 23.1248 31.3543 23.1854L28.3594 24.9815V19.625C28.3594 19.3971 28.2688 19.1785 28.1077 19.0173C27.9465 18.8562 27.7279 18.7656 27.5 18.7656C27.2721 18.7656 27.0535 18.8562 26.8923 19.0173C26.7312 19.1785 26.6406 19.3971 26.6406 19.625V26.5C26.6407 26.6521 26.6811 26.8015 26.7577 26.9329C26.8343 27.0642 26.9445 27.1729 27.0769 27.2478C27.2093 27.3227 27.3592 27.3611 27.5113 27.3591C27.6634 27.3571 27.8122 27.3148 27.9426 27.2365Z" fill="#2166F3" stroke="#2166F3" stroke-width="0.3"/>
<path d="M9.28125 23.0797C9.08714 23.1193 8.91268 23.2248 8.7874 23.3783C8.66212 23.5317 8.59371 23.7238 8.59375 23.9219V29.0781C8.59371 29.2762 8.66212 29.4683 8.7874 29.6217C8.91268 29.7752 9.08714 29.8807 9.28125 29.9203L12.5727 30.5786C12.9123 31.8338 13.4129 33.0397 14.062 34.1665L12.2031 36.9637C12.0929 37.1291 12.0433 37.3275 12.0629 37.5252C12.0825 37.723 12.17 37.9078 12.3105 38.0483L15.9543 41.6912C16.0948 41.8317 16.2796 41.9192 16.4774 41.9388C16.6751 41.9584 16.8735 41.9088 17.0388 41.7986L19.8352 39.9346C20.9618 40.5835 22.1674 41.0841 23.4223 41.4239L24.0814 44.7153C24.1203 44.9098 24.2252 45.0848 24.3784 45.2107C24.5316 45.3367 24.7236 45.4057 24.9219 45.4062H30.0781C30.2762 45.4063 30.4683 45.3379 30.6217 45.2126C30.7752 45.0873 30.8807 44.9129 30.9203 44.7188L31.5795 41.4273C32.8343 41.0875 34.04 40.5869 35.1665 39.938L37.9629 41.7969C38.1282 41.9071 38.3266 41.9567 38.5244 41.9371C38.7221 41.9175 38.9069 41.83 39.0474 41.6895L42.6912 38.0466C42.8317 37.9061 42.9192 37.7212 42.9388 37.5235C42.9584 37.3258 42.9088 37.1274 42.7986 36.962L40.9346 34.1648C41.5837 33.038 42.0842 31.832 42.4239 30.5769L45.7153 29.9186C45.9098 29.8797 46.0848 29.7748 46.2107 29.6216C46.3367 29.4684 46.4057 29.2764 46.4062 29.0781V23.9219C46.4063 23.7238 46.3379 23.5317 46.2126 23.3783C46.0873 23.2248 45.9129 23.1193 45.7188 23.0797L42.4273 22.4214C42.0877 21.1662 41.5871 19.9603 40.938 18.8335L42.7969 16.0362C42.9071 15.8709 42.9567 15.6725 42.9371 15.4748C42.9175 15.277 42.83 15.0922 42.6895 14.9517L39.0457 11.3088C38.9052 11.1683 38.7204 11.0808 38.5226 11.0612C38.3249 11.0416 38.1265 11.0912 37.9612 11.2014L35.1648 13.0654C34.0382 12.4165 32.8326 11.9159 31.5777 11.5761L30.9203 8.28125C30.8807 8.08714 30.7752 7.91268 30.6217 7.7874C30.4683 7.66212 30.2762 7.59371 30.0781 7.59375H24.9219C24.7238 7.59371 24.5317 7.66212 24.3783 7.7874C24.2248 7.91268 24.1193 8.08714 24.0797 8.28125L23.4205 11.5727C22.1657 11.9125 20.96 12.4131 19.8335 13.062L17.0371 11.2031C16.8718 11.0929 16.6734 11.0433 16.4756 11.0629C16.2779 11.0825 16.0931 11.17 15.9526 11.3105L12.3088 14.9534C12.1683 15.0939 12.0808 15.2788 12.0612 15.4765C12.0416 15.6742 12.0912 15.8726 12.2014 16.038L14.0731 18.8464C13.4278 19.9694 12.9293 21.1706 12.5898 22.4205L9.28125 23.0797ZM16.6659 13.025L19.3299 14.7996C19.4674 14.8912 19.6285 14.9412 19.7937 14.9437C19.9589 14.9461 20.1213 14.9009 20.2615 14.8134C21.5203 14.0259 22.9012 13.4529 24.3478 13.1178C24.5091 13.0806 24.6562 12.9977 24.7714 12.8789C24.8866 12.7602 24.9652 12.6107 24.9975 12.4484L25.6266 9.3125H29.3734L30.0008 12.4458C30.0331 12.6081 30.1116 12.7576 30.2269 12.8763C30.3421 12.9951 30.4892 13.078 30.6505 13.1152C32.0972 13.4508 33.4781 14.0244 34.7368 14.8125C34.877 14.9 35.0394 14.9453 35.2046 14.9428C35.3698 14.9404 35.5308 14.8904 35.6684 14.7988L38.3324 13.0241L40.9802 15.671L39.2047 18.3351C39.1131 18.4726 39.0631 18.6336 39.0606 18.7988C39.0582 18.9641 39.1034 19.1265 39.1909 19.2666C39.9784 20.5258 40.5514 21.907 40.8865 23.3538C40.9237 23.5151 41.0066 23.6622 41.1254 23.7774C41.2441 23.8927 41.3936 23.9712 41.5559 24.0035L44.6875 24.6266V28.3734L41.5542 28.9999C41.3919 29.0323 41.2424 29.1108 41.1237 29.226C41.0049 29.3413 40.922 29.4884 40.8848 29.6496C40.5492 31.0966 39.9756 32.4777 39.1875 33.7368C39.1 33.877 39.0547 34.0394 39.0572 34.2046C39.0596 34.3698 39.1096 34.5308 39.2013 34.6684L40.9767 37.3324L38.3281 39.9776L35.6641 38.203C35.5265 38.1114 35.3655 38.0613 35.2003 38.0589C35.0351 38.0565 34.8727 38.1017 34.7325 38.1892C33.4736 38.9767 32.0928 39.5497 30.6462 39.8848C30.4849 39.922 30.3378 40.0049 30.2226 40.1237C30.1073 40.2424 30.0288 40.3919 29.9965 40.5542L29.3734 43.6875H25.6266L24.9992 40.5542C24.9669 40.3919 24.8884 40.2424 24.7731 40.1237C24.6579 40.0049 24.5108 39.922 24.3495 39.8848C22.9028 39.5492 21.5219 38.9756 20.2632 38.1875C20.123 38.1 19.9606 38.0547 19.7954 38.0572C19.6302 38.0596 19.4692 38.1096 19.3316 38.2013L16.6676 39.9759L14.0216 37.3281L15.797 34.6641C15.8886 34.5265 15.9387 34.3655 15.9411 34.2003C15.9435 34.0351 15.8983 33.8727 15.8108 33.7325C15.0233 32.4733 14.4503 31.0922 14.1152 29.6453C14.078 29.4841 13.9951 29.337 13.8763 29.2217C13.7576 29.1065 13.6081 29.028 13.4458 28.9956L10.3125 28.3734V24.6266L13.4458 24.0001C13.6068 23.9649 13.7549 23.8855 13.8731 23.7707C13.9914 23.6559 14.0753 23.5103 14.1152 23.3504C14.4508 21.9034 15.0244 20.5223 15.8125 19.2632C15.8941 19.121 15.9359 18.9595 15.9334 18.7955C15.931 18.6316 15.8845 18.4714 15.7988 18.3316L14.0233 15.6676L16.6659 13.025Z" fill="#2166F3" stroke="#2166F3" stroke-width="1.5"/>
</svg>
