<svg width="49" height="48" viewBox="0 0 49 48" fill="none" xmlns="http://www.w3.org/2000/svg">
<path d="M26.6049 23.6931C26.4737 23.6747 26.3439 23.6461 26.2166 23.6075C25.8738 23.5133 25.5471 23.7442 25.4598 24.1133C25.3724 24.4816 25.6066 24.864 25.9509 24.9574C26.1549 25.0124 26.1711 25.0171 26.4133 25.0564C26.497 25.0698 26.5823 25.0655 26.6644 25.0437C26.7466 25.0219 26.8239 24.983 26.8919 24.9292C26.96 24.8754 27.0175 24.8078 27.0611 24.7303C27.1048 24.6527 27.1337 24.5667 27.1463 24.4772C27.1589 24.3877 27.1548 24.2964 27.1344 24.2086C27.114 24.1207 27.0777 24.038 27.0274 23.9652C26.9771 23.8924 26.9139 23.8309 26.8415 23.7842C26.769 23.7375 26.6886 23.7066 26.6049 23.6931Z" fill="black" stroke="black" stroke-width="0.286957"/>
<path d="M16.9408 22.5655H18.3576C18.6783 22.5655 19.4256 22.4281 19.4256 21.1575V18.6249C19.4256 17.3543 18.6783 17.2169 18.3576 17.2169H18.3531C19.3405 14.6819 21.6396 13.0069 24.2044 13.0069C26.7633 13.0069 28.9046 14.6215 29.8992 17.2302C29.4727 17.2938 29.0404 17.608 29.0404 18.6249V21.1575C29.0404 22.3213 29.6063 22.5655 30.082 22.5655H30.1488C30.1033 22.9016 29.9815 23.3642 29.6827 23.6767C29.3898 23.9838 28.9684 24.1071 28.3871 24.0545C28.3027 24.0461 28.2176 24.0557 28.1367 24.0829C28.0558 24.11 27.9808 24.1541 27.9161 24.2126C27.8513 24.2711 27.7981 24.3427 27.7595 24.4235C27.7208 24.5042 27.6976 24.5923 27.6912 24.6827C27.6767 24.8648 27.7305 25.0456 27.8406 25.1854C27.9507 25.3251 28.1082 25.4124 28.2784 25.4279C28.3951 25.4381 28.5097 25.4436 28.622 25.4436C29.7488 25.4436 30.6186 24.9089 31.0914 23.9147C31.2374 23.6084 31.3945 23.0618 31.4415 22.5655H31.498C31.8188 22.5655 32.5661 22.4281 32.5661 21.1575V18.6249C32.5661 17.3543 31.8188 17.2169 31.498 17.2169H31.2763C31.2719 17.198 31.2756 17.1792 31.269 17.1603C30.1782 13.7993 27.4056 11.6279 24.2036 11.6279C20.9466 11.6279 18.0441 13.8652 16.9804 17.1949C16.9782 17.202 16.9797 17.209 16.9775 17.2169H16.9393C16.4644 17.2169 15.8984 17.4611 15.8984 18.6249V21.1575C15.8999 22.3213 16.4659 22.5655 16.9408 22.5655ZM30.3294 21.1873V18.5951H31.2771V21.1873H30.3294ZM18.1366 18.6249V21.1873H17.1889V18.5951H18.1366V18.6249Z" fill="black"/>
<path d="M18.3576 21.1873V21.8768M31.498 21.1873V21.8768M16.9408 22.5655H18.3576C18.6783 22.5655 19.4256 22.4281 19.4256 21.1575V18.6249C19.4256 17.3543 18.6783 17.2169 18.3576 17.2169H18.3531C19.3405 14.6819 21.6396 13.0069 24.2044 13.0069C26.7633 13.0069 28.9046 14.6215 29.8992 17.2302C29.4727 17.2938 29.0404 17.608 29.0404 18.6249V21.1575C29.0404 22.3213 29.6063 22.5655 30.082 22.5655H30.1488C30.1033 22.9016 29.9815 23.3642 29.6827 23.6767C29.3898 23.9838 28.9684 24.1071 28.3871 24.0545C28.3027 24.0461 28.2176 24.0557 28.1367 24.0829C28.0558 24.11 27.9808 24.1541 27.9161 24.2126C27.8513 24.2711 27.7981 24.3427 27.7595 24.4235C27.7208 24.5042 27.6976 24.5923 27.6912 24.6827C27.6767 24.8648 27.7305 25.0456 27.8406 25.1854C27.9507 25.3251 28.1082 25.4124 28.2784 25.4279C28.3951 25.4381 28.5097 25.4436 28.622 25.4436C29.7488 25.4436 30.6186 24.9089 31.0914 23.9147C31.2374 23.6084 31.3945 23.0618 31.4415 22.5655H31.498C31.8188 22.5655 32.5661 22.4281 32.5661 21.1575V18.6249C32.5661 17.3543 31.8188 17.2169 31.498 17.2169H31.2763C31.2719 17.198 31.2756 17.1792 31.269 17.1603C30.1782 13.7993 27.4056 11.6279 24.2036 11.6279C20.9466 11.6279 18.0441 13.8652 16.9804 17.1949C16.9782 17.202 16.9797 17.209 16.9775 17.2169H16.9393C16.4644 17.2169 15.8984 17.4611 15.8984 18.6249V21.1575C15.8999 22.3213 16.4659 22.5655 16.9408 22.5655ZM30.3294 21.1873V18.5951H31.2771V21.1873H30.3294ZM18.1366 18.6249V21.1873H17.1889V18.5951H18.1366V18.6249Z" stroke="black" stroke-width="0.286957"/>
<path d="M27.9844 22.8747C28.4124 21.8295 28.648 20.7528 28.648 19.8443C28.648 17.1397 26.6147 14.8545 24.2084 14.8545C21.8022 14.8545 19.7695 17.1397 19.7695 19.8443C19.7695 22.431 21.6759 26.4203 24.2084 26.4203C24.4711 26.4198 24.7324 26.3777 24.9836 26.2955C25.0646 26.2694 25.14 26.2265 25.2056 26.1692C25.2711 26.1119 25.3254 26.0414 25.3655 25.9617C25.4055 25.8819 25.4305 25.7945 25.439 25.7045C25.4474 25.6144 25.4392 25.5234 25.4148 25.4367C25.3905 25.3501 25.3504 25.2694 25.2968 25.1993C25.2433 25.1292 25.1774 25.0711 25.1028 25.0282C25.0283 24.9854 24.9466 24.9587 24.8624 24.9496C24.7782 24.9405 24.6932 24.9493 24.6121 24.9754C24.4816 25.0187 24.3458 25.0409 24.2091 25.0413C22.5847 25.0413 21.0593 21.7981 21.0593 19.8435C21.0593 17.9195 22.5311 16.2319 24.2091 16.2319C25.8872 16.2319 27.3597 17.9195 27.3597 19.8435C27.3597 20.5557 27.1579 21.4588 26.8055 22.3211C26.7464 22.4865 26.7491 22.6699 26.8129 22.8332C26.8768 22.9966 26.9969 23.1274 27.1485 23.1986C27.3001 23.2697 27.4714 23.2758 27.627 23.2155C27.7826 23.1552 27.9106 23.0332 27.9844 22.8747ZM23.5639 32.9359L23.5624 33.1173C23.5611 33.3001 23.6276 33.4759 23.7473 33.6062C23.8671 33.7365 24.0303 33.8107 24.2011 33.8123H24.2069C24.3769 33.8123 24.5399 33.7405 24.6606 33.6126C24.7813 33.4846 24.8499 33.3109 24.8515 33.1291L24.8529 32.9477C24.8543 32.765 24.7878 32.5891 24.668 32.4588C24.5483 32.3285 24.3851 32.2544 24.2143 32.2527H24.2084C24.0384 32.2525 23.8753 32.3242 23.7545 32.4522C23.6338 32.5802 23.5653 32.7541 23.5639 32.9359Z" fill="black" stroke="black" stroke-width="0.286957"/>
<path d="M36.8539 35.9225H31.8704V34.3723C31.8704 31.4926 30.4837 29.1069 28.065 27.8284C28.0569 27.8237 28.0481 27.8253 28.0393 27.8213C28.0217 27.8111 28.0099 27.7939 27.9916 27.7852C27.165 27.3965 26.7892 27.0423 26.7767 27.0305C26.6504 26.914 26.4868 26.8544 26.3203 26.8642C26.1538 26.874 25.9973 26.9524 25.8837 27.0831C25.7702 27.2137 25.7083 27.3864 25.7113 27.5648C25.7142 27.7431 25.7817 27.9134 25.8995 28.0397C25.9362 28.0766 26.1975 28.3271 26.7238 28.6459C26.2651 29.1995 25.5721 29.9778 24.9753 30.4058C24.8794 30.4746 24.8026 30.5697 24.7528 30.6811C24.703 30.7925 24.6822 30.9162 24.6924 31.0393C24.7026 31.1623 24.7435 31.2801 24.8108 31.3805C24.8781 31.4808 24.9694 31.5599 25.0751 31.6096C25.0854 31.6143 26.1278 32.1303 26.1638 33.1158C26.1684 33.2471 26.2081 33.3741 26.2781 33.4821C26.348 33.59 26.4454 33.6743 26.5587 33.725C26.6719 33.7756 26.7964 33.7906 26.9173 33.7681C27.0383 33.7456 27.1507 33.6866 27.2414 33.598C28.178 32.6847 28.5825 31.173 28.5678 29.8058C29.8554 30.9068 30.5814 32.5072 30.5814 34.3715V35.9217H24.8535V34.9165C24.8535 34.7336 24.7856 34.5583 24.6647 34.4289C24.5438 34.2996 24.3799 34.227 24.2089 34.227C24.038 34.227 23.8741 34.2996 23.7532 34.4289C23.6323 34.5583 23.5644 34.7336 23.5644 34.9165V35.9217H17.8365V34.3715C17.8365 32.4522 18.6044 30.8172 19.9602 29.7155C19.9198 31.1219 20.3235 32.7035 21.2896 33.6459C21.3806 33.7335 21.493 33.7917 21.6137 33.8137C21.7344 33.8356 21.8585 33.8204 21.9714 33.7697C22.0844 33.7191 22.1816 33.6352 22.2516 33.5278C22.3217 33.4203 22.3618 33.2938 22.3672 33.1629C22.4024 32.1782 23.4485 31.6599 23.4558 31.6567C23.6709 31.5554 23.8177 31.3371 23.839 31.0866C23.8603 30.8361 23.7516 30.5927 23.5556 30.4529C22.9397 30.0107 22.216 29.176 21.7594 28.6106C22.2468 28.309 22.4927 28.0742 22.5279 28.0389C22.6515 27.9147 22.7241 27.7433 22.73 27.5621C22.7359 27.3809 22.6746 27.2045 22.5595 27.0714C22.4438 26.938 22.2836 26.8587 22.1136 26.8508C21.9437 26.8428 21.7776 26.9069 21.6515 27.029C21.6478 27.0321 21.2727 27.3902 20.4366 27.7844C20.4329 27.786 20.4307 27.7891 20.4278 27.7915L20.416 27.7946C17.9577 29.0645 16.5475 31.462 16.5475 34.3715V35.9217H11.6755C11.4857 35.9217 11.3037 36.0023 11.1695 36.1459C11.0352 36.2895 10.9598 36.4843 10.9598 36.6873C10.9598 36.8904 11.0352 37.0852 11.1695 37.2287C11.3037 37.3723 11.4857 37.453 11.6755 37.453H36.8539C36.9498 37.4563 37.0453 37.4389 37.1348 37.4019C37.2242 37.365 37.3059 37.3091 37.3748 37.2377C37.4437 37.1663 37.4985 37.0809 37.5359 36.9864C37.5733 36.8919 37.5926 36.7903 37.5926 36.6877C37.5926 36.5851 37.5733 36.4835 37.5359 36.3891C37.4985 36.2946 37.4437 36.2091 37.3748 36.1377C37.3059 36.0663 37.2242 36.0105 37.1348 35.9735C37.0453 35.9365 36.9498 35.9192 36.8539 35.9225ZM26.9874 31.59C26.8283 31.3452 26.6403 31.1235 26.428 30.9303C26.7341 30.639 27.0322 30.3202 27.2949 30.0217C27.2796 30.5598 27.1755 31.0907 26.9874 31.59ZM21.5487 31.6308C21.3628 31.1289 21.2585 30.5966 21.2404 30.0571C21.5032 30.3594 21.8005 30.6822 22.1059 30.9759C21.915 31.1518 21.7183 31.3693 21.5487 31.6308ZM8.95877 35.9225H7.80556C7.61574 35.9225 7.43369 36.0031 7.29947 36.1467C7.16525 36.2903 7.08984 36.4851 7.08984 36.6881C7.08984 36.8912 7.16525 37.0859 7.29947 37.2295C7.43369 37.3731 7.61574 37.4538 7.80556 37.4538H8.95804C9.14785 37.4539 9.32994 37.3733 9.46423 37.2298C9.59852 37.0863 9.67402 36.8916 9.67412 36.6885C9.67421 36.4854 9.5989 36.2907 9.46475 36.147C9.33059 36.0033 9.14859 35.9226 8.95877 35.9225ZM40.8766 35.9225H39.741C39.5512 35.9225 39.3691 36.0031 39.2349 36.1467C39.1007 36.2903 39.0253 36.4851 39.0253 36.6881C39.0253 36.8912 39.1007 37.0859 39.2349 37.2295C39.3691 37.3731 39.5512 37.4538 39.741 37.4538H40.8766C41.0664 37.4538 41.2485 37.3731 41.3827 37.2295C41.5169 37.0859 41.5923 36.8912 41.5923 36.6881C41.5923 36.4851 41.5169 36.2903 41.3827 36.1467C41.2485 36.0031 41.0664 35.9225 40.8766 35.9225Z" fill="black" stroke="black" stroke-width="0.286957"/>
<path d="M28.4691 46.0625H44.2191C45.0039 46.0617 45.7564 45.6422 46.3117 44.8961C46.867 44.1499 47.1797 43.1379 47.1813 42.082L47.2998 6.0481C47.2988 4.99147 46.9864 3.9785 46.4311 3.23135C45.8758 2.4842 45.1229 2.06385 44.3376 2.0625H4.46657C3.6818 2.06331 2.92929 2.48278 2.37402 3.22894C1.81874 3.97511 1.50602 4.98708 1.50442 6.04299L1.38672 42.0769C1.38752 43.1336 1.69986 44.1467 2.2552 44.8939C2.81054 45.6412 3.56351 46.0614 4.34888 46.0625H20.2804H21.7588L21.7589 46.0615H26.9709H28.5085M42.8303 40.1639C42.8303 41.2632 42.1659 42.1561 41.3496 42.1561H7.21768C6.82562 42.1556 6.44969 41.9461 6.17218 41.5735C5.89467 41.2008 5.73819 40.6955 5.73698 40.1679L5.85544 7.96115C5.85544 6.86181 6.51985 5.96886 7.33614 5.96886H41.468C42.2843 5.96886 42.9487 6.86283 42.9487 7.95706L42.8303 40.1639Z" stroke="black" stroke-width="2.3913"/>
</svg>
