<svg width="55" height="55" viewBox="0 0 55 55" fill="none" xmlns="http://www.w3.org/2000/svg">
<path d="M53.1667 21.0833H48.5283C48.1229 19.728 47.576 18.4192 46.8967 17.1783L50.1783 13.8967C50.3502 13.7262 50.4866 13.5235 50.5796 13.3001C50.6727 13.0766 50.7206 12.837 50.7206 12.595C50.7206 12.353 50.6727 12.1134 50.5796 11.8899C50.4866 11.6665 50.3502 11.4638 50.1783 11.2933L43.7067 4.82167C43.5362 4.64983 43.3335 4.51344 43.1101 4.42037C42.8866 4.32729 42.647 4.27937 42.405 4.27937C42.163 4.27937 41.9234 4.32729 41.6999 4.42037C41.4765 4.51344 41.2738 4.64983 41.1033 4.82167L37.8217 8.10333C36.5808 7.42399 35.272 6.87709 33.9167 6.47167V1.83333C33.9167 1.3471 33.7235 0.880788 33.3797 0.536971C33.0359 0.193154 32.5696 0 32.0833 0H22.9167C22.4304 0 21.9641 0.193154 21.6203 0.536971C21.2765 0.880788 21.0833 1.3471 21.0833 1.83333V6.47167C19.728 6.87709 18.4192 7.42399 17.1783 8.10333L13.8967 4.82167C13.7262 4.64983 13.5235 4.51344 13.3001 4.42037C13.0766 4.32729 12.837 4.27937 12.595 4.27937C12.353 4.27937 12.1134 4.32729 11.8899 4.42037C11.6665 4.51344 11.4638 4.64983 11.2933 4.82167L4.82167 11.2933C4.64983 11.4638 4.51344 11.6665 4.42037 11.8899C4.32729 12.1134 4.27937 12.353 4.27937 12.595C4.27937 12.837 4.32729 13.0766 4.42037 13.3001C4.51344 13.5235 4.64983 13.7262 4.82167 13.8967L8.10333 17.1783C7.42399 18.4192 6.87709 19.728 6.47167 21.0833H1.83333C1.3471 21.0833 0.880788 21.2765 0.536971 21.6203C0.193154 21.9641 0 22.4304 0 22.9167V32.0833C0 32.5696 0.193154 33.0359 0.536971 33.3797C0.880788 33.7235 1.3471 33.9167 1.83333 33.9167H6.47167C6.87709 35.272 7.42399 36.5808 8.10333 37.8217L4.82167 41.1033C4.64983 41.2738 4.51344 41.4765 4.42037 41.6999C4.32729 41.9234 4.27937 42.163 4.27937 42.405C4.27937 42.647 4.32729 42.8866 4.42037 43.1101C4.51344 43.3335 4.64983 43.5362 4.82167 43.7067L11.2933 50.1783C11.4638 50.3502 11.6665 50.4866 11.8899 50.5796C12.1134 50.6727 12.353 50.7206 12.595 50.7206C12.837 50.7206 13.0766 50.6727 13.3001 50.5796C13.5235 50.4866 13.7262 50.3502 13.8967 50.1783L17.1783 46.8967C18.4192 47.576 19.728 48.1229 21.0833 48.5283V53.1667C21.0833 53.6529 21.2765 54.1192 21.6203 54.463C21.9641 54.8068 22.4304 55 22.9167 55H32.0833C32.5696 55 33.0359 54.8068 33.3797 54.463C33.7235 54.1192 33.9167 53.6529 33.9167 53.1667V48.5283C35.272 48.1229 36.5808 47.576 37.8217 46.8967L41.1033 50.1783C41.2738 50.3502 41.4765 50.4866 41.6999 50.5796C41.9234 50.6727 42.163 50.7206 42.405 50.7206C42.647 50.7206 42.8866 50.6727 43.1101 50.5796C43.3335 50.4866 43.5362 50.3502 43.7067 50.1783L50.1783 43.7067C50.3502 43.5362 50.4866 43.3335 50.5796 43.1101C50.6727 42.8866 50.7206 42.647 50.7206 42.405C50.7206 42.163 50.6727 41.9234 50.5796 41.6999C50.4866 41.4765 50.3502 41.2738 50.1783 41.1033L46.8967 37.8217C47.576 36.5808 48.1229 35.272 48.5283 33.9167H53.1667C53.6529 33.9167 54.1192 33.7235 54.463 33.3797C54.8068 33.0359 55 32.5696 55 32.0833V22.9167C55 22.4304 54.8068 21.9641 54.463 21.6203C54.1192 21.2765 53.6529 21.0833 53.1667 21.0833ZM51.3333 30.25H47.1167C46.6954 30.2387 46.2831 30.373 45.9492 30.6301C45.6153 30.8872 45.3801 31.2515 45.2833 31.6617C44.8231 33.6043 44.0557 35.461 43.01 37.1617C42.7887 37.5136 42.6936 37.9302 42.7402 38.3433C42.7869 38.7563 42.9725 39.1413 43.2667 39.435L46.2367 42.405L42.35 46.2917L39.38 43.3217C39.0863 43.0275 38.7013 42.8419 38.2883 42.7952C37.8752 42.7486 37.4586 42.8437 37.1067 43.065C35.406 44.1107 33.5493 44.8781 31.6067 45.3383C31.1965 45.4351 30.8322 45.6703 30.5751 46.0042C30.318 46.3381 30.1837 46.7504 30.195 47.1717V51.3333H24.695V47.1167C24.7063 46.6954 24.572 46.2831 24.3149 45.9492C24.0578 45.6153 23.6935 45.3801 23.2833 45.2833C21.3407 44.8231 19.484 44.0557 17.7833 43.01C17.4314 42.7887 17.0148 42.6936 16.6017 42.7402C16.1887 42.7869 15.8037 42.9725 15.51 43.2667L12.595 46.2917L8.70833 42.405L11.6783 39.435C11.9725 39.1413 12.1581 38.7563 12.2048 38.3433C12.2514 37.9302 12.1563 37.5136 11.935 37.1617C10.8893 35.461 10.1219 33.6043 9.66167 31.6617C9.56489 31.2515 9.32975 30.8872 8.99583 30.6301C8.66192 30.373 8.24962 30.2387 7.82833 30.25H3.66667V24.75H7.88333C8.30462 24.7613 8.71692 24.627 9.05083 24.3699C9.38475 24.1128 9.61989 23.7485 9.71667 23.3383C10.1769 21.3957 10.9443 19.539 11.99 17.8383C12.2113 17.4864 12.3064 17.0698 12.2598 16.6567C12.2131 16.2437 12.0275 15.8587 11.7333 15.565L8.70833 12.595L12.595 8.70833L15.565 11.6783C15.8587 11.9725 16.2437 12.1581 16.6567 12.2048C17.0698 12.2514 17.4864 12.1563 17.8383 11.935C19.539 10.8893 21.3957 10.1219 23.3383 9.66167C23.7485 9.56489 24.1128 9.32975 24.3699 8.99583C24.627 8.66192 24.7613 8.24962 24.75 7.82833V3.66667H30.25V7.88333C30.2387 8.30462 30.373 8.71692 30.6301 9.05083C30.8872 9.38475 31.2515 9.61989 31.6617 9.71667C33.6043 10.1769 35.461 10.9443 37.1617 11.99C37.5136 12.2113 37.9302 12.3064 38.3433 12.2598C38.7563 12.2131 39.1413 12.0275 39.435 11.7333L42.405 8.76333L46.2917 12.65L43.3217 15.565C43.0275 15.8587 42.8419 16.2437 42.7952 16.6567C42.7486 17.0698 42.8437 17.4864 43.065 17.8383C44.1107 19.539 44.8781 21.3957 45.3383 23.3383C45.4351 23.7485 45.6703 24.1128 46.0042 24.3699C46.3381 24.627 46.7504 24.7613 47.1717 24.75H51.3333V30.25Z" fill="#2166F3"/>
<path d="M27.5007 12.833C24.5999 12.833 21.7642 13.6932 19.3523 15.3048C16.9404 16.9164 15.0605 19.207 13.9504 21.887C12.8403 24.567 12.5499 27.5159 13.1158 30.361C13.6817 33.2061 15.0786 35.8194 17.1298 37.8706C19.1809 39.9217 21.7943 41.3186 24.6393 41.8845C27.4844 42.4504 30.4334 42.16 33.1133 41.0499C35.7933 39.9398 38.0839 38.06 39.6955 35.648C41.3071 33.2361 42.1673 30.4005 42.1673 27.4997C42.1673 23.6098 40.6221 19.8793 37.8716 17.1288C35.121 14.3782 31.3905 12.833 27.5007 12.833ZM27.5007 38.4997C25.3251 38.4997 23.1983 37.8545 21.3894 36.6458C19.5804 35.4371 18.1705 33.7192 17.338 31.7092C16.5054 29.6992 16.2876 27.4875 16.712 25.3537C17.1365 23.2199 18.1841 21.2599 19.7225 19.7215C21.2609 18.1831 23.2209 17.1355 25.3547 16.711C27.4885 16.2866 29.7002 16.5044 31.7102 17.337C33.7202 18.1696 35.4381 19.5795 36.6468 21.3884C37.8555 23.1973 38.5007 25.3241 38.5007 27.4997C38.5007 30.4171 37.3417 33.2149 35.2788 35.2778C33.2159 37.3407 30.418 38.4997 27.5007 38.4997Z" fill="#2166F3"/>
<path d="M25.942 27.9768L22.917 24.9518L20.332 27.5002L24.6404 31.8085C24.8117 31.9784 25.0148 32.1129 25.2382 32.2041C25.4616 32.2953 25.7008 32.3416 25.942 32.3402C26.423 32.3382 26.8839 32.1472 27.2254 31.8085L34.6687 24.4752L32.0837 21.8535L25.942 27.9768Z" fill="#2166F3"/>
</svg>
