<svg width="55" height="55" viewBox="0 0 55 55" fill="none" xmlns="http://www.w3.org/2000/svg">
<path fill-rule="evenodd" clip-rule="evenodd" d="M26.078 0.588512C26.4553 0.211669 26.9668 0 27.5 0C28.0333 0 28.5448 0.211669 28.9221 0.588512L38.3129 9.97937C38.6898 10.3567 38.9014 10.8681 38.9014 11.4014C38.9014 11.9347 38.6898 12.4461 38.3129 12.8235L28.9221 22.2143C28.5448 22.5912 28.0333 22.8028 27.5 22.8028C26.9668 22.8028 26.4553 22.5912 26.078 22.2143L16.6871 12.8235C16.3103 12.4461 16.0986 11.9347 16.0986 11.4014C16.0986 10.8681 16.3103 10.3567 16.6871 9.97937L26.078 0.588512ZM20.9533 11.4014L27.5 17.9482L34.0468 11.4014L27.5 4.85465L20.9533 11.4014ZM26.078 32.7857C26.4553 32.4089 26.9668 32.1972 27.5 32.1972C28.0333 32.1972 28.5448 32.4089 28.9221 32.7857L38.3129 42.1766C38.6898 42.5539 38.9014 43.0654 38.9014 43.5987C38.9014 44.1319 38.6898 44.6434 38.3129 45.0207L28.9221 54.4116C28.5448 54.7884 28.0333 55.0001 27.5 55.0001C26.9668 55.0001 26.4553 54.7884 26.078 54.4116L16.6871 45.0207C16.3103 44.6434 16.0986 44.1319 16.0986 43.5987C16.0986 43.0654 16.3103 42.5539 16.6871 42.1766L26.078 32.7857ZM20.9533 43.5987L27.5 50.1454L34.0468 43.5987L27.5 37.0519L20.9533 43.5987ZM42.1766 16.6871C42.5539 16.3103 43.0654 16.0986 43.5987 16.0986C44.1319 16.0986 44.6434 16.3103 45.0207 16.6871L54.4116 26.078C54.7884 26.4553 55.0001 26.9668 55.0001 27.5C55.0001 28.0333 54.7884 28.5448 54.4116 28.9221L45.0207 38.3129C44.6434 38.6898 44.1319 38.9014 43.5987 38.9014C43.0654 38.9014 42.5539 38.6898 42.1766 38.3129L32.7857 28.9221C32.4089 28.5448 32.1972 28.0333 32.1972 27.5C32.1972 26.9668 32.4089 26.4553 32.7857 26.078L42.1766 16.6871ZM37.0519 27.5L43.5987 34.0468L50.1454 27.5L43.5987 20.9533L37.0519 27.5ZM9.97937 16.6871C10.3567 16.3103 10.8681 16.0986 11.4014 16.0986C11.9347 16.0986 12.4461 16.3103 12.8235 16.6871L22.2143 26.078C22.5912 26.4553 22.8028 26.9668 22.8028 27.5C22.8028 28.0333 22.5912 28.5448 22.2143 28.9221L12.8235 38.3129C12.4461 38.6898 11.9347 38.9014 11.4014 38.9014C10.8681 38.9014 10.3567 38.6898 9.97937 38.3129L0.588512 28.9221C0.211669 28.5448 0 28.0333 0 27.5C0 26.9668 0.211669 26.4553 0.588512 26.078L9.97937 16.6871ZM4.85465 27.5L11.4014 34.0468L17.9482 27.5L11.4014 20.9533L4.85465 27.5Z" fill="#2166F3"/>
</svg>
