<svg width="54" height="57" viewBox="0 0 54 57" fill="none" xmlns="http://www.w3.org/2000/svg">
<path d="M20.2962 14.7601H14.4787V3.37612H39.0463V8.04276L36.9641 5.96057C36.392 5.38846 35.4645 5.38846 34.8924 5.96057C34.3204 6.53256 34.3204 7.4601 34.8924 8.03221L39.4753 12.6151C39.4761 12.6159 39.4773 12.6161 39.4781 12.6168C39.6133 12.752 39.7738 12.8593 39.9505 12.9325C40.2181 13.0434 40.5127 13.0724 40.7968 13.0158C41.081 12.9593 41.342 12.8199 41.5469 12.6151L46.1298 8.03221C46.7018 7.46022 46.7018 6.53268 46.1298 5.96057C45.5578 5.38858 44.6302 5.38858 44.0581 5.96057L41.9758 8.04288V1.91127C41.9758 1.10221 41.3199 0.44643 40.511 0.44643H13.014C12.205 0.44643 11.5491 1.10221 11.5491 1.91127V14.7601H5.7316C2.84691 14.7601 0.5 17.1069 0.5 19.9917V50.8789C0.5 53.7636 2.8468 56.1105 5.7316 56.1105H20.2964C23.1811 56.1105 25.528 53.7636 25.528 50.8789V19.9917C25.5279 17.1069 23.1811 14.7601 20.2962 14.7601ZM22.5982 50.8789C22.5982 52.1481 21.5655 53.1808 20.2962 53.1808H5.7316C4.46234 53.1808 3.42969 52.1481 3.42969 50.8789V19.9917C3.42969 18.7224 4.46234 17.6898 5.7316 17.6898H20.2964C21.5656 17.6898 22.5983 18.7224 22.5983 19.9917L22.5982 50.8789ZM47.7935 14.7601H33.2288C30.3441 14.7601 27.9972 17.1069 27.9972 19.9917V50.8789C27.9972 53.7636 30.3441 56.1105 33.2288 56.1105H47.7936C50.6783 56.1105 53.0252 53.7636 53.0252 50.8789V19.9917C53.0251 17.1069 50.6783 14.7601 47.7935 14.7601ZM50.0954 50.8789C50.0954 52.1481 49.0627 53.1808 47.7935 53.1808H33.2288C31.9596 53.1808 30.9269 52.1481 30.9269 50.8789V19.9917C30.9269 18.7224 31.9596 17.6898 33.2288 17.6898H47.7936C49.0629 17.6898 50.0955 18.7224 50.0955 19.9917V50.8789H50.0954ZM19.8778 24.1351C19.8778 24.944 19.2219 25.5999 18.4129 25.5999H7.61492C6.80598 25.5999 6.15008 24.944 6.15008 24.1351C6.15008 23.3261 6.80598 22.6702 7.61492 22.6702H18.4129C19.2219 22.6702 19.8778 23.3261 19.8778 24.1351ZM19.8778 31.6686C19.8778 32.4775 19.2219 33.1334 18.4129 33.1334H7.61492C6.80598 33.1334 6.15008 32.4775 6.15008 31.6686C6.15008 30.8596 6.80598 30.2037 7.61492 30.2037H18.4129C19.2219 30.2037 19.8778 30.8595 19.8778 31.6686ZM19.8778 39.202C19.8778 40.0109 19.2219 40.6668 18.4129 40.6668H7.61492C6.80598 40.6668 6.15008 40.0109 6.15008 39.202C6.15008 38.393 6.80598 37.7371 7.61492 37.7371H18.4129C19.2219 37.7371 19.8778 38.393 19.8778 39.202ZM19.8778 46.7355C19.8778 47.5444 19.2219 48.2003 18.4129 48.2003H7.61492C6.80598 48.2003 6.15008 47.5444 6.15008 46.7355C6.15008 45.9265 6.80598 45.2706 7.61492 45.2706H18.4129C19.2219 45.2706 19.8778 45.9265 19.8778 46.7355Z" fill="#2166F3"/>
</svg>
