<svg width="61" height="60" viewBox="0 0 61 60" fill="none" xmlns="http://www.w3.org/2000/svg">
<mask id="path-1-inside-1_415_258" fill="white">
<path d="M55.5846 56.9535L58.091 56.4523C58.7919 56.3105 59.4223 55.931 59.8756 55.378C60.329 54.825 60.5775 54.1325 60.5791 53.4174C60.5781 52.5969 60.2517 51.8103 59.6715 51.2302C59.0913 50.65 58.3047 50.3236 57.4843 50.3226H56.7081C56.7081 49.2552 55.8401 48.3871 54.7726 48.3871H45.0952V36.7742C45.0952 35.7068 44.2272 34.8387 43.1597 34.8387H41.2243V32.9032H42.192C50.1962 32.9032 56.7081 26.3913 56.7081 18.3871V13.5484C57.7756 13.5484 58.6436 12.6803 58.6436 11.6129V1.93548C58.6436 0.868064 57.7756 0 56.7081 0H50.9017C49.8343 0 48.9662 0.868064 48.9662 1.93548V9.85548C48.4018 10.0544 47.9128 10.4232 47.5662 10.9111C47.2197 11.399 47.0326 11.9822 47.0307 12.5806V14.8984C47.0307 15.4742 47.1991 16.0306 47.5185 16.5087L48.9604 18.6716C48.8104 22.2755 45.8317 25.1613 42.192 25.1613H35.4178V23.2258C37.5526 23.2258 39.2888 21.4897 39.2888 19.3548V16.8523L41.6249 14.5161L40.9407 13.8319C40.4152 13.3093 39.9987 12.6876 39.7151 12.0029C39.4315 11.3182 39.2866 10.584 39.2888 9.8429V9.67742H41.2243C42.2917 9.67742 43.1597 8.80935 43.1597 7.74194C43.1597 3.47323 39.6865 0 35.4178 0H29.5514C23.1807 0 17.9985 5.18226 17.9985 11.5529C17.9923 13.5135 18.4881 15.443 19.4385 17.1578C20.389 18.8726 21.7626 20.3156 23.4285 21.3494L25.7404 22.7942V25.1613H18.9662C15.3265 25.1613 12.3478 22.2755 12.1978 18.6706L13.6397 16.5087C13.9584 16.0318 14.1282 15.471 14.1275 14.8974V12.5806C14.1256 11.9822 13.9385 11.399 13.592 10.9111C13.2454 10.4232 12.7564 10.0544 12.192 9.85548V1.93548C12.192 0.868064 11.3239 0 10.2565 0H6.83555L2.51459 6.48097V11.6129C2.51459 12.6803 3.38265 13.5484 4.45007 13.5484V18.3871C4.45007 26.3913 10.962 32.9032 18.9662 32.9032H19.9339V34.8387H17.9985C16.931 34.8387 16.063 35.7068 16.063 36.7742V52.2581C16.063 53.3255 16.931 54.1935 17.9985 54.1935H25.4539L24.9004 58.0645H14.1275V44.5161C14.1275 43.4487 13.2594 42.5806 12.192 42.5806H2.51459C1.44717 42.5806 0.579102 43.4487 0.579102 44.5161V60H60.5791V58.0645H54.6662C55.0097 57.7277 55.3175 57.3561 55.5846 56.9535ZM57.4843 52.2581C57.7916 52.2586 58.0862 52.3809 58.3035 52.5982C58.5208 52.8155 58.6431 53.1101 58.6436 53.4174C58.6436 53.9681 58.2517 54.4461 57.7117 54.5545L56.5185 54.7935C56.6423 54.2801 56.7059 53.754 56.7081 53.2258V52.2581H57.4843ZM12.192 44.5161V46.4516H2.51459V44.5161H12.192ZM6.81813 49.9916L6.01588 48.3871H8.69071L7.88846 49.9926C7.68426 50.4 7.02233 50.4 6.81813 49.9916ZM3.852 48.3871L4.81975 50.3226H2.51459V48.3871H3.852ZM12.192 52.2581V54.1935H2.51459V52.2581H12.192ZM9.88684 50.3226L10.8546 48.3871H12.192V50.3226H9.88684ZM2.51459 58.0645V56.129H12.192V58.0645H2.51459ZM54.5946 11.6129C54.3956 11.0485 54.0269 10.5595 53.539 10.2129C53.0511 9.8664 52.4679 9.67934 51.8694 9.67742H50.9017V5.80645H56.7081V11.6129H54.5946ZM56.7081 1.93548V3.87097H50.9017V1.93548H56.7081ZM48.9662 12.5806C48.9662 12.0474 49.4007 11.6129 49.9339 11.6129H51.8694C52.4026 11.6129 52.8372 12.0474 52.8372 12.5806C52.8372 13.1139 52.4026 13.5484 51.8694 13.5484H50.9017V15.4839H51.8694C52.4679 15.482 53.0511 15.2949 53.539 14.9484C54.0269 14.6018 54.3956 14.1128 54.5946 13.5484H54.7726V17.4194H50.4517L49.1288 15.4345C49.0226 15.2759 48.966 15.0893 48.9662 14.8984V12.5806ZM50.8446 19.3548H54.7233C54.2268 25.8397 48.8026 30.9677 42.192 30.9677H41.2243V29.0323H39.2888V34.8387H34.0804L32.6636 32.0052L33.4068 30.8903L36.0972 32.5045L37.1791 27.0968H42.192C46.6668 27.0968 50.3607 23.7029 50.8446 19.3548ZM26.4797 27.0968L28.5701 28.1419L26.4207 29.4319L25.9533 27.0968H26.4797ZM34.6785 27.0968H35.2049L34.7385 29.4319L32.5891 28.1419L34.6785 27.0968ZM30.5791 29.1929L31.7452 29.8926L31.0291 30.9677H30.1291L29.413 29.8926L30.5791 29.1929ZM30.2094 32.9032H30.9488L31.9165 34.8387H29.2417L30.2094 32.9032ZM38.9307 14.4735L37.3533 16.051V17.4194H35.4178C34.3504 17.4194 33.4823 16.5513 33.4823 15.4839H31.5468C31.5468 17.6187 33.283 19.3548 35.4178 19.3548H37.3533C37.3533 20.4223 36.4852 21.2903 35.4178 21.2903H29.6114V23.2258H33.4823V25.531L30.5791 26.9826L27.6759 25.531V17.0187L26.0239 15.3668C25.9338 15.2769 25.8623 15.1701 25.8136 15.0526C25.765 14.935 25.7401 14.8089 25.7404 14.6816V14.5161C25.7404 13.9829 26.1749 13.5484 26.7081 13.5484H27.6759V10.6452C27.6759 10.1119 28.1104 9.67742 28.6436 9.67742H37.3533V9.8429C37.3533 11.5403 37.9078 13.1526 38.9307 14.4735ZM24.4533 19.7081C23.0667 18.8473 21.9235 17.646 21.1324 16.2186C20.3414 14.7911 19.9288 13.1849 19.9339 11.5529C19.9339 6.24968 24.2481 1.93548 29.5514 1.93548H35.4178C38.6201 1.93548 41.2243 4.53968 41.2243 7.74194H28.6436C27.043 7.74194 25.7404 9.04452 25.7404 10.6452V11.7784C25.1747 11.9793 24.6851 12.3502 24.3386 12.8404C23.992 13.3305 23.8056 13.9159 23.8049 14.5161V14.6816C23.8049 15.4568 24.1068 16.1865 24.6556 16.7352L25.7404 17.82V20.5123L24.4533 19.7081ZM10.2565 9.67742H9.28878C8.69033 9.67934 8.10713 9.8664 7.61921 10.2129C7.1313 10.5595 6.76257 11.0485 6.56362 11.6129H4.45007V7.74194H6.38555C7.45297 7.74194 8.32104 6.87387 8.32104 5.80645V1.93548H10.2565V9.67742ZM5.29007 5.80645L6.38555 4.16419V5.80645H5.29007ZM6.56362 13.5484C6.76257 14.1128 7.1313 14.6018 7.61921 14.9484C8.10713 15.2949 8.69033 15.482 9.28878 15.4839H10.2565V13.5484H9.28878C8.75555 13.5484 8.32104 13.1139 8.32104 12.5806C8.32104 12.0474 8.75555 11.6129 9.28878 11.6129H11.2243C11.7575 11.6129 12.192 12.0474 12.192 12.5806V14.8984C12.192 15.09 12.1359 15.2758 12.0294 15.4355L10.7065 17.4194H6.38555V13.5484H6.56362ZM19.9339 29.0323V30.9677H18.9662C12.3556 30.9677 6.93136 25.8397 6.43491 19.3548H10.3136C10.7975 23.7029 14.4914 27.0968 18.9662 27.0968H23.9791L25.061 32.5035L27.7514 30.8894L28.4946 32.0042L27.0778 34.8387H21.8694V29.0323H19.9339ZM17.9985 52.2581V36.7742H43.1597V52.2581H35.4275L34.6775 47.009C34.5761 46.3185 34.2304 45.6872 33.7032 45.2298C33.176 44.7723 32.5022 44.5191 31.8043 44.5161H29.3549C28.6569 44.5189 27.983 44.7721 27.4558 45.2295C26.9286 45.687 26.5829 46.3184 26.4817 47.009L25.7307 52.2581H17.9985ZM28.3968 47.2819C28.4646 46.8087 28.8759 46.4516 29.3539 46.4516H31.8033C32.2814 46.4516 32.6927 46.8087 32.7614 47.2829L34.302 58.0645H26.8562L28.3968 47.2819ZM36.2568 58.0645L35.7033 54.1935H43.2362C43.4472 55.6651 44.1381 57.0258 45.2017 58.0645H36.2568ZM45.0952 53.2258V50.3226H54.7726V53.2258C54.7726 55.8939 52.602 58.0645 49.9339 58.0645C47.2659 58.0645 45.0952 55.8939 45.0952 53.2258ZM54.7726 41.6129C54.7726 41.0797 54.3381 40.6452 53.8049 40.6452H49.9339C48.3333 40.6452 47.0307 39.3426 47.0307 37.7419C47.0307 36.1413 48.3333 34.8387 49.9339 34.8387H51.8694C52.4026 34.8387 52.8372 34.4042 52.8372 33.871V32.9032H54.7726V33.871C54.7726 35.4716 53.4701 36.7742 51.8694 36.7742H49.9339C49.4007 36.7742 48.9662 37.2087 48.9662 37.7419C48.9662 38.2752 49.4007 38.7097 49.9339 38.7097H53.8049C55.4056 38.7097 56.7081 40.0123 56.7081 41.6129C56.7081 43.2135 55.4056 44.5161 53.8049 44.5161H51.8694C51.3362 44.5161 50.9017 44.9506 50.9017 45.4839V46.4516H48.9662V45.4839C48.9662 43.8832 50.2688 42.5806 51.8694 42.5806H53.8049C54.3381 42.5806 54.7726 42.1461 54.7726 41.6129ZM35.4178 12.5806C35.4178 12.8373 35.3159 13.0835 35.1344 13.2649C34.9529 13.4464 34.7067 13.5484 34.4501 13.5484C34.1934 13.5484 33.9473 13.4464 33.7658 13.2649C33.5843 13.0835 33.4823 12.8373 33.4823 12.5806C33.4823 12.324 33.5843 12.0778 33.7658 11.8963C33.9473 11.7149 34.1934 11.6129 34.4501 11.6129C34.7067 11.6129 34.9529 11.7149 35.1344 11.8963C35.3159 12.0778 35.4178 12.324 35.4178 12.5806Z"/>
</mask>
<path d="M55.5846 56.9535L58.091 56.4523C58.7919 56.3105 59.4223 55.931 59.8756 55.378C60.329 54.825 60.5775 54.1325 60.5791 53.4174C60.5781 52.5969 60.2517 51.8103 59.6715 51.2302C59.0913 50.65 58.3047 50.3236 57.4843 50.3226H56.7081C56.7081 49.2552 55.8401 48.3871 54.7726 48.3871H45.0952V36.7742C45.0952 35.7068 44.2272 34.8387 43.1597 34.8387H41.2243V32.9032H42.192C50.1962 32.9032 56.7081 26.3913 56.7081 18.3871V13.5484C57.7756 13.5484 58.6436 12.6803 58.6436 11.6129V1.93548C58.6436 0.868064 57.7756 0 56.7081 0H50.9017C49.8343 0 48.9662 0.868064 48.9662 1.93548V9.85548C48.4018 10.0544 47.9128 10.4232 47.5662 10.9111C47.2197 11.399 47.0326 11.9822 47.0307 12.5806V14.8984C47.0307 15.4742 47.1991 16.0306 47.5185 16.5087L48.9604 18.6716C48.8104 22.2755 45.8317 25.1613 42.192 25.1613H35.4178V23.2258C37.5526 23.2258 39.2888 21.4897 39.2888 19.3548V16.8523L41.6249 14.5161L40.9407 13.8319C40.4152 13.3093 39.9987 12.6876 39.7151 12.0029C39.4315 11.3182 39.2866 10.584 39.2888 9.8429V9.67742H41.2243C42.2917 9.67742 43.1597 8.80935 43.1597 7.74194C43.1597 3.47323 39.6865 0 35.4178 0H29.5514C23.1807 0 17.9985 5.18226 17.9985 11.5529C17.9923 13.5135 18.4881 15.443 19.4385 17.1578C20.389 18.8726 21.7626 20.3156 23.4285 21.3494L25.7404 22.7942V25.1613H18.9662C15.3265 25.1613 12.3478 22.2755 12.1978 18.6706L13.6397 16.5087C13.9584 16.0318 14.1282 15.471 14.1275 14.8974V12.5806C14.1256 11.9822 13.9385 11.399 13.592 10.9111C13.2454 10.4232 12.7564 10.0544 12.192 9.85548V1.93548C12.192 0.868064 11.3239 0 10.2565 0H6.83555L2.51459 6.48097V11.6129C2.51459 12.6803 3.38265 13.5484 4.45007 13.5484V18.3871C4.45007 26.3913 10.962 32.9032 18.9662 32.9032H19.9339V34.8387H17.9985C16.931 34.8387 16.063 35.7068 16.063 36.7742V52.2581C16.063 53.3255 16.931 54.1935 17.9985 54.1935H25.4539L24.9004 58.0645H14.1275V44.5161C14.1275 43.4487 13.2594 42.5806 12.192 42.5806H2.51459C1.44717 42.5806 0.579102 43.4487 0.579102 44.5161V60H60.5791V58.0645H54.6662C55.0097 57.7277 55.3175 57.3561 55.5846 56.9535ZM57.4843 52.2581C57.7916 52.2586 58.0862 52.3809 58.3035 52.5982C58.5208 52.8155 58.6431 53.1101 58.6436 53.4174C58.6436 53.9681 58.2517 54.4461 57.7117 54.5545L56.5185 54.7935C56.6423 54.2801 56.7059 53.754 56.7081 53.2258V52.2581H57.4843ZM12.192 44.5161V46.4516H2.51459V44.5161H12.192ZM6.81813 49.9916L6.01588 48.3871H8.69071L7.88846 49.9926C7.68426 50.4 7.02233 50.4 6.81813 49.9916ZM3.852 48.3871L4.81975 50.3226H2.51459V48.3871H3.852ZM12.192 52.2581V54.1935H2.51459V52.2581H12.192ZM9.88684 50.3226L10.8546 48.3871H12.192V50.3226H9.88684ZM2.51459 58.0645V56.129H12.192V58.0645H2.51459ZM54.5946 11.6129C54.3956 11.0485 54.0269 10.5595 53.539 10.2129C53.0511 9.8664 52.4679 9.67934 51.8694 9.67742H50.9017V5.80645H56.7081V11.6129H54.5946ZM56.7081 1.93548V3.87097H50.9017V1.93548H56.7081ZM48.9662 12.5806C48.9662 12.0474 49.4007 11.6129 49.9339 11.6129H51.8694C52.4026 11.6129 52.8372 12.0474 52.8372 12.5806C52.8372 13.1139 52.4026 13.5484 51.8694 13.5484H50.9017V15.4839H51.8694C52.4679 15.482 53.0511 15.2949 53.539 14.9484C54.0269 14.6018 54.3956 14.1128 54.5946 13.5484H54.7726V17.4194H50.4517L49.1288 15.4345C49.0226 15.2759 48.966 15.0893 48.9662 14.8984V12.5806ZM50.8446 19.3548H54.7233C54.2268 25.8397 48.8026 30.9677 42.192 30.9677H41.2243V29.0323H39.2888V34.8387H34.0804L32.6636 32.0052L33.4068 30.8903L36.0972 32.5045L37.1791 27.0968H42.192C46.6668 27.0968 50.3607 23.7029 50.8446 19.3548ZM26.4797 27.0968L28.5701 28.1419L26.4207 29.4319L25.9533 27.0968H26.4797ZM34.6785 27.0968H35.2049L34.7385 29.4319L32.5891 28.1419L34.6785 27.0968ZM30.5791 29.1929L31.7452 29.8926L31.0291 30.9677H30.1291L29.413 29.8926L30.5791 29.1929ZM30.2094 32.9032H30.9488L31.9165 34.8387H29.2417L30.2094 32.9032ZM38.9307 14.4735L37.3533 16.051V17.4194H35.4178C34.3504 17.4194 33.4823 16.5513 33.4823 15.4839H31.5468C31.5468 17.6187 33.283 19.3548 35.4178 19.3548H37.3533C37.3533 20.4223 36.4852 21.2903 35.4178 21.2903H29.6114V23.2258H33.4823V25.531L30.5791 26.9826L27.6759 25.531V17.0187L26.0239 15.3668C25.9338 15.2769 25.8623 15.1701 25.8136 15.0526C25.765 14.935 25.7401 14.8089 25.7404 14.6816V14.5161C25.7404 13.9829 26.1749 13.5484 26.7081 13.5484H27.6759V10.6452C27.6759 10.1119 28.1104 9.67742 28.6436 9.67742H37.3533V9.8429C37.3533 11.5403 37.9078 13.1526 38.9307 14.4735ZM24.4533 19.7081C23.0667 18.8473 21.9235 17.646 21.1324 16.2186C20.3414 14.7911 19.9288 13.1849 19.9339 11.5529C19.9339 6.24968 24.2481 1.93548 29.5514 1.93548H35.4178C38.6201 1.93548 41.2243 4.53968 41.2243 7.74194H28.6436C27.043 7.74194 25.7404 9.04452 25.7404 10.6452V11.7784C25.1747 11.9793 24.6851 12.3502 24.3386 12.8404C23.992 13.3305 23.8056 13.9159 23.8049 14.5161V14.6816C23.8049 15.4568 24.1068 16.1865 24.6556 16.7352L25.7404 17.82V20.5123L24.4533 19.7081ZM10.2565 9.67742H9.28878C8.69033 9.67934 8.10713 9.8664 7.61921 10.2129C7.1313 10.5595 6.76257 11.0485 6.56362 11.6129H4.45007V7.74194H6.38555C7.45297 7.74194 8.32104 6.87387 8.32104 5.80645V1.93548H10.2565V9.67742ZM5.29007 5.80645L6.38555 4.16419V5.80645H5.29007ZM6.56362 13.5484C6.76257 14.1128 7.1313 14.6018 7.61921 14.9484C8.10713 15.2949 8.69033 15.482 9.28878 15.4839H10.2565V13.5484H9.28878C8.75555 13.5484 8.32104 13.1139 8.32104 12.5806C8.32104 12.0474 8.75555 11.6129 9.28878 11.6129H11.2243C11.7575 11.6129 12.192 12.0474 12.192 12.5806V14.8984C12.192 15.09 12.1359 15.2758 12.0294 15.4355L10.7065 17.4194H6.38555V13.5484H6.56362ZM19.9339 29.0323V30.9677H18.9662C12.3556 30.9677 6.93136 25.8397 6.43491 19.3548H10.3136C10.7975 23.7029 14.4914 27.0968 18.9662 27.0968H23.9791L25.061 32.5035L27.7514 30.8894L28.4946 32.0042L27.0778 34.8387H21.8694V29.0323H19.9339ZM17.9985 52.2581V36.7742H43.1597V52.2581H35.4275L34.6775 47.009C34.5761 46.3185 34.2304 45.6872 33.7032 45.2298C33.176 44.7723 32.5022 44.5191 31.8043 44.5161H29.3549C28.6569 44.5189 27.983 44.7721 27.4558 45.2295C26.9286 45.687 26.5829 46.3184 26.4817 47.009L25.7307 52.2581H17.9985ZM28.3968 47.2819C28.4646 46.8087 28.8759 46.4516 29.3539 46.4516H31.8033C32.2814 46.4516 32.6927 46.8087 32.7614 47.2829L34.302 58.0645H26.8562L28.3968 47.2819ZM36.2568 58.0645L35.7033 54.1935H43.2362C43.4472 55.6651 44.1381 57.0258 45.2017 58.0645H36.2568ZM45.0952 53.2258V50.3226H54.7726V53.2258C54.7726 55.8939 52.602 58.0645 49.9339 58.0645C47.2659 58.0645 45.0952 55.8939 45.0952 53.2258ZM54.7726 41.6129C54.7726 41.0797 54.3381 40.6452 53.8049 40.6452H49.9339C48.3333 40.6452 47.0307 39.3426 47.0307 37.7419C47.0307 36.1413 48.3333 34.8387 49.9339 34.8387H51.8694C52.4026 34.8387 52.8372 34.4042 52.8372 33.871V32.9032H54.7726V33.871C54.7726 35.4716 53.4701 36.7742 51.8694 36.7742H49.9339C49.4007 36.7742 48.9662 37.2087 48.9662 37.7419C48.9662 38.2752 49.4007 38.7097 49.9339 38.7097H53.8049C55.4056 38.7097 56.7081 40.0123 56.7081 41.6129C56.7081 43.2135 55.4056 44.5161 53.8049 44.5161H51.8694C51.3362 44.5161 50.9017 44.9506 50.9017 45.4839V46.4516H48.9662V45.4839C48.9662 43.8832 50.2688 42.5806 51.8694 42.5806H53.8049C54.3381 42.5806 54.7726 42.1461 54.7726 41.6129ZM35.4178 12.5806C35.4178 12.8373 35.3159 13.0835 35.1344 13.2649C34.9529 13.4464 34.7067 13.5484 34.4501 13.5484C34.1934 13.5484 33.9473 13.4464 33.7658 13.2649C33.5843 13.0835 33.4823 12.8373 33.4823 12.5806C33.4823 12.324 33.5843 12.0778 33.7658 11.8963C33.9473 11.7149 34.1934 11.6129 34.4501 11.6129C34.7067 11.6129 34.9529 11.7149 35.1344 11.8963C35.3159 12.0778 35.4178 12.324 35.4178 12.5806Z" stroke="#2166F3" stroke-width="2" mask="url(#path-1-inside-1_415_258)"/>
</svg>
