<svg width="57" height="48" viewBox="0 0 57 48" fill="none" xmlns="http://www.w3.org/2000/svg">
<g clip-path="url(#clip0_2621_496)">
<path d="M10.721 19.77C16.1411 19.77 20.5333 21.0658 20.5333 22.6629C20.5333 24.2627 16.1411 25.5558 10.721 25.5558C5.30093 25.5558 0.908691 24.2627 0.908691 22.6629C0.908691 21.0658 5.30093 19.77 10.721 19.77Z" stroke="#2166F3" stroke-width="1.5" stroke-miterlimit="10" stroke-linecap="round" stroke-linejoin="round"/>
<path d="M0.908691 22.663V28.5158C0.908691 30.113 5.30093 31.4087 10.721 31.4087C16.1411 31.4087 20.5333 30.113 20.5333 28.5158V22.663" stroke="#2166F3" stroke-width="1.5" stroke-miterlimit="10" stroke-linecap="round" stroke-linejoin="round"/>
<path d="M0.908691 28.5157V34.3661C0.908691 35.9658 5.30093 37.2616 10.721 37.2616C16.1411 37.2616 20.5333 35.9658 20.5333 34.3661V28.5157" stroke="#2166F3" stroke-width="1.5" stroke-miterlimit="10" stroke-linecap="round" stroke-linejoin="round"/>
<path d="M0.908691 34.3661V40.219C0.908691 41.8161 5.30093 43.1118 10.721 43.1118C16.1411 43.1118 20.5333 41.8161 20.5333 40.219V34.3661M35.8068 19.77C41.2269 19.77 45.6217 21.0658 45.6217 22.6629C45.6217 24.2627 41.2269 25.5558 35.8068 25.5558C30.3894 25.5558 25.9945 24.2626 25.9945 22.6629C25.9945 21.0658 30.3894 19.77 35.8068 19.77Z" stroke="#2166F3" stroke-width="1.5" stroke-miterlimit="10" stroke-linecap="round" stroke-linejoin="round"/>
<path d="M25.9946 22.663V28.5158C25.9946 30.113 30.3894 31.4087 35.807 31.4087C41.227 31.4087 45.6218 30.113 45.6218 28.5158V22.663" stroke="#2166F3" stroke-width="1.5" stroke-miterlimit="10" stroke-linecap="round" stroke-linejoin="round"/>
<path d="M25.9946 28.5157V34.3661C25.9946 35.9658 30.3894 37.2616 35.807 37.2616C41.227 37.2616 45.6218 35.9658 45.6218 34.3661V28.5157" stroke="#2166F3" stroke-width="1.5" stroke-miterlimit="10" stroke-linecap="round" stroke-linejoin="round"/>
<path d="M25.9946 34.3662V40.219C25.9946 41.8161 30.3894 43.1119 35.8069 43.1119C41.227 43.1119 45.6218 41.8161 45.6218 40.219V34.3662M7.06299 10.2953L10.7211 13.9533L14.3791 10.2953" stroke="#2166F3" stroke-width="1.5" stroke-miterlimit="10" stroke-linecap="round" stroke-linejoin="round"/>
<path d="M10.7209 13.4072V6.9206C10.7209 5.80259 11.6355 4.88806 12.7535 4.88806H33.7769C34.8949 4.88806 35.8069 5.80259 35.8069 6.9206V13.4072" stroke="#2166F3" stroke-width="1.5" stroke-miterlimit="10" stroke-linecap="round" stroke-linejoin="round"/>
</g>
<path fill-rule="evenodd" clip-rule="evenodd" d="M49.5397 5.88934C49.4782 5.742 49.3682 5.61502 49.2242 5.52538C49.0803 5.43574 48.9094 5.38771 48.7343 5.3877H47.8168C47.6417 5.38768 47.4708 5.4357 47.3268 5.52535C47.1829 5.61499 47.0729 5.74198 47.0114 5.88934L44.2589 12.4859C44.1788 12.6779 44.1868 12.8906 44.2812 13.0772C44.3756 13.2639 44.5486 13.4092 44.7622 13.4812C44.9759 13.5532 45.2125 13.5459 45.4202 13.4611C45.6279 13.3763 45.7896 13.2208 45.8697 13.0288L46.3484 11.8812H50.2026L50.6814 13.0287C50.7429 13.1761 50.853 13.3031 50.9969 13.3928C51.1408 13.4824 51.3117 13.5305 51.4869 13.5306C51.6259 13.5305 51.7628 13.5003 51.8859 13.4423C52.0091 13.3843 52.1147 13.3004 52.1939 13.1977C52.273 13.095 52.3233 12.9766 52.3404 12.8527C52.3575 12.7287 52.341 12.6029 52.2921 12.4859L49.5397 5.88934ZM48.2756 7.26287L46.9935 10.3351H49.5576L48.2756 7.26287Z" fill="#2166F3"/>
<path d="M48.2755 0.734619C43.4649 0.734619 39.551 4.64845 39.551 9.45911C39.551 14.2698 43.4649 18.1836 48.2755 18.1836C53.0862 18.1836 57 14.2698 57 9.45911C57 4.64845 53.0862 0.734619 48.2755 0.734619ZM48.2755 16.8017C44.2268 16.8017 40.9329 13.5078 40.9329 9.45911C40.9329 5.41041 44.2268 2.11649 48.2755 2.11649C52.3242 2.11649 55.6181 5.41041 55.6181 9.45911C55.6181 13.5078 52.3242 16.8017 48.2755 16.8017Z" fill="#2166F3"/>
<defs>
<clipPath id="clip0_2621_496">
<rect width="46.5306" height="46.5306" fill="white" transform="translate(0 0.734619)"/>
</clipPath>
</defs>
</svg>
