<svg width="57" height="57" viewBox="0 0 57 57" fill="none" xmlns="http://www.w3.org/2000/svg">
<path d="M34.7716 8.99696C34.7716 8.77551 34.6836 8.56314 34.527 8.40655C34.3705 8.24996 34.1581 8.162 33.9366 8.162H6.04883C5.82738 8.162 5.61501 8.24996 5.45842 8.40655C5.30184 8.56314 5.21387 8.77551 5.21387 8.99696C5.21387 9.2184 5.30184 9.43078 5.45842 9.58736C5.61501 9.74395 5.82738 9.83192 6.04883 9.83192H33.9366C34.1581 9.83192 34.3705 9.74395 34.527 9.58736C34.6836 9.43078 34.7716 9.2184 34.7716 8.99696ZM51.6142 9.00052C51.6142 7.42211 50.33 6.13794 48.7516 6.13794C47.1732 6.13794 45.889 7.42211 45.889 9.00052C45.889 10.5789 47.1732 11.8631 48.7516 11.8631C50.33 11.8631 51.6142 10.5789 51.6142 9.00052ZM47.559 9.00052C47.559 8.3429 48.094 7.80786 48.7516 7.80786C49.4092 7.80786 49.9443 8.3429 49.9443 9.00052C49.9443 9.65814 49.4092 10.1932 48.7516 10.1932C48.094 10.1932 47.559 9.65814 47.559 9.00052ZM43.4836 9.00052C43.4836 7.42211 42.1994 6.13794 40.621 6.13794C39.0426 6.13794 37.7584 7.42211 37.7584 9.00052C37.7584 10.5789 39.0426 11.8631 40.621 11.8631C42.1994 11.8631 43.4836 10.5789 43.4836 9.00052ZM39.4283 9.00052C39.4283 8.3429 39.9634 7.80786 40.621 7.80786C41.2786 7.80786 41.8137 8.3429 41.8137 9.00052C41.8137 9.65814 41.2786 10.1932 40.621 10.1932C39.9634 10.1932 39.4283 9.65814 39.4283 9.00052Z" fill="#2166F3"/>
<path fill-rule="evenodd" clip-rule="evenodd" d="M29.8972 29.5545C29.8293 29.3916 29.7076 29.2513 29.5486 29.1522C29.3895 29.0531 29.2006 29 29.0071 29H27.993C27.7994 29 27.6105 29.0531 27.4514 29.1521C27.2924 29.2512 27.1708 29.3916 27.1028 29.5545L24.0605 36.8454C23.972 37.0576 23.9809 37.2927 24.0852 37.499C24.1896 37.7053 24.3808 37.8659 24.6169 37.9454C24.853 38.025 25.1146 38.017 25.3441 37.9233C25.5737 37.8295 25.7524 37.6576 25.8409 37.4454L26.37 36.177H30.6299L31.1591 37.4453C31.2271 37.6082 31.3487 37.7486 31.5078 37.8477C31.6669 37.9468 31.8558 37.9999 32.0494 38C32.203 38 32.3544 37.9665 32.4904 37.9024C32.6265 37.8384 32.7433 37.7456 32.8308 37.6321C32.9183 37.5186 32.9739 37.3878 32.9928 37.2508C33.0117 37.1138 32.9934 36.9747 32.9394 36.8454L29.8972 29.5545ZM28.5 31.0726L27.0831 34.4682H29.917L28.5 31.0726Z" fill="#2166F3"/>
<path d="M28.5001 23.2716C22.6867 23.2716 17.957 28.0013 17.957 33.8147C17.957 39.6282 22.6867 44.3578 28.5001 44.3578C34.3136 44.3578 39.0432 39.6282 39.0432 33.8147C39.0432 28.0013 34.3136 23.2716 28.5001 23.2716ZM28.5001 42.6879C23.6075 42.6879 19.627 38.7074 19.627 33.8147C19.627 28.9221 23.6075 24.9415 28.5001 24.9415C33.3928 24.9415 37.3733 28.9221 37.3733 33.8147C37.3733 38.7074 33.3928 42.6879 28.5001 42.6879Z" fill="#2166F3"/>
<path d="M42.0757 37.1834C42.0923 37.1162 42.1497 37.0694 42.2153 37.0694H43.0785C44.0783 37.0694 44.8916 36.256 44.8916 35.2563V32.3733C44.8916 31.3736 44.0783 30.5602 43.0785 30.5602H42.2153C42.1497 30.5602 42.0923 30.5134 42.0757 30.4462C41.7404 29.0912 41.203 27.7945 40.4815 26.5995C40.4453 26.5395 40.4524 26.465 40.4988 26.4186L41.1099 25.8075C41.4525 25.4651 41.6411 25.0098 41.6411 24.5255C41.6411 24.0412 41.4525 23.586 41.11 23.2434L39.0713 21.2047C38.3644 20.4979 37.2142 20.4979 36.5073 21.2047L35.8962 21.8158C35.8497 21.8622 35.7753 21.8693 35.7153 21.8331C34.5204 21.1115 33.2236 20.5741 31.8686 20.2389C31.8015 20.2223 31.7546 20.1649 31.7546 20.0993V19.2361C31.7546 18.2363 30.9412 17.423 29.9415 17.423H27.0585C26.0588 17.423 25.2455 18.2363 25.2455 19.2361V20.0993C25.2455 20.1649 25.1986 20.2223 25.1315 20.2389C23.7765 20.5742 22.4797 21.1116 21.2847 21.8331C21.2246 21.8693 21.1502 21.8621 21.1038 21.8158L20.4927 21.2047C19.7859 20.4977 18.6357 20.4977 17.9287 21.2047L15.8901 23.2433C15.7212 23.4113 15.5873 23.6111 15.4962 23.8312C15.405 24.0512 15.3584 24.2872 15.3591 24.5254C15.3591 25.0098 15.5477 25.465 15.8901 25.8074L16.5012 26.4185C16.5476 26.4649 16.5547 26.5394 16.5186 26.5994C15.797 27.7943 15.2596 29.0911 14.9243 30.4461C14.9077 30.5133 14.8503 30.5601 14.7847 30.5601H13.9215C12.9218 30.5601 12.1084 31.3735 12.1084 32.3732V35.2562C12.1084 36.2559 12.9218 37.0693 13.9215 37.0693H14.7847C14.8503 37.0693 14.9077 37.1161 14.9243 37.1833C15.2596 38.5383 15.7971 39.835 16.5186 41.03C16.5547 41.09 16.5476 41.1645 16.5012 41.2109L15.8901 41.822C15.5477 42.1644 15.3591 42.6198 15.3591 43.104C15.3591 43.5883 15.5477 44.0435 15.8901 44.3861L17.9289 46.4248C18.6358 47.1317 19.786 47.1317 20.4929 46.4248L21.1039 45.8138C21.1505 45.7673 21.2248 45.7601 21.2848 45.7964C22.4797 46.518 23.7765 47.0554 25.1316 47.3906C25.1987 47.4072 25.2456 47.4646 25.2456 47.5302V48.3935C25.2456 49.3932 26.0589 50.2065 27.0587 50.2065H29.9416C30.9413 50.2065 31.7547 49.3932 31.7547 48.3935V47.5302C31.7547 47.4646 31.8016 47.4072 31.8687 47.3906C33.2237 47.0553 34.5205 46.5179 35.7154 45.7964C35.7755 45.7601 35.8499 45.7673 35.8963 45.8138L36.5075 46.4249C37.2144 47.1318 38.3646 47.1318 39.0715 46.4249L41.1102 44.3863C41.4526 44.0439 41.6412 43.5885 41.6412 43.1043C41.6412 42.62 41.4526 42.1648 41.1102 41.8222L40.4991 41.2111C40.4527 41.1647 40.4455 41.0902 40.4817 41.0302C41.2031 39.8352 41.7404 38.5384 42.0757 37.1834ZM40.4547 36.7824C40.1597 37.9748 39.6867 39.1159 39.0517 40.1673C38.6179 40.8863 38.7273 41.801 39.3181 42.3918L39.9292 43.0028C39.9638 43.0376 39.971 43.0771 39.971 43.104C39.971 43.131 39.9638 43.1706 39.9292 43.2052L37.8905 45.2439C37.8637 45.2707 37.8273 45.2857 37.7893 45.2857C37.7513 45.2857 37.7149 45.2707 37.688 45.2439L37.077 44.6328C36.4861 44.042 35.5715 43.9324 34.8525 44.3664C33.801 45.0013 32.6599 45.4743 31.4676 45.7693C30.6533 45.9707 30.0846 46.6948 30.0846 47.5301V48.3933C30.0846 48.4723 30.0203 48.5365 29.9414 48.5365H27.0584C27.0205 48.5364 26.9841 48.5213 26.9573 48.4945C26.9304 48.4677 26.9153 48.4313 26.9153 48.3933V47.5301C26.9153 46.6948 26.3466 45.9707 25.5322 45.7693C24.3399 45.4744 23.1987 45.0014 22.1473 44.3664C21.4258 43.9311 20.5116 44.0442 19.9229 44.6328L19.3118 45.2439C19.2849 45.2707 19.2485 45.2857 19.2106 45.2857C19.1726 45.2857 19.1362 45.2707 19.1094 45.2439L17.0707 43.2052C17.0361 43.1705 17.0289 43.131 17.0289 43.104C17.0289 43.0771 17.0361 43.0375 17.0707 43.0028L17.6818 42.3918C18.2725 41.801 18.3821 40.8863 17.9482 40.1673C17.3133 39.1158 16.8403 37.9747 16.5453 36.7824C16.3439 35.9681 15.6198 35.3993 14.7845 35.3993H13.9213C13.8833 35.3993 13.8469 35.3842 13.8201 35.3573C13.7933 35.3305 13.7782 35.2941 13.7781 35.2562V32.3732C13.7781 32.2943 13.8423 32.2301 13.9213 32.2301H14.7845C15.6198 32.2301 16.3439 31.6614 16.5453 30.847C16.8403 29.6547 17.3132 28.5135 17.9482 27.4621C18.3821 26.7431 18.2726 25.8284 17.6818 25.2376L17.0706 24.6265C17.036 24.5918 17.0288 24.5523 17.0288 24.5253C17.0288 24.4982 17.036 24.4587 17.0706 24.4241L19.1093 22.3854C19.1361 22.3586 19.1726 22.3436 19.2105 22.3436C19.2485 22.3436 19.2849 22.3586 19.3118 22.3854L19.9229 22.9965C20.5136 23.5872 21.4282 23.6968 22.1473 23.2629C23.1988 22.628 24.3399 22.155 25.5322 21.86C26.3465 21.6586 26.9153 20.9345 26.9153 20.0992V19.236C26.9153 19.157 26.9795 19.0928 27.0584 19.0928H29.9414C30.0203 19.0928 30.0846 19.157 30.0846 19.236V20.0992C30.0846 20.9345 30.6532 21.6586 31.4676 21.86C32.66 22.1549 33.8011 22.6279 34.8525 23.2629C35.5715 23.6966 36.4863 23.5872 37.077 22.9965L37.688 22.3854C37.7149 22.3586 37.7513 22.3436 37.7893 22.3436C37.8273 22.3436 37.8637 22.3586 37.8905 22.3854L39.9292 24.4241C39.9638 24.4588 39.971 24.4983 39.971 24.5253C39.971 24.5523 39.9638 24.5918 39.9292 24.6265L39.3181 25.2375C38.7274 25.8282 38.6179 26.743 39.0517 27.462C39.6878 28.5163 40.1599 29.6551 40.4547 30.8469C40.656 31.6612 41.3801 32.2299 42.2154 32.2299H43.0787C43.1576 32.2299 43.2218 32.2942 43.2218 32.3731V35.2561C43.2218 35.335 43.1576 35.3992 43.0787 35.3992H42.2154C41.3801 35.3993 40.656 35.9681 40.4547 36.7824Z" fill="#2166F3"/>
<path d="M53.8135 3.1687H3.18654C1.42945 3.1687 0 4.59815 0 6.35525V50.6447C0 52.4018 1.42945 53.8312 3.18654 53.8312H53.8135C55.5705 53.8312 57 52.4018 57 50.6447V39.6404C57 39.4189 56.912 39.2065 56.7554 39.0499C56.5989 38.8934 56.3865 38.8054 56.165 38.8054C55.9436 38.8054 55.7312 38.8934 55.5746 39.0499C55.418 39.2065 55.3301 39.4189 55.3301 39.6404V50.6447C55.3301 51.481 54.6498 52.1613 53.8135 52.1613H3.18654C2.35025 52.1613 1.66992 51.481 1.66992 50.6447V14.8252H3.8642C4.08564 14.8252 4.29802 14.7372 4.45461 14.5806C4.61119 14.4241 4.69916 14.2117 4.69916 13.9902C4.69916 13.7688 4.61119 13.5564 4.45461 13.3998C4.29802 13.2432 4.08564 13.1553 3.8642 13.1553H1.66992V6.35525C1.66992 5.51895 2.35025 4.83862 3.18654 4.83862H53.8135C54.6498 4.83862 55.3301 5.51895 55.3301 6.35525V13.1553H7.76759C7.54614 13.1553 7.33376 13.2432 7.17718 13.3998C7.02059 13.5564 6.93262 13.7688 6.93262 13.9902C6.93262 14.2117 7.02059 14.4241 7.17718 14.5806C7.33376 14.7372 7.54614 14.8252 7.76759 14.8252H55.3301V35.737C55.3301 35.9584 55.418 36.1708 55.5746 36.3274C55.7312 36.484 55.9436 36.5719 56.165 36.5719C56.3865 36.5719 56.5989 36.484 56.7554 36.3274C56.912 36.1708 57 35.9584 57 35.737V6.35525C57 4.59815 55.5705 3.1687 53.8135 3.1687Z" fill="#2166F3"/>
</svg>
