<svg width="50" height="50" viewBox="0 0 50 50" fill="none" xmlns="http://www.w3.org/2000/svg">
<g clip-path="url(#clip0_448_1974)">
<path d="M25 0C11.2152 0 0 11.2152 0 25C0 38.7848 11.2152 50 25 50C38.7848 50 50 38.7848 50 25C50 11.2152 38.7848 0 25 0ZM25 47.9167C12.3637 47.9167 2.0833 37.6363 2.0833 25C2.0833 12.3637 12.3637 2.0833 25 2.0833C37.6363 2.0833 47.9167 12.3637 47.9167 25C47.9167 37.6363 37.6363 47.9167 25 47.9167Z" fill="#2166F3"/>
<path d="M24.9993 4.16699C13.5115 4.16699 4.16602 13.5125 4.16602 25.0003C4.16602 36.4881 13.5115 45.8336 24.9993 45.8336C36.4871 45.8336 45.8326 36.4881 45.8326 25.0003C45.8326 13.5125 36.4871 4.16699 24.9993 4.16699ZM24.9993 43.7503C14.6609 43.7503 6.24932 35.3387 6.24932 25.0003C6.24932 14.6619 14.6609 6.25029 24.9993 6.25029C35.3377 6.25029 43.7493 14.6619 43.7493 25.0003C43.7493 35.3387 35.3377 43.7503 24.9993 43.7503Z" fill="#2166F3"/>
<path d="M39.3742 21.2504L33.1242 12.9171C32.7315 12.3922 31.8505 12.3922 31.4578 12.9171L25.2078 21.2504C25.0917 21.4051 25.021 21.5891 25.0036 21.7818C24.9862 21.9744 25.0229 22.1681 25.1094 22.3411C25.1959 22.5141 25.3289 22.6596 25.4934 22.7613C25.658 22.8629 25.8476 22.9168 26.041 22.9167H29.166V36.4584C29.166 36.5952 29.1928 36.7307 29.2452 36.8571C29.2975 36.9836 29.3742 37.0984 29.471 37.1952C29.5677 37.2919 29.6826 37.3687 29.809 37.421C29.9354 37.4733 30.0709 37.5002 30.2077 37.5001H34.3743C34.5112 37.5002 34.6467 37.4733 34.7731 37.421C34.8995 37.3687 35.0144 37.2919 35.1111 37.1952C35.2079 37.0984 35.2846 36.9836 35.3369 36.8571C35.3893 36.7307 35.4161 36.5952 35.416 36.4584V22.9167H38.541C38.9358 22.9167 39.2958 22.6939 39.4729 22.3409C39.5593 22.1679 39.5958 21.9742 39.5784 21.7816C39.5609 21.589 39.4902 21.4051 39.3742 21.2504ZM34.3743 20.8333C34.2375 20.8332 34.102 20.8601 33.9756 20.9124C33.8492 20.9647 33.7343 21.0415 33.6376 21.1382C33.5408 21.235 33.4641 21.3498 33.4118 21.4763C33.3594 21.6027 33.3326 21.7382 33.3326 21.875V35.4167H31.2493V21.875C31.2494 21.7382 31.2226 21.6027 31.1702 21.4763C31.1179 21.3498 31.0412 21.235 30.9444 21.1382C30.8477 21.0415 30.7328 20.9647 30.6064 20.9124C30.48 20.8601 30.3445 20.8332 30.2076 20.8333H28.1243L32.291 15.2781L36.4577 20.8333H34.3743ZM23.9576 27.0833H20.8326V13.5417C20.8327 13.4049 20.8059 13.2694 20.7535 13.143C20.7012 13.0165 20.6245 12.9017 20.5277 12.8049C20.431 12.7082 20.3161 12.6314 20.1897 12.5791C20.0633 12.5268 19.9278 12.4999 19.7909 12.5H15.6243C15.4875 12.4999 15.352 12.5268 15.2256 12.5791C15.0992 12.6314 14.9843 12.7082 14.8876 12.8049C14.7908 12.9017 14.7141 13.0165 14.6618 13.143C14.6094 13.2694 14.5826 13.4049 14.5826 13.5417V27.0834H11.4576C11.2642 27.0834 11.0746 27.1373 10.91 27.239C10.7454 27.3407 10.6124 27.4862 10.5258 27.6592C10.4394 27.8322 10.4028 28.0258 10.4203 28.2185C10.4377 28.4111 10.5084 28.595 10.6244 28.7497L16.8744 37.083C16.9714 37.2125 17.0971 37.3176 17.2417 37.39C17.3863 37.4624 17.5458 37.5001 17.7075 37.5001C18.0351 37.5001 18.3444 37.3455 18.5407 37.083L24.7907 28.7497C24.9068 28.595 24.9775 28.411 24.9949 28.2184C25.0123 28.0257 24.9758 27.832 24.8893 27.659C24.8028 27.486 24.6698 27.3405 24.5052 27.2388C24.3407 27.1371 24.1511 27.0833 23.9576 27.0833ZM17.7076 34.7219L13.5409 29.1667H15.6243C15.7612 29.1668 15.8967 29.1399 16.0231 29.0876C16.1495 29.0353 16.2644 28.9585 16.3611 28.8618C16.4579 28.765 16.5346 28.6502 16.5869 28.5237C16.6393 28.3973 16.6661 28.2618 16.666 28.125V14.5833H18.7493V28.125C18.7493 28.2618 18.7761 28.3973 18.8285 28.5237C18.8808 28.6502 18.9575 28.765 19.0543 28.8618C19.151 28.9585 19.2659 29.0353 19.3923 29.0876C19.5187 29.1399 19.6542 29.1668 19.791 29.1667H21.8743L17.7076 34.7219Z" fill="#2166F3"/>
</g>
<defs>
<clipPath id="clip0_448_1974">
<rect width="50" height="50" fill="white"/>
</clipPath>
</defs>
</svg>
