<svg width="50" height="50" viewBox="0 0 50 50" fill="none" xmlns="http://www.w3.org/2000/svg">
<path d="M44.7695 4H5.23047C4.55092 4 4 4.55092 4 5.23047V44.7695C4 45.4491 4.55092 46 5.23047 46H44.7695C45.4491 46 46 45.4491 46 44.7695V5.23047C46 4.55092 45.4491 4 44.7695 4ZM43.5391 43.5391H6.46094V6.46094H43.5391V43.5391Z" fill="#2166F3"/>
<path d="M36.8602 11.9082H13.1367C12.4572 11.9082 11.9062 12.4591 11.9062 13.1387V21.0465C11.9062 21.726 12.4572 22.277 13.1367 22.277H36.8602C37.5397 22.277 38.0906 21.726 38.0906 21.0465V13.1387C38.0906 12.4591 37.5397 11.9082 36.8602 11.9082ZM35.6297 19.816H14.3672V14.3691H35.6297V19.816ZM21.0445 27.7239H13.1367C12.4572 27.7239 11.9062 28.2748 11.9062 28.9544V36.8622C11.9062 37.5417 12.4572 38.0927 13.1367 38.0927H21.0445C21.7241 38.0927 22.275 37.5417 22.275 36.8622V28.9544C22.275 28.2748 21.7241 27.7239 21.0445 27.7239ZM19.8141 35.6316H14.3672V30.1848H19.8141V35.6316ZM36.8602 27.7238H28.9524C28.2729 27.7238 27.722 28.2748 27.722 28.9543V36.8621C27.722 37.5417 28.2729 38.0926 28.9524 38.0926H36.8602C37.5398 38.0926 38.0907 37.5417 38.0907 36.8621V28.9543C38.0907 28.2748 37.5398 27.7238 36.8602 27.7238ZM35.6298 35.6317H30.1829V30.1848H35.6298V35.6317Z" fill="#2166F3"/>
</svg>
