<svg width="50" height="50" viewBox="0 0 50 50" fill="none" xmlns="http://www.w3.org/2000/svg">
<path d="M25.2699 47.7539H24.7318C24.2302 47.7542 23.7326 47.6642 23.2628 47.4881C18.0777 45.5482 13.9114 42.4043 10.8794 38.1438C8.49844 34.798 6.84705 30.7984 5.97117 26.2562C4.52647 18.764 5.69635 12.2696 5.74686 11.9968C6.00553 10.6001 6.94241 9.43933 8.25306 8.89177L23.3847 2.57012C23.8993 2.3551 24.4431 2.24609 25.0008 2.24609C25.5586 2.24609 26.1023 2.3551 26.617 2.57009L41.7486 8.89175C43.0593 9.43936 43.9962 10.6001 44.2548 11.9968C44.3053 12.2696 45.475 18.7648 44.0305 26.2561C43.1546 30.7984 41.5032 34.798 39.1222 38.1438C36.0903 42.4043 31.9239 45.5482 26.7388 47.4881C26.2691 47.6642 25.7715 47.7542 25.2699 47.7539ZM25.0008 3.80859C24.6528 3.80824 24.3081 3.87733 23.987 4.01184L8.85538 10.3335C8.03321 10.677 7.44549 11.4051 7.28323 12.2813C7.23492 12.5422 6.11597 18.7548 7.5054 25.9603C8.33863 30.2813 9.90213 34.0756 12.1524 37.2378C15.0003 41.2397 18.9226 44.196 23.8103 46.0247C24.105 46.1351 24.4171 46.1916 24.7318 46.1914H25.2698C25.5856 46.1914 25.8956 46.1353 26.1914 46.0246C31.0791 44.196 35.0013 41.2397 37.8492 37.2378C40.0995 34.0756 41.663 30.2813 42.4963 25.9603C43.8856 18.7555 42.7667 12.5422 42.7184 12.2812C42.5562 11.4051 41.9685 10.677 41.1463 10.3335L26.0146 4.01182C25.6936 3.87733 25.3489 3.80824 25.0008 3.80859Z" fill="#2166F3" stroke="#2166F3" stroke-width="0.5"/>
<path d="M25.27 44.3427H24.732C24.6385 44.3427 24.5458 44.3259 24.4582 44.2932C19.9223 42.5962 16.2889 39.8618 13.6588 36.1659C11.563 33.2209 10.1035 29.6695 9.32075 25.6102C8.62874 22.0215 8.60471 18.6884 8.7064 16.5242C8.81692 14.1726 9.08955 12.6802 9.1011 12.6179C9.12474 12.4902 9.17981 12.3705 9.26135 12.2694C9.34289 12.1684 9.44832 12.0893 9.56812 12.0393L24.6998 5.71761C24.7952 5.67775 24.8975 5.65723 25.0009 5.65723C25.1043 5.65723 25.2067 5.67775 25.3021 5.71761L40.4337 12.0393C40.5535 12.0893 40.6589 12.1684 40.7405 12.2695C40.822 12.3705 40.8771 12.4902 40.9007 12.6179C40.9123 12.6803 41.1849 14.1726 41.2954 16.5242C41.3971 18.6884 41.3731 22.0215 40.6811 25.6102C39.8984 29.6695 38.4388 33.2209 36.3431 36.1659C33.713 39.8618 30.0795 42.5962 25.5437 44.2932C25.4561 44.3259 25.3634 44.3427 25.27 44.3427ZM24.8744 42.7802H25.1275C32.755 39.8802 37.4711 34.0047 39.1469 25.3144C40.2215 19.7419 39.6395 14.7468 39.4297 13.3132L25.001 7.28517L10.5719 13.3133C10.4856 13.9001 10.3365 15.0823 10.265 16.6449C10.1698 18.725 10.1964 21.9255 10.8639 25.3602C12.5479 34.0255 17.2609 39.8856 24.8744 42.7802Z" fill="#2166F3" stroke="#2166F3" stroke-width="0.5"/>
<path d="M28.7668 34.6704H21.2361C19.2137 34.6704 17.5684 33.025 17.5684 31.0024V24.8828C17.5684 22.8603 19.2137 21.2148 21.2361 21.2148H28.7668C30.7892 21.2148 32.4345 22.8603 32.4345 24.8828V31.0024C32.4346 33.025 30.7892 34.6704 28.7668 34.6704ZM21.2361 22.7773C20.0753 22.7773 19.1309 23.7219 19.1309 24.8828V31.0024C19.1309 32.1634 20.0753 33.1079 21.2361 33.1079H28.7668C29.9277 33.1079 30.872 32.1634 30.872 31.0024V24.8828C30.872 23.7219 29.9276 22.7773 28.7668 22.7773H21.2361ZM25.0015 28.8762C23.8079 28.8762 22.8369 27.9052 22.8369 26.7117C22.8369 25.518 23.8079 24.5469 25.0015 24.5469C26.195 24.5469 27.166 25.518 27.166 26.7117C27.166 27.9052 26.195 28.8762 25.0015 28.8762ZM25.0015 26.1094C24.6695 26.1094 24.3994 26.3795 24.3994 26.7117C24.3994 27.0437 24.6695 27.3137 25.0015 27.3137C25.3334 27.3137 25.6035 27.0436 25.6035 26.7117C25.6035 26.3795 25.3334 26.1094 25.0015 26.1094Z" fill="#2166F3" stroke="#2166F3" stroke-width="0.5"/>
<path d="M29.865 22.7776C29.4335 22.7776 29.0837 22.4278 29.0837 21.9963V19.6034C29.0837 17.3515 27.2517 15.5195 24.9999 15.5195C22.748 15.5195 20.916 17.3516 20.916 19.6034V21.9963C20.916 22.4278 20.5662 22.7776 20.1348 22.7776C19.7033 22.7776 19.3535 22.4278 19.3535 21.9963V19.6034C19.3535 18.0952 19.9408 16.6773 21.0073 15.6108C22.0738 14.5444 23.4917 13.957 24.9999 13.957C26.5081 13.957 27.926 14.5444 28.9925 15.6108C30.0589 16.6773 30.6462 18.0952 30.6462 19.6034V21.9963C30.6462 22.4278 30.2965 22.7776 29.865 22.7776ZM24.9999 31.2081C24.5684 31.2081 24.2186 30.8584 24.2186 30.4269V28.0951C24.2186 27.6636 24.5684 27.3138 24.9999 27.3138C25.4313 27.3138 25.7811 27.6636 25.7811 28.0951V30.4269C25.7811 30.8584 25.4313 31.2081 24.9999 31.2081Z" fill="#2166F3" stroke="#2166F3" stroke-width="0.5"/>
</svg>
