<svg width="50" height="50" viewBox="0 0 50 50" fill="none" xmlns="http://www.w3.org/2000/svg">
<g clip-path="url(#clip0_475_2012)">
<path d="M20.8854 26.3671H29.1145M25 22.0727V12.6953M29.8828 22.4609V28.3202L27.9296 30.2733H22.0703L20.1172 28.3202V22.4609C20.1172 20.6417 19.8561 20.1027 17.2291 16.6572C15.9776 15.0156 15.2344 12.9657 15.2344 10.7421C15.2344 5.34881 19.6066 0.976562 25 0.976562C30.3933 0.976562 34.7655 5.34881 34.7655 10.7421C34.7655 12.9657 34.0223 15.0156 32.7708 16.6572C30.1438 20.1028 29.8828 20.6417 29.8828 22.4609Z" stroke="#2166F3" stroke-width="2" stroke-miterlimit="22.9256" stroke-linecap="round" stroke-linejoin="round"/>
<path d="M26.953 10.7422L24.9999 12.6953L23.0468 10.7422M20.5179 22.4609H29.4819M8.88659 10.7422H10.8398M11.0454 2.68555L12.7369 3.66211M11.0454 18.7988L12.7369 17.8222M41.1131 10.7422H39.16M38.9543 2.68555L37.2629 3.66211M38.9543 18.7988L37.2629 17.8222M1.95302 41.6993V38.208C7.27585 38.208 10.1145 36.2058 12.6776 35.2257C17.997 33.1913 22.0875 34.8187 24.9999 39.9714M24.9999 39.9714C27.9123 34.8187 32.0028 33.1913 37.3222 35.2257C39.8852 36.2058 42.724 38.208 48.0468 38.208V41.6993M24.9999 39.9714V43.0116M24.9999 43.9881C25.7293 42.7247 26.8761 42.1875 28.3341 42.1875H49.0233V46.5821H28.2761C27.8559 47.9939 26.5482 49.0235 24.9999 49.0235C23.4516 49.0235 22.1441 47.9939 21.7237 46.5821H0.976562V42.1875H21.6657C23.1237 42.1875 24.2705 42.7247 24.9999 43.9881Z" stroke="#2166F3" stroke-width="2" stroke-miterlimit="22.9256" stroke-linecap="round" stroke-linejoin="round"/>
</g>
<defs>
<clipPath id="clip0_475_2012">
<rect width="50" height="50" fill="white"/>
</clipPath>
</defs>
</svg>
