<svg width="50" height="50" viewBox="0 0 50 50" fill="none" xmlns="http://www.w3.org/2000/svg">
<g clip-path="url(#clip0_475_2025)">
<path d="M47.6562 41.4061V13.2811C47.6562 12.6595 47.4093 12.0634 46.9698 11.6238C46.5302 11.1843 45.9341 10.9374 45.3125 10.9374H35.1562C34.949 10.9374 34.7503 11.0197 34.6038 11.1662C34.4573 11.3127 34.375 11.5114 34.375 11.7186C34.375 11.9258 34.4573 12.1245 34.6038 12.271C34.7503 12.4175 34.949 12.4999 35.1562 12.4999H45.3125C45.5197 12.4999 45.7184 12.5822 45.8649 12.7287C46.0114 12.8752 46.0938 13.0739 46.0938 13.2811V41.4061H44.5312V14.8436C44.5312 14.6364 44.4489 14.4377 44.3024 14.2912C44.1559 14.1447 43.9572 14.0624 43.75 14.0624H35.1562C34.949 14.0624 34.7503 14.1447 34.6038 14.2912C34.4573 14.4377 34.375 14.6364 34.375 14.8436C34.375 15.0508 34.4573 15.2495 34.6038 15.396C34.7503 15.5425 34.949 15.6249 35.1562 15.6249H42.9688V41.4061H41.4062C41.4062 40.5773 41.077 39.7824 40.491 39.1964C39.9049 38.6103 39.1101 38.2811 38.2812 38.2811C38.28 37.0383 37.7858 35.8467 36.9069 34.9679C36.0281 34.0891 34.8366 33.5948 33.5938 33.5936C33.4859 33.5936 33.382 33.6139 33.2758 33.6217C33.0268 33.0518 32.6465 32.5488 32.166 32.154C31.6855 31.7591 31.1183 31.4836 30.5109 31.3498L30.9516 30.4686H39.0625C39.2697 30.4686 39.4684 30.3863 39.6149 30.2398C39.7614 30.0933 39.8438 29.8946 39.8438 29.6874V26.5186C39.8426 25.9124 39.7017 25.3146 39.432 24.7717L36.7188 19.3467C36.4095 18.7252 35.939 18.198 35.3565 17.8204C34.7739 17.4428 34.1007 17.2284 33.407 17.1999C32.218 5.12798 25.7031 1.07485 25.4023 0.89282C25.2808 0.819817 25.1418 0.78125 25 0.78125C24.8582 0.78125 24.7192 0.819817 24.5977 0.89282C24.2945 1.07485 17.782 5.12798 16.593 17.1999C15.8993 17.2284 15.2261 17.4428 14.6435 17.8204C14.061 18.198 13.5905 18.7252 13.2812 19.3467L10.568 24.7717C10.2983 25.3146 10.1574 25.9124 10.1562 26.5186V29.6874C10.1562 29.8946 10.2386 30.0933 10.3851 30.2398C10.5316 30.3863 10.7303 30.4686 10.9375 30.4686H19.0484L19.4891 31.3498C18.8817 31.4836 18.3145 31.7591 17.834 32.154C17.3535 32.5488 16.9732 33.0518 16.7242 33.6217C16.618 33.6139 16.5141 33.5936 16.4062 33.5936C15.1634 33.5948 13.9719 34.0891 13.0931 34.9679C12.2142 35.8467 11.72 37.0383 11.7188 38.2811C10.8899 38.2811 10.0951 38.6103 9.50904 39.1964C8.92299 39.7824 8.59375 40.5773 8.59375 41.4061H7.03125V15.6249H14.8438C15.051 15.6249 15.2497 15.5425 15.3962 15.396C15.5427 15.2495 15.625 15.0508 15.625 14.8436C15.625 14.6364 15.5427 14.4377 15.3962 14.2912C15.2497 14.1447 15.051 14.0624 14.8438 14.0624H6.25C6.0428 14.0624 5.84409 14.1447 5.69757 14.2912C5.55106 14.4377 5.46875 14.6364 5.46875 14.8436V41.4061H3.90625V13.2811C3.90625 13.0739 3.98856 12.8752 4.13507 12.7287C4.28159 12.5822 4.4803 12.4999 4.6875 12.4999H14.8438C15.051 12.4999 15.2497 12.4175 15.3962 12.271C15.5427 12.1245 15.625 11.9258 15.625 11.7186C15.625 11.5114 15.5427 11.3127 15.3962 11.1662C15.2497 11.0197 15.051 10.9374 14.8438 10.9374H4.6875C4.0659 10.9374 3.46976 11.1843 3.03022 11.6238C2.59068 12.0634 2.34375 12.6595 2.34375 13.2811V41.4061C1.92935 41.4061 1.53192 41.5707 1.2389 41.8637C0.94587 42.1568 0.78125 42.5542 0.78125 42.9686V43.7499C0.782904 45.1997 1.35961 46.5898 2.38484 47.615C3.41007 48.6402 4.80011 49.2169 6.25 49.2186H43.75C45.1999 49.2169 46.5899 48.6402 47.6152 47.615C48.6404 46.5898 49.2171 45.1997 49.2188 43.7499V42.9686C49.2188 42.5542 49.0541 42.1568 48.7611 41.8637C48.4681 41.5707 48.0707 41.4061 47.6562 41.4061ZM38.2812 39.8436C38.6957 39.8436 39.0931 40.0082 39.3861 40.3012C39.6791 40.5943 39.8438 40.9917 39.8438 41.4061H36.7188C36.84 41.4061 36.9597 41.3779 37.0681 41.3236C37.1766 41.2694 37.271 41.1906 37.3437 41.0936C37.6211 40.7207 37.8415 40.3087 37.9977 39.8709C38.0912 39.8532 38.1861 39.844 38.2812 39.8436ZM35.3211 20.0452L38.0344 25.4686C38.1966 25.7949 38.2811 26.1542 38.2812 26.5186V28.9061H33.0563C33.4857 26.3252 33.6657 23.709 33.5938 21.0936C33.5937 20.2881 33.5672 19.5186 33.525 18.7709C33.9063 18.8185 34.2699 18.9597 34.5834 19.1821C34.8968 19.4044 35.1502 19.701 35.3211 20.0452ZM25 2.52251C26.9623 4.1691 28.5176 6.24684 29.5445 8.5936H20.4555C21.4823 6.24677 23.0376 4.169 25 2.52251ZM11.7188 26.5186C11.7191 26.155 11.8036 25.7964 11.9656 25.4709L14.6789 20.0452C14.8498 19.7009 15.1034 19.4043 15.417 19.1819C15.7305 18.9596 16.0943 18.8184 16.4758 18.7709C16.4303 19.5443 16.4071 20.3189 16.4062 21.0936C16.3343 23.709 16.5143 26.3252 16.9437 28.9061H11.7188V26.5186ZM25 28.9061H18.5391C18.3336 28.0709 17.9688 25.9124 17.9688 21.0936C17.9047 17.3674 18.5213 13.6609 19.7883 10.1561H30.2117C31.4787 13.6609 32.0953 17.3674 32.0312 21.0936C32.0313 25.9272 31.6641 28.0834 31.4617 28.9061H28.125C27.9178 28.9061 27.7191 28.9884 27.5726 29.1349C27.4261 29.2814 27.3438 29.4802 27.3438 29.6874C27.3438 29.8946 27.4261 30.0933 27.5726 30.2398C27.7191 30.3863 27.9178 30.4686 28.125 30.4686H29.2047L28.6391 31.5991C28.5742 31.7288 28.4745 31.838 28.3512 31.9143C28.2278 31.9906 28.0857 32.031 27.9406 32.0311H22.0594C21.9143 32.031 21.7722 31.9906 21.6488 31.9143C21.5255 31.838 21.4258 31.7288 21.3609 31.5991L20.7953 30.4686H25C25.2072 30.4686 25.4059 30.3863 25.5524 30.2398C25.6989 30.0933 25.7812 29.8946 25.7812 29.6874C25.7812 29.4802 25.6989 29.2814 25.5524 29.1349C25.4059 28.9884 25.2072 28.9061 25 28.9061ZM16.4062 35.1561C17.1263 35.1575 17.824 35.4069 18.3818 35.8621C18.9397 36.3174 19.3238 36.9509 19.4695 37.6561C19.4879 37.7586 19.5266 37.8565 19.5834 37.9438C19.6401 38.0312 19.7138 38.1063 19.8 38.1648C19.8862 38.2233 19.9832 38.264 20.0854 38.2844C20.1875 38.3048 20.2928 38.3046 20.3948 38.2837C20.4969 38.2629 20.5938 38.2219 20.6797 38.163C20.7657 38.1042 20.8391 38.0287 20.8954 37.9411C20.9518 37.8535 20.9901 37.7556 21.0081 37.6529C21.026 37.5503 21.0233 37.4451 21 37.3436C20.8468 36.6101 20.5199 35.9241 20.0469 35.343C19.5738 34.7619 18.9684 34.3026 18.2812 34.0038C18.4857 33.6446 18.781 33.3454 19.1375 33.1363C19.494 32.9272 19.8992 32.8155 20.3125 32.8124C20.5316 33.0588 20.8006 33.2559 21.1016 33.3906C21.4026 33.5253 21.7288 33.5945 22.0586 33.5936H27.9398C28.2699 33.5947 28.5964 33.5256 28.8977 33.3909C29.199 33.2562 29.4682 33.059 29.6875 32.8124C30.1008 32.8155 30.506 32.9272 30.8625 33.1363C31.219 33.3454 31.5143 33.6446 31.7187 34.0038C31.0316 34.3026 30.4262 34.7619 29.9531 35.343C29.4801 35.9241 29.1532 36.6101 29 37.3436C28.9767 37.4451 28.974 37.5503 28.9919 37.6529C29.0099 37.7556 29.0482 37.8535 29.1046 37.9411C29.1609 38.0287 29.2343 38.1042 29.3203 38.163C29.4062 38.2219 29.5031 38.2629 29.6052 38.2837C29.7072 38.3046 29.8125 38.3048 29.9146 38.2844C30.0168 38.264 30.1138 38.2233 30.2 38.1648C30.2862 38.1063 30.3599 38.0312 30.4166 37.9438C30.4734 37.8565 30.5121 37.7586 30.5305 37.6561C30.6839 36.8958 31.1145 36.2197 31.7387 35.7592C32.3629 35.2988 33.1361 35.0869 33.9078 35.1649C34.6795 35.2428 35.3947 35.605 35.9142 36.1809C36.4337 36.7569 36.7205 37.5055 36.7188 38.2811C36.7211 38.9576 36.5015 39.6163 36.0938 40.1561C36.0067 40.2722 35.9537 40.4102 35.9407 40.5547C35.9276 40.6992 35.9551 40.8445 36.02 40.9742C36.0849 41.104 36.1846 41.2131 36.308 41.2894C36.4314 41.3657 36.5737 41.4061 36.7188 41.4061H13.2812C13.4263 41.4061 13.5686 41.3657 13.692 41.2894C13.8154 41.2131 13.9151 41.104 13.98 40.9742C14.0449 40.8445 14.0724 40.6992 14.0593 40.5547C14.0463 40.4102 13.9933 40.2722 13.9062 40.1561C13.4985 39.6163 13.2789 38.9576 13.2812 38.2811C13.2812 37.4523 13.6105 36.6574 14.1965 36.0714C14.7826 35.4853 15.5774 35.1561 16.4062 35.1561ZM11.7188 39.8436C11.8139 39.8443 11.9089 39.8537 12.0023 39.8717C12.1586 40.3092 12.3789 40.721 12.6563 41.0936C12.729 41.1906 12.8234 41.2694 12.9319 41.3236C13.0403 41.3779 13.16 41.4061 13.2812 41.4061H10.1562C10.1562 40.9917 10.3209 40.5943 10.6139 40.3012C10.9069 40.0082 11.3043 39.8436 11.7188 39.8436ZM47.6562 43.7499C47.655 44.7855 47.2431 45.7783 46.5108 46.5106C45.7785 47.2429 44.7856 47.6549 43.75 47.6561H6.25C5.21438 47.6549 4.22153 47.2429 3.48923 46.5106C2.75694 45.7783 2.34499 44.7855 2.34375 43.7499V42.9686H16.4062V44.5311C16.4062 44.9455 16.5709 45.3429 16.8639 45.636C17.1569 45.929 17.5543 46.0936 17.9688 46.0936H26.5625C26.7697 46.0936 26.9684 46.0113 27.1149 45.8648C27.2614 45.7183 27.3438 45.5196 27.3438 45.3124C27.3438 45.1052 27.2614 44.9064 27.1149 44.7599C26.9684 44.6134 26.7697 44.5311 26.5625 44.5311H17.9688V42.9686H32.0312V44.5311H29.6875C29.4803 44.5311 29.2816 44.6134 29.1351 44.7599C28.9886 44.9064 28.9062 45.1052 28.9062 45.3124C28.9062 45.5196 28.9886 45.7183 29.1351 45.8648C29.2816 46.0113 29.4803 46.0936 29.6875 46.0936H32.0312C32.4457 46.0936 32.8431 45.929 33.1361 45.636C33.4291 45.3429 33.5938 44.9455 33.5938 44.5311V42.9686H47.6562V43.7499Z" fill="#2166F3"/>
<path d="M30.4688 18.75C30.4688 17.6684 30.148 16.6111 29.5471 15.7117C28.9462 14.8124 28.0921 14.1115 27.0928 13.6975C26.0935 13.2836 24.9939 13.1753 23.9331 13.3863C22.8723 13.5973 21.8978 14.1182 21.133 14.883C20.3682 15.6478 19.8473 16.6223 19.6363 17.6831C19.4253 18.7439 19.5336 19.8435 19.9475 20.8428C20.3615 21.8421 21.0624 22.6962 21.9617 23.2971C22.8611 23.898 23.9184 24.2188 25 24.2188C26.4499 24.2171 27.8399 23.6404 28.8652 22.6152C29.8904 21.5899 30.4671 20.1999 30.4688 18.75ZM25 22.6563C24.2274 22.6563 23.4722 22.4272 22.8298 21.9979C22.1874 21.5687 21.6868 20.9586 21.3911 20.2449C21.0954 19.5311 21.0181 18.7457 21.1688 17.9879C21.3195 17.2302 21.6916 16.5342 22.2379 15.9879C22.7842 15.4416 23.4802 15.0695 24.2379 14.9188C24.9957 14.7681 25.7811 14.8454 26.4949 15.1411C27.2086 15.4368 27.8187 15.9374 28.2479 16.5798C28.6772 17.2222 28.9062 17.9774 28.9062 18.75C28.905 19.7856 28.4931 20.7785 27.7608 21.5108C27.0285 22.2431 26.0356 22.655 25 22.6563ZM23.4375 40.625C23.6447 40.625 23.8434 40.5427 23.9899 40.3962C24.1364 40.2497 24.2188 40.051 24.2188 39.8438V38.2813C24.2188 38.0741 24.1364 37.8753 23.9899 37.7288C23.8434 37.5823 23.6447 37.5 23.4375 37.5C23.2303 37.5 23.0316 37.5823 22.8851 37.7288C22.7386 37.8753 22.6562 38.0741 22.6562 38.2813V39.8438C22.6562 40.051 22.7386 40.2497 22.8851 40.3962C23.0316 40.5427 23.2303 40.625 23.4375 40.625ZM26.5625 37.5C26.7697 37.5 26.9684 37.4177 27.1149 37.2712C27.2614 37.1247 27.3438 36.926 27.3438 36.7188V35.1563C27.3438 34.9491 27.2614 34.7503 27.1149 34.6038C26.9684 34.4573 26.7697 34.375 26.5625 34.375C26.3553 34.375 26.1566 34.4573 26.0101 34.6038C25.8636 34.7503 25.7812 34.9491 25.7812 35.1563V36.7188C25.7812 36.926 25.8636 37.1247 26.0101 37.2712C26.1566 37.4177 26.3553 37.5 26.5625 37.5ZM32.8125 40.625C33.0197 40.625 33.2184 40.5427 33.3649 40.3962C33.5114 40.2497 33.5938 40.051 33.5938 39.8438V38.2813C33.5938 38.0741 33.5114 37.8753 33.3649 37.7288C33.2184 37.5823 33.0197 37.5 32.8125 37.5C32.6053 37.5 32.4066 37.5823 32.2601 37.7288C32.1136 37.8753 32.0312 38.0741 32.0312 38.2813V39.8438C32.0312 40.051 32.1136 40.2497 32.2601 40.3962C32.4066 40.5427 32.6053 40.625 32.8125 40.625ZM17.1875 39.8438C17.3947 39.8438 17.5934 39.7614 17.7399 39.6149C17.8864 39.4684 17.9688 39.2697 17.9688 39.0625V37.5C17.9688 37.2928 17.8864 37.0941 17.7399 36.9476C17.5934 36.8011 17.3947 36.7188 17.1875 36.7188C16.9803 36.7188 16.7816 36.8011 16.6351 36.9476C16.4886 37.0941 16.4062 37.2928 16.4062 37.5V39.0625C16.4062 39.2697 16.4886 39.4684 16.6351 39.6149C16.7816 39.7614 16.9803 39.8438 17.1875 39.8438Z" fill="#2166F3"/>
</g>
<defs>
<clipPath id="clip0_475_2025">
<rect width="50" height="50" fill="white"/>
</clipPath>
</defs>
</svg>
