<svg width="50" height="50" viewBox="0 0 50 50" fill="none" xmlns="http://www.w3.org/2000/svg">
<path d="M48.5352 26.4648H1.46484C0.655859 26.4648 0 27.1207 0 27.9297C0 28.7387 0.655859 29.3945 1.46484 29.3945H22.4128L14.9548 41.8245C14.3697 42.7998 15.0739 44.043 16.2109 44.043H33.7891C34.9265 44.043 35.6301 42.7994 35.0451 41.8245L27.5872 29.3945H48.5352C49.3441 29.3945 50 28.7387 50 27.9297C50 27.1207 49.3441 26.4648 48.5352 26.4648ZM18.7981 41.1133L25 30.7769L31.2019 41.1133H18.7981ZM8.78906 23.5352C13.6354 23.5352 17.5781 19.5924 17.5781 14.7461C17.5781 9.8998 13.6354 5.95703 8.78906 5.95703C3.94277 5.95703 0 9.8998 0 14.7461C0 19.5924 3.94277 23.5352 8.78906 23.5352ZM8.78906 8.88672C12.0199 8.88672 14.6484 11.5152 14.6484 14.7461C14.6484 17.977 12.0199 20.6055 8.78906 20.6055C5.5582 20.6055 2.92969 17.977 2.92969 14.7461C2.92969 11.5152 5.5582 8.88672 8.78906 8.88672ZM41.2109 23.5352C46.0572 23.5352 50 19.5924 50 14.7461C50 9.8998 46.0572 5.95703 41.2109 5.95703C36.3646 5.95703 32.4219 9.8998 32.4219 14.7461C32.4219 19.5924 36.3646 23.5352 41.2109 23.5352ZM41.2109 8.88672C44.4418 8.88672 47.0703 11.5152 47.0703 14.7461C47.0703 17.977 44.4418 20.6055 41.2109 20.6055C37.9801 20.6055 35.3516 17.977 35.3516 14.7461C35.3516 11.5152 37.9801 8.88672 41.2109 8.88672Z" fill="#2166F3"/>
</svg>
