<svg width="50" height="50" viewBox="0 0 50 50" fill="none" xmlns="http://www.w3.org/2000/svg">
<mask id="mask0_475_2034" style="mask-type:luminance" maskUnits="userSpaceOnUse" x="2" y="2" width="46" height="46">
<path d="M47 47V3H3V47H47Z" fill="white" stroke="white" stroke-width="2"/>
</mask>
<g mask="url(#mask0_475_2034)">
<path d="M41.9412 10.6862C40.8184 11.809 38.9981 11.809 37.8753 10.6862C36.7525 9.56346 36.7525 7.74314 37.8753 6.62036C38.9981 5.49758 40.8184 5.49758 41.9412 6.62036C43.0639 7.74314 43.0639 9.56346 41.9412 10.6862Z" stroke="#2166F3" stroke-width="2" stroke-miterlimit="10" stroke-linecap="round" stroke-linejoin="round"/>
<path d="M12.1248 43.3796C11.002 44.5024 9.18166 44.5024 8.05888 43.3796C6.9361 42.2568 6.9361 40.4365 8.05888 39.3137C9.18166 38.1909 11.002 38.1909 12.1248 39.3137C13.2475 40.4365 13.2475 42.2568 12.1248 43.3796Z" stroke="#2166F3" stroke-width="2" stroke-miterlimit="10" stroke-linecap="round" stroke-linejoin="round"/>
<path d="M20.6387 46.6718C22.0738 46.9584 23.5338 47.1023 24.9973 47.1016C37.2036 47.1016 47.0988 37.2063 47.0988 25C47.0988 19.6715 45.2128 14.7836 42.0723 10.9668" stroke="#2166F3" stroke-width="2" stroke-miterlimit="10" stroke-linecap="round" stroke-linejoin="round"/>
<path d="M29.4005 3.33658C27.9519 3.04445 26.4778 2.89766 25 2.89841C12.7936 2.89841 2.89844 12.7936 2.89844 25C2.89844 30.3285 4.78444 35.2164 7.92493 39.0332" stroke="#2166F3" stroke-width="2" stroke-miterlimit="10" stroke-linecap="round" stroke-linejoin="round"/>
<path d="M24.9996 31.5254C21.3958 31.5254 18.4742 28.6039 18.4742 25C18.4742 21.3962 21.3958 18.4747 24.9996 18.4747C28.6034 18.4747 31.5249 21.3962 31.5249 25C31.5249 28.6039 28.6034 31.5254 24.9996 31.5254ZM38.0121 22.1831C37.6754 20.6161 37.0568 19.1233 36.1865 17.7774L37.9079 16.0559L33.9342 12.0851L32.2141 13.8051C30.8682 12.9348 29.3754 12.3162 27.8084 11.9796V9.54688H22.1907V11.9796C20.6237 12.3162 19.1309 12.9348 17.785 13.8051L16.065 12.0851L12.0913 16.0559L13.8127 17.7774C12.9424 19.1233 12.3238 20.6161 11.9871 22.1831H9.54798L9.54492 27.8008H11.987C12.3237 29.3678 12.9423 30.8607 13.8126 32.2066L12.0846 33.9346L16.0554 37.9084L17.7849 36.1789C19.1308 37.0493 20.6236 37.6679 22.1907 38.0046V40.4531H27.8084V38.0046C29.3755 37.6679 30.8684 37.0493 32.2143 36.1789L33.9437 37.9084L37.9145 33.9346L36.1866 32.2066C37.0569 30.8607 37.6754 29.3678 38.0122 27.8008H40.4542V22.1831H38.0121Z" stroke="#2166F3" stroke-width="2" stroke-miterlimit="10" stroke-linecap="round" stroke-linejoin="round"/>
</g>
</svg>
