<svg width="50" height="50" viewBox="0 0 50 50" fill="none" xmlns="http://www.w3.org/2000/svg">
<g clip-path="url(#clip0_475_2004)">
<path d="M29.5918 49.2676H31.9824C33.6006 49.2676 34.9121 47.9561 34.9121 46.3379V21.9238H0.732422V46.3379C0.732422 47.9561 2.04395 49.2676 3.66211 49.2676H28.127M0.732422 27.7832H34.9121M15.0879 21.9238V0.732422H44.2627" stroke="#2166F3" stroke-width="1.8" stroke-miterlimit="10"/>
<path d="M45.7275 0.732422H49.2676V25.1465C49.2676 26.7646 47.9561 28.0762 46.3379 28.0762H34.9121M15.0879 6.5918H49.2676M21.1354 10.8783L24.065 13.808L21.1354 16.7377M27.3107 15.2729H39.3139M27.3107 12.3432H43.2201M22.0373 34.6191H28.8591M22.0373 31.6895H31.0791M22.0373 40.4785H28.8591M22.0373 37.5488H31.0791M5.61523 31.6895H19.2871V45.3613H5.61523V31.6895Z" stroke="#2166F3" stroke-width="1.8" stroke-miterlimit="10"/>
<path d="M5.61523 44.0313L10.1318 40.4785L13.7715 42.4199" stroke="#2166F3" stroke-width="1.8" stroke-miterlimit="10"/>
<path d="M10.5742 45.3613L16.9443 39.502L19.2881 40.9668" stroke="#2166F3" stroke-width="1.8" stroke-miterlimit="10"/>
<path d="M12.4512 38.4922C13.5299 38.4922 14.4043 37.6177 14.4043 36.5391C14.4043 35.4604 13.5299 34.5859 12.4512 34.5859C11.3725 34.5859 10.498 35.4604 10.498 36.5391C10.498 37.6177 11.3725 38.4922 12.4512 38.4922Z" stroke="#2166F3" stroke-width="1.8" stroke-miterlimit="10"/>
<path d="M3.90625 24.8535H5.37109M6.83594 24.8535H8.30078M18.3594 3.75977H19.8242M21.2891 3.75977H22.7539" stroke="#2166F3" stroke-width="1.8" stroke-miterlimit="10"/>
</g>
<defs>
<clipPath id="clip0_475_2004">
<rect width="50" height="50" fill="white"/>
</clipPath>
</defs>
</svg>
