<svg width="50" height="50" viewBox="0 0 50 50" fill="none" xmlns="http://www.w3.org/2000/svg">
<path d="M35.1012 9.01402V6.11533C35.1012 4.75866 34.5623 3.45756 33.603 2.49825C32.6437 1.53894 31.3425 1 29.9859 1H26.5757C25.219 1 23.9179 1.53894 22.9586 2.49825C21.9993 3.45756 21.4603 4.75866 21.4603 6.11533V9.01402C17.2199 10.5055 13.5885 13.3518 11.1274 17.1133C11.0042 17.3014 10.9193 17.5119 10.8775 17.7328C10.8357 17.9537 10.8378 18.1807 10.8837 18.4008C10.9765 18.8452 11.242 19.2347 11.6218 19.4834C12.0017 19.7321 12.4648 19.8197 12.9093 19.727C13.3538 19.6343 13.7432 19.3688 13.9919 18.9889C15.7728 16.2508 18.3027 14.0818 21.2806 12.7399C24.2585 11.398 27.5592 10.9397 30.7901 11.4194C34.021 11.8992 37.0461 13.2968 39.5056 15.4461C41.9652 17.5954 43.7556 20.4059 44.6641 23.5433C45.5725 26.6808 45.5607 30.0131 44.63 33.144C43.6993 36.2749 41.889 39.0726 39.4142 41.2044C36.9395 43.3362 33.9046 44.7123 30.6704 45.1691C27.4361 45.6259 24.1388 45.1442 21.1705 43.7812C20.7589 43.5935 20.2897 43.577 19.866 43.7353C19.4423 43.8936 19.0989 44.2137 18.9112 44.6252C18.7235 45.0368 18.707 45.506 18.8653 45.9297C19.0236 46.3534 19.3437 46.6968 19.7552 46.8845C22.2719 48.0681 25.0034 48.7262 27.7829 48.8187C30.5624 48.9112 33.3316 48.436 35.9214 47.4223C38.5111 46.4087 40.867 44.8777 42.8452 42.9229C44.8234 40.9681 46.3823 38.6306 47.4268 36.0531C48.4712 33.4756 48.9793 30.7123 48.9199 27.9319C48.8605 25.1514 48.235 22.4123 47.0814 19.8817C45.9279 17.3512 44.2706 15.0823 42.2108 13.2138C40.151 11.3453 37.7319 9.91624 35.1012 9.01402ZM24.8705 8.14441V6.11533C24.8705 5.66311 25.0502 5.22941 25.37 4.90964C25.6897 4.58987 26.1234 4.41022 26.5757 4.41022H29.9859C30.4381 4.41022 30.8718 4.58987 31.1916 4.90964C31.5113 5.22941 31.691 5.66311 31.691 6.11533V8.12736C30.5648 7.92995 29.4241 7.82729 28.2808 7.82044C27.137 7.83371 25.9963 7.94208 24.8705 8.14441Z" fill="black"/>
<path d="M38.1373 20.404C37.856 20.0526 37.4471 19.8268 36.9999 19.7757C36.5527 19.7246 36.1035 19.8524 35.7501 20.1312L30.9588 23.9506C30.1606 23.4368 29.231 23.1644 28.2818 23.1662C27.27 23.1662 26.281 23.4663 25.4398 24.0283C24.5986 24.5904 23.943 25.3893 23.5558 26.324C23.1686 27.2587 23.0673 28.2873 23.2647 29.2795C23.4621 30.2718 23.9493 31.1833 24.6647 31.8987C25.3801 32.6141 26.2915 33.1012 27.2838 33.2986C28.2761 33.496 29.3046 33.3947 30.2393 33.0075C31.174 32.6204 31.9729 31.9647 32.535 31.1235C33.0971 30.2823 33.3971 29.2933 33.3971 28.2816C33.3949 27.6997 33.291 27.1226 33.0902 26.5765L37.8645 22.757C38.206 22.4766 38.4253 22.0746 38.4762 21.6356C38.5271 21.1967 38.4056 20.7551 38.1373 20.404ZM28.2818 29.9867C27.9445 29.9867 27.6148 29.8867 27.3344 29.6993C27.054 29.512 26.8355 29.2457 26.7064 28.9341C26.5774 28.6225 26.5436 28.2797 26.6094 27.9489C26.6752 27.6182 26.8376 27.3143 27.0761 27.0759C27.3145 26.8374 27.6183 26.675 27.9491 26.6092C28.2799 26.5434 28.6227 26.5772 28.9343 26.7063C29.2458 26.8353 29.5121 27.0539 29.6995 27.3343C29.8869 27.6147 29.9869 27.9443 29.9869 28.2816C29.9869 28.7338 29.8072 29.1675 29.4874 29.4873C29.1677 29.807 28.734 29.9867 28.2818 29.9867ZM16.346 23.1662H6.11533C5.66311 23.1662 5.2294 23.3459 4.90963 23.6657C4.58986 23.9854 4.41022 24.4191 4.41022 24.8714C4.41022 25.3236 4.58986 25.7573 4.90963 26.0771C5.2294 26.3968 5.66311 26.5765 6.11533 26.5765H16.346C16.7982 26.5765 17.2319 26.3968 17.5517 26.0771C17.8715 25.7573 18.0511 25.3236 18.0511 24.8714C18.0511 24.4191 17.8715 23.9854 17.5517 23.6657C17.2319 23.3459 16.7982 23.1662 16.346 23.1662ZM16.346 29.9867H2.70511C2.25289 29.9867 1.81919 30.1663 1.49941 30.4861C1.17964 30.8059 1 31.2396 1 31.6918C1 32.144 1.17964 32.5777 1.49941 32.8975C1.81919 33.2173 2.25289 33.3969 2.70511 33.3969H16.346C16.7982 33.3969 17.2319 33.2173 17.5517 32.8975C17.8715 32.5777 18.0511 32.144 18.0511 31.6918C18.0511 31.2396 17.8715 30.8059 17.5517 30.4861C17.2319 30.1663 16.7982 29.9867 16.346 29.9867ZM16.346 36.8071H6.11533C5.66311 36.8071 5.2294 36.9868 4.90963 37.3065C4.58986 37.6263 4.41022 38.06 4.41022 38.5122C4.41022 38.9645 4.58986 39.3982 4.90963 39.7179C5.2294 40.0377 5.66311 40.2173 6.11533 40.2173H16.346C16.7982 40.2173 17.2319 40.0377 17.5517 39.7179C17.8715 39.3982 18.0511 38.9645 18.0511 38.5122C18.0511 38.06 17.8715 37.6263 17.5517 37.3065C17.2319 36.9868 16.7982 36.8071 16.346 36.8071Z" fill="black"/>
</svg>
