<svg width="57" height="57" viewBox="0 0 57 57" fill="none" xmlns="http://www.w3.org/2000/svg">
<path d="M22.0619 51.0903C22.0619 51.2674 21.9916 51.4373 21.8663 51.5626C21.741 51.6879 21.5711 51.7582 21.394 51.7582H16.7806C16.6035 51.7582 16.4336 51.6879 16.3083 51.5626C16.183 51.4373 16.1127 51.2674 16.1127 51.0903C16.1127 50.9131 16.183 50.7432 16.3083 50.6179C16.4336 50.4927 16.6035 50.4223 16.7806 50.4223H21.3939C21.571 50.4223 21.7409 50.4927 21.8662 50.6179C21.9915 50.7432 22.0619 50.9131 22.0619 51.0903ZM54.4368 28.5C54.4368 29.2025 54.4001 29.9116 54.3278 30.6078C54.1882 31.9525 53.1504 32.9791 51.8041 33.1043L48.9706 33.3677C48.4971 33.4117 48.1075 33.6992 47.9282 34.1368C47.7491 34.5745 47.8251 35.0527 48.1317 35.416L49.9658 37.5903C50.8374 38.6235 50.8571 40.0831 50.0138 41.1395C49.1006 42.283 48.0671 43.325 46.9312 44.2476C45.8816 45.1 44.4217 45.0921 43.3813 44.2285L41.1921 42.4117C40.8263 42.108 40.3475 42.0359 39.9112 42.2185C39.4751 42.4013 39.1907 42.7932 39.1505 43.267L38.9098 46.1035C38.7954 47.4515 37.7766 48.4975 36.4319 48.6473C35.9036 48.7062 35.3679 48.7435 34.8324 48.7609V50.3519C34.8324 53.4039 32.3494 55.8869 29.2974 55.8869H8.09849C5.04643 55.8869 2.56348 53.4039 2.56348 50.3519V6.64829C2.56348 3.59634 5.04654 1.11328 8.09849 1.11328H29.297C32.3491 1.11328 34.832 3.59634 34.832 6.64829V8.24028C35.3141 8.25587 35.795 8.28671 36.2717 8.33625C37.6166 8.47608 38.6431 9.51377 38.7683 10.8599L39.0317 13.6935C39.0758 14.1669 39.3633 14.5567 39.801 14.7358C40.2385 14.9151 40.7167 14.8391 41.0801 14.5324L43.2544 12.6984C44.2876 11.8266 45.747 11.8069 46.8036 12.6504C47.9471 13.5636 48.9891 14.597 49.9117 15.733C50.7639 16.7826 50.756 18.2424 49.8925 19.2829L48.0758 21.4721C47.772 21.838 47.6998 22.3169 47.8826 22.7531C48.0653 23.1892 48.4573 23.4735 48.931 23.5137L51.7675 23.7544C53.1155 23.8686 54.1616 24.8877 54.3113 26.2324C54.3948 26.9854 54.4367 27.7424 54.4368 28.5ZM33.4961 50.3517V48.7605C33.0152 48.7452 32.535 48.713 32.0564 48.6637C30.7116 48.5239 29.685 47.4862 29.5599 46.1401L29.2965 43.3065C29.2525 42.8329 28.9649 42.4433 28.5274 42.2642C28.0898 42.0849 27.6114 42.1609 27.248 42.4676L25.0738 44.3016C24.0406 45.1732 22.5811 45.193 21.5245 44.3496C20.3811 43.4364 19.3391 42.403 18.4165 41.2671C17.5642 40.2173 17.5721 38.7574 18.4356 37.7171L20.2524 35.5279C20.5561 35.162 20.6284 34.6831 20.4456 34.2469C20.2629 33.8108 19.8709 33.5265 19.3972 33.4863L16.5606 33.2456C15.2126 33.1311 14.1665 32.1122 14.0168 30.7676C13.8552 29.314 13.8496 27.8472 14.0002 26.3923C14.1398 25.0476 15.1776 24.021 16.5238 23.8958L19.3574 23.6324C19.8309 23.5884 20.2206 23.3009 20.3998 22.8633C20.579 22.4258 20.503 21.9475 20.1964 21.5841L18.3624 19.4098C17.4908 18.3766 17.4711 16.917 18.3144 15.8606C19.2276 14.7171 20.261 13.6751 21.397 12.7525C22.4466 11.9002 23.9065 11.9081 24.9469 12.7716L27.136 14.5884C27.502 14.8921 27.9808 14.9642 28.417 14.7816C28.8531 14.5988 29.1375 14.2069 29.1777 13.7331L29.4184 10.8966C29.5327 9.54861 30.5516 8.50257 31.8962 8.35284C32.425 8.29395 32.9595 8.2562 33.4958 8.23895V6.64829C33.4958 4.33289 31.6121 2.44922 29.2967 2.44922H8.09849C5.78309 2.44922 3.89941 4.33289 3.89941 6.64829V50.3517C3.89941 52.6671 5.78309 54.5508 8.09849 54.5508H29.297C31.6124 54.5508 33.4961 52.6671 33.4961 50.3517ZM53.1009 28.5C53.1009 27.7926 53.0615 27.0795 52.9835 26.3803C52.9053 25.6777 52.3588 25.1453 51.6545 25.0857L48.818 24.845C47.8539 24.7632 47.0233 24.1595 46.6504 23.2695C46.2776 22.3794 46.4298 21.3639 47.0477 20.6191L48.8645 18.4298C49.3157 17.8862 49.3198 17.1236 48.8745 16.5752C48.0124 15.5137 47.0387 14.5479 45.9701 13.6946C45.4181 13.2538 44.6556 13.2642 44.1157 13.7196L41.9415 15.5537C41.2019 16.1775 40.1876 16.3381 39.2946 15.9722C38.4016 15.6065 37.791 14.7808 37.7014 13.8174L37.438 10.9839C37.3727 10.2805 36.8362 9.73832 36.1336 9.66517C34.7738 9.5249 33.4029 9.53012 32.0443 9.68076C31.3417 9.75891 30.8094 10.3054 30.7498 11.0098L30.5091 13.8463C30.4272 14.8104 29.8234 15.641 28.9333 16.014C28.0431 16.3868 27.0276 16.2344 26.283 15.6167L24.0939 13.7998C23.5503 13.3485 22.7875 13.3443 22.2391 13.7899C21.1775 14.6519 20.2118 15.6256 19.3584 16.6942C18.9178 17.2462 18.928 18.0089 19.3836 18.5486L21.2176 20.7228C21.8415 21.4625 22.0019 22.4767 21.6362 23.3698C21.2704 24.2627 20.4447 24.8733 19.4812 24.9629L16.6476 25.2263C15.9443 25.2916 15.4021 25.8279 15.3291 26.5306C15.1882 27.8903 15.1934 29.2613 15.3446 30.6199C15.4229 31.3224 15.9694 31.8548 16.6736 31.9145L19.5102 32.1552C20.4743 32.2371 21.3049 32.8407 21.6777 33.7308C22.0506 34.6208 21.8984 35.6364 21.2804 36.3811L19.4636 38.5704C19.0124 39.1139 19.0083 39.8766 19.4536 40.425C20.3157 41.4866 21.2894 42.4524 22.3581 43.3056C22.91 43.7464 23.6725 43.736 24.2125 43.2806L26.3867 41.4466C26.8528 41.0519 27.4436 40.8351 28.0543 40.8346C28.3843 40.8346 28.7167 40.8981 29.0337 41.028C29.9267 41.3937 30.5371 42.2194 30.6266 43.183L30.89 46.0164C30.9554 46.7197 31.4919 47.2619 32.1945 47.335C33.5542 47.4753 34.9251 47.4701 36.2838 47.3195C36.9864 47.2413 37.5186 46.6948 37.5783 45.9904L37.819 43.1539C37.9008 42.1898 38.5046 41.3592 39.3947 40.9863C40.2848 40.6136 41.3003 40.7657 42.045 41.3836L44.2343 43.2004C44.7778 43.6515 45.5405 43.6558 46.0889 43.2103C47.1504 42.3483 48.1162 41.3746 48.9695 40.306C49.4101 39.754 49.3999 38.9913 48.9443 38.4516L47.1103 36.2774C46.4864 35.5378 46.326 34.5235 46.6917 33.6306C47.0574 32.7375 47.8833 32.127 48.8467 32.0373L51.6802 31.7739C52.3836 31.7086 52.9258 31.1723 52.9988 30.4696C53.0666 29.8192 53.1009 29.1564 53.1009 28.5ZM43.6325 28.5C43.6325 33.721 39.385 37.9686 34.1641 37.9686C28.9431 37.9686 24.6956 33.7211 24.6956 28.5C24.6956 23.2792 28.9431 19.0315 34.1641 19.0315C39.3849 19.0315 43.6325 23.2792 43.6325 28.5ZM42.2966 28.5C42.2966 24.0157 38.6484 20.3675 34.1641 20.3675C29.6798 20.3675 26.0316 24.0157 26.0316 28.5C26.0316 32.9843 29.6798 36.6326 34.1641 36.6326C38.6484 36.6326 42.2966 32.9843 42.2966 28.5ZM37.2228 25.7443C37.1608 25.8063 37.1116 25.8799 37.078 25.961C37.0445 26.042 37.0272 26.1288 37.0272 26.2165C37.0272 26.3043 37.0445 26.3911 37.078 26.4721C37.1116 26.5532 37.1608 26.6268 37.2228 26.6888L39.0339 28.5L37.2228 30.3112C37.1294 30.4046 37.0657 30.5236 37.0399 30.6532C37.0141 30.7828 37.0274 30.9171 37.0779 31.0392C37.1285 31.1612 37.2141 31.2656 37.324 31.3389C37.4339 31.4123 37.5631 31.4515 37.6952 31.4514C37.7829 31.4515 37.8698 31.4343 37.9509 31.4007C38.032 31.3671 38.1056 31.3178 38.1675 31.2557L40.4509 28.9723C40.5129 28.9102 40.5621 28.8366 40.5957 28.7556C40.6292 28.6746 40.6465 28.5877 40.6465 28.5C40.6465 28.4123 40.6292 28.3254 40.5957 28.2444C40.5621 28.1634 40.5129 28.0898 40.4509 28.0277L38.1675 25.7443C38.1055 25.6823 38.0319 25.633 37.9508 25.5995C37.8698 25.5659 37.7829 25.5486 37.6952 25.5486C37.6075 25.5486 37.5206 25.5659 37.4395 25.5995C37.3585 25.633 37.2848 25.6823 37.2228 25.7443ZM35.8691 22.1366C35.698 22.0909 35.5157 22.115 35.3623 22.2036C35.209 22.2921 35.097 22.4379 35.051 22.609L31.9867 34.0454C31.9436 34.2156 31.9692 34.396 32.058 34.5475C32.1469 34.699 32.2918 34.8094 32.4614 34.8549C32.631 34.9003 32.8118 34.8771 32.9644 34.7904C33.1171 34.7036 33.2295 34.5602 33.2772 34.3912L36.3415 22.9547C36.3873 22.7836 36.3633 22.6013 36.2747 22.4478C36.1861 22.2944 36.0402 22.1825 35.8691 22.1366ZM31.1052 25.7443C31.0432 25.6822 30.9696 25.633 30.8885 25.5994C30.8075 25.5659 30.7206 25.5486 30.6329 25.5486C30.5452 25.5486 30.4583 25.5659 30.3773 25.5994C30.2962 25.633 30.2226 25.6822 30.1606 25.7443L27.8773 28.0277C27.8152 28.0898 27.7661 28.1634 27.7325 28.2444C27.6989 28.3254 27.6816 28.4123 27.6816 28.5C27.6816 28.5877 27.6989 28.6746 27.7325 28.7556C27.7661 28.8366 27.8152 28.9102 27.8773 28.9723L30.1606 31.2557C30.2226 31.3178 30.2962 31.3671 30.3773 31.4007C30.4583 31.4343 30.5452 31.4515 30.633 31.4514C30.7651 31.4515 30.8943 31.4123 31.0041 31.3389C31.114 31.2656 31.1996 31.1612 31.2502 31.0392C31.3008 30.9171 31.314 30.7828 31.2882 30.6532C31.2624 30.5236 31.1988 30.4046 31.1053 30.3112L29.2941 28.5L31.1052 26.6888C31.1672 26.6268 31.2164 26.5532 31.25 26.4721C31.2836 26.3911 31.3008 26.3043 31.3008 26.2165C31.3008 26.1288 31.2836 26.042 31.25 25.961C31.2164 25.8799 31.1672 25.8063 31.1052 25.7443Z" fill="#2166F3" stroke="#2166F3"/>
</svg>
