<svg width="57" height="57" viewBox="0 0 57 57" fill="none" xmlns="http://www.w3.org/2000/svg">
<g clip-path="url(#clip0_2621_505)">
<path d="M56.1094 32.1116V24.8884C56.1094 24.6766 56.0339 24.4717 55.8965 24.3106C55.7591 24.1494 55.5687 24.0425 55.3596 24.009L50.9411 23.3018C50.3691 20.8205 49.3961 18.4736 48.0423 16.3099L50.6682 12.6831C50.7924 12.5115 50.8514 12.3013 50.8347 12.0902C50.8179 11.8791 50.7264 11.6808 50.5767 11.531L45.4691 6.42352C45.3193 6.27378 45.121 6.1823 44.9099 6.16551C44.6987 6.14872 44.4885 6.20771 44.3169 6.3319L40.6901 8.95779C38.5258 7.60382 36.1791 6.63093 33.6982 6.05892L32.991 1.64053C32.9575 1.43136 32.8506 1.24098 32.6894 1.10354C32.5282 0.9661 32.3233 0.890612 32.1115 0.890625H24.8883C24.6765 0.890634 24.4716 0.966118 24.3105 1.10353C24.1493 1.24094 24.0424 1.43129 24.0089 1.64042L23.3016 6.05881C20.8205 6.63081 18.4736 7.60371 16.3097 8.95757L12.6829 6.33179C12.5114 6.2076 12.3011 6.14861 12.09 6.1654C11.8789 6.18219 11.6806 6.27366 11.5308 6.42341L6.42319 11.5309C6.27342 11.6807 6.18194 11.879 6.16517 12.0901C6.14839 12.3013 6.20743 12.5115 6.33168 12.6831L8.95757 16.3098C7.60315 18.4749 6.63026 20.8214 6.0587 23.3016L1.64031 24.0089C1.43118 24.0424 1.24085 24.1494 1.10345 24.3106C0.96606 24.4717 0.890604 24.6766 0.890625 24.8884V32.1116C0.890612 32.3234 0.966087 32.5283 1.1035 32.6894C1.24092 32.8506 1.43128 32.9575 1.64042 32.991L6.05881 33.6982C6.63081 36.1793 7.60382 38.5262 8.95768 40.6901L6.33179 44.3169C6.20757 44.4885 6.14855 44.6987 6.16533 44.9098C6.1821 45.1209 6.27356 45.3192 6.4233 45.469L11.5309 50.5765C11.6807 50.7262 11.879 50.8177 12.0901 50.8345C12.3013 50.8513 12.5115 50.7923 12.6831 50.6681L16.3098 48.0422C18.4749 49.3966 20.8217 50.3696 23.3018 50.9411L24.009 55.3595C24.0425 55.5686 24.1494 55.7589 24.3106 55.8964C24.4718 56.0338 24.6766 56.1093 24.8884 56.1093H32.1116C32.3234 56.1093 32.5282 56.0338 32.6894 55.8964C32.8506 55.7589 32.9575 55.5686 32.991 55.3595L33.6255 51.3956C35.9453 54.2683 39.4941 56.1093 43.4654 56.1093C50.4373 56.1094 56.1094 50.4373 56.1094 43.4654C56.1094 39.4941 54.2683 35.9452 51.3956 33.6254L55.3595 32.991C55.5686 32.9576 55.7591 32.8507 55.8965 32.6895C56.034 32.5283 56.1094 32.3234 56.1094 32.1116ZM44.4091 30.8567C44.0951 30.8333 43.7803 30.8216 43.4654 30.8215C41.5534 30.8215 39.7398 31.2489 38.1135 32.0118V30.6035C38.1135 28.4991 36.52 26.897 33.7412 26.2078C32.7869 25.9709 31.8181 25.7969 30.841 25.6868C32.316 24.6516 33.3161 22.6715 33.3161 20.4025C33.3161 17.3337 31.4707 15.4272 28.5001 15.4272C25.5294 15.4272 23.6841 17.3337 23.6841 20.4025C23.6841 22.6666 24.6799 24.6429 26.1496 25.6799C25.1724 25.7882 24.2039 25.9652 23.2515 26.2095C20.4367 26.9331 18.8865 28.4935 18.8865 30.6035V38.5275C18.8865 38.7638 18.9803 38.9903 19.1473 39.1573C19.3144 39.3243 19.5409 39.4182 19.7771 39.4182H31.4858C31.0552 40.6894 30.8215 42.0506 30.8215 43.4654C30.8215 43.7828 30.8335 44.0975 30.8567 44.4091C30.0764 44.5238 29.2887 44.5814 28.5 44.5816C19.6326 44.5816 12.4184 37.3674 12.4184 28.4999C12.4184 19.6324 19.6326 12.4183 28.5 12.4183C37.3674 12.4183 44.5816 19.6326 44.5816 28.5C44.5816 29.2881 44.5236 30.0776 44.4091 30.8567ZM33.2591 31.5345C33.0228 31.5345 32.7963 31.6283 32.6293 31.7953C32.4623 31.9624 32.3684 32.1889 32.3684 32.4251V37.4101C32.3273 37.4852 32.2873 37.5609 32.2476 37.6368H24.6313V32.4251C24.6313 32.1889 24.5375 31.9624 24.3705 31.7953C24.2035 31.6283 23.9769 31.5345 23.7407 31.5345C23.5045 31.5345 23.278 31.6283 23.111 31.7953C22.9439 31.9624 22.8501 32.1889 22.8501 32.4251V37.6368H20.6676V30.6034C20.6676 29.0407 22.3138 28.2896 23.6949 27.9346C26.8261 27.1293 30.0616 27.13 33.3123 27.9365C34.4401 28.2162 36.3322 28.9346 36.3322 30.6034V33.0314C35.5352 33.578 34.803 34.2135 34.1497 34.9256V32.425C34.1496 32.1888 34.0558 31.9623 33.8888 31.7953C33.7218 31.6283 33.4952 31.5345 33.2591 31.5345ZM28.5 24.6709C26.8266 24.6709 25.4652 22.756 25.4652 20.4024C25.4652 17.6232 27.3666 17.2083 28.5 17.2083C29.6334 17.2083 31.5347 17.6234 31.5347 20.4024C31.5347 22.7561 30.1733 24.6709 28.5 24.6709ZM54.3281 43.4654C54.3281 49.4552 49.4552 54.3281 43.4654 54.3281C37.4757 54.3281 32.6028 49.4552 32.6028 43.4654C32.6028 37.4756 37.4757 32.6028 43.4654 32.6028C49.4552 32.6028 54.3281 37.4757 54.3281 43.4654ZM54.3281 31.3522L50.0586 32.0356C49.84 32.0709 49.6425 32.1864 49.5045 32.3595C48.4583 31.7882 47.336 31.3689 46.1716 31.1141C46.2987 30.2485 46.3626 29.3749 46.3628 28.5C46.3628 18.6504 38.3495 10.6372 28.4999 10.6372C18.6502 10.6372 10.6371 18.6505 10.6371 28.5C10.6371 38.3495 18.6504 46.3629 28.4999 46.3629C29.374 46.3629 30.2497 46.2986 31.114 46.1717C31.3689 47.3362 31.7883 48.4584 32.3595 49.5047C32.1863 49.6426 32.0708 49.8402 32.0356 50.0588L31.3521 54.3281H25.6478L24.9643 50.0587C24.9357 49.8796 24.8531 49.7136 24.7275 49.5827C24.6019 49.4519 24.4394 49.3625 24.2616 49.3266C21.5813 48.7842 19.0616 47.7396 16.7726 46.2218C16.6215 46.1216 16.4434 46.0699 16.2621 46.0737C16.0808 46.0774 15.905 46.1364 15.7582 46.2427L12.2536 48.7802L8.22002 44.7466L10.7574 41.2418C10.8638 41.095 10.9228 40.9191 10.9265 40.7378C10.9302 40.5565 10.8786 40.3784 10.7783 40.2273C9.26116 37.94 8.21646 35.4203 7.67351 32.7384C7.63753 32.5606 7.54816 32.3981 7.41733 32.2726C7.28651 32.147 7.12047 32.0643 6.94142 32.0357L2.67188 31.3522V25.6478L6.94131 24.9643C7.12038 24.9357 7.28643 24.8531 7.41726 24.7275C7.54809 24.6019 7.63745 24.4394 7.6734 24.2616C8.2159 21.5812 9.2605 19.0616 10.7782 16.7727C10.8785 16.6216 10.9302 16.4435 10.9265 16.2622C10.9227 16.0808 10.8637 15.905 10.7573 15.7582L8.21991 12.2537L12.2534 8.22002L15.7581 10.7574C15.9049 10.8638 16.0808 10.9227 16.2621 10.9264C16.4434 10.9302 16.6215 10.8785 16.7726 10.7782C19.0599 9.26116 21.5796 8.21646 24.2616 7.6734C24.4393 7.63739 24.6018 7.54801 24.7274 7.41719C24.853 7.28637 24.9356 7.12035 24.9643 6.94131L25.6478 2.67187H31.3521L32.0356 6.94131C32.0642 7.12036 32.1469 7.2864 32.2724 7.41722C32.398 7.54805 32.5605 7.63742 32.7383 7.6734C35.4196 8.21635 37.9393 9.26105 40.2273 10.7782C40.3784 10.8784 40.5565 10.9301 40.7378 10.9263C40.9191 10.9226 41.0949 10.8636 41.2417 10.7573L44.7463 8.21991L48.78 12.2536L46.2426 15.7582C46.1362 15.905 46.0772 16.0809 46.0735 16.2622C46.0698 16.4434 46.1215 16.6216 46.2217 16.7727C47.7387 19.0598 48.7833 21.5795 49.3265 24.2616C49.3625 24.4393 49.4519 24.6018 49.5827 24.7274C49.7135 24.853 49.8795 24.9356 50.0586 24.9643L54.3281 25.6478V31.3522Z" fill="#2166F3"/>
<path d="M40.4256 48.6118C40.5899 48.7215 40.7831 48.7801 40.9807 48.7802C41.1118 48.7803 41.2417 48.7547 41.3629 48.7045C41.484 48.6544 41.5941 48.5809 41.6867 48.4882L50.315 39.5899C50.4971 39.4013 50.5979 39.1486 50.5956 38.8865C50.5934 38.6243 50.4882 38.3734 50.3028 38.188C50.1174 38.0026 49.8666 37.8975 49.6044 37.8952C49.3422 37.8929 49.0896 37.9937 48.901 38.1759L40.2727 47.0742C40.1332 47.2141 40.0383 47.3923 40 47.5862C39.9616 47.78 39.9816 47.9809 40.0573 48.1635C40.1331 48.346 40.2612 48.502 40.4256 48.6118Z" fill="#2166F3"/>
<path d="M37.8542 43.4676C37.717 43.6099 37.625 43.7896 37.5899 43.9841C37.5664 44.1131 37.5687 44.2454 37.5965 44.3735C37.6243 44.5017 37.6771 44.623 37.7519 44.7307L40.1183 48.2631C41 47.5 41 48 41.7609 47.1227L39.3945 43.5903C39.2816 43.4281 39.1231 43.3031 38.9391 43.2309C38.7551 43.1588 38.5539 43.1427 38.3608 43.1849C38.1677 43.227 37.9914 43.3254 37.8542 43.4676Z" fill="#2166F3"/>
</g>
<defs>
<clipPath id="clip0_2621_505">
<rect width="57" height="57" fill="white"/>
</clipPath>
</defs>
</svg>
