<svg width="57" height="57" viewBox="0 0 57 57" fill="none" xmlns="http://www.w3.org/2000/svg">
<g clip-path="url(#clip0_2621_513)">
<path d="M32.9531 57H24.0469C23.8107 57 23.5841 56.9062 23.4171 56.7391C23.2501 56.5721 23.1562 56.3456 23.1562 56.1094V51.9466C20.5123 51.3499 17.9898 50.3053 15.6982 48.8579L12.7591 51.8014C12.5889 51.9623 12.3636 52.052 12.1294 52.052C11.8952 52.052 11.6699 51.9623 11.4998 51.8014L5.19858 45.5038C5.03161 45.3368 4.93782 45.1103 4.93782 44.8741C4.93782 44.638 5.03161 44.4115 5.19858 44.2445L8.14209 41.3054C6.69434 39.0126 5.6497 36.489 5.05341 33.8438H0.890625C0.654417 33.8438 0.427883 33.7499 0.260858 33.5829C0.0938335 33.4159 0 33.1893 0 32.9531V24.0469C0 23.8107 0.0938335 23.5841 0.260858 23.4171C0.427883 23.2501 0.654417 23.1562 0.890625 23.1562H5.05341C5.65008 20.5123 6.69472 17.9898 8.14209 15.6982L5.20303 12.7591C5.03606 12.5921 4.94227 12.3656 4.94227 12.1294C4.94227 11.8933 5.03606 11.6668 5.20303 11.4998L11.5006 5.20214C11.6676 5.0351 11.8941 4.94124 12.1303 4.94119C12.3665 4.94124 12.593 5.0351 12.76 5.20214L15.699 8.1412C17.9906 6.6944 20.5127 5.65009 23.1562 5.05341V0.890625C23.1562 0.654417 23.2501 0.427883 23.4171 0.260858C23.5841 0.0938335 23.8107 0 24.0469 0L32.9531 0C33.1893 0 33.4159 0.0938335 33.5829 0.260858C33.7499 0.427883 33.8438 0.654417 33.8438 0.890625V5.05341C36.4876 5.64999 39.01 6.69431 41.3018 8.1412L44.2409 5.20214C44.4111 5.04123 44.6364 4.95157 44.8706 4.95157C45.1048 4.95157 45.3301 5.04123 45.5003 5.20214L51.7979 11.4998C51.9648 11.6668 52.0586 11.8933 52.0586 12.1294C52.0586 12.3656 51.9648 12.5921 51.7979 12.7591L48.8588 15.6982C50.3056 17.9901 51.3499 20.5124 51.9466 23.1562H56.1094C56.3456 23.1562 56.5721 23.2501 56.7391 23.4171C56.9062 23.5841 57 23.8107 57 24.0469V32.9531C57 33.1893 56.9062 33.4159 56.7391 33.5829C56.5721 33.7499 56.3456 33.8438 56.1094 33.8438H51.9466C51.3499 36.4876 50.3056 39.0099 48.8588 41.3018L51.7979 44.2409C51.9648 44.4079 52.0586 44.6344 52.0586 44.8706C52.0586 45.1067 51.9648 45.3332 51.7979 45.5003L45.5003 51.7979C45.3333 51.9649 45.1068 52.0588 44.8706 52.0588C44.6344 52.0588 44.4079 51.9649 44.2409 51.7979L41.3018 48.8588C39.0101 50.3059 36.4877 51.3502 33.8438 51.9466V56.1094C33.8438 56.3456 33.7499 56.5721 33.5829 56.7391C33.4159 56.9062 33.1893 57 32.9531 57ZM24.9375 55.2188H32.0625V51.2243C32.0624 51.0175 32.1343 50.8172 32.2657 50.6576C32.3972 50.4981 32.5801 50.3892 32.783 50.3497C35.6957 49.7858 38.4644 48.6395 40.9233 46.9796C41.0947 46.8641 41.3009 46.8117 41.5066 46.8316C41.7123 46.8514 41.9047 46.9421 42.0509 47.0882L44.8741 49.9124L49.9124 44.8741L47.0882 42.0509C46.9421 41.9047 46.8514 41.7123 46.8316 41.5066C46.8117 41.3009 46.8641 41.0947 46.9796 40.9233C48.6401 38.4648 49.7865 35.6959 50.3497 32.783C50.3892 32.5801 50.4981 32.3972 50.6576 32.2657C50.8172 32.1343 51.0175 32.0624 51.2243 32.0625H55.2188V24.9375H51.2243C51.0175 24.9376 50.8172 24.8657 50.6576 24.7343C50.4981 24.6028 50.3892 24.4199 50.3497 24.217C49.7864 21.3044 48.6401 18.5358 46.9796 16.0776C46.8641 15.9062 46.8117 15.7 46.8316 15.4943C46.8514 15.2886 46.9421 15.0962 47.0882 14.95L49.9124 12.1259L44.8741 7.08759L42.0509 9.91088C41.9048 10.0571 41.7125 10.148 41.5068 10.168C41.301 10.188 41.0948 10.1358 40.9233 10.0204C38.4646 8.36018 35.6958 7.21387 32.783 6.6503C32.5801 6.61081 32.3972 6.50194 32.2657 6.34237C32.1343 6.18279 32.0624 5.98245 32.0625 5.7757V1.78125H24.9375V5.7757C24.9376 5.98245 24.8657 6.18279 24.7343 6.34237C24.6028 6.50194 24.4199 6.61081 24.217 6.6503C21.3042 7.21387 18.5354 8.36018 16.0767 10.0204C15.9052 10.1358 15.699 10.188 15.4932 10.168C15.2875 10.148 15.0952 10.0571 14.9491 9.91088L12.1259 7.08759L7.08759 12.1259L9.91177 14.95C10.0577 15.0961 10.1483 15.2884 10.1681 15.4939C10.1879 15.6994 10.1357 15.9054 10.0204 16.0767C8.36079 18.5357 7.21453 21.3044 6.6503 24.217C6.61081 24.4199 6.50194 24.6028 6.34237 24.7343C6.18279 24.8657 5.98245 24.9376 5.7757 24.9375H1.78125V32.0625H5.7757C5.98245 32.0624 6.18279 32.1343 6.34237 32.2657C6.50194 32.3972 6.61081 32.5801 6.6503 32.783C7.2142 35.6957 8.36048 38.4644 10.0204 40.9233C10.1359 41.0947 10.1883 41.3009 10.1684 41.5066C10.1486 41.7123 10.0579 41.9047 9.91177 42.0509L7.08759 44.8741L12.1259 49.9124L14.9491 47.0882C15.0953 46.9421 15.2877 46.8514 15.4934 46.8316C15.6991 46.8117 15.9053 46.8641 16.0767 46.9796C18.5356 48.6395 21.3043 49.7858 24.217 50.3497C24.4199 50.3892 24.6028 50.4981 24.7343 50.6576C24.8657 50.8172 24.9376 51.0175 24.9375 51.2243V55.2188Z" fill="#2166F3"/>
<path d="M28.5 45.4219C25.1532 45.4219 21.8815 44.4294 19.0987 42.57C16.3159 40.7106 14.147 38.0678 12.8662 34.9757C11.5855 31.8837 11.2503 28.4812 11.9033 25.1987C12.5562 21.9162 14.1679 18.901 16.5344 16.5344C18.901 14.1679 21.9162 12.5562 25.1987 11.9033C28.4812 11.2503 31.8837 11.5855 34.9757 12.8662C38.0678 14.147 40.7106 16.3159 42.57 19.0987C44.4294 21.8815 45.4219 25.1532 45.4219 28.5C45.4169 32.9864 43.6325 37.2877 40.4601 40.4601C37.2877 43.6325 32.9864 45.4169 28.5 45.4219ZM28.5 13.3594C25.5055 13.3594 22.5782 14.2474 20.0883 15.911C17.5985 17.5747 15.6579 19.9394 14.5119 22.7059C13.3659 25.4725 13.0661 28.5168 13.6503 31.4538C14.2345 34.3908 15.6765 37.0886 17.794 39.206C19.9114 41.3235 22.6092 42.7655 25.5462 43.3497C28.4832 43.9339 31.5275 43.6341 34.2941 42.4881C37.0607 41.3422 39.4253 39.4016 41.089 36.9117C42.7526 34.4218 43.6406 31.4945 43.6406 28.5C43.6362 24.4858 42.0395 20.6374 39.2011 17.7989C36.3627 14.9605 32.5142 13.3639 28.5 13.3594Z" fill="#2166F3"/>
<path d="M28.5 48.9844V47.2031C33.4586 47.1975 38.2126 45.2252 41.7189 41.7189C45.2252 38.2126 47.1975 33.4586 47.2031 28.5H48.9844C48.9785 33.931 46.8184 39.1378 42.9781 42.9781C39.1378 46.8184 33.931 48.9785 28.5 48.9844ZM9.79688 28.5H8.01562C8.02175 23.0691 10.1819 17.8624 14.0221 14.0221C17.8624 10.1819 23.0691 8.02175 28.5 8.01562V9.79688C23.5414 9.80253 18.7874 11.7749 15.2811 15.2811C11.7749 18.7874 9.80253 23.5414 9.79688 28.5Z" fill="#2166F3"/>
<path d="M32.9531 44.5312H31.1719V30.2812C31.1719 30.0451 31.2658 29.8186 31.4328 29.6516L34.7344 26.35V19.9625L32.5844 17.8125H31.1719V24.0469C31.1719 24.2831 31.078 24.5096 30.911 24.6766C30.744 24.8437 30.5175 24.9375 30.2812 24.9375H26.7188C26.4825 24.9375 26.256 24.8437 26.089 24.6766C25.922 24.5096 25.8281 24.2831 25.8281 24.0469V17.8125H24.4156L22.2656 19.9625V26.35L25.5672 29.6516C25.7342 29.8186 25.8281 30.0451 25.8281 30.2812V44.5312H24.0469V30.65L20.7453 27.3484C20.5783 27.1814 20.4844 26.9549 20.4844 26.7188V19.5938C20.4844 19.3576 20.5783 19.1311 20.7453 18.9641L23.4172 16.2922C23.5842 16.1252 23.8107 16.0313 24.0469 16.0312H26.7188C26.955 16.0312 27.1815 16.1251 27.3485 16.2921C27.5155 16.4591 27.6094 16.6857 27.6094 16.9219V23.1562H29.3906V16.9219C29.3906 16.6857 29.4845 16.4591 29.6515 16.2921C29.8185 16.1251 30.045 16.0312 30.2812 16.0312H32.9531C33.1893 16.0313 33.4158 16.1252 33.5828 16.2922L36.2547 18.9641C36.4217 19.1311 36.5156 19.3576 36.5156 19.5938V26.7188C36.5156 26.9549 36.4217 27.1814 36.2547 27.3484L32.9531 30.65V44.5312Z" fill="#2166F3"/>
</g>
<defs>
<clipPath id="clip0_2621_513">
<rect width="57" height="57" fill="white"/>
</clipPath>
</defs>
</svg>
