<svg width="48" height="48" viewBox="0 0 48 48" fill="none" xmlns="http://www.w3.org/2000/svg">
<path d="M45.0938 0.5625H2.90625C2.28522 0.564355 1.69015 0.81188 1.25102 1.25102C0.81188 1.69015 0.564355 2.28522 0.5625 2.90625V31.8125C0.564355 32.4335 0.81188 33.0286 1.25102 33.4677C1.69015 33.9069 2.28522 34.1544 2.90625 34.1562H11.0391C11.069 34.258 11.0577 34.3674 11.0078 34.4609L9.03906 37.7344C8.76999 38.1837 8.65918 38.7103 8.72432 39.2299C8.78946 39.7496 9.02679 40.2325 9.39844 40.6016L12.0859 43.2891C12.455 43.6607 12.9379 43.898 13.4576 43.9632C13.9772 44.0283 14.5038 43.9175 14.9531 43.6484L18.2266 41.6797C18.2891 41.6472 18.3583 41.6296 18.4288 41.6282C18.4992 41.6269 18.5691 41.6418 18.6328 41.6719C18.6964 41.6964 18.7534 41.7352 18.7995 41.7853C18.8455 41.8355 18.8794 41.8956 18.8984 41.9609L19.8203 45.6641C19.9474 46.1707 20.2402 46.6204 20.6521 46.9417C21.0639 47.263 21.5714 47.4375 22.0937 47.4375H25.9062C26.4286 47.4375 26.9361 47.263 27.3479 46.9417C27.7598 46.6204 28.0526 46.1707 28.1797 45.6641L29.1016 41.9609C29.1222 41.893 29.1584 41.8309 29.2072 41.7794C29.256 41.7278 29.3161 41.6884 29.3828 41.6641C29.4449 41.6372 29.5123 41.6247 29.5799 41.6274C29.6475 41.6301 29.7137 41.648 29.7734 41.6797L33.0469 43.6484C33.4967 43.9158 34.0229 44.0256 34.5421 43.9605C35.0613 43.8954 35.5441 43.6591 35.9141 43.2891L38.6016 40.6016C38.9732 40.2325 39.2105 39.7496 39.2757 39.2299C39.3408 38.7103 39.23 38.1837 38.9609 37.7344L36.9922 34.4609C36.9461 34.3663 36.935 34.2583 36.9609 34.1562H45.0938C45.7148 34.1544 46.3098 33.9069 46.749 33.4677C47.1881 33.0286 47.4356 32.4335 47.4375 31.8125V2.90625C47.4356 2.28522 47.1881 1.69015 46.749 1.25102C46.3098 0.81188 45.7148 0.564355 45.0938 0.5625ZM41.1875 30.5937C41.1874 30.7682 41.1288 30.9376 41.0212 31.075C40.9136 31.2123 40.7631 31.3097 40.5938 31.3516L36.8906 32.2734C36.5861 32.3545 36.3047 32.5054 36.0687 32.7143C35.8327 32.9231 35.6487 33.1841 35.5312 33.4766C35.4117 33.764 35.3607 34.0753 35.3824 34.3859C35.4041 34.6964 35.4979 34.9976 35.6562 35.2656L37.6172 38.5391C37.7086 38.6877 37.7468 38.863 37.7255 39.0361C37.7042 39.2093 37.6247 39.3701 37.5 39.4922L34.8047 42.1875C34.6826 42.3122 34.5218 42.3917 34.3486 42.413C34.1755 42.4343 34.0002 42.3961 33.8516 42.3047L30.5781 40.3437C30.3073 40.1874 30.0041 40.0953 29.6921 40.0746C29.38 40.0539 29.0673 40.1052 28.7782 40.2245C28.4891 40.3437 28.2312 40.5278 28.0245 40.7625C27.8178 40.9972 27.6677 41.2763 27.5859 41.5781L26.6641 45.2813C26.6222 45.4506 26.5248 45.6011 26.3875 45.7087C26.2501 45.8163 26.0807 45.8749 25.9062 45.875H22.0937C21.9193 45.8749 21.7499 45.8163 21.6125 45.7087C21.4752 45.6011 21.3778 45.4506 21.3359 45.2813L20.4141 41.5781C20.333 41.2736 20.1821 40.9922 19.9732 40.7562C19.7644 40.5202 19.5034 40.3362 19.2109 40.2187C18.963 40.1168 18.6977 40.0638 18.4297 40.0625C18.0742 40.0614 17.7254 40.1587 17.4219 40.3437L14.1484 42.3047C13.9998 42.3961 13.8245 42.4343 13.6514 42.413C13.4782 42.3917 13.3174 42.3122 13.1953 42.1875L10.5 39.4922C10.3753 39.3701 10.2958 39.2093 10.2745 39.0361C10.2532 38.863 10.2914 38.6877 10.3828 38.5391L12.3437 35.2656C12.5001 34.9948 12.5922 34.6916 12.6129 34.3796C12.6336 34.0675 12.5823 33.7548 12.463 33.4657C12.3438 33.1766 12.1597 32.9187 11.925 32.712C11.6903 32.5053 11.4112 32.3552 11.1094 32.2734L7.40625 31.3516C7.23687 31.3097 7.08639 31.2123 6.97878 31.075C6.87117 30.9376 6.81263 30.7682 6.8125 30.5937V26.7813C6.81263 26.6068 6.87117 26.4374 6.97878 26.3C7.08639 26.1627 7.23687 26.0653 7.40625 26.0234L11.1094 25.1016C11.4139 25.0205 11.6953 24.8696 11.9313 24.6607C12.1673 24.4519 12.3513 24.1909 12.4687 23.8984C12.5883 23.611 12.6393 23.2997 12.6176 22.9891C12.5959 22.6786 12.5021 22.3774 12.3437 22.1094L10.3828 18.8359C10.2914 18.6873 10.2532 18.512 10.2745 18.3389C10.2958 18.1657 10.3753 18.0049 10.5 17.8828L13.1953 15.1875C13.3174 15.0628 13.4782 14.9833 13.6514 14.962C13.8245 14.9407 13.9998 14.9789 14.1484 15.0703L17.4219 17.0312C17.6927 17.1876 17.9959 17.2797 18.3079 17.3004C18.62 17.3211 18.9327 17.2698 19.2218 17.1505C19.5109 17.0313 19.7688 16.8472 19.9755 16.6125C20.1822 16.3778 20.3323 16.0987 20.4141 15.7969L21.3359 12.0938C21.3778 11.9244 21.4752 11.7739 21.6125 11.6663C21.7499 11.5587 21.9193 11.5001 22.0937 11.5H25.9062C26.0807 11.5001 26.2501 11.5587 26.3875 11.6663C26.5248 11.7739 26.6222 11.9244 26.6641 12.0938L27.5859 15.7969C27.667 16.1014 27.8179 16.3828 28.0268 16.6188C28.2356 16.8548 28.4966 17.0388 28.7891 17.1562C29.0765 17.2758 29.3878 17.3268 29.6984 17.3051C30.0089 17.2834 30.3101 17.1896 30.5781 17.0312L33.8516 15.0703C34.0008 14.9809 34.1756 14.9439 34.3483 14.9652C34.5209 14.9864 34.6815 15.0646 34.8047 15.1875L37.5 17.8828C37.6247 18.0049 37.7042 18.1657 37.7255 18.3389C37.7468 18.512 37.7086 18.6873 37.6172 18.8359L35.6562 22.1094C35.4999 22.3802 35.4078 22.6834 35.3871 22.9954C35.3664 23.3075 35.4177 23.6202 35.537 23.9093C35.6562 24.1984 35.8403 24.4563 36.075 24.663C36.3097 24.8697 36.5888 25.0198 36.8906 25.1016L40.5938 26.0234C40.7631 26.0653 40.9136 26.1627 41.0212 26.3C41.1288 26.4374 41.1874 26.6068 41.1875 26.7813V30.5937ZM45.875 31.8125C45.875 32.0197 45.7927 32.2184 45.6462 32.3649C45.4997 32.5114 45.301 32.5938 45.0938 32.5938H41.6172C41.9624 32.3863 42.2481 32.0932 42.4466 31.7427C42.6451 31.3923 42.7496 30.9965 42.75 30.5937V26.7813C42.75 26.2589 42.5755 25.7514 42.2542 25.3396C41.9329 24.9277 41.4832 24.6349 40.9766 24.5078L37.2734 23.5859C37.1637 23.5561 37.069 23.4865 37.0078 23.3906L36.9766 23.3047C36.9497 23.2426 36.9372 23.1752 36.9399 23.1076C36.9426 23.04 36.9605 22.9738 36.9922 22.9141L38.9609 19.6406C39.23 19.1913 39.3408 18.6647 39.2757 18.1451C39.2105 17.6254 38.9732 17.1425 38.6016 16.7734L35.9141 14.0859C35.545 13.7143 35.0621 13.477 34.5424 13.4118C34.0228 13.3467 33.4962 13.4575 33.0469 13.7266L29.7734 15.6953C29.7109 15.7278 29.6417 15.7454 29.5712 15.7468C29.5008 15.7481 29.4309 15.7332 29.3672 15.7031C29.3036 15.6786 29.2466 15.6398 29.2005 15.5897C29.1545 15.5395 29.1206 15.4794 29.1016 15.4141L28.1797 11.7109C28.0526 11.2043 27.7598 10.7546 27.3479 10.4333C26.9361 10.112 26.4286 9.93747 25.9062 9.9375H22.0937C21.5714 9.93747 21.0639 10.112 20.6521 10.4333C20.2402 10.7546 19.9474 11.2043 19.8203 11.7109L18.8984 15.4141C18.8778 15.482 18.8416 15.5441 18.7928 15.5956C18.744 15.6472 18.6839 15.6866 18.6172 15.7109C18.5551 15.7378 18.4877 15.7503 18.4201 15.7476C18.3525 15.7449 18.2863 15.727 18.2266 15.6953L14.9531 13.7266C14.5033 13.4592 13.9771 13.3494 13.4579 13.4145C12.9387 13.4796 12.4559 13.7159 12.0859 14.0859L9.39844 16.7734C9.02679 17.1425 8.78946 17.6254 8.72432 18.1451C8.65918 18.6647 8.76999 19.1913 9.03906 19.6406L11.0078 22.9141C11.0403 22.9766 11.0579 23.0458 11.0593 23.1163C11.0606 23.1867 11.0457 23.2566 11.0156 23.3203C10.9911 23.3839 10.9523 23.4409 10.9022 23.487C10.852 23.533 10.7919 23.5669 10.7266 23.5859L7.02344 24.5078C6.51675 24.6349 6.06706 24.9277 5.74576 25.3396C5.42446 25.7514 5.24997 26.2589 5.25 26.7813V30.5937C5.25039 30.9965 5.3549 31.3923 5.55339 31.7427C5.75188 32.0932 6.0376 32.3863 6.38281 32.5938H2.90625C2.69905 32.5938 2.50034 32.5114 2.35382 32.3649C2.20731 32.2184 2.125 32.0197 2.125 31.8125V8.375H45.875V31.8125ZM45.875 6.8125H2.125V2.90625C2.125 2.69905 2.20731 2.50034 2.35382 2.35382C2.50034 2.20731 2.69905 2.125 2.90625 2.125H45.0938C45.301 2.125 45.4997 2.20731 45.6462 2.35382C45.7927 2.50034 45.875 2.69905 45.875 2.90625V6.8125Z" fill="#2166F3" stroke="#2166F3" stroke-width="0.3"/>
<path d="M3.6875 3.6875H5.25V5.25H3.6875V3.6875ZM6.8125 3.6875H8.375V5.25H6.8125V3.6875ZM9.9375 3.6875H11.5V5.25H9.9375V3.6875ZM24 19.3125C22.1458 19.3125 20.3332 19.8623 18.7915 20.8925C17.2498 21.9226 16.0482 23.3868 15.3386 25.0998C14.6291 26.8129 14.4434 28.6979 14.8051 30.5165C15.1669 32.335 16.0598 34.0055 17.3709 35.3166C18.682 36.6277 20.3525 37.5206 22.171 37.8824C23.9896 38.2441 25.8746 38.0584 27.5877 37.3489C29.3007 36.6393 30.7649 35.4377 31.795 33.896C32.8252 32.3543 33.375 30.5417 33.375 28.6875C33.3723 26.2019 32.3837 23.8189 30.6262 22.0613C28.8686 20.3038 26.4856 19.3152 24 19.3125ZM24 36.5C22.4548 36.5 20.9444 36.0418 19.6596 35.1834C18.3748 34.3249 17.3735 33.1048 16.7822 31.6772C16.1909 30.2497 16.0362 28.6788 16.3376 27.1634C16.6391 25.6479 17.3831 24.2558 18.4757 23.1632C19.5683 22.0706 20.9604 21.3266 22.4759 21.0251C23.9913 20.7237 25.5622 20.8784 26.9897 21.4697C28.4173 22.061 29.6374 23.0624 30.4959 24.3471C31.3543 25.6319 31.8125 27.1423 31.8125 28.6875C31.8102 30.7588 30.9864 32.7446 29.5218 34.2093C28.0571 35.6739 26.0713 36.4977 24 36.5Z" fill="#2166F3" stroke="#2166F3" stroke-width="0.3"/>
<path d="M23.2188 27.9062H24.7812V29.4688H23.2188V27.9062ZM26.3438 27.9062H27.9062V29.4688H26.3438V27.9062ZM20.0938 27.9062H21.6562V29.4688H20.0938V27.9062Z" fill="#2166F3" stroke="#2166F3" stroke-width="0.3"/>
</svg>
