<svg width="48" height="48" viewBox="0 0 48 48" fill="none" xmlns="http://www.w3.org/2000/svg">
<g clip-path="url(#clip0_2621_500)">
<path d="M43 48H5C3.67441 47.9984 2.40356 47.4711 1.46622 46.5338C0.528882 45.5964 0.00158786 44.3256 0 43L0 5C0 2.244 2.242 0 5 0H43C45.758 0 48 2.244 48 5V43C48 45.756 45.758 48 43 48ZM5 2C3.346 2 2 3.346 2 5V43C2 44.654 3.346 46 5 46H43C44.654 46 46 44.654 46 43V5C46 3.346 44.654 2 43 2H5Z" fill="#2166F3" stroke="#2166F3"/>
<path d="M39 24C38.7348 24 38.4804 23.8946 38.2929 23.7071C38.1054 23.5196 38 23.2652 38 23V10H25C24.7348 10 24.4804 9.89464 24.2929 9.70711C24.1054 9.51957 24 9.26522 24 9C24 8.73478 24.1054 8.48043 24.2929 8.29289C24.4804 8.10536 24.7348 8 25 8H39C39.2652 8 39.5196 8.10536 39.7071 8.29289C39.8946 8.48043 40 8.73478 40 9V23C40 23.2652 39.8946 23.5196 39.7071 23.7071C39.5196 23.8946 39.2652 24 39 24Z" fill="#2166F3" stroke="#2166F3"/>
<path d="M21 28C20.8024 28 20.6092 27.9414 20.4448 27.8316C20.2805 27.7219 20.1523 27.5659 20.0766 27.3833C20.0008 27.2008 19.9809 26.9999 20.0192 26.806C20.0575 26.6122 20.1525 26.434 20.292 26.294L38.292 8.29402C38.4806 8.11186 38.7332 8.01107 38.9954 8.01334C39.2576 8.01562 39.5084 8.12079 39.6938 8.3062C39.8792 8.49161 39.9844 8.74242 39.9867 9.00462C39.989 9.26681 39.8882 9.51942 39.706 9.70802L21.706 27.708C21.6133 27.8008 21.5033 27.8743 21.3821 27.9244C21.261 27.9745 21.1311 28.0002 21 28ZM17 48C16.7348 48 16.4804 47.8947 16.2929 47.7071C16.1054 47.5196 16 47.2652 16 47V32H1C0.734784 32 0.48043 31.8947 0.292893 31.7071C0.105357 31.5196 0 31.2652 0 31C0 30.7348 0.105357 30.4804 0.292893 30.2929C0.48043 30.1054 0.734784 30 1 30H17C17.2652 30 17.5196 30.1054 17.7071 30.2929C17.8946 30.4804 18 30.7348 18 31V47C18 47.2652 17.8946 47.5196 17.7071 47.7071C17.5196 47.8947 17.2652 48 17 48Z" fill="#2166F3" stroke="#2166F3"/>
</g>
<defs>
<clipPath id="clip0_2621_500">
<rect width="48" height="48" fill="white"/>
</clipPath>
</defs>
</svg>
