<svg width="50" height="37" viewBox="0 0 50 37" fill="none" xmlns="http://www.w3.org/2000/svg">
<path d="M49.1674 31.3074H48.334V1.30698C48.334 1.08596 48.2462 0.873997 48.09 0.717714C47.9337 0.561432 47.7217 0.473633 47.5007 0.473633H2.50004C2.27902 0.473633 2.06705 0.561432 1.91077 0.717714C1.75449 0.873997 1.66669 1.08596 1.66669 1.30698V31.3074H0.833345C0.612329 31.3074 0.400364 31.3952 0.244081 31.5515C0.0877986 31.7078 0 31.9197 0 32.1408V33.8075C0 34.4705 0.263396 35.1064 0.732244 35.5752C1.20109 36.0441 1.83699 36.3075 2.50004 36.3075H47.5007C48.1637 36.3075 48.7996 36.0441 49.2685 35.5752C49.7373 35.1064 50.0007 34.4705 50.0007 33.8075V32.1408C50.0007 31.9197 49.9129 31.7078 49.7566 31.5515C49.6004 31.3952 49.3884 31.3074 49.1674 31.3074ZM3.33338 2.14032H46.6673V31.3074H40.8123C41.3638 30.5904 41.6642 29.7119 41.6673 28.8074V25.9423C41.6827 23.3514 42.4363 20.8185 43.8398 18.6406C44.7868 17.142 45.1719 15.3563 44.9267 13.6006C44.6815 11.845 43.8219 10.2331 42.5006 9.05126C41.4978 8.15272 40.2715 7.54073 38.9506 7.27953C37.6297 7.01833 36.2628 7.11755 34.9935 7.56678C33.7241 8.01601 32.5991 8.79868 31.7365 9.83263C30.874 10.8666 30.3057 12.1137 30.0913 13.443C30.024 13.8791 29.9936 14.3201 30.0004 14.7613V14.6405C30.0004 14.4195 29.9126 14.2075 29.7564 14.0512C29.6001 13.895 29.3881 13.8072 29.1671 13.8072H27.1779C26.9471 12.9019 26.5888 12.034 26.1137 11.2296L27.5179 9.82544C27.6741 9.66916 27.7619 9.45723 27.7619 9.23626C27.7619 9.01529 27.6741 8.80336 27.5179 8.64709L25.1604 6.28955C25.0041 6.13332 24.7922 6.04556 24.5712 6.04556C24.3502 6.04556 24.1383 6.13332 23.982 6.28955L22.5778 7.69457C21.7734 7.21926 20.9056 6.86067 20.0003 6.62956V4.64036C20.0003 4.41934 19.9125 4.20738 19.7562 4.0511C19.5999 3.89481 19.388 3.80701 19.1669 3.80701H15.8336C15.6125 3.80701 15.4006 3.89481 15.2443 4.0511C15.088 4.20738 15.0002 4.41934 15.0002 4.64036V6.62956C14.0949 6.86067 13.2271 7.21926 12.4227 7.69457L11.0185 6.28955C10.8622 6.13332 10.6503 6.04556 10.4293 6.04556C10.2083 6.04556 9.99642 6.13332 9.84014 6.28955L7.48261 8.64709C7.32638 8.80336 7.23862 9.01529 7.23862 9.23626C7.23862 9.45723 7.32638 9.66916 7.48261 9.82544L8.8868 11.2296C8.41174 12.034 8.05343 12.9019 7.82261 13.8072H5.83342C5.6124 13.8072 5.40044 13.895 5.24415 14.0512C5.08787 14.2075 5.00007 14.4195 5.00007 14.6405V17.9739C5.00007 18.1949 5.08787 18.4069 5.24415 18.5632C5.40044 18.7194 5.6124 18.8072 5.83342 18.8072H7.82261C8.05343 19.7125 8.41174 20.5803 8.8868 21.3848L7.48261 22.789C7.32638 22.9452 7.23862 23.1572 7.23862 23.3781C7.23862 23.5991 7.32638 23.811 7.48261 23.9673L9.84014 26.3248C9.99642 26.4811 10.2083 26.5688 10.4293 26.5688C10.6503 26.5688 10.8622 26.4811 11.0185 26.3248L12.4227 24.9198C13.2271 25.3951 14.0949 25.7537 15.0002 25.9848V27.974C15.0002 28.1951 15.088 28.407 15.2443 28.5633C15.4006 28.7196 15.6125 28.8074 15.8336 28.8074H19.1669C19.388 28.8074 19.5999 28.7196 19.7562 28.5633C19.9125 28.407 20.0003 28.1951 20.0003 27.974V25.9848C20.9056 25.7537 21.7734 25.3951 22.5778 24.9198L23.982 26.3248C24.1383 26.4811 24.3502 26.5688 24.5712 26.5688C24.7922 26.5688 25.0041 26.4811 25.1604 26.3248L27.5179 23.9673C27.6741 23.811 27.7619 23.5991 27.7619 23.3781C27.7619 23.1572 27.6741 22.9452 27.5179 22.789L26.1137 21.3848C26.5888 20.5803 26.9471 19.7125 27.1779 18.8072H29.1671C29.3881 18.8072 29.6001 18.7194 29.7564 18.5632C29.9126 18.4069 30.0004 18.1949 30.0004 17.9739V14.7838C30.0215 16.1002 30.3938 17.3871 31.0788 18.5114C32.5013 20.7343 33.2817 23.3071 33.3338 25.9457V28.8074C33.3369 29.7119 33.6373 30.5904 34.1888 31.3074H3.33338V2.14032ZM41.4231 15.718L40.5898 14.8847C40.4804 14.7752 40.3427 14.6984 40.1921 14.6628C40.0416 14.6272 39.8841 14.6342 39.7372 14.683L37.5005 15.433L35.2638 14.683C35.117 14.6342 34.9595 14.6272 34.809 14.6628C34.6584 14.6984 34.5207 14.7752 34.4113 14.8847L33.578 15.718C33.4543 15.8416 33.3726 16.001 33.3445 16.1736C33.3163 16.3462 33.3432 16.5232 33.4213 16.6797L35.0005 19.8372V25.474H34.9922C34.8518 22.6942 33.9949 19.998 32.5046 17.6472C31.7873 16.4646 31.5163 15.0645 31.7405 13.6997C31.9515 12.449 32.5617 11.3002 33.4798 10.4251C34.3979 9.54997 35.5745 8.9955 36.8339 8.84459C37.9267 8.71887 39.0328 8.90471 40.0245 9.38066C41.0162 9.85661 41.8532 10.6033 42.4387 11.5345C43.0243 12.4657 43.3347 13.5435 43.334 14.6435C43.3333 15.7435 43.0215 16.8209 42.4348 17.7514C40.949 20.0618 40.1109 22.7289 40.0081 25.474H40.0006V19.8372L41.5839 16.6797C41.6615 16.5228 41.6877 16.3455 41.6588 16.1729C41.63 16.0003 41.5475 15.8411 41.4231 15.718ZM35.0005 27.974V27.1407H40.0006V27.974H35.0005ZM39.8472 29.6407C39.6775 30.1279 39.3604 30.5501 38.9399 30.8489C38.5194 31.1477 38.0164 31.3082 37.5005 31.3082C36.9847 31.3082 36.4816 31.1477 36.0611 30.8489C35.6406 30.5501 35.3236 30.1279 35.1538 29.6407H39.8472ZM36.5839 19.2681L35.1813 16.4739L35.2263 16.4297L37.2372 17.1005C37.4081 17.1575 37.5929 17.1575 37.7639 17.1005L39.7747 16.4297L39.8197 16.4739L38.4214 19.2706C38.3641 19.3855 38.3342 19.5121 38.3339 19.6406V25.474H36.6672V19.6406C36.6686 19.5116 36.6401 19.3841 36.5839 19.2681ZM24.462 22.0898L25.7504 23.3781L24.5712 24.5573L23.282 23.2698C23.1443 23.132 22.9627 23.0469 22.7688 23.0291C22.5749 23.0112 22.3808 23.0619 22.2203 23.1723C21.2583 23.8361 20.1661 24.2875 19.0161 24.4965C18.8245 24.5317 18.6514 24.633 18.5267 24.7826C18.402 24.9323 18.3337 25.1209 18.3336 25.3157V27.1407H16.6669V25.3157C16.667 25.1207 16.5988 24.9319 16.4741 24.7821C16.3494 24.6323 16.1761 24.5309 15.9844 24.4956C14.8345 24.2867 13.7422 23.8353 12.7802 23.1715C12.6197 23.0611 12.4257 23.0104 12.2317 23.0282C12.0378 23.046 11.8562 23.1312 11.7185 23.269L10.4293 24.5573L9.25014 23.3781L10.5377 22.0898C10.6754 21.9521 10.7606 21.7705 10.7784 21.5766C10.7962 21.3826 10.7455 21.1886 10.6352 21.0281C9.9715 20.0657 9.52012 18.9732 9.31097 17.8231C9.27571 17.6315 9.17447 17.4583 9.02482 17.3336C8.87517 17.209 8.68657 17.1406 8.49179 17.1405H6.66676V15.4739H8.49179C8.68672 15.474 8.87551 15.4057 9.02533 15.281C9.17515 15.1563 9.27652 14.983 9.3118 14.7913C9.52095 13.6412 9.97233 12.5487 10.636 11.5863C10.7464 11.4258 10.797 11.2318 10.7792 11.0378C10.7614 10.8439 10.6762 10.6623 10.5385 10.5246L9.25014 9.23626L10.4293 8.05708L11.7185 9.3446C11.8562 9.48235 12.0378 9.56753 12.2317 9.58534C12.4257 9.60315 12.6197 9.55247 12.7802 9.4421C13.7422 8.7783 14.8345 8.3269 15.9844 8.11791C16.176 8.08266 16.3491 7.98141 16.4738 7.83176C16.5985 7.68211 16.6668 7.49352 16.6669 7.29873V5.47371H18.3336V7.29873C18.3335 7.49366 18.4017 7.68245 18.5264 7.83227C18.6511 7.98209 18.8244 8.08346 19.0161 8.11874C20.1661 8.32773 21.2583 8.77913 22.2203 9.44293C22.3808 9.5533 22.5749 9.60398 22.7688 9.58617C22.9627 9.56836 23.1443 9.48318 23.282 9.34543L24.5712 8.05708L25.7504 9.23626L24.4629 10.5246C24.3251 10.6623 24.2399 10.8439 24.2221 11.0378C24.2043 11.2318 24.255 11.4258 24.3654 11.5863C25.029 12.5487 25.4804 13.6412 25.6895 14.7913C25.7248 14.9829 25.826 15.1561 25.9757 15.2808C26.1253 15.4054 26.3139 15.4738 26.5087 15.4739H28.3337V17.1405H26.5087C26.3138 17.1404 26.125 17.2087 25.9752 17.3334C25.8254 17.4581 25.724 17.6313 25.6887 17.8231C25.4796 18.9732 25.0282 20.0657 24.3645 21.0281C24.2541 21.1886 24.2035 21.3826 24.2213 21.5766C24.2391 21.7705 24.3243 21.9521 24.462 22.0898ZM48.334 33.8075C48.334 34.0285 48.2462 34.2404 48.09 34.3967C47.9337 34.553 47.7217 34.6408 47.5007 34.6408H2.50004C2.27902 34.6408 2.06705 34.553 1.91077 34.3967C1.75449 34.2404 1.66669 34.0285 1.66669 33.8075V32.9741H48.334V33.8075Z" fill="#2166F3"/>
<path d="M17.5008 9.64062C16.1822 9.64062 14.8932 10.0316 13.7969 10.7642C12.7006 11.4967 11.8461 12.5379 11.3415 13.7561C10.8369 14.9743 10.7048 16.3148 10.9621 17.608C11.2193 18.9012 11.8543 20.0891 12.7866 21.0215C13.719 21.9539 14.9069 22.5888 16.2001 22.8461C17.4934 23.1033 18.8338 22.9713 20.052 22.4667C21.2702 21.9621 22.3114 21.1076 23.044 20.0112C23.7765 18.9149 24.1675 17.6259 24.1675 16.3074C24.1655 14.5399 23.4625 12.8453 22.2127 11.5955C20.9628 10.3456 19.2683 9.64261 17.5008 9.64062ZM17.5008 21.3075C16.5118 21.3075 15.5451 21.0142 14.7229 20.4648C13.9006 19.9154 13.2597 19.1345 12.8813 18.2208C12.5028 17.3072 12.4038 16.3018 12.5968 15.3319C12.7897 14.362 13.2659 13.4711 13.9652 12.7718C14.6644 12.0725 15.5554 11.5963 16.5253 11.4034C17.4952 11.2105 18.5006 11.3095 19.4142 11.6879C20.3278 12.0664 21.1087 12.7072 21.6582 13.5295C22.2076 14.3518 22.5008 15.3185 22.5008 16.3074C22.4995 17.6331 21.9723 18.9041 21.0349 19.8415C20.0975 20.7789 18.8264 21.3061 17.5008 21.3075Z" fill="#2166F3"/>
<path d="M17.4994 12.9738C16.8401 12.9738 16.1956 13.1693 15.6475 13.5356C15.0993 13.9018 14.6721 14.4224 14.4198 15.0315C14.1675 15.6406 14.1014 16.3109 14.2301 16.9575C14.3587 17.6041 14.6762 18.198 15.1423 18.6642C15.6085 19.1304 16.2025 19.4479 16.8491 19.5765C17.4957 19.7051 18.1659 19.6391 18.775 19.3868C19.3841 19.1345 19.9047 18.7073 20.271 18.1591C20.6373 17.6109 20.8328 16.9664 20.8328 16.3072C20.8328 15.4231 20.4816 14.5752 19.8565 13.9501C19.2313 13.325 18.3835 12.9738 17.4994 12.9738ZM17.4994 17.9739C17.1698 17.9739 16.8475 17.8761 16.5734 17.693C16.2993 17.5098 16.0857 17.2495 15.9596 16.945C15.8334 16.6404 15.8004 16.3053 15.8647 15.982C15.929 15.6587 16.0878 15.3617 16.3209 15.1286C16.554 14.8955 16.8509 14.7368 17.1742 14.6725C17.4976 14.6082 17.8327 14.6412 18.1372 14.7673C18.4418 14.8935 18.7021 15.1071 18.8852 15.3812C19.0683 15.6553 19.1661 15.9775 19.1661 16.3072C19.1661 16.7492 18.9905 17.1731 18.6779 17.4857C18.3654 17.7983 17.9414 17.9739 17.4994 17.9739ZM23.0086 29.3632L23.657 30.8982C24.2608 30.6427 24.8484 30.3502 25.4162 30.0224L24.5828 28.579C24.075 28.873 23.5492 29.1349 23.0086 29.3632ZM26.4045 27.3265L27.452 28.6223C29.2237 27.1853 30.6674 25.3858 31.6863 23.3448L30.1938 22.6031C29.2817 24.4296 27.9898 26.0401 26.4045 27.3265ZM36.6663 2.97363H38.333V6.30701H36.6663V2.97363ZM40.9731 6.67785L42.6398 4.17782L44.0265 5.102L42.3598 7.60203L40.9731 6.67785ZM30.9729 5.10283L32.3596 4.17782L34.0263 6.67785L32.6396 7.60287L30.9729 5.10283Z" fill="#2166F3"/>
</svg>
