<svg width="51" height="50" viewBox="0 0 51 50" fill="none" xmlns="http://www.w3.org/2000/svg">
<path d="M44.713 26.4132C44.2633 25.8303 43.7755 25.2472 43.2541 24.6663C43.6057 24.2592 43.9463 23.8426 44.2754 23.4171C47.5972 19.1099 48.5404 15.2025 46.931 12.4151C45.3217 9.62764 41.4668 8.49082 36.0752 9.21406C35.4931 9.2929 34.9136 9.38887 34.3372 9.50186C34.1418 8.92855 33.9291 8.3613 33.6994 7.80088C31.63 2.77041 28.7178 0 25.4992 0C22.2805 0 19.3683 2.77041 17.2991 7.80088C17.0694 8.3613 16.8567 8.92855 16.6613 9.50186C16.0849 9.38893 15.5053 9.29295 14.9233 9.21406C9.53229 8.49092 5.67682 9.62764 4.06745 12.4151C2.45807 15.2026 3.40124 19.1099 6.72311 23.4171C7.05216 23.8427 7.39271 24.2592 7.7444 24.6663C7.22292 25.2472 6.73512 25.8302 6.28551 26.4132C2.96364 30.7204 2.02047 34.6277 3.62985 37.4151C4.92292 39.6548 7.6651 40.8287 11.4896 40.8287C12.4251 40.8287 13.426 40.7584 14.4856 40.6162C15.168 40.5246 15.8674 40.4039 16.5799 40.2569C16.8041 40.9292 17.0436 41.5781 17.2991 42.1992C19.3683 47.2296 22.2805 50 25.4992 50C28.7178 50 31.63 47.2296 33.6993 42.1991C33.9548 41.578 34.1943 40.9291 34.4184 40.2568C35.1309 40.4038 35.8303 40.5246 36.5128 40.6161C37.5726 40.7583 38.573 40.8286 39.5088 40.8286C43.3329 40.8286 46.0756 39.6546 47.3685 37.415C48.978 34.6276 48.0348 30.7204 44.713 26.4132ZM39.0877 11.9264C41.7656 11.9264 43.6584 12.6062 44.3938 13.8799C45.3561 15.5467 44.4673 18.3707 41.9554 21.6278C41.7111 21.9439 41.4598 22.2544 41.2015 22.5592C39.7329 21.1619 38.0797 19.7947 36.281 18.4918C36.0326 16.3222 35.659 14.2489 35.1706 12.3213C36.6046 12.0566 37.9213 11.9264 39.0877 11.9264ZM29.3883 32.0305C28.0715 32.7907 26.7717 33.4728 25.5001 34.0792C24.177 33.4476 22.8793 32.7642 21.61 32.0305C20.1564 31.1912 18.7653 30.3029 17.4529 29.3803C17.3391 27.923 17.2825 26.4617 17.2832 25C17.2832 23.301 17.3577 21.67 17.4948 20.117C18.69 19.2971 19.9168 18.5241 21.1723 17.7998C22.6411 16.9519 24.0881 16.2024 25.4991 15.5455C26.9102 16.2024 28.3572 16.9519 29.8259 17.7998C31.0815 18.5241 32.3082 19.2971 33.5035 20.117C33.6406 21.67 33.7151 23.301 33.7151 25C33.7151 26.5167 33.6555 27.9789 33.5454 29.3803C32.2331 30.3029 30.842 31.1912 29.3883 32.0305ZM33.0985 33.2035C32.9022 34.4506 32.6641 35.6318 32.3907 36.7389C31.3041 36.4231 30.1719 36.0411 29.0043 35.591C29.6266 35.2608 30.243 34.9197 30.8532 34.5677C31.6116 34.1296 32.3602 33.6747 33.0985 33.2035ZM21.9939 35.5909C20.826 36.0411 19.6942 36.4228 18.6075 36.7385C18.3341 35.6316 18.0961 34.4505 17.8998 33.2035C18.638 33.6747 19.3867 34.1295 20.1451 34.5676C20.7552 34.9196 21.3716 35.2608 21.9939 35.5909ZM14.3892 27.0453C13.4615 26.2768 12.5923 25.4937 11.7902 24.7034C12.603 23.9283 13.4788 23.1617 14.4104 22.4101C14.3726 23.2729 14.3536 24.1364 14.3535 25C14.3535 25.6864 14.3659 26.3685 14.3892 27.0453ZM17.9808 16.2996C18.1778 15.1323 18.4118 14.0259 18.6769 12.9865C19.7178 13.2774 20.8026 13.6306 21.9218 14.0467C21.1752 14.4363 20.437 14.8417 19.7076 15.2627C19.1262 15.5985 18.5505 15.9442 17.9808 16.2996ZM29.0764 14.0466C30.1957 13.6305 31.2804 13.2772 32.3214 12.9864C32.5866 14.0259 32.8206 15.1323 33.0175 16.2996C32.4479 15.9442 31.8723 15.5986 31.2909 15.2627C30.5615 14.8416 29.8231 14.4362 29.0764 14.0466ZM36.588 22.4101C37.5196 23.1617 38.3954 23.9283 39.2082 24.7034C38.4061 25.4937 37.5369 26.2768 36.6091 27.0453C36.6328 26.3638 36.6447 25.6819 36.6449 25C36.6449 24.129 36.6254 23.265 36.588 22.4101ZM25.4992 2.92969C27.6182 2.92969 29.8692 5.62529 31.4782 10.1853C29.5396 10.7301 27.53 11.4524 25.4992 12.3354C23.4683 11.4524 21.4588 10.7302 19.5202 10.1853C21.1292 5.62529 23.3801 2.92969 25.4992 2.92969ZM6.60456 13.88C7.3401 12.6061 9.232 11.9265 11.9107 11.9265C13.077 11.9265 14.3938 12.0567 15.8279 12.3215C15.3393 14.2491 14.9659 16.3224 14.7174 18.4919C12.9188 19.7948 11.2656 21.162 9.79694 22.5593C9.5387 22.2545 9.28734 21.944 9.04303 21.6279C6.53102 18.3708 5.64225 15.5468 6.60456 13.88ZM11.4731 37.9038C8.79518 37.9036 6.90241 37.224 6.16696 35.9503C5.20465 34.2835 6.09342 31.4595 8.60534 28.2023C8.97385 27.7256 9.35795 27.2611 9.757 26.8097C11.209 28.2372 12.8572 29.6375 14.6591 30.9746C14.8964 33.2467 15.2688 35.42 15.7668 37.4372C14.1858 37.7508 12.741 37.9039 11.4731 37.9038ZM25.4992 47.0703C23.339 47.0703 21.0421 44.2686 19.4276 39.5468C21.3989 38.9737 23.4401 38.2191 25.4992 37.302C27.5583 38.2191 29.5995 38.9737 31.5708 39.5468C29.9563 44.2686 27.6593 47.0703 25.4992 47.0703ZM44.8314 35.9503C43.7478 37.8272 40.1529 38.4133 35.2315 37.4372C35.7296 35.42 36.1019 33.2467 36.3391 30.9746C38.1412 29.6375 39.7893 28.2372 41.2413 26.8097C41.6403 27.2612 42.0244 27.7256 42.3929 28.2023C44.905 31.4595 45.7938 34.2835 44.8314 35.9503Z" fill="#2166F3"/>
<path d="M25.499 29.5264C27.9989 29.5264 30.0254 27.4998 30.0254 25C30.0254 22.5002 27.9989 20.4736 25.499 20.4736C22.9992 20.4736 20.9727 22.5002 20.9727 25C20.9727 27.4998 22.9992 29.5264 25.499 29.5264Z" fill="#2166F3"/>
</svg>
