<svg width="51" height="47" viewBox="0 0 51 47" fill="none" xmlns="http://www.w3.org/2000/svg">
<path d="M5.9602 5.38024C5.9602 5.92385 5.51955 6.3645 4.97595 6.3645C4.43234 6.3645 3.9917 5.92385 3.9917 5.38024C3.9917 4.83664 4.43234 4.39599 4.97595 4.39599C5.51955 4.39599 5.9602 4.83664 5.9602 5.38024ZM10.3893 5.38024C10.3893 5.92385 9.94868 6.3645 9.40508 6.3645C8.86148 6.3645 8.42083 5.92385 8.42083 5.38024C8.42083 4.83664 8.86148 4.39599 9.40508 4.39599C9.94868 4.39599 10.3893 4.83664 10.3893 5.38024ZM14.8185 5.38024C14.8185 5.92385 14.3778 6.3645 13.8342 6.3645C13.2906 6.3645 12.85 5.92385 12.85 5.38024C12.85 4.83664 13.2906 4.39599 13.8342 4.39599C14.3778 4.39599 14.8185 4.83664 14.8185 5.38024ZM21.2161 35.4984C20.6727 35.4984 20.2319 35.9403 20.2319 36.4826C20.2319 37.0249 20.6727 37.4669 21.2161 37.4669C21.7584 37.4669 22.2004 37.0249 22.2004 36.4826C22.2004 35.9403 21.7584 35.4984 21.2161 35.4984ZM19.7397 13.2543V27.7228C19.7397 28.2663 19.299 28.707 18.7555 28.707H4.97595C4.43244 28.707 3.9917 28.2663 3.9917 27.7228V13.2543C3.9917 12.7108 4.43244 12.27 4.97595 12.27H18.7555C19.299 12.27 19.7397 12.7108 19.7397 13.2543ZM17.7712 14.2385H5.9602V26.7385H17.7712V14.2385ZM22.6925 14.9275H32.8303C33.3738 14.9275 33.8145 14.4867 33.8145 13.9432C33.8145 13.3997 33.3738 12.959 32.8303 12.959H22.6925C22.149 12.959 21.7082 13.3997 21.7082 13.9432C21.7082 14.4867 22.149 14.9275 22.6925 14.9275ZM22.6925 18.8645H30.8618C31.4053 18.8645 31.846 18.4237 31.846 17.8802C31.846 17.3367 31.4053 16.896 30.8618 16.896H22.6925C22.149 16.896 21.7082 17.3367 21.7082 17.8802C21.7082 18.4237 22.149 18.8645 22.6925 18.8645ZM4.97595 30.6755C4.43244 30.6755 3.9917 31.1163 3.9917 31.6598C3.9917 32.2033 4.43244 32.644 4.97595 32.644H11.8657C12.4092 32.644 12.85 32.2033 12.85 31.6598C12.85 31.1163 12.4092 30.6755 11.8657 30.6755H4.97595ZM44.723 28.8015C44.2535 30.1322 44.2555 31.6056 44.723 32.9432C44.908 33.4728 45.4986 33.771 46.098 33.5062L47.2141 32.9865C48.534 32.3743 50.0547 33.2503 50.0547 34.7513V38.9432C50.0547 40.0304 49.1734 40.9117 48.0862 40.9117H42.5242L43.0704 42.08C43.8637 43.7661 42.932 45.5881 41.3657 46.1214C39.555 46.7379 37.669 46.7442 35.9088 46.121C34.3499 45.569 33.4113 43.7661 34.2038 42.0804L34.7504 40.9116L29.1885 40.9117C28.1031 40.9117 27.22 40.0287 27.22 38.9432V37.4669H25.6452C25.1018 37.4669 24.661 37.0249 24.661 36.4826C24.661 35.9403 25.1018 35.4984 25.6452 35.4984H27.22V34.7517C27.22 33.2504 28.7409 32.3741 30.0602 32.9861L31.1766 33.5059C31.7762 33.7712 32.3668 33.4727 32.5517 32.9434C33.0192 31.606 33.0208 30.1326 32.5517 28.8012C32.3845 28.3265 31.7984 27.9577 31.2037 28.2261L30.0196 28.7776C28.7409 29.3516 27.22 28.5007 27.22 26.9482V22.8015C27.22 21.7143 28.1013 20.833 29.1885 20.833H34.7504L34.2038 19.6643C33.3382 17.6104 34.663 16.0781 35.9088 15.6236C37.9833 14.8672 39.8263 15.2224 40.409 15.3506V10.3015H2.02319V35.4984H16.7517C17.2753 35.4984 17.7334 35.8921 17.769 36.4143C17.8079 36.9873 17.3519 37.4669 16.7871 37.4669H1.03894C0.495337 37.4669 0.0546875 37.0262 0.0546875 36.4826V3.41174C0.0546875 1.78093 1.37664 0.458984 3.00744 0.458984H39.4248C41.0556 0.458984 42.3775 1.78093 42.3775 3.41174V16.2374C43.1817 16.9666 43.6954 18.1825 43.0704 19.6647L42.5242 20.833H48.0862C49.1734 20.833 50.0547 21.7143 50.0547 22.8015V26.9482C50.0547 28.5003 48.534 29.3517 47.2555 28.7779L46.0714 28.2257C45.4759 27.958 44.8903 28.3261 44.723 28.8015ZM40.409 8.333V3.41174C40.409 2.86902 39.9675 2.42749 39.4248 2.42749H3.00744C2.46473 2.42749 2.02319 2.86902 2.02319 3.41174V8.333H40.409ZM42.8667 28.145C43.5242 26.2848 45.5813 25.7887 46.9021 26.4413L48.0862 26.9934V22.8015H42.5242C40.9868 22.8015 40.163 21.1962 40.7417 19.9993L41.288 18.83C41.5488 18.2011 41.203 17.6618 40.7122 17.4806C39.4121 17.0008 37.8214 17.0294 36.5623 17.4805C36.07 17.6569 35.7258 18.201 35.987 18.8304L36.5335 19.9991C37.1118 21.1966 36.2879 22.8016 34.7504 22.8016H29.1885V26.9931L30.3726 26.4417C31.6936 25.7892 33.751 26.2846 34.4075 28.1448C35.0285 29.9043 35.0384 31.8442 34.4075 33.6001C33.9034 35.0032 32.2333 36.1208 30.3726 35.3032L29.1886 34.7518L29.1885 38.9432H34.7504C36.2847 38.9432 37.1166 40.5466 36.5335 41.7456L35.987 42.9143C35.7069 43.5248 36.0882 44.1205 36.5623 44.2642C37.9992 44.6995 39.1359 44.7567 40.7122 44.2642C41.1854 44.1163 41.5675 43.525 41.288 42.9148L40.7417 41.7455C40.158 40.5467 40.9897 38.9433 42.5242 38.9433H48.0862V34.7514L46.9021 35.3036C45.0409 36.1205 43.3716 35.0034 42.8667 33.5998C42.2358 31.8438 42.2466 29.9039 42.8667 28.145Z" fill="#2166F3"/>
</svg>
