<svg width="51" height="50" viewBox="0 0 51 50" fill="none" xmlns="http://www.w3.org/2000/svg">
<path d="M25.2382 43.1095C25.3522 43.1753 25.4815 43.2099 25.6132 43.2099C25.7448 43.2099 25.8741 43.1753 25.9882 43.1095L41.0675 34.4032C41.1815 34.3374 41.2762 34.2427 41.342 34.1287C41.4079 34.0147 41.4425 33.8854 41.4425 33.7537V16.3417C41.4425 16.21 41.4079 16.0807 41.3421 15.9666C41.2762 15.8526 41.1815 15.7579 41.0675 15.6921L25.9882 6.98605C25.8741 6.92023 25.7448 6.88557 25.6132 6.88557C25.4815 6.88557 25.3522 6.92023 25.2382 6.98605L10.1587 15.6921C10.0447 15.7579 9.94999 15.8526 9.88416 15.9666C9.81833 16.0807 9.78368 16.21 9.7837 16.3417V33.7538C9.7837 33.8855 9.81836 34.0148 9.88418 34.1288C9.95001 34.2428 10.0447 34.3375 10.1587 34.4033L25.2382 43.1095ZM11.2837 17.6407L24.8632 25.4807V41.1609L11.2837 33.3208V17.6407ZM26.3632 41.1609V25.4807L39.9425 17.6407V33.3208L26.3632 41.1609ZM25.6132 8.50162L39.1925 16.3416L25.6132 24.1817L12.0337 16.3416L25.6132 8.50162ZM5.59897 38.4251C-0.821805 28.9304 0.409887 16.1471 8.52735 8.0294C12.8144 3.74226 18.5652 1.23658 24.624 1.01591C30.6829 0.795253 36.6007 2.87596 41.1883 6.8399V3.8712C41.1883 3.67229 41.2673 3.48152 41.4079 3.34087C41.5486 3.20021 41.7394 3.1212 41.9383 3.1212C42.1372 3.1212 42.3279 3.20021 42.4686 3.34087C42.6093 3.48152 42.6883 3.67229 42.6883 3.8712V8.55975C42.6883 8.75866 42.6093 8.94942 42.4686 9.09008C42.3279 9.23073 42.1372 9.30975 41.9383 9.30975H37.2498C37.0509 9.30975 36.8601 9.23073 36.7195 9.09008C36.5788 8.94942 36.4998 8.75866 36.4998 8.55975C36.4998 8.36083 36.5788 8.17007 36.7195 8.02941C36.8601 7.88876 37.0509 7.80974 37.2498 7.80974H40.017C31.1079 0.254125 17.9429 0.735252 9.5886 9.09009C1.97767 16.7005 0.822951 28.6845 6.84172 37.5851C6.89687 37.6667 6.93542 37.7584 6.95515 37.8549C6.97488 37.9514 6.97541 38.0508 6.95671 38.1475C6.93801 38.2442 6.90045 38.3363 6.84616 38.4185C6.79188 38.5007 6.72194 38.5713 6.64034 38.6265C6.55874 38.6817 6.46708 38.7202 6.37058 38.7399C6.27409 38.7597 6.17465 38.7602 6.07795 38.7415C5.98125 38.7228 5.88918 38.6852 5.80699 38.6309C5.72481 38.5767 5.65412 38.5067 5.59897 38.4251ZM43.8629 11.994C43.8047 11.9138 43.763 11.8228 43.7402 11.7263C43.7174 11.6299 43.7139 11.5299 43.73 11.4321C43.7461 11.3343 43.7814 11.2406 43.8339 11.1566C43.8864 11.0725 43.955 10.9996 44.0359 10.9423C44.1167 10.8849 44.2081 10.8441 44.3047 10.8222C44.4014 10.8004 44.5014 10.7979 44.5991 10.815C44.6967 10.832 44.79 10.8682 44.8736 10.9216C44.9571 10.9749 45.0293 11.0442 45.0858 11.1256C48.503 15.9507 50.0189 21.8674 49.3431 27.7412C48.6672 33.6151 45.8471 39.0328 41.4234 42.9558C36.9997 46.8787 31.2837 49.0309 25.3712 48.9997C19.4586 48.9684 13.7657 46.756 9.38367 42.7865V45.6939C9.38367 45.8928 9.30465 46.0835 9.16399 46.2242C9.02334 46.3649 8.83258 46.4439 8.63366 46.4439C8.43475 46.4439 8.24398 46.3649 8.10333 46.2242C7.96268 46.0835 7.88366 45.8928 7.88366 45.6939V41.0053C7.88366 40.8064 7.96268 40.6156 8.10333 40.475C8.24398 40.3343 8.43475 40.2553 8.63366 40.2553H13.3222C13.5211 40.2553 13.7119 40.3343 13.8525 40.475C13.9932 40.6156 14.0722 40.8064 14.0722 41.0053C14.0722 41.2042 13.9932 41.395 13.8525 41.5357C13.7119 41.6763 13.5211 41.7553 13.3222 41.7553H10.4816C14.6018 45.4473 19.9377 47.4921 25.47 47.4991C31.0024 47.5061 36.3434 45.4747 40.4729 41.7931C44.6024 38.1115 47.2309 33.0376 47.8563 27.5407C48.4817 22.0438 47.0601 16.5092 43.8632 11.994H43.8629Z" fill="#2166F3" stroke="#2166F3" stroke-width="0.6"/>
</svg>
