<svg width="38" height="49" viewBox="0 0 38 49" fill="none" xmlns="http://www.w3.org/2000/svg">
<path d="M14.334 5.21961H18.0715C18.2665 5.21961 18.4535 5.14214 18.5914 5.00425C18.7293 4.86635 18.8068 4.67933 18.8068 4.48432C18.8068 4.28931 18.7293 4.10228 18.5914 3.96439C18.4535 3.82649 18.2665 3.74902 18.0715 3.74902H14.334C14.139 3.74902 13.952 3.82649 13.8141 3.96439C13.6762 4.10228 13.5987 4.28931 13.5987 4.48432C13.5987 4.67933 13.6762 4.86635 13.8141 5.00425C13.952 5.14214 14.139 5.21961 14.334 5.21961ZM11.0009 44.8049H17.6671C17.8621 44.8049 18.0491 44.7274 18.187 44.5895C18.3249 44.4516 18.4024 44.2646 18.4024 44.0696C18.4024 43.8746 18.3249 43.6876 18.187 43.5497C18.0491 43.4118 17.8621 43.3343 17.6671 43.3343H11.0009C10.8059 43.3343 10.6189 43.4118 10.481 43.5497C10.3431 43.6876 10.2656 43.8746 10.2656 44.0696C10.2656 44.2646 10.3431 44.4516 10.481 44.5895C10.6189 44.7274 10.8059 44.8049 11.0009 44.8049Z" fill="#2166F3" stroke="#2166F3" stroke-width="0.5"/>
<path d="M1.52436 37.4888C1.71937 37.4888 1.90639 37.4113 2.04429 37.2734C2.18218 37.1355 2.25965 36.9485 2.25965 36.7535V7.97846H26.4104V11.7608C26.4104 11.9558 26.4879 12.1428 26.6258 12.2807C26.7636 12.4186 26.9507 12.4961 27.1457 12.4961C27.3407 12.4961 27.5277 12.4186 27.6656 12.2807C27.8035 12.1428 27.881 11.9558 27.881 11.7608L27.8839 3.91963C27.8839 2.30934 26.5677 0.993164 24.9523 0.993164H3.71553C2.17877 0.993164 0.789062 2.25787 0.789062 3.92184V36.7535C0.789062 36.9485 0.866531 37.1355 1.00443 37.2734C1.14232 37.4113 1.32934 37.4888 1.52436 37.4888ZM24.9508 2.46375C25.728 2.46375 26.4111 3.09978 26.4111 3.92184V6.50787H2.25965V3.91963C2.25965 3.11816 2.917 2.46375 3.71774 2.46375H24.9508Z" fill="#2166F3" stroke="#2166F3" stroke-width="0.5"/>
<path d="M18.8736 19.5194C19.0122 19.6565 19.1996 19.733 19.3945 19.7321C19.5895 19.7311 19.7761 19.6527 19.9133 19.5142L22.9868 16.4127C23.1231 16.2751 23.1996 16.0892 23.1996 15.8955C23.1996 15.7017 23.1231 15.5159 22.9868 15.3782L19.9133 12.2767C19.7747 12.1453 19.5904 12.073 19.3994 12.0752C19.2084 12.0773 19.0257 12.1536 18.89 12.2881C18.7543 12.4225 18.6763 12.6045 18.6724 12.7955C18.6685 12.9864 18.7391 13.1714 18.8692 13.3113L21.4288 15.8958L18.8685 18.4796C18.7313 18.6182 18.6548 18.8056 18.6558 19.0006C18.6567 19.1955 18.7351 19.3822 18.8736 19.5194ZM9.79788 12.2716C9.72937 12.2035 9.64808 12.1496 9.55869 12.113C9.4693 12.0764 9.37355 12.0578 9.27696 12.0582C9.18036 12.0587 9.08481 12.0783 8.99579 12.1158C8.90676 12.1532 8.82601 12.2079 8.75818 12.2767L5.68538 15.3782C5.5491 15.5159 5.47266 15.7017 5.47266 15.8955C5.47266 16.0892 5.5491 16.2751 5.68538 16.4127L8.75891 19.5142C8.82601 19.5863 8.90692 19.6442 8.99682 19.6845C9.08673 19.7247 9.18381 19.7465 9.2823 19.7485C9.38078 19.7505 9.47867 19.7327 9.57013 19.6961C9.6616 19.6596 9.7448 19.605 9.81477 19.5357C9.88474 19.4663 9.94007 19.3836 9.97747 19.2925C10.0149 19.2014 10.0336 19.1037 10.0325 19.0052C10.0314 18.9067 10.0105 18.8094 9.9711 18.7191C9.93168 18.6288 9.87453 18.5474 9.80303 18.4796L7.24347 15.8958L9.80303 13.3113C9.94019 13.1727 10.0167 12.9853 10.0157 12.7903C10.0148 12.5954 9.93641 12.4088 9.79788 12.2716ZM15.5214 10.1936L11.2052 21.0539C11.1696 21.1437 11.1519 21.2396 11.1533 21.3361C11.1547 21.4327 11.1751 21.5281 11.2133 21.6168C11.2515 21.7055 11.3069 21.7858 11.3761 21.8531C11.4454 21.9204 11.5272 21.9734 11.617 22.0091C11.7068 22.0447 11.8027 22.0624 11.8992 22.061C11.9958 22.0596 12.0912 22.0392 12.1799 22.001C12.2685 21.9628 12.3488 21.9074 12.4161 21.8382C12.4835 21.7689 12.5365 21.687 12.5721 21.5973L16.8883 10.737C16.9604 10.5556 16.9574 10.3531 16.8801 10.1739C16.8029 9.9947 16.6576 9.85355 16.4762 9.78149C16.2948 9.70943 16.0923 9.71237 15.9131 9.78966C15.7339 9.86695 15.5927 10.0123 15.5207 10.1936H15.5214ZM27.1501 23.8164C24.9957 23.8164 23.2457 25.5664 23.2457 27.7208C23.2457 29.8958 25.0192 31.6252 27.1501 31.6252C29.2721 31.6252 31.0471 29.8988 31.0471 27.7208C31.0471 25.5664 29.2971 23.8164 27.1501 23.8164ZM27.8854 30.037V27.2355C27.8854 26.8311 27.5545 26.5002 27.1501 26.5002C26.7383 26.5002 26.4148 26.8311 26.4148 27.2355V30.0444C25.8621 29.8673 25.3907 29.4988 25.0855 29.0051C24.7803 28.5115 24.6614 27.9251 24.75 27.3515C24.8387 26.778 25.1291 26.2549 25.5691 25.8764C26.0091 25.4979 26.5697 25.2889 27.1501 25.287C28.4883 25.287 29.5766 26.3826 29.5766 27.7208C29.5766 28.8091 28.8633 29.7282 27.8854 30.037Z" fill="#2166F3" stroke="#2166F3" stroke-width="0.5"/>
<path d="M36.6714 25.3979L34.8626 25.192C34.7229 24.7655 34.5464 24.3464 34.3332 23.942L35.392 22.442C35.6052 22.1552 35.5685 21.7508 35.3185 21.5008L33.2082 19.3979C33.0812 19.269 32.9111 19.1917 32.7305 19.1809C32.5499 19.17 32.3717 19.2263 32.2302 19.339L30.8111 20.4788C30.4067 20.2729 29.9876 20.1038 29.5538 19.9714L29.2523 18.1552C29.2227 17.9838 29.1334 17.8285 29.0001 17.7167C28.8668 17.605 28.6983 17.5441 28.5244 17.5449H25.5464C25.1714 17.5449 24.8552 17.8243 24.8111 18.1993L24.6126 20.0155C24.1788 20.1552 23.767 20.3317 23.3699 20.5376L21.8626 19.4714C21.7218 19.3705 21.5496 19.3232 21.3771 19.338C21.2045 19.3528 21.0429 19.4288 20.9214 19.5523L18.8185 21.6552C18.5538 21.9199 18.5317 22.339 18.767 22.6332L19.8994 24.0596C19.6935 24.464 19.5244 24.8832 19.392 25.317L17.5832 25.6185C17.2302 25.6846 16.9655 25.9861 16.9655 26.3464V29.3243C16.9655 29.6993 17.2523 30.0082 17.6199 30.0523L19.4288 30.2582C19.5685 30.692 19.7523 31.1111 19.9582 31.5082L18.8994 33.0008C18.6935 33.2949 18.7229 33.692 18.9802 33.9493L21.0832 36.0523C21.3479 36.317 21.767 36.339 22.0611 36.1038L23.4876 34.9714C23.892 35.1699 24.3038 35.339 24.7376 35.4714L25.0391 37.2876C25.0671 37.4603 25.1557 37.6174 25.2892 37.7306C25.4226 37.8438 25.592 37.9057 25.767 37.9052H26.4141V39.5302H1.52436C1.11994 39.5302 0.789062 39.8611 0.789062 40.2655V45.1258C0.791004 45.9014 1.09995 46.6446 1.64835 47.193C2.19675 47.7414 2.93998 48.0503 3.71553 48.0523H24.9508C26.5685 48.0523 27.8847 46.7361 27.8847 45.1258V37.9052H28.7449C29.1199 37.9052 29.4361 37.6258 29.4802 37.2508L29.6861 35.4346C30.1137 35.2943 30.5292 35.1197 30.9288 34.9126L32.4288 35.9788C32.7229 36.1846 33.1199 36.1479 33.3773 35.8979L35.4729 33.7876C35.7376 33.5229 35.7597 33.1038 35.5244 32.817L34.392 31.3905C34.5979 30.9788 34.767 30.5596 34.8994 30.1332L36.7082 29.8243C37.0611 29.7655 37.3258 29.4567 37.3258 29.1038V26.1258C37.3258 25.7508 37.0464 25.4346 36.6714 25.3979ZM26.4141 45.1258C26.4141 45.9273 25.7597 46.5817 24.9508 46.5817H3.71553C2.91406 46.5817 2.25965 45.9273 2.25965 45.1258V41.0008H26.4141V45.1258ZM35.8552 28.4788L34.1935 28.7582C33.8994 28.8096 33.6714 29.0229 33.5979 29.317C33.4508 29.9346 33.2082 30.5302 32.8847 31.0964C32.7302 31.3538 32.7523 31.6846 32.9435 31.9199L33.9655 33.214L32.7744 34.4199L31.392 33.4346C31.2741 33.3523 31.1347 33.3063 30.9909 33.3023C30.8471 33.2984 30.7054 33.3368 30.5832 33.4126C30.0464 33.7435 29.4582 33.9935 28.8332 34.1479C28.5317 34.2214 28.3111 34.4788 28.2744 34.7802L28.0905 36.4346H26.3847L26.1052 34.7655C26.0822 34.6237 26.0175 34.492 25.9193 34.3873C25.821 34.2825 25.6938 34.2094 25.5538 34.1773C24.9361 34.0229 24.3405 33.7802 23.7891 33.4567C23.661 33.3808 23.5129 33.3458 23.3644 33.3563C23.216 33.3668 23.0743 33.4224 22.9582 33.5155L21.6567 34.5449L20.4582 33.3464L21.4288 31.9861C21.5854 31.7648 21.6126 31.4376 21.4582 31.1626C21.1273 30.6258 20.8699 30.0302 20.7082 29.3979C20.6727 29.2539 20.5936 29.1244 20.4817 29.027C20.3699 28.9296 20.2307 28.8691 20.0832 28.8538L18.4361 28.6626V26.9714L20.0979 26.692C20.392 26.6405 20.6273 26.4199 20.6935 26.1332C20.8405 25.5082 21.0832 24.9126 21.4141 24.3685C21.5685 24.1038 21.5538 23.7729 21.3626 23.5302L20.3258 22.2288L21.5244 21.0302L22.8994 22.0082C23.0165 22.0917 23.1556 22.1389 23.2994 22.1442C23.4431 22.1494 23.5853 22.1123 23.7082 22.0376C24.2449 21.7067 24.8405 21.4567 25.4729 21.2949C25.767 21.2214 25.9802 20.9714 26.017 20.6699L26.2008 19.0155H27.9067L28.1861 20.6773C28.2376 20.9714 28.4508 21.2067 28.7376 21.2729C29.3626 21.4199 29.9582 21.6626 30.5097 21.9935C30.7744 22.1479 31.1052 22.1258 31.3405 21.9346L32.6347 20.8979L33.8332 22.1038L32.8626 23.4714C32.7082 23.6898 32.6766 24.0089 32.8332 24.2876C33.1714 24.839 33.4214 25.4346 33.5758 26.0449C33.6494 26.339 33.8994 26.5596 34.2082 26.5964L35.8552 26.7802V28.4788Z" fill="#2166F3" stroke="#2166F3" stroke-width="0.5"/>
</svg>
