<svg width="51" height="50" viewBox="0 0 51 50" fill="none" xmlns="http://www.w3.org/2000/svg">
<g clip-path="url(#clip0_486_159)">
<path d="M6.01338 10.7653C5.4499 10.7653 4.99297 11.2223 4.99297 11.7857V16.3266H1.67666C1.11318 16.3266 0.65625 16.7835 0.65625 17.347C0.65625 17.9104 1.11318 18.3674 1.67666 18.3674H4.99297V21.4286H1.67666C1.11318 21.4286 0.65625 21.8855 0.65625 22.449C0.65625 23.0125 1.11318 23.4694 1.67666 23.4694H4.99297V26.5307H1.67666C1.11318 26.5306 0.65625 26.9876 0.65625 27.551C0.65625 28.1145 1.11318 28.5714 1.67666 28.5714H4.99297V31.6326H1.67666C1.11318 31.6326 0.65625 32.0896 0.65625 32.653C0.65625 33.2165 1.11318 33.6734 1.67666 33.6734H4.99297V38.2143C4.99297 38.7777 5.4499 39.2347 6.01338 39.2347C6.57686 39.2347 7.03379 38.7777 7.03379 38.2143V11.7857C7.03379 11.2223 6.57686 10.7653 6.01338 10.7653ZM38.8705 43.6225H12.442C11.8785 43.6225 11.4216 44.0794 11.4216 44.6429C11.4216 45.2063 11.8785 45.6633 12.442 45.6633H16.9828V48.9796C16.9828 49.5431 17.4397 50 18.0032 50C18.5667 50 19.0236 49.5431 19.0236 48.9796V45.6633H22.0849V48.9796C22.0849 49.5431 22.5418 50 23.1053 50C23.6688 50 24.1257 49.5431 24.1257 48.9796V45.6633H27.1869V48.9796C27.1869 49.5431 27.6438 50 28.2073 50C28.7708 50 29.2277 49.5431 29.2277 48.9796V45.6633H32.289V48.9796C32.289 49.5431 32.7459 50 33.3094 50C33.8729 50 34.3298 49.5431 34.3298 48.9796V45.6633H38.8706C39.4341 45.6633 39.891 45.2063 39.891 44.6429C39.8909 44.0794 39.434 43.6225 38.8705 43.6225ZM12.442 6.37754H38.8706C39.4341 6.37754 39.891 5.92061 39.891 5.35713C39.891 4.79365 39.4341 4.33672 38.8706 4.33672H34.3298V1.02041C34.3298 0.456934 33.8729 0 33.3094 0C32.7459 0 32.289 0.456934 32.289 1.02041V4.33672H29.2277V1.02041C29.2277 0.456934 28.7708 0 28.2073 0C27.6438 0 27.1869 0.456934 27.1869 1.02041V4.33672H24.1257V1.02041C24.1257 0.456934 23.6688 0 23.1053 0C22.5418 0 22.0849 0.456934 22.0849 1.02041V4.33672H19.0236V1.02041C19.0236 0.456934 18.5667 0 18.0032 0C17.4397 0 16.9828 0.456934 16.9828 1.02041V4.33672H12.442C11.8785 4.33672 11.4216 4.79365 11.4216 5.35713C11.4216 5.92061 11.8785 6.37754 12.442 6.37754ZM38.8705 8.41836H12.442C10.5853 8.41836 9.07461 9.929 9.07461 11.7857V38.2144C9.07461 40.0711 10.5853 41.5817 12.442 41.5817H38.8706C40.7273 41.5817 42.238 40.0711 42.238 38.2144V11.7857C42.2379 9.929 40.7272 8.41836 38.8705 8.41836ZM40.1971 38.2143C40.1971 38.9457 39.602 39.5408 38.8705 39.5408H12.442C11.7105 39.5408 11.1154 38.9457 11.1154 38.2143V11.7857C11.1154 11.0543 11.7105 10.4592 12.442 10.4592H38.8706C39.6021 10.4592 40.1972 11.0543 40.1972 11.7857L40.1971 38.2143Z" fill="black"/>
<path d="M37.1358 12.5H14.1767C13.6132 12.5 13.1562 12.9569 13.1562 13.5204V36.4796C13.1562 37.0431 13.6132 37.5 14.1767 37.5H37.1358C37.6993 37.5 38.1562 37.0431 38.1562 36.4796V30.5102C38.1562 29.9467 37.6993 29.4897 37.1358 29.4897C36.5724 29.4897 36.1154 29.9467 36.1154 30.5102V35.4592H15.1971V14.5408H36.1154V17.7551C36.1154 18.3186 36.5724 18.7755 37.1358 18.7755C37.6993 18.7755 38.1562 18.3186 38.1562 17.7551V13.5204C38.1562 12.9569 37.6993 12.5 37.1358 12.5Z" fill="black"/>
<path d="M37.1356 23.3082C36.5722 23.3082 36.1152 23.7651 36.1152 24.3286V24.4307C36.1152 24.9941 36.5722 25.4511 37.1356 25.4511C37.6991 25.4511 38.1561 24.9941 38.1561 24.4307V24.3286C38.1561 23.765 37.6991 23.3082 37.1356 23.3082ZM49.6356 23.4694C50.1991 23.4694 50.6561 23.0125 50.6561 22.449C50.6561 21.8855 50.1991 21.4286 49.6356 21.4286H46.3193V18.3674H49.6356C50.1991 18.3674 50.6561 17.9104 50.6561 17.347C50.6561 16.7835 50.1991 16.3266 49.6356 16.3266H46.3193V11.7857C46.3193 11.2223 45.8624 10.7653 45.2989 10.7653C44.7355 10.7653 44.2785 11.2223 44.2785 11.7857V38.2143C44.2785 38.7778 44.7355 39.2348 45.2989 39.2348C45.8624 39.2348 46.3193 38.7778 46.3193 38.2143V33.6735H49.6356C50.1991 33.6735 50.6561 33.2166 50.6561 32.6531C50.6561 32.0896 50.1991 31.6327 49.6356 31.6327H46.3193V28.5715H49.6356C50.1991 28.5715 50.6561 28.1145 50.6561 27.5511C50.6561 26.9876 50.1991 26.5307 49.6356 26.5307H46.3193V23.4694H49.6356Z" fill="black"/>
<path d="M18.8573 19.2214C19.4209 19.2214 19.8777 18.7645 19.8777 18.201C19.8777 17.6374 19.4209 17.1806 18.8573 17.1806C18.2938 17.1806 17.8369 17.6374 17.8369 18.201C17.8369 18.7645 18.2938 19.2214 18.8573 19.2214Z" fill="black"/>
<path d="M32.454 32.8183C33.0176 32.8183 33.4744 32.3615 33.4744 31.7979C33.4744 31.2344 33.0176 30.7775 32.454 30.7775C31.8904 30.7775 31.4336 31.2344 31.4336 31.7979C31.4336 32.3615 31.8904 32.8183 32.454 32.8183Z" fill="black"/>
</g>
<defs>
<clipPath id="clip0_486_159">
<rect width="50" height="50" fill="white" transform="translate(0.65625)"/>
</clipPath>
</defs>
</svg>
