<svg width="62" height="62" viewBox="0 0 62 62" fill="none" xmlns="http://www.w3.org/2000/svg">
<path d="M25.0912 35.7158C25.6101 35.7158 26.0306 35.2952 26.0306 34.7764C26.0306 34.2576 25.6101 33.837 25.0912 33.837C24.5724 33.837 24.1519 34.2576 24.1519 34.7764C24.1519 35.2952 24.5724 35.7158 25.0912 35.7158Z" fill="#4981F5"/>
<path d="M60.5439 30.69L52.8785 23.0246C52.7234 22.8707 52.5145 22.7831 52.2961 22.7803H37.4818C35.9976 22.7803 34.7764 23.9922 34.7764 25.4858V52.6906C34.7764 53.0459 34.8463 53.3977 34.9823 53.726C35.1183 54.0542 35.3176 54.3525 35.5688 54.6037C35.82 54.8549 36.1182 55.0542 36.4465 55.1902C36.7747 55.3261 37.1265 55.3961 37.4818 55.3961H58.0827C59.567 55.3961 60.7882 54.1843 60.7882 52.6906V31.2725C60.7882 31.047 60.7036 30.8403 60.5439 30.69ZM53.1133 25.5797L57.9794 30.4458H54.1749C53.5924 30.4458 53.1133 29.9761 53.1133 29.3843V25.5797ZM58.0827 53.7428H37.4818C36.8994 53.7428 36.4203 53.2731 36.4203 52.6812V25.4764C36.4203 24.894 36.89 24.4149 37.4818 24.4149H51.4694V29.3843C51.4694 30.1018 51.7544 30.7899 52.2618 31.2973C52.7692 31.8047 53.4573 32.0897 54.1749 32.0897H59.1442V52.6812C59.1442 53.2637 58.6652 53.7428 58.0827 53.7428Z" fill="#4981F5"/>
<path d="M40.3003 29.1212H47.7779C48.2288 29.1212 48.6045 28.7549 48.6045 28.2946C48.6045 27.8343 48.2382 27.4679 47.7779 27.4679H40.3003C39.8494 27.4679 39.4736 27.8343 39.4736 28.2946C39.4736 28.7549 39.8494 29.1212 40.3003 29.1212ZM40.3003 33.433H47.7779C48.2288 33.433 48.6045 33.0667 48.6045 32.6064C48.6045 32.1461 48.2382 31.7797 47.7779 31.7797H40.3003C39.8494 31.7797 39.4736 32.1461 39.4736 32.6064C39.4736 33.0667 39.8494 33.433 40.3003 33.433ZM55.1897 36.1009H40.3003C39.8494 36.1009 39.4736 36.4673 39.4736 36.9276C39.4736 37.3879 39.84 37.7543 40.3003 37.7543H55.1897C55.6406 37.7543 56.0164 37.3879 56.0164 36.9276C56.0164 36.4673 55.6406 36.1009 55.1897 36.1009ZM55.1897 40.4127H40.3003C39.8494 40.4127 39.4736 40.7791 39.4736 41.2394C39.4736 41.6997 39.84 42.0661 40.3003 42.0661H55.1897C55.6406 42.0661 56.0164 41.6997 56.0164 41.2394C56.0164 40.7791 55.6406 40.4127 55.1897 40.4127ZM55.1897 44.7246H40.3003C39.8494 44.7246 39.4736 45.0909 39.4736 45.5512C39.4736 46.0115 39.84 46.3779 40.3003 46.3779H55.1897C55.6406 46.3779 56.0164 46.0115 56.0164 45.5512C56.0164 45.0909 55.6406 44.7246 55.1897 44.7246ZM55.1897 49.0458H40.3003C39.8494 49.0458 39.4736 49.4121 39.4736 49.8724C39.4736 50.3327 39.84 50.6991 40.3003 50.6991H55.1897C55.6406 50.6991 56.0164 50.3327 56.0164 49.8724C56.0164 49.4121 55.6406 49.0458 55.1897 49.0458Z" fill="#4981F5"/>
<path d="M32.7849 47.5239H6.8201C5.20434 47.5239 3.87979 46.2088 3.87979 44.5836V28.6609L21.4652 34.5133V37.5946C21.4652 38.5621 22.2543 39.3606 23.2313 39.3606H26.9513C27.9189 39.3606 28.7174 38.5715 28.7174 37.5946V34.5133L33.0574 33.0667C33.4895 32.9258 33.7243 32.4561 33.574 32.0239C33.5404 31.921 33.4865 31.8257 33.4156 31.7438C33.3447 31.6619 33.2582 31.5949 33.1611 31.5468C33.064 31.4987 32.9583 31.4705 32.8502 31.4637C32.742 31.4569 32.6336 31.4717 32.5313 31.5073L28.708 32.7755V31.9488C28.708 30.9812 27.9189 30.1827 26.9419 30.1827H23.2219C22.2543 30.1827 21.4559 30.9718 21.4559 31.9488V32.7755L8.66131 28.52L3.31616 26.7446L2.85585 26.5943V20.6197C2.85585 17.9612 5.01646 15.8006 7.67494 15.8006H42.5077C45.1662 15.8006 47.3268 17.9612 47.3268 20.6197V20.7888C47.3268 21.2397 47.6931 21.6155 48.1534 21.6155C48.6137 21.6155 48.9801 21.2491 48.9801 20.7888V20.6197C48.9801 17.0594 46.0868 14.1567 42.5171 14.1567H35.8662V11.1976C35.8662 8.67062 33.8089 6.61334 31.2819 6.61334H18.9007C16.3737 6.61334 14.3165 8.67062 14.3165 11.1976V14.1567H7.67494C4.11464 14.1567 1.21191 17.05 1.21191 20.6197V27.1861C1.21191 27.543 1.43737 27.853 1.77555 27.9658L2.23585 28.1161V44.593C2.23585 47.12 4.29313 49.1773 6.8201 49.1773H32.7849C33.2359 49.1773 33.6116 48.8109 33.6116 48.3506C33.6116 47.8903 33.2452 47.5239 32.7849 47.5239ZM30.4552 14.1567H19.7274V12.0243H30.4552V14.1567ZM15.9698 11.1976C15.9698 9.58183 17.2849 8.25728 18.9101 8.25728H31.2819C32.8977 8.25728 34.2222 9.57243 34.2222 11.1976V14.1567H32.1086V11.1976C32.1086 10.7467 31.7422 10.3709 31.2819 10.3709H18.9007C18.4498 10.3709 18.074 10.7373 18.074 11.1976V14.1567H15.9698V11.1976ZM23.1092 31.9582C23.1092 31.8924 23.1655 31.8361 23.2313 31.8361H26.9513C27.0171 31.8361 27.0734 31.8924 27.0734 31.9582V37.5946C27.0734 37.6603 27.0171 37.7167 26.9513 37.7167H23.2313C23.1655 37.7167 23.1092 37.6603 23.1092 37.5946V33.9215V31.9582Z" fill="#4981F5"/>
</svg>
