<svg width="63" height="63" viewBox="0 0 63 63" fill="none" xmlns="http://www.w3.org/2000/svg">
<path d="M28.8551 32.9619L32.8667 28.9498C32.9454 28.8711 33.0079 28.7777 33.0506 28.6749C33.0932 28.5721 33.1151 28.4619 33.1151 28.3506C33.1151 28.2393 33.0932 28.1291 33.0506 28.0263C33.0079 27.9235 32.9454 27.8301 32.8667 27.7514L30.7296 25.6144C31.1689 24.8094 31.5211 23.9598 31.7802 23.0801H34.8008C35.0256 23.0801 35.2412 22.9908 35.4002 22.8318C35.5591 22.6729 35.6484 22.4573 35.6484 22.2325V16.5595C35.6484 16.3347 35.5591 16.119 35.4002 15.9601C35.2412 15.8011 35.0256 15.7118 34.8008 15.7118H31.787C31.5277 14.8309 31.1743 13.9804 30.733 13.1751L32.8667 11.041C32.9455 10.9623 33.008 10.8689 33.0506 10.766C33.0932 10.6632 33.1152 10.5529 33.1152 10.4416C33.1152 10.3302 33.0932 10.22 33.0506 10.1171C33.008 10.0143 32.9455 9.92083 32.8667 9.84215L28.8551 5.83008C28.7764 5.75131 28.683 5.68882 28.5802 5.64619C28.4774 5.60356 28.3672 5.58161 28.2559 5.58161C28.1446 5.58161 28.0344 5.60356 27.9316 5.64619C27.8288 5.68882 27.7354 5.75131 27.6567 5.83008L25.5226 7.96472C24.7173 7.52342 23.8668 7.17006 22.9859 6.91072V3.89597C22.986 3.78463 22.9641 3.67438 22.9215 3.57151C22.8789 3.46864 22.8165 3.37517 22.7378 3.29644C22.6591 3.21772 22.5656 3.15528 22.4627 3.1127C22.3598 3.07013 22.2496 3.04825 22.1383 3.04831H16.4648C16.3534 3.04825 16.2432 3.07013 16.1403 3.1127C16.0374 3.15528 15.944 3.21772 15.8652 3.29644C15.7865 3.37517 15.7241 3.46864 15.6815 3.57151C15.6389 3.67438 15.6171 3.78463 15.6171 3.89597V6.91604C14.7376 7.17549 13.8882 7.52784 13.0834 7.96714L10.9468 5.83008C10.8681 5.7513 10.7747 5.6888 10.6718 5.64616C10.5689 5.60352 10.4587 5.58157 10.3474 5.58157C10.236 5.58157 10.1258 5.60352 10.0229 5.64616C9.92006 5.6888 9.82663 5.7513 9.74795 5.83008L5.73587 9.84215C5.65709 9.92083 5.59459 10.0143 5.55195 10.1171C5.50931 10.22 5.48736 10.3302 5.48736 10.4416C5.48736 10.5529 5.50931 10.6632 5.55195 10.766C5.59459 10.8689 5.65709 10.9623 5.73587 11.041L7.87196 13.1776C7.43269 13.9826 7.08034 14.8322 6.82087 15.7118H3.80176C3.69042 15.7117 3.58017 15.7336 3.4773 15.7762C3.37443 15.8188 3.28096 15.8812 3.20223 15.9599C3.12351 16.0387 3.06107 16.1321 3.0185 16.235C2.97592 16.3379 2.95404 16.4481 2.9541 16.5595V22.2325C2.95404 22.3438 2.97592 22.4541 3.0185 22.5569C3.06107 22.6598 3.12351 22.7533 3.20223 22.832C3.28096 22.9107 3.37443 22.9732 3.4773 23.0157C3.58017 23.0583 3.69042 23.0802 3.80176 23.0801H6.81602C7.0755 23.9611 7.42903 24.8115 7.87051 25.6168L5.73587 27.7514C5.6571 27.8301 5.59462 27.9235 5.55198 28.0263C5.50935 28.1291 5.4874 28.2393 5.4874 28.3506C5.4874 28.4619 5.50935 28.5721 5.55198 28.6749C5.59462 28.7777 5.6571 28.8711 5.73587 28.9498L9.74698 32.9619C9.90607 33.1206 10.1216 33.2098 10.3464 33.2098C10.5711 33.2098 10.7867 33.1206 10.9458 32.9619L13.08 30.8272C13.8855 31.2685 14.7361 31.622 15.6171 31.8817V34.8964C15.6171 35.1213 15.7064 35.3369 15.8654 35.4958C16.0244 35.6548 16.24 35.7441 16.4648 35.7441H22.1383C22.3631 35.7441 22.5787 35.6548 22.7376 35.4958C22.8966 35.3369 22.9859 35.1213 22.9859 34.8964V31.8759C23.8654 31.6164 24.7148 31.2641 25.5197 30.8248L27.6567 32.9619C27.8157 33.1207 28.0312 33.2099 28.2559 33.2099C28.4806 33.2099 28.6961 33.1207 28.8551 32.9619ZM26.2584 29.1658C26.1237 29.0309 25.9475 28.9454 25.7583 28.9231C25.5691 28.9008 25.3778 28.9429 25.2155 29.0428C24.2028 29.6654 23.0975 30.1232 21.9411 30.399C21.7561 30.4435 21.5913 30.5488 21.4733 30.6981C21.3553 30.8475 21.291 31.0321 21.2906 31.2225V34.0464H17.3124V31.2302C17.3122 31.0397 17.2477 30.8549 17.1295 30.7055C17.0113 30.5561 16.8463 30.4509 16.6609 30.4068C15.5047 30.1303 14.4001 29.6706 13.389 29.0452C13.2265 28.945 13.035 28.9025 12.8454 28.9247C12.6558 28.9468 12.4792 29.0323 12.3442 29.1673L10.3471 31.1629L7.53484 28.3496L9.53046 26.3535C9.6653 26.2186 9.75069 26.0421 9.77284 25.8526C9.79499 25.6631 9.7526 25.4716 9.65252 25.3092C9.02719 24.2975 8.56784 23.1922 8.29191 22.0353C8.24783 21.85 8.1426 21.6849 7.99321 21.5667C7.84382 21.4485 7.65897 21.3841 7.46848 21.3838H4.64941V17.4066H7.47284C7.66318 17.4063 7.84788 17.342 7.99724 17.224C8.1466 17.106 8.25192 16.9412 8.29627 16.7561C8.57177 15.5999 9.02958 14.495 9.65252 13.4827C9.75218 13.3202 9.79424 13.1288 9.77193 12.9395C9.74961 12.7501 9.66421 12.5738 9.52949 12.4389L7.53484 10.4413L10.3471 7.62904L12.3447 9.62661C12.4795 9.76136 12.6557 9.84679 12.845 9.86911C13.0343 9.89143 13.2256 9.84935 13.388 9.74964C14.4006 9.12699 15.5057 8.66919 16.6619 8.39339C16.847 8.34896 17.0117 8.24361 17.1297 8.09427C17.2477 7.94493 17.312 7.76027 17.3124 7.56995V4.74362H21.2906V7.5622C21.2909 7.75269 21.3553 7.93754 21.4735 8.08694C21.5917 8.23633 21.7568 8.34155 21.9421 8.38564C23.099 8.66147 24.2042 9.12065 25.216 9.74576C25.3783 9.84626 25.5698 9.8889 25.7594 9.86674C25.949 9.84458 26.1255 9.75892 26.2603 9.6237L28.2559 7.62807L31.0687 10.4413L29.0731 12.4374C28.9383 12.5725 28.8529 12.7491 28.8308 12.9387C28.8086 13.1282 28.851 13.3197 28.951 13.4822C29.5763 14.4937 30.0355 15.5989 30.3111 16.7556C30.3552 16.941 30.4604 17.106 30.6098 17.2242C30.7592 17.3424 30.9441 17.4069 31.1346 17.4071H33.9531V21.3848H31.1292C30.9388 21.3852 30.7541 21.4496 30.6048 21.5677C30.4554 21.6858 30.3501 21.8507 30.3058 22.0358C30.0301 23.1921 29.5723 24.2972 28.9495 25.3097C28.8497 25.472 28.8075 25.6633 28.8299 25.8525C28.8522 26.0418 28.9377 26.2179 29.0726 26.3526L31.0687 28.3506L28.2559 31.1629L26.2584 29.1658Z" fill="#4981F5"/>
<path d="M19.3017 12.0582C17.8504 12.0582 16.4317 12.4885 15.225 13.2948C14.0183 14.1011 13.0778 15.2471 12.5224 16.5879C11.967 17.9287 11.8217 19.4041 12.1049 20.8275C12.388 22.2509 13.0869 23.5584 14.1131 24.5846C15.1393 25.6108 16.4467 26.3096 17.8701 26.5928C19.2935 26.8759 20.7689 26.7306 22.1097 26.1752C23.4505 25.6198 24.5965 24.6793 25.4028 23.4726C26.2091 22.2659 26.6395 20.8472 26.6395 19.396C26.6373 17.4505 25.8635 15.5854 24.4879 14.2098C23.1122 12.8341 21.2471 12.0603 19.3017 12.0582ZM19.3017 25.0394C18.1857 25.0394 17.0949 24.7085 16.167 24.0886C15.2391 23.4686 14.5159 22.5874 14.0888 21.5564C13.6617 20.5255 13.5499 19.391 13.7675 18.2965C13.9852 17.202 14.5225 16.1966 15.3115 15.4074C16.1005 14.6183 17.1058 14.0808 18.2003 13.863C19.2948 13.6452 20.4292 13.7568 21.4603 14.1837C22.4913 14.6106 23.3726 15.3337 23.9928 16.2614C24.6129 17.1892 24.944 18.28 24.9442 19.396C24.9424 20.8919 24.3473 22.326 23.2895 23.3838C22.2317 24.4416 20.7976 25.0367 19.3017 25.0384V25.0394ZM59.6918 40.6019H56.677C56.4177 39.721 56.0643 38.8705 55.623 38.0652L57.7572 35.9306C57.8359 35.8519 57.8984 35.7586 57.9411 35.6557C57.9837 35.5529 58.0056 35.4427 58.0056 35.3314C58.0056 35.2201 57.9837 35.1099 57.9411 35.0071C57.8984 34.9043 57.8359 34.8109 57.7572 34.7322L53.7456 30.7211C53.6669 30.6424 53.5735 30.5799 53.4706 30.5372C53.3678 30.4946 53.2575 30.4726 53.1462 30.4726C53.0348 30.4726 52.9246 30.4946 52.8217 30.5372C52.7189 30.5799 52.6254 30.6424 52.5468 30.7211L50.4126 32.8548C49.6074 32.4136 48.7571 32.0601 47.8764 31.8003V28.7856C47.8764 28.5608 47.7871 28.3452 47.6281 28.1862C47.4692 28.0272 47.2536 27.9379 47.0288 27.9379H41.3553C41.1304 27.9379 40.9148 28.0272 40.7559 28.1862C40.5969 28.3452 40.5076 28.5608 40.5076 28.7856V31.8061C39.6279 32.0655 38.7784 32.4178 37.9734 32.8572L35.8368 30.7211C35.7581 30.6424 35.6647 30.5799 35.5619 30.5373C35.4591 30.4946 35.3489 30.4727 35.2376 30.4727C35.1263 30.4727 35.0161 30.4946 34.9133 30.5373C34.8105 30.5799 34.7171 30.6424 34.6384 30.7211L30.6264 34.7322C30.4675 34.8912 30.3783 35.1067 30.3783 35.3314C30.3783 35.5561 30.4675 35.7716 30.6264 35.9306L32.7639 38.0677C32.3244 38.8726 31.9722 39.7221 31.7133 40.6019H28.6918C28.467 40.6019 28.2513 40.6912 28.0924 40.8502C27.9334 41.0091 27.8441 41.2247 27.8441 41.4496V47.1226C27.8441 47.3474 27.9334 47.563 28.0924 47.7219C28.2513 47.8809 28.467 47.9702 28.6918 47.9702H31.7065C31.9659 48.8511 32.3192 49.7016 32.7605 50.5069L30.6264 52.641C30.4675 52.8001 30.3783 53.0157 30.3783 53.2405C30.3783 53.4652 30.4675 53.6808 30.6264 53.8399L34.6384 57.8519C34.7171 57.9307 34.8105 57.9932 34.9133 58.0358C35.0161 58.0785 35.1263 58.1004 35.2376 58.1004C35.3489 58.1004 35.4591 58.0785 35.5619 58.0358C35.6647 57.9932 35.7581 57.9307 35.8368 57.8519L37.9709 55.7207C38.7762 56.1621 39.6267 56.5154 40.5076 56.7747V59.7894C40.5075 59.9008 40.5294 60.011 40.572 60.1139C40.6146 60.2168 40.677 60.3102 40.7557 60.389C40.8345 60.4677 40.9279 60.5301 41.0308 60.5727C41.1337 60.6153 41.2439 60.6372 41.3553 60.6371H47.0283C47.1396 60.6372 47.2499 60.6153 47.3527 60.5727C47.4556 60.5301 47.5491 60.4677 47.6278 60.389C47.7065 60.3102 47.7689 60.2168 47.8115 60.1139C47.8541 60.011 47.876 59.9008 47.8759 59.7894V56.7694C48.7556 56.5099 49.6052 56.1574 50.4102 55.7178L52.5468 57.8544C52.6254 57.9331 52.7189 57.9956 52.8217 58.0383C52.9246 58.0809 53.0348 58.1029 53.1462 58.1029C53.2575 58.1029 53.3678 58.0809 53.4706 58.0383C53.5735 57.9956 53.6669 57.9331 53.7456 57.8544L57.7572 53.8433C57.8359 53.7646 57.8984 53.6711 57.9411 53.5683C57.9837 53.4654 58.0057 53.3552 58.0057 53.2438C58.0057 53.1325 57.9837 53.0223 57.9411 52.9194C57.8984 52.8166 57.8359 52.7231 57.7572 52.6444L55.6206 50.5074C56.0599 49.7025 56.4122 48.8531 56.6717 47.9736H59.6918C59.8031 47.9737 59.9134 47.9518 60.0162 47.9092C60.1191 47.8666 60.2126 47.8042 60.2913 47.7255C60.37 47.6467 60.4325 47.5533 60.475 47.4504C60.5176 47.3475 60.5395 47.2373 60.5394 47.1259V41.4496C60.5395 41.3382 60.5176 41.228 60.475 41.1251C60.4325 41.0222 60.37 40.9288 60.2913 40.85C60.2126 40.7713 60.1191 40.7089 60.0162 40.6663C59.9134 40.6237 59.8031 40.6018 59.6918 40.6019ZM58.8441 46.2754H56.0207C55.8303 46.2757 55.6456 46.34 55.4963 46.458C55.3469 46.576 55.2416 46.7408 55.1973 46.9259C54.9214 48.0822 54.4637 49.1872 53.841 50.1998C53.7414 50.3623 53.6993 50.5535 53.7217 50.7428C53.744 50.9321 53.8293 51.1083 53.964 51.2431L55.9621 53.2412L53.1493 56.0535L51.1517 54.0559C51.0168 53.9214 50.8406 53.8361 50.6514 53.8138C50.4622 53.7915 50.2709 53.8334 50.1084 53.9329C49.0956 54.5554 47.9904 55.0132 46.834 55.2891C46.6489 55.3335 46.4841 55.4388 46.3661 55.5882C46.2481 55.7375 46.1838 55.9222 46.1835 56.1126V58.936H42.2029V56.1174C42.2026 55.9269 42.1382 55.7421 42.02 55.5927C41.9018 55.4433 41.7368 55.338 41.5514 55.294C40.3946 55.0181 39.2893 54.559 38.2775 53.9338C38.1152 53.8334 37.9237 53.7908 37.7341 53.813C37.5445 53.8352 37.368 53.9208 37.2332 54.0559L35.2376 56.0515L32.4248 53.2407L34.4205 51.2446C34.5555 51.1096 34.641 50.933 34.6632 50.7434C34.6853 50.5538 34.6428 50.3622 34.5425 50.1998C33.9176 49.1882 33.4585 48.0831 33.1829 46.9264C33.1388 46.7411 33.0336 46.576 32.8842 46.4578C32.7348 46.3396 32.5499 46.2752 32.3594 46.2749H29.5394V42.2972H32.3628C32.5532 42.2968 32.7379 42.2324 32.8873 42.1143C33.0366 41.9962 33.1419 41.8314 33.1863 41.6462C33.462 40.4899 33.9198 39.3849 34.5425 38.3723C34.6424 38.21 34.6845 38.0188 34.6622 37.8295C34.6399 37.6403 34.5544 37.4641 34.4195 37.3295L32.4248 35.3314L35.2376 32.5191L37.2352 34.5167C37.3697 34.6517 37.5459 34.7373 37.7352 34.7597C37.9245 34.782 38.1158 34.7397 38.278 34.6397C39.2908 34.0171 40.396 33.5593 41.5524 33.2835C41.7375 33.239 41.9022 33.1337 42.0202 32.9844C42.1382 32.835 42.2025 32.6504 42.2029 32.46V29.6361H46.1811V32.4547C46.1814 32.6452 46.2458 32.8301 46.364 32.9794C46.4822 33.1288 46.6473 33.2341 46.8326 33.2782C47.9893 33.5543 49.0944 34.0136 50.106 34.6388C50.2684 34.7392 50.46 34.7818 50.6496 34.7597C50.8393 34.7375 51.0159 34.6519 51.1508 34.5167L53.1464 32.5191L55.9592 35.3319L53.9631 37.328C53.8281 37.4629 53.7427 37.6394 53.7206 37.829C53.6984 38.0185 53.7408 38.2099 53.841 38.3723C54.4661 39.3839 54.9251 40.489 55.2006 41.6457C55.2446 41.8311 55.3498 41.9963 55.4992 42.1146C55.6486 42.2329 55.8335 42.2974 56.0241 42.2977H58.8427L58.8441 46.2754Z" fill="#4981F5"/>
<path d="M44.1919 36.9483C42.7406 36.9483 41.3219 37.3786 40.1152 38.1849C38.9085 38.9912 37.968 40.1372 37.4127 41.478C36.8573 42.8188 36.712 44.2942 36.9951 45.7176C37.2782 47.141 37.9771 48.4485 39.0033 49.4747C40.0295 50.5009 41.337 51.1997 42.7604 51.4829C44.1838 51.766 45.6591 51.6207 47 51.0653C48.3408 50.5099 49.4868 49.5694 50.2931 48.3627C51.0993 47.156 51.5297 45.7373 51.5297 44.2861C51.5275 42.3406 50.7537 40.4755 49.3781 39.0999C48.0025 37.7242 46.1373 36.9505 44.1919 36.9483ZM44.1919 49.9295C43.0759 49.9295 41.985 49.5986 41.0571 48.9786C40.1292 48.3586 39.406 47.4774 38.9789 46.4463C38.5519 45.4153 38.4401 44.2808 38.6578 43.1862C38.8755 42.0917 39.4129 41.0863 40.2021 40.2972C40.9912 39.5081 41.9966 38.9707 43.0911 38.753C44.1856 38.5353 45.3202 38.647 46.3512 39.0741C47.3822 39.5011 48.2634 40.2243 48.8835 41.1522C49.5035 42.0801 49.8344 43.1711 49.8344 44.287C49.8325 45.7828 49.2373 47.2168 48.1796 48.2744C47.1218 49.332 45.6877 49.9269 44.1919 49.9286V49.9295ZM37.9037 10.9436C42.8287 12.3935 47.082 15.5389 49.9109 19.8232C49.2325 20.4373 48.8035 21.2795 48.7056 22.1893C48.6077 23.0992 48.8478 24.0133 49.3801 24.7577C49.9123 25.5021 50.6997 26.0248 51.5924 26.2264C52.485 26.4279 53.4206 26.2943 54.2211 25.8509C55.0216 25.4074 55.6312 24.6852 55.9338 23.8215C56.2364 22.9579 56.2109 22.0131 55.8622 21.1671C55.5135 20.321 54.8659 19.6326 54.0426 19.233C53.2194 18.8334 52.2779 18.7504 51.3975 18.9998C48.3499 14.3262 43.7351 10.893 38.3828 9.31758C38.2753 9.28373 38.1622 9.27164 38.05 9.28202C37.9378 9.29239 37.8288 9.32503 37.7294 9.37803C37.63 9.43102 37.5421 9.50331 37.4709 9.59065C37.3998 9.678 37.3467 9.77866 37.3149 9.88674C37.2831 9.99483 37.2732 10.1082 37.2857 10.2201C37.2982 10.3321 37.3329 10.4405 37.3877 10.5389C37.4426 10.6373 37.5165 10.7238 37.6052 10.7933C37.6939 10.8628 37.7951 10.9139 37.9037 10.9436ZM54.4156 22.5769C54.4156 22.9765 54.2971 23.3672 54.075 23.6996C53.853 24.0319 53.5374 24.2909 53.1681 24.4439C52.7989 24.5968 52.3925 24.6368 52.0005 24.5588C51.6085 24.4809 51.2485 24.2884 50.9659 24.0058C50.6832 23.7232 50.4908 23.3631 50.4128 22.9711C50.3348 22.5791 50.3749 22.1728 50.5278 21.8035C50.6808 21.4343 50.9398 21.1187 51.2721 20.8966C51.6044 20.6746 51.9951 20.5561 52.3948 20.5561C52.9306 20.5566 53.4443 20.7696 53.8232 21.1485C54.202 21.5274 54.4151 22.0411 54.4156 22.5769ZM25.59 52.7384C20.6659 51.288 16.4135 48.1427 13.5852 43.8588C14.2637 43.2447 14.6926 42.4026 14.7905 41.4927C14.8884 40.5828 14.6484 39.6687 14.1161 38.9244C13.5838 38.18 12.7964 37.6573 11.9037 37.4557C11.0111 37.2541 10.0755 37.3878 9.27499 37.8312C8.47448 38.2746 7.86493 38.9969 7.56234 39.8605C7.25974 40.7242 7.28522 41.6689 7.63393 42.515C7.98264 43.3611 8.63024 44.0494 9.45349 44.449C10.2767 44.8487 11.2182 44.9317 12.0987 44.6823C15.1455 49.3555 19.7594 52.7886 25.1109 54.3645C25.1888 54.3875 25.2695 54.399 25.3507 54.3988C25.5543 54.3984 25.7509 54.3247 25.9046 54.1912C26.0583 54.0577 26.1589 53.8734 26.1879 53.6719C26.2168 53.4703 26.1723 53.2651 26.0625 53.0937C25.9526 52.9223 25.7847 52.7962 25.5895 52.7384H25.59ZM9.0781 41.1052C9.07829 40.7055 9.19697 40.3149 9.41914 39.9827C9.64131 39.6505 9.95698 39.3917 10.3263 39.2389C10.6955 39.0861 11.1018 39.0462 11.4937 39.1243C11.8857 39.2024 12.2457 39.3949 12.5282 39.6776C12.8107 39.9602 13.0031 40.3203 13.081 40.7123C13.1589 41.1042 13.1188 41.5105 12.9658 41.8797C12.8128 42.2489 12.5538 42.5645 12.2215 42.7865C11.8892 43.0085 11.4986 43.127 11.0989 43.127C10.563 43.1264 10.0491 42.9132 9.67021 42.5342C9.29132 42.1551 9.07836 41.6411 9.0781 41.1052Z" fill="#4981F5"/>
</svg>
