<svg width="32" height="32" viewBox="0 0 32 32" fill="none" xmlns="http://www.w3.org/2000/svg">
<path fill-rule="evenodd" clip-rule="evenodd" d="M3.14663 6.14675C2.82663 6.94675 2.66663 7.81341 2.66663 8.72008C2.66663 10.1067 2.98663 11.5601 3.62663 13.0801C4.26663 14.5867 5.14663 16.1067 6.23996 17.6267C7.36809 19.1719 8.61165 20.6294 9.95996 21.9867C11.3222 23.3389 12.7841 24.5869 14.3333 25.7201C15.8533 26.8267 17.3866 27.7067 18.92 28.3601C20.4533 29.0134 21.9066 29.3334 23.2666 29.3334C24.2 29.3334 25.0666 29.1601 25.8666 28.8267C26.68 28.4934 27.4 27.9734 28.0533 27.2534C28.44 26.8267 28.7333 26.3734 28.96 25.8934C29.1866 25.4134 29.2933 24.9201 29.2933 24.4401C29.2933 24.0667 29.2133 23.7334 29.08 23.4001C28.9333 23.0667 28.6933 22.7867 28.3466 22.5467L23.9333 19.4134C23.6 19.1867 23.2933 19.0134 23 18.8934C22.7066 18.7734 22.44 18.7201 22.1866 18.7201C21.8533 18.7201 21.5466 18.8134 21.24 19.0001C20.9333 19.1601 20.6133 19.4134 20.28 19.7467L19.2666 20.7467C19.12 20.8934 18.9466 20.9734 18.72 20.9734C18.6 20.9734 18.4933 20.9601 18.3866 20.9201C18.3438 20.9017 18.3038 20.8834 18.2666 20.8663C18.2227 20.8462 18.1827 20.8279 18.1466 20.8134C17.6933 20.5734 17.12 20.1734 16.4266 19.5867C15.72 18.9867 15.0266 18.3334 14.3066 17.6267C13.6133 16.9201 12.9733 16.2134 12.3733 15.5201C11.7866 14.8267 11.3733 14.2534 11.1333 13.8134C11.1189 13.7701 11.1005 13.7268 11.0804 13.6793C11.0633 13.639 11.045 13.5957 11.0266 13.5467C11 13.4401 10.9866 13.3467 10.9866 13.2401C10.9866 13.0267 11.0533 12.8534 11.2 12.7067L12.2133 11.6534C12.5333 11.3334 12.7866 11.0134 12.96 10.7067C13.1466 10.4001 13.24 10.0801 13.24 9.76008C13.24 9.50675 13.1733 9.22675 13.0533 8.94675C12.9333 8.65341 12.76 8.34675 12.52 8.01341L9.42663 3.65341C9.18663 3.30675 8.87996 3.06675 8.53329 2.90675C8.19996 2.74675 7.82663 2.66675 7.45329 2.66675C6.46663 2.66675 5.53329 3.08008 4.67996 3.92008C3.97329 4.58675 3.46663 5.33341 3.14663 6.14675ZM9.82552 11.366L10.8425 10.3089L10.8556 10.2958C11.0887 10.0628 11.2224 9.87895 11.2885 9.762L11.3024 9.7374C11.2985 9.72704 11.2939 9.71559 11.2885 9.70307L11.2823 9.68845L11.2762 9.67372C11.2244 9.54696 11.1323 9.372 10.9618 9.13528L10.954 9.12443L7.84791 4.74637C7.82924 4.7194 7.81364 4.7039 7.80056 4.69314C7.78676 4.68179 7.76495 4.66676 7.7287 4.65003L7.71553 4.64395L7.70245 4.63767C7.6448 4.61 7.55777 4.58675 7.45329 4.58675C7.06022 4.58675 6.5904 4.73365 6.02687 5.28837L6.01234 5.30268L5.9975 5.31668C5.48346 5.80163 5.14357 6.31529 4.93331 6.84971L4.92933 6.85983C4.70606 7.41802 4.58663 8.04096 4.58663 8.72008C4.58663 9.80644 4.83665 11.0053 5.39498 12.3322C5.96912 13.6831 6.77147 15.0769 7.79464 16.5001C8.8632 17.9631 10.0408 19.3432 11.3173 20.6288C12.6094 21.9109 13.9958 23.0942 15.4649 24.169C16.8796 25.1989 18.2869 26.0033 19.6726 26.5937C21.0131 27.1649 22.2103 27.4134 23.2666 27.4134C23.9562 27.4134 24.571 27.2866 25.1282 27.0544L25.1385 27.0501C25.6572 26.8375 26.1472 26.4968 26.6314 25.9632C26.8836 25.6848 27.0735 25.3919 27.2238 25.0736C27.3313 24.8459 27.3733 24.6321 27.3733 24.4401C27.3733 24.3727 27.364 24.2977 27.3224 24.1797C27.3115 24.1692 27.2903 24.1507 27.2537 24.1254L27.2444 24.1189L22.8387 20.991C22.5845 20.8192 22.4026 20.7235 22.273 20.6705C22.2517 20.6618 22.2343 20.6555 22.2205 20.651L22.1842 20.673L22.1281 20.7023C22.0568 20.7395 21.8933 20.8487 21.6376 21.1044L21.6286 21.1134L20.6183 22.1103C20.132 22.5938 19.48 22.8934 18.72 22.8934C18.4513 22.8934 18.0997 22.8631 17.7125 22.7178L17.671 22.7023L17.6303 22.6848C17.5638 22.6563 17.5023 22.6281 17.4667 22.6118L17.4567 22.6072L17.423 22.5919L17.3386 22.5581L17.2483 22.5103C16.6274 22.1816 15.9366 21.6872 15.1864 21.0524L15.1839 21.0504C14.4274 20.408 13.6972 19.7188 12.9617 18.997L12.9488 18.9843L12.9361 18.9714C12.2084 18.2297 11.541 17.4924 10.9214 16.7765L10.9075 16.7604C10.2869 16.0269 9.77846 15.3391 9.44773 14.7328L9.36588 14.5827L9.32142 14.4494C9.32014 14.4463 9.31858 14.4426 9.3167 14.4382C9.31543 14.4352 9.31396 14.4317 9.31231 14.4278C9.29597 14.3893 9.26231 14.3101 9.22888 14.2209L9.19048 14.1185L9.16395 14.0124C9.10577 13.7797 9.06663 13.5286 9.06663 13.2401C9.06663 12.5683 9.30087 11.8997 9.82552 11.366Z" fill="#2166F3"/>
</svg>
