<svg xmlns="http://www.w3.org/2000/svg" version="1.1" xmlns:xlink="http://www.w3.org/1999/xlink"
                        xmlns:svgjs="http://svgjs.com/svgjs" width="512" height="512" x="0" y="0" viewBox="0 0 512 512"
                        style="enable-background:new 0 0 512 512" xml:space="preserve" class="">
                        <g>
                           <path fill="#52abb3"
                              d="M118.892 385.998H85.893v34c-.001 9.233-14 9.23-14 0v-34H37.891c-9.233 0-9.233-14 0-14h34v-33c0-9.234 14.001-9.234 14.001 0v33h32.999c9.232 0 9.234 14 0 14zM388.89 228.999H141.891c-9.233 0-9.233-14 0-14H388.89c9.232 0 9.234 14 0 14zm0 33.998H141.891c-9.233 0-9.233-14 0-14L388.89 249c9.233 0 9.233 13.998 0 13.998zM29.879 317.861l-.987-246.862c0-9.7 6.9-17 16-17h117c2.8 0 5.3 1.7 6.4 4.2l20.2 46.8H415.89c9.1 0 16 7.3 16 17v50h63.1c13.946 0 19.093 13.602 16.8 17.7l-54 224.998c-2.1 8.1-8.3 13.3-15.9 13.3H140.04C94.132 486.644-.11 453.54-.11 378.997c0-24.745 11.725-46.837 29.988-61.137zm395.102-131.862H108.892c-1.49 0-2.104 3.198-2.2 3.9l-31.24 111.176c59.685-2.534 99.396 59.765 73.359 112.922h293.08c1.5 0 2.1-2.4 2.2-2.7l53.8-224.1c-.6-.499-1.8-1.2-3-1.2h-69.91zm-7.091-14v-50c0-.7-.1-3-1.999-3h-232c-2.8 0-5.3-1.7-6.4-4.2L157.29 68h-112.4c-1.9 0-2 2.3-2 3l.954 238.104a79.102 79.102 0 0 1 16.552-5.944l32.795-116.86c1.9-8.7 8-14.3 15.8-14.3h308.897zM78.893 315c-35.8 0-65 28.699-65 64 0 35.8 29.2 65 65 65 35.3 0 64-29.201 64-65 0-35.301-28.7-64-64-64z"
                              data-original="#52abb3"></path>
                           <path fill="#aadde3"
                              d="M75.453 301.076c59.686-2.533 99.397 59.765 73.36 112.922l293.08.001c1.5 0 2.1-2.4 2.2-2.7l53.8-224.1c-.6-.5-1.8-1.2-3-1.2h-386c-1.49 0-2.103 3.199-2.2 3.9l-31.24 111.176zm313.438-38.078h-247c-9.232 0-9.232-14 0-14l247 .002c9.232 0 9.232 13.998 0 13.998zm0-33.998h-247c-9.232 0-9.232-14 0-14h247c9.231 0 9.233 14 0 14z"
                              data-original="#aadde3" class=""></path>
                           <path fill="#aadde3"
                              d="M108.992 172H417.89l.001-50c0-.7-.1-3-2-3h-232c-2.8 0-5.299-1.7-6.4-4.2l-20.2-46.8h-112.4c-1.9 0-1.999 2.3-1.999 3l.953 238.104a79.102 79.102 0 0 1 16.552-5.944L93.192 186.3c1.9-8.7 8-14.3 15.8-14.3z"
                              data-original="#aadde3" class=""></path>
                           <path fill="#f9f9f9"
                              d="M142.894 378.999c-.001-35.3-28.7-64-64-64-35.801 0-65 28.7-65 64 0 35.8 29.2 65 65 65 35.3 0 64-29.2 64-65zm-57-7h32.999c9.231 0 9.234 14 0 14h-33v33.998c0 9.234-14 9.232-14 0v-33.999h-34c-9.233 0-9.233-14 0-14h34v-33c0-9.233 14-9.233 14 0z"
                              data-original="#f9f9f9"></path>
                        </g>
                     </svg>