<svg width="50" height="50" viewBox="0 0 50 50" fill="none" xmlns="http://www.w3.org/2000/svg">
<g clip-path="url(#clip0_1044_733)">
<path d="M11.6741 26.0939H9.57324C8.23301 26.0939 7.14258 25.0104 7.14258 23.6787C7.14258 23.2741 6.81475 22.9463 6.41016 22.9463C6.31397 22.9463 6.21872 22.9652 6.12986 23.002C6.04099 23.0388 5.96024 23.0928 5.89223 23.1608C5.82421 23.2288 5.77026 23.3095 5.73346 23.3984C5.69666 23.4873 5.67772 23.5825 5.67773 23.6787C5.67773 25.8182 7.42529 27.5588 9.57334 27.5588H11.6741C12.0787 27.5588 12.4065 27.231 12.4065 26.8264C12.4065 26.4218 12.0787 26.0939 11.6741 26.0939ZM18.5564 31.5146H12.2994C10.2328 31.5146 8.55147 33.1892 8.55147 35.2477C8.55147 35.6522 8.8793 35.9801 9.28389 35.9801C9.68848 35.9801 10.0163 35.6521 10.0163 35.2477C10.0163 33.997 11.0404 32.9795 12.2994 32.9795H18.5564C18.961 32.9795 19.2889 32.6517 19.2889 32.2471C19.2889 31.8425 18.961 31.5146 18.5564 31.5146ZM24.5242 31.5146H21.4862C21.0816 31.5146 20.7538 31.8425 20.7538 32.2471C20.7538 32.6517 21.0816 32.9795 21.4862 32.9795H24.5242C24.9288 32.9795 25.2566 32.6517 25.2566 32.2471C25.2566 31.8425 24.9287 31.5146 24.5242 31.5146ZM19.3743 17.2831C19.1801 17.2831 18.9938 17.3603 18.8564 17.4976C18.7191 17.635 18.6419 17.8213 18.6419 18.0155C18.6419 20.1099 16.928 21.8137 14.8214 21.8137C14.4168 21.8137 14.089 22.1415 14.089 22.5461C14.089 22.9507 14.4168 23.2785 14.8214 23.2785C17.7357 23.2785 20.1067 20.9176 20.1067 18.0155C20.1067 17.8213 20.0296 17.635 19.8922 17.4976C19.7549 17.3603 19.5686 17.2831 19.3743 17.2831ZM18.0242 6.21074C16.2746 6.09843 14.7576 7.4249 14.6441 9.16865C14.6341 9.36101 14.7003 9.54957 14.8283 9.6935C14.9563 9.83743 15.1358 9.92516 15.3281 9.93768C15.5203 9.9502 15.7097 9.8865 15.8553 9.76039C16.0009 9.63428 16.0909 9.45589 16.106 9.26386C16.1669 8.32558 16.9853 7.61298 17.9301 7.67255C18.3341 7.69961 18.682 7.39248 18.708 6.98877C18.7142 6.89278 18.7014 6.79652 18.6704 6.70547C18.6394 6.61443 18.5907 6.53038 18.5273 6.45813C18.4638 6.38589 18.3866 6.32685 18.3003 6.28441C18.214 6.24196 18.1202 6.21693 18.0242 6.21074ZM15.561 34.776C15.1564 34.776 14.8286 35.1038 14.8286 35.5084C14.8286 35.913 15.1564 36.2408 15.561 36.2408C16.7705 36.2408 17.7545 37.2183 17.7545 38.4196C17.7545 39.6213 16.7705 40.5987 15.561 40.5987C15.1564 40.5987 14.8286 40.9266 14.8286 41.3311C14.8286 41.7357 15.1564 42.0636 15.561 42.0636C17.5782 42.0636 19.2193 40.429 19.2193 38.4196C19.2193 36.4105 17.5782 34.776 15.561 34.776ZM23.0567 17.5288C22.6521 17.5288 22.3243 17.8566 22.3243 18.2612C22.3243 18.6658 22.6521 18.9936 23.0567 18.9936C24.0283 18.9936 24.8188 19.7785 24.8188 20.7434C24.8188 21.7083 24.0283 22.4933 23.0567 22.4933C22.6521 22.4933 22.3243 22.8211 22.3243 23.2257C22.3243 23.6303 22.6521 23.9581 23.0567 23.9581C24.8361 23.9581 26.2837 22.5159 26.2837 20.7434C26.2837 18.9709 24.8361 17.5288 23.0567 17.5288ZM10.1545 12.872C9.7499 12.872 9.42207 13.1998 9.42207 13.6044C9.42207 14.009 9.7499 14.3368 10.1545 14.3368C11.8238 14.3368 13.1818 15.6864 13.1818 17.3454C13.1818 19.0045 11.8238 20.3542 10.1545 20.3542C9.7499 20.3542 9.42207 20.682 9.42207 21.0866C9.42207 21.4912 9.7499 21.819 10.1545 21.819C12.6314 21.819 14.6467 19.8122 14.6467 17.3454C14.6467 14.8787 12.6314 12.872 10.1545 12.872ZM44.5862 12.8388C43.2096 12.8388 42.0896 13.9549 42.0896 15.3268C42.0896 16.6987 43.2096 17.8148 44.5862 17.8148C45.9629 17.8148 47.0829 16.6987 47.0829 15.3268C47.0829 13.9549 45.9629 12.8388 44.5862 12.8388ZM44.5863 16.3501C44.0174 16.3501 43.5545 15.8911 43.5545 15.3269C43.5544 14.7627 44.0173 14.3037 44.5863 14.3037C45.1553 14.3037 45.6182 14.7627 45.6182 15.3269C45.6182 15.891 45.1553 16.3501 44.5863 16.3501ZM47.0335 31.584C45.6567 31.584 44.5368 32.7001 44.5368 34.0721C44.5368 35.444 45.6568 36.5601 47.0335 36.5601C48.4102 36.5601 49.5301 35.4439 49.5301 34.0721C49.5301 32.7002 48.4102 31.584 47.0335 31.584ZM47.0335 35.0952C46.4646 35.0952 46.0017 34.6362 46.0017 34.0721C46.0017 33.5079 46.4646 33.0488 47.0335 33.0488C47.6024 33.0488 48.0652 33.5078 48.0652 34.0721C48.0653 34.6362 47.6024 35.0952 47.0335 35.0952ZM45.4968 22.806C45.0889 22.8056 44.6872 22.9055 44.327 23.097L42.8993 21.6763C42.7612 21.5416 42.5754 21.4669 42.3825 21.4684C42.1896 21.4698 42.005 21.5474 41.8689 21.6841C41.7328 21.8209 41.6562 22.0058 41.6557 22.1988C41.6551 22.3917 41.7308 22.577 41.8661 22.7145L43.2902 24.1316C43.0995 24.4893 42.9998 24.8885 43.0001 25.2939C43.0001 26.6659 44.1201 27.782 45.4968 27.782C46.8735 27.782 47.9935 26.6659 47.9935 25.2939C47.9935 23.9221 46.8734 22.806 45.4968 22.806ZM45.4969 26.3173C44.9279 26.3173 44.465 25.8583 44.465 25.294C44.465 24.73 44.9279 24.2709 45.4969 24.2709C46.0658 24.2709 46.5287 24.7299 46.5287 25.294C46.5287 25.8582 46.0658 26.3173 45.4969 26.3173ZM43.8464 39.2293C42.4696 39.2293 41.3497 40.3454 41.3497 41.7174C41.3497 43.0894 42.4697 44.2055 43.8464 44.2055C45.2231 44.2055 46.3431 43.0894 46.3431 41.7174C46.3431 40.3454 45.2231 39.2293 43.8464 39.2293ZM43.8464 42.7405C43.2774 42.7405 42.8146 42.2815 42.8146 41.7173C42.8146 41.1531 43.2774 40.694 43.8464 40.694C44.4153 40.694 44.8782 41.153 44.8782 41.7173C44.8783 42.2815 44.4154 42.7405 43.8464 42.7405Z" fill="#2166F3"/>
<path d="M35.2771 13.7642C35.7427 13.7642 36.2981 13.5349 36.6281 13.2065L39.4576 10.3909C39.7497 10.5066 40.0611 10.5659 40.3753 10.5658C41.7521 10.5658 42.872 9.44971 42.872 8.07773C42.872 6.70586 41.752 5.58984 40.3753 5.58984C38.9986 5.58984 37.8787 6.70596 37.8787 8.07773C37.8782 8.57419 38.0274 9.05926 38.3069 9.46953L35.5951 12.168C35.5378 12.2229 35.3563 12.2979 35.2771 12.2993H29.2316V7.45098H30.9321C31.2467 8.4665 32.1973 9.20664 33.3183 9.20664C34.695 9.20664 35.8149 8.09053 35.8149 6.71855C35.8149 5.34668 34.6949 4.23057 33.3183 4.23057C32.1973 4.23057 31.2467 4.97061 30.9321 5.98613H29.2316V5.8752C29.2316 2.63555 26.5847 0 23.331 0C21.005 0 18.9185 1.35566 17.9663 3.42852C17.8208 3.41817 17.675 3.41296 17.5291 3.41289C14.1475 3.41289 11.3872 6.1127 11.3088 9.46133C11.016 9.41963 10.7206 9.39871 10.4249 9.39873C6.99404 9.39873 4.20293 12.1778 4.20293 15.5937C4.20293 16.3436 4.33447 17.069 4.59463 17.7592C2.03369 19.2787 0.470703 21.9932 0.470703 25C0.470703 26.6145 0.930566 28.1838 1.80049 29.5382C2.51512 30.6509 3.47999 31.581 4.61807 32.2545C4.34423 32.9643 4.2035 33.7184 4.20293 34.4792C4.20275 35.9867 4.75418 37.4422 5.75322 38.5712C5.81693 38.6433 5.89422 38.7021 5.98065 38.7442C6.06709 38.7864 6.16099 38.8112 6.257 38.8171C6.353 38.823 6.44923 38.8099 6.54019 38.7787C6.63115 38.7474 6.71505 38.6985 6.78711 38.6348C6.85917 38.5711 6.91797 38.4938 6.96017 38.4073C7.00236 38.3209 7.02712 38.227 7.03302 38.131C7.03892 38.035 7.02586 37.9388 6.99457 37.8478C6.96329 37.7568 6.91439 37.6729 6.85068 37.6009C6.08842 36.7396 5.66766 35.6292 5.66777 34.4791C5.66777 33.7053 5.85068 32.9672 6.21084 32.2852C6.64943 31.4526 7.32558 30.7692 8.15342 30.3218C8.238 30.276 8.31274 30.214 8.37335 30.1393C8.43397 30.0646 8.47928 29.9787 8.50669 29.8865C8.53411 29.7944 8.54309 29.6977 8.53313 29.602C8.52317 29.5063 8.49446 29.4136 8.44863 29.329C8.40287 29.2444 8.34088 29.1696 8.26621 29.109C8.19154 29.0484 8.10564 29.003 8.01344 28.9756C7.92124 28.9482 7.82453 28.9392 7.72886 28.9492C7.63318 28.9592 7.54042 28.9879 7.45586 29.0338C6.59815 29.498 5.86173 30.1575 5.30615 30.959C3.21182 29.6991 1.93555 27.4715 1.93555 25C1.93555 22.3574 3.39922 19.9885 5.7623 18.7895C5.7623 18.7895 7.12969 18.0287 8.94492 18.0287C9.34951 18.0287 9.67734 17.7009 9.67734 17.2963C9.67734 16.8917 9.34951 16.5639 8.94492 16.5639C7.91228 16.5629 6.88818 16.751 5.92324 17.1188C5.75376 16.6282 5.66748 16.1128 5.66797 15.5938C5.66797 12.9855 7.80195 10.8637 10.4251 10.8637C10.9182 10.8637 11.406 10.9392 11.8749 11.0881C11.9931 11.1257 12.1189 11.1326 12.2406 11.1082C12.3622 11.0838 12.4756 11.029 12.5702 10.9487C12.6648 10.8685 12.7375 10.7656 12.7815 10.6496C12.8254 10.5336 12.8391 10.4083 12.8214 10.2855C12.7889 10.0612 12.7724 9.83474 12.7721 9.60801C12.7721 6.9998 14.9062 4.87783 17.5293 4.87783C17.7869 4.87783 18.0502 4.8999 18.3122 4.94297C20.564 5.31543 22.2864 7.26494 22.2864 9.60801C22.2864 10.0126 22.6143 10.3404 23.0188 10.3404C23.4234 10.3404 23.7513 10.0126 23.7513 9.60801C23.7513 6.86367 21.949 4.53193 19.4613 3.7208C20.2347 2.34561 21.7044 1.46484 23.331 1.46484C25.7769 1.46484 27.7668 3.44336 27.7668 5.8752V5.95654H26.3581C25.9535 5.95654 25.6257 6.28438 25.6257 6.68897C25.6257 7.09355 25.9535 7.42139 26.3581 7.42139H27.7668V12.2992H21.843C20.5026 12.2992 19.4122 11.2158 19.4122 9.88418C19.4122 9.47959 19.0844 9.15176 18.6798 9.15176C18.2752 9.15176 17.9474 9.47959 17.9474 9.88418C17.9474 12.0235 19.6949 13.7641 21.843 13.7641H27.7668V26.0938H15.8861C15.4815 26.0938 15.1537 26.4216 15.1537 26.8262C15.1537 27.2308 15.4815 27.5586 15.8861 27.5586H27.7668V37.6148H25.5035C23.4369 37.6148 21.7557 39.2894 21.7557 41.3478C21.7557 41.7523 22.0835 42.0802 22.4881 42.0802C22.8927 42.0802 23.2205 41.7523 23.2205 41.3478C23.2205 40.0972 24.2446 39.0797 25.5035 39.0797H27.7668V44.1248C27.7668 44.2398 27.7609 44.3535 27.7522 44.4663H26.3581C25.9535 44.4663 25.6257 44.7941 25.6257 45.1987C25.6257 45.6033 25.9535 45.9312 26.3581 45.9312H27.3761C26.6807 47.4645 25.1297 48.5352 23.331 48.5352C21.7153 48.5352 20.251 47.6635 19.4737 46.3015C20.3672 46.0095 21.1827 45.5183 21.8585 44.865C21.9277 44.7983 21.9831 44.7185 22.0215 44.6303C22.0599 44.5422 22.0805 44.4473 22.0823 44.3511C22.084 44.2549 22.0667 44.1594 22.0315 44.0699C21.9963 43.9804 21.9438 43.8987 21.8771 43.8295C21.8103 43.7602 21.7306 43.7048 21.6424 43.6664C21.5542 43.628 21.4593 43.6073 21.3631 43.6056C21.267 43.6039 21.1714 43.6211 21.0819 43.6563C20.9924 43.6915 20.9107 43.744 20.8415 43.8108C20.1503 44.4792 19.2721 44.9214 18.3236 45.0787C18.0611 45.123 17.7953 45.1454 17.5291 45.1459C14.906 45.1459 12.7719 43.0239 12.7719 40.4156C12.7719 40.3489 12.7759 40.2797 12.7791 40.2111C13.3703 39.9705 13.9257 39.6412 14.421 39.2277C14.4948 39.1661 14.5558 39.0905 14.6004 39.0053C14.645 38.9201 14.6724 38.8269 14.681 38.7311C14.6897 38.6353 14.6793 38.5388 14.6506 38.447C14.6219 38.3552 14.5754 38.2699 14.5138 38.1961C14.2545 37.8855 13.8002 37.8534 13.4821 38.1033C12.0124 39.2578 10.5909 39.2398 10.0223 39.1927C9.61797 39.1584 9.26523 39.4589 9.23164 39.8619C9.21559 40.0555 9.27708 40.2476 9.4026 40.3958C9.52812 40.5441 9.70739 40.6364 9.90098 40.6525C10.3708 40.6913 10.8434 40.6776 11.3102 40.6115C11.4143 43.9373 14.1641 46.6107 17.5292 46.6107C17.6774 46.6107 17.827 46.6052 17.977 46.5942C18.9342 48.6534 21.0165 50 23.331 50C26.5846 50 29.2316 47.3645 29.2316 44.1248V42.5063H33.1143C33.1938 42.5076 33.3752 42.5825 33.4323 42.6374L35.1785 44.375C34.9343 44.767 34.8051 45.2196 34.8055 45.6814C34.8055 47.0534 35.9255 48.1695 37.3022 48.1695C38.6789 48.1695 39.7988 47.0534 39.7988 45.6814C39.7988 44.3095 38.6788 43.1934 37.3022 43.1934C36.9401 43.1934 36.5963 43.2712 36.2854 43.4099L34.4655 41.599C34.1355 41.2707 33.5801 41.0414 33.1146 41.0414H29.2316V37.1262H35.5988C35.9134 38.1417 36.864 38.8818 37.9851 38.8818C39.3618 38.8818 40.4817 37.7657 40.4817 36.3937C40.4817 35.0218 39.3617 33.9057 37.9851 33.9057C36.8641 33.9057 35.9134 34.6457 35.5988 35.6613H29.2316V30.7551H36.851C37.1655 31.7706 38.1161 32.5107 39.2372 32.5107C40.614 32.5107 41.7339 31.3946 41.7339 30.0227C41.7339 28.6507 40.6139 27.5346 39.2372 27.5346C38.1161 27.5346 37.1655 28.2746 36.851 29.2902H29.2316V23.9593H31.0459C31.3605 24.9747 32.3111 25.7148 33.4321 25.7148C34.8089 25.7148 35.9288 24.5987 35.9288 23.2269C35.9288 21.8549 34.8088 20.7388 33.4321 20.7388C32.3111 20.7388 31.3605 21.4788 31.0459 22.4944H29.2316V18.2678H37.2119C37.2913 18.2692 37.4729 18.344 37.53 18.3989L39.0345 19.8962C39.1024 19.9639 39.1829 20.0176 39.2716 20.0542C39.3602 20.0908 39.4552 20.1096 39.5511 20.1095C39.6961 20.1095 39.8379 20.0664 39.9584 19.9858C40.0789 19.9051 40.1728 19.7905 40.2281 19.6565C40.2835 19.5224 40.2978 19.375 40.2692 19.2328C40.2406 19.0906 40.1705 18.9601 40.0677 18.8578L38.5632 17.3605C38.2332 17.0322 37.6777 16.8029 37.2122 16.8029H29.2316V13.7642H35.2771ZM40.3753 7.05459C40.9442 7.05459 41.4071 7.51357 41.4071 8.07764C41.4071 8.6418 40.9442 9.10088 40.3753 9.10088C39.8063 9.10088 39.3436 8.64189 39.3436 8.07764C39.3436 7.51357 39.8063 7.05459 40.3753 7.05459ZM33.3183 5.69541C33.8872 5.69541 34.3501 6.15439 34.3501 6.71855C34.3501 7.28271 33.8872 7.7418 33.3183 7.7418C32.7493 7.7418 32.2865 7.28281 32.2865 6.71855C32.2864 6.15439 32.7493 5.69541 33.3183 5.69541ZM37.3022 44.6581C37.8711 44.6581 38.334 45.1172 38.334 45.6813C38.334 46.2455 37.8711 46.7046 37.3022 46.7046C36.7332 46.7046 36.2703 46.2456 36.2703 45.6813C36.2703 45.1172 36.7332 44.6581 37.3022 44.6581ZM37.9851 35.3705C38.554 35.3705 39.0169 35.8295 39.0169 36.3937C39.0169 36.9579 38.554 37.417 37.9851 37.417C37.4161 37.417 36.9532 36.958 36.9532 36.3937C36.9532 35.8296 37.4161 35.3705 37.9851 35.3705ZM39.2371 28.9994C39.8061 28.9994 40.2689 29.4584 40.2689 30.0227C40.2689 30.5868 39.8061 31.0459 39.2371 31.0459C38.6682 31.0459 38.2053 30.5869 38.2053 30.0227C38.2053 29.4584 38.6682 28.9994 39.2371 28.9994ZM33.4321 22.2036C34.0011 22.2036 34.464 22.6626 34.464 23.2269C34.464 23.7909 34.0011 24.25 33.4321 24.25C32.8632 24.25 32.4003 23.791 32.4003 23.2269C32.4003 22.6626 32.8632 22.2036 33.4321 22.2036Z" fill="#2166F3"/>
</g>
<defs>
<clipPath id="clip0_1044_733">
<rect width="50" height="50" fill="white"/>
</clipPath>
</defs>
</svg>
