<svg width="46" height="46" viewBox="0 0 46 46" fill="none" xmlns="http://www.w3.org/2000/svg">
<path d="M23.0081 0.00488306C13.8053 0.00354167 5.4879 5.48914 1.86568 13.9492L1.579 14.0442L1.69015 14.3777C-3.07906 26.1403 2.59012 39.542 14.3527 44.3112C17.1 45.4251 20.0368 45.997 23.0013 45.9953C35.7012 45.9972 45.9981 35.7034 46 23.0035C46.0019 10.3037 35.7081 0.00670351 23.0081 0.00488306ZM41.0453 34.5939L39.8645 33.4139V30.6652C39.8658 30.5466 39.8396 30.4293 39.7878 30.3225L36.7985 24.3522V21.4671C36.7985 21.3409 36.7674 21.2167 36.7079 21.1055C36.6484 20.9942 36.5623 20.8994 36.4574 20.8293L34.1578 19.2963C34.0687 19.2368 33.9681 19.1967 33.8625 19.1784C33.7568 19.1602 33.6486 19.1643 33.5446 19.1906L30.7285 19.8942L25.9984 17.8645L25.3476 13.3053L27.1512 11.5025H31.0228L32.3259 13.4609C32.3841 13.5481 32.4596 13.6223 32.5477 13.6792C32.6357 13.736 32.7345 13.7741 32.8379 13.7913L37.437 14.5578C37.5601 14.5785 37.6865 14.5684 37.8049 14.5287L42.0406 13.1168C45.5933 19.9344 45.2133 28.1342 41.0453 34.5939ZM37.8838 7.55804L36.6375 8.38894L33.1629 7.69371L30.9086 6.94331C30.7707 6.89641 30.6221 6.89055 30.4809 6.92644L27.631 7.63853L26.3816 7.22231L27.3076 5.37043H29.8999C30.0188 5.37055 30.1361 5.343 30.2425 5.28995L32.8946 3.96389C34.721 4.91719 36.4012 6.12757 37.8838 7.55804ZM14.6058 3.24951L16.4454 4.47592C16.5358 4.53608 16.638 4.57631 16.7451 4.59396L20.4596 5.2133L20.097 6.29791L18.1616 6.94407C17.9882 7.00175 17.8412 7.11945 17.7469 7.27597L15.5455 10.9445L12.0096 13.0662L6.79738 13.8104C6.61465 13.8363 6.44738 13.9272 6.32628 14.0664C6.20519 14.2057 6.1384 14.384 6.13819 14.5685V16.868C6.13823 17.0713 6.21901 17.2662 6.36277 17.41L7.6712 18.7184V20.0352L4.48253 17.909L3.32587 14.439C5.52648 9.41069 9.55995 5.40957 14.6058 3.24951ZM12.4235 28.381L8.95893 27.6873L7.6712 25.1187V23.3174L10.5272 20.4614L11.5842 22.5762C11.6479 22.7036 11.7458 22.8108 11.867 22.8856C11.9882 22.9605 12.1278 23.0001 12.2702 23.0001H17.2019L19.2784 26.4609C19.3465 26.5743 19.4428 26.6681 19.5579 26.7332C19.673 26.7984 19.803 26.8326 19.9353 26.8326H22.0662L21.5296 29.5208L18.6277 32.4228C18.5563 32.4939 18.4997 32.5783 18.4611 32.6713C18.4224 32.7643 18.4024 32.864 18.4023 32.9647V34.881L15.6429 36.9505C15.5477 37.0219 15.4704 37.1145 15.4172 37.2209C15.364 37.3274 15.3363 37.4447 15.3363 37.5637V40.3324L14.3827 40.0166L13.0367 36.6501V29.1321C13.0368 28.9554 12.9758 28.7842 12.864 28.6473C12.7523 28.5104 12.5967 28.4163 12.4235 28.381ZM10.1194 40.1642C2.89232 34.7422 -0.164034 25.374 2.47505 16.7331L3.11202 18.6433C3.16566 18.8049 3.27166 18.9441 3.41325 19.0388L7.23429 21.5859L6.36277 22.4582C6.21901 22.6019 6.13823 22.7968 6.13819 23.0001V25.2996C6.13807 25.4185 6.16562 25.5358 6.21867 25.6422L7.75168 28.7083C7.80407 28.8128 7.87964 28.9039 7.97264 28.9747C8.06563 29.0455 8.17358 29.0941 8.28824 29.1168L11.5076 29.7599V36.7972C11.5075 36.8946 11.526 36.9911 11.562 37.0816L13.095 40.9141C13.1365 41.0176 13.2 41.1107 13.2811 41.1871C13.3623 41.2635 13.4591 41.3213 13.5649 41.3564L15.8644 42.1229C15.9412 42.1489 16.0217 42.1624 16.1028 42.1628C16.3061 42.1628 16.501 42.082 16.6448 41.9383C16.7885 41.7945 16.8693 41.5996 16.8693 41.3963V37.947L19.6287 35.8774C19.7239 35.806 19.8012 35.7134 19.8544 35.607C19.9076 35.5006 19.9353 35.3832 19.9353 35.2642V33.282L22.7768 30.4406C22.8836 30.3335 22.9564 30.1972 22.986 30.0489L23.7525 26.2164C23.7747 26.1052 23.772 25.9905 23.7446 25.8805C23.7171 25.7705 23.6656 25.668 23.5938 25.5803C23.5219 25.4926 23.4315 25.422 23.3291 25.3734C23.2266 25.3249 23.1147 25.2997 23.0013 25.2996H20.3692L18.2927 21.8388C18.2246 21.7255 18.1283 21.6316 18.0132 21.5665C17.8981 21.5014 17.7681 21.4671 17.6358 21.4671H12.7439L11.4271 18.8249C11.3727 18.7162 11.2933 18.622 11.1953 18.55C11.0974 18.478 10.9837 18.4304 10.8637 18.411C10.7438 18.3903 10.6207 18.399 10.505 18.4364C10.3892 18.4738 10.2843 18.5387 10.1991 18.6256L9.20421 19.6167V18.4011C9.20417 18.1978 9.12339 18.0028 8.97963 17.8591L7.6712 16.5507V15.2331L12.3791 14.5609C12.4802 14.5462 12.5774 14.5115 12.665 14.4589L16.4975 12.1594C16.6051 12.0948 16.6951 12.0048 16.7597 11.8972L18.9136 8.30769L20.944 7.6301C21.0571 7.59301 21.1599 7.52983 21.244 7.44567C21.3282 7.36152 21.3914 7.25875 21.4285 7.14566L22.195 4.84614C22.2297 4.74119 22.2412 4.62998 22.2289 4.52014C22.2166 4.4103 22.1806 4.30442 22.1236 4.20977C22.0665 4.11512 21.9896 4.03393 21.8982 3.97178C21.8068 3.90963 21.703 3.86797 21.594 3.84968L17.1575 3.11L16.378 2.59031C21.2015 1.02035 26.4258 1.21458 31.1194 3.13836L29.719 3.83742H26.8339C26.6908 3.83664 26.5503 3.87593 26.4284 3.95084C26.3065 4.02575 26.208 4.13329 26.144 4.2613L24.611 7.32732C24.562 7.42556 24.5347 7.53317 24.5309 7.64287C24.5271 7.75257 24.5469 7.86181 24.589 7.96319C24.6311 8.06457 24.6945 8.15573 24.7748 8.23051C24.8552 8.30528 24.9507 8.36192 25.0548 8.3966L27.3543 9.16311C27.4923 9.20996 27.6408 9.2159 27.782 9.17997L30.6319 8.46789L32.7199 9.16311C32.7498 9.17384 32.7805 9.18208 32.8119 9.18764L36.6444 9.95414C36.7431 9.97427 36.8448 9.9746 36.9436 9.95513C37.0424 9.93565 37.1364 9.89676 37.22 9.8407L38.9646 8.67714C39.8232 9.63345 40.5948 10.6644 41.2703 11.7577L37.4991 13.0148L33.4159 12.3341L32.0668 10.3106C31.9972 10.2062 31.9029 10.1205 31.7924 10.061C31.6819 10.0015 31.5584 9.97008 31.4329 9.96947H26.8339C26.6306 9.96952 26.4357 10.0503 26.292 10.1941L23.9924 12.4936C23.9082 12.5778 23.8448 12.6804 23.8071 12.7933C23.7695 12.9063 23.7586 13.0265 23.7755 13.1443L24.542 18.5099C24.561 18.6403 24.6133 18.7637 24.6939 18.868C24.7744 18.9723 24.8805 19.0541 25.0019 19.1055L30.3675 21.405C30.5212 21.4716 30.6926 21.4853 30.855 21.4441L33.5922 20.7596L35.2654 21.8772V24.5331C35.2641 24.6517 35.2904 24.769 35.3421 24.8757L38.3315 30.8461V33.7312C38.3315 33.9345 38.4123 34.1294 38.5561 34.2731L40.1596 35.8774C33.048 45.3565 19.5985 47.2759 10.1194 40.1642Z" fill="black"/>
</svg>
