<svg width="53" height="53" viewBox="0 0 53 53" fill="none" xmlns="http://www.w3.org/2000/svg">
<g clip-path="url(#clip0_1044_1050)">
<path d="M52.9997 13.4676C52.9997 12.5458 52.6335 11.6619 51.9818 11.0101C51.33 10.3583 50.446 9.99217 49.5243 9.99217C48.689 9.99538 47.8834 10.302 47.2574 10.8549C44.7178 9.55166 41.3197 8.97127 37.3447 9.17632C34.7347 3.61653 30.9647 0.434796 26.9341 0.434796C25.6371 0.447041 24.3619 0.770009 23.2154 1.37663C22.5709 0.769299 21.7181 0.432149 20.8326 0.434583C19.947 0.437017 19.0961 0.778849 18.4549 1.38972C17.8138 2.00058 17.4312 2.834 17.386 3.71841C17.3407 4.60282 17.6362 5.47092 18.2117 6.14403C17.5735 7.10771 17.01 8.11882 16.5261 9.1685C13.6185 8.94513 10.6958 9.31401 7.93492 10.2528C6.73964 10.6394 5.63512 11.2643 4.68806 12.0897C3.74099 12.915 2.97102 13.9238 2.42465 15.055C0.947605 18.4044 1.88857 22.4837 4.6689 26.5377C2.11274 30.2677 1.19783 33.9143 2.06234 36.9336C1.70145 37.2261 1.40318 37.5883 1.18531 37.9986C0.967436 38.409 0.834433 38.859 0.79423 39.3218C0.754026 39.7846 0.807447 40.2508 0.951304 40.6925C1.09516 41.1343 1.32651 41.5425 1.63155 41.8929C1.93659 42.2433 2.30908 42.5287 2.72679 42.732C3.1445 42.9353 3.59888 43.0524 4.06284 43.0764C4.52679 43.1003 4.99081 43.0305 5.42722 42.8713C5.86364 42.712 6.2635 42.4664 6.60297 42.1493C9.21837 43.3757 12.0862 43.9678 14.9735 43.8774C15.4757 43.8774 15.9996 43.8487 16.5209 43.8218C19.1318 49.3825 22.9018 52.5659 26.9341 52.5659C30.9665 52.5659 34.7338 49.3851 37.343 43.8288C37.853 43.8596 38.3638 43.8773 38.8748 43.8818C41.276 43.9271 43.6661 43.5447 45.9333 42.7523C47.1287 42.3655 48.2332 41.7405 49.1803 40.915C50.1274 40.0895 50.8973 39.0806 51.4436 37.9492C52.9206 34.5998 51.9788 30.5214 49.1993 26.4674C51.7555 22.7374 52.6747 19.0917 51.8059 16.0715C52.1795 15.7481 52.4794 15.3483 52.6853 14.8991C52.8913 14.4499 52.9985 13.9617 52.9997 13.4676ZM49.5243 11.7299C49.9851 11.7299 50.4271 11.913 50.753 12.2388C51.0789 12.5647 51.262 13.0067 51.262 13.4676C51.262 13.9285 51.0789 14.3704 50.753 14.6963C50.4271 15.0222 49.9851 15.2053 49.5243 15.2053C49.0634 15.2053 48.6214 15.0222 48.2955 14.6963C47.9696 14.3704 47.7866 13.9285 47.7866 13.4676C47.7866 13.0067 47.9696 12.5647 48.2955 12.2388C48.6214 11.913 49.0634 11.7299 49.5243 11.7299ZM29.6745 40.8069C32.5587 39.6802 35.3347 38.2942 37.9685 36.6659C37.5428 38.5007 36.9615 40.2959 36.2308 42.032C34.0138 41.8157 31.82 41.4057 29.6745 40.8069ZM39.098 26.5004C39.1029 29.1115 38.882 31.7183 38.4377 34.2914C36.3751 35.6707 34.2103 36.8906 31.9622 37.9406C30.3206 38.7075 28.6383 39.3839 26.9228 39.9667C25.2157 39.3815 23.5413 38.7049 21.9069 37.9397C19.6619 36.8916 17.498 35.6779 15.4331 34.3087C14.5515 29.1472 14.5515 23.8735 15.4331 18.712C17.4957 17.3327 19.6605 16.1128 21.9087 15.0628C23.5459 14.2985 25.2235 13.6238 26.9341 13.0418C30.9964 14.4228 34.8632 16.3228 38.4386 18.6946C38.8834 21.2725 39.1041 23.8843 39.098 26.5004ZM40.4161 20.0891C42.906 21.9046 45.1381 24.0493 47.0515 26.4647C45.1484 28.9013 42.9164 31.0622 40.4196 32.8856C40.6993 30.769 40.8384 28.636 40.8358 26.5004C40.839 24.3563 40.6988 22.2144 40.4161 20.0891ZM17.6226 41.999C16.901 40.2762 16.3269 38.4954 15.9066 36.6755C17.6058 37.7196 19.3628 38.6665 21.1693 39.5114C22.1665 39.9731 23.1781 40.4031 24.2024 40.8008C22.0494 41.396 19.8473 41.7969 17.6226 41.999ZM24.1816 12.1973C23.1652 12.5964 22.1612 13.0264 21.171 13.4867C19.3613 14.3325 17.6026 15.2835 15.904 16.3348C16.3266 14.5044 16.9041 12.7133 17.6304 10.9809C19.846 11.1947 22.0373 11.6013 24.1816 12.1973ZM13.4521 32.9116C10.9624 31.0959 8.73032 28.9512 6.8167 26.536C8.71986 24.0994 10.9518 21.9385 13.4487 20.1152C12.8914 24.3625 12.8914 28.6643 13.4487 32.9116H13.4521ZM32.6989 13.4893C31.7049 13.0268 30.6965 12.5956 29.6753 12.1965C31.8254 11.6029 34.0242 11.203 36.2456 11.0018C36.9671 12.7242 37.5412 14.5048 37.9616 16.3244C36.2622 15.2809 34.5052 14.3343 32.6989 13.4893ZM20.8521 2.1725C21.313 2.1725 21.755 2.35558 22.0809 2.68146C22.4068 3.00735 22.5899 3.44934 22.5899 3.91021C22.5899 4.37107 22.4068 4.81307 22.0809 5.13895C21.755 5.46483 21.313 5.64791 20.8521 5.64791C20.3913 5.64791 19.9493 5.46483 19.6234 5.13895C19.2975 4.81307 19.1144 4.37107 19.1144 3.91021C19.1144 3.44934 19.2975 3.00735 19.6234 2.68146C19.9493 2.35558 20.3913 2.1725 20.8521 2.1725ZM19.6279 7.15189C20.0189 7.30394 20.4334 7.38301 20.8521 7.38562C21.7739 7.38562 22.6579 7.01946 23.3096 6.36769C23.9614 5.71593 24.3276 4.83194 24.3276 3.91021C24.3227 3.54793 24.2605 3.1887 24.1434 2.84586C25.0101 2.41167 25.9647 2.18135 26.9341 2.1725C30.1306 2.1725 33.209 4.76689 35.494 9.33445C32.5842 9.6565 29.7165 10.2847 26.9385 11.2086C24.1572 10.2828 21.2873 9.64804 18.375 9.31447C18.7479 8.5686 19.1664 7.84638 19.6279 7.15189ZM4.01465 15.7535C4.46554 14.8325 5.10012 14.0136 5.87936 13.347C6.65859 12.6804 7.566 12.1804 8.54572 11.8776C10.6242 11.1512 12.8156 10.8011 15.0169 10.8436C15.2724 10.8436 15.5382 10.8645 15.7989 10.8715C14.9302 13.0754 14.2772 15.3584 13.8492 17.6885C10.8055 19.731 8.08035 22.212 5.76192 25.0511C3.5837 21.6895 2.84431 18.4001 4.01465 15.7535ZM4.34395 41.2709C3.88308 41.2709 3.44109 41.0878 3.11521 40.7619C2.78932 40.436 2.60624 39.994 2.60624 39.5332C2.60624 39.0723 2.78932 38.6303 3.11521 38.3044C3.44109 37.9785 3.88308 37.7955 4.34395 37.7955C4.80482 37.7955 5.24681 37.9785 5.57269 38.3044C5.89858 38.6303 6.08165 39.0723 6.08165 39.5332C6.08165 39.994 5.89858 40.436 5.57269 40.7619C5.24681 41.0878 4.80482 41.2709 4.34395 41.2709ZM7.60215 40.7035C7.74203 40.329 7.81588 39.9328 7.81936 39.5332C7.82078 39.019 7.70778 38.511 7.48856 38.0459C7.26934 37.5808 6.94939 37.1703 6.55189 36.8442C6.15439 36.518 5.68932 36.2844 5.19037 36.1603C4.69141 36.0361 4.17109 36.0246 3.66711 36.1264C3.1319 33.8039 3.86434 30.9915 5.77495 28.0243C8.09625 30.8468 10.8186 33.3139 13.8553 35.347C14.2828 37.661 14.9319 39.9284 15.7937 42.118C12.9895 42.3048 10.1813 41.8198 7.60215 40.7035ZM26.9341 50.8282C23.7376 50.8282 20.6593 48.2338 18.3742 43.6663C21.2883 43.3422 24.1601 42.7117 26.9419 41.7852C29.7182 42.7095 32.5827 43.3433 35.4897 43.6767C33.2046 48.2365 30.128 50.8282 26.9341 50.8282ZM49.8536 37.2455C49.4028 38.1666 48.7682 38.9858 47.989 39.6525C47.2098 40.3192 46.3023 40.8194 45.3225 41.1223C42.9905 41.9231 40.5264 42.2685 38.0641 42.1397C38.9342 39.9333 39.5884 37.6476 40.0173 35.3149C43.0612 33.2723 45.7864 30.791 48.1046 27.9514C50.2845 31.3112 51.0239 34.5989 49.8536 37.2455ZM48.0933 24.9764C45.7718 22.1539 43.0495 19.6865 40.0129 17.6528C39.5856 15.3392 38.9365 13.072 38.0745 10.8827C40.8796 10.6953 43.6888 11.1802 46.2687 12.2972C46.1279 12.6708 46.0532 13.0679 46.0489 13.4676C46.0474 13.9817 46.1604 14.4898 46.3797 14.9549C46.5989 15.42 46.9188 15.8304 47.3163 16.1566C47.7138 16.4827 48.1789 16.7163 48.6779 16.8405C49.1768 16.9646 49.6971 16.9762 50.2011 16.8744C50.7407 19.1968 50.0039 22.0093 48.0933 24.9764Z" fill="#2166F3"/>
<path d="M17.377 21.2872V24.7626C17.3796 25.4056 17.6202 26.0251 18.0547 26.5003C17.6202 26.9756 17.3796 27.5951 17.377 28.238V31.7134C17.377 32.4048 17.6516 33.0677 18.1404 33.5566C18.6292 34.0454 19.2922 34.32 19.9835 34.32H33.8851C34.5765 34.32 35.2394 34.0454 35.7283 33.5566C36.2171 33.0677 36.4917 32.4048 36.4917 31.7134V28.238C36.4894 27.5947 36.2479 26.9753 35.814 26.5003C36.2484 26.0251 36.4891 25.4056 36.4917 24.7626V21.2872C36.4917 20.5959 36.2171 19.9329 35.7283 19.4441C35.2394 18.9553 34.5765 18.6807 33.8851 18.6807H19.9835C19.2922 18.6807 18.6292 18.9553 18.1404 19.4441C17.6516 19.9329 17.377 20.5959 17.377 21.2872ZM34.754 31.7134C34.754 31.9439 34.6625 32.1649 34.4995 32.3278C34.3366 32.4908 34.1156 32.5823 33.8851 32.5823H19.9835C19.7531 32.5823 19.5321 32.4908 19.3691 32.3278C19.2062 32.1649 19.1147 31.9439 19.1147 31.7134V28.238C19.1147 28.0076 19.2062 27.7866 19.3691 27.6237C19.5321 27.4607 19.7531 27.3692 19.9835 27.3692H33.8851C34.1156 27.3692 34.3366 27.4607 34.4995 27.6237C34.6625 27.7866 34.754 28.0076 34.754 28.238V31.7134ZM34.754 21.2872V24.7626C34.754 24.9931 34.6625 25.2141 34.4995 25.377C34.3366 25.5399 34.1156 25.6315 33.8851 25.6315H19.9835C19.7531 25.6315 19.5321 25.5399 19.3691 25.377C19.2062 25.2141 19.1147 24.9931 19.1147 24.7626V21.2872C19.1147 21.0568 19.2062 20.8358 19.3691 20.6728C19.5321 20.5099 19.7531 20.4184 19.9835 20.4184H33.8851C34.1156 20.4184 34.3366 20.5099 34.4995 20.6728C34.6625 20.8358 34.754 21.0568 34.754 21.2872Z" fill="#2166F3"/>
<path d="M21.7204 23.894H22.5893C22.8197 23.894 23.0407 23.8024 23.2036 23.6395C23.3666 23.4765 23.4581 23.2555 23.4581 23.0251C23.4581 22.7947 23.3666 22.5737 23.2036 22.4107C23.0407 22.2478 22.8197 22.1562 22.5893 22.1562H21.7204C21.49 22.1562 21.269 22.2478 21.106 22.4107C20.9431 22.5737 20.8516 22.7947 20.8516 23.0251C20.8516 23.2555 20.9431 23.4765 21.106 23.6395C21.269 23.8024 21.49 23.894 21.7204 23.894ZM28.6712 23.894H32.1466C32.3771 23.894 32.5981 23.8024 32.761 23.6395C32.924 23.4765 33.0155 23.2555 33.0155 23.0251C33.0155 22.7947 32.924 22.5737 32.761 22.4107C32.5981 22.2478 32.3771 22.1562 32.1466 22.1562H28.6712C28.4408 22.1562 28.2198 22.2478 28.0569 22.4107C27.8939 22.5737 27.8024 22.7947 27.8024 23.0251C27.8024 23.2555 27.8939 23.4765 28.0569 23.6395C28.2198 23.8024 28.4408 23.894 28.6712 23.894ZM22.5893 29.1071H21.7204C21.49 29.1071 21.269 29.1986 21.106 29.3615C20.9431 29.5245 20.8516 29.7455 20.8516 29.9759C20.8516 30.2064 20.9431 30.4274 21.106 30.5903C21.269 30.7532 21.49 30.8448 21.7204 30.8448H22.5893C22.8197 30.8448 23.0407 30.7532 23.2036 30.5903C23.3666 30.4274 23.4581 30.2064 23.4581 29.9759C23.4581 29.7455 23.3666 29.5245 23.2036 29.3615C23.0407 29.1986 22.8197 29.1071 22.5893 29.1071ZM32.1466 29.1071H28.6712C28.4408 29.1071 28.2198 29.1986 28.0569 29.3615C27.8939 29.5245 27.8024 29.7455 27.8024 29.9759C27.8024 30.2064 27.8939 30.4274 28.0569 30.5903C28.2198 30.7532 28.4408 30.8448 28.6712 30.8448H32.1466C32.3771 30.8448 32.5981 30.7532 32.761 30.5903C32.924 30.4274 33.0155 30.2064 33.0155 29.9759C33.0155 29.7455 32.924 29.5245 32.761 29.3615C32.5981 29.1986 32.3771 29.1071 32.1466 29.1071Z" fill="#2166F3"/>
</g>
<defs>
<clipPath id="clip0_1044_1050">
<rect width="53" height="53" fill="white"/>
</clipPath>
</defs>
</svg>
