<svg width="49" height="47" viewBox="0 0 49 47" fill="none" xmlns="http://www.w3.org/2000/svg">
<path d="M40.2634 16.3769C39.9734 16.1473 39.5625 16.1111 39.2363 16.2803C38.898 16.4495 38.6925 16.7878 38.6925 17.1624V18.7937H38.2212C35.0311 18.7937 31.9497 19.6154 29.2067 21.1501V10.3835H30.838C31.2127 10.3835 31.551 10.1659 31.7202 9.83964C31.8894 9.50133 31.853 9.10251 31.6235 8.81253L25.2794 0.474611C25.0982 0.232962 24.8082 0.0878906 24.494 0.0878906C24.1798 0.0878906 23.9018 0.23288 23.7085 0.474611L17.3645 8.81245C17.1348 9.10243 17.0986 9.51327 17.2678 9.83956C17.437 10.1779 17.7753 10.3834 18.1499 10.3834H19.7813V21.1501C17.1108 19.6517 14.0415 18.7816 10.7668 18.7816H10.2955V17.1503C10.2955 16.7757 10.078 16.4374 9.75167 16.2682C9.41336 16.099 9.01454 16.1473 8.72456 16.3648L0.38672 22.7089C0.14499 22.8901 0 23.1801 0 23.4943C0 23.7964 0.14499 24.0865 0.38672 24.2798L8.72456 30.6238C9.01454 30.8535 9.42538 30.8897 9.75167 30.7205C10.09 30.5513 10.2955 30.213 10.2955 29.8384V28.207H11.4676C16.0474 28.207 19.7813 31.9409 19.7813 36.5207V45.9341C19.7808 46.0628 19.8057 46.1903 19.8547 46.3093C19.9037 46.4283 19.9758 46.5364 20.0668 46.6274C20.1578 46.7184 20.2659 46.7905 20.3849 46.8395C20.5039 46.8885 20.6314 46.9134 20.7601 46.9129H28.24C28.3687 46.9134 28.4962 46.8885 28.6152 46.8395C28.7342 46.7905 28.8423 46.7184 28.9333 46.6274C29.0243 46.5364 29.0964 46.4283 29.1454 46.3093C29.1944 46.1903 29.2193 46.0628 29.2188 45.9341V36.5207C29.2188 31.9409 32.9527 28.207 37.5325 28.207H38.7046V29.8384C38.7046 30.213 38.9221 30.5513 39.2484 30.7205C39.5867 30.8897 39.9855 30.8414 40.2755 30.6238L48.6134 24.2798C48.855 24.0986 49.0001 23.8085 49.0001 23.4943C49.0001 23.1923 48.8551 22.9022 48.6134 22.7089L40.2634 16.3769ZM20.7359 8.42573H20.1075L24.4819 2.68593L28.8563 8.42573H28.2279C28.0992 8.4252 27.9717 8.45015 27.8527 8.49915C27.7337 8.54816 27.6256 8.62023 27.5346 8.71122C27.4436 8.80222 27.3715 8.91033 27.3225 9.02932C27.2735 9.14831 27.2486 9.27583 27.2491 9.40451V29.0166C25.944 26.4186 24.0469 24.171 21.7268 22.443V9.40451C21.7268 8.86078 21.2797 8.42573 20.7359 8.42573ZM27.237 44.9673H21.7147V36.5328C21.7147 30.8654 17.1107 26.2615 11.4434 26.2615H9.29241C9.16373 26.261 9.03621 26.2859 8.91722 26.3349C8.79823 26.3839 8.69012 26.456 8.59913 26.547C8.50813 26.638 8.43606 26.7461 8.38706 26.8651C8.33806 26.9841 8.3131 27.1116 8.31363 27.2403V27.8686L2.57383 23.5064L8.31363 19.132V19.7603C8.3131 19.889 8.33806 20.0165 8.38706 20.1355C8.43606 20.2545 8.50813 20.3626 8.59913 20.4536C8.69012 20.5446 8.79823 20.6167 8.91722 20.6657C9.03621 20.7147 9.16373 20.7397 9.29241 20.7391H10.7425C19.8416 20.7391 27.2369 28.1344 27.2369 37.2336L27.237 44.9673ZM40.6501 27.8807V27.2524C40.6506 27.1237 40.6256 26.9962 40.5766 26.8772C40.5276 26.7582 40.4556 26.6501 40.3646 26.5591C40.2736 26.4681 40.1655 26.396 40.0465 26.347C39.9275 26.298 39.8 26.2731 39.6713 26.2736H37.5203C34.1006 26.2736 31.0796 27.9533 29.2066 30.5392V23.446C31.8892 21.6939 34.9947 20.7513 38.2211 20.7513H39.6712C39.7999 20.7518 39.9274 20.7269 40.0464 20.6779C40.1654 20.6289 40.2735 20.5568 40.3645 20.4658C40.4555 20.3748 40.5275 20.2667 40.5765 20.1477C40.6255 20.0287 40.6505 19.9012 40.65 19.7725V19.1442L46.3898 23.5064L40.6501 27.8807Z" fill="black"/>
</svg>
