<svg width="50" height="50" viewBox="0 0 50 50" fill="none" xmlns="http://www.w3.org/2000/svg">
<g clip-path="url(#clip0_1044_728)">
<path d="M25.7812 8.59375V5.32813C26.6875 5.00781 27.3437 4.14844 27.3437 3.125C27.3437 1.83594 26.2891 0.78125 25 0.78125C23.7109 0.78125 22.6562 1.83594 22.6562 3.125C22.6562 4.14062 23.3125 5 24.2187 5.32813V8.59375H25.7812ZM25 2.34375C25.4297 2.34375 25.7812 2.69531 25.7812 3.125C25.7812 3.55469 25.4297 3.90625 25 3.90625C24.5703 3.90625 24.2187 3.55469 24.2187 3.125C24.2187 2.69531 24.5703 2.34375 25 2.34375ZM22.2344 20.3125H20.6719C20.3203 20.3125 20.0078 20.5547 19.9141 20.8984L17.6016 29.6875H19.2187L20.0391 26.5625H22.8672L23.6875 29.6875H25.3047L22.9922 20.8984C22.8984 20.5547 22.5937 20.3125 22.2344 20.3125ZM20.4531 25L21.2734 21.875H21.6328L22.4531 25H20.4531ZM26.9219 21.875H28.875V28.125H26.9219V29.6875H32.3906V28.125H30.4375V21.875H32.3906V20.3125H26.9219V21.875ZM46.875 22.6562C45.8594 22.6562 45 23.3125 44.6719 24.2188H41.4062V25.7812H44.6719C44.9922 26.6875 45.8516 27.3438 46.875 27.3438C48.1641 27.3438 49.2188 26.2891 49.2188 25C49.2188 23.7109 48.1641 22.6562 46.875 22.6562ZM46.875 25.7812C46.4453 25.7812 46.0938 25.4297 46.0938 25C46.0938 24.5703 46.4453 24.2188 46.875 24.2188C47.3047 24.2188 47.6563 24.5703 47.6563 25C47.6563 25.4297 47.3047 25.7812 46.875 25.7812Z" fill="#2166F3"/>
<path d="M34.8984 13.9375C31.7109 11.0859 27.5938 9.77344 23.3047 10.25C16.3203 11.0234 10.8125 16.6797 10.2109 23.6875C9.64844 30.25 13.4609 36.375 19.5313 38.7813V43.7422C19.5313 46.7578 21.9844 49.2109 25 49.2109C28.0156 49.2109 30.4688 46.7578 30.4688 43.7422V38.7813C36.1016 36.5469 39.8438 31.0781 39.8438 24.9922C39.8438 20.7734 38.0391 16.7422 34.8984 13.9297V13.9375ZM25 47.6563C23.3984 47.6563 22.0313 46.6875 21.4219 45.3125H28.5703C27.9688 46.6875 26.5938 47.6563 24.9922 47.6563H25ZM28.9063 43.75H21.0938V41.4063H28.9063V43.75ZM29.4297 37.5078C29.1172 37.6172 28.9063 37.9141 28.9063 38.2422V39.8438H21.0938V38.2422C21.0938 37.9141 20.8828 37.6172 20.5703 37.5078C14.8672 35.4922 11.25 29.8594 11.7656 23.8203C12.3047 17.5469 17.2266 12.4922 23.4766 11.7969C23.9922 11.7422 24.5078 11.7109 25.0156 11.7109C28.2891 11.7109 31.3828 12.8828 33.8516 15.0937C36.6641 17.6094 38.2813 21.2187 38.2813 24.9922C38.2813 30.6016 34.7266 35.625 29.4297 37.5V37.5078ZM8.59375 24.2188H5.32813C5.16793 23.7622 4.86993 23.3667 4.47528 23.0868C4.08064 22.8069 3.60882 22.6565 3.125 22.6563C1.83594 22.6563 0.78125 23.7109 0.78125 25C0.78125 26.2891 1.83594 27.3437 3.125 27.3437C4.14063 27.3437 5 26.6875 5.32813 25.7812H8.59375V24.2188ZM3.125 25.7812C2.69531 25.7812 2.34375 25.4297 2.34375 25C2.34375 24.5703 2.69531 24.2188 3.125 24.2188C3.55469 24.2188 3.90625 24.5703 3.90625 25C3.90625 25.4297 3.55469 25.7812 3.125 25.7812ZM39.4688 38.3672L37.1484 36.0469L36.0469 37.1484L38.3594 39.4609C38.1476 39.8968 38.0774 40.3879 38.1586 40.8657C38.2399 41.3434 38.4685 41.7837 38.8125 42.125C39.2578 42.5703 39.8438 42.8125 40.4688 42.8125C41.0938 42.8125 41.6875 42.5703 42.125 42.125C42.5625 41.6797 42.8125 41.0937 42.8125 40.4687C42.8125 39.8437 42.5703 39.2578 42.125 38.8125C41.4297 38.1172 40.3359 37.9766 39.4688 38.3672ZM41.0156 41.0234C40.7188 41.3203 40.2109 41.3203 39.9141 41.0234C39.7656 40.875 39.6875 40.6797 39.6875 40.4687C39.6865 40.3659 39.706 40.2638 39.7448 40.1685C39.7837 40.0733 39.8412 39.9867 39.914 39.914C39.9868 39.8412 40.0733 39.7837 40.1686 39.7448C40.2638 39.706 40.3659 39.6865 40.4688 39.6875C40.5716 39.6865 40.6737 39.706 40.769 39.7448C40.8642 39.7837 40.9508 39.8412 41.0235 39.914C41.0963 39.9867 41.1538 40.0733 41.1927 40.1685C41.2316 40.2638 41.251 40.3659 41.25 40.4687C41.25 40.6797 41.1719 40.875 41.0234 41.0234H41.0156ZM7.875 7.875C7.42969 8.32031 7.1875 8.90625 7.1875 9.53125C7.1875 10.1562 7.42969 10.7422 7.875 11.1875C8.32031 11.6328 8.90625 11.875 9.53125 11.875C9.88281 11.875 10.2266 11.7891 10.5391 11.6406L12.8516 13.9531L13.9531 12.8516L11.6406 10.5391C11.8524 10.1032 11.9226 9.61206 11.8414 9.13435C11.7601 8.65664 11.5315 8.2163 11.1875 7.875C10.2969 6.99219 8.75781 6.99219 7.875 7.875ZM10.0859 10.0859C9.78906 10.3828 9.27344 10.3828 8.98438 10.0859C8.83594 9.9375 8.75781 9.74219 8.75781 9.53125C8.75677 9.42836 8.77626 9.3263 8.81516 9.23105C8.85405 9.13579 8.91155 9.04925 8.98431 8.97649C9.05706 8.90374 9.1436 8.84623 9.23886 8.80734C9.33412 8.76845 9.43618 8.74896 9.53906 8.75C9.64195 8.74896 9.74401 8.76845 9.83927 8.80734C9.93452 8.84623 10.0211 8.90374 10.0938 8.97649C10.1666 9.04925 10.2241 9.13579 10.263 9.23105C10.3019 9.3263 10.3214 9.42836 10.3203 9.53125C10.3203 9.74219 10.2422 9.9375 10.0938 10.0859H10.0859ZM37.1563 13.9531L39.4688 11.6406C39.9046 11.8524 40.3958 11.9226 40.8735 11.8414C41.3512 11.7601 41.7915 11.5315 42.1328 11.1875C42.5781 10.7422 42.8203 10.1562 42.8203 9.53125C42.8203 8.90625 42.5781 8.3125 42.1328 7.875C41.25 6.99219 39.7031 6.99219 38.8203 7.875C38.375 8.32031 38.1328 8.90625 38.1328 9.53125C38.1328 9.88281 38.2188 10.2266 38.3672 10.5391L36.0547 12.8516L37.1563 13.9531ZM39.9219 8.98438C40.0703 8.83594 40.2656 8.75781 40.4766 8.75781C40.5795 8.75677 40.6815 8.77626 40.7768 8.81515C40.872 8.85405 40.9586 8.91155 41.0313 8.98431C41.1041 9.05706 41.1616 9.1436 41.2005 9.23886C41.2394 9.33412 41.2589 9.43618 41.2578 9.53906C41.2578 9.75 41.1797 9.94531 41.0313 10.0938C40.7344 10.3906 40.2266 10.3906 39.9297 10.0938C39.7813 9.94531 39.7031 9.75 39.7031 9.53906C39.7031 9.32813 39.7813 9.13281 39.9297 8.98438H39.9219ZM12.8438 36.0469L10.5234 38.3672C9.65625 37.9766 8.5625 38.1172 7.86719 38.8125C7.42188 39.2578 7.17969 39.8437 7.17969 40.4687C7.17969 41.0937 7.42188 41.6875 7.86719 42.125C8.3125 42.5625 8.89844 42.8125 9.52344 42.8125C10.1484 42.8125 10.7344 42.5703 11.1797 42.125C11.625 41.6797 11.8672 41.0937 11.8672 40.4687C11.8672 40.1172 11.7813 39.7734 11.6328 39.4609L13.9453 37.1484L12.8438 36.0469ZM10.0781 41.0156C9.78125 41.3125 9.26563 41.3125 8.97656 41.0156C8.82813 40.8672 8.75 40.6719 8.75 40.4609C8.74896 40.3581 8.76845 40.256 8.80734 40.1607C8.84623 40.0655 8.90374 39.9789 8.9765 39.9062C9.04925 39.8334 9.13579 39.7759 9.23105 39.737C9.32631 39.6981 9.42837 39.6786 9.53125 39.6797C9.63414 39.6786 9.7362 39.6981 9.83145 39.737C9.92671 39.7759 10.0133 39.8334 10.086 39.9062C10.1588 39.9789 10.2163 40.0655 10.2552 40.1607C10.2941 40.256 10.3135 40.3581 10.3125 40.4609C10.3125 40.6719 10.2344 40.8672 10.0859 41.0156H10.0781Z" fill="#2166F3"/>
</g>
<defs>
<clipPath id="clip0_1044_728">
<rect width="50" height="50" fill="white"/>
</clipPath>
</defs>
</svg>
