<svg width="46" height="46" viewBox="0 0 46 46" fill="none" xmlns="http://www.w3.org/2000/svg">
<path d="M10.2142 8.71125C10.4298 8.71125 10.6526 8.63219 10.8251 8.47406C14.1053 5.4461 18.4073 3.76741 22.8713 3.77344C27.342 3.77344 31.6185 5.44094 34.9104 8.47406C35.277 8.81187 35.8448 8.79031 36.1826 8.42375C36.5204 8.05719 36.4917 7.48937 36.1323 7.15156C32.5098 3.81656 27.802 1.97656 22.8713 1.97656C17.9407 1.97656 13.2329 3.81656 9.61041 7.15875C9.52336 7.23885 9.45299 7.33535 9.40332 7.44271C9.35366 7.55008 9.32569 7.66619 9.32101 7.78439C9.31634 7.9026 9.33505 8.02056 9.37608 8.13151C9.41711 8.24246 9.47965 8.34422 9.5601 8.43094C9.7326 8.61781 9.97698 8.71125 10.2142 8.71125Z" fill="#2166F3"/>
<path d="M32.6322 12.2758C32.9701 11.9093 32.9413 11.3414 32.5819 11.0036C29.9297 8.55988 26.4797 7.21582 22.8716 7.21582C19.2635 7.21582 15.8135 8.55988 13.1613 11.0108C13.028 11.1334 12.9349 11.2935 12.8941 11.47C12.8534 11.6464 12.8669 11.8311 12.933 11.9998C12.999 12.1684 13.1145 12.3131 13.2643 12.415C13.4141 12.5168 13.5911 12.5711 13.7722 12.5705C13.9879 12.5705 14.2107 12.4914 14.3832 12.3333C16.7047 10.1914 19.7163 9.01988 22.8716 9.01988C26.0269 9.01988 29.0385 10.1986 31.3601 12.3333C31.7266 12.6639 32.2944 12.6424 32.6322 12.2758Z" fill="#2166F3"/>
<path d="M29.0237 14.8639C27.3419 13.3114 25.1569 12.4561 22.864 12.4561C20.5712 12.4561 18.3862 13.3114 16.7044 14.8639C16.3378 15.2017 16.3162 15.7695 16.654 16.1361C16.9919 16.5026 17.5597 16.5242 17.9262 16.1864C19.2775 14.9429 21.0312 14.2601 22.864 14.2601C24.6969 14.2601 26.4506 14.9429 27.8019 16.1864C27.9744 16.3445 28.19 16.4236 28.4128 16.4236C28.6572 16.4236 28.8944 16.3229 29.074 16.1361C29.4119 15.7623 29.3903 15.1945 29.0237 14.8639ZM27.809 29.8211C26.4578 31.0645 24.704 31.7473 22.8712 31.7473C21.0384 31.7473 19.2847 31.0645 17.9334 29.8211C17.5669 29.4832 16.999 29.5048 16.6612 29.8714C16.3234 30.2379 16.345 30.8057 16.7115 31.1436C18.3934 32.6961 20.5856 33.5514 22.8712 33.5514C25.1569 33.5514 27.349 32.6961 29.0309 31.1436C29.3975 30.8057 29.419 30.2379 29.0812 29.8714C28.7434 29.5048 28.1756 29.4832 27.809 29.8211ZM27.349 23.0001C27.349 20.5276 25.3365 18.5151 22.864 18.5151C20.3915 18.5151 18.379 20.5276 18.379 23.0001C18.379 25.4726 20.3915 27.4851 22.864 27.4851C25.3365 27.4851 27.349 25.4726 27.349 23.0001ZM20.1759 23.0001C20.1759 21.5195 21.3834 20.312 22.864 20.312C24.3447 20.312 25.5522 21.5195 25.5522 23.0001C25.5522 24.4807 24.3447 25.6882 22.864 25.6882C21.3834 25.6882 20.1759 24.4807 20.1759 23.0001ZM14.16 26.5867V19.4136C14.16 19.1753 14.0653 18.9468 13.8968 18.7783C13.7283 18.6098 13.4998 18.5151 13.2615 18.5151C13.0233 18.5151 12.7947 18.6098 12.6263 18.7783C12.4578 18.9468 12.3631 19.1753 12.3631 19.4136V26.5867C12.3631 26.825 12.4578 27.0535 12.6263 27.222C12.7947 27.3905 13.0233 27.4851 13.2615 27.4851C13.4998 27.4851 13.7283 27.3905 13.8968 27.222C14.0653 27.0535 14.16 26.825 14.16 26.5867ZM37.0234 18.5151H29.8503C29.612 18.5151 29.3835 18.6098 29.215 18.7783C29.0465 18.9468 28.9519 19.1753 28.9519 19.4136C28.9519 19.6518 29.0465 19.8804 29.215 20.0488C29.3835 20.2173 29.612 20.312 29.8503 20.312H32.5384V26.5867C32.5384 26.825 32.6331 27.0535 32.8016 27.222C32.9701 27.3905 33.1986 27.4851 33.4369 27.4851C33.6751 27.4851 33.9037 27.3905 34.0722 27.222C34.2406 27.0535 34.3353 26.825 34.3353 26.5867V20.312H37.0234C37.2617 20.312 37.4902 20.2173 37.6587 20.0488C37.8272 19.8804 37.9219 19.6518 37.9219 19.4136C37.9219 19.1753 37.8272 18.9468 37.6587 18.7783C37.4902 18.6098 37.2617 18.5151 37.0234 18.5151ZM34.9103 37.5261C31.6184 40.5592 27.3419 42.2267 22.8712 42.2267C18.4006 42.2267 14.124 40.5592 10.8322 37.5261C10.6562 37.3653 10.4239 37.2805 10.1857 37.2899C9.94759 37.2993 9.72275 37.4023 9.55998 37.5764C9.22217 37.9429 9.24373 38.5107 9.6103 38.8486C13.2328 42.1836 17.9406 44.0236 22.8712 44.0236C27.8019 44.0236 32.5097 42.1836 36.1322 38.8414C36.4987 38.5036 36.5203 37.9357 36.1825 37.5692C35.8447 37.2098 35.2769 37.1882 34.9103 37.5261Z" fill="#2166F3"/>
<path d="M22.8636 38.7839C26.4717 38.7839 29.9217 37.4399 32.5739 34.9889C32.9405 34.6511 32.962 34.0833 32.6242 33.7167C32.2864 33.3502 31.7186 33.3286 31.352 33.6664C29.0305 35.8083 26.0189 36.9799 22.8636 36.9799C19.7083 36.9799 16.6967 35.8011 14.3751 33.6664C14.1991 33.5057 13.9669 33.4209 13.7287 33.4303C13.4906 33.4397 13.2657 33.5426 13.103 33.7167C12.7651 34.0833 12.7867 34.6511 13.1533 34.9889C15.8126 37.4399 19.2626 38.7839 22.8636 38.7839Z" fill="#2166F3"/>
</svg>
