<svg width="50" height="44" viewBox="0 0 50 44" fill="none" xmlns="http://www.w3.org/2000/svg">
<path d="M38.5413 31.4167C38.4086 31.4166 38.2771 31.3911 38.1538 31.3417L27.7372 27.175C27.5434 27.0983 27.3771 26.9651 27.2599 26.7927C27.1427 26.6204 27.0801 26.4168 27.0801 26.2083C27.0801 25.9999 27.1427 25.7963 27.2599 25.6239C27.3771 25.4515 27.5434 25.3183 27.7372 25.2417L38.1538 21.075C38.4018 20.975 38.6788 20.975 38.9268 21.075L49.3434 25.2417C49.5382 25.3173 49.7055 25.45 49.8236 25.6224C49.9417 25.7947 50.005 25.9987 50.0052 26.2076C50.0054 26.4165 49.9426 26.6206 49.8249 26.7933C49.7072 26.9659 49.5401 27.0989 49.3455 27.175L38.9289 31.3417C38.8056 31.3911 38.6741 31.4166 38.5413 31.4167ZM30.9309 26.2083L38.5413 29.2521L46.1518 26.2083L38.5413 23.1646L30.9309 26.2083Z" fill="black"/>
<path d="M38.5404 43.917C38.4076 43.9169 38.2761 43.8915 38.1529 43.842L27.7362 39.6753C27.5429 39.5982 27.3773 39.4648 27.2606 39.2925C27.144 39.1201 27.0818 38.9168 27.082 38.7087V26.2087C27.082 25.9324 27.1918 25.6674 27.3871 25.4721C27.5825 25.2767 27.8474 25.167 28.1237 25.167C28.4 25.167 28.6649 25.2767 28.8603 25.4721C29.0556 25.6674 29.1654 25.9324 29.1654 26.2087V38.0045L38.5404 41.7545L47.9154 38.0045V26.2087C47.9154 25.9324 48.0251 25.6674 48.2205 25.4721C48.4158 25.2767 48.6808 25.167 48.957 25.167C49.2333 25.167 49.4983 25.2767 49.6936 25.4721C49.889 25.6674 49.9987 25.9324 49.9987 26.2087V38.7087C49.9989 38.9168 49.9367 39.1201 49.8201 39.2925C49.7035 39.4648 49.5378 39.5982 49.3445 39.6753L38.9279 43.842C38.8047 43.8915 38.6731 43.9169 38.5404 43.917Z" fill="black"/>
<path d="M38.5407 43.9167C38.2644 43.9167 37.9995 43.8069 37.8041 43.6116C37.6088 43.4162 37.499 43.1513 37.499 42.875V30.375C37.499 30.0987 37.6088 29.8338 37.8041 29.6384C37.9995 29.4431 38.2644 29.3333 38.5407 29.3333C38.817 29.3333 39.0819 29.4431 39.2773 29.6384C39.4726 29.8338 39.5824 30.0987 39.5824 30.375V42.875C39.5824 43.1513 39.4726 43.4162 39.2773 43.6116C39.0819 43.8069 38.817 43.9167 38.5407 43.9167ZM11.4574 31.4167C11.3246 31.4166 11.1931 31.3911 11.0699 31.3417L0.6532 27.175C0.459387 27.0983 0.2931 26.9651 0.175924 26.7927C0.058748 26.6204 -0.00390625 26.4168 -0.00390625 26.2083C-0.00390625 25.9999 0.058748 25.7963 0.175924 25.6239C0.2931 25.4515 0.459387 25.3183 0.6532 25.2417L11.0699 21.075C11.3178 20.975 11.5948 20.975 11.8428 21.075L22.2595 25.2417C22.4542 25.3173 22.6215 25.45 22.7396 25.6224C22.8577 25.7947 22.921 25.9987 22.9212 26.2076C22.9214 26.4165 22.8586 26.6206 22.7409 26.7933C22.6232 26.9659 22.4561 27.0989 22.2615 27.175L11.8449 31.3417C11.7217 31.3911 11.5901 31.4166 11.4574 31.4167ZM3.84695 26.2083L11.4574 29.2521L19.0678 26.2083L11.4574 23.1646L3.84695 26.2083Z" fill="black"/>
<path d="M11.4583 43.917C11.3256 43.9169 11.194 43.8915 11.0708 43.842L0.654167 39.6753C0.460904 39.5982 0.295241 39.4648 0.178615 39.2925C0.0619888 39.1201 -0.000233107 38.9168 6.56263e-07 38.7087V26.2087C6.56263e-07 25.9324 0.109747 25.6674 0.305098 25.4721C0.500448 25.2767 0.7654 25.167 1.04167 25.167C1.31793 25.167 1.58289 25.2767 1.77824 25.4721C1.97359 25.6674 2.08333 25.9324 2.08333 26.2087V38.0045L11.4583 41.7545L20.8333 38.0045V26.2087C20.8333 25.9324 20.9431 25.6674 21.1384 25.4721C21.3338 25.2767 21.5987 25.167 21.875 25.167C22.1513 25.167 22.4162 25.2767 22.6116 25.4721C22.8069 25.6674 22.9167 25.9324 22.9167 26.2087V38.7087C22.9169 38.9168 22.8547 39.1201 22.7381 39.2925C22.6214 39.4648 22.4558 39.5982 22.2625 39.6753L11.8458 43.842C11.7226 43.8915 11.5911 43.9169 11.4583 43.917Z" fill="black"/>
<path d="M11.4577 43.917C11.1814 43.917 10.9165 43.8072 10.7211 43.6119C10.5258 43.4165 10.416 43.1516 10.416 42.8753V30.3753C10.416 30.099 10.5258 29.8341 10.7211 29.6387C10.9165 29.4434 11.1814 29.3336 11.4577 29.3336C11.7339 29.3336 11.9989 29.4434 12.1943 29.6387C12.3896 29.8341 12.4993 30.099 12.4993 30.3753V42.8753C12.4993 43.1516 12.3896 43.4165 12.1943 43.6119C11.9989 43.8072 11.7339 43.917 11.4577 43.917ZM24.9993 10.5836C24.8666 10.5836 24.7351 10.5581 24.6118 10.5086L14.1952 6.34198C14.0014 6.26529 13.8351 6.13212 13.7179 5.95974C13.6007 5.78736 13.5381 5.58374 13.5381 5.37531C13.5381 5.16688 13.6007 4.96326 13.7179 4.79088C13.8351 4.61851 14.0014 4.48533 14.1952 4.40865L24.6118 0.241979C24.8598 0.141997 25.1368 0.141997 25.3848 0.241979L35.8014 4.40865C35.9962 4.48431 36.1635 4.617 36.2816 4.78935C36.3997 4.9617 36.463 5.16568 36.4632 5.3746C36.4634 5.58352 36.4006 5.78764 36.2829 5.96024C36.1652 6.13285 35.9981 6.2659 35.8035 6.34198L25.3868 10.5086C25.2636 10.5581 25.1321 10.5836 24.9993 10.5836ZM17.3889 5.37531L24.9993 8.41906L32.6098 5.37531L24.9993 2.33156L17.3889 5.37531Z" fill="black"/>
<path d="M24.9993 23.084C24.8666 23.0839 24.7351 23.0584 24.6118 23.009L14.1952 18.8423C14.0019 18.7652 13.8363 18.6318 13.7196 18.4595C13.603 18.2871 13.5408 18.0837 13.541 17.8757V5.37565C13.541 5.09938 13.6508 4.83443 13.8461 4.63908C14.0415 4.44373 14.3064 4.33398 14.5827 4.33398C14.859 4.33398 15.1239 4.44373 15.3193 4.63908C15.5146 4.83443 15.6243 5.09938 15.6243 5.37565V17.1715L24.9993 20.9215L34.3743 17.1715V5.37565C34.3743 5.09938 34.4841 4.83443 34.6794 4.63908C34.8748 4.44373 35.1397 4.33398 35.416 4.33398C35.6923 4.33398 35.9572 4.44373 36.1526 4.63908C36.3479 4.83443 36.4577 5.09938 36.4577 5.37565V17.8757C36.4579 18.0837 36.3957 18.2871 36.2791 18.4595C36.1624 18.6318 35.9968 18.7652 35.8035 18.8423L25.3868 23.009C25.2636 23.0584 25.1321 23.0839 24.9993 23.084Z" fill="black"/>
<path d="M24.9987 23.0833C24.7224 23.0833 24.4575 22.9736 24.2621 22.7782C24.0668 22.5829 23.957 22.3179 23.957 22.0417V9.54167C23.957 9.2654 24.0668 9.00045 24.2621 8.8051C24.4575 8.60975 24.7224 8.5 24.9987 8.5C25.275 8.5 25.5399 8.60975 25.7353 8.8051C25.9306 9.00045 26.0404 9.2654 26.0404 9.54167V22.0417C26.0404 22.3179 25.9306 22.5829 25.7353 22.7782C25.5399 22.9736 25.275 23.0833 24.9987 23.0833Z" fill="black"/>
</svg>
