<svg width="42" height="42" viewBox="0 0 42 42" fill="none" xmlns="http://www.w3.org/2000/svg">
<path d="M13.946 15.8612H8.16602C7.9008 15.8612 7.64644 15.7559 7.45891 15.5683C7.27137 15.3808 7.16602 15.1264 7.16602 14.8612C7.16602 14.596 7.27137 14.3416 7.45891 14.1541C7.64644 13.9666 7.9008 13.8612 8.16602 13.8612H12.946V7.24121C12.946 6.97599 13.0514 6.72164 13.2389 6.5341C13.4264 6.34657 13.6808 6.24121 13.946 6.24121C14.2112 6.24121 14.4656 6.34657 14.6531 6.5341C14.8407 6.72164 14.946 6.97599 14.946 7.24121V14.8612C14.946 15.1264 14.8407 15.3808 14.6531 15.5683C14.4656 15.7559 14.2112 15.8612 13.946 15.8612ZM31.818 21.1992C31.5528 21.1992 31.2984 21.0939 31.1109 20.9063C30.9234 20.7188 30.818 20.4644 30.818 20.1992V18.7192C30.818 18.454 30.7127 18.1996 30.5251 18.0121C30.3376 17.8246 30.0832 17.7192 29.818 17.7192H26.878C26.6128 17.7192 26.3584 17.8246 26.1709 18.0121C25.9834 18.1996 25.878 18.454 25.878 18.7192V20.1992C25.878 20.4644 25.7727 20.7188 25.5851 20.9063C25.3976 21.0939 25.1432 21.1992 24.878 21.1992C24.6128 21.1992 24.3584 21.0939 24.1709 20.9063C23.9834 20.7188 23.878 20.4644 23.878 20.1992V18.7192C23.878 17.9236 24.1941 17.1605 24.7567 16.5979C25.3193 16.0353 26.0824 15.7192 26.878 15.7192H29.818C30.6137 15.7192 31.3767 16.0353 31.9393 16.5979C32.5019 17.1605 32.818 17.9236 32.818 18.7192V20.1992C32.818 20.4644 32.7127 20.7188 32.5251 20.9063C32.3376 21.0939 32.0832 21.1992 31.818 21.1992Z" fill="black"/>
<path d="M11.7018 28.5997C11.6435 28.6001 11.5853 28.5954 11.5278 28.5857C9.00934 28.1442 6.66083 27.0186 4.73928 25.3318C2.81772 23.6451 1.39716 21.4623 0.633054 19.0223C-0.131055 16.5823 -0.20927 13.9791 0.406971 11.4977C1.02321 9.01619 2.31016 6.75204 4.12698 4.95299C5.9438 3.15393 8.22049 1.88929 10.7079 1.29747C13.1953 0.70564 15.7976 0.809429 18.2299 1.59748C20.6623 2.38553 22.8311 3.82747 24.4988 5.7655C26.1666 7.70354 27.2691 10.063 27.6858 12.5857C27.7293 12.8474 27.667 13.1158 27.5127 13.3316C27.3583 13.5475 27.1246 13.6932 26.8628 13.7367C26.601 13.7802 26.3327 13.7179 26.1168 13.5635C25.901 13.4092 25.7553 13.1754 25.7118 12.9137C25.3514 10.7571 24.4052 8.74103 22.9766 7.08583C21.5479 5.43062 19.6918 4.19995 17.6111 3.52829C15.5303 2.85662 13.3049 2.76981 11.1782 3.27734C9.0514 3.78487 7.10506 4.86721 5.55181 6.40609C3.99857 7.94497 2.89819 9.88118 2.37092 12.0031C1.84365 14.1251 1.90979 16.3512 2.56209 18.4381C3.21439 20.525 4.42776 22.3925 6.06962 23.8364C7.71148 25.2804 9.71864 26.2453 11.8718 26.6257C12.1169 26.67 12.3366 26.8042 12.4879 27.002C12.6393 27.1998 12.7114 27.4469 12.6901 27.6951C12.6689 27.9432 12.5558 28.1745 12.373 28.3437C12.1902 28.5128 11.9508 28.6077 11.7018 28.6097V28.5997Z" fill="black"/>
<path d="M37.979 33.7152H18.707C17.6462 33.7152 16.6288 33.2938 15.8786 32.5436C15.1285 31.7935 14.707 30.7761 14.707 29.7152V22.1992C14.707 21.4036 15.0231 20.6405 15.5857 20.0779C16.1483 19.5153 16.9114 19.1992 17.707 19.1992H38.979C39.7747 19.1992 40.5377 19.5153 41.1004 20.0779C41.663 20.6405 41.979 21.4036 41.979 22.1992V29.7092C41.9798 30.235 41.8769 30.7558 41.6763 31.2418C41.4756 31.7278 41.1811 32.1695 40.8096 32.5415C40.4381 32.9136 39.9968 33.2088 39.5112 33.4102C39.0255 33.6116 38.5048 33.7152 37.979 33.7152ZM17.707 21.1992C17.4418 21.1992 17.1875 21.3046 16.9999 21.4921C16.8124 21.6796 16.707 21.934 16.707 22.1992V29.7092C16.707 30.2397 16.9177 30.7484 17.2928 31.1234C17.6679 31.4985 18.1766 31.7092 18.707 31.7092H37.979C38.5095 31.7092 39.0182 31.4985 39.3932 31.1234C39.7683 30.7484 39.979 30.2397 39.979 29.7092V22.1992C39.979 21.934 39.8737 21.6796 39.6861 21.4921C39.4986 21.3046 39.2442 21.1992 38.979 21.1992H17.707Z" fill="black"/>
<path d="M38.0159 41.0732H18.6719C17.8762 41.0732 17.1132 40.7571 16.5506 40.1945C15.9879 39.6319 15.6719 38.8688 15.6719 38.0732V31.9092C15.6719 31.644 15.7772 31.3896 15.9648 31.2021C16.1523 31.0145 16.4067 30.9092 16.6719 30.9092C16.9371 30.9092 17.1914 31.0145 17.379 31.2021C17.5665 31.3896 17.6719 31.644 17.6719 31.9092V38.0732C17.6719 38.3384 17.7772 38.5927 17.9648 38.7803C18.1523 38.9678 18.4067 39.0732 18.6719 39.0732H38.0159C38.2811 39.0732 38.5354 38.9678 38.723 38.7803C38.9105 38.5927 39.0159 38.3384 39.0159 38.0732V31.9092C39.0159 31.644 39.1212 31.3896 39.3088 31.2021C39.4963 31.0145 39.7507 30.9092 40.0159 30.9092C40.2811 30.9092 40.5354 31.0145 40.723 31.2021C40.9105 31.3896 41.0159 31.644 41.0159 31.9092V38.0732C41.0159 38.8688 40.6998 39.6319 40.1372 40.1945C39.5746 40.7571 38.8115 41.0732 38.0159 41.0732Z" fill="black"/>
<path d="M23.4961 34.5212C23.2309 34.5212 22.9765 34.4158 22.789 34.2283C22.6014 34.0408 22.4961 33.7864 22.4961 33.5212V31.9092C22.4961 31.644 22.6014 31.3896 22.789 31.2021C22.9765 31.0145 23.2309 30.9092 23.4961 30.9092C23.7613 30.9092 24.0157 31.0145 24.2032 31.2021C24.3907 31.3896 24.4961 31.644 24.4961 31.9092V33.5212C24.4961 33.7864 24.3907 34.0408 24.2032 34.2283C24.0157 34.4158 23.7613 34.5212 23.4961 34.5212ZM33.2001 34.5212C32.9349 34.5212 32.6805 34.4158 32.493 34.2283C32.3055 34.0408 32.2001 33.7864 32.2001 33.5212V31.9092C32.2001 31.644 32.3055 31.3896 32.493 31.2021C32.6805 31.0145 32.9349 30.9092 33.2001 30.9092C33.4653 30.9092 33.7197 31.0145 33.9072 31.2021C34.0947 31.3896 34.2001 31.644 34.2001 31.9092V33.5212C34.2001 33.7864 34.0947 34.0408 33.9072 34.2283C33.7197 34.4158 33.4653 34.5212 33.2001 34.5212Z" fill="black"/>
</svg>
