<svg width="44" height="41" viewBox="0 0 44 41" fill="none" xmlns="http://www.w3.org/2000/svg">
<path fill-rule="evenodd" clip-rule="evenodd" d="M7.70522 26.4518C8.51803 27.1865 9.02803 28.2495 9.02803 29.4321C9.02719 30.4986 8.60305 31.5211 7.8488 32.275C7.09455 33.029 6.07187 33.4527 5.00541 33.4531C3.93922 33.4523 2.91695 33.0284 2.16304 32.2745C1.40913 31.5206 0.985219 30.4983 0.984375 29.4321C0.984792 28.7898 1.13897 28.1569 1.43401 27.5863C1.72905 27.0157 2.15639 26.5241 2.6803 26.1524C3.20421 25.7808 3.80948 25.54 4.4455 25.4501C5.08152 25.3602 5.72981 25.4239 6.33619 25.6358L7.26375 24.0771C2.04422 18.4543 2.17013 9.65206 7.63988 4.18231C13.2371 -1.41494 22.3263 -1.41494 27.9251 4.18231C29.3382 5.59263 30.4403 7.28322 31.1604 9.14525L33.6037 6.43747C33.1519 5.84073 32.8756 5.12984 32.8056 4.38468C32.7357 3.63952 32.8749 2.88962 33.2077 2.21924C33.5405 1.54886 34.0536 0.98457 34.6895 0.589776C35.3253 0.194982 36.0587 -0.0146711 36.8071 -0.0156246C37.8733 -0.0147805 38.8956 0.409134 39.6495 1.16304C40.4034 1.91695 40.8273 2.93922 40.8281 4.00541C40.8275 4.71079 40.6414 5.40362 40.2886 6.01444C39.9358 6.62526 39.4287 7.13262 38.818 7.48566C38.2073 7.8387 37.5146 8.02502 36.8092 8.02595C36.1038 8.02687 35.4106 7.84237 34.799 7.49094L31.7135 10.9111C32.5667 14.4083 32.0783 18.0983 30.3444 21.253L42.798 33.7049C43.5439 34.453 43.9627 35.4663 43.9627 36.5227C43.9627 37.5791 43.5439 38.5924 42.798 39.3404C42.428 39.7105 41.9887 40.0041 41.5052 40.2044C41.0218 40.4047 40.5036 40.5078 39.9803 40.5078C39.4569 40.5078 38.9387 40.4047 38.4553 40.2044C37.9718 40.0041 37.5325 39.7105 37.1625 39.3404L24.7105 26.8885C19.5659 29.7253 13.0427 29.1675 8.44153 25.2118L7.70522 26.4518ZM29.9444 10.4936C29.2846 8.40456 28.0979 6.52069 26.4987 5.02344C24.8994 3.5262 22.9415 2.46605 20.8137 1.94512C18.6858 1.4242 16.4596 1.46006 14.3496 2.04925C12.2395 2.63845 10.3168 3.76112 8.76666 5.30909C6.49372 7.58426 5.16389 10.6339 5.04332 13.8476C4.92275 17.0613 6.02034 20.2021 8.11641 22.6411L11.645 16.706C11.1 16.2695 10.6781 15.6986 10.4207 15.0495C10.1633 14.4005 10.0792 13.6956 10.1768 13.0043C10.2744 12.3129 10.5503 11.6588 10.9773 11.1064C11.4044 10.554 11.9678 10.1222 12.6123 9.85355C13.2568 9.58492 13.9601 9.48865 14.653 9.57424C15.346 9.65983 16.0048 9.92431 16.5645 10.3417C17.1243 10.759 17.5658 11.3149 17.8455 11.9547C18.1253 12.5944 18.2338 13.2959 18.1602 13.9903L21.0608 15.678C21.6622 14.9646 22.4933 14.483 23.4113 14.316C24.3292 14.1491 25.2767 14.3072 26.0907 14.7632L29.9444 10.4936ZM29.4742 22.6363C28.5436 23.944 27.4011 25.087 26.0939 26.0183L28.2487 28.1714L31.629 24.7911L29.4742 22.6363ZM9.27028 23.8189C11.6995 25.9945 14.8697 27.1572 18.1295 27.0683C21.3893 26.9794 24.4913 25.6455 26.7983 23.3408C28.215 21.9254 29.2779 20.1958 29.9007 18.2926C30.5235 16.3893 30.6886 14.366 30.3827 12.3869L27.302 15.8008C27.7646 16.3951 28.0512 17.1073 28.1291 17.8564C28.207 18.6055 28.0731 19.3614 27.7427 20.0382C27.4123 20.715 26.8985 21.2855 26.26 21.6848C25.6214 22.0841 24.8836 22.2961 24.1304 22.2969C23.4997 22.2963 22.8779 22.1474 22.3153 21.8623C21.7526 21.5772 21.2649 21.1638 20.8914 20.6556C20.5179 20.1473 20.2691 19.5583 20.1651 18.9362C20.0611 18.3141 20.1048 17.6763 20.2927 17.0742L17.663 15.5442C17.2199 16.3301 16.5254 16.9442 15.6912 17.2879C14.857 17.6316 13.9315 17.6848 13.0634 17.4391L9.27028 23.8189ZM29.3754 29.2982L38.2893 38.2137C38.7402 38.6491 39.344 38.8901 39.9708 38.8846C40.5977 38.8792 41.1973 38.6278 41.6405 38.1845C42.0837 37.7413 42.3352 37.1417 42.3406 36.5149C42.3461 35.8881 42.1051 35.2842 41.6696 34.8333L32.7558 25.9179L29.3754 29.2982ZM2.57812 29.4321C2.59435 30.0653 2.85728 30.6671 3.31087 31.1092C3.76445 31.5513 4.3728 31.7988 5.0062 31.7988C5.63961 31.7988 6.24795 31.5513 6.70154 31.1092C7.15512 30.6671 7.41806 30.0653 7.43428 29.4321C7.40653 28.8068 7.13858 28.2163 6.68627 27.7836C6.23395 27.3509 5.63214 27.1094 5.0062 27.1094C4.38026 27.1094 3.77845 27.3509 3.32614 27.7836C2.87382 28.2163 2.60588 28.8068 2.57812 29.4321ZM34.3782 4.00541C34.3776 4.48631 34.5196 4.95659 34.7864 5.35674C35.0531 5.75688 35.4326 6.06889 35.8767 6.25329C36.3209 6.43769 36.8098 6.48618 37.2815 6.39263C37.7532 6.29909 38.1866 6.0677 38.5267 5.72776C38.8669 5.38782 39.0986 4.95461 39.1924 4.48295C39.2863 4.01129 39.2381 3.5224 39.054 3.07813C38.8699 2.63386 38.5581 2.25419 38.1582 1.98718C37.7582 1.72017 37.288 1.57781 36.8071 1.57813C35.4667 1.57813 34.3782 2.66666 34.3782 4.00541ZM17.2805 4.772C17.0693 4.7832 16.8624 4.71007 16.7052 4.5687C16.548 4.42733 16.4534 4.22929 16.4422 4.01816C16.431 3.80702 16.5041 3.60009 16.6455 3.44287C16.7868 3.28566 16.9849 3.19105 17.196 3.17984C18.7587 3.09598 20.3216 3.3423 21.7827 3.90276C23.2439 4.46323 24.5706 5.32526 25.6763 6.43269C25.7503 6.50678 25.809 6.59472 25.849 6.69148C25.889 6.78824 25.9095 6.89194 25.9095 6.99664C25.9094 7.10135 25.8887 7.20501 25.8486 7.30172C25.8084 7.39843 25.7496 7.48628 25.6755 7.56027C25.6015 7.63425 25.5135 7.69292 25.4168 7.73292C25.32 7.77292 25.2163 7.79347 25.1116 7.7934C25.0069 7.79332 24.9032 7.77263 24.8065 7.73249C24.7098 7.69235 24.622 7.63356 24.548 7.55947C23.6007 6.61002 22.4638 5.87101 21.2115 5.3907C19.9592 4.91039 18.6197 4.69957 17.2805 4.772ZM11.7326 13.5679C11.7326 13.8869 11.7954 14.2027 11.9175 14.4974C12.0396 14.7921 12.2185 15.0598 12.444 15.2854C12.6696 15.5109 12.9373 15.6898 13.232 15.8119C13.5267 15.934 13.8425 15.9968 14.1615 15.9968C14.4805 15.9968 14.7963 15.934 15.091 15.8119C15.3857 15.6898 15.6534 15.5109 15.879 15.2854C16.1045 15.0598 16.2834 14.7921 16.4055 14.4974C16.5275 14.2027 16.5904 13.8869 16.5904 13.5679C16.5904 12.9237 16.3345 12.3059 15.879 11.8504C15.4235 11.3949 14.8057 11.139 14.1615 11.139C13.5173 11.139 12.8995 11.3949 12.444 11.8504C11.9885 12.3059 11.7326 12.9237 11.7326 13.5679ZM21.7031 18.2758C21.7193 18.909 21.9823 19.5109 22.4359 19.953C22.8895 20.3951 23.4978 20.6425 24.1312 20.6425C24.7646 20.6425 25.373 20.3951 25.8265 19.953C26.2801 19.5109 26.5431 18.909 26.5593 18.2758C26.5315 17.6505 26.2636 17.06 25.8113 16.6273C25.359 16.1946 24.7571 15.9531 24.1312 15.9531C23.5053 15.9531 22.9035 16.1946 22.4511 16.6273C21.9988 17.06 21.7309 17.6505 21.7031 18.2758Z" fill="#2166F3"/>
</svg>
