<svg width="50" height="50" viewBox="0 0 50 50" fill="none" xmlns="http://www.w3.org/2000/svg">
<path d="M47.2468 32.7113H46.5736V30.6884C46.5736 30.345 46.2945 30.066 45.9512 30.066H45.2872L48.4637 23.3044C49.277 22.6281 49.7967 21.6094 49.7967 20.4703C49.7967 19.5201 49.4346 18.6529 48.8423 17.9983L46.475 9.9276C46.4232 8.3923 45.1586 7.15887 43.6109 7.15887C42.2405 7.15887 41.0932 8.12466 40.811 9.41203H35.035V8.46491C35.035 8.04271 34.7051 7.70245 34.2829 7.68896L32.9063 7.64643C32.7482 7.12203 32.5383 6.61467 32.2797 6.13188L33.2227 5.12875C33.3614 4.98218 33.4373 4.78719 33.4342 4.58542C33.4311 4.38365 33.3492 4.19108 33.2061 4.04885L30.9861 1.82889C30.6874 1.53116 30.2133 1.52286 29.9062 1.81229L28.9031 2.75525C28.4197 2.49591 27.9124 2.28636 27.3875 2.12765L27.346 0.753138C27.341 0.551004 27.257 0.358884 27.1119 0.218059C26.9668 0.0772349 26.7722 -0.00105544 26.5701 1.07487e-05H23.4299C23.2278 -0.000868935 23.0334 0.0774825 22.8883 0.218268C22.7433 0.359053 22.6591 0.551065 22.654 0.753138L22.6125 2.12765C22.0872 2.28541 21.5791 2.49567 21.0959 2.75525L20.0948 1.81229C19.9483 1.67312 19.753 1.59691 19.551 1.60001C19.3489 1.60312 19.1561 1.68528 19.0139 1.82889L16.7939 4.04885C16.6503 4.19105 16.5681 4.38386 16.565 4.58593C16.5619 4.788 16.6381 4.98324 16.7773 5.12978L17.7203 6.13084C17.4609 6.61425 17.2504 7.12256 17.0927 7.64747L15.7182 7.68896C15.5161 7.69412 15.3241 7.77824 15.1833 7.92329C15.0425 8.06834 14.9642 8.26278 14.965 8.46491V9.41203H9.18899C8.90682 8.1257 7.7595 7.15887 6.38914 7.15887C4.84139 7.15887 3.57684 8.3923 3.52497 9.9276L1.1577 17.9983C0.564328 18.6529 0.203324 19.5201 0.203324 20.4703C0.203324 21.6083 0.722007 22.6281 1.53634 23.3044L4.71275 30.066H4.04884C3.70547 30.066 3.42642 30.345 3.42642 30.6884V32.7113H2.75317C1.2355 32.7113 6.52775e-07 33.9468 6.52775e-07 35.4644V47.2468C-0.00103671 48.7645 1.23447 50 2.75213 50H47.2468C48.7645 50 50 48.7645 50 47.2468V35.4644C50 33.9468 48.7645 32.7113 47.2468 32.7113ZM45.3287 32.7113H36.4468V31.3108H45.3287V32.7113ZM43.9117 30.066H38.84L43.4843 23.0482C44.1534 23.7297 45.0839 24.154 46.112 24.154C46.3163 24.154 46.5165 24.1364 46.7115 24.1042L43.9117 30.066ZM45.7603 11.9183L47.2406 16.964C46.876 16.8461 46.4951 16.7863 46.112 16.7867C45.3266 16.7856 44.5617 17.0373 43.9304 17.5045L43.7457 12.8882C44.5466 12.8509 45.2634 12.4826 45.7603 11.9183ZM46.112 22.9092C44.7675 22.9092 43.6731 21.8148 43.6731 20.4703C43.6731 19.1259 44.7675 18.0315 46.112 18.0315C47.4574 18.0315 48.5508 19.1259 48.5508 20.4703C48.5508 21.8148 47.4574 22.9092 46.112 22.9092ZM43.6109 8.40371C44.5051 8.40371 45.2323 9.1309 45.2323 10.0251C45.2323 10.9193 44.5051 11.6465 43.6109 11.6465C42.7167 11.6465 41.9895 10.9193 41.9895 10.0251C41.9884 9.1309 42.7167 8.40371 43.6109 8.40371ZM16.2088 8.91928L17.4744 8.8809C17.824 8.87052 18.1166 8.63608 18.2037 8.29686C18.368 7.6501 18.6244 7.03033 18.9651 6.45657C19.1436 6.15574 19.1031 5.78229 18.8635 5.52813L17.9962 4.60695L19.573 3.03016L20.4942 3.89739C20.6163 4.01386 20.7733 4.08699 20.9411 4.10555C21.1088 4.1241 21.278 4.08705 21.4226 4.00009C21.9963 3.6588 22.6156 3.40257 23.264 3.23867C23.4277 3.19783 23.5736 3.10436 23.6791 2.97261C23.7846 2.84087 23.8439 2.67813 23.848 2.5094L23.8864 1.24381H26.1167L26.1551 2.50836C26.1655 2.85795 26.3999 3.15153 26.7391 3.23763C27.3865 3.40257 28.0047 3.6588 28.5784 3.99802C28.8792 4.17644 29.2516 4.13599 29.5068 3.89636L30.4301 3.02912L32.0079 4.60695L31.1397 5.53021C30.9011 5.78436 30.8596 6.15781 31.038 6.45761C31.378 7.03049 31.6341 7.64919 31.7984 8.29479C31.8845 8.63297 32.177 8.86741 32.5266 8.87882L33.7932 8.91824V11.1496L32.5266 11.189C32.3581 11.1936 32.1958 11.2532 32.0643 11.3586C31.9328 11.4641 31.8395 11.6096 31.7984 11.7731C31.6341 12.4187 31.378 13.0374 31.038 13.6102C30.8596 13.9111 30.9 14.2835 31.1397 14.5387L32.0069 15.4619L30.4291 17.0398L29.5058 16.1725C29.2506 15.9329 28.8782 15.8925 28.5784 16.0709C28.0055 16.4109 27.3868 16.667 26.7412 16.8313C26.403 16.9174 26.1686 17.2099 26.1572 17.5595L26.1178 18.8261H23.8864L23.847 17.5595C23.8366 17.2099 23.6011 16.9174 23.2629 16.8313C22.6169 16.6668 21.9978 16.4104 21.4247 16.0698C21.2801 15.9829 21.1109 15.9458 20.9432 15.9644C20.7754 15.9829 20.6184 16.0561 20.4963 16.1725L19.5751 17.0398L17.9983 15.463L18.8655 14.5418C19.1052 14.2866 19.1467 13.9142 18.9682 13.6134C18.6268 13.0396 18.3704 12.4194 18.2068 11.772C18.1207 11.4328 17.8271 11.1984 17.4775 11.188L16.212 11.1496V8.91928H16.2088ZM9.1838 10.6569H14.964V11.604C14.9631 11.8061 15.0415 12.0006 15.1823 12.1456C15.323 12.2907 15.5151 12.3748 15.7171 12.3799L17.0916 12.4214C17.2504 12.9474 17.4599 13.4546 17.7192 13.9381L16.7763 14.9391C16.6371 15.0857 16.5609 15.2809 16.564 15.483C16.5671 15.685 16.6493 15.8778 16.7929 16.02L19.0128 18.24C19.155 18.3836 19.3479 18.4658 19.5499 18.4689C19.752 18.472 19.9472 18.3958 20.0938 18.2566L21.0948 17.3136C21.5772 17.573 22.0845 17.7825 22.6104 17.9412L22.653 19.3168C22.6581 19.5188 22.7423 19.7107 22.8874 19.8513C23.0325 19.9919 23.2269 20.07 23.4289 20.0689H26.569C26.7709 20.0695 26.965 19.9912 27.11 19.8507C27.255 19.7102 27.3393 19.5186 27.345 19.3168L27.3875 17.9402C27.9124 17.7825 28.4186 17.5719 28.9021 17.3136L29.9052 18.2566C30.2122 18.546 30.6863 18.5388 30.9861 18.24L33.2061 16.02C33.3497 15.8778 33.4319 15.685 33.435 15.483C33.4381 15.2809 33.3619 15.0857 33.2227 14.9391L32.2797 13.936C32.5391 13.4536 32.7486 12.9463 32.9063 12.4214L34.2829 12.3789C34.4847 12.3734 34.6764 12.2891 34.817 12.1441C34.9575 11.9991 35.0357 11.8049 35.035 11.6029V10.6558H40.8152C41.0195 11.5615 41.6534 12.3063 42.4905 12.6631L42.7436 18.9807C42.5354 19.4493 42.4279 19.9565 42.4283 20.4693C42.4283 20.988 42.5362 21.4818 42.7312 21.9299L37.3472 30.0649H35.8234C35.48 30.0649 35.2009 30.344 35.2009 30.6874V32.7102H14.797V30.6874C14.797 30.344 14.5179 30.0649 14.1746 30.0649H12.6507L7.26675 21.9299C7.46074 21.4818 7.56966 20.988 7.56966 20.4693C7.56966 19.9392 7.45659 19.4361 7.2543 18.9807L7.50742 12.6631C8.34561 12.3073 8.97944 11.5625 9.1838 10.6569ZM6.25324 12.8882L6.06859 17.5045C5.43721 17.0374 4.67238 16.7858 3.88701 16.7867C3.49385 16.7867 3.11417 16.8489 2.75836 16.964L4.23868 11.9183C4.73558 12.4826 5.4524 12.8509 6.25324 12.8882ZM6.3881 8.40371C7.28231 8.40371 8.0095 9.1309 8.0095 10.0251C8.0095 10.9193 7.28231 11.6465 6.3881 11.6465C5.49389 11.6465 4.7667 10.9193 4.7667 10.0251C4.7667 9.1309 5.49389 8.40371 6.3881 8.40371ZM3.88701 18.0315C5.23144 18.0315 6.32586 19.1259 6.32586 20.4703C6.32586 21.8148 5.23144 22.9092 3.88701 22.9092C2.54155 22.9092 1.44816 21.8148 1.44816 20.4703C1.44816 19.1259 2.54155 18.0315 3.88701 18.0315ZM3.28638 24.1053C3.4814 24.1374 3.68161 24.1551 3.88597 24.1551C4.914 24.1551 5.84452 23.7308 6.51362 23.0492L11.1579 30.067H6.08726L3.28638 24.1053ZM4.67022 31.3108H13.5521V32.7113H4.67022V31.3108ZM48.7552 47.2468C48.7552 48.0788 48.0788 48.7552 47.2468 48.7552H2.75213C1.92016 48.7552 1.2438 48.0788 1.2438 47.2468V35.4644C1.2438 34.6325 1.92016 33.9561 2.75213 33.9561H47.2468C48.0788 33.9561 48.7552 34.6325 48.7552 35.4644V47.2468ZM24.9995 14.8426C26.2319 14.8426 27.4632 14.3737 28.401 13.436C30.2766 11.5604 30.2766 8.50848 28.401 6.63293C27.4923 5.72419 26.2848 5.22418 24.9995 5.22418C23.7142 5.22418 22.5067 5.72419 21.598 6.63293C20.6892 7.54166 20.1892 8.74915 20.1892 10.0344C20.1892 11.3197 20.6892 12.5272 21.598 13.436C22.5357 14.3737 23.7671 14.8426 24.9995 14.8426ZM22.4776 7.51261C23.1509 6.83936 24.0461 6.46799 24.9995 6.46799C25.9528 6.46799 26.847 6.83936 27.5213 7.51261C28.9114 8.90268 28.9114 11.1652 27.5213 12.5552C26.1312 13.9453 23.8688 13.9453 22.4787 12.5552C21.8054 11.882 21.4341 10.9868 21.4341 10.0334C21.4341 9.08215 21.8044 8.1869 22.4776 7.51261ZM32.0027 37.2715C30.483 37.2715 29.2465 38.5081 29.2465 40.0278V44.8173C29.2465 45.1607 29.5255 45.4397 29.8689 45.4397C30.2122 45.4397 30.4913 45.1607 30.4913 44.8173V43.0455H33.5131V44.8173C33.5131 45.1607 33.7922 45.4397 34.1356 45.4397C34.4789 45.4397 34.758 45.1607 34.758 44.8173V40.0278C34.758 38.5081 33.5225 37.2715 32.0027 37.2715ZM30.4913 41.7996V40.0278C30.4913 39.1948 31.1687 38.5164 32.0027 38.5164C32.8368 38.5164 33.5142 39.1938 33.5142 40.0278V41.7996H30.4913ZM20.8158 39.6253C20.8158 38.3276 19.7597 37.2726 18.463 37.2726H15.8634C15.52 37.2726 15.241 37.5516 15.241 37.895V44.8173C15.241 45.1607 15.52 45.4397 15.8634 45.4397C16.2068 45.4397 16.4858 45.1607 16.4858 44.8173V41.9781H18.2369L19.5709 43.0922V44.8173C19.5709 45.1607 19.85 45.4397 20.1934 45.4397C20.5367 45.4397 20.8158 45.1607 20.8158 44.8173V42.8007C20.8158 42.616 20.7338 42.4407 20.5928 42.3225L19.7328 41.6046C20.3832 41.1855 20.8158 40.4552 20.8158 39.6253ZM16.4858 38.5164H18.463C19.074 38.5164 19.5709 39.0133 19.5709 39.6243C19.5709 40.2353 19.074 40.7322 18.463 40.7322H16.4858V38.5164ZM25.7827 37.2715H23.1831C22.8397 37.2715 22.5606 37.5506 22.5606 37.8939V44.8163C22.5606 45.1597 22.8397 45.4387 23.1831 45.4387C23.5264 45.4387 23.8055 45.1597 23.8055 44.8163V41.977H25.7827C27.0804 41.977 28.1354 40.921 28.1354 39.6243C28.1354 38.3276 27.0804 37.2715 25.7827 37.2715ZM25.7827 40.7332H23.8055V38.5164H25.7827C26.3937 38.5164 26.8906 39.0133 26.8906 39.6243C26.8906 40.2353 26.3937 40.7332 25.7827 40.7332ZM9.6029 41.3556C9.6029 41.699 9.32385 41.9781 8.98048 41.9781H8.1288C7.78543 41.9781 7.50638 41.699 7.50638 41.3556C7.50638 41.0123 7.78543 40.7332 8.1288 40.7332H8.98048C9.32385 40.7332 9.6029 41.0123 9.6029 41.3556ZM13.1932 41.3556C13.1932 41.699 12.9142 41.9781 12.5708 41.9781H11.7191C11.3758 41.9781 11.0967 41.699 11.0967 41.3556C11.0967 41.0123 11.3758 40.7332 11.7191 40.7332H12.5708C12.9152 40.7332 13.1932 41.0123 13.1932 41.3556ZM6.01154 41.3556C6.01154 41.699 5.73248 41.9781 5.38912 41.9781H4.53744C4.19407 41.9781 3.91502 41.699 3.91502 41.3556C3.91502 41.0123 4.19407 40.7332 4.53744 40.7332H5.38912C5.73352 40.7332 6.01154 41.0123 6.01154 41.3556ZM42.4926 41.3556C42.4926 41.699 42.2135 41.9781 41.8702 41.9781H41.0185C40.6751 41.9781 40.3961 41.699 40.3961 41.3556C40.3961 41.0123 40.6751 40.7332 41.0185 40.7332H41.8702C42.2146 40.7332 42.4926 41.0123 42.4926 41.3556ZM38.9023 41.3556C38.9023 41.699 38.6232 41.9781 38.2798 41.9781H37.4282C37.0848 41.9781 36.8057 41.699 36.8057 41.3556C36.8057 41.0123 37.0848 40.7332 37.4282 40.7332H38.2798C38.6232 40.7332 38.9023 41.0123 38.9023 41.3556ZM46.0839 41.3556C46.0839 41.699 45.8049 41.9781 45.4615 41.9781H44.6098C44.2665 41.9781 43.9874 41.699 43.9874 41.3556C43.9874 41.0123 44.2665 40.7332 44.6098 40.7332H45.4615C45.8049 40.7332 46.0839 41.0123 46.0839 41.3556Z" fill="#2166F3"/>
</svg>
