<svg width="16" height="16" viewBox="0 0 16 16" fill="none" xmlns="http://www.w3.org/2000/svg">
<path d="M12.956 0.648076C10.8614 2.24008 8.09251 5.16008 5.96623 8.01608C5.54574 8.58408 5.18871 9.04008 5.16491 9.04008C5.14111 9.04008 4.34772 8.44808 3.41152 7.72008C2.47532 7.00008 1.6502 6.40008 1.58673 6.40008C1.42805 6.40008 0.325242 7.58408 0.269705 7.81608C0.230036 7.96008 0.499788 8.43208 1.48359 9.93608C2.92756 12.1521 3.81615 13.5761 4.53814 14.8401C5.08557 15.7921 5.26805 15.9281 5.514 15.5841C5.58541 15.4801 5.96623 14.8081 6.36293 14.0801C9.17946 8.92008 12.472 4.12008 15.1299 1.28008C15.9471 0.400076 15.8439 0.240075 14.4714 0.240075H13.4955L12.956 0.648076Z" fill="#252525"/>
</svg>
