<svg width="54" height="54" viewBox="0 0 54 54" fill="none" xmlns="http://www.w3.org/2000/svg">
<path d="M27.8438 6.75H22.7812C22.5575 6.75 22.3429 6.66111 22.1846 6.50287C22.0264 6.34464 21.9375 6.13003 21.9375 5.90625C21.9375 5.68247 22.0264 5.46786 22.1846 5.30963C22.3429 5.1514 22.5575 5.0625 22.7812 5.0625H27.8438C28.0675 5.0625 28.2821 5.1514 28.4404 5.30963C28.5986 5.46786 28.6875 5.68247 28.6875 5.90625C28.6875 6.13003 28.5986 6.34464 28.4404 6.50287C28.2821 6.66111 28.0675 6.75 27.8438 6.75ZM34.5938 52.3125H16.0312C14.9128 52.3112 13.8405 51.8663 13.0496 51.0754C12.2587 50.2845 11.8138 49.2122 11.8125 48.0938V36.2812C11.8125 36.0575 11.9014 35.8429 12.0596 35.6846C12.2179 35.5264 12.4325 35.4375 12.6562 35.4375C12.88 35.4375 13.0946 35.5264 13.2529 35.6846C13.4111 35.8429 13.5 36.0575 13.5 36.2812V48.0938C13.5 49.4893 14.6357 50.625 16.0312 50.625H34.5938C35.9893 50.625 37.125 49.4893 37.125 48.0938V19.4062C37.125 19.1825 37.2139 18.9679 37.3721 18.8096C37.5304 18.6514 37.745 18.5625 37.9688 18.5625C38.1925 18.5625 38.4071 18.6514 38.5654 18.8096C38.7236 18.9679 38.8125 19.1825 38.8125 19.4062V48.0938C38.8125 50.4191 36.9208 52.3125 34.5938 52.3125Z" fill="#2166F3"/>
<path d="M37.9687 8.4375C37.7449 8.4375 37.5303 8.34861 37.3721 8.19037C37.2139 8.03214 37.125 7.81753 37.125 7.59375V5.90625C37.125 4.51069 35.9893 3.375 34.5937 3.375H16.0312C14.6357 3.375 13.5 4.51069 13.5 5.90625V7.59375C13.5 7.81753 13.4111 8.03214 13.2528 8.19037C13.0946 8.34861 12.88 8.4375 12.6562 8.4375C12.4324 8.4375 12.2178 8.34861 12.0596 8.19037C11.9014 8.03214 11.8125 7.81753 11.8125 7.59375V5.90625C11.8125 3.58087 13.7042 1.6875 16.0312 1.6875H34.5937C36.9208 1.6875 38.8125 3.58087 38.8125 5.90625V7.59375C38.8125 7.81753 38.7236 8.03214 38.5653 8.19037C38.4071 8.34861 38.1925 8.4375 37.9687 8.4375ZM24.4687 42.1875H17.7187C17.4949 42.1875 17.2803 42.0986 17.1221 41.9404C16.9639 41.7821 16.875 41.5675 16.875 41.3438C16.875 41.12 16.9639 40.9054 17.1221 40.7471C17.2803 40.5889 17.4949 40.5 17.7187 40.5H24.4687C24.6925 40.5 24.9071 40.5889 25.0653 40.7471C25.2236 40.9054 25.3125 41.12 25.3125 41.3438C25.3125 41.5675 25.2236 41.7821 25.0653 41.9404C24.9071 42.0986 24.6925 42.1875 24.4687 42.1875ZM29.5312 45.5625H17.7187C17.4949 45.5625 17.2803 45.4736 17.1221 45.3154C16.9639 45.1571 16.875 44.9425 16.875 44.7188C16.875 44.495 16.9639 44.2804 17.1221 44.1221C17.2803 43.9639 17.4949 43.875 17.7187 43.875H29.5312C29.755 43.875 29.9696 43.9639 30.1278 44.1221C30.2861 44.2804 30.375 44.495 30.375 44.7188C30.375 44.9425 30.2861 45.1571 30.1278 45.3154C29.9696 45.4736 29.755 45.5625 29.5312 45.5625ZM32.9062 38.8125H17.7187C17.4949 38.8125 17.2803 38.7236 17.1221 38.5654C16.9639 38.4071 16.875 38.1925 16.875 37.9688C16.875 37.745 16.9639 37.5304 17.1221 37.3721C17.2803 37.2139 17.4949 37.125 17.7187 37.125H32.9062C33.13 37.125 33.3446 37.2139 33.5028 37.3721C33.6611 37.5304 33.75 37.745 33.75 37.9688C33.75 38.1925 33.6611 38.4071 33.5028 38.5654C33.3446 38.7236 33.13 38.8125 32.9062 38.8125ZM15.1875 23.625C12.8604 23.625 10.9687 21.7316 10.9687 19.4062C10.9687 17.0809 12.8604 15.1875 15.1875 15.1875C17.5145 15.1875 19.4062 17.0809 19.4062 19.4062C19.4062 21.7316 17.5145 23.625 15.1875 23.625ZM15.1875 16.875C13.7919 16.875 12.6562 18.0107 12.6562 19.4062C12.6562 20.8018 13.7919 21.9375 15.1875 21.9375C16.583 21.9375 17.7187 20.8018 17.7187 19.4062C17.7187 18.0107 16.583 16.875 15.1875 16.875ZM15.1875 33.75C12.2212 33.7469 9.36537 32.6248 7.19041 30.6079C7.07961 30.5054 6.99831 30.3752 6.95497 30.2306C6.91164 30.0861 6.90786 29.9326 6.94403 29.7861C7.25663 28.5079 7.98981 27.3719 9.02577 26.5605C10.0617 25.7492 11.3404 25.3096 12.6562 25.3125H17.7187C19.0344 25.3101 20.3128 25.7495 21.3489 26.5604C22.385 27.3713 23.1188 28.5066 23.4326 29.7844C23.4688 29.9309 23.465 30.0844 23.4217 30.2289C23.3783 30.3735 23.297 30.5037 23.1862 30.6062C21.0111 32.6242 18.1545 33.7469 15.1875 33.75ZM8.72941 29.7118C12.3778 32.751 17.9972 32.751 21.6455 29.7118C21.3453 28.9135 20.8083 28.226 20.1065 27.7413C19.4047 27.2567 18.5716 26.998 17.7187 27H12.6562C11.8033 26.998 10.9702 27.2567 10.2684 27.7413C9.56661 28.226 9.02964 28.9135 8.72941 29.7118Z" fill="#2166F3"/>
<path d="M15.1875 33.75C8.67544 33.75 3.375 28.4513 3.375 21.9375C3.375 15.4238 8.67544 10.125 15.1875 10.125C21.6996 10.125 27 15.4238 27 21.9375C27 28.4513 21.6996 33.75 15.1875 33.75ZM15.1875 11.8125C9.60356 11.8125 5.0625 16.3536 5.0625 21.9375C5.0625 27.5214 9.60356 32.0625 15.1875 32.0625C20.7714 32.0625 25.3125 27.5214 25.3125 21.9375C25.3125 16.3536 20.7714 11.8125 15.1875 11.8125ZM7.59375 38.7281C7.128 38.7281 6.75 38.4345 6.75 37.9688V37.8C6.75 37.5762 6.8389 37.3616 6.99713 37.2034C7.15536 37.0451 7.36997 36.9562 7.59375 36.9562C7.81753 36.9562 8.03214 37.0451 8.19037 37.2034C8.34861 37.3616 8.4375 37.5762 8.4375 37.8C8.4375 38.2657 8.0595 38.7281 7.59375 38.7281ZM7.59375 42.1031C7.128 42.1031 6.75 41.8095 6.75 41.3438V41.175C6.75 40.9512 6.8389 40.7366 6.99713 40.5784C7.15536 40.4201 7.36997 40.3312 7.59375 40.3312C7.81753 40.3312 8.03214 40.4201 8.19037 40.5784C8.34861 40.7366 8.4375 40.9512 8.4375 41.175C8.4375 41.6407 8.0595 42.1031 7.59375 42.1031ZM7.59375 45.4781C7.128 45.4781 6.75 45.1845 6.75 44.7188V44.55C6.75 44.3262 6.8389 44.1116 6.99713 43.9534C7.15536 43.7951 7.36997 43.7062 7.59375 43.7062C7.81753 43.7062 8.03214 43.7951 8.19037 43.9534C8.34861 44.1116 8.4375 44.3262 8.4375 44.55C8.4375 45.0158 8.0595 45.4781 7.59375 45.4781ZM41.0737 45.5625H39.6562C39.4325 45.5625 39.2179 45.4736 39.0596 45.3154C38.9014 45.1571 38.8125 44.9425 38.8125 44.7188C38.8125 44.495 38.9014 44.2804 39.0596 44.1221C39.2179 43.9639 39.4325 43.875 39.6562 43.875H40.3937L40.8071 41.9597C40.8403 41.8046 40.9168 41.6621 41.0275 41.5486C41.1383 41.4352 41.279 41.3554 41.4332 41.3184C42.2474 41.1188 43.0257 40.7937 43.74 40.3549C43.8747 40.2727 44.0298 40.2299 44.1875 40.2314C44.3453 40.2329 44.4996 40.2786 44.6327 40.3633L46.3033 41.4315L47.3377 40.3886L46.2696 38.7315C46.1838 38.5983 46.1373 38.4436 46.1352 38.2852C46.1331 38.1267 46.1756 37.9709 46.2578 37.8354C46.6968 37.1214 47.0213 36.343 47.2196 35.5286C47.2567 35.3749 47.3362 35.2346 47.4489 35.1236C47.5616 35.0127 47.7032 34.9355 47.8575 34.9009L49.7796 34.4739V33.0278L47.8575 32.6008C47.7032 32.5662 47.5616 32.489 47.4489 32.378C47.3362 32.2671 47.2567 32.1268 47.2196 31.9731C47.0206 31.1589 46.6961 30.3806 46.2578 29.6663C46.1749 29.5314 46.1318 29.3759 46.1336 29.2176C46.1354 29.0593 46.182 28.9048 46.2679 28.7719L47.3377 27.0996L46.305 26.0668L44.6327 27.1367C44.4997 27.2218 44.3454 27.2678 44.1876 27.2692C44.0297 27.2707 43.8746 27.2277 43.74 27.1451C43.0254 26.7069 42.2472 26.3818 41.4332 26.1816C41.279 26.1446 41.1383 26.0648 41.0275 25.9514C40.9168 25.8379 40.8403 25.6954 40.8071 25.5403L40.3937 23.625H39.6562C39.4325 23.625 39.2179 23.5361 39.0596 23.3779C38.9014 23.2196 38.8125 23.005 38.8125 22.7812C38.8125 22.5575 38.9014 22.3429 39.0596 22.1846C39.2179 22.0264 39.4325 21.9375 39.6562 21.9375H41.0737C41.2665 21.9378 41.4533 22.0041 41.6032 22.1254C41.753 22.2467 41.8568 22.4156 41.8972 22.6041L42.3478 24.6848C42.9654 24.8721 43.5713 25.1252 44.1551 25.4408L45.9675 24.2814C46.1296 24.1779 46.3222 24.1328 46.5134 24.1537C46.7046 24.1745 46.8829 24.2601 47.0188 24.3962L49.0117 26.3874C49.1476 26.5236 49.2328 26.702 49.2534 26.8932C49.274 27.0844 49.2286 27.2769 49.1248 27.4388L47.9655 29.2511C48.2811 29.8367 48.5342 30.4425 48.7215 31.0618L50.8056 31.5242C50.9931 31.5657 51.1608 31.6699 51.2811 31.8196C51.4014 31.9693 51.467 32.1556 51.4671 32.3477V35.1489C51.467 35.341 51.4014 35.5273 51.2811 35.677C51.1608 35.8267 50.9931 35.931 50.8056 35.9724L48.7215 36.4348C48.531 37.0617 48.2778 37.6678 47.9655 38.2438L49.1231 40.0393C49.2279 40.2006 49.2742 40.393 49.2543 40.5844C49.2343 40.7757 49.1493 40.9544 49.0134 41.0906L47.0205 43.0988C46.8847 43.2355 46.7061 43.3217 46.5145 43.3428C46.323 43.364 46.1299 43.319 45.9675 43.2152L44.1551 42.0559C43.5794 42.3675 42.974 42.6208 42.3478 42.8119L41.8972 44.8926C41.8574 45.0816 41.754 45.2513 41.6041 45.3733C41.4542 45.4952 41.267 45.562 41.0737 45.5625Z" fill="#2166F3"/>
<path d="M41.4332 38.421C41.2413 38.4208 41.0552 38.3551 40.9056 38.2349C40.7561 38.1146 40.6519 37.947 40.6105 37.7596C40.569 37.5723 40.5926 37.3764 40.6774 37.2042C40.7623 37.0321 40.9033 36.894 41.0771 36.8128C41.6598 36.5401 42.1528 36.1074 42.4988 35.5651C42.8448 35.0228 43.0295 34.3933 43.0312 33.75C43.0304 33.1935 42.8922 32.6458 42.6287 32.1555C42.3652 31.6653 41.9847 31.2478 41.521 30.94C41.0573 30.6323 40.5248 30.4439 39.9707 30.3915C39.4166 30.3392 38.8582 30.4245 38.3451 30.6399C38.2423 30.6883 38.1309 30.7154 38.0174 30.7196C37.9039 30.7238 37.7907 30.7051 37.6847 30.6646C37.5786 30.624 37.4818 30.5625 37.4001 30.4837C37.3184 30.4048 37.2534 30.3103 37.2091 30.2057C37.1648 30.1012 37.142 29.9888 37.1422 29.8752C37.1423 29.7617 37.1654 29.6493 37.21 29.5449C37.2546 29.4405 37.3199 29.3461 37.4018 29.2675C37.4838 29.1889 37.5808 29.1277 37.6869 29.0874C38.4566 28.7643 39.2942 28.6361 40.1252 28.7145C40.9563 28.7928 41.7552 29.0752 42.4509 29.5365C43.1466 29.9978 43.7176 30.6238 44.1133 31.3588C44.5089 32.0939 44.7169 32.9152 44.7188 33.75C44.7166 34.7145 44.44 35.6584 43.9212 36.4715C43.4025 37.2846 42.663 37.9333 41.7892 38.3417C41.6778 38.3939 41.5562 38.421 41.4332 38.421ZM43.875 16.875H33.75C31.8887 16.875 30.375 15.3613 30.375 13.5C30.375 11.6387 31.8887 10.125 33.75 10.125H43.875C45.7363 10.125 47.25 11.6387 47.25 13.5C47.25 15.3613 45.7363 16.875 43.875 16.875ZM33.75 11.8125C33.3155 11.8319 32.9052 12.0182 32.6047 12.3326C32.3041 12.6469 32.1363 13.0651 32.1363 13.5C32.1363 13.9349 32.3041 14.3531 32.6047 14.6674C32.9052 14.9818 33.3155 15.1681 33.75 15.1875H43.875C44.3095 15.1681 44.7198 14.9818 45.0203 14.6674C45.3209 14.3531 45.4887 13.9349 45.4887 13.5C45.4887 13.0651 45.3209 12.6469 45.0203 12.3326C44.7198 12.0182 44.3095 11.8319 43.875 11.8125H33.75Z" fill="#2166F3"/>
</svg>
