<svg width="58" height="58" viewBox="0 0 58 58" fill="none" xmlns="http://www.w3.org/2000/svg">
<g clip-path="url(#clip0_472_610)">
<path d="M54.375 48.0305H53.4688V19.9368C53.4688 18.4379 52.2489 17.218 50.75 17.218H46.2015L48.0095 9.26298C48.0573 9.05254 48.0284 8.83195 47.9281 8.64091C47.8277 8.44986 47.6625 8.30089 47.4621 8.22079L29.3371 0.970787C29.1212 0.884738 28.8806 0.884738 28.6647 0.970787L10.5397 8.22079C10.3393 8.30089 10.1741 8.44986 10.0737 8.64091C9.9734 8.83195 9.94453 9.05254 9.99231 9.26298L11.7985 17.218H7.25C5.75106 17.218 4.53125 18.4379 4.53125 19.9368V48.0305H3.625C2.12606 48.0305 0.90625 49.2504 0.90625 50.7493V52.5618C0.90625 55.0603 2.93897 57.093 5.4375 57.093H52.5625C55.061 57.093 57.0938 55.0603 57.0938 52.5618V50.7493C57.0938 49.2504 55.8739 48.0305 54.375 48.0305ZM50.75 19.0305C51.2502 19.0305 51.6562 19.4374 51.6562 19.9368V48.0305H49.8438V21.7493C49.8438 21.5089 49.7483 21.2784 49.5783 21.1085C49.4084 20.9385 49.1779 20.843 48.9375 20.843H45.3768L45.7892 19.0305H50.75ZM9.96875 48.0305V22.6555H13.0346L14.5218 29.2005C14.568 29.4008 14.6794 29.5793 14.8398 29.7071L28.4336 40.5821C28.5943 40.7108 28.7941 40.7809 29 40.7809C29.2059 40.7809 29.4057 40.7108 29.5664 40.5821L43.1602 29.7071C43.3206 29.5793 43.432 29.4008 43.4783 29.2005L44.9654 22.6555H48.0312V48.0305H9.96875ZM34.4375 49.843L33.0781 51.6555H24.9219L23.5625 49.843H34.4375ZM29 2.78782L46.0701 9.61551L41.7808 28.4891L29 38.7134L16.2192 28.49L11.9299 9.61641L29 2.78782ZM6.34375 19.9368C6.34375 19.4374 6.74975 19.0305 7.25 19.0305H12.2108L12.6232 20.843H9.0625C8.82215 20.843 8.59164 20.9385 8.42168 21.1085C8.25173 21.2784 8.15625 21.5089 8.15625 21.7493V48.0305H6.34375V19.9368ZM55.2812 52.5618C55.2812 54.0607 54.0614 55.2805 52.5625 55.2805H5.4375C3.93856 55.2805 2.71875 54.0607 2.71875 52.5618V50.7493C2.71875 50.2499 3.12475 49.843 3.625 49.843H21.2969L23.7438 53.1055C23.9141 53.3339 24.1833 53.468 24.4688 53.468H33.5312C33.6719 53.468 33.8107 53.4353 33.9365 53.3724C34.0624 53.3094 34.1718 53.2181 34.2562 53.1055L36.7031 49.843H54.375C54.8752 49.843 55.2812 50.2499 55.2812 50.7493V52.5618Z" fill="#2166F3" stroke="#2166F3" stroke-width="0.25"/>
<path d="M25.375 27.1875H32.625C33.6246 27.1875 34.4375 26.3746 34.4375 25.375V18.125C34.4375 17.1254 33.6246 16.3125 32.625 16.3125V14.5C32.625 12.5008 30.9992 10.875 29 10.875C27.0008 10.875 25.375 12.5008 25.375 14.5V16.3125C24.3754 16.3125 23.5625 17.1254 23.5625 18.125V25.375C23.5625 26.3746 24.3754 27.1875 25.375 27.1875ZM27.1875 14.5C27.1875 13.5004 28.0004 12.6875 29 12.6875C29.9996 12.6875 30.8125 13.5004 30.8125 14.5V16.3125H27.1875V14.5ZM25.375 18.125H32.625L32.6259 25.375H25.375V18.125Z" fill="#2166F3" stroke="#2166F3" stroke-width="0.25"/>
<path d="M29.9062 21.0957V19.9375H28.0938V21.0957C27.5545 21.4102 27.1875 21.9883 27.1875 22.6562C27.1875 23.6558 28.0004 24.4688 29 24.4688C29.9996 24.4688 30.8125 23.6558 30.8125 22.6562C30.8125 21.9883 30.4455 21.4102 29.9062 21.0957ZM13.5938 44.4062H44.4062V46.2188H13.5938V44.4062Z" fill="#2166F3" stroke="#2166F3" stroke-width="0.25"/>
<path d="M18.1123 28.1565L28.4336 36.4133C28.5943 36.542 28.7941 36.6121 29 36.6121C29.2059 36.6121 29.4057 36.542 29.5664 36.4133L39.8877 28.1565C40.0481 28.0287 40.1596 27.8502 40.2058 27.6499L43.9314 11.2567C43.979 11.0463 43.95 10.8258 43.8497 10.6348C43.7494 10.4438 43.5843 10.2948 43.384 10.2145L29.3371 4.59579C29.1212 4.50974 28.8806 4.50974 28.6647 4.59579L14.6178 10.2145C14.4174 10.2946 14.2522 10.4436 14.1519 10.6347C14.0515 10.8257 14.0227 11.0463 14.0704 11.2567L17.796 27.6499C17.8413 27.8493 17.9528 28.0287 18.1123 28.1565ZM29 6.41282L41.992 11.6093L38.5075 26.9385L29 34.5446L19.4925 26.9385L16.008 11.6093L29 6.41282ZM13.5938 40.7805H24.4688V42.593H13.5938V40.7805ZM33.5312 40.7805H44.4062V42.593H33.5312V40.7805ZM38.9688 37.1555H44.4062V38.968H38.9688V37.1555ZM13.5938 37.1555H19.0312V38.968H13.5938V37.1555ZM13.5938 33.5305H15.4062V35.343H13.5938V33.5305ZM42.5938 33.5305H44.4062V35.343H42.5938V33.5305Z" fill="#2166F3" stroke="#2166F3" stroke-width="0.25"/>
</g>
<defs>
<clipPath id="clip0_472_610">
<rect width="58" height="58" fill="white"/>
</clipPath>
</defs>
</svg>
