<svg width="48" height="48" viewBox="0 0 48 48" fill="none" xmlns="http://www.w3.org/2000/svg">
<path d="M21.7031 0.103105C11.5781 1.14373 3.16874 8.41873 0.721869 18.2344C0.178119 20.4094 0.0562439 21.5062 0.0562439 24C0.0562439 25.6594 0.0937439 26.4844 0.224994 27.3281C1.58437 36.2344 7.47187 43.4531 15.9844 46.6125C17.1 47.025 19.3875 47.5875 20.7656 47.7844C22.4531 48.0187 25.5562 48.0187 27.2344 47.775C36.9469 46.3969 44.9062 39.2437 47.2781 29.7656C47.7937 27.7125 47.9531 26.3344 47.9531 24C47.9531 21.6656 47.7937 20.2875 47.2781 18.2344C45.1312 9.63748 38.3062 2.83123 29.7187 0.71248C28.9687 0.534355 27.9187 0.309355 27.375 0.234355C26.1937 0.0562298 22.8844 -0.0187702 21.7031 0.103105ZM25.7906 5.81248C30.1875 6.26248 34.2656 8.26873 37.275 11.4656C43.4344 18.0094 43.95 27.8812 38.5125 35.0906C37.7625 36.0937 35.9719 37.8656 34.9687 38.6156C27.6281 44.0719 17.55 43.35 11.1 36.9C8.39999 34.2 6.67499 30.9 5.98124 27.0937C5.69999 25.5469 5.69999 22.4531 5.98124 20.9062C6.50624 18.0187 7.68749 15.3 9.42187 12.9844C10.1531 12.0094 11.9344 10.2187 12.9094 9.48748C16.65 6.66561 21.2344 5.3531 25.7906 5.81248Z" fill="url(#paint0_linear_1_218)"/>
<path d="M22.2844 8.6343C17.0344 9.24367 12.4219 12.4968 10.1156 17.203C8.46561 20.5968 8.09998 24.478 9.09373 28.1155C11.0719 35.3249 18.1125 40.1437 25.5469 39.3749C32.4656 38.6718 37.9594 33.5437 39.2531 26.5968C39.45 25.5187 39.4781 22.6874 39.3 21.6562C38.4469 16.8187 35.7469 12.9187 31.5656 10.5187C28.8844 8.99055 25.3687 8.26867 22.2844 8.6343ZM25.4062 18.3749V22.5937H29.625H33.8437V23.9999V25.4062H28.2187H22.5937V19.7812V14.1562H24H25.4062V18.3749Z" fill="url(#paint1_linear_1_218)"/>
<defs>
<linearGradient id="paint0_linear_1_218" x1="0.0562433" y1="24.0012" x2="47.9531" y2="24.0012" gradientUnits="userSpaceOnUse">
<stop stop-color="#34D1F8"/>
<stop offset="1" stop-color="#2168F1"/>
</linearGradient>
<linearGradient id="paint1_linear_1_218" x1="8.54517" y1="23.998" x2="39.4186" y2="23.998" gradientUnits="userSpaceOnUse">
<stop stop-color="#34D1F8"/>
<stop offset="1" stop-color="#2168F1"/>
</linearGradient>
</defs>
</svg>
