<svg width="48" height="42" viewBox="0 0 48 42" fill="none" xmlns="http://www.w3.org/2000/svg">
<path d="M11.9813 6.49687C5.44688 10.0125 0.09375 12.9187 0.09375 12.9469C0.09375 13.0031 10.4156 18.5625 10.5188 18.5625C10.5563 18.5625 13.6125 16.9406 17.3063 14.9531C21 12.9656 24.0563 11.3437 24.0938 11.3437C24.1406 11.3437 24.3938 11.7562 24.6656 12.2531C24.9281 12.7594 25.2281 13.3031 25.3219 13.4625L25.4906 13.7437L19.5 16.9687C16.2 18.7406 13.5094 20.1937 13.5188 20.2031C13.6781 20.3344 23.9156 25.7812 24 25.7812C24.1406 25.7812 47.9063 13.0219 47.9063 12.9469C47.9063 12.8625 24.2063 0.140624 24.0188 0.121874C23.9344 0.112499 18.5156 2.98125 11.9813 6.49687Z" fill="url(#paint0_linear_1_222)"/>
<path d="M4.70625 25.125L4.73438 31.6031L5.9625 32.25L7.19063 32.9062L7.49063 32.4375C7.90313 31.8094 8.53125 31.275 9.34688 30.8719L10.0313 30.5344V26.025V21.5156L8.31563 20.5969C7.37813 20.1 6.17813 19.4531 5.64375 19.1719L4.6875 18.6469L4.70625 25.125Z" fill="url(#paint1_linear_1_222)"/>
<path d="M33.7031 23.8125C28.4438 26.6438 24.0844 28.9688 24.0094 28.9688C23.9438 28.9688 21.5813 27.7313 18.7594 26.2125C15.9469 24.7031 13.4625 23.3719 13.2375 23.2594L12.8438 23.0625V26.8125C12.8438 30.3094 12.8531 30.5719 13.0125 30.6188C14.1094 30.9844 15.2719 32.0156 15.7875 33.0844C16.3875 34.3313 16.4438 35.8594 15.9375 37.0031C15.8344 37.2469 15.7781 37.4719 15.8156 37.5094C15.9281 37.6219 23.9156 41.9062 24 41.9062C24.0469 41.9062 28.4063 39.5813 33.6938 36.7406L43.3125 31.575V25.1156C43.3125 21.5625 43.3031 18.6563 43.2938 18.6656C43.275 18.6656 38.9625 20.9813 33.7031 23.8125Z" fill="url(#paint2_linear_1_222)"/>
<path d="M10.6406 33.3563C9.34688 33.975 9.01875 35.5125 9.95625 36.525C11.0719 37.7344 12.9938 37.2656 13.4156 35.6906C13.6313 34.875 13.1719 33.8156 12.4313 33.4313C11.9063 33.1688 11.1094 33.1313 10.6406 33.3563Z" fill="url(#paint3_linear_1_222)"/>
<defs>
<linearGradient id="paint0_linear_1_222" x1="0.0937494" y1="12.9516" x2="47.9062" y2="12.9516" gradientUnits="userSpaceOnUse">
<stop stop-color="#34D1F8"/>
<stop offset="1" stop-color="#2168F1"/>
</linearGradient>
<linearGradient id="paint1_linear_1_222" x1="4.6875" y1="25.7766" x2="10.0312" y2="25.7766" gradientUnits="userSpaceOnUse">
<stop stop-color="#34D1F8"/>
<stop offset="1" stop-color="#2168F1"/>
</linearGradient>
<linearGradient id="paint2_linear_1_222" x1="12.8437" y1="30.2859" x2="43.3125" y2="30.2859" gradientUnits="userSpaceOnUse">
<stop stop-color="#34D1F8"/>
<stop offset="1" stop-color="#2168F1"/>
</linearGradient>
<linearGradient id="paint3_linear_1_222" x1="9.41907" y1="35.2084" x2="13.469" y2="35.2084" gradientUnits="userSpaceOnUse">
<stop stop-color="#34D1F8"/>
<stop offset="1" stop-color="#2168F1"/>
</linearGradient>
</defs>
</svg>
