<svg width="63" height="63" viewBox="0 0 63 63" fill="none" xmlns="http://www.w3.org/2000/svg">
<path d="M8.95583 37.4475C11.1614 40.5372 12.8388 43.9716 13.9197 47.6107C15.198 52.2468 15.7811 57.0469 15.6499 61.8542L17.5874 61.9743C17.7443 56.9512 17.1374 51.9333 15.7875 47.0924C14.6511 43.2473 12.8832 39.6179 10.5562 36.3528C7.6851 32.1343 6.46254 27.0086 7.12052 21.9483C7.77851 16.888 10.2712 12.2454 14.1257 8.9014C17.9802 5.55739 22.9281 3.74474 28.0306 3.80741C33.1331 3.87008 38.035 5.80372 41.8061 9.24138C43.8927 11.1346 45.5697 13.4349 46.734 16.0006C47.8982 18.5663 48.525 21.3431 48.5758 24.1601C48.5809 24.3678 48.6537 24.5682 48.7831 24.7307L54.6508 34.7893H49.5561C49.2992 34.7893 49.0528 34.8913 48.8711 35.073C48.6895 35.2547 48.5874 35.5011 48.5874 35.758V47.383C48.5874 47.8969 48.3833 48.3897 48.0199 48.753C47.6566 49.1164 47.1637 49.3205 46.6499 49.3205H35.9936V51.258H39.8686V61.9143H41.8061V51.258H46.6499C47.6776 51.258 48.6632 50.8497 49.3899 50.123C50.1166 49.3963 50.5249 48.4107 50.5249 47.383V36.7268H56.3374C56.5073 36.7264 56.6741 36.6814 56.8211 36.5962C56.9681 36.5111 57.0901 36.3887 57.1749 36.2415C57.2597 36.0943 57.3043 35.9274 57.3042 35.7575C57.3041 35.5876 57.2593 35.4208 57.1744 35.2736L50.5045 23.8424C50.2897 18.0184 47.8495 12.4986 43.6866 8.41995C39.5237 4.34134 33.9551 2.01458 28.1279 1.91896C22.3007 1.82335 16.6588 3.96616 12.3643 7.906C8.06978 11.8458 5.44979 17.2826 5.04401 23.0964C4.68902 28.1847 6.06787 33.2432 8.95583 37.4475Z" fill="#2166F3"/>
<path d="M36.9015 19.8763C36.9647 19.6454 36.9801 19.4041 36.9468 19.1671C36.9135 18.93 36.8321 18.7023 36.7077 18.4978L35.304 16.1728C35.0512 15.7652 34.6517 15.4701 34.1878 15.3483C33.7239 15.2264 33.2309 15.2871 32.8105 15.5179L32.3406 15.7853C31.7793 15.3757 31.1704 15.0358 30.5271 14.7729V14.3128C30.521 13.8285 30.3229 13.3664 29.9763 13.028C29.6298 12.6896 29.1631 12.5026 28.6787 12.508H25.8694C25.3862 12.5046 24.9214 12.6927 24.5765 13.0311C24.2315 13.3694 24.0346 13.8306 24.0287 14.3138V14.7749C23.3909 15.027 22.7943 15.3731 22.2588 15.8018L21.7454 15.5189C21.325 15.2888 20.8325 15.2284 20.369 15.35C19.9055 15.4716 19.5061 15.766 19.2528 16.1728L17.8472 18.4978C17.7232 18.7023 17.6421 18.9298 17.6088 19.1667C17.5755 19.4035 17.5906 19.6446 17.6534 19.8753C17.7166 20.111 17.8271 20.3312 17.9781 20.5228C18.1292 20.7143 18.3177 20.8731 18.5321 20.9894L18.9632 21.2277C18.8802 21.8709 18.8802 22.5221 18.9632 23.1652L18.5321 23.4035C18.3177 23.5199 18.1292 23.6786 17.9781 23.8702C17.8271 24.0617 17.7166 24.282 17.6534 24.5176C17.5904 24.7485 17.5752 24.9898 17.6085 25.2268C17.6418 25.4638 17.723 25.6915 17.8472 25.8961L19.2509 28.2211C19.504 28.6284 19.9035 28.9232 20.3673 29.0449C20.8311 29.1667 21.3239 29.1063 21.7444 28.876L22.2143 28.6086C22.7756 29.0182 23.3845 29.3581 24.0278 29.621V30.0811C24.0347 30.5641 24.2324 31.0247 24.5779 31.3623C24.9233 31.7 25.3883 31.8871 25.8713 31.883H28.6807C29.1639 31.8864 29.6287 31.6983 29.9736 31.3599C30.3185 31.0216 30.5154 30.5604 30.5213 30.0773V29.6161C31.1592 29.364 31.7558 29.0179 32.2912 28.5893L32.8047 28.8721C33.225 29.1022 33.7175 29.1627 34.181 29.0411C34.6446 28.9194 35.044 28.625 35.2972 28.2182L36.7029 25.8932C36.8271 25.6888 36.9083 25.4612 36.9416 25.2244C36.975 24.9875 36.9596 24.7464 36.8967 24.5157C36.8339 24.28 36.7236 24.0597 36.5727 23.8681C36.4218 23.6766 36.2334 23.5178 36.019 23.4016L35.5927 23.1643C35.6757 22.5211 35.6757 21.8699 35.5927 21.2268L36.0238 20.9884C36.238 20.8724 36.4263 20.714 36.5772 20.5228C36.7281 20.3316 36.8385 20.1116 36.9015 19.8763ZM33.7172 22.1955C33.7172 22.4701 33.6971 22.7444 33.6572 23.016C33.6111 23.3743 33.6747 23.7382 33.8395 24.0596C34.0043 24.3811 34.2626 24.6451 34.5804 24.8169L34.9679 25.0281L33.6901 27.1439L33.2338 26.893C32.9157 26.722 32.5555 26.6451 32.1952 26.6711C31.835 26.6972 31.4896 26.8252 31.1994 27.0402C30.7592 27.3632 30.2801 27.6294 29.7734 27.8327C29.4302 27.962 29.134 28.1919 28.9235 28.4923C28.713 28.7927 28.598 29.1496 28.5935 29.5163V29.9455H25.9633V29.5163C25.9588 29.1497 25.8439 28.793 25.6336 28.4926C25.4233 28.1923 25.1273 27.9623 24.7844 27.8327C24.2774 27.629 23.798 27.3624 23.3574 27.0393C23.0674 26.8239 22.7221 26.6956 22.3618 26.6693C22.0015 26.6431 21.6412 26.72 21.323 26.891L20.8667 27.1419L19.588 25.0262L19.9755 24.815C20.2937 24.6434 20.5524 24.3793 20.7172 24.0576C20.8821 23.7358 20.9454 23.3716 20.8987 23.0131C20.8573 22.7425 20.8353 22.4693 20.8328 22.1955C20.8328 21.9209 20.8529 21.6467 20.8929 21.375C20.9389 21.0167 20.8753 20.6528 20.7105 20.3314C20.5458 20.0099 20.2875 19.7459 19.9697 19.5741L19.5822 19.3629L20.8609 17.2471L21.3172 17.498C21.6354 17.6688 21.9956 17.7456 22.3558 17.7195C22.7159 17.6935 23.0613 17.5656 23.3516 17.3508C23.7918 17.0278 24.2709 16.7616 24.7776 16.5583C25.1208 16.429 25.417 16.1991 25.6275 15.8987C25.838 15.5983 25.953 15.2414 25.9575 14.8747V14.4455H28.5809V14.8747C28.5854 15.2413 28.7004 15.598 28.9107 15.8984C29.121 16.1987 29.4169 16.4287 29.7599 16.5583C30.2689 16.7616 30.7503 17.0282 31.1927 17.3518C31.4827 17.5671 31.828 17.6955 32.1883 17.7217C32.5486 17.748 32.9089 17.671 33.227 17.5L33.6833 17.2491L34.9611 19.3648L34.5784 19.576C34.2602 19.7476 34.0016 20.0117 33.8367 20.3334C33.6719 20.6552 33.6086 21.0194 33.6552 21.3779C33.6953 21.6486 33.716 21.9218 33.7172 22.1955Z" fill="#2166F3"/>
<path d="M27.2749 17.8361C26.4127 17.8361 25.5699 18.0918 24.853 18.5708C24.1361 19.0498 23.5773 19.7307 23.2474 20.5273C22.9174 21.3238 22.8311 22.2003 22.9993 23.046C23.1675 23.8916 23.5827 24.6684 24.1924 25.2781C24.802 25.8877 25.5788 26.3029 26.4244 26.4711C27.2701 26.6393 28.1466 26.553 28.9432 26.223C29.7397 25.8931 30.4206 25.3343 30.8996 24.6175C31.3786 23.9006 31.6343 23.0577 31.6343 22.1955C31.633 21.0397 31.1733 19.9316 30.356 19.1144C29.5388 18.2971 28.4307 17.8374 27.2749 17.8361ZM27.2749 24.6174C26.7959 24.6174 26.3277 24.4753 25.9294 24.2092C25.5311 23.9431 25.2207 23.5649 25.0374 23.1223C24.8541 22.6798 24.8061 22.1928 24.8996 21.723C24.993 21.2532 25.2237 20.8217 25.5624 20.483C25.9011 20.1443 26.3326 19.9136 26.8024 19.8202C27.2722 19.7267 27.7592 19.7747 28.2017 19.958C28.6443 20.1413 29.0225 20.4517 29.2886 20.85C29.5547 21.2483 29.6968 21.7165 29.6968 22.1955C29.6968 22.8378 29.4416 23.4538 28.9874 23.908C28.5332 24.3622 27.9172 24.6174 27.2749 24.6174Z" fill="#2166F3"/>
<path d="M40.5789 23.1294C40.6632 23.1524 40.7502 23.1642 40.8375 23.1643C41.0047 23.1642 41.169 23.1209 41.3145 23.0386C41.46 22.9563 41.5817 22.8377 41.6678 22.6944L44.574 17.8507L42.9136 16.8529L41.4982 19.2108C40.8355 16.0454 39.1358 13.1915 36.6682 11.101C34.2006 9.01055 31.1062 7.80299 27.8749 7.66956C24.6436 7.53613 21.4601 8.48444 18.8286 10.3643C16.197 12.2442 14.2678 14.9483 13.3464 18.0483L15.2025 18.6005C16.0643 15.6987 17.9424 13.2045 20.493 11.5743C23.0436 9.94422 26.096 9.28731 29.0914 9.72387C32.0867 10.1604 34.8246 11.6613 36.8038 13.9516C38.783 16.2419 39.8711 19.1685 39.8688 22.1955C39.8687 22.4074 39.9381 22.6135 40.0664 22.7822C40.1947 22.9508 40.3747 23.0728 40.5789 23.1294ZM41.2037 26.3466L39.3476 25.7944C38.4857 28.6965 36.6073 31.191 34.0563 32.8211C31.5053 34.4512 28.4524 35.1078 25.4568 34.6707C22.4612 34.2337 19.7232 32.7321 17.7443 30.4411C15.7655 28.1501 14.6781 25.2229 14.6813 22.1955C14.6812 21.9838 14.6118 21.7779 14.4836 21.6093C14.3554 21.4408 14.1755 21.3189 13.9714 21.2623C13.7674 21.2057 13.5504 21.2175 13.3537 21.296C13.157 21.3744 12.9914 21.5151 12.8823 21.6966L9.97607 26.5404L11.6365 27.5382L13.0519 25.1802C13.7146 28.3456 15.4143 31.1995 17.8819 33.29C20.3495 35.3805 23.4439 36.588 26.6752 36.7215C29.9065 36.8549 33.09 35.9066 35.7215 34.0267C38.3531 32.1468 40.2823 29.4427 41.2037 26.3427V26.3466Z" fill="#2166F3"/>
</svg>
