<svg width="62" height="63" viewBox="0 0 62 63" fill="none" xmlns="http://www.w3.org/2000/svg">
<path d="M58.318 30.6988H56.4234V30.1153C56.4234 28.9286 55.4564 27.9631 54.2676 27.9631H52.9529C51.7643 27.9631 50.7973 28.9286 50.7973 30.1153V30.6988H45.8681V30.1153C45.8681 29.0098 45.0286 28.0971 43.9528 27.9774V1.8514C43.9528 1.72428 43.9278 1.5984 43.8791 1.48095C43.8305 1.36351 43.7592 1.25679 43.6693 1.1669C43.5794 1.07702 43.4727 1.00571 43.3552 0.957063C43.2378 0.908416 43.1119 0.883377 42.9848 0.883377H0.969977C0.842854 0.883377 0.716976 0.908416 0.59953 0.957063C0.482084 1.00571 0.37537 1.07702 0.285481 1.1669C0.103941 1.34844 0.00195313 1.59466 0.00195312 1.8514V61.9146C0.00195313 62.1714 0.103941 62.4176 0.285481 62.5991C0.46702 62.7807 0.713241 62.8827 0.969977 62.8827H58.318C60.347 62.8827 61.9977 61.3365 61.9977 59.4363V34.1417C61.9976 32.2433 60.347 30.6988 58.318 30.6988ZM52.7333 30.1152C52.7333 29.9979 52.8338 29.8989 52.9529 29.8989H54.2676C54.3866 29.8989 54.4872 29.9979 54.4872 30.1152V33.9357C54.4872 34.0529 54.3866 34.1518 54.2676 34.1518H52.9529C52.8339 34.1518 52.7333 34.0529 52.7333 33.9357V30.1152ZM50.7971 32.6348V33.9357C50.7971 35.1224 51.7641 36.0879 52.9527 36.0879H54.2675C55.4561 36.0879 56.4233 35.1223 56.4233 33.9357V32.6348H58.3179C59.2793 32.6348 60.0614 33.3108 60.0614 34.1417V37.6874H26.5872V34.1417C26.5872 33.3108 27.3695 32.6348 28.331 32.6348H29.6868V33.9357C29.6868 35.1224 30.6538 36.0879 31.8425 36.0879H33.1572C34.3457 36.0879 35.3128 35.1223 35.3128 33.9357V32.6348H40.2419V33.9357C40.2419 35.1224 41.2089 36.0879 42.3977 36.0879H43.7122C44.9009 36.0879 45.868 35.1223 45.868 33.9357V32.6348H50.7971ZM31.6229 33.9357V30.1152C31.6229 29.9979 31.7234 29.8989 31.8425 29.8989H33.1572C33.2761 29.8989 33.3767 29.9979 33.3767 30.1152V33.9357C33.3767 34.0529 33.2762 34.1518 33.1572 34.1518H31.8425C31.7234 34.1518 31.6229 34.0529 31.6229 33.9357ZM43.7122 29.899C43.8312 29.899 43.9319 29.9981 43.9319 30.1153V33.9358C43.9319 34.053 43.8312 34.1519 43.7122 34.1519H42.3977C42.2787 34.1519 42.1781 34.053 42.1781 33.9358V30.1153C42.1781 29.9981 42.2787 29.899 42.3977 29.899H43.7122ZM1.938 2.81942H42.0166V27.9988C41.0094 28.1792 40.242 29.0585 40.242 30.1153V30.6988H35.3129V30.1153C35.3129 28.9286 34.346 27.9631 33.1573 27.9631H31.8426C30.654 27.9631 29.6869 28.9286 29.6869 30.1153V30.6988H28.3311C26.3021 30.6988 24.6512 32.2433 24.6512 34.1418V59.4364C24.6512 59.9779 24.7856 60.4903 25.0242 60.9467H1.938V2.81942ZM58.318 60.9466H28.331C27.3857 60.9466 26.5872 60.255 26.5872 59.4363V39.6236H60.0617V59.4363C60.0615 60.2691 59.2794 60.9466 58.318 60.9466ZM36.5588 42.5925H31.5884C31.3317 42.5925 31.0855 42.6945 30.9039 42.8761C30.7224 43.0576 30.6204 43.3038 30.6204 43.5606V48.5276C30.6204 48.7843 30.7224 49.0305 30.9039 49.2121C31.0855 49.3936 31.3317 49.4956 31.5884 49.4956H36.5588C36.8156 49.4956 37.0618 49.3936 37.2433 49.2121C37.4249 49.0305 37.5268 48.7843 37.5268 48.5276V43.5606C37.5268 43.3038 37.4248 43.0576 37.2433 42.8761C37.0618 42.6946 36.8156 42.5926 36.5588 42.5925ZM35.5908 47.5596H32.5564V44.5287H35.5908V47.5596ZM45.7238 42.5925H40.7568C40.6297 42.5925 40.5038 42.6176 40.3863 42.6662C40.2689 42.7149 40.1622 42.7862 40.0723 42.8761C39.9824 42.966 39.9111 43.0727 39.8624 43.1901C39.8138 43.3076 39.7888 43.4334 39.7888 43.5606V48.5276C39.7888 48.6547 39.8138 48.7806 39.8624 48.898C39.9111 49.0155 39.9824 49.1222 40.0723 49.2121C40.1622 49.302 40.2689 49.3733 40.3863 49.4219C40.5038 49.4706 40.6297 49.4956 40.7568 49.4956H45.7238C45.8509 49.4956 45.9768 49.4706 46.0943 49.4219C46.2117 49.3733 46.3184 49.302 46.4083 49.2121C46.4982 49.1222 46.5695 49.0155 46.6181 48.898C46.6668 48.7806 46.6918 48.6547 46.6918 48.5276V43.5606C46.6918 43.3038 46.5898 43.0576 46.4083 42.8761C46.2267 42.6946 45.9805 42.5926 45.7238 42.5925ZM44.7558 47.5596H41.7249V44.5287H44.7558V47.5596ZM36.5588 51.0744H31.5884C31.3317 51.0744 31.0855 51.1764 30.9039 51.358C30.7224 51.5395 30.6204 51.7857 30.6204 52.0425V57.0095C30.6204 57.2662 30.7224 57.5124 30.9039 57.694C31.0855 57.8755 31.3317 57.9775 31.5884 57.9775H36.5588C36.6859 57.9775 36.8118 57.9525 36.9293 57.9038C37.0467 57.8552 37.1534 57.7839 37.2433 57.694C37.3332 57.6041 37.4045 57.4974 37.4532 57.3799C37.5018 57.2625 37.5268 57.1366 37.5268 57.0095V52.0425C37.5268 51.9153 37.5018 51.7895 37.4532 51.672C37.4045 51.5546 37.3332 51.4479 37.2433 51.358C37.1534 51.2681 37.0467 51.1968 36.9293 51.1481C36.8118 51.0995 36.6859 51.0744 36.5588 51.0744ZM35.5908 56.0415H32.5564V53.0106H35.5908V56.0415ZM45.7238 51.0744H40.7568C40.6297 51.0744 40.5038 51.0995 40.3863 51.1481C40.2689 51.1968 40.1622 51.2681 40.0723 51.358C39.9824 51.4479 39.9111 51.5546 39.8624 51.672C39.8138 51.7895 39.7888 51.9153 39.7888 52.0425V57.0095C39.7888 57.1366 39.8138 57.2625 39.8624 57.3799C39.9111 57.4974 39.9824 57.6041 40.0723 57.694C40.1622 57.7839 40.2689 57.8552 40.3863 57.9038C40.5038 57.9525 40.6297 57.9775 40.7568 57.9775H45.7238C45.8509 57.9775 45.9768 57.9525 46.0943 57.9038C46.2117 57.8552 46.3184 57.7839 46.4083 57.694C46.4982 57.6041 46.5695 57.4974 46.6181 57.3799C46.6668 57.2625 46.6918 57.1366 46.6918 57.0095V52.0425C46.6918 51.9153 46.6668 51.7895 46.6181 51.672C46.5695 51.5546 46.4982 51.4479 46.4083 51.358C46.3184 51.2681 46.2117 51.1968 46.0943 51.1481C45.9768 51.0995 45.8509 51.0744 45.7238 51.0744ZM44.7558 56.0415H41.7249V53.0106H44.7558V56.0415ZM55.0639 42.5925H50.0936C49.8369 42.5925 49.5906 42.6945 49.4091 42.8761C49.2276 43.0576 49.1256 43.3038 49.1256 43.5606V48.5276C49.1256 48.6547 49.1506 48.7806 49.1993 48.898C49.2479 49.0155 49.3192 49.1222 49.4091 49.2121C49.499 49.302 49.6057 49.3733 49.7231 49.4219C49.8406 49.4706 49.9665 49.4956 50.0936 49.4956H55.0639C55.3206 49.4956 55.5668 49.3936 55.7484 49.2121C55.9299 49.0305 56.0319 48.7843 56.0319 48.5276V43.5606C56.0319 43.3038 55.9299 43.0576 55.7483 42.8761C55.5668 42.6946 55.3206 42.5926 55.0639 42.5925ZM54.0959 47.5596H51.0616V44.5287H54.0959V47.5596ZM55.0639 51.0744H50.0936C49.8369 51.0744 49.5906 51.1764 49.4091 51.358C49.2276 51.5395 49.1256 51.7857 49.1256 52.0425V57.0095C49.1256 57.1366 49.1506 57.2625 49.1993 57.3799C49.2479 57.4974 49.3192 57.6041 49.4091 57.694C49.499 57.7839 49.6057 57.8552 49.7231 57.9038C49.8406 57.9525 49.9665 57.9775 50.0936 57.9775H55.0639C55.3206 57.9775 55.5668 57.8755 55.7484 57.694C55.9299 57.5124 56.0319 57.2662 56.0319 57.0095V52.0425C56.0319 51.9153 56.0069 51.7895 55.9582 51.672C55.9096 51.5546 55.8383 51.4479 55.7484 51.358C55.6585 51.2681 55.5518 51.1968 55.4343 51.1481C55.3169 51.0995 55.191 51.0744 55.0639 51.0744ZM54.0959 56.0415H51.0616V53.0106H54.0959V56.0415ZM5.94354 18.1972V7.79311C5.94354 7.53637 6.04553 7.29015 6.22707 7.10861C6.40861 6.92707 6.65483 6.82508 6.91156 6.82508H18.1603C18.2874 6.82508 18.4133 6.85012 18.5308 6.89877C18.6482 6.94742 18.7549 7.01872 18.8448 7.10861C18.9347 7.1985 19.006 7.30522 19.0547 7.42266C19.1033 7.54011 19.1283 7.66598 19.1283 7.79311C19.1283 7.92023 19.1033 8.04611 19.0547 8.16355C19.006 8.281 18.9347 8.38771 18.8448 8.4776C18.7549 8.56749 18.6482 8.6388 18.5308 8.68744C18.4133 8.73609 18.2874 8.76113 18.1603 8.76113H7.87959V17.2293H17.1922V14.2834L15.3919 15.9175C15.2139 16.0794 14.9819 16.169 14.7414 16.1688C14.6143 16.169 14.4885 16.144 14.3711 16.0955C14.2537 16.0469 14.1471 15.9757 14.0573 15.8858L11.8501 13.682C11.6684 13.5006 11.5663 13.2545 11.5661 12.9977C11.566 12.8706 11.5909 12.7447 11.6395 12.6272C11.6881 12.5097 11.7593 12.403 11.8491 12.313C11.9389 12.223 12.0456 12.1516 12.163 12.1029C12.2804 12.0542 12.4063 12.029 12.5334 12.0289C12.7901 12.0288 13.0364 12.1306 13.2181 12.312L14.7731 13.8645L19.4455 9.62344C19.6357 9.45158 19.8863 9.36219 20.1423 9.37487C20.3984 9.38755 20.6389 9.50126 20.8112 9.69107C20.9835 9.88088 21.0735 10.1313 21.0614 10.3873C21.0493 10.6434 20.9362 10.8842 20.7468 11.0569L19.1283 12.5259V18.1972C19.1283 18.454 19.0264 18.7002 18.8448 18.8817C18.6633 19.0633 18.4171 19.1653 18.1603 19.1653H6.91156C6.65483 19.1653 6.40861 19.0633 6.22707 18.8817C6.04553 18.7002 5.94354 18.454 5.94354 18.1972ZM5.94354 37.0834V26.6826C5.94354 26.4259 6.04553 26.1797 6.22707 25.9981C6.40861 25.8166 6.65483 25.7146 6.91156 25.7146H18.1603C18.4171 25.7146 18.6633 25.8166 18.8448 25.9981C19.0264 26.1797 19.1283 26.4259 19.1283 26.6826C19.1283 26.9394 19.0264 27.1856 18.8448 27.3671C18.6633 27.5487 18.4171 27.6507 18.1603 27.6507H7.87959V36.1154H17.1922V33.1728L15.3919 34.8069C15.214 34.9689 14.9819 35.0585 14.7414 35.0582C14.6142 35.0584 14.4883 35.0334 14.3708 34.9848C14.2533 34.9361 14.1466 34.8647 14.0568 34.7746L11.8496 32.5674C11.7597 32.4776 11.6884 32.3708 11.6398 32.2534C11.5911 32.136 11.5661 32.0101 11.5661 31.883C11.5661 31.7558 11.5911 31.6299 11.6398 31.5125C11.6884 31.3951 11.7597 31.2884 11.8496 31.1985C11.9395 31.1086 12.0462 31.0373 12.1637 30.9886C12.2811 30.9399 12.407 30.9149 12.5341 30.9149C12.6613 30.9149 12.7871 30.9399 12.9046 30.9886C13.022 31.0373 13.1287 31.1086 13.2186 31.1985L14.7736 32.7534L19.4455 28.5129C19.6357 28.341 19.8863 28.2516 20.1423 28.2643C20.3984 28.277 20.6389 28.3907 20.8112 28.5805C20.9835 28.7703 21.0735 29.0207 21.0614 29.2767C21.0493 29.5328 20.9362 29.7736 20.7468 29.9464L19.1283 31.4153V37.0834C19.1283 37.2105 19.1033 37.3364 19.0547 37.4538C19.006 37.5713 18.9347 37.678 18.8448 37.7679C18.7549 37.8578 18.6482 37.9291 18.5308 37.9777C18.4133 38.0264 18.2874 38.0514 18.1603 38.0514H6.91156C6.78444 38.0514 6.65856 38.0264 6.54112 37.9777C6.42367 37.9291 6.31696 37.8578 6.22707 37.7679C6.13718 37.678 6.06587 37.5713 6.01723 37.4538C5.96858 37.3364 5.94354 37.2105 5.94354 37.0834ZM20.8131 47.4689C20.8985 47.563 20.9646 47.6731 21.0074 47.7927C21.0503 47.9124 21.0692 48.0394 21.063 48.1663C21.0568 48.2933 21.0257 48.4178 20.9713 48.5327C20.917 48.6477 20.8406 48.7508 20.7464 48.8361L19.1283 50.3038V55.9728C19.1283 56.2295 19.0264 56.4758 18.8448 56.6573C18.6633 56.8388 18.4171 56.9408 18.1603 56.9408H6.91156C6.65483 56.9408 6.40861 56.8388 6.22707 56.6573C6.04553 56.4758 5.94354 56.2295 5.94354 55.9728V45.5721C5.94354 45.3153 6.04553 45.0691 6.22707 44.8876C6.40861 44.706 6.65483 44.604 6.91156 44.604H18.1603C18.4171 44.604 18.6633 44.706 18.8448 44.8876C19.0264 45.0691 19.1283 45.3153 19.1283 45.5721C19.1283 45.8288 19.0264 46.075 18.8448 46.2566C18.6633 46.4381 18.4171 46.5401 18.1603 46.5401H7.87959V55.0047H17.1922V52.0598L15.3915 53.6931C15.2136 53.8549 14.9818 53.9444 14.7414 53.9441C14.6143 53.9443 14.4885 53.9193 14.3711 53.8708C14.2537 53.8222 14.1471 53.7509 14.0573 53.661L11.8501 51.4572C11.7602 51.3674 11.6888 51.2607 11.64 51.1433C11.5913 51.0259 11.5662 50.9001 11.5661 50.7729C11.566 50.6458 11.5909 50.5199 11.6395 50.4024C11.6881 50.285 11.7593 50.1782 11.8492 50.0882C11.939 49.9983 12.0456 49.9269 12.163 49.8782C12.2805 49.8294 12.4063 49.8043 12.5334 49.8042C12.6606 49.8041 12.7865 49.8291 12.9039 49.8776C13.0214 49.9262 13.1282 49.9974 13.2181 50.0873L14.7733 51.6401L19.4459 47.4019C19.54 47.3165 19.6501 47.2505 19.7698 47.2077C19.8894 47.1648 20.0164 47.146 20.1434 47.1522C20.2703 47.1584 20.3948 47.1896 20.5097 47.2439C20.6247 47.2982 20.7278 47.3747 20.8131 47.4689ZM24.6511 7.79311C24.6511 7.53637 24.7531 7.29015 24.9346 7.10861C25.1161 6.92707 25.3624 6.82508 25.6191 6.82508H38.2064C38.4632 6.82508 38.7094 6.92707 38.8909 7.10861C39.0725 7.29015 39.1744 7.53637 39.1744 7.79311C39.1744 8.04984 39.0725 8.29606 38.8909 8.4776C38.7094 8.65914 38.4632 8.76113 38.2064 8.76113H25.6191C25.3624 8.76113 25.1161 8.65914 24.9346 8.4776C24.7531 8.29606 24.6511 8.04984 24.6511 7.79311ZM24.6511 12.9935C24.6511 12.7367 24.7531 12.4905 24.9346 12.309C25.1161 12.1274 25.3624 12.0255 25.6191 12.0255H38.2064C38.4632 12.0255 38.7094 12.1274 38.8909 12.309C39.0725 12.4905 39.1744 12.7367 39.1744 12.9935C39.1744 13.2502 39.0725 13.4964 38.8909 13.678C38.7094 13.8595 38.4632 13.9615 38.2064 13.9615H25.6191C25.3624 13.9615 25.1161 13.8595 24.9346 13.678C24.7531 13.4964 24.6511 13.2502 24.6511 12.9935Z" fill="#3D79F4"/>
</svg>
