<svg width="10" height="9" viewBox="0 0 10 9" fill="none" xmlns="http://www.w3.org/2000/svg">
<path d="M9.24264 7.68191L6.06066 4.49993L9.24264 1.31795C9.38329 1.1773 9.46231 0.986531 9.46231 0.787619C9.46231 0.588706 9.38329 0.397941 9.24264 0.257289C9.10199 0.116636 8.91122 0.037619 8.71231 0.037619C8.5134 0.037619 8.32263 0.116636 8.18198 0.257289L5 3.43927L1.81802 0.257289C1.67737 0.116637 1.4866 0.0376193 1.28769 0.0376193C1.08878 0.0376193 0.898012 0.116637 0.757359 0.257289C0.616707 0.397941 0.53769 0.588707 0.53769 0.787619C0.53769 0.986531 0.616707 1.1773 0.757359 1.31795L3.93934 4.49993L0.757359 7.68191C0.616707 7.82256 0.537689 8.01333 0.537689 8.21224C0.537689 8.41115 0.616707 8.60192 0.757359 8.74257C0.898011 8.88322 1.08878 8.96224 1.28769 8.96224C1.4866 8.96224 1.67737 8.88322 1.81802 8.74257L5 5.56059L8.18198 8.74257C8.32263 8.88322 8.5134 8.96224 8.71231 8.96224C8.91122 8.96224 9.10199 8.88322 9.24264 8.74257C9.38329 8.60192 9.46231 8.41115 9.46231 8.21224C9.46231 8.01333 9.38329 7.82256 9.24264 7.68191Z" fill="#8F8F8F"/>
</svg>
