<svg xmlns="http://www.w3.org/2000/svg" width="78" height="14" fill="none" xmlns:v="https://vecta.io/nano"><path d="M6.857.074c-.055.043-.528 1.031-1.056 2.198l-.97 2.124c-.006.006-1.062.129-2.345.27L.08 4.985c-.215.172-.086.331 1.461 1.743l1.749 1.59.215.184-.467 2.253-.46 2.363c0 .135.11.264.233.264.049 0 1.007-.522 2.136-1.166l2.05-1.166 2.05 1.166 2.136 1.166c.123 0 .233-.129.233-.264 0-.061-.209-1.123-.46-2.363l-.467-2.253.215-.184 1.749-1.59C14 5.316 14.129 5.157 13.92 4.985c-.043-.031-1.13-.178-2.412-.319l-2.345-.27a153.49 153.49 0 0 1-.97-2.124C7.342.387 7.14 0 6.999 0c-.018 0-.086.037-.141.074zm32 0c-.055.043-.528 1.031-1.056 2.198l-.97 2.124a129.69 129.69 0 0 1-2.345.27l-2.406.319c-.215.172-.086.331 1.461 1.743l1.749 1.59.215.184-.467 2.253-.46 2.363c0 .135.111.264.233.264.049 0 1.007-.522 2.136-1.166l2.05-1.166 2.05 1.166 2.136 1.166c.123 0 .233-.129.233-.264 0-.061-.209-1.123-.46-2.363l-.467-2.253.215-.184 1.749-1.59C46 5.316 46.129 5.157 45.92 4.985c-.043-.031-1.13-.178-2.412-.319l-2.345-.27a158.32 158.32 0 0 1-.97-2.124C39.342.387 39.14 0 38.999 0c-.018 0-.086.037-.141.074zm-16 0c-.055.043-.528 1.031-1.056 2.198l-.97 2.124a129.69 129.69 0 0 1-2.345.27l-2.406.319c-.215.172-.086.331 1.461 1.743l1.749 1.59.215.184-.466 2.253-.46 2.363c0 .135.11.264.233.264.049 0 1.007-.522 2.136-1.166l2.05-1.166 2.05 1.166 2.136 1.166c.123 0 .233-.129.233-.264 0-.061-.209-1.123-.46-2.363l-.467-2.253.215-.184 1.749-1.59c1.547-1.412 1.676-1.571 1.467-1.743-.043-.031-1.13-.178-2.412-.319l-2.345-.27a158.32 158.32 0 0 1-.97-2.124C23.342.387 23.14 0 22.999 0c-.018 0-.086.037-.141.074zm32 0c-.055.043-.528 1.031-1.056 2.198l-.97 2.124a129.69 129.69 0 0 1-2.345.27l-2.406.319c-.215.172-.086.331 1.461 1.743l1.749 1.59.215.184-.467 2.253-.46 2.363c0 .135.111.264.233.264.049 0 1.007-.522 2.136-1.166l2.05-1.166 2.05 1.166 2.136 1.166c.123 0 .233-.129.233-.264 0-.061-.209-1.123-.46-2.363l-.467-2.253.215-.184 1.749-1.59C62 5.316 62.129 5.157 61.92 4.985c-.043-.031-1.13-.178-2.412-.319l-2.345-.27a158.32 158.32 0 0 1-.97-2.124C55.342.387 55.14 0 54.999 0c-.018 0-.086.037-.141.074z" fill="#ffaa05"/><path d="M70.257 2.478h0l.701-1.51.041-.086.741 1.596h-1.483zm0 0l-.681 1.495-.21.459-.059.128-.018.038-.009.018-.022.039-.017.026h0c-.005.007-.025.036-.056.067-.059.059-.117.088-.133.095h0a.5.5 0 0 1-.054.023l-.045.014-.032.007-.027.005-.046.006-.144.018-.508.06-1.654.186-1.659.2-.064.009m5.438-2.892l-5.438 2.892m0 0l1.06.988h0l1.742 1.583.211.181.224.192-.06.289-.466 2.251-.324 1.62-.031.161.061-.033 1.465-.82h.001l2.05-1.166.247-.141.247.141 2.05 1.166h.001l1.465.82.061.034-.031-.161-.324-1.619-.466-2.252-.06-.289.224-.192.211-.181 1.742-1.583h0l1.06-.988-.063-.008-1.66-.2-1.654-.186-.508-.06-.144-.018-.046-.006-.027-.005-.032-.007-.045-.014c-.01-.004-.03-.011-.054-.023h0c-.015-.008-.074-.037-.133-.095l.354-.354v.5c-.174 0-.288-.09-.308-.106l-.001-.001a.5.5 0 0 1-.07-.067c-.021-.025-.035-.046-.04-.053l-.021-.034-.014-.026-.02-.042-.06-.129-.21-.459-7.602 1.392zM70.725.391zm4.196 12.778zm-7.845-.006z" stroke="#ffaa05"/><path d="M71.012 0c-.055.043-.671 1.032-1.198 2.198l-.97 2.124c-.006.006-1.062.129-2.345.27l-2.406.319c-.215.172-.086.331 1.461 1.743l1.749 1.59.215.184-.467 2.253-.46 2.363c0 .135.111.264.233.264.049 0 1.007-.522 2.136-1.166l1.995-1.122L71.012 0z" fill="#ffaa05"/></svg>