<svg width="55" height="55" viewBox="0 0 55 55" fill="none" xmlns="http://www.w3.org/2000/svg">
<g clip-path="url(#clip0_758_689)">
<path d="M27.5 17.1875C25.4604 17.1875 23.4666 17.7923 21.7707 18.9255C20.0748 20.0586 18.753 21.6692 17.9725 23.5536C17.192 25.4379 16.9877 27.5114 17.3857 29.5119C17.7836 31.5123 18.7657 33.3498 20.208 34.792C21.6502 36.2343 23.4877 37.2164 25.4881 37.6144C27.4886 38.0123 29.5621 37.808 31.4464 37.0275C33.3308 36.247 34.9414 34.9252 36.0745 33.2293C37.2077 31.5334 37.8125 29.5396 37.8125 27.5C37.8095 24.7659 36.7221 22.1446 34.7888 20.2112C32.8554 18.2779 30.2341 17.1905 27.5 17.1875ZM27.5 36.0938C25.8003 36.0938 24.1388 35.5897 22.7256 34.6454C21.3123 33.7012 20.2109 32.359 19.5604 30.7887C18.91 29.2184 18.7398 27.4905 19.0714 25.8234C19.403 24.1564 20.2214 22.6252 21.4233 21.4233C22.6252 20.2214 24.1564 19.403 25.8234 19.0714C27.4905 18.7398 29.2184 18.91 30.7887 19.5604C32.359 20.2109 33.7012 21.3123 34.6454 22.7256C35.5897 24.1388 36.0938 25.8003 36.0938 27.5C36.0913 29.7784 35.185 31.9628 33.5739 33.5739C31.9628 35.185 29.7784 36.0912 27.5 36.0938Z" fill="#2166F3"/>
<path d="M27.439 23.7428C27.3751 23.5834 27.2649 23.4467 27.1226 23.3505C26.9803 23.2543 26.8124 23.203 26.6406 23.2031H24.9219C24.7501 23.203 24.5822 23.2543 24.4399 23.3505C24.2976 23.4467 24.1874 23.5834 24.1235 23.7428L22.4048 28.0397C22.3645 28.1415 22.3438 28.2499 22.3438 28.3594V31.7969H24.0625V29.2188H27.5V31.7969H29.2188V28.3594C29.2187 28.2499 29.198 28.1415 29.1577 28.0397L27.439 23.7428ZM25.5037 24.9219H26.0588L27.0901 27.5H24.4724L25.5037 24.9219ZM30.0781 23.2031H31.7969V31.7969H30.0781V23.2031Z" fill="#2166F3"/>
<path d="M49.8431 9.45301C50.8037 9.45587 51.7376 9.13776 52.4967 8.54919C53.2558 7.96062 53.7966 7.13532 54.0331 6.20434C54.2695 5.27336 54.1882 4.29005 53.8021 3.41056C53.4159 2.53106 52.747 1.80578 51.9015 1.34987C51.056 0.893968 50.0825 0.733573 49.1355 0.894153C48.1884 1.05473 47.3222 1.52709 46.6743 2.23621C46.0264 2.94534 45.6339 3.85059 45.5592 4.80823C45.4846 5.76587 45.7319 6.72101 46.2621 7.522L40.2602 13.5239L39.0451 12.3079C38.8988 12.1616 38.7047 12.073 38.4984 12.0583C38.2921 12.0436 38.0874 12.1039 37.9219 12.2279L36.0811 13.6081C35.6514 13.34 35.2002 13.0993 34.7465 12.8742L37.5601 10.0606C37.7213 9.89947 37.8118 9.68092 37.8119 9.45301V7.61223C38.622 7.40307 39.328 6.90563 39.7975 6.21316C40.2671 5.5207 40.468 4.68074 40.3626 3.85075C40.2572 3.02075 39.8527 2.2577 39.2249 1.70461C38.5971 1.15153 37.7892 0.846388 36.9525 0.846388C36.1158 0.846388 35.3079 1.15153 34.6801 1.70461C34.0523 2.2577 33.6478 3.02075 33.5424 3.85075C33.437 4.68074 33.6379 5.5207 34.1075 6.21316C34.577 6.90563 35.283 7.40307 36.0931 7.61223V9.09723L33.038 12.1523C32.4542 11.938 31.8586 11.7575 31.254 11.6118L30.9283 9.33098C30.8989 9.12628 30.7967 8.93903 30.6404 8.80359C30.4842 8.66816 30.2843 8.59361 30.0775 8.59364H24.9212C24.7145 8.59361 24.5146 8.66816 24.3583 8.80359C24.202 8.93903 24.0998 9.12628 24.0705 9.33098L23.7448 11.6118C23.1402 11.7575 22.5445 11.938 21.9607 12.1523L18.9056 9.09723V7.61223C19.7157 7.40307 20.4217 6.90563 20.8913 6.21316C21.3609 5.5207 21.5618 4.68074 21.4564 3.85075C21.3509 3.02075 20.9464 2.2577 20.3186 1.70461C19.6909 1.15153 18.8829 0.846388 18.0462 0.846388C17.2096 0.846388 16.4016 1.15153 15.7739 1.70461C15.1461 2.2577 14.7416 3.02075 14.6361 3.85075C14.5307 4.68074 14.7316 5.5207 15.2012 6.21316C15.6708 6.90563 16.3768 7.40307 17.1869 7.61223V9.45301C17.1869 9.68092 17.2775 9.89947 17.4387 10.0606L20.2523 12.8742C19.7985 13.0993 19.3508 13.34 18.9177 13.6081L17.0769 12.2279C16.9114 12.1039 16.7067 12.0436 16.5004 12.0583C16.294 12.073 16.0999 12.1616 15.9537 12.3079L14.7385 13.5239L8.73664 7.522C9.32625 6.63119 9.56401 5.55314 9.4038 4.49696C9.2436 3.44078 8.69684 2.48173 7.86958 1.80584C7.04233 1.12994 5.99353 0.78537 4.92661 0.838953C3.85969 0.892535 2.85069 1.34045 2.09531 2.09583C1.33994 2.85121 0.892019 3.8602 0.838437 4.92712C0.784854 5.99404 1.12943 7.04284 1.80532 7.8701C2.48122 8.69736 3.44026 9.24411 4.49644 9.40432C5.55263 9.56453 6.63067 9.32677 7.52148 8.73715L13.5234 14.739L12.3073 15.9542C12.1611 16.1004 12.0725 16.2946 12.0578 16.5009C12.0431 16.7072 12.1033 16.9119 12.2274 17.0774L13.6076 18.9173C13.3101 19.4058 13.0385 19.9095 12.7937 20.4264L9.80656 17.4392C9.64543 17.278 9.42688 17.1874 9.19898 17.1874H7.61172C7.40255 16.3773 6.90511 15.6713 6.21265 15.2017C5.52018 14.7321 4.68023 14.5312 3.85023 14.6367C3.02024 14.7421 2.25718 15.1466 1.7041 15.7744C1.15101 16.4022 0.845872 17.2101 0.845872 18.0468C0.845872 18.8834 1.15101 19.6914 1.7041 20.3192C2.25718 20.9469 3.02024 21.3514 3.85023 21.4569C4.68023 21.5623 5.52018 21.3614 6.21265 20.8918C6.90511 20.4222 7.40255 19.7162 7.61172 18.9061H8.8432L12.0839 22.1468C11.8989 22.6711 11.7411 23.2047 11.6112 23.7453L9.33047 24.071C9.12576 24.1003 8.93852 24.2025 8.80308 24.3588C8.66764 24.5151 8.5931 24.715 8.59312 24.9218V30.078C8.5931 30.2848 8.66764 30.4847 8.80308 30.641C8.93852 30.7972 9.12576 30.8994 9.33047 30.9288L11.6112 31.2545C11.7411 31.7951 11.8989 32.3286 12.0839 32.8529L8.8432 36.0936H7.61172C7.40255 35.2835 6.90511 34.5775 6.21265 34.108C5.52018 33.6384 4.68023 33.4375 3.85023 33.5429C3.02024 33.6483 2.25718 34.0528 1.7041 34.6806C1.15101 35.3084 0.845872 36.1163 0.845872 36.953C0.845872 37.7897 1.15101 38.5976 1.7041 39.2254C2.25718 39.8532 3.02024 40.2577 3.85023 40.3631C4.68023 40.4685 5.52018 40.2676 6.21265 39.7981C6.90511 39.3285 7.40255 38.6225 7.61172 37.8124H9.19898C9.42688 37.8123 9.64543 37.7218 9.80656 37.5606L12.7937 34.5734C13.0385 35.09 13.3101 35.5934 13.6076 36.0816L12.2274 37.9224C12.1033 38.0879 12.0431 38.2926 12.0578 38.4989C12.0725 38.7052 12.1611 38.8993 12.3073 39.0456L13.5234 40.2607L7.52148 46.2626C6.63067 45.673 5.55263 45.4352 4.49644 45.5955C3.44026 45.7557 2.48122 46.3024 1.80532 47.1297C1.12943 47.9569 0.784854 49.0057 0.838437 50.0727C0.892019 51.1396 1.33994 52.1486 2.09531 52.9039C2.85069 53.6593 3.85969 54.1072 4.92661 54.1608C5.99353 54.2144 7.04233 53.8698 7.86958 53.1939C8.69684 52.518 9.2436 51.559 9.4038 50.5028C9.56401 49.4466 9.32625 48.3686 8.73664 47.4778L14.7385 41.4759L15.9537 42.6919C16.0999 42.8382 16.294 42.9268 16.5004 42.9415C16.7067 42.9561 16.9114 42.8959 17.0769 42.7718L18.9168 41.3917C19.3465 41.6598 19.7977 41.9004 20.2523 42.1256L17.4387 44.9392C17.2775 45.1003 17.1869 45.3189 17.1869 45.5468V47.3875C16.3768 47.5967 15.6708 48.0941 15.2012 48.7866C14.7316 49.4791 14.5307 50.319 14.6361 51.149C14.7416 51.979 15.1461 52.7421 15.7739 53.2952C16.4016 53.8482 17.2096 54.1534 18.0462 54.1534C18.8829 54.1534 19.6909 53.8482 20.3186 53.2952C20.9464 52.7421 21.3509 51.979 21.4564 51.149C21.5618 50.319 21.3609 49.4791 20.8913 48.7866C20.4217 48.0941 19.7157 47.5967 18.9056 47.3875V45.9025L21.9607 42.8475C22.5446 43.0617 23.1402 43.2421 23.7448 43.388L24.0705 45.6688C24.0998 45.8735 24.202 46.0607 24.3583 46.1962C24.5146 46.3316 24.7145 46.4062 24.9212 46.4061H30.0775C30.2843 46.4062 30.4842 46.3316 30.6404 46.1962C30.7967 46.0607 30.8989 45.8735 30.9283 45.6688L31.254 43.388C31.8585 43.2421 32.4542 43.0617 33.038 42.8475L36.0931 45.9025V47.3875C35.283 47.5967 34.577 48.0941 34.1075 48.7866C33.6379 49.4791 33.437 50.319 33.5424 51.149C33.6478 51.979 34.0523 52.7421 34.6801 53.2952C35.3079 53.8482 36.1158 54.1534 36.9525 54.1534C37.7892 54.1534 38.5971 53.8482 39.2249 53.2952C39.8527 52.7421 40.2572 51.979 40.3626 51.149C40.468 50.319 40.2671 49.4791 39.7975 48.7866C39.328 48.0941 38.622 47.5967 37.8119 47.3875V45.5468C37.8118 45.3189 37.7213 45.1003 37.5601 44.9392L34.7465 42.1256C35.2029 41.9019 35.6485 41.657 36.082 41.3917L37.9219 42.7718C38.0874 42.8959 38.2921 42.9561 38.4984 42.9415C38.7047 42.9268 38.8988 42.8382 39.0451 42.6919L40.2602 41.4759L46.2621 47.4778C45.6725 48.3686 45.4347 49.4466 45.5949 50.5028C45.7552 51.559 46.3019 52.518 47.1292 53.1939C47.9564 53.8698 49.0052 54.2144 50.0721 54.1608C51.1391 54.1072 52.1481 53.6593 52.9034 52.9039C53.6588 52.1486 54.1067 51.1396 54.1603 50.0727C54.2139 49.0057 53.8693 47.9569 53.1934 47.1297C52.5175 46.3024 51.5585 45.7557 50.5023 45.5955C49.4461 45.4352 48.3681 45.673 47.4773 46.2626L41.4754 40.2607L42.6914 39.0456C42.8377 38.8993 42.9263 38.7052 42.941 38.4989C42.9556 38.2926 42.8954 38.0879 42.7713 37.9224L41.3912 36.0816C41.6593 35.6519 41.8999 35.2007 42.1251 34.747L44.9387 37.5606C45.0998 37.7218 45.3183 37.8123 45.5462 37.8124H47.387C47.5962 38.6225 48.0936 39.3285 48.7861 39.7981C49.4786 40.2676 50.3185 40.4685 51.1485 40.3631C51.9785 40.2577 52.7416 39.8532 53.2947 39.2254C53.8477 38.5976 54.1529 37.7897 54.1529 36.953C54.1529 36.1163 53.8477 35.3084 53.2947 34.6806C52.7416 34.0528 51.9785 33.6483 51.1485 33.5429C50.3185 33.4375 49.4786 33.6384 48.7861 34.108C48.0936 34.5775 47.5962 35.2835 47.387 36.0936H45.902L42.847 33.0386C43.0611 32.4547 43.2416 31.859 43.3875 31.2545L45.6683 30.9288C45.873 30.8994 46.0602 30.7972 46.1957 30.641C46.3311 30.4847 46.4057 30.2848 46.4056 30.078V24.9218C46.4057 24.715 46.3311 24.5151 46.1957 24.3588C46.0602 24.2025 45.873 24.1003 45.6683 24.071L43.3875 23.7453C43.2416 23.1407 43.0611 22.5451 42.847 21.9612L45.902 18.9061H47.387C47.5962 19.7162 48.0936 20.4222 48.7861 20.8918C49.4786 21.3614 50.3185 21.5623 51.1485 21.4569C51.9785 21.3514 52.7416 20.9469 53.2947 20.3192C53.8477 19.6914 54.1529 18.8834 54.1529 18.0468C54.1529 17.2101 53.8477 16.4022 53.2947 15.7744C52.7416 15.1466 51.9785 14.7421 51.1485 14.6367C50.3185 14.5312 49.4786 14.7321 48.7861 15.2017C48.0936 15.6713 47.5962 16.3773 47.387 17.1874H45.5462C45.3183 17.1874 45.0998 17.278 44.9387 17.4392L42.1251 20.2528C41.9014 19.7964 41.6565 19.3508 41.3912 18.9173L42.7713 17.0774C42.8954 16.9119 42.9556 16.7072 42.941 16.5009C42.9263 16.2946 42.8377 16.1004 42.6914 15.9542L41.4754 14.739L47.4773 8.73715C48.1781 9.20379 49.0012 9.45285 49.8431 9.45301ZM35.2337 4.29676C35.2337 3.95683 35.3346 3.62452 35.5234 3.34188C35.7123 3.05923 35.9807 2.83893 36.2948 2.70885C36.6088 2.57876 36.9544 2.54472 37.2878 2.61104C37.6212 2.67736 37.9275 2.84105 38.1678 3.08142C38.4082 3.3218 38.5719 3.62805 38.6382 3.96145C38.7045 4.29486 38.6705 4.64044 38.5404 4.9545C38.4103 5.26856 38.19 5.53699 37.9074 5.72585C37.6247 5.91471 37.2924 6.01551 36.9525 6.01551C36.4967 6.01551 36.0595 5.83443 35.7372 5.5121C35.4148 5.18978 35.2337 4.7526 35.2337 4.29676ZM16.3275 4.29676C16.3275 3.95683 16.4283 3.62452 16.6172 3.34188C16.806 3.05923 17.0745 2.83893 17.3885 2.70885C17.7026 2.57876 18.0482 2.54472 18.3816 2.61104C18.715 2.67736 19.0212 2.84105 19.2616 3.08142C19.502 3.3218 19.6657 3.62805 19.732 3.96145C19.7983 4.29486 19.7643 4.64044 19.6342 4.9545C19.5041 5.26856 19.2838 5.53699 19.0011 5.72585C18.7185 5.91471 18.3862 6.01551 18.0462 6.01551C17.5904 6.01551 17.1532 5.83443 16.8309 5.5121C16.5086 5.18978 16.3275 4.7526 16.3275 4.29676ZM5.15562 7.73426C4.64572 7.73426 4.14726 7.58306 3.72329 7.29977C3.29932 7.01648 2.96888 6.61384 2.77375 6.14274C2.57861 5.67165 2.52756 5.15328 2.62704 4.65317C2.72651 4.15306 2.97206 3.69369 3.33261 3.33313C3.69317 2.97257 4.15255 2.72703 4.65266 2.62755C5.15276 2.52807 5.67114 2.57913 6.14223 2.77426C6.61332 2.96939 7.01597 3.29984 7.29926 3.72381C7.58254 4.14778 7.73375 4.64623 7.73375 5.15614C7.73375 5.8399 7.46213 6.49566 6.97863 6.97915C6.49514 7.46264 5.83938 7.73426 5.15562 7.73426ZM4.29625 19.7655C3.95631 19.7655 3.62401 19.6647 3.34136 19.4759C3.05871 19.287 2.83842 19.0186 2.70833 18.7045C2.57824 18.3904 2.54421 18.0449 2.61052 17.7115C2.67684 17.378 2.84054 17.0718 3.08091 16.8314C3.32128 16.5911 3.62753 16.4274 3.96094 16.361C4.29434 16.2947 4.63993 16.3288 4.95399 16.4588C5.26805 16.5889 5.53648 16.8092 5.72534 17.0919C5.9142 17.3745 6.015 17.7068 6.015 18.0468C6.015 18.5026 5.83392 18.9398 5.51159 19.2621C5.18926 19.5844 4.75209 19.7655 4.29625 19.7655ZM4.29625 38.6718C3.95631 38.6718 3.62401 38.571 3.34136 38.3821C3.05871 38.1932 2.83842 37.9248 2.70833 37.6107C2.57824 37.2967 2.54421 36.9511 2.61052 36.6177C2.67684 36.2843 2.84054 35.978 3.08091 35.7377C3.32128 35.4973 3.62753 35.3336 3.96094 35.2673C4.29434 35.201 4.63993 35.235 4.95399 35.3651C5.26805 35.4952 5.53648 35.7155 5.72534 35.9981C5.9142 36.2808 6.015 36.6131 6.015 36.953C6.015 37.4089 5.83392 37.846 5.51159 38.1684C5.18926 38.4907 4.75209 38.6718 4.29625 38.6718ZM5.15562 52.4218C4.64572 52.4218 4.14726 52.2706 3.72329 51.9873C3.29932 51.704 2.96888 51.3013 2.77375 50.8302C2.57861 50.3591 2.52756 49.8408 2.62704 49.3407C2.72651 48.8406 2.97206 48.3812 3.33261 48.0206C3.69317 47.6601 4.15255 47.4145 4.65266 47.315C5.15276 47.2156 5.67114 47.2666 6.14223 47.4618C6.61332 47.6569 7.01597 47.9873 7.29926 48.4113C7.58254 48.8353 7.73375 49.3337 7.73375 49.8436C7.73375 50.5274 7.46213 51.1832 6.97863 51.6666C6.49514 52.1501 5.83938 52.4218 5.15562 52.4218ZM19.765 50.703C19.765 51.0429 19.6642 51.3752 19.4753 51.6579C19.2865 51.9405 19.018 52.1608 18.704 52.2909C18.3899 52.421 18.0443 52.4551 17.7109 52.3887C17.3775 52.3224 17.0713 52.1587 16.8309 51.9184C16.5905 51.678 16.4268 51.3717 16.3605 51.0383C16.2942 50.7049 16.3282 50.3593 16.4583 50.0453C16.5884 49.7312 16.8087 49.4628 17.0914 49.2739C17.374 49.0851 17.7063 48.9843 18.0462 48.9843C18.5021 48.9843 18.9393 49.1653 19.2616 49.4877C19.5839 49.81 19.765 50.2472 19.765 50.703ZM38.6712 50.703C38.6712 51.0429 38.5704 51.3752 38.3816 51.6579C38.1927 51.9405 37.9243 52.1608 37.6102 52.2909C37.2962 52.421 36.9506 52.4551 36.6172 52.3887C36.2838 52.3224 35.9775 52.1587 35.7372 51.9184C35.4968 51.678 35.3331 51.3717 35.2668 51.0383C35.2005 50.7049 35.2345 50.3593 35.3646 50.0453C35.4947 49.7312 35.715 49.4628 35.9976 49.2739C36.2803 49.0851 36.6126 48.9843 36.9525 48.9843C37.4083 48.9843 37.8455 49.1653 38.1678 49.4877C38.4902 49.81 38.6712 50.2472 38.6712 50.703ZM49.8431 47.2655C50.353 47.2655 50.8515 47.4167 51.2755 47.7C51.6994 47.9833 52.0299 48.3859 52.225 48.857C52.4201 49.3281 52.4712 49.8465 52.3717 50.3466C52.2722 50.8467 52.0267 51.3061 51.6661 51.6666C51.3056 52.0272 50.8462 52.2727 50.3461 52.3722C49.846 52.4717 49.3276 52.4206 48.8565 52.2255C48.3854 52.0304 47.9828 51.6999 47.6995 51.276C47.4162 50.852 47.265 50.3535 47.265 49.8436C47.265 49.1599 47.5366 48.5041 48.0201 48.0206C48.5036 47.5371 49.1594 47.2655 49.8431 47.2655ZM50.7025 35.2343C51.0424 35.2343 51.3747 35.3351 51.6574 35.5239C51.94 35.7128 52.1603 35.9812 52.2904 36.2953C52.4205 36.6093 52.4545 36.9549 52.3882 37.2883C52.3219 37.6217 52.1582 37.928 51.9178 38.1684C51.6775 38.4087 51.3712 38.5724 51.0378 38.6387C50.7044 38.7051 50.3588 38.671 50.0448 38.5409C49.7307 38.4108 49.4623 38.1905 49.2734 37.9079C49.0846 37.6253 48.9837 37.2929 48.9837 36.953C48.9837 36.4972 49.1648 36.06 49.4872 35.7377C49.8095 35.4153 50.2467 35.2343 50.7025 35.2343ZM50.7025 16.328C51.0424 16.328 51.3747 16.4288 51.6574 16.6177C51.94 16.8065 52.1603 17.075 52.2904 17.389C52.4205 17.7031 52.4545 18.0487 52.3882 18.3821C52.3219 18.7155 52.1582 19.0217 51.9178 19.2621C51.6775 19.5025 51.3712 19.6662 51.0378 19.7325C50.7044 19.7988 50.3588 19.7648 50.0448 19.6347C49.7307 19.5046 49.4623 19.2843 49.2734 19.0017C49.0846 18.719 48.9837 18.3867 48.9837 18.0468C48.9837 17.5909 49.1648 17.1538 49.4872 16.8314C49.8095 16.5091 50.2467 16.328 50.7025 16.328ZM44.6869 25.6668V29.3329L42.5522 29.638C42.3753 29.6633 42.2108 29.7432 42.0814 29.8664C41.952 29.9896 41.8642 30.1501 41.8303 30.3255C41.4608 32.227 40.7129 34.0348 39.6312 35.6416C39.5317 35.7896 39.4807 35.965 39.4853 36.1433C39.4899 36.3216 39.5499 36.4941 39.657 36.6368L40.946 38.3598L38.3567 40.9491L36.638 39.66C36.4953 39.553 36.3228 39.493 36.1445 39.4884C35.9662 39.4838 35.7909 39.5347 35.6428 39.6343C34.0356 40.7159 32.2275 41.4637 30.3259 41.8334C30.1504 41.8673 29.99 41.9551 29.8667 42.0845C29.7435 42.2138 29.6637 42.3784 29.6384 42.5553L29.3324 44.6874H25.6663L25.3612 42.5527C25.3359 42.3758 25.2561 42.2113 25.1329 42.0819C25.0096 41.9525 24.8492 41.8647 24.6737 41.8308C22.7721 41.4612 20.964 40.7133 19.3568 39.6317C19.2088 39.5322 19.0334 39.4812 18.8551 39.4858C18.6768 39.4904 18.5043 39.5504 18.3616 39.6575L16.6429 40.9465L14.0502 38.3572L15.3392 36.6342C15.4463 36.4915 15.5063 36.319 15.5109 36.1407C15.5155 35.9624 15.4645 35.7871 15.365 35.639C14.2832 34.0322 13.5354 32.2244 13.1659 30.3229C13.1319 30.1475 13.0442 29.987 12.9148 29.8638C12.7854 29.7406 12.6208 29.6608 12.444 29.6354L10.3119 29.3329V25.6668L12.4466 25.3618C12.6234 25.3364 12.788 25.2566 12.9174 25.1334C13.0468 25.0102 13.1345 24.8497 13.1684 24.6743C13.5381 22.7726 14.2859 20.9645 15.3676 19.3573C15.4671 19.2093 15.5181 19.0339 15.5135 18.8556C15.5088 18.6773 15.4488 18.5048 15.3418 18.3622L14.0527 16.6434L16.6446 14.0515L18.3634 15.3406C18.506 15.4476 18.6785 15.5076 18.8568 15.5123C19.0351 15.5169 19.2105 15.4659 19.3585 15.3664C20.9654 14.2847 22.7732 13.5368 24.6746 13.1672C24.85 13.1333 25.0105 13.0455 25.1337 12.9162C25.2569 12.7868 25.3368 12.6222 25.3621 12.4454L25.6663 10.3124H29.3324L29.6375 12.4471C29.6628 12.6239 29.7427 12.7885 29.8659 12.9179C29.9891 13.0473 30.1496 13.135 30.325 13.169C32.2264 13.5386 34.0342 14.2864 35.6411 15.3681C35.7891 15.4676 35.9645 15.5186 36.1428 15.514C36.3211 15.5093 36.4936 15.4494 36.6362 15.3423L38.3593 14.0532L40.9512 16.6451L39.6621 18.3639C39.5551 18.5066 39.4951 18.679 39.4904 18.8573C39.4858 19.0357 39.5368 19.211 39.6363 19.359C40.718 20.9662 41.4658 22.7743 41.8355 24.676C41.8694 24.8514 41.9572 25.0119 42.0865 25.1351C42.2159 25.2583 42.3805 25.3381 42.5573 25.3635L44.6869 25.6668ZM49.8431 2.57801C50.353 2.57801 50.8515 2.72922 51.2755 3.01251C51.6994 3.29579 52.0299 3.69844 52.225 4.16953C52.4201 4.64062 52.4712 5.159 52.3717 5.65911C52.2722 6.15921 52.0267 6.61859 51.6661 6.97915C51.3056 7.33971 50.8462 7.58525 50.3461 7.68473C49.846 7.7842 49.3276 7.73315 48.8565 7.53802C48.3854 7.34288 47.9828 7.01244 47.6995 6.58847C47.4162 6.1645 47.265 5.66604 47.265 5.15614C47.265 4.47238 47.5366 3.81662 48.0201 3.33313C48.5036 2.84964 49.1594 2.57801 49.8431 2.57801Z" fill="#2166F3"/>
</g>
<defs>
<clipPath id="clip0_758_689">
<rect width="55" height="55" fill="white"/>
</clipPath>
</defs>
</svg>
