<svg width="46" height="46" viewBox="0 0 46 46" fill="none" xmlns="http://www.w3.org/2000/svg">
<path d="M2.16687 22.9996C2.1663 19.0873 3.26752 15.254 5.34442 11.9386C7.42132 8.6231 10.3899 5.95956 13.9103 4.25293C17.4307 2.5463 21.3606 1.86558 25.2499 2.28872C29.1392 2.71186 32.8307 4.22175 35.9017 6.6455H32.7327C32.4582 6.64816 32.1958 6.75907 32.0026 6.95413C31.8094 7.14919 31.7011 7.41262 31.7011 7.68715C31.7011 7.96168 31.8094 8.22511 32.0026 8.42017C32.1958 8.61523 32.4582 8.72614 32.7327 8.7288H38.6252C38.9014 8.7288 39.1664 8.61905 39.3618 8.42369C39.5571 8.22834 39.6669 7.96338 39.6669 7.6871V1.79443C39.6682 1.65679 39.6422 1.52025 39.5905 1.3927C39.5387 1.26515 39.4622 1.14912 39.3654 1.05132C39.2685 0.95352 39.1532 0.875885 39.0262 0.822902C38.8991 0.76992 38.7629 0.74264 38.6252 0.74264C38.4876 0.74264 38.3513 0.76992 38.2242 0.822902C38.0972 0.875885 37.9819 0.95352 37.8851 1.05132C37.7882 1.14912 37.7117 1.26515 37.6599 1.3927C37.6082 1.52025 37.5822 1.65679 37.5836 1.79443V5.32177C33.0414 1.57483 27.2313 -0.280006 21.3583 0.141975C15.4852 0.563955 9.99995 3.23037 6.04013 7.58818C2.08032 11.946 -0.0501743 17.6608 0.0905357 23.5473C0.231246 29.4338 2.63236 35.0403 6.79587 39.2039C6.89218 39.3025 7.00708 39.3809 7.13393 39.4347C7.26077 39.4886 7.39704 39.5167 7.53483 39.5175C7.67262 39.5183 7.80921 39.4917 7.93666 39.4394C8.06412 39.387 8.17992 39.3099 8.27736 39.2124C8.37479 39.115 8.45193 38.9992 8.50429 38.8717C8.55666 38.7443 8.58321 38.6077 8.58242 38.4699C8.58162 38.3321 8.5535 38.1959 8.49967 38.069C8.44584 37.9422 8.36737 37.8273 8.26882 37.7309C6.32821 35.8009 4.78968 33.5051 3.74228 30.9765C2.69488 28.4478 2.15941 25.7366 2.16687 22.9996ZM13.8958 41.745C13.3017 41.4558 12.7216 41.1388 12.1575 40.7949C11.9217 40.651 11.6384 40.6066 11.3699 40.6716C11.1014 40.7365 10.8696 40.9055 10.7257 41.1413C10.5818 41.377 10.5374 41.6604 10.6023 41.9289C10.6673 42.1974 10.8362 42.4291 11.072 42.573C11.6929 42.9518 12.3315 43.3007 12.9855 43.6187C13.1086 43.6785 13.2422 43.7135 13.3787 43.7216C13.5152 43.7298 13.652 43.711 13.7813 43.6662C13.9106 43.6215 14.0298 43.5518 14.1321 43.461C14.2344 43.3702 14.3178 43.2601 14.3776 43.1371C14.4374 43.0141 14.4724 42.8805 14.4805 42.7439C14.4887 42.6074 14.4698 42.4706 14.4251 42.3413C14.3804 42.212 14.3106 42.0928 14.2198 41.9905C14.1291 41.8882 14.019 41.8048 13.896 41.745H13.8958ZM41.7548 13.9145C41.8144 14.0377 41.8977 14.1478 41.9999 14.2387C42.1021 14.3297 42.2212 14.3996 42.3504 14.4445C42.4797 14.4893 42.6165 14.5083 42.753 14.5004C42.8896 14.4924 43.0232 14.4576 43.1464 14.3979C43.2695 14.3383 43.3796 14.255 43.4706 14.1528C43.5615 14.0506 43.6314 13.9315 43.6763 13.8023C43.7212 13.673 43.7402 13.5362 43.7322 13.3997C43.7242 13.2631 43.6894 13.1295 43.6298 13.0063C43.3127 12.3522 42.9648 11.7134 42.5871 11.0923C42.516 10.9754 42.4225 10.8737 42.3121 10.7929C42.2017 10.7121 42.0764 10.6539 41.9435 10.6215C41.675 10.5561 41.3916 10.6 41.1555 10.7436C40.9195 10.8872 40.7501 11.1187 40.6847 11.3872C40.6194 11.6557 40.6633 11.9391 40.8069 12.1752C41.1501 12.7397 41.4664 13.3201 41.7548 13.9145ZM25.4716 43.687C24.8139 43.7651 24.1486 43.8116 23.4935 43.8274C23.2223 43.8378 22.9658 43.9537 22.7787 44.1503C22.5916 44.347 22.4887 44.609 22.4918 44.8804C22.495 45.1518 22.604 45.4113 22.7956 45.6036C22.9872 45.7958 23.2463 45.9057 23.5177 45.9098C23.5259 45.9098 23.5345 45.9098 23.5426 45.9093C24.2629 45.8925 24.9937 45.8409 25.716 45.7557C25.9901 45.723 26.2401 45.5828 26.4109 45.366C26.5818 45.1492 26.6596 44.8734 26.6273 44.5992C26.5949 44.325 26.4551 44.0749 26.2384 43.9038C26.0218 43.7327 25.7461 43.6546 25.4718 43.6866L25.4716 43.687ZM19.5431 43.5456C18.8914 43.4367 18.2452 43.2965 17.6068 43.1257C17.3398 43.0543 17.0555 43.0919 16.8162 43.2303C16.577 43.3686 16.4025 43.5963 16.3312 43.8632C16.2598 44.1302 16.2974 44.4146 16.4358 44.6538C16.5741 44.893 16.8018 45.0675 17.0687 45.1389C17.7715 45.3264 18.4829 45.4804 19.2004 45.6002C19.3353 45.6227 19.4733 45.6184 19.6066 45.5876C19.7399 45.5567 19.8658 45.4999 19.9771 45.4204C20.0884 45.341 20.183 45.2403 20.2554 45.1243C20.3278 45.0082 20.3767 44.8791 20.3992 44.7441C20.4217 44.6092 20.4174 44.4712 20.3866 44.3379C20.3557 44.2046 20.2989 44.0787 20.2194 43.9674C20.14 43.8561 20.0393 43.7615 19.9233 43.6891C19.8072 43.6167 19.6781 43.5678 19.5431 43.5453V43.5456ZM44.894 22.4974C44.6179 22.4906 44.3503 22.5938 44.1502 22.7843C43.9502 22.9747 43.8339 23.2368 43.8269 23.513C43.8101 24.1742 43.7624 24.8343 43.684 25.491C43.6513 25.7654 43.7289 26.0414 43.8997 26.2586C44.0705 26.4757 44.3206 26.6162 44.5949 26.6491C44.6364 26.6538 44.6782 26.6561 44.72 26.6562C44.9746 26.6559 45.2202 26.5623 45.4106 26.3931C45.6009 26.224 45.7227 25.9911 45.753 25.7383C45.8389 25.0167 45.891 24.2914 45.9092 23.5649C45.9127 23.4282 45.8892 23.292 45.8401 23.1644C45.7909 23.0367 45.7171 22.9199 45.6228 22.8208C45.5286 22.7216 45.4157 22.6421 45.2906 22.5866C45.1656 22.5311 45.0308 22.5007 44.894 22.4974ZM41.6967 34.4122C41.4681 34.2572 41.1874 34.1993 40.9161 34.2511C40.6448 34.3028 40.4052 34.4601 40.2497 34.6884C39.878 35.2353 39.4806 35.7643 39.059 36.2737C38.9696 36.3788 38.9021 36.5006 38.8602 36.6319C38.8183 36.7633 38.8029 36.9017 38.815 37.0391C38.827 37.1765 38.8662 37.3101 38.9303 37.4322C38.9944 37.5543 39.0821 37.6625 39.1883 37.7504C39.2945 37.8383 39.4171 37.9043 39.5491 37.9445C39.681 37.9847 39.8196 37.9982 39.9568 37.9844C40.094 37.9706 40.2271 37.9296 40.3483 37.864C40.4696 37.7983 40.5766 37.7092 40.6632 37.6018C41.127 37.0419 41.5641 36.4602 41.9728 35.8588C42.0497 35.7457 42.1035 35.6185 42.1312 35.4846C42.159 35.3507 42.16 35.2126 42.1344 35.0783C42.1088 34.944 42.0569 34.816 41.9818 34.7017C41.9067 34.5874 41.8099 34.4891 41.6967 34.4122ZM43.1321 17.6255C43.3019 18.2641 43.4412 18.9104 43.5497 19.5623C43.59 19.8055 43.7153 20.0265 43.9032 20.186C44.0912 20.3455 44.3295 20.4332 44.576 20.4336C44.6335 20.4335 44.6908 20.4287 44.7474 20.4193C44.8824 20.3969 45.0116 20.3482 45.1278 20.2759C45.2439 20.2035 45.3446 20.109 45.4242 19.9977C45.5038 19.8864 45.5607 19.7606 45.5916 19.6273C45.6225 19.494 45.6269 19.3559 45.6045 19.221C45.4854 18.5036 45.3323 17.7922 45.1455 17.0893C45.0744 16.8224 44.9001 16.5946 44.6611 16.4561C44.4221 16.3176 44.1378 16.2797 43.8708 16.3508C43.6039 16.4219 43.3761 16.5962 43.2376 16.8352C43.0991 17.0742 43.0612 17.3585 43.1323 17.6255H43.1321ZM36.2565 39.0727C35.7472 39.494 35.2182 39.8909 34.6712 40.2619C34.5579 40.3387 34.461 40.4369 34.3857 40.5512C34.3105 40.6654 34.2585 40.7933 34.2327 40.9277C34.2069 41.062 34.2079 41.2001 34.2355 41.334C34.263 41.468 34.3167 41.5952 34.3935 41.7084C34.4702 41.8217 34.5685 41.9186 34.6828 41.9939C34.797 42.0691 34.9249 42.1211 35.0592 42.1469C35.1936 42.1727 35.3316 42.1717 35.4656 42.1442C35.5996 42.1166 35.7268 42.0629 35.84 41.9861C36.4417 41.5782 37.0236 41.142 37.5841 40.679C37.7971 40.503 37.9314 40.2495 37.9575 39.9744C37.9837 39.6993 37.8995 39.4251 37.7234 39.2121C37.5474 38.9991 37.2939 38.8648 37.0188 38.8386C36.7437 38.8125 36.4695 38.8967 36.2565 39.0727ZM44.1509 28.6846C43.8877 28.601 43.6021 28.6252 43.3568 28.7519C43.1114 28.8787 42.9264 29.0975 42.8423 29.3605C42.6412 29.9899 42.4102 30.6092 42.15 31.2165C42.0932 31.3426 42.062 31.4788 42.0584 31.6172C42.0549 31.7555 42.0788 31.8931 42.129 32.022C42.1792 32.151 42.2546 32.2686 42.3508 32.3681C42.4469 32.4675 42.5619 32.5469 42.6891 32.6014C42.8162 32.6559 42.953 32.6846 43.0913 32.6857C43.2297 32.6868 43.3669 32.6603 43.4949 32.6078C43.6229 32.5553 43.7391 32.4778 43.8368 32.3799C43.9346 32.2819 44.0118 32.1655 44.064 32.0374C44.3511 31.3688 44.6055 30.6866 44.8264 29.9933C44.8681 29.863 44.8836 29.7258 44.8722 29.5894C44.8608 29.4531 44.8226 29.3204 44.7599 29.1989C44.6971 29.0774 44.611 28.9694 44.5065 28.8811C44.402 28.7929 44.2812 28.7261 44.1509 28.6846ZM31.1971 42.158C30.5897 42.4178 29.9702 42.6485 29.3407 42.8492C29.2104 42.8908 29.0895 42.9576 28.985 43.0458C28.8805 43.1341 28.7944 43.242 28.7317 43.3636C28.6689 43.4851 28.6307 43.6178 28.6192 43.7541C28.6077 43.8904 28.6232 44.0276 28.6647 44.1579C28.7063 44.2882 28.7731 44.4091 28.8613 44.5136C28.9496 44.6181 29.0575 44.7042 29.1791 44.7669C29.3006 44.8297 29.4333 44.8679 29.5696 44.8794C29.7059 44.8909 29.8431 44.8754 29.9734 44.8339C30.6663 44.6131 31.3483 44.3594 32.0171 44.0735C32.2711 43.9647 32.4715 43.7595 32.5742 43.503C32.6769 43.2464 32.6734 42.9596 32.5647 42.7056C32.4559 42.4516 32.2507 42.2512 31.9941 42.1485C31.7376 42.0458 31.4508 42.0492 31.1968 42.158H31.1971Z" fill="#2166F3"/>
<path d="M14.1903 20.8718C14.1903 19.1645 13.0678 17.7966 11.3304 17.3864C10.3759 17.1604 9.373 17.2645 8.48535 17.6818C7.5977 18.0992 6.87773 18.8051 6.44297 19.6844C6.32123 19.9313 6.30217 20.2163 6.38995 20.4773C6.47772 20.7382 6.66521 20.9538 6.91144 21.0769C7.15766 21.2 7.44261 21.2207 7.70402 21.1343C7.96543 21.048 8.18205 20.8617 8.30654 20.6162C8.52894 20.1547 8.90305 19.7834 9.36631 19.5646C9.82957 19.3458 10.3539 19.2927 10.8517 19.4141C11.1462 19.4835 12.1069 19.7942 12.1069 20.8718C12.1069 21.9582 10.8521 22.7962 9.52363 23.6835C8.02773 24.6819 6.33301 25.8136 6.33301 27.6874C6.33301 27.9637 6.44276 28.2286 6.63811 28.424C6.83347 28.6193 7.09843 28.7291 7.37471 28.7291H13.1486C13.2863 28.7304 13.4228 28.7045 13.5504 28.6527C13.6779 28.601 13.7939 28.5245 13.8917 28.4276C13.9895 28.3307 14.0672 28.2155 14.1202 28.0884C14.1731 27.9614 14.2004 27.8251 14.2004 27.6874C14.2004 27.5498 14.1731 27.4135 14.1202 27.2865C14.0672 27.1594 13.9895 27.0442 13.8917 26.9473C13.7939 26.8504 13.6779 26.7739 13.5504 26.7222C13.4228 26.6704 13.2863 26.6445 13.1486 26.6458H9.02168C9.45811 26.2323 10.075 25.8203 10.6803 25.4159C12.3259 24.3173 14.1903 23.0722 14.1903 20.8718ZM24.0414 24.3019C24.0414 24.0257 23.9316 23.7608 23.7363 23.5654C23.5409 23.3701 23.276 23.2603 22.9997 23.2603H22.1533V17.7265C22.1533 17.5107 22.0863 17.3003 21.9615 17.1243C21.8368 16.9483 21.6605 16.8153 21.457 16.7438C21.2534 16.6722 21.0327 16.6657 20.8253 16.7249C20.6178 16.7842 20.4339 16.9064 20.2989 17.0747L15.0255 23.6505C14.9028 23.8037 14.8259 23.9884 14.8036 24.1834C14.7813 24.3784 14.8145 24.5757 14.8995 24.7526C14.9844 24.9296 15.1176 25.0789 15.2837 25.1835C15.4498 25.288 15.642 25.3436 15.8383 25.3436H20.07V28.2733C20.0687 28.411 20.0946 28.5475 20.1464 28.6751C20.1981 28.8026 20.2747 28.9186 20.3715 29.0164C20.4684 29.1142 20.5837 29.1919 20.7107 29.2449C20.8377 29.2978 20.974 29.3251 21.1117 29.3251C21.2493 29.3251 21.3856 29.2978 21.5126 29.2449C21.6397 29.1919 21.755 29.1142 21.8518 29.0164C21.9487 28.9186 22.0252 28.8026 22.0769 28.6751C22.1287 28.5475 22.1547 28.411 22.1533 28.2733V25.3436H22.9997C23.276 25.3436 23.5409 25.2339 23.7363 25.0385C23.9317 24.8432 24.0414 24.5782 24.0414 24.3019ZM20.07 23.2603H18.0095L20.07 20.6902V23.2603ZM29.3728 16.1192C29.2386 16.0921 29.1004 16.0918 28.9661 16.1182C28.8318 16.1446 28.7041 16.1973 28.5902 16.2732C28.4763 16.3491 28.3785 16.4468 28.3025 16.5606C28.2264 16.6744 28.1736 16.8021 28.147 16.9363L25.8032 28.6551C25.749 28.9259 25.8046 29.2073 25.9578 29.4371C26.111 29.667 26.3492 29.8266 26.6201 29.8809C26.6876 29.8943 26.7563 29.9011 26.8252 29.9012C27.0658 29.9009 27.2989 29.8174 27.4849 29.6648C27.6708 29.5122 27.7983 29.2999 27.8455 29.064L30.1893 17.3452C30.2162 17.2111 30.2164 17.073 30.19 16.9388C30.1635 16.8046 30.1109 16.6769 30.035 16.563C29.9592 16.4492 29.8617 16.3514 29.7481 16.2752C29.6344 16.1991 29.5069 16.1461 29.3728 16.1192ZM34.718 28.7296C34.9237 28.7295 35.1248 28.6685 35.2959 28.5544C35.467 28.4402 35.6006 28.278 35.6798 28.0882L39.586 18.7132C39.6521 18.5549 39.678 18.3827 39.6615 18.212C39.6451 18.0413 39.5867 17.8773 39.4916 17.7346C39.3964 17.5918 39.2675 17.4748 39.1163 17.3939C38.9651 17.313 38.7962 17.2707 38.6247 17.2707H33.3513C33.0768 17.2734 32.8144 17.3843 32.6212 17.5793C32.428 17.7744 32.3197 18.0378 32.3197 18.3123C32.3197 18.5869 32.428 18.8503 32.6212 19.0454C32.8144 19.2404 33.0768 19.3513 33.3513 19.354H37.0622L33.7571 27.287C33.6914 27.4453 33.6657 27.6173 33.6823 27.7879C33.6989 27.9585 33.7572 28.1224 33.8522 28.2651C33.9472 28.4077 34.0759 28.5248 34.2269 28.6059C34.3779 28.687 34.5466 28.7296 34.718 28.73V28.7296Z" fill="#2166F3"/>
</svg>
