<svg width="55" height="51" viewBox="0 0 55 51" fill="none" xmlns="http://www.w3.org/2000/svg">
<path d="M35.9391 35.5158L27.9297 30.8912C27.7991 30.8158 27.6509 30.7761 27.5 30.7761C27.3492 30.7761 27.201 30.8158 27.0703 30.8912L19.061 35.5158C18.9303 35.5911 18.8218 35.6995 18.7464 35.83C18.671 35.9606 18.6313 36.1087 18.6313 36.2594V45.4846C18.6313 45.6355 18.671 45.7837 18.7464 45.9145C18.8218 46.0452 18.9303 46.1538 19.061 46.2293L27.0703 50.8528C27.2009 50.9285 27.3491 50.9685 27.5 50.9685C27.6509 50.9685 27.7992 50.9285 27.9297 50.8528L35.9391 46.2293C36.0697 46.1538 36.1782 46.0452 36.2536 45.9145C36.329 45.7837 36.3687 45.6355 36.3688 45.4846V36.2594C36.3688 36.1087 36.3291 35.9606 36.2536 35.83C36.1782 35.6995 36.0697 35.5911 35.9391 35.5158ZM27.5 32.6283L33.7906 36.2594L27.5 39.8917L21.2094 36.2594L27.5 32.6283ZM20.35 37.7479L26.6406 41.3802V48.6207L20.35 44.9884V37.7479ZM34.65 44.9884L28.3594 48.6207V41.3802L34.65 37.7479V44.9884ZM15.4218 17.9605C15.5723 17.9611 15.7202 17.9216 15.8503 17.8459L19.4998 15.7399L27.0703 20.1147C27.2009 20.1904 27.3491 20.2303 27.5 20.2303C27.6509 20.2303 27.7992 20.1904 27.9297 20.1147L35.5002 15.7444L39.1497 17.8505C39.2798 17.9261 39.4277 17.9657 39.5782 17.9651C39.7677 17.9655 39.952 17.9034 40.1025 17.7883C40.253 17.6732 40.3612 17.5116 40.4103 17.3286C40.4595 17.1456 40.4468 16.9516 40.3742 16.7765C40.3016 16.6015 40.1733 16.4554 40.0091 16.3609L36.3688 14.256V5.51559C36.3687 5.36467 36.329 5.21641 36.2536 5.08568C36.1782 4.95495 36.0697 4.84636 35.9391 4.7708L27.9297 0.147361C27.7991 0.071935 27.6509 0.0322266 27.5 0.0322266C27.3492 0.0322266 27.201 0.071935 27.0703 0.147361L19.061 4.7708C18.9303 4.84636 18.8218 4.95495 18.7464 5.08568C18.671 5.21641 18.6313 5.36467 18.6313 5.51559V14.256L14.991 16.3575C14.8268 16.452 14.6984 16.5981 14.6258 16.7731C14.5533 16.9481 14.5406 17.1422 14.5897 17.3252C14.6389 17.5081 14.7471 17.6697 14.8976 17.7848C15.048 17.8999 15.2323 17.961 15.4218 17.9605ZM32.151 11.8177C32.0531 11.7612 31.9452 11.7246 31.8332 11.7099C31.7213 11.6952 31.6075 11.7027 31.4985 11.732C31.3894 11.7612 31.2872 11.8117 31.1976 11.8805C31.108 11.9492 31.0329 12.035 30.9765 12.1328C30.92 12.2306 30.8834 12.3385 30.8687 12.4505C30.854 12.5625 30.8615 12.6762 30.8908 12.7853C30.92 12.8943 30.9705 12.9966 31.0393 13.0861C31.108 13.1757 31.1938 13.2508 31.2916 13.3073L33.7849 14.7476L28.3594 17.8768V10.6352L32.8144 8.06392L34.6477 7.00288V13.2626L32.151 11.8177ZM27.5 1.8833L33.7906 5.51559L27.5 9.14674L21.2094 5.51559L27.5 1.8833ZM20.35 7.00288L22.1834 8.06392L26.6384 10.6352V17.8768L21.2163 14.7464L23.7096 13.3061C23.8074 13.2497 23.8931 13.1745 23.9619 13.085C24.0307 12.9954 24.0811 12.8932 24.1104 12.7841C24.1397 12.6751 24.1471 12.5613 24.1324 12.4494C24.1177 12.3374 24.0811 12.2294 24.0247 12.1316C23.9683 12.0338 23.8931 11.9481 23.8036 11.8793C23.714 11.8106 23.6118 11.7601 23.5027 11.7308C23.3937 11.7016 23.2799 11.6941 23.168 11.7088C23.056 11.7235 22.948 11.7601 22.8502 11.8165L20.35 13.2626V7.00288ZM20.1449 33.2356C20.275 33.3112 20.423 33.3508 20.5735 33.3502C20.7629 33.3506 20.9472 33.2885 21.0977 33.1734C21.2482 33.0583 21.3564 32.8967 21.4055 32.7137C21.4547 32.5307 21.442 32.3367 21.3694 32.1617C21.2968 31.9866 21.1685 31.8405 21.0043 31.746L17.7375 29.8623V21.1459C17.7375 20.995 17.6978 20.8467 17.6224 20.716C17.5469 20.5853 17.4385 20.4767 17.3078 20.4011L9.29846 15.7765C9.16781 15.7011 9.01962 15.6614 8.86877 15.6614C8.71792 15.6614 8.56972 15.7011 8.43908 15.7765L0.429706 20.3954C0.298217 20.4714 0.1892 20.5809 0.113731 20.7127C0.038261 20.8446 -0.000971694 20.994 1.82816e-05 21.1459V30.371C6.4949e-06 30.5218 0.0397155 30.6699 0.115148 30.8004C0.19058 30.931 0.299073 31.0394 0.429706 31.1147L8.43908 35.7392C8.56961 35.815 8.71785 35.8549 8.86877 35.8549C9.01969 35.8549 9.16793 35.815 9.29846 35.7392L16.8839 31.3599L20.1449 33.2356ZM8.86877 17.5079L15.1594 21.1402L8.86877 24.7713L2.57814 21.1459L8.86877 17.5079ZM1.71877 22.6286L3.5521 23.6885L8.00939 26.2609V33.5003L1.71877 29.868V22.6286ZM9.72814 33.5003V26.2609L14.1831 23.6885L16.0165 22.6286V28.87L13.0843 27.1776C12.8868 27.0636 12.652 27.0328 12.4318 27.0919C12.2115 27.151 12.0238 27.2951 11.9098 27.4927C11.7959 27.6902 11.765 27.9249 11.8241 28.1452C11.8832 28.3654 12.0274 28.5532 12.2249 28.6672L15.1628 30.363L9.72814 33.5003ZM54.5703 20.3954L46.561 15.7708C46.4303 15.6954 46.2821 15.6557 46.1313 15.6557C45.9804 15.6557 45.8322 15.6954 45.7016 15.7708L37.6979 20.3954C37.5673 20.4709 37.4588 20.5795 37.3834 20.7103C37.308 20.841 37.2683 20.9893 37.2682 21.1402V29.8623L34.0015 31.7483C33.8373 31.8428 33.7089 31.9889 33.6364 32.1639C33.5638 32.3389 33.5511 32.533 33.6002 32.716C33.6494 32.899 33.7576 33.0606 33.9081 33.1757C34.0586 33.2908 34.2429 33.3529 34.4323 33.3525C34.5828 33.3531 34.7307 33.3135 34.8609 33.2379L38.1219 31.3564L45.7073 35.7358C45.8378 35.8116 45.9861 35.8515 46.137 35.8515C46.2879 35.8515 46.4362 35.8116 46.5667 35.7358L54.5761 31.1112C54.706 31.035 54.8135 30.926 54.8879 30.795C54.9624 30.6641 55.001 30.5159 55 30.3653V21.1459C55.001 20.994 54.9618 20.8446 54.8863 20.7127C54.8108 20.5809 54.7018 20.4714 54.5703 20.3954ZM46.1313 17.5079L52.4219 21.1402L46.1313 24.7713L39.8406 21.1459L46.1313 17.5079ZM43.0834 27.4915C43.027 27.3938 42.9519 27.3082 42.8624 27.2395C42.7729 27.1708 42.6708 27.1205 42.5618 27.0913C42.4528 27.0621 42.3391 27.0547 42.2273 27.0695C42.1155 27.0844 42.0077 27.1211 41.91 27.1776L38.9813 28.87V22.6286L40.8146 23.6885L45.2696 26.2609V33.5003L39.8326 30.3618L42.7705 28.666C42.8682 28.6094 42.9538 28.5342 43.0223 28.4445C43.0909 28.3549 43.1412 28.2526 43.1702 28.1436C43.1993 28.0345 43.2065 27.9208 43.1916 27.8089C43.1767 27.697 43.1399 27.5892 43.0834 27.4915ZM46.9872 33.5003V26.2609L51.4479 23.6885L53.2813 22.6286V29.868L46.9872 33.5003Z" fill="#2166F3"/>
</svg>
