<svg width="60" height="60" viewBox="0 0 60 60" fill="none" xmlns="http://www.w3.org/2000/svg">
<path d="M55.4905 33.9089V31.8608H55.7499C57.2197 31.8608 58.4157 30.6649 58.4157 29.195V17.3106C58.4157 15.8408 57.2198 14.6448 55.7499 14.6448H55.4905V9.98051C55.4907 9.97312 55.4927 9.96621 55.4927 9.95883V5.31703C55.4926 2.77313 53.4227 0.703125 50.8788 0.703125H8.73043C6.18547 0.703125 4.1157 2.77465 4.1157 5.31879V14.6516C2.7084 14.7221 1.58398 15.8861 1.58398 17.3106V29.1949C1.58398 30.6195 2.70828 31.7834 4.1157 31.8539V33.9088C4.1157 36.4519 6.18652 38.5205 8.73172 38.5205H16.7513C16.9271 38.5172 17.0945 38.4451 17.2177 38.3196C17.3408 38.1941 17.4098 38.0254 17.4098 37.8496C17.4098 37.6738 17.3408 37.505 17.2177 37.3795C17.0945 37.2541 16.9271 37.182 16.7513 37.1787H8.73172C6.92645 37.1787 5.4575 35.712 5.4575 33.9088V31.8607H25.9162C26.092 31.8574 26.2594 31.7853 26.3826 31.6598C26.5057 31.5344 26.5747 31.3656 26.5747 31.1898C26.5747 31.014 26.5057 30.8452 26.3826 30.7198C26.2594 30.5943 26.092 30.5222 25.9162 30.5189H4.24977C3.51992 30.5189 2.92578 29.9249 2.92578 29.1949V17.3106C2.92578 16.5807 3.5198 15.9866 4.24977 15.9866H55.7499C56.4798 15.9866 57.0739 16.5806 57.0739 17.3106V29.1949C57.0739 29.9248 56.4799 30.5189 55.7499 30.5189H33.6943C33.5185 30.5222 33.3511 30.5943 33.2279 30.7198C33.1048 30.8452 33.0358 31.014 33.0358 31.1898C33.0358 31.3656 33.1048 31.5344 33.2279 31.6598C33.3511 31.7853 33.5185 31.8574 33.6943 31.8607H54.1487V33.9088C54.1487 35.7118 52.682 37.1787 50.8788 37.1787H42.8592C42.6834 37.182 42.516 37.2541 42.3928 37.3795C42.2697 37.505 42.2007 37.6738 42.2007 37.8496C42.2007 38.0254 42.2697 38.1941 42.3928 38.3196C42.516 38.4451 42.6834 38.5172 42.8592 38.5205H50.8788C53.4218 38.5206 55.4905 36.4519 55.4905 33.9089ZM5.4575 10.6298H54.1486V14.6449H5.4575V10.6298ZM50.8788 2.04504C52.6818 2.04504 54.1487 3.51352 54.1487 5.31879V9.28793H5.45844V5.31703C5.45844 3.52055 6.91906 2.04504 8.73184 2.04504H50.8788Z" fill="black"/>
<path d="M7.96289 5.66648C7.96289 6.86332 8.93695 7.83738 10.1338 7.83738C11.3311 7.83738 12.3052 6.86332 12.3052 5.66648C12.3052 4.46918 11.3311 3.49512 10.1338 3.49512C8.93684 3.49512 7.96289 4.46918 7.96289 5.66648ZM10.1337 4.83703C10.5911 4.83703 10.9631 5.20922 10.9631 5.66648C10.9631 6.12375 10.5909 6.49547 10.1337 6.49547C9.67641 6.49547 9.30469 6.12375 9.30469 5.66648C9.30469 5.20922 9.67641 4.83703 10.1337 4.83703ZM15.6553 7.83738C16.8521 7.83738 17.8262 6.86332 17.8262 5.66648C17.8262 4.46918 16.8521 3.49512 15.6553 3.49512C14.458 3.49512 13.4839 4.46918 13.4839 5.66648C13.4839 6.86332 14.458 7.83738 15.6553 7.83738ZM15.6553 4.83703C16.1127 4.83703 16.4843 5.20922 16.4843 5.66648C16.4843 6.12375 16.1126 6.49547 15.6553 6.49547C15.1979 6.49547 14.8259 6.12375 14.8259 5.66648C14.8259 5.20922 15.1979 4.83703 15.6553 4.83703ZM21.1764 7.83738C22.3737 7.83738 23.3477 6.86332 23.3477 5.66648C23.3477 4.46918 22.3737 3.49512 21.1764 3.49512C19.9795 3.49512 19.0055 4.46918 19.0055 5.66648C19.0055 6.86332 19.9795 7.83738 21.1764 7.83738ZM21.1764 4.83703C21.6337 4.83703 22.0058 5.20922 22.0058 5.66648C22.0058 6.12375 21.6336 6.49547 21.1764 6.49547C20.719 6.49547 20.3474 6.12375 20.3474 5.66648C20.3474 5.20922 20.7191 4.83703 21.1764 4.83703ZM34.1091 7.70848H50.1744C51.3005 7.70848 52.2164 6.79254 52.2164 5.66648C52.2164 4.54043 51.3005 3.62449 50.1744 3.62449H34.1091C32.983 3.62449 32.0671 4.54043 32.0671 5.66648C32.0671 6.79254 32.983 7.70848 34.1091 7.70848ZM34.1091 4.96629H50.1744C50.5605 4.96629 50.8746 5.28035 50.8746 5.66648C50.8746 6.05262 50.5605 6.36668 50.1744 6.36668H34.1091C33.7229 6.36668 33.4089 6.05262 33.4089 5.66648C33.4089 5.28035 33.7229 4.96629 34.1091 4.96629ZM18.8286 19.0845C19.2877 19.0845 19.7433 19.1557 20.1823 19.2954C20.2662 19.3224 20.3546 19.3325 20.4424 19.3253C20.5303 19.318 20.6158 19.2934 20.6942 19.253C20.7725 19.2126 20.8421 19.1571 20.8989 19.0897C20.9557 19.0224 20.9987 18.9444 21.0253 18.8604C21.0521 18.7765 21.0621 18.6881 21.0548 18.6003C21.0474 18.5125 21.0228 18.4271 20.9824 18.3488C20.942 18.2705 20.8866 18.2009 20.8193 18.1441C20.7521 18.0872 20.6742 18.0441 20.5903 18.0173C20.0208 17.8354 19.4266 17.7427 18.8288 17.7427C15.6532 17.7427 13.07 20.3258 13.07 23.5014C13.07 26.6769 15.6532 29.2601 18.8288 29.2601C19.4268 29.2601 20.0195 29.1675 20.5903 28.9854C20.6742 28.9586 20.7521 28.9155 20.8193 28.8587C20.8866 28.8018 20.942 28.7322 20.9824 28.654C21.0228 28.5757 21.0474 28.4902 21.0548 28.4024C21.0621 28.3146 21.0521 28.2263 21.0253 28.1423C20.913 27.7894 20.5365 27.5929 20.1823 27.7073C19.7446 27.847 19.288 27.9182 18.8286 27.9183C16.393 27.9183 14.4117 25.937 14.4117 23.5014C14.4117 21.0657 16.393 19.0845 18.8286 19.0845ZM34.7289 28.7634C34.9068 28.7634 35.0774 28.6927 35.2032 28.5669C35.329 28.4411 35.3997 28.2705 35.3998 28.0925V17.9174C35.3996 17.7727 35.3527 17.632 35.2661 17.5161C35.1794 17.4003 35.0577 17.3155 34.919 17.2745C34.7803 17.2335 34.632 17.2383 34.4963 17.2884C34.3606 17.3384 34.2446 17.431 34.1658 17.5522L30.4918 23.2161L26.8184 17.5522C26.7397 17.4307 26.6237 17.3379 26.4879 17.2877C26.3521 17.2376 26.2036 17.2328 26.0648 17.274C25.9261 17.3152 25.8044 17.4 25.7178 17.516C25.6312 17.6319 25.5844 17.7727 25.5844 17.9174V28.0925C25.5877 28.2683 25.6598 28.4358 25.7852 28.5589C25.9107 28.682 26.0795 28.751 26.2553 28.751C26.4311 28.751 26.5998 28.682 26.7253 28.5589C26.8508 28.4358 26.9229 28.2683 26.9262 28.0925V20.1847L29.9288 24.8139C29.9898 24.9076 30.0732 24.9847 30.1715 25.0381C30.2699 25.0915 30.38 25.1195 30.4918 25.1196C30.6037 25.1195 30.7138 25.0915 30.8121 25.0381C30.9104 24.9847 30.9939 24.9076 31.0549 24.8139L34.0579 20.1843V28.0924C34.0579 28.2704 34.1286 28.441 34.2545 28.5668C34.3803 28.6927 34.5509 28.7634 34.7289 28.7634ZM42.219 19.0845H43.6407C44.6733 19.0845 45.5137 19.9248 45.5137 20.9575C45.517 21.1332 45.5892 21.3007 45.7146 21.4238C45.8401 21.547 46.0089 21.6159 46.1846 21.6159C46.3604 21.6159 46.5292 21.547 46.6547 21.4238C46.7801 21.3007 46.8523 21.1332 46.8555 20.9575C46.8555 19.1849 45.4132 17.7427 43.6407 17.7427H42.219C40.4464 17.7427 39.0047 19.185 39.0047 20.9575C39.0047 22.73 40.4466 24.1723 42.219 24.1723H43.7155C44.748 24.1723 45.5885 25.0126 45.5885 26.0453C45.5885 27.0779 44.7482 27.9183 43.7155 27.9183H42.2943C41.2617 27.9183 40.4212 27.0779 40.4212 26.0453C40.418 25.8695 40.3458 25.7021 40.2204 25.5789C40.0949 25.4558 39.9261 25.3868 39.7504 25.3868C39.5746 25.3868 39.4058 25.4558 39.2803 25.5789C39.1549 25.7021 39.0827 25.8695 39.0795 26.0453C39.0795 27.8179 40.5218 29.2601 42.2943 29.2601H43.7156C45.4882 29.2601 46.9304 27.8177 46.9304 26.0453C46.9304 24.2728 45.4881 22.8305 43.7156 22.8305H42.2191C41.1866 22.8305 40.3466 21.9901 40.3466 20.9575C40.3466 19.9248 41.1865 19.0845 42.219 19.0845ZM41.3119 49.385C42.3654 49.385 43.2229 48.528 43.2229 47.4745V44.2833C43.2229 43.2298 42.3654 42.3723 41.3119 42.3723H39.7395C39.6148 42.0185 39.4711 41.6716 39.3093 41.3332L40.4218 40.2216C41.1661 39.4764 41.1661 38.2643 40.4214 37.5191L38.1649 35.2622C37.4197 34.5175 36.2077 34.5187 35.4625 35.2627L34.3508 36.3743C34.0123 36.2127 33.6655 36.0692 33.3117 35.9445V34.372C33.3117 33.3185 32.4543 32.4611 31.4007 32.4611H28.2095C27.156 32.4611 26.299 33.3185 26.299 34.372V35.9445C25.945 36.0691 25.598 36.2126 25.2594 36.3743L24.1478 35.2627C23.4011 34.5159 22.1924 34.5161 21.4458 35.2627L19.1893 37.5191C18.4441 38.2643 18.4441 39.4764 19.1893 40.2216L20.301 41.3332C20.139 41.6716 19.9954 42.0185 19.8708 42.3723H18.2984C17.2448 42.3723 16.3874 43.2298 16.3874 44.2833V47.4745C16.3874 48.528 17.2448 49.385 18.2984 49.385H19.8708C19.9954 49.739 20.139 50.0861 20.301 50.4246L19.1893 51.5358C18.4406 52.2845 18.4438 53.4935 19.1893 54.2382L21.4454 56.4947C22.1941 57.2434 23.4032 57.2402 24.1479 56.4947L25.2595 55.383C25.5981 55.545 25.9451 55.6886 26.2991 55.8132V57.3857C26.2991 58.4392 27.1561 59.2966 28.2096 59.2966H31.4009C32.4544 59.2966 33.3118 58.4392 33.3118 57.3857V55.8132C33.6657 55.6886 34.0126 55.545 34.3509 55.383L35.4626 56.4947C36.2078 57.2404 37.4198 57.2394 38.165 56.4947L40.4215 54.2382C41.1682 53.4915 41.1681 52.2829 40.4215 51.5362L39.3094 50.4246C39.4713 50.0861 39.615 49.739 39.7396 49.385H41.3119ZM38.0162 51.0292L39.4725 52.485C39.5791 52.5917 39.639 52.7364 39.639 52.8873C39.639 53.0382 39.5791 53.1829 39.4725 53.2896L37.2161 55.5461C37.0016 55.761 36.6264 55.761 36.4111 55.5461L34.9553 54.0902C34.8532 53.988 34.7208 53.9215 34.5779 53.9006C34.435 53.8797 34.2891 53.9055 34.162 53.9741C33.6163 54.2683 33.042 54.5061 32.448 54.6839C32.3098 54.7252 32.1885 54.8101 32.1024 54.9259C32.0162 55.0416 31.9697 55.1821 31.9698 55.3264V57.3859C31.9696 57.5368 31.9095 57.6814 31.8028 57.7881C31.6961 57.8948 31.5515 57.9548 31.4006 57.9551H28.2094C28.0585 57.9548 27.914 57.8948 27.8073 57.7881C27.7007 57.6814 27.6408 57.5367 27.6407 57.3859V55.3264C27.6407 55.1821 27.5942 55.0417 27.5081 54.9259C27.4219 54.8101 27.3007 54.7253 27.1624 54.6839C26.5683 54.5063 25.9938 54.2684 25.448 53.9741C25.3209 53.9055 25.175 53.8798 25.0321 53.9007C24.8892 53.9216 24.7568 53.9881 24.6547 54.0902L23.1984 55.5461C22.9845 55.761 22.6092 55.761 22.3943 55.5461L20.1379 53.2891C20.0304 53.1821 19.971 53.0393 19.971 52.8873C19.971 52.7353 20.0304 52.5925 20.1379 52.485L21.5937 51.0292C21.6958 50.927 21.7622 50.7947 21.7831 50.6518C21.8041 50.5089 21.7783 50.3631 21.7098 50.2359C21.4155 49.6901 21.1777 49.1156 21 48.5215C20.9587 48.3832 20.8738 48.262 20.7581 48.1758C20.6423 48.0896 20.5018 48.0431 20.3575 48.0432H18.298C18.1472 48.0431 18.0026 47.9831 17.8959 47.8765C17.7892 47.7699 17.7291 47.6254 17.7288 47.4745V44.2833C17.7291 44.1324 17.7891 43.9878 17.8958 43.8811C18.0025 43.7744 18.1471 43.7143 18.298 43.7141H20.3575C20.5018 43.7142 20.6423 43.6677 20.758 43.5815C20.8738 43.4953 20.9587 43.3741 21 43.2359C21.1778 42.6419 21.4156 42.0676 21.7098 41.5219C21.7783 41.3947 21.804 41.2489 21.7831 41.106C21.7622 40.9631 21.6958 40.8308 21.5937 40.7286L20.1379 39.2728C20.0848 39.2201 20.0428 39.1574 20.0142 39.0884C19.9855 39.0193 19.9708 38.9453 19.971 38.8705C19.971 38.7185 20.0304 38.5752 20.1379 38.4677L22.3943 36.2113C22.6092 35.9964 22.984 35.9964 23.1989 36.2113L24.6547 37.6671C24.7567 37.7694 24.8889 37.8359 25.0318 37.8569C25.1747 37.8778 25.3205 37.852 25.4475 37.7832C25.9937 37.4894 26.5683 37.2517 27.1624 37.0739C27.3007 37.0326 27.4219 36.9477 27.5081 36.832C27.5943 36.7162 27.6408 36.5757 27.6407 36.4314V34.3719C27.6408 34.2211 27.7008 34.0765 27.8074 33.9698C27.914 33.8631 28.0585 33.803 28.2094 33.8027H31.4006C31.5515 33.803 31.6961 33.863 31.8028 33.9697C31.9095 34.0764 31.9696 34.221 31.9698 34.3719V36.4314C31.9697 36.5757 32.0162 36.7162 32.1024 36.8319C32.1886 36.9477 32.3098 37.0326 32.448 37.0739C33.0434 37.2521 33.6199 37.4911 34.1625 37.7832C34.2896 37.8517 34.4353 37.8774 34.5781 37.8565C34.7209 37.8355 34.8532 37.7691 34.9553 37.6671L36.4111 36.2118C36.4639 36.1589 36.5266 36.1169 36.5957 36.0883C36.6647 36.0596 36.7387 36.0448 36.8135 36.0448C36.8882 36.0448 36.9622 36.0594 37.0313 36.088C37.1004 36.1166 37.1632 36.1585 37.2161 36.2113L39.4721 38.4677C39.5786 38.5746 39.6385 38.7193 39.6386 38.8701C39.6387 39.021 39.579 39.1657 39.4726 39.2727L38.0163 40.7285C37.9142 40.8307 37.8478 40.963 37.8269 41.1059C37.8059 41.2488 37.8317 41.3946 37.9002 41.5218C38.1944 42.0675 38.4322 42.6418 38.61 43.2357C38.6513 43.374 38.7362 43.4953 38.8519 43.5814C38.9677 43.6676 39.1082 43.7141 39.2525 43.714H41.312C41.4629 43.7142 41.6075 43.7743 41.7142 43.881C41.8209 43.9877 41.8809 44.1323 41.8812 44.2832V47.4744C41.8809 47.6252 41.8209 47.7698 41.7142 47.8764C41.6075 47.9831 41.4628 48.043 41.312 48.0431H39.2525C39.1082 48.0431 38.9677 48.0896 38.852 48.1757C38.7362 48.2619 38.6514 48.3831 38.61 48.5214C38.4324 49.1155 38.1945 49.69 37.9002 50.2358C37.8316 50.3629 37.8058 50.5088 37.8267 50.6517C37.8476 50.7947 37.9141 50.927 38.0162 51.0292Z" fill="black"/>
<path d="M29.805 37.8623C25.3846 37.8623 21.7881 41.4589 21.7881 45.8792C21.7881 50.2995 25.3847 53.8961 29.805 53.8961C34.2253 53.8961 37.822 50.2995 37.822 45.8792C37.822 41.4589 34.2254 37.8623 29.805 37.8623ZM29.805 52.5545C26.1241 52.5545 23.1299 49.5602 23.1299 45.8793C23.1299 42.1985 26.1241 39.2042 29.805 39.2042C33.4859 39.2042 36.4801 42.1985 36.4801 45.8793C36.4801 49.5602 33.4859 52.5545 29.805 52.5545Z" fill="black"/>
</svg>
