<svg width="43" height="49" viewBox="0 0 43 49" fill="none" xmlns="http://www.w3.org/2000/svg">
<path d="M32.942 24.5455C32.3357 22.7754 31.3268 21.1703 29.9946 19.8565C28.6625 18.5426 27.0435 17.5561 25.2652 16.9744C31.0024 13.2765 28.4234 4.23932 21.5002 4.20752C14.6003 4.2058 11.9973 13.3169 17.7353 16.9761C15.9571 17.5576 14.3381 18.5441 13.006 19.8577C11.6738 21.1714 10.6648 22.7764 10.0585 24.5463C9.88532 25.0961 9.84385 25.6789 9.93748 26.2476C10.0311 26.8163 10.2572 27.355 10.5975 27.8202C10.9378 28.2854 11.3828 28.6641 11.8964 28.9255C12.4101 29.187 12.9781 29.3239 13.5545 29.3253H29.446C30.0353 29.3242 30.6159 29.1828 31.1397 28.9127C31.6634 28.6427 32.1154 28.2518 32.4581 27.7724C32.7926 27.3134 33.0112 26.7804 33.0955 26.2187C33.1797 25.657 33.127 25.0824 32.942 24.5455ZM16.2752 11.1496C16.4952 4.24533 26.507 4.24705 26.7252 11.1496C26.5052 18.0538 16.4935 18.0521 16.2752 11.1496ZM29.446 27.6066H13.5545C13.2383 27.6057 12.9269 27.5295 12.646 27.3843C12.3652 27.239 12.1231 27.0288 11.9397 26.7713C11.7659 26.534 11.652 26.2584 11.6075 25.9677C11.5631 25.677 11.5895 25.3798 11.6845 25.1015C14.8633 15.8185 28.1389 15.8203 31.316 25.1015C31.4033 25.3925 31.4211 25.6999 31.3682 25.9991C31.3153 26.2982 31.193 26.5808 31.0113 26.8242C30.8295 27.0676 30.5932 27.2651 30.3214 27.4008C30.0496 27.5365 29.7498 27.6067 29.446 27.6057V27.6066Z" fill="#2166F3"/>
<path d="M42.125 39.9688C41.8971 39.9688 41.6785 40.0593 41.5173 40.2205C41.3562 40.3816 41.2656 40.6002 41.2656 40.8281V42.1911L32.1184 33.0439C46.0721 22.856 39.002 0.550937 21.5 0.4375C3.99711 0.560391 -3.07383 22.8448 10.8816 33.0439L1.73438 42.1911V40.8281C1.73438 40.6002 1.64383 40.3816 1.48267 40.2205C1.32151 40.0593 1.10292 39.9688 0.875 39.9688C0.64708 39.9688 0.428494 40.0593 0.26733 40.2205C0.106166 40.3816 0.015625 40.6002 0.015625 40.8281V44.2656C0.015625 44.4935 0.106166 44.7121 0.26733 44.8733C0.428494 45.0345 0.64708 45.125 0.875 45.125H4.3125C4.54042 45.125 4.75901 45.0345 4.92017 44.8733C5.08133 44.7121 5.17188 44.4935 5.17188 44.2656C5.17188 44.0377 5.08133 43.8191 4.92017 43.658C4.75901 43.4968 4.54042 43.4062 4.3125 43.4062H2.94953L12.3459 34.0098C14.8665 35.502 17.7147 36.3527 20.6406 36.4874V45.6286L18.6701 43.658C18.5908 43.576 18.496 43.5105 18.3911 43.4655C18.2863 43.4204 18.1735 43.3967 18.0594 43.3957C17.9453 43.3947 17.8321 43.4165 17.7265 43.4597C17.6209 43.5029 17.525 43.5667 17.4443 43.6474C17.3636 43.7281 17.2998 43.824 17.2566 43.9296C17.2133 44.0353 17.1916 44.1484 17.1926 44.2625C17.1936 44.3766 17.2173 44.4894 17.2623 44.5943C17.3074 44.6991 17.3728 44.7939 17.4549 44.8732L20.8924 48.3107C21.0536 48.4718 21.2721 48.5623 21.5 48.5623C21.7279 48.5623 21.9464 48.4718 22.1076 48.3107L25.5451 44.8732C25.7016 44.7111 25.7882 44.494 25.7863 44.2687C25.7843 44.0434 25.6939 43.8278 25.5346 43.6685C25.3753 43.5092 25.1597 43.4188 24.9344 43.4168C24.7091 43.4149 24.492 43.5015 24.3299 43.658L22.3594 45.6286V36.4874C25.2853 36.3527 28.1335 35.502 30.6541 34.0098L40.0505 43.4062C39.2684 43.4613 37.8763 43.0926 37.8281 44.2656C37.8281 44.4935 37.9187 44.7121 38.0798 44.8733C38.241 45.0345 38.4596 45.125 38.6875 45.125H42.125C42.3529 45.125 42.5715 45.0345 42.7327 44.8733C42.8938 44.7121 42.9844 44.4935 42.9844 44.2656V40.8281C42.9844 40.6002 42.8938 40.3816 42.7327 40.2205C42.5715 40.0593 42.3529 39.9688 42.125 39.9688ZM21.5 34.8125C17.1695 34.8125 13.0164 33.0922 9.95427 30.0301C6.89216 26.968 5.17188 22.8149 5.17188 18.4844C5.17187 14.1539 6.89216 10.0008 9.95427 6.93865C13.0164 3.87653 17.1695 2.15625 21.5 2.15625C43.1614 3.05344 43.1554 33.9188 21.5 34.8125Z" fill="#2166F3"/>
</svg>
