<svg width="46" height="50" viewBox="0 0 46 50" fill="none" xmlns="http://www.w3.org/2000/svg">
<path d="M42.3965 32.3291V17.6709C43.9541 17.3145 45.1201 15.918 45.1201 14.2539C45.1201 12.3193 43.5478 10.7451 41.6143 10.7451C40.6016 10.7451 39.6885 11.1777 39.0478 11.8672L32.6992 8.2002L26.3525 4.53613C26.4531 4.20996 26.5078 3.86328 26.5078 3.50391C26.5078 1.57031 24.9355 -0.00195312 23.002 -0.00195312C21.0674 -0.00195312 19.4932 1.57031 19.4932 3.50391C19.4932 3.86328 19.5479 4.20898 19.6484 4.53613L13.3018 8.2002L6.9541 11.8662C6.31348 11.1768 5.39941 10.7451 4.38574 10.7451C2.45215 10.7451 0.879883 12.3193 0.879883 14.2539C0.879883 15.918 2.0459 17.3145 3.60352 17.6709V32.3291C2.04492 32.6855 0.878906 34.082 0.878906 35.7461C0.878906 37.6797 2.45117 39.252 4.38477 39.252C5.39844 39.252 6.3125 38.8193 6.95313 38.1309L13.3008 41.7969L19.6475 45.4609C19.5444 45.795 19.4921 46.1426 19.4922 46.4922C19.4922 48.4268 21.0664 50.001 23.001 50.001C24.9346 50.001 26.5068 48.4268 26.5068 46.4922C26.5068 46.1328 26.4521 45.7871 26.3516 45.46L32.6992 41.7969L39.0478 38.1309C39.6885 38.8203 40.6025 39.2529 41.6152 39.2529C43.5488 39.2529 45.1211 37.6807 45.1211 35.7471C45.1211 34.082 43.9551 32.6855 42.3965 32.3291ZM39.0478 33.3623L31.3545 28.9199V21.0791L39.0469 16.6387C39.5176 17.1455 40.1357 17.5127 40.832 17.6719V32.3301C40.1357 32.4883 39.5176 32.8555 39.0478 33.3623ZM23.001 33.1484C19.1133 33.1484 16.209 31.6514 16.209 30.3125V27.6396C16.5303 27.873 16.8965 28.0898 17.3086 28.2861C18.8418 29.0186 20.8633 29.4219 23.001 29.4219C25.1387 29.4219 27.1592 29.0186 28.6924 28.2861C29.1035 28.0898 29.4697 27.873 29.79 27.6406V30.3125C29.79 31.6514 26.8867 33.1484 23.001 33.1484ZM6.9541 33.3613C6.47527 32.846 5.85266 32.4864 5.16699 32.3291V17.6709C5.86426 17.5117 6.48242 17.1445 6.9541 16.6387L14.6455 21.0781V28.9189L6.9541 33.3613ZM23.001 16.8516C26.8867 16.8516 29.79 18.3486 29.79 19.6875C29.79 21.0254 26.8867 22.5205 23.001 22.5205C19.1133 22.5205 16.209 21.0244 16.209 19.6875C16.21 18.3486 19.1143 16.8516 23.001 16.8516ZM16.21 22.2998C16.5313 22.5332 16.9004 22.75 17.3135 22.9473C18.8496 23.6807 20.8701 24.085 23.002 24.085C25.1328 24.085 27.1514 23.6807 28.6875 22.9473C29.1006 22.75 29.4687 22.5332 29.791 22.2998V25.0225C29.791 26.3613 26.8877 27.8584 23.002 27.8584C19.1143 27.8584 16.21 26.3613 16.21 25.0225V22.2998ZM41.6152 12.3096C42.6855 12.3096 43.5576 13.1816 43.5576 14.2539C43.5576 15.3242 42.6865 16.1953 41.6152 16.1953C40.5439 16.1953 39.6729 15.3242 39.6729 14.2539C39.6729 13.1816 40.5439 12.3096 41.6152 12.3096ZM31.917 9.55469L38.2637 13.2207C38.1631 13.5479 38.1084 13.8945 38.1084 14.2539C38.1084 14.6123 38.1631 14.958 38.2627 15.2842L31.3223 19.29C31.1465 18.167 30.2266 17.1611 28.6865 16.4258C27.3398 15.7822 25.6221 15.3926 23.7822 15.3066V6.9248C24.4785 6.76563 25.0977 6.39746 25.5674 5.89063L31.917 9.55469ZM23.001 1.5625C24.0713 1.5625 24.9434 2.43359 24.9434 3.50391C24.9434 4.57617 24.0723 5.44824 23.001 5.44824C21.9287 5.44824 21.0566 4.57617 21.0566 3.50391C21.0566 2.43359 21.9287 1.5625 23.001 1.5625ZM14.083 9.55566L20.4316 5.89063C20.9033 6.39746 21.5215 6.76563 22.2197 6.9248V15.3066C20.3799 15.3926 18.6602 15.7832 17.3135 16.4258C15.7734 17.1611 14.8535 18.168 14.6777 19.29L7.73926 15.2852C7.84228 14.9511 7.89462 14.6035 7.89453 14.2539C7.89453 13.8936 7.83984 13.5469 7.73828 13.2197L14.083 9.55566ZM2.44336 14.2539C2.44336 13.1816 3.31445 12.3096 4.38574 12.3096C5.45801 12.3096 6.33008 13.1816 6.33008 14.2539C6.33008 15.3242 5.45801 16.1953 4.38574 16.1953C3.31445 16.1953 2.44336 15.3242 2.44336 14.2539ZM4.38477 37.6885C3.31445 37.6885 2.44238 36.8174 2.44238 35.7471C2.44238 34.6768 3.31348 33.8057 4.38477 33.8057C5.45703 33.8057 6.3291 34.6768 6.3291 35.7471C6.3291 36.8174 5.45703 37.6885 4.38477 37.6885ZM14.083 40.4424L7.73828 36.7783C7.83887 36.4521 7.89355 36.1055 7.89355 35.7461C7.89355 35.3867 7.83887 35.041 7.73828 34.7139L14.6777 30.7061C14.8516 31.832 15.7686 32.8398 17.3086 33.5762C18.6533 34.2187 20.374 34.6074 22.2188 34.6934V43.0752C21.5215 43.2344 20.9033 43.6016 20.4316 44.1074L14.083 40.4424ZM23.001 48.4375C21.9287 48.4375 21.0566 47.5654 21.0566 46.4932C21.0566 45.4229 21.9287 44.5518 23.001 44.5518C24.0713 44.5518 24.9434 45.4229 24.9434 46.4932C24.9434 47.5645 24.0723 48.4375 23.001 48.4375ZM31.917 40.4424L25.5674 44.1074C25.0967 43.6016 24.4795 43.2344 23.7832 43.0752V34.6934C25.6279 34.6074 27.3477 34.2178 28.6924 33.5762C30.2314 32.8408 31.1475 31.833 31.3213 30.707L38.2627 34.7158C38.1621 35.042 38.1074 35.3877 38.1074 35.7461C38.1074 36.1045 38.1621 36.4502 38.2627 36.7764L31.917 40.4424ZM41.6152 37.6885C40.5449 37.6885 39.6729 36.8174 39.6729 35.7471C39.6729 34.6768 40.5439 33.8057 41.6152 33.8057C42.6865 33.8057 43.5576 34.6768 43.5576 35.7471C43.5576 36.8174 42.6855 37.6885 41.6152 37.6885Z" fill="#2166F3"/>
</svg>
