<svg width="49" height="46" viewBox="0 0 49 46" fill="none" xmlns="http://www.w3.org/2000/svg">
<path d="M25.2085 34.2795H23.0328C22.2618 34.2795 21.6347 33.6522 21.6347 32.8813C21.6347 32.032 21.0849 31.5017 20.5704 31.2885C20.0561 31.0754 19.2922 31.0616 18.6917 31.6622C18.4276 31.9263 18.0765 32.0717 17.7029 32.0717C17.3294 32.0717 16.9782 31.9262 16.7143 31.6621L15.1758 30.1237C14.6307 29.5785 14.6307 28.6915 15.1758 28.1463C15.7754 27.5468 15.761 26.783 15.5479 26.2682C15.3345 25.7534 14.8046 25.2032 13.9567 25.2032C13.1857 25.2032 12.5586 24.576 12.5586 23.8051V21.6295C12.5586 20.8585 13.1858 20.2313 13.9567 20.2313C14.8046 20.2313 15.3345 19.6812 15.5479 19.1664C15.7611 18.6516 15.7754 17.8878 15.1758 17.2884C14.9117 17.0243 14.7663 16.6731 14.7663 16.2996C14.7663 15.9261 14.9118 15.5749 15.1759 15.3109L16.7143 13.7725C16.9782 13.5085 17.3294 13.363 17.7029 13.363C18.0765 13.363 18.4276 13.5084 18.6917 13.7725C19.2911 14.3721 20.0549 14.3575 20.5697 14.1445C21.0845 13.9313 21.6347 13.4014 21.6347 12.5535C21.6347 11.7824 22.2619 11.1553 23.0328 11.1553H25.2084C25.9794 11.1553 26.6065 11.7825 26.6065 12.5535C26.6065 13.4014 27.1567 13.9312 27.6715 14.1445C28.1864 14.3577 28.9503 14.372 29.5496 13.7725C30.0949 13.2274 30.9817 13.2273 31.5271 13.7725L33.0655 15.3109C33.3295 15.5749 33.475 15.9261 33.475 16.2996C33.475 16.6731 33.3296 17.0243 33.0655 17.2884C32.4659 17.8879 32.4803 18.6516 32.6935 19.1664C32.9067 19.6812 33.4366 20.2313 34.2845 20.2313C35.0555 20.2313 35.6826 20.8586 35.6826 21.6295V23.8051C35.6826 24.5761 35.0554 25.2032 34.2845 25.2032C33.4366 25.2032 32.9068 25.7534 32.6935 26.2682C32.4802 26.783 32.4659 27.5469 33.0655 28.1463C33.6106 28.6915 33.6106 29.5785 33.0655 30.1237L31.5271 31.6622C30.9816 32.2074 30.0948 32.2072 29.5496 31.6622C28.9501 31.0626 28.1865 31.077 27.6715 31.2901C27.1567 31.5035 26.6065 32.0334 26.6065 32.8812C26.6066 33.6522 25.9794 34.2795 25.2085 34.2795ZM19.891 29.7822C20.2921 29.7822 20.6991 29.8619 21.0936 30.0254C22.2707 30.5129 23.0019 31.6072 23.0019 32.8812C23.0019 32.8983 23.0158 32.9122 23.0328 32.9122H25.2084C25.2166 32.9122 25.2245 32.9089 25.2303 32.9031C25.2361 32.8973 25.2393 32.8895 25.2394 32.8812C25.2394 31.6085 25.9708 30.5148 27.1483 30.0271C28.326 29.5391 29.6164 29.7954 30.5165 30.6953C30.5194 30.6982 30.5228 30.7005 30.5265 30.7021C30.5303 30.7037 30.5343 30.7045 30.5384 30.7045C30.5425 30.7045 30.5465 30.7037 30.5502 30.7021C30.554 30.7005 30.5574 30.6982 30.5603 30.6953L32.0987 29.1568C32.1016 29.154 32.1039 29.1506 32.1055 29.1468C32.107 29.1431 32.1078 29.139 32.1078 29.135C32.1078 29.1309 32.107 29.1269 32.1055 29.1231C32.1039 29.1194 32.1016 29.116 32.0987 29.1131C31.1987 28.213 30.9427 26.9225 31.4305 25.7449C31.9182 24.5674 33.0117 23.8359 34.2846 23.8359C34.2928 23.8359 34.3006 23.8326 34.3064 23.8268C34.3122 23.821 34.3155 23.8132 34.3155 23.805V21.6294C34.3155 21.6212 34.3122 21.6133 34.3064 21.6075C34.3006 21.6017 34.2928 21.5985 34.2846 21.5984C33.0118 21.5984 31.9183 20.867 31.4305 19.6895C30.9427 18.5119 31.1987 17.2214 32.0987 16.3214C32.1018 16.3186 32.1041 16.3152 32.1057 16.3114C32.1073 16.3076 32.1081 16.3035 32.1079 16.2994C32.1081 16.2953 32.1073 16.2913 32.1057 16.2875C32.1042 16.2837 32.1018 16.2803 32.0988 16.2775L30.5603 14.7391C30.5574 14.7362 30.554 14.7338 30.5502 14.7323C30.5465 14.7307 30.5425 14.7299 30.5384 14.7299C30.5343 14.7299 30.5303 14.7307 30.5265 14.7323C30.5228 14.7338 30.5194 14.7362 30.5165 14.7391C29.6163 15.6391 28.3257 15.8951 27.1483 15.4073C25.9708 14.9196 25.2394 13.8261 25.2394 12.5532C25.2394 12.545 25.2361 12.5371 25.2303 12.5313C25.2245 12.5255 25.2166 12.5222 25.2084 12.5222H23.0328C23.0246 12.5222 23.0167 12.5255 23.0109 12.5313C23.0051 12.5371 23.0019 12.545 23.0019 12.5532C23.0019 13.826 22.2704 14.9195 21.0929 15.4073C19.9152 15.8952 18.6248 15.6389 17.7248 14.7391C17.722 14.736 17.7186 14.7337 17.7148 14.7321C17.711 14.7305 17.7069 14.7297 17.7028 14.7299C17.6987 14.7297 17.6947 14.7305 17.6909 14.732C17.6871 14.7336 17.6837 14.736 17.681 14.739L16.1425 16.2775C16.1395 16.2803 16.1371 16.2837 16.1355 16.2875C16.1339 16.2912 16.1332 16.2953 16.1333 16.2994C16.1331 16.3035 16.1339 16.3076 16.1355 16.3114C16.1371 16.3152 16.1394 16.3186 16.1425 16.3214C17.0424 17.2214 17.2985 18.512 16.8107 19.6895C16.323 20.867 15.2294 21.5984 13.9565 21.5984C13.9483 21.5985 13.9405 21.6017 13.9347 21.6075C13.9289 21.6133 13.9256 21.6212 13.9256 21.6294V23.805C13.9256 23.8221 13.9396 23.8359 13.9565 23.8359C15.2293 23.8359 16.3229 24.5674 16.8107 25.7449C17.2985 26.9226 17.0425 28.2131 16.1425 29.1131C16.1396 29.116 16.1373 29.1194 16.1358 29.1231C16.1342 29.1269 16.1334 29.1309 16.1334 29.135C16.1334 29.139 16.1342 29.1431 16.1358 29.1468C16.1373 29.1506 16.1396 29.154 16.1425 29.1568L17.681 30.6953C17.6837 30.6983 17.6871 30.7007 17.6909 30.7023C17.6947 30.7039 17.6987 30.7046 17.7028 30.7045C17.7069 30.7046 17.711 30.7039 17.7148 30.7023C17.7186 30.7007 17.722 30.6983 17.7248 30.6953C18.3238 30.0965 19.0953 29.7822 19.891 29.7822ZM24.1207 28.7171C20.8124 28.7171 18.1209 26.0255 18.1209 22.7173C18.1209 19.4091 20.8124 16.7175 24.1207 16.7175C27.429 16.7175 30.1205 19.409 30.1205 22.7173C30.1205 26.0256 27.429 28.7171 24.1207 28.7171ZM24.1207 18.0847C21.5663 18.0847 19.4881 20.1628 19.4881 22.7173C19.4881 25.2718 21.5662 27.3499 24.1207 27.3499C26.6752 27.3499 28.7533 25.2717 28.7533 22.7173C28.7533 20.1629 26.6751 18.0847 24.1207 18.0847Z" fill="#2166F3"/>
<path d="M43.2365 45.435C43.0552 45.4349 42.8814 45.3629 42.7532 45.2347C42.625 45.1065 42.5531 44.9327 42.5531 44.7514V42.6522H24.1211C13.129 42.6522 4.18636 33.7095 4.18636 22.7175C4.18636 18.0041 5.86302 13.4299 8.90755 9.83734C8.97171 9.7616 9.0516 9.70075 9.14165 9.65901C9.23171 9.61728 9.32977 9.59565 9.42903 9.59564H15.4317C15.5771 9.59563 15.7187 9.64198 15.8359 9.72796C15.9532 9.81394 16.04 9.93506 16.0837 10.0737C16.1274 10.2124 16.1257 10.3614 16.079 10.4991C16.0322 10.6367 15.9428 10.7559 15.8237 10.8393C11.9468 13.5529 9.63225 17.9934 9.63225 22.7175C9.63225 30.7068 16.1321 37.2065 24.1212 37.2065H42.5532V35.1073C42.5531 34.9689 42.5951 34.8337 42.6736 34.7197C42.752 34.6057 42.8632 34.5182 42.9925 34.4688C43.1218 34.4193 43.263 34.4103 43.3975 34.4428C43.532 34.4753 43.6535 34.5479 43.7458 34.651L48.0678 39.4731C48.1802 39.5985 48.2423 39.7609 48.2423 39.9293C48.2423 40.0977 48.1802 40.2602 48.0678 40.3856L43.7458 45.2076C43.6817 45.2792 43.6031 45.3364 43.5154 45.3756C43.4276 45.4148 43.3326 45.435 43.2365 45.435ZM9.74925 10.9629C7.04134 14.271 5.55354 18.4325 5.55354 22.7175C5.55354 32.9557 13.8829 41.285 24.1211 41.285H43.2366C43.4179 41.285 43.5918 41.357 43.72 41.4852C43.8482 41.6134 43.9202 41.7873 43.9202 41.9686V42.9645L46.6406 39.9293L43.9202 36.8942V37.8901C43.9202 38.0714 43.8482 38.2452 43.72 38.3734C43.5918 38.5016 43.4179 38.5737 43.2366 38.5737H24.1211C15.3781 38.5737 8.26497 31.4606 8.26497 22.7175C8.26497 18.2162 10.1847 13.9507 13.4812 10.9629H9.74925ZM5.00569 45.435C4.90959 45.435 4.81457 45.4148 4.72682 45.3756C4.63907 45.3364 4.56056 45.2792 4.49641 45.2076L0.174539 40.3856C0.0621513 40.2602 0 40.0977 0 39.9293C0 39.7609 0.0621513 39.5985 0.174539 39.4731L4.49641 34.651C4.58877 34.5479 4.71024 34.4753 4.84475 34.4428C4.97926 34.4103 5.12048 34.4193 5.24974 34.4688C5.379 34.5182 5.4902 34.6057 5.56865 34.7197C5.6471 34.8337 5.6891 34.9689 5.68909 35.1073V37.2065H8.21106C8.39788 37.2065 8.57659 37.2829 8.70559 37.4182C10.2027 38.9881 11.9301 40.3207 13.8285 41.3703C13.9612 41.4437 14.0657 41.559 14.1256 41.6982C14.1856 41.8374 14.1976 41.9926 14.1597 42.1394C14.1218 42.2861 14.0363 42.4162 13.9164 42.509C13.7966 42.6018 13.6493 42.6522 13.4978 42.6522H5.68909V44.7514C5.68909 44.9327 5.6171 45.1065 5.48894 45.2347C5.36078 45.3629 5.18696 45.4349 5.00569 45.435ZM1.60149 39.9293L4.32181 42.9645V41.9686C4.32181 41.7873 4.39383 41.6134 4.52202 41.4852C4.65022 41.357 4.8241 41.285 5.0054 41.285H11.1148C9.96902 40.4814 8.8999 39.5738 7.92102 38.5737H5.0055C4.8242 38.5737 4.65032 38.5016 4.52212 38.3734C4.39392 38.2452 4.3219 38.0714 4.3219 37.8901V36.8942L1.60149 39.9293ZM38.8132 35.8393H32.8106C32.6652 35.8393 32.5236 35.7929 32.4063 35.707C32.2891 35.621 32.2023 35.4999 32.1586 35.3612C32.1149 35.2225 32.1165 35.0735 32.1633 34.9359C32.21 34.7982 32.2995 34.679 32.4186 34.5956C36.2953 31.8821 38.6099 27.4416 38.6099 22.7174C38.6099 14.7282 32.1102 8.22855 24.121 8.22855H5.68909V10.3277C5.6891 10.4661 5.6471 10.6012 5.56865 10.7152C5.4902 10.8292 5.379 10.9167 5.24974 10.9662C5.12048 11.0156 4.97926 11.0247 4.84475 10.9921C4.71024 10.9596 4.58877 10.887 4.49641 10.7839L0.174539 5.96194C0.0621513 5.83655 0 5.67408 0 5.5057C0 5.33731 0.0621513 5.17484 0.174539 5.04945L4.49641 0.227375C4.58877 0.124313 4.71024 0.0517105 4.84475 0.0191682C4.97926 -0.0133741 5.12048 -0.00432373 5.24974 0.0451225C5.379 0.0945687 5.4902 0.182082 5.56865 0.296091C5.6471 0.410099 5.6891 0.545233 5.68909 0.683625V2.78284H24.1211C35.1131 2.78284 44.0558 11.7255 44.0558 22.7175C44.0558 27.4309 42.3791 32.005 39.3347 35.5977C39.2705 35.6734 39.1906 35.7342 39.1006 35.776C39.0105 35.8177 38.9125 35.8393 38.8132 35.8393ZM34.7611 34.4721H38.493C41.2009 31.164 42.6886 27.0025 42.6886 22.7175C42.6886 12.4793 34.3593 4.15003 24.1211 4.15003H5.0055C4.8242 4.15003 4.65032 4.07801 4.52212 3.94981C4.39392 3.82161 4.3219 3.64774 4.3219 3.46644V2.47054L1.60159 5.5057L4.3219 8.54085V7.54505C4.3219 7.36375 4.39392 7.18988 4.52212 7.06168C4.65032 6.93348 4.8242 6.86146 5.0055 6.86146H24.1211C32.8642 6.86146 39.9772 13.9744 39.9772 22.7175C39.9772 27.2188 38.0575 31.4844 34.7611 34.4721ZM43.2365 11.0114C43.0552 11.0113 42.8814 10.9393 42.7532 10.8111C42.625 10.6829 42.5531 10.509 42.5531 10.3278V8.22864H40.0312C39.9387 8.22866 39.8472 8.2099 39.7621 8.17349C39.6771 8.13708 39.6004 8.08378 39.5366 8.01683C38.0396 6.44689 36.3121 5.11419 34.4137 4.06458C34.281 3.99127 34.1765 3.87594 34.1165 3.73673C34.0566 3.59752 34.0446 3.44232 34.0824 3.29555C34.1203 3.14878 34.2059 3.01877 34.3258 2.92596C34.4456 2.83314 34.5929 2.7828 34.7445 2.78284H42.5531V0.683625C42.553 0.545233 42.595 0.410099 42.6735 0.296091C42.7519 0.182082 42.8631 0.0945687 42.9924 0.0451225C43.1217 -0.00432373 43.2629 -0.0133741 43.3974 0.0191682C43.5319 0.0517105 43.6534 0.124313 43.7457 0.227375L48.0677 5.04945C48.1801 5.17484 48.2422 5.33731 48.2422 5.5057C48.2422 5.67408 48.1801 5.83655 48.0677 5.96194L43.7457 10.784C43.6816 10.8556 43.6031 10.9128 43.5153 10.952C43.4276 10.9912 43.3326 11.0114 43.2365 11.0114ZM40.3212 6.86146H43.2366C43.4179 6.86146 43.5918 6.93348 43.72 7.06168C43.8482 7.18988 43.9202 7.36375 43.9202 7.54505V8.54085L46.6406 5.5057L43.9202 2.47054V3.46644C43.9202 3.64774 43.8482 3.82161 43.72 3.94981C43.5918 4.07801 43.4179 4.15003 43.2366 4.15003H37.1274C38.2732 4.95352 39.3424 5.86119 40.3212 6.86146Z" fill="#2166F3"/>
</svg>
