<svg width="60" height="60" viewBox="0 0 60 60" fill="none" xmlns="http://www.w3.org/2000/svg">
<path d="M52.5645 50.7949H7.43555C5.66133 50.7949 4.21875 49.3512 4.21875 47.5781V12.4219C4.21875 10.6488 5.66133 9.20508 7.43555 9.20508H52.5656C54.3387 9.20508 55.7812 10.6488 55.7812 12.4219V47.5781C55.7812 49.3512 54.3387 50.7949 52.5645 50.7949ZM7.43555 10.377C6.3082 10.377 5.39062 11.2945 5.39062 12.4219V47.5781C5.39062 48.7055 6.3082 49.623 7.43555 49.623H52.5656C53.693 49.623 54.6105 48.7055 54.6105 47.5781V12.4219C54.6105 11.2945 53.693 10.377 52.5656 10.377H7.43555Z" fill="black"/>
<path d="M12.6422 13.5938C12.6035 13.5938 12.5648 13.5902 12.5273 13.582C12.4898 13.575 12.4523 13.5633 12.4172 13.5492C12.3463 13.5198 12.2818 13.4768 12.2273 13.4227C12.173 13.3679 12.13 13.303 12.1008 13.2316C12.0855 13.1965 12.075 13.1602 12.0668 13.1227C12.0598 13.084 12.0551 13.0465 12.0551 13.0078C12.0551 12.8531 12.1184 12.702 12.2273 12.593C12.2543 12.566 12.2848 12.5426 12.3164 12.5203C12.348 12.4992 12.382 12.4816 12.4172 12.4664C12.5243 12.4225 12.642 12.4111 12.7556 12.4336C12.8691 12.4561 12.9736 12.5116 13.0559 12.593C13.1648 12.702 13.2281 12.8531 13.2281 13.0078C13.2281 13.0465 13.2234 13.084 13.2164 13.1227C13.2082 13.1602 13.1977 13.1965 13.1824 13.2316C13.1532 13.303 13.1102 13.3679 13.0559 13.4227C12.9458 13.5319 12.7972 13.5933 12.6422 13.5938ZM16.4215 13.5938C16.3828 13.5938 16.3441 13.5902 16.3066 13.582C16.2691 13.575 16.2328 13.5633 16.1965 13.5492C16.1256 13.5198 16.0611 13.4768 16.0066 13.4227C15.9523 13.3679 15.9093 13.303 15.8801 13.2316C15.8648 13.1965 15.8543 13.1602 15.8461 13.1227C15.8391 13.084 15.8344 13.0465 15.8344 13.0078C15.8344 12.8531 15.8977 12.7031 16.0066 12.593C16.0611 12.5388 16.1256 12.4958 16.1965 12.4664C16.2328 12.4523 16.2691 12.4406 16.3066 12.4336C16.3816 12.4184 16.4602 12.4184 16.5352 12.4336C16.5727 12.4406 16.6102 12.4523 16.6453 12.4664C16.7162 12.4958 16.7807 12.5388 16.8352 12.593C16.9441 12.7031 17.0062 12.8531 17.0062 13.0078C17.0062 13.0465 17.0027 13.084 16.9957 13.1227C16.9875 13.1602 16.977 13.1965 16.9617 13.2316C16.9325 13.303 16.8895 13.3679 16.8352 13.4227C16.7807 13.4768 16.7162 13.5198 16.6453 13.5492C16.6102 13.5633 16.5727 13.575 16.5352 13.582C16.4977 13.5902 16.459 13.5938 16.4215 13.5938ZM20.2008 13.5938C20.0461 13.5938 19.8949 13.5316 19.7859 13.4227C19.6767 13.3122 19.6153 13.1632 19.6148 13.0078C19.6148 12.9691 19.6184 12.9316 19.6254 12.893C19.6336 12.8555 19.6441 12.8191 19.6594 12.784C19.6886 12.7126 19.7316 12.6477 19.7859 12.593C19.8949 12.484 20.0461 12.4219 20.2008 12.4219C20.3543 12.4219 20.5055 12.484 20.6145 12.593C20.6688 12.6477 20.7118 12.7126 20.741 12.784C20.7563 12.8191 20.7668 12.8555 20.775 12.893C20.782 12.9316 20.7855 12.9691 20.7855 13.0078C20.7855 13.1625 20.7234 13.3125 20.6145 13.4227C20.5044 13.5319 20.3558 13.5933 20.2008 13.5938ZM47.359 13.5938H27.9645C27.641 13.5938 27.3785 13.3313 27.3785 13.0078C27.3785 12.6844 27.641 12.4219 27.9645 12.4219H47.359C47.6824 12.4219 47.9449 12.6844 47.9449 13.0078C47.9449 13.3313 47.6824 13.5938 47.359 13.5938ZM55.1953 16.8105H4.80469C4.48125 16.8105 4.21875 16.548 4.21875 16.2246C4.21875 15.9012 4.48125 15.6387 4.80469 15.6387H55.1953C55.5187 15.6387 55.7812 15.9012 55.7812 16.2246C55.7812 16.548 55.5187 16.8105 55.1953 16.8105ZM23.2477 39.0996C22.7332 39.0996 22.2211 38.9039 21.8379 38.5137L17.9145 34.5902C17.734 34.4107 17.591 34.1972 17.4936 33.9621C17.3963 33.7269 17.3465 33.4748 17.3473 33.2203C17.3473 32.7035 17.5488 32.2172 17.9145 31.8516L21.8402 27.9258C22.2176 27.5484 22.718 27.341 23.2512 27.341C23.7832 27.341 24.2848 27.5484 24.6621 27.9258C25.0395 28.3031 25.2469 28.8035 25.2469 29.3367C25.2469 29.8688 25.0395 30.3703 24.6621 30.7477L22.1824 33.2285L24.6621 35.7094C25.0395 36.0867 25.2469 36.5871 25.2469 37.1203C25.2469 37.6535 25.0395 38.1539 24.6621 38.5313L24.6527 38.5406C24.2729 38.8995 23.7702 39.0994 23.2477 39.0996ZM23.25 28.5117C23.0309 28.5117 22.8234 28.5973 22.6688 28.7531L18.743 32.6789C18.4453 32.9766 18.4453 33.4617 18.743 33.7605L22.6688 37.6863L22.6734 37.691C22.984 38.0074 23.5043 38.0086 23.8371 37.6934C23.9127 37.6174 23.9725 37.5272 24.0131 37.4281C24.0537 37.329 24.0744 37.2228 24.0738 37.1156C24.0738 36.8965 23.9883 36.6891 23.8324 36.5344L20.9379 33.6398C20.8281 33.5299 20.7665 33.3809 20.7665 33.2256C20.7665 33.0702 20.8281 32.9213 20.9379 32.8113L23.8324 29.9168C23.9883 29.7609 24.0738 29.5547 24.0738 29.3355C24.0738 29.1164 23.9883 28.909 23.8324 28.7543C23.7563 28.6772 23.6656 28.6161 23.5656 28.5744C23.4656 28.5328 23.3583 28.5115 23.25 28.5117ZM36.7441 39.0984C36.2145 39.0984 35.7164 38.891 35.3391 38.5148C34.5621 37.7367 34.5621 36.4723 35.3391 35.6941L37.8199 33.2133L35.3402 30.7336C34.5621 29.9555 34.5621 28.6898 35.3402 27.9129C35.7176 27.5355 36.218 27.3281 36.7512 27.3281C37.2832 27.3281 37.7848 27.5355 38.1621 27.9129L42.0879 31.8387C42.8426 32.5934 42.8426 33.8227 42.0879 34.5773L38.1621 38.5031C37.9792 38.6907 37.7607 38.8399 37.5195 38.9422C37.2782 39.0444 37.019 39.0975 36.757 39.0984H36.7441ZM36.1688 37.6863C36.2442 37.7625 36.334 37.8229 36.433 37.8641C36.532 37.9054 36.6381 37.9266 36.7453 37.9266H36.75C36.8581 37.926 36.965 37.9038 37.0644 37.8613C37.1638 37.8188 37.2537 37.757 37.3289 37.6793L41.2594 33.7488C41.557 33.4512 41.557 32.966 41.2594 32.6672L37.3336 28.7414C37.1777 28.5855 36.9715 28.5 36.7523 28.5C36.5332 28.5 36.3258 28.5855 36.1711 28.7414C36.0169 28.8958 35.9303 29.105 35.9303 29.3232C35.9303 29.5414 36.0169 29.7507 36.1711 29.9051L39.0656 32.7996C39.1758 32.9098 39.2367 33.0586 39.2367 33.2145C39.2367 33.3703 39.1746 33.5191 39.0656 33.6293L36.1711 36.5238C35.8477 36.8438 35.8477 37.3652 36.1688 37.6863ZM28.4777 40.7273C28.3066 40.7273 28.1332 40.7051 27.9633 40.6594C26.898 40.3758 26.2711 39.3094 26.5371 38.2301C26.5383 38.2254 26.5395 38.2195 26.5418 38.2137L29.5887 27.1863C29.8699 26.127 30.9375 25.5 32.0156 25.766C33.0914 26.052 33.7184 27.1184 33.4523 28.1977C33.4512 28.2035 33.45 28.2082 33.4477 28.2141L30.4008 39.2414C30.3347 39.4949 30.2189 39.7327 30.0602 39.9411C29.9015 40.1496 29.703 40.3244 29.4762 40.4555C29.1733 40.633 28.8288 40.7268 28.4777 40.7273ZM27.6727 38.5172C27.566 38.9672 27.8238 39.4102 28.2633 39.5262C28.4754 39.5824 28.6969 39.5531 28.8867 39.4418C29.0766 39.3305 29.2125 39.1512 29.2687 38.9355L32.3156 27.9094C32.4223 27.4594 32.1645 27.0164 31.725 26.9004C31.2832 26.7914 30.8367 27.0504 30.7195 27.4922L27.6727 38.5172ZM17.8488 21.4535H11.5664C11.243 21.4535 10.9805 21.191 10.9805 20.8676C10.9805 20.5441 11.243 20.2816 11.5664 20.2816H17.8488C18.1723 20.2816 18.4348 20.5441 18.4348 20.8676C18.4348 21.191 18.1723 21.4535 17.8488 21.4535ZM8.98711 21.4535C8.94844 21.4535 8.90977 21.45 8.87227 21.4418C8.83477 21.4348 8.79844 21.423 8.76211 21.409C8.69117 21.3796 8.62668 21.3366 8.57227 21.2824C8.46284 21.1721 8.40135 21.023 8.40117 20.8676C8.40117 20.8301 8.40469 20.7914 8.41289 20.7527C8.41992 20.7152 8.43164 20.6789 8.4457 20.6438C8.46094 20.6086 8.47852 20.5746 8.49961 20.5418C8.5207 20.5102 8.54531 20.4797 8.57227 20.4527C8.59922 20.4258 8.62969 20.4023 8.66133 20.3801C8.69297 20.359 8.72695 20.3414 8.76211 20.3262C8.86924 20.2823 8.98692 20.2709 9.10048 20.2934C9.21404 20.3159 9.31847 20.3713 9.40078 20.4527C9.42773 20.4797 9.45234 20.5102 9.47461 20.5418C9.4957 20.5746 9.51328 20.6086 9.52852 20.6438C9.54258 20.6789 9.5543 20.7152 9.56133 20.7527C9.56953 20.7914 9.57305 20.8301 9.57305 20.8676C9.57305 21.0223 9.50977 21.1734 9.40078 21.2824C9.37383 21.3094 9.34453 21.334 9.31172 21.3551C9.28008 21.3762 9.24609 21.3938 9.21094 21.409C9.17578 21.423 9.13828 21.4348 9.10195 21.4418C9.06328 21.45 9.02461 21.4535 8.98711 21.4535ZM17.8488 24.4711H11.5664C11.243 24.4711 10.9805 24.2086 10.9805 23.8852C10.9805 23.5617 11.243 23.2992 11.5664 23.2992H17.8488C18.1723 23.2992 18.4348 23.5617 18.4348 23.8852C18.4348 24.2086 18.1723 24.4711 17.8488 24.4711ZM8.98711 24.4711C8.94844 24.4711 8.90977 24.4676 8.87227 24.4594C8.83477 24.4523 8.79844 24.4406 8.76211 24.4266C8.69117 24.3972 8.62668 24.3542 8.57227 24.3C8.51797 24.2452 8.47496 24.1803 8.4457 24.109C8.43164 24.0738 8.41992 24.0375 8.41289 24C8.40469 23.9625 8.40117 23.9238 8.40117 23.8852C8.40117 23.8465 8.40469 23.809 8.41289 23.7703C8.41992 23.7328 8.43164 23.6965 8.4457 23.6613C8.46094 23.6262 8.47852 23.5922 8.49961 23.5605C8.5207 23.5277 8.54531 23.4984 8.57227 23.4703C8.59922 23.4434 8.62969 23.4199 8.66133 23.3977C8.69297 23.3766 8.72695 23.359 8.76211 23.3438C8.86924 23.2999 8.98692 23.2885 9.10048 23.311C9.21404 23.3335 9.31847 23.3889 9.40078 23.4703C9.42773 23.4984 9.45234 23.5277 9.47344 23.5605C9.49453 23.5922 9.51328 23.6262 9.52734 23.6613C9.54258 23.6965 9.5543 23.7328 9.56133 23.7703C9.56953 23.809 9.57305 23.8477 9.57305 23.8852C9.57305 23.9238 9.56953 23.9625 9.56133 24C9.5543 24.0375 9.54258 24.0738 9.52734 24.109C9.49808 24.1803 9.45508 24.2452 9.40078 24.3C9.29075 24.4092 9.14213 24.4707 8.98711 24.4711ZM51.0129 43.1332H44.7305C44.407 43.1332 44.1445 42.8707 44.1445 42.5473C44.1445 42.2238 44.407 41.9613 44.7305 41.9613H51.0129C51.3363 41.9613 51.5988 42.2238 51.5988 42.5473C51.5988 42.8707 51.3363 43.1332 51.0129 43.1332ZM42.1512 43.1332C42.1125 43.1332 42.0738 43.1297 42.0363 43.1215C41.9988 43.1145 41.9625 43.1027 41.9262 43.0887C41.8552 43.0593 41.7907 43.0163 41.7363 42.9621C41.6269 42.8518 41.5654 42.7027 41.5652 42.5473C41.5652 42.5086 41.5687 42.4711 41.5758 42.4324C41.584 42.3949 41.5945 42.3586 41.6098 42.3234C41.6238 42.2883 41.6426 42.2543 41.6637 42.2227C41.6848 42.1898 41.7094 42.1605 41.7363 42.1336C41.7633 42.1066 41.7938 42.082 41.8254 42.0598C41.857 42.0387 41.891 42.0211 41.9262 42.0059C41.9625 41.9918 41.9988 41.9801 42.0363 41.9731C42.2262 41.9344 42.4289 41.9965 42.5648 42.1336C42.5918 42.1605 42.6164 42.1898 42.6375 42.2227C42.6586 42.2543 42.6773 42.2883 42.6914 42.3234C42.7066 42.3586 42.7172 42.3949 42.7254 42.4324C42.7324 42.4711 42.7371 42.5086 42.7371 42.5473C42.7371 42.5859 42.7324 42.6246 42.7254 42.6621C42.7172 42.6996 42.7066 42.7359 42.6914 42.7711C42.6621 42.8424 42.6191 42.9073 42.5648 42.9621C42.5379 42.9891 42.5086 43.0137 42.4758 43.0348C42.4441 43.0559 42.4102 43.0734 42.375 43.0887C42.3398 43.1027 42.3023 43.1145 42.2648 43.1215C42.2273 43.1297 42.1887 43.1332 42.1512 43.1332ZM51.0129 46.1508H44.7305C44.407 46.1508 44.1445 45.8883 44.1445 45.5648C44.1445 45.2414 44.407 44.9789 44.7305 44.9789H51.0129C51.3363 44.9789 51.5988 45.2414 51.5988 45.5648C51.5988 45.8883 51.3363 46.1508 51.0129 46.1508ZM42.1512 46.1508C41.9965 46.1508 41.8453 46.0887 41.7363 45.9797C41.682 45.9249 41.639 45.86 41.6098 45.7887C41.5945 45.7535 41.584 45.7172 41.5758 45.6797C41.5687 45.6422 41.5652 45.6035 41.5652 45.5648C41.5652 45.4102 41.6273 45.2602 41.7363 45.1512C41.7633 45.1242 41.7938 45.0996 41.8254 45.0773C41.857 45.0563 41.891 45.0387 41.9262 45.0234C41.9625 45.0094 41.9988 44.9977 42.0363 44.9906C42.1113 44.9754 42.1898 44.9754 42.2648 44.9906C42.3023 44.9977 42.3398 45.0094 42.375 45.0234C42.4102 45.0387 42.4441 45.0563 42.4758 45.0773C42.5086 45.0996 42.5379 45.1242 42.5648 45.1512C42.6738 45.2602 42.7371 45.4102 42.7371 45.5648C42.7371 45.6035 42.7324 45.6422 42.7254 45.6797C42.7172 45.7172 42.7066 45.7535 42.6914 45.7887C42.6621 45.86 42.6191 45.9249 42.5648 45.9797C42.5379 46.0066 42.5086 46.0313 42.4758 46.0523C42.4441 46.0734 42.4102 46.091 42.375 46.1063C42.3398 46.1203 42.3023 46.132 42.2648 46.1391C42.2273 46.1473 42.1887 46.1508 42.1512 46.1508Z" fill="black"/>
</svg>
