<svg width="44" height="50" viewBox="0 0 44 50" fill="none" xmlns="http://www.w3.org/2000/svg">
<path d="M40.8065 6.31162C36.5918 5.67588 32.4054 3.89082 28.3634 1.00605C28.2475 0.923351 28.1086 0.8789 27.9662 0.878906H16.033C15.8906 0.878906 15.7518 0.92334 15.6359 1.00605C11.5939 3.89082 7.40742 5.67588 3.19277 6.31162C1.89268 6.50781 0.949219 7.6043 0.949219 8.91885V24.9738C0.949219 27.8053 1.63057 30.6577 2.97412 33.452C4.18135 35.9625 5.89199 38.3713 8.0584 40.6113C11.9807 44.6669 17.1262 47.8395 21.8227 49.0979C21.9386 49.1287 22.0606 49.1287 22.1766 49.0979C26.873 47.8395 32.0186 44.6669 35.9408 40.6113C38.1072 38.3713 39.8179 35.9625 41.0251 33.452C42.3688 30.6577 43.05 27.8053 43.05 24.9738V8.91885C43.05 7.6042 42.1064 6.50781 40.8065 6.31162ZM41.6828 24.9737C41.6828 36.1485 30.1093 45.4661 21.9996 47.7288C13.89 45.4662 2.31641 36.1485 2.31641 24.9737V8.91885C2.31641 8.28594 2.7707 7.75801 3.39658 7.66357C7.76338 7.00488 12.0871 5.18242 16.2509 2.24609H27.7483C31.912 5.18242 36.2357 7.00488 40.6025 7.66357C41.2284 7.75801 41.6827 8.28594 41.6827 8.91885V24.9737H41.6828ZM39.7509 8.90918C35.5852 8.17383 31.4606 6.43193 27.4922 3.73164C27.3788 3.65449 27.2448 3.61322 27.1076 3.61318H16.8915C16.7543 3.61322 16.6203 3.65449 16.5069 3.73164C12.5385 6.43193 8.41406 8.17393 4.24834 8.90918C4.0901 8.93712 3.94677 9.0199 3.84349 9.143C3.74021 9.2661 3.6836 9.42164 3.68359 9.58232V24.9737C3.68359 27.4623 4.3082 29.9861 5.53994 32.4752C6.61514 34.6478 8.12373 36.7456 10.0239 38.7104C10.2597 38.9541 10.4998 39.1938 10.744 39.4291C10.8603 39.5415 11.0126 39.6091 11.1739 39.6198C11.3353 39.6305 11.4952 39.5836 11.6252 39.4875C11.7553 39.3915 11.847 39.2524 11.8842 39.0951C11.9214 38.9377 11.9016 38.7723 11.8283 38.6281C11.0192 37.0307 10.6091 35.311 10.6091 33.517V24.6143H33.3901V33.5172C33.3901 35.3112 32.9799 37.0309 32.1706 38.6284C32.0976 38.7725 32.0781 38.9378 32.1153 39.095C32.1526 39.2521 32.2443 39.391 32.3742 39.487C32.5042 39.583 32.6639 39.6299 32.825 39.6194C32.9862 39.6088 33.1385 39.5416 33.2548 39.4295C33.5002 39.1929 33.7426 38.951 33.9751 38.7105C35.8753 36.7457 37.3839 34.6479 38.4592 32.4754C39.6909 29.9863 40.3155 27.4624 40.3155 24.9739V9.58242C40.3156 9.42173 40.259 9.26616 40.1557 9.14304C40.0525 9.01992 39.9091 8.93712 39.7509 8.90918ZM30.7389 23.2471H27.5427V18.6055C27.5427 15.8033 25.263 13.5235 22.4607 13.5235H21.5384C18.7361 13.5235 16.4563 15.8033 16.4563 18.6055V23.2471H13.2604V19.0666C13.2604 14.2478 17.1809 10.3273 21.9997 10.3273C26.8186 10.3273 30.739 14.2478 30.739 19.0666V23.2471H30.7389ZM26.1755 23.2471H17.8236V18.6055C17.8236 16.5571 19.49 14.8907 21.5385 14.8907H22.4608C24.5092 14.8907 26.1756 16.5571 26.1756 18.6055V23.2471H26.1755ZM38.9484 24.9737C38.9484 28.6493 37.384 32.5224 34.5031 36.0607C34.6723 35.2311 34.7573 34.3818 34.7573 33.5171V23.9307C34.7573 23.7494 34.6853 23.5755 34.5571 23.4473C34.4289 23.3191 34.255 23.2471 34.0737 23.2471H32.1061V19.0666C32.1061 13.4939 27.5724 8.96016 21.9996 8.96016C16.4269 8.96016 11.8931 13.4939 11.8931 19.0666V23.2471H9.92549C9.74419 23.2471 9.57031 23.3191 9.44211 23.4473C9.31392 23.5755 9.24189 23.7494 9.24189 23.9307V33.5172C9.24189 34.3818 9.32695 35.2312 9.496 36.0607C6.61514 32.5225 5.05068 28.6493 5.05068 24.9738V10.15C9.15381 9.33984 13.2037 7.60273 17.1011 4.98047H26.8981C30.7955 7.60273 34.8454 9.33984 38.9485 10.15V24.9737H38.9484ZM21.9996 27.2205C19.7805 27.2205 17.9752 29.0259 17.9752 31.2449C17.9752 32.3604 18.4291 33.4073 19.2312 34.1659V38.1779C19.2312 39.7044 20.4731 40.9463 21.9996 40.9463C23.5261 40.9463 24.768 39.7044 24.768 38.1779V34.166C25.5701 33.4073 26.024 32.3604 26.024 31.245C26.024 29.0259 24.2188 27.2205 21.9996 27.2205ZM23.6575 33.3215C23.5774 33.3855 23.5128 33.4668 23.4684 33.5592C23.4239 33.6516 23.4009 33.7528 23.4009 33.8554V38.1779C23.4009 38.9506 22.7723 39.5791 21.9997 39.5791C21.2271 39.5791 20.5985 38.9506 20.5985 38.1779V33.8554C20.5985 33.7528 20.5755 33.6516 20.531 33.5592C20.4866 33.4668 20.422 33.3855 20.3419 33.3215C19.7067 32.8137 19.3425 32.0568 19.3425 31.245C19.3425 29.7798 20.5346 28.5878 21.9997 28.5878C23.4648 28.5878 24.6569 29.7799 24.6569 31.245C24.6568 32.0567 24.2926 32.8137 23.6575 33.3215Z" fill="#2166F3"/>
</svg>
