<svg width="50" height="50" viewBox="0 0 50 50" fill="none" xmlns="http://www.w3.org/2000/svg">
<path d="M44.965 24.2155C45.0116 24.7584 45.0369 25.309 45.0431 25.8562L45.3702 25.4441C45.4991 25.2819 45.6871 25.1774 45.8929 25.1538C46.0988 25.1301 46.3056 25.1892 46.4679 25.3181C46.6301 25.4469 46.7346 25.6349 46.7582 25.8408C46.7819 26.0466 46.7228 26.2534 46.5939 26.4157L44.8172 28.6535C44.744 28.7456 44.651 28.8201 44.5451 28.8712C44.4391 28.9224 44.323 28.9489 44.2054 28.9489H44.2002C44.0817 28.9481 43.9649 28.9204 43.8587 28.8678C43.7525 28.8152 43.6596 28.7391 43.5871 28.6453L41.8403 26.3841C41.7137 26.2201 41.6573 26.0125 41.6837 25.807C41.71 25.6015 41.817 25.4149 41.981 25.2882C42.1449 25.1615 42.3525 25.1052 42.558 25.1315C42.7636 25.1579 42.9502 25.2648 43.0769 25.4288L43.4816 25.9528C43.4781 25.4175 43.4536 24.8825 43.4083 24.349C43.3923 24.1435 43.4582 23.94 43.5916 23.7828C43.725 23.6257 43.9151 23.5276 44.1204 23.51C44.3258 23.4924 44.5298 23.5567 44.688 23.6888C44.8463 23.821 44.9458 24.0103 44.965 24.2155ZM11.1919 9.65107C11.3467 9.65107 11.503 9.60518 11.6394 9.50967C12.0495 9.22306 12.47 8.95169 12.9001 8.69609L12.6693 9.22891C12.587 9.41904 12.5835 9.6341 12.6597 9.82678C12.7359 10.0195 12.8856 10.174 13.0757 10.2563C13.2658 10.3387 13.4809 10.3422 13.6736 10.266C13.8662 10.1898 14.0208 10.0401 14.1031 9.85L15.2388 7.22803C15.2859 7.11926 15.3076 7.0012 15.3024 6.88279C15.2971 6.76438 15.265 6.64871 15.2084 6.54456C15.1518 6.4404 15.0723 6.35049 14.9758 6.28162C14.8793 6.21276 14.7684 6.16674 14.6516 6.14707L11.8339 5.67285C11.4092 5.60156 11.0055 5.88809 10.9338 6.31367C10.8994 6.51801 10.9476 6.72763 11.0678 6.89643C11.188 7.06522 11.3703 7.17937 11.5746 7.21377L12.1684 7.31367C11.6816 7.60051 11.2061 7.90615 10.7431 8.22988C10.6069 8.32522 10.5047 8.46149 10.4513 8.61889C10.398 8.77629 10.3962 8.94661 10.4462 9.1051C10.4963 9.26359 10.5956 9.40198 10.7297 9.50017C10.8638 9.59836 11.0257 9.65122 11.1919 9.65107ZM39.8149 14.4779C39.887 14.5807 39.9828 14.6645 40.0942 14.7223C40.2056 14.7801 40.3293 14.8102 40.4548 14.8101C40.5978 14.8099 40.738 14.7706 40.8601 14.6963C40.9823 14.622 41.0817 14.5156 41.1476 14.3887C41.2135 14.2618 41.2432 14.1192 41.2337 13.9765C41.2241 13.8339 41.1756 13.6966 41.0934 13.5796C40.3691 12.5496 39.5576 11.5837 38.668 10.6927C38.5955 10.6201 38.5094 10.5625 38.4146 10.5231C38.3199 10.4838 38.2183 10.4635 38.1157 10.4635C38.0131 10.4634 37.9115 10.4836 37.8167 10.5228C37.7219 10.562 37.6358 10.6195 37.5632 10.692C37.4166 10.8384 37.3342 11.0371 37.3341 11.2442C37.3339 11.4514 37.4161 11.6502 37.5625 11.7968C38.3887 12.6244 39.1423 13.5214 39.8149 14.4779ZM2.72627 21.3986C2.79238 21.4164 2.86054 21.4254 2.929 21.4255C3.1009 21.4253 3.26795 21.3685 3.40427 21.2638C3.5406 21.1591 3.6386 21.0123 3.68311 20.8463C3.98625 19.7168 4.38714 18.6159 4.88125 17.556C4.92463 17.463 4.94927 17.3624 4.95376 17.2599C4.95825 17.1574 4.9425 17.055 4.90741 16.9586C4.87232 16.8622 4.81859 16.7736 4.74927 16.698C4.67995 16.6224 4.59641 16.5611 4.50342 16.5178C4.41044 16.4744 4.30984 16.4498 4.20734 16.4453C4.10484 16.4408 4.00246 16.4565 3.90605 16.4916C3.80964 16.5267 3.72109 16.5804 3.64545 16.6498C3.56982 16.7191 3.50858 16.8026 3.46523 16.8956C2.93269 18.0379 2.50062 19.2245 2.17393 20.4418C2.14736 20.5409 2.14057 20.6442 2.15395 20.746C2.16733 20.8477 2.20061 20.9458 2.25191 21.0346C2.3032 21.1235 2.37149 21.2014 2.45288 21.2638C2.53427 21.3263 2.62717 21.3721 2.72627 21.3986ZM2.35752 28.6974C2.56395 28.6797 2.7549 28.5807 2.88835 28.4222C3.02181 28.2637 3.08684 28.0587 3.06914 27.8522C3.01931 27.2697 2.99432 26.6853 2.99424 26.1007C2.99424 25.5192 3.01943 24.9299 3.06924 24.349C3.08389 24.1442 3.01734 23.9419 2.88397 23.7858C2.75061 23.6297 2.56116 23.5323 2.35659 23.5148C2.15201 23.4973 1.94876 23.561 1.79079 23.6921C1.63281 23.8233 1.53281 24.0113 1.5124 24.2156C1.45877 24.8425 1.43182 25.4715 1.43164 26.1007C1.43164 26.7277 1.45879 27.3619 1.5123 27.9857C1.52107 28.088 1.54989 28.1875 1.59711 28.2786C1.64434 28.3696 1.70904 28.4505 1.78752 28.5166C1.86601 28.5827 1.95674 28.6327 2.05454 28.6637C2.15234 28.6947 2.2553 28.7061 2.35752 28.6974ZM31.8076 7.75586C32.8666 8.25183 33.8807 8.83845 34.8386 9.50918C34.9696 9.60132 35.1259 9.6507 35.2861 9.65059C35.4523 9.65075 35.6143 9.59791 35.7484 9.49973C35.8825 9.40155 35.9818 9.26315 36.0319 9.10466C36.082 8.94616 36.0802 8.77583 36.0268 8.61842C35.9734 8.46102 35.8712 8.32474 35.7351 8.22939C34.7032 7.50689 33.6107 6.87498 32.4699 6.34072C32.377 6.29721 32.2764 6.27244 32.1739 6.26781C32.0714 6.26319 31.969 6.27881 31.8726 6.31378C31.7761 6.34875 31.6875 6.40239 31.6118 6.47162C31.536 6.54086 31.4747 6.62434 31.4313 6.71729C31.3877 6.81019 31.363 6.91075 31.3583 7.01323C31.3537 7.11572 31.3693 7.21811 31.4042 7.31456C31.4392 7.41101 31.4928 7.49962 31.562 7.57534C31.6312 7.65106 31.7147 7.7124 31.8076 7.75586ZM42.7939 20.8466C42.8477 21.0467 42.9787 21.2172 43.1582 21.3208C43.3376 21.4243 43.5509 21.4523 43.751 21.3987C43.9511 21.345 44.1217 21.2141 44.2252 21.0346C44.3288 20.8552 44.3568 20.6419 44.3031 20.4418C43.9762 19.2247 43.544 18.0382 43.0115 16.896C42.9688 16.802 42.9079 16.7174 42.8323 16.6471C42.7567 16.5767 42.6679 16.5221 42.5711 16.4863C42.4742 16.4505 42.3712 16.4343 42.2681 16.4385C42.1649 16.4428 42.0636 16.4674 41.97 16.5111C41.8765 16.5547 41.7925 16.6165 41.7229 16.6928C41.6533 16.7691 41.5996 16.8584 41.5648 16.9556C41.5299 17.0528 41.5147 17.1559 41.52 17.2591C41.5253 17.3622 41.5509 17.4632 41.5955 17.5563C42.0896 18.6163 42.4906 19.7172 42.7939 20.8466ZM5.57422 14.6681C5.70547 14.7606 5.86216 14.8103 6.02275 14.8102C6.14825 14.8103 6.27194 14.7802 6.38333 14.7224C6.49472 14.6646 6.59052 14.5808 6.6626 14.478C7.33519 13.5214 8.08874 12.6244 8.91494 11.7969C9.06138 11.6503 9.14359 11.4515 9.14348 11.2443C9.14337 11.0371 9.06095 10.8384 8.91436 10.692C8.76776 10.5456 8.569 10.4633 8.36179 10.4635C8.15459 10.4636 7.95591 10.546 7.80947 10.6926C6.91985 11.5837 6.10846 12.5495 5.38428 13.5796C5.32527 13.6635 5.28338 13.7583 5.26099 13.8584C5.2386 13.9585 5.23616 14.0621 5.2538 14.1632C5.27144 14.2642 5.30881 14.3609 5.36379 14.4475C5.41877 14.5341 5.49027 14.6091 5.57422 14.6681ZM34.8381 42.6917C33.8802 43.3623 32.8662 43.949 31.8073 44.4451C31.7144 44.4886 31.6309 44.5499 31.5617 44.6257C31.4925 44.7014 31.4389 44.7901 31.4039 44.8865C31.369 44.983 31.3534 45.0854 31.358 45.1879C31.3626 45.2904 31.3874 45.391 31.431 45.4839C31.4939 45.6185 31.594 45.7324 31.7194 45.8121C31.8449 45.8919 31.9904 45.9342 32.1391 45.9341C32.2534 45.9341 32.3663 45.9088 32.4697 45.8602C33.6104 45.3259 34.7028 44.694 35.7346 43.9715C35.9043 43.8526 36.0198 43.6712 36.0558 43.4671C36.0917 43.263 36.0451 43.0531 35.9262 42.8833C35.8073 42.7136 35.6259 42.5981 35.4218 42.5622C35.2178 42.5262 35.0078 42.5728 34.8381 42.6917ZM28.4665 45.6618C27.3366 45.9626 26.1827 46.1648 25.0179 46.2663C24.9157 46.2752 24.8162 46.3041 24.7252 46.3515C24.6341 46.3988 24.5533 46.4636 24.4874 46.5422C24.4214 46.6207 24.3715 46.7115 24.3406 46.8093C24.3097 46.9072 24.2984 47.0101 24.3073 47.1124C24.3162 47.2146 24.3451 47.314 24.3924 47.405C24.4398 47.4961 24.5046 47.5769 24.5831 47.6429C24.6617 47.7089 24.7525 47.7587 24.8503 47.7896C24.9481 47.8205 25.0511 47.8318 25.1533 47.8229C26.4084 47.7136 27.6516 47.4957 28.869 47.1715C28.9682 47.1451 29.0611 47.0994 29.1426 47.037C29.2241 46.9746 29.2925 46.8969 29.3439 46.8081C29.3953 46.7193 29.4287 46.6212 29.4422 46.5195C29.4557 46.4178 29.4491 46.3145 29.4227 46.2153C29.3962 46.1162 29.3505 46.0232 29.2882 45.9418C29.2258 45.8603 29.148 45.7919 29.0593 45.7405C28.9705 45.6891 28.8724 45.6557 28.7707 45.6422C28.669 45.6287 28.5656 45.6354 28.4665 45.6618ZM21.4596 46.2664C20.8769 46.2156 20.2968 46.1396 19.7207 46.0385L20.3495 45.7953C20.5401 45.7187 20.6929 45.5701 20.7747 45.3817C20.8566 45.1933 20.8609 44.9802 20.7869 44.7886C20.7128 44.597 20.5662 44.4423 20.3789 44.3579C20.1916 44.2736 19.9786 44.2664 19.786 44.3379L17.1209 45.3683C17.0104 45.411 16.911 45.4784 16.8303 45.5652C16.7496 45.652 16.6898 45.7561 16.6553 45.8695C16.6208 45.9829 16.6125 46.1026 16.6311 46.2197C16.6497 46.3367 16.6947 46.448 16.7627 46.5451L18.4018 48.8856C18.4738 48.9887 18.5697 49.0728 18.6812 49.1308C18.7927 49.1888 18.9167 49.219 19.0424 49.2188C19.1853 49.2187 19.3254 49.1794 19.4475 49.1052C19.5696 49.031 19.669 48.9248 19.7349 48.798C19.8008 48.6712 19.8307 48.5288 19.8213 48.3862C19.8119 48.2436 19.7636 48.1064 19.6816 47.9894L19.3846 47.5651C20.0269 47.6801 20.674 47.7661 21.324 47.8229C21.4262 47.8318 21.5292 47.8205 21.627 47.7896C21.7249 47.7587 21.8156 47.7088 21.8942 47.6428C21.9728 47.5769 22.0376 47.496 22.0849 47.405C22.1322 47.314 22.1611 47.2145 22.17 47.1123C22.1789 47.0101 22.1676 46.9072 22.1367 46.8093C22.1059 46.7115 22.056 46.6207 21.99 46.5422C21.9241 46.4636 21.8433 46.3988 21.7522 46.3515C21.6612 46.3042 21.5618 46.2753 21.4596 46.2664ZM4.88193 34.645C4.38783 33.5851 3.98684 32.4842 3.6835 31.3548C3.57168 30.938 3.14316 30.6905 2.72656 30.8027C2.62747 30.8293 2.53458 30.8752 2.4532 30.9376C2.37182 31.0001 2.30354 31.078 2.25227 31.1669C2.201 31.2558 2.16773 31.3539 2.15438 31.4556C2.14102 31.5573 2.14783 31.6607 2.17441 31.7598C2.5013 32.9769 2.9334 34.1632 3.46582 35.3055C3.52868 35.4404 3.62877 35.5545 3.7543 35.6345C3.87983 35.7144 4.02559 35.7568 4.17441 35.7567C4.30577 35.7567 4.43499 35.7235 4.55012 35.6602C4.66526 35.597 4.76259 35.5058 4.83311 35.3949C4.90364 35.2841 4.94509 35.1573 4.95362 35.0262C4.96215 34.8952 4.9375 34.764 4.88193 34.645ZM48.4646 40.1152C48.396 40.234 48.2974 40.3326 48.1786 40.4012C48.0599 40.4698 47.9251 40.5059 47.788 40.5059H36.8204C36.6833 40.5059 36.5485 40.4699 36.4297 40.4013C36.3109 40.3327 36.2123 40.2341 36.1437 40.1153C36.0751 39.9965 36.039 39.8618 36.039 39.7246C36.0391 39.5875 36.0752 39.4527 36.1438 39.334L41.6276 29.8357C41.6962 29.7169 41.7948 29.6183 41.9135 29.5497C42.0323 29.4811 42.167 29.445 42.3042 29.445C42.4414 29.445 42.5761 29.4811 42.6949 29.5497C42.8136 29.6183 42.9122 29.7169 42.9808 29.8357L48.4646 39.334C48.5331 39.4527 48.5692 39.5875 48.5692 39.7246C48.5692 39.8617 48.5331 39.9965 48.4646 40.1152ZM46.4348 38.9434L42.3041 31.7889L38.1735 38.9434H46.4348ZM15.3403 42.28C15.3403 45.3295 12.8595 47.8104 9.80996 47.8104C6.76045 47.8104 4.27959 45.3295 4.27959 42.28C4.27959 39.2305 6.76045 36.7496 9.80996 36.7496C12.8595 36.7496 15.3403 39.2306 15.3403 42.28ZM13.7778 42.28C13.7778 40.0921 11.9979 38.3121 9.80996 38.3121C7.62207 38.3121 5.84209 40.0921 5.84209 42.28C5.84209 44.4679 7.62207 46.2479 9.80996 46.2479C11.9979 46.2479 13.7778 44.468 13.7778 42.28ZM17.7083 8.5875V1.5625C17.7083 1.3553 17.7906 1.15659 17.9371 1.01007C18.0836 0.86356 18.2824 0.78125 18.4896 0.78125H27.9878C28.195 0.78125 28.3937 0.86356 28.5402 1.01007C28.6867 1.15659 28.769 1.3553 28.769 1.5625V8.5875C28.769 8.7947 28.6867 8.99341 28.5402 9.13993C28.3937 9.28644 28.195 9.36875 27.9878 9.36875H18.4896C18.2824 9.36875 18.0836 9.28644 17.9371 9.13993C17.7906 8.99341 17.7083 8.7947 17.7083 8.5875ZM19.2708 7.80625H27.2065V2.34375H19.2708V7.80625ZM33.3982 33.9698L31.1079 36.2604C30.9963 36.372 30.8534 36.4472 30.6982 36.4761C30.543 36.5049 30.3827 36.486 30.2384 36.4219L28.6633 35.7223C27.8886 36.1602 27.0635 36.5023 26.2062 36.7409L25.5874 38.3484C25.5307 38.4958 25.4307 38.6225 25.3005 38.7118C25.1704 38.8012 25.0162 38.849 24.8583 38.849H21.6192C21.4614 38.849 21.3072 38.8012 21.177 38.7118C21.0469 38.6225 20.9469 38.4958 20.8901 38.3484L20.2712 36.7404C19.4142 36.5019 18.5893 36.1599 17.8149 35.722L16.2391 36.4219C16.0948 36.486 15.9345 36.5048 15.7792 36.476C15.624 36.4472 15.4812 36.372 15.3695 36.2604L13.0791 33.97C12.9675 33.8584 12.8923 33.7155 12.8635 33.5603C12.8346 33.4051 12.8535 33.2448 12.9176 33.1005L13.6172 31.5253C13.1792 30.7506 12.8371 29.9255 12.5985 29.0682L10.9911 28.4494C10.8438 28.3927 10.717 28.2927 10.6277 28.1625C10.5383 28.0324 10.4905 27.8782 10.4905 27.7203V24.4813C10.4905 24.3234 10.5384 24.1692 10.6277 24.039C10.7171 23.9089 10.8438 23.8089 10.9911 23.7521L12.5988 23.1333C12.8374 22.2761 13.1794 21.4512 13.6173 20.6767L12.9175 19.1011C12.8534 18.9568 12.8345 18.7965 12.8634 18.6413C12.8922 18.486 12.9674 18.3432 13.079 18.2315L15.3694 15.9411C15.4811 15.8294 15.6239 15.7542 15.7791 15.7254C15.9344 15.6966 16.0947 15.7155 16.239 15.7796L17.8147 16.4795C18.5892 16.0417 19.414 15.6997 20.2711 15.4611L20.89 13.8531C20.9468 13.7058 21.0468 13.5791 21.1769 13.4897C21.3071 13.4004 21.4613 13.3525 21.6191 13.3525H24.8581C25.016 13.3525 25.1702 13.4004 25.3003 13.4897C25.4305 13.5791 25.5305 13.7058 25.5872 13.8531L26.2062 15.461C27.0632 15.6996 27.888 16.0416 28.6624 16.4794L30.2383 15.7795C30.3826 15.7155 30.5429 15.6966 30.6981 15.7255C30.8533 15.7543 30.9962 15.8295 31.1078 15.9411L33.3982 18.2315C33.5099 18.3432 33.5851 18.486 33.6139 18.6412C33.6427 18.7965 33.6239 18.9568 33.5598 19.1011L32.8602 20.6762C33.2981 21.4509 33.6402 22.276 33.8788 23.1333L35.4862 23.7521C35.6336 23.8087 35.7603 23.9088 35.8497 24.0389C35.939 24.1691 35.9868 24.3233 35.9868 24.4812V27.7202C35.9868 27.8781 35.939 28.0323 35.8496 28.1624C35.7603 28.2926 35.6336 28.3926 35.4862 28.4493L33.8782 29.0684C33.6396 29.9254 33.2976 30.7502 32.8599 31.5246L33.5598 33.1004C33.6239 33.2447 33.6428 33.405 33.6139 33.5602C33.5851 33.7154 33.5099 33.8582 33.3982 33.9698ZM32.9419 27.7545L34.4244 27.1838V25.0175L32.9424 24.4471C32.824 24.4015 32.7184 24.3277 32.6349 24.2322C32.5514 24.1367 32.4924 24.0223 32.463 23.8988C32.2308 22.9228 31.8442 21.9902 31.3178 21.1362C31.2512 21.0282 31.212 20.9055 31.2035 20.7789C31.1949 20.6523 31.2174 20.5255 31.2689 20.4095L31.914 18.957L30.3821 17.4252L28.929 18.0705C28.813 18.122 28.6862 18.1445 28.5596 18.136C28.433 18.1276 28.3103 18.0883 28.2022 18.0218C27.3485 17.4955 26.4161 17.1089 25.4404 16.8768C25.317 16.8474 25.2026 16.7884 25.107 16.7049C25.0115 16.6213 24.9378 16.5158 24.8922 16.3974L24.3216 14.9148H22.1554L21.5847 16.3974C21.5391 16.5158 21.4653 16.6213 21.3698 16.7048C21.2743 16.7884 21.1599 16.8474 21.0364 16.8768C20.0607 17.1089 19.1283 17.4955 18.2745 18.0218C18.1665 18.0883 18.0438 18.1276 17.9172 18.136C17.7906 18.1445 17.6638 18.122 17.5479 18.0705L16.0948 17.4252L14.563 18.957L15.2082 20.41C15.2597 20.526 15.2822 20.6527 15.2737 20.7794C15.2652 20.906 15.2259 21.0287 15.1594 21.1367C14.633 21.9905 14.2464 22.923 14.0143 23.8987C13.9849 24.0222 13.9259 24.1366 13.8424 24.2321C13.7588 24.3277 13.6533 24.4014 13.5349 24.447L12.0525 25.0176V27.1838L13.5346 27.7543C13.653 27.7999 13.7585 27.8736 13.8421 27.9691C13.9256 28.0647 13.9846 28.1791 14.014 28.3025C14.2461 29.2785 14.6327 30.2111 15.1592 31.065C15.2258 31.1731 15.265 31.2957 15.2735 31.4224C15.282 31.549 15.2595 31.6758 15.208 31.7918L14.5629 33.2443L16.0947 34.7761L17.5479 34.1308C17.6638 34.0792 17.7906 34.0567 17.9172 34.0652C18.0438 34.0737 18.1665 34.1129 18.2745 34.1795C19.1282 34.7058 20.0606 35.0924 21.0363 35.3245C21.1598 35.3539 21.2742 35.4129 21.3697 35.4964C21.4652 35.5799 21.539 35.6855 21.5846 35.8039L22.1553 37.2865H24.3215L24.892 35.8044C24.9376 35.686 25.0113 35.5805 25.1069 35.4969C25.2024 35.4134 25.3168 35.3544 25.4402 35.325C26.4162 35.0929 27.3488 34.7063 28.2027 34.1798C28.3108 34.1132 28.4335 34.074 28.5601 34.0655C28.6868 34.057 28.8136 34.0795 28.9296 34.131L30.382 34.7761L31.9139 33.2442L31.2685 31.7911C31.2169 31.6751 31.1945 31.5484 31.203 31.4217C31.2115 31.2951 31.2507 31.1725 31.3173 31.0645C31.8436 30.2107 32.2301 29.2783 32.4623 28.3026C32.4918 28.1792 32.5509 28.0648 32.6344 27.9693C32.718 27.8738 32.8235 27.8001 32.9419 27.7545ZM29.6688 26.1007C29.6688 29.6463 26.7843 32.5309 23.2387 32.5309C19.6931 32.5309 16.8085 29.6463 16.8085 26.1007C16.8085 22.5551 19.6931 19.6705 23.2387 19.6705C26.7843 19.6705 29.6688 22.5551 29.6688 26.1007ZM28.1063 26.1007C28.1063 23.4166 25.9228 21.233 23.2387 21.233C20.5546 21.233 18.371 23.4166 18.371 26.1007C18.371 28.7847 20.5546 30.9684 23.2387 30.9684C25.9228 30.9684 28.1063 28.7848 28.1063 26.1007Z" fill="#2166F3"/>
</svg>
