<svg width="55" height="55" viewBox="0 0 55 55" fill="none" xmlns="http://www.w3.org/2000/svg">
<path d="M12.2113 10.4156C12.4691 10.4156 12.7355 10.3211 12.9418 10.132C16.8637 6.51164 22.0074 4.50451 27.3449 4.51172C32.6902 4.51172 37.8035 6.50547 41.7394 10.132C42.1777 10.5359 42.8566 10.5102 43.2605 10.0719C43.6644 9.63359 43.6301 8.95469 43.2004 8.55078C38.8691 4.56328 33.2402 2.36328 27.3449 2.36328C21.4496 2.36328 15.8207 4.56328 11.4894 8.55938C11.3854 8.65514 11.3012 8.77052 11.2418 8.8989C11.1825 9.02727 11.149 9.1661 11.1434 9.30743C11.1378 9.44876 11.1602 9.5898 11.2093 9.72246C11.2583 9.85511 11.3331 9.97678 11.4293 10.0805C11.6355 10.3039 11.9277 10.4156 12.2113 10.4156Z" fill="#2166F3"/>
<path d="M39.0152 14.6779C39.4191 14.2396 39.3847 13.5607 38.955 13.1568C35.7839 10.235 31.6589 8.62793 27.3448 8.62793C23.0308 8.62793 18.9058 10.235 15.7347 13.1654C15.5753 13.312 15.4639 13.5034 15.4152 13.7144C15.3665 13.9254 15.3827 14.1462 15.4617 14.3479C15.5407 14.5495 15.6788 14.7226 15.8578 14.8443C16.0369 14.9661 16.2486 15.0309 16.4652 15.0303C16.723 15.0303 16.9894 14.9357 17.1956 14.7467C19.9714 12.1857 23.5722 10.785 27.3448 10.785C31.1175 10.785 34.7183 12.1943 37.4941 14.7467C37.9323 15.142 38.6113 15.1162 39.0152 14.6779Z" fill="#2166F3"/>
<path d="M34.701 17.772C32.6901 15.9157 30.0776 14.8931 27.3362 14.8931C24.5948 14.8931 21.9823 15.9157 19.9713 17.772C19.533 18.1759 19.5073 18.8548 19.9112 19.2931C20.3151 19.7313 20.994 19.7571 21.4323 19.3532C23.0479 17.8665 25.1448 17.0501 27.3362 17.0501C29.5276 17.0501 31.6245 17.8665 33.2401 19.3532C33.4463 19.5423 33.7041 19.6368 33.9705 19.6368C34.2627 19.6368 34.5463 19.5165 34.7612 19.2931C35.1651 18.8462 35.1393 18.1673 34.701 17.772ZM33.2487 35.6556C31.633 37.1423 29.5362 37.9587 27.3448 37.9587C25.1534 37.9587 23.0565 37.1423 21.4409 35.6556C21.0026 35.2517 20.3237 35.2774 19.9198 35.7157C19.5159 36.154 19.5416 36.8329 19.9799 37.2368C21.9909 39.0931 24.612 40.1157 27.3448 40.1157C30.0776 40.1157 32.6987 39.0931 34.7096 37.2368C35.1479 36.8329 35.1737 36.154 34.7698 35.7157C34.3659 35.2774 33.687 35.2517 33.2487 35.6556ZM32.6987 27.5001C32.6987 24.5438 30.2924 22.1376 27.3362 22.1376C24.3799 22.1376 21.9737 24.5438 21.9737 27.5001C21.9737 30.4563 24.3799 32.8626 27.3362 32.8626C30.2924 32.8626 32.6987 30.4563 32.6987 27.5001ZM24.1221 27.5001C24.1221 25.7298 25.5659 24.286 27.3362 24.286C29.1065 24.286 30.5502 25.7298 30.5502 27.5001C30.5502 29.2704 29.1065 30.7142 27.3362 30.7142C25.5659 30.7142 24.1221 29.2704 24.1221 27.5001ZM16.9291 31.7884V23.2118C16.9291 22.9269 16.816 22.6537 16.6145 22.4522C16.4131 22.2508 16.1398 22.1376 15.8549 22.1376C15.57 22.1376 15.2968 22.2508 15.0953 22.4522C14.8939 22.6537 14.7807 22.9269 14.7807 23.2118V31.7884C14.7807 32.0733 14.8939 32.3465 15.0953 32.548C15.2968 32.7494 15.57 32.8626 15.8549 32.8626C16.1398 32.8626 16.4131 32.7494 16.6145 32.548C16.816 32.3465 16.9291 32.0733 16.9291 31.7884ZM44.2659 22.1376H35.6893C35.4044 22.1376 35.1312 22.2508 34.9297 22.4522C34.7283 22.6537 34.6151 22.9269 34.6151 23.2118C34.6151 23.4967 34.7283 23.7699 34.9297 23.9714C35.1312 24.1729 35.4044 24.286 35.6893 24.286H38.9034V31.7884C38.9034 32.0733 39.0165 32.3465 39.218 32.548C39.4194 32.7494 39.6927 32.8626 39.9776 32.8626C40.2625 32.8626 40.5357 32.7494 40.7372 32.548C40.9386 32.3465 41.0518 32.0733 41.0518 31.7884V24.286H44.2659C44.5508 24.286 44.824 24.1729 45.0254 23.9714C45.2269 23.7699 45.3401 23.4967 45.3401 23.2118C45.3401 22.9269 45.2269 22.6537 45.0254 22.4522C44.824 22.2508 44.5508 22.1376 44.2659 22.1376ZM41.7393 44.8681C37.8034 48.4946 32.6901 50.4884 27.3448 50.4884C21.9995 50.4884 16.8862 48.4946 12.9502 44.8681C12.7398 44.6759 12.4621 44.5745 12.1773 44.5857C11.8926 44.597 11.6238 44.7201 11.4291 44.9282C11.0252 45.3665 11.051 46.0454 11.4893 46.4493C15.8205 50.4368 21.4495 52.6368 27.3448 52.6368C33.2401 52.6368 38.869 50.4368 43.2002 46.4407C43.6385 46.0368 43.6643 45.3579 43.2604 44.9196C42.8565 44.4899 42.1776 44.4642 41.7393 44.8681Z" fill="#2166F3"/>
<path d="M27.3368 46.3721C31.6508 46.3721 35.7758 44.7651 38.9469 41.8346C39.3852 41.4307 39.411 40.7518 39.0071 40.3135C38.6032 39.8752 37.9243 39.8495 37.486 40.2534C34.7102 42.8143 31.1094 44.2151 27.3368 44.2151C23.5641 44.2151 19.9633 42.8057 17.1875 40.2534C16.9771 40.0612 16.6994 39.9598 16.4146 39.971C16.1299 39.9823 15.8611 40.1053 15.6664 40.3135C15.2625 40.7518 15.2883 41.4307 15.7266 41.8346C18.9063 44.7651 23.0313 46.3721 27.3368 46.3721Z" fill="#2166F3"/>
</svg>
