<svg width="55" height="55" viewBox="0 0 55 55" fill="none" xmlns="http://www.w3.org/2000/svg">
<path d="M34.2188 31.6407C34.2188 26.7061 30.9978 22.5141 26.5514 21.0394C27.3263 20.4857 27.9583 19.7554 28.3949 18.909C28.8316 18.0626 29.0604 17.1243 29.0625 16.1719C29.0625 12.8547 26.3641 10.1563 23.0469 10.1563C19.7297 10.1563 17.0312 12.8547 17.0312 16.1719C17.0333 17.1243 17.2622 18.0626 17.6988 18.909C18.1355 19.7554 18.7674 20.4857 19.5423 21.0394C15.0959 22.5141 11.875 26.7079 11.875 31.6407C11.875 31.8686 11.9655 32.0872 12.1267 32.2483C12.2879 32.4095 12.5065 32.5 12.7344 32.5H33.3594C33.5873 32.5 33.8059 32.4095 33.967 32.2483C34.1282 32.0872 34.2188 31.8686 34.2188 31.6407ZM25.4394 28.033L23.0469 30.4255L20.6544 28.033L23.0469 23.2497L25.4394 28.033ZM18.75 16.1719C18.75 13.8035 20.6767 11.875 23.0469 11.875C25.417 11.875 27.3438 13.8035 27.3438 16.1719C27.3438 18.5404 25.417 20.4688 23.0469 20.4688C20.6767 20.4688 18.75 18.5404 18.75 16.1719ZM21.5859 22.3268L18.8411 27.8182C18.76 27.9796 18.7317 28.1624 18.7604 28.3407C18.7891 28.5191 18.8733 28.6838 19.0009 28.8116L20.9723 30.7813H13.6333C14.0234 26.4586 17.3458 22.9902 21.5859 22.3268ZM25.1214 30.7813L27.0928 28.8116C27.2205 28.6838 27.3046 28.5191 27.3333 28.3407C27.362 28.1624 27.3338 27.9796 27.2527 27.8182L24.5078 22.3268C28.748 22.9902 32.0703 26.4586 32.4622 30.7813H25.1214ZM35.0781 5.00005C32.4438 4.99283 29.8714 5.79829 27.7116 7.30661C27.6165 7.37009 27.535 7.45191 27.4719 7.54728C27.4089 7.64264 27.3655 7.74963 27.3443 7.86197C27.3231 7.97432 27.3245 8.08977 27.3485 8.20155C27.3725 8.31334 27.4185 8.41922 27.4839 8.51299C27.5493 8.60676 27.6328 8.68654 27.7294 8.74765C27.826 8.80875 27.9339 8.84997 28.0467 8.86887C28.1594 8.88778 28.2748 8.88399 28.3861 8.85774C28.4974 8.83149 28.6023 8.78329 28.6947 8.71599C30.5663 7.40923 32.7955 6.71178 35.0781 6.7188C41.2381 6.7188 46.25 11.7307 46.25 17.8907C46.25 23.4165 42.1336 28.1705 36.6766 28.9491C36.454 28.9845 36.2543 29.1059 36.1204 29.2872C35.9865 29.4684 35.9292 29.695 35.9607 29.9181C35.9923 30.1413 36.1102 30.3431 36.2891 30.4801C36.468 30.6171 36.6936 30.6784 36.9172 30.6507C43.2181 29.7518 47.9688 24.2672 47.9688 17.8907C47.9688 10.7819 42.1869 5.00005 35.0781 5.00005Z" fill="#2166F3"/>
<path d="M35.0781 11.875C34.8502 11.875 34.6316 11.9655 34.4705 12.1267C34.3093 12.2879 34.2188 12.5065 34.2188 12.7344V17.8906C34.2185 18.0036 34.2406 18.1154 34.2837 18.2198C34.3267 18.3242 34.3899 18.4191 34.4697 18.4991L36.1884 20.2178C36.268 20.2983 36.3628 20.3621 36.4672 20.4057C36.5717 20.4493 36.6837 20.4717 36.7969 20.4717C36.91 20.4717 37.0221 20.4493 37.1265 20.4057C37.231 20.3621 37.3257 20.2983 37.4053 20.2178C37.4853 20.138 37.5488 20.0432 37.5922 19.9387C37.6355 19.8343 37.6578 19.7224 37.6578 19.6094C37.6578 19.4963 37.6355 19.3844 37.5922 19.28C37.5488 19.1756 37.4853 19.0808 37.4053 19.0009L35.9375 17.5348V12.7344C35.9375 12.5065 35.847 12.2879 35.6858 12.1267C35.5246 11.9655 35.306 11.875 35.0781 11.875ZM5.85938 44.5312C6.0873 44.5312 6.30588 44.4407 6.46704 44.2795C6.62821 44.1184 6.71875 43.8998 6.71875 43.6719V27.3438H11.0156C11.2435 27.3438 11.4621 27.2532 11.6233 27.092C11.7845 26.9309 11.875 26.7123 11.875 26.4844C11.875 26.2565 11.7845 26.0379 11.6233 25.8767C11.4621 25.7155 11.2435 25.625 11.0156 25.625H5.85938C5.63145 25.625 5.41287 25.7155 5.25171 25.8767C5.09054 26.0379 5 26.2565 5 26.4844V43.6719C5 43.8998 5.09054 44.1184 5.25171 44.2795C5.41287 44.4407 5.63145 44.5312 5.85938 44.5312ZM53.9844 25.625H48.8281C48.6002 25.625 48.3816 25.7155 48.2205 25.8767C48.0593 26.0379 47.9688 26.2565 47.9688 26.4844C47.9688 26.7123 48.0593 26.9309 48.2205 27.092C48.3816 27.2532 48.6002 27.3438 48.8281 27.3438H53.125V53.125H6.71875V50.5469C6.71875 50.319 6.62821 50.1004 6.46704 49.9392C6.30588 49.778 6.0873 49.6875 5.85938 49.6875C5.63145 49.6875 5.41287 49.778 5.25171 49.9392C5.09054 50.1004 5 50.319 5 50.5469V53.9844C5 54.2123 5.09054 54.4309 5.25171 54.592C5.41287 54.7532 5.63145 54.8438 5.85938 54.8438H53.9844C54.2123 54.8438 54.4309 54.7532 54.592 54.592C54.7532 54.4309 54.8438 54.2123 54.8438 53.9844V26.4844C54.8438 26.2565 54.7532 26.0379 54.592 25.8767C54.4309 25.7155 54.2123 25.625 53.9844 25.625Z" fill="#2166F3"/>
<path d="M16.1719 44.5313H12.7344C12.5065 44.5313 12.2879 44.6219 12.1267 44.783C11.9655 44.9442 11.875 45.1628 11.875 45.3907V48.8282C11.875 49.0561 11.9655 49.2747 12.1267 49.4359C12.2879 49.597 12.5065 49.6876 12.7344 49.6876H16.1719C16.3998 49.6876 16.6184 49.597 16.7795 49.4359C16.9407 49.2747 17.0312 49.0561 17.0312 48.8282V45.3907C17.0312 45.1628 16.9407 44.9442 16.7795 44.783C16.6184 44.6219 16.3998 44.5313 16.1719 44.5313ZM15.3125 47.9688H13.5938V46.2501H15.3125V47.9688ZM17.0312 36.7969C17.0312 36.569 16.9407 36.3504 16.7795 36.1893C16.6184 36.0281 16.3998 35.9376 16.1719 35.9376H12.7344C12.5065 35.9376 12.2879 36.0281 12.1267 36.1893C11.9655 36.3504 11.875 36.569 11.875 36.7969V40.2344C11.875 40.4624 11.9655 40.681 12.1267 40.8421C12.2879 41.0033 12.5065 41.0938 12.7344 41.0938H16.1719C16.3998 41.0938 16.6184 41.0033 16.7795 40.8421C16.9407 40.681 17.0312 40.4624 17.0312 40.2344V36.7969ZM15.3125 39.3751H13.5938V37.6563H15.3125V39.3751ZM26.4844 44.5313H23.0469C22.819 44.5313 22.6004 44.6219 22.4392 44.783C22.278 44.9442 22.1875 45.1628 22.1875 45.3907V48.8282C22.1875 49.0561 22.278 49.2747 22.4392 49.4359C22.6004 49.597 22.819 49.6876 23.0469 49.6876H26.4844C26.7123 49.6876 26.9309 49.597 27.092 49.4359C27.2532 49.2747 27.3438 49.0561 27.3438 48.8282V45.3907C27.3438 45.1628 27.2532 44.9442 27.092 44.783C26.9309 44.6219 26.7123 44.5313 26.4844 44.5313ZM25.625 47.9688H23.9062V46.2501H25.625V47.9688ZM27.3438 36.7969C27.3438 36.569 27.2532 36.3504 27.092 36.1893C26.9309 36.0281 26.7123 35.9376 26.4844 35.9376H23.0469C22.819 35.9376 22.6004 36.0281 22.4392 36.1893C22.278 36.3504 22.1875 36.569 22.1875 36.7969V40.2344C22.1875 40.4624 22.278 40.681 22.4392 40.8421C22.6004 41.0033 22.819 41.0938 23.0469 41.0938H26.4844C26.7123 41.0938 26.9309 41.0033 27.092 40.8421C27.2532 40.681 27.3438 40.4624 27.3438 40.2344V36.7969ZM25.625 39.3751H23.9062V37.6563H25.625V39.3751ZM33.3594 49.6876H36.7969C37.0248 49.6876 37.2434 49.597 37.4045 49.4359C37.5657 49.2747 37.6562 49.0561 37.6562 48.8282V45.3907C37.6562 45.1628 37.5657 44.9442 37.4045 44.783C37.2434 44.6219 37.0248 44.5313 36.7969 44.5313H33.3594C33.1315 44.5313 32.9129 44.6219 32.7517 44.783C32.5905 44.9442 32.5 45.1628 32.5 45.3907V48.8282C32.5 49.0561 32.5905 49.2747 32.7517 49.4359C32.9129 49.597 33.1315 49.6876 33.3594 49.6876ZM34.2188 46.2501H35.9375V47.9688H34.2188V46.2501ZM37.6562 36.7969C37.6562 36.569 37.5657 36.3504 37.4045 36.1893C37.2434 36.0281 37.0248 35.9376 36.7969 35.9376H33.3594C33.1315 35.9376 32.9129 36.0281 32.7517 36.1893C32.5905 36.3504 32.5 36.569 32.5 36.7969V40.2344C32.5 40.4624 32.5905 40.681 32.7517 40.8421C32.9129 41.0033 33.1315 41.0938 33.3594 41.0938H36.7969C37.0248 41.0938 37.2434 41.0033 37.4045 40.8421C37.5657 40.681 37.6562 40.4624 37.6562 40.2344V36.7969ZM35.9375 39.3751H34.2188V37.6563H35.9375V39.3751ZM43.6719 44.5313C43.444 44.5313 43.2254 44.6219 43.0642 44.783C42.903 44.9442 42.8125 45.1628 42.8125 45.3907V48.8282C42.8125 49.0561 42.903 49.2747 43.0642 49.4359C43.2254 49.597 43.444 49.6876 43.6719 49.6876H47.1094C47.3373 49.6876 47.5559 49.597 47.717 49.4359C47.8782 49.2747 47.9688 49.0561 47.9688 48.8282V45.3907C47.9688 45.1628 47.8782 44.9442 47.717 44.783C47.5559 44.6219 47.3373 44.5313 47.1094 44.5313H43.6719ZM46.25 47.9688H44.5312V46.2501H46.25V47.9688ZM48.5772 36.1885C48.4974 36.1085 48.4025 36.045 48.2981 36.0017C48.1937 35.9583 48.0818 35.936 47.9688 35.936C47.8557 35.936 47.7438 35.9583 47.6394 36.0017C47.535 36.045 47.4401 36.1085 47.3603 36.1885L44.5312 39.0193L43.4209 37.9073C43.341 37.8274 43.2462 37.764 43.1418 37.7207C43.0374 37.6775 42.9255 37.6552 42.8125 37.6552C42.6995 37.6552 42.5876 37.6775 42.4832 37.7207C42.3788 37.764 42.284 37.8274 42.2041 37.9073C42.1242 37.9872 42.0608 38.082 42.0175 38.1864C41.9743 38.2908 41.952 38.4027 41.952 38.5157C41.952 38.6287 41.9743 38.7406 42.0175 38.845C42.0608 38.9494 42.1242 39.0442 42.2041 39.1241L43.9228 40.8429C44.0024 40.9233 44.0972 40.9872 44.2016 41.0308C44.306 41.0744 44.4181 41.0968 44.5312 41.0968C44.6444 41.0968 44.7565 41.0744 44.8609 41.0308C44.9653 40.9872 45.0601 40.9233 45.1397 40.8429L48.5772 37.4054C48.6572 37.3256 48.7207 37.2307 48.764 37.1263C48.8074 37.0219 48.8297 36.91 48.8297 36.7969C48.8297 36.6839 48.8074 36.572 48.764 36.4676C48.7207 36.3632 48.6572 36.2683 48.5772 36.1885Z" fill="#2166F3"/>
<path d="M5.85938 47.9688C6.33399 47.9688 6.71875 47.584 6.71875 47.1094C6.71875 46.6348 6.33399 46.25 5.85938 46.25C5.38476 46.25 5 46.6348 5 47.1094C5 47.584 5.38476 47.9688 5.85938 47.9688Z" fill="#2166F3"/>
</svg>
