<svg width="52" height="55" viewBox="0 0 52 55" fill="none" xmlns="http://www.w3.org/2000/svg">
<path d="M53.7355 33.6735C53.025 33.6752 52.3347 33.9095 51.77 34.3407C51.2054 34.7718 50.7975 35.376 50.6087 36.0609H47.6244L43.099 30.8674C43.0167 30.7762 42.9164 30.703 42.8045 30.6524C42.6926 30.6018 42.5715 30.5749 42.4487 30.5734H30.3957V24.4534H42.4487C42.5715 24.4519 42.6926 24.425 42.8045 24.3744C42.9164 24.3238 43.0167 24.2506 43.099 24.1594L47.6244 18.9659H50.6087C50.8178 19.7269 51.2959 20.3862 51.9542 20.8215C52.6125 21.2567 53.4064 21.4385 54.1885 21.333C54.9706 21.2274 55.6879 20.8418 56.2073 20.2476C56.7267 19.6534 57.0129 18.891 57.0129 18.1018C57.0129 17.3126 56.7267 16.5502 56.2073 15.956C55.6879 15.3618 54.9706 14.9762 54.1885 14.8706C53.4064 14.7651 52.6125 14.9468 51.9542 15.3821C51.2959 15.8174 50.8178 16.4767 50.6087 17.2377H47.2324C47.1096 17.2392 46.9884 17.2661 46.8765 17.3167C46.7646 17.3673 46.6644 17.4405 46.5821 17.5317L42.0567 22.7252H30.3957V19.4826H41.6914C41.8155 19.4834 41.9382 19.4567 42.0507 19.4043C42.1631 19.3519 42.2626 19.2752 42.3418 19.1797L45.4953 15.4738C45.6303 15.3183 45.7032 15.1185 45.7002 14.9126V11.4651C46.4538 11.2561 47.1062 10.7811 47.5365 10.1279C47.9667 9.47483 48.1457 8.68791 48.0403 7.91295C47.9348 7.13799 47.552 6.42751 46.9629 5.91312C46.3738 5.39872 45.6182 5.11527 44.8361 5.11527C44.054 5.11527 43.2984 5.39872 42.7092 5.91312C42.1201 6.42751 41.7374 7.13799 41.6319 7.91295C41.5264 8.68791 41.7054 9.47483 42.1357 10.1279C42.5659 10.7811 43.2183 11.2561 43.972 11.4651V14.6186L41.2995 17.7544H30.3957V13.6209H34.3421C34.4849 13.6217 34.6259 13.5881 34.753 13.523C34.8801 13.4579 34.9897 13.3631 35.0726 13.2468L36.1772 11.4651C36.4663 11.5527 36.766 11.6006 37.068 11.6076C37.7125 11.6111 38.3435 11.4236 38.8815 11.0686C39.4194 10.7137 39.84 10.2073 40.0903 9.6134C40.3406 9.01951 40.4092 8.36477 40.2876 7.73189C40.1659 7.099 39.8595 6.51636 39.4069 6.05755C38.9543 5.59875 38.3759 5.28436 37.7447 5.1541C37.1136 5.02385 36.458 5.08356 35.8607 5.32571C35.2635 5.56785 34.7514 5.98156 34.3891 6.51459C34.0269 7.04761 33.8307 7.67603 33.8254 8.32048C33.8291 9.14105 34.148 9.92883 34.7162 10.5208L33.8254 11.8927H30.3957V5.22039C30.4044 5.15833 30.4044 5.09537 30.3957 5.03332C29.8811 3.55594 28.9174 2.27645 27.6395 1.37395C26.3616 0.471442 24.8335 -0.00891044 23.2691 0.000125172C21.8211 0.0107641 20.4064 0.435898 19.1924 1.22524C17.9784 2.01458 17.0158 3.13511 16.4186 4.45428C15.295 4.10382 14.1047 4.02239 12.9438 4.21656C11.7829 4.41073 10.6839 4.87506 9.73542 5.57209C8.78698 6.26912 8.01565 7.17932 7.48368 8.22927C6.95171 9.27923 6.67399 10.4395 6.67292 11.6165C6.66865 12.3068 6.76468 12.9939 6.95799 13.6565C5.89844 13.9962 4.92713 14.566 4.11364 15.3251C3.30014 16.0842 2.6646 17.0138 2.25255 18.0474C1.84049 19.0809 1.66211 20.1928 1.7302 21.3034C1.79829 22.414 2.11115 23.4958 2.64637 24.4712C1.69763 25.2087 0.95956 26.1827 0.506225 27.2955C0.0528896 28.4083 -0.0997571 29.6208 0.0636053 30.8113C0.226968 32.0018 0.700592 33.1283 1.43694 34.0779C2.17329 35.0275 3.14646 35.7667 4.25877 36.2213C3.57782 37.2989 3.18167 38.5318 3.10749 39.8043C3.0333 41.0769 3.28349 42.3475 3.83462 43.4969C4.38574 44.6464 5.21974 45.637 6.25841 46.376C7.29709 47.115 8.50641 47.5781 9.77301 47.7219C9.81779 48.8709 10.1511 49.9902 10.7422 50.9766C11.3333 51.9629 12.1632 52.7846 13.1554 53.3659C14.1475 53.9472 15.2701 54.2693 16.4195 54.3027C17.5689 54.3361 18.7083 54.0796 19.7325 53.5568C20.9358 54.4962 22.4196 55.0044 23.9461 55C25.3331 54.9934 26.686 54.5692 27.8285 53.7827C28.971 52.9962 29.8501 51.8837 30.3512 50.5904C30.3591 50.5223 30.3591 50.4535 30.3512 50.3855C30.3555 50.35 30.3555 50.3141 30.3512 50.2786V43.1519H33.8254L34.7162 44.5238C34.148 45.1158 33.8291 45.9036 33.8254 46.7242C33.8237 47.3694 34.0134 48.0006 34.3706 48.538C34.7278 49.0753 35.2363 49.4946 35.832 49.7428C36.4276 49.9909 37.0834 50.0567 37.7165 49.9319C38.3495 49.8071 38.9313 49.4973 39.3882 49.0417C39.845 48.5861 40.1564 48.0051 40.283 47.3724C40.4095 46.7397 40.3455 46.0837 40.099 45.4874C39.8524 44.8911 39.4345 44.3814 38.8982 44.0227C38.3618 43.6641 37.7311 43.4726 37.0859 43.4726C36.7838 43.4796 36.4842 43.5276 36.195 43.6152L35.0726 41.7533C34.9937 41.6304 34.8859 41.5287 34.7585 41.4572C34.6311 41.3858 34.4881 41.3467 34.3421 41.3435H30.3957V37.2992H41.2906L43.9631 40.4349V43.535C43.1972 43.7443 42.5333 44.2244 42.0947 44.8861C41.656 45.5479 41.4725 46.3463 41.578 47.1332C41.6836 47.9201 42.0711 48.642 42.6687 49.1647C43.2663 49.6874 44.0332 49.9756 44.8272 49.9756C45.6211 49.9756 46.3881 49.6874 46.9856 49.1647C47.5832 48.642 47.9707 47.9201 48.0763 47.1332C48.1819 46.3463 47.9983 45.5479 47.5597 44.8861C47.121 44.2244 46.4571 43.7443 45.6913 43.535V40.0608C45.6943 39.8548 45.6214 39.655 45.4864 39.4995L42.3328 35.8115C42.2537 35.716 42.1542 35.6393 42.0418 35.5869C41.9293 35.5345 41.8066 35.5078 41.6825 35.5086H30.3957V32.3016H42.0567L46.5821 37.4952C46.6644 37.5863 46.7646 37.6595 46.8765 37.7101C46.9884 37.7607 47.1096 37.7876 47.2324 37.7891H50.6087C50.7698 38.3736 51.091 38.9013 51.5362 39.3128C51.9814 39.7243 52.5328 40.0031 53.128 40.1178C53.7233 40.2325 54.3388 40.1785 54.905 39.9619C55.4712 39.7453 55.9656 39.3748 56.3323 38.892C56.6991 38.4093 56.9235 37.8337 56.9804 37.2302C57.0373 36.6266 56.9244 36.0192 56.6543 35.4764C56.3842 34.9337 55.9678 34.4773 55.452 34.1587C54.9362 33.8401 54.3417 33.672 53.7355 33.6735ZM53.7355 16.5428C54.0385 16.5428 54.3348 16.6327 54.5867 16.8011C54.8387 16.9694 55.0351 17.2087 55.1511 17.4887C55.267 17.7687 55.2974 18.0768 55.2383 18.374C55.1791 18.6712 55.0332 18.9442 54.8189 19.1585C54.6046 19.3728 54.3316 19.5187 54.0344 19.5779C53.7372 19.637 53.4291 19.6066 53.1491 19.4907C52.8691 19.3747 52.6298 19.1783 52.4615 18.9263C52.2931 18.6744 52.2032 18.3781 52.2032 18.0751C52.2032 17.6687 52.3647 17.279 52.652 16.9916C52.9394 16.7043 53.3291 16.5428 53.7355 16.5428ZM43.3128 8.32048C43.311 8.01668 43.3996 7.71922 43.5673 7.46588C43.735 7.21255 43.9742 7.01478 44.2545 6.89771C44.5348 6.78063 44.8437 6.74954 45.1417 6.80838C45.4398 6.86721 45.7136 7.01333 45.9284 7.22815C46.1432 7.44297 46.2893 7.7168 46.3482 8.01485C46.407 8.3129 46.3759 8.62171 46.2588 8.90205C46.1418 9.18239 45.944 9.4216 45.6907 9.58928C45.4373 9.75697 45.1399 9.84556 44.8361 9.8438C44.4328 9.84146 44.0467 9.68022 43.7615 9.39504C43.4763 9.10987 43.3151 8.72377 43.3128 8.32048ZM37.0769 6.78825C37.38 6.78825 37.6762 6.87811 37.9282 7.04648C38.1802 7.21484 38.3766 7.45414 38.4925 7.73412C38.6085 8.0141 38.6389 8.32218 38.5797 8.6194C38.5206 8.91662 38.3747 9.18964 38.1604 9.40393C37.9461 9.61821 37.6731 9.76414 37.3759 9.82326C37.0786 9.88239 36.7706 9.85204 36.4906 9.73607C36.2106 9.6201 35.9713 9.42371 35.8029 9.17174C35.6346 8.91976 35.5447 8.62352 35.5447 8.32048C35.5447 8.11851 35.5846 7.91854 35.6622 7.73205C35.7398 7.54557 35.8534 7.37626 35.9966 7.23387C36.1399 7.09147 36.3098 6.97879 36.4968 6.90232C36.6837 6.82584 36.8839 6.78708 37.0859 6.78825H37.0769ZM28.6586 12.7568V16.8101C27.8962 16.4319 27.0474 16.2616 26.1981 16.3164C25.3488 16.3711 24.529 16.649 23.8214 17.1219C23.6364 17.2547 23.5092 17.4534 23.4661 17.6771C23.4231 17.9008 23.4673 18.1324 23.5898 18.3245C23.7224 18.5072 23.9194 18.6327 24.141 18.6756C24.3626 18.7186 24.5922 18.6759 24.7835 18.5561C25.3699 18.1586 26.0754 17.9752 26.7812 18.0369C27.487 18.0985 28.15 18.4014 28.6586 18.8946V27.1081C27.8971 26.7249 27.0469 26.5525 26.1963 26.6089C25.3457 26.6653 24.5256 26.9484 23.8214 27.4288C23.6867 27.5766 23.6057 27.7654 23.5913 27.9648C23.5769 28.1642 23.6301 28.3627 23.7421 28.5282C23.8542 28.6938 24.0188 28.8169 24.2093 28.8776C24.3998 28.9383 24.6052 28.9332 24.7924 28.863C25.3749 28.4622 26.0781 28.2752 26.7827 28.3337C27.4873 28.3921 28.1501 28.6924 28.6586 29.1837V50.0737C28.3795 50.7639 27.953 51.3848 27.409 51.893C26.865 52.4012 26.2165 52.7845 25.509 53.0162C24.8014 53.2478 24.0519 53.3221 23.3126 53.2339C22.5734 53.1457 21.8623 52.8972 21.2291 52.5056C22.0207 51.7997 22.5579 50.8527 22.7576 49.8109C22.9572 48.7691 22.8083 47.6906 22.3337 46.742C22.3066 46.6081 22.2491 46.4822 22.1655 46.3741C22.082 46.266 21.9747 46.1785 21.852 46.1185C21.7292 46.0585 21.5943 46.0275 21.4577 46.0279C21.3211 46.0284 21.1864 46.0602 21.064 46.121C20.9417 46.1819 20.835 46.27 20.7522 46.3787C20.6693 46.4873 20.6126 46.6136 20.5864 46.7476C20.5601 46.8817 20.5651 47.02 20.6008 47.1519C20.6366 47.2838 20.7022 47.4056 20.7926 47.5081C20.9749 47.8856 21.0807 48.2955 21.1036 48.7141C21.1266 49.1327 21.0663 49.5516 20.9263 49.9468C20.7863 50.342 20.5693 50.7054 20.288 51.0162C20.0066 51.327 19.6664 51.5789 19.2871 51.7573C19.2192 51.8006 19.1565 51.8514 19.1 51.9088C18.3322 52.3452 17.4643 52.575 16.5811 52.5756C15.6979 52.5762 14.8297 52.3476 14.0613 51.9122C13.2929 51.4769 12.6506 50.8496 12.1972 50.0917C11.7438 49.3338 11.4948 48.4712 11.4745 47.5883C12.9889 47.1518 15.8485 46.056 16.2672 43.9002C16.3045 43.6753 16.2542 43.4447 16.1266 43.2558C15.999 43.0668 15.8038 42.934 15.5812 42.8847C15.364 42.8509 15.1419 42.8985 14.9577 43.0186C14.7735 43.1387 14.6402 43.3226 14.5835 43.535C14.3251 44.8178 11.6348 45.771 10.5658 46.0026C9.45317 45.9873 8.36846 45.6517 7.44154 45.036C6.51461 44.4203 5.78474 43.5505 5.33925 42.5308C4.89377 41.5111 4.75155 40.3846 4.92962 39.2862C5.10769 38.1877 5.5985 37.1638 6.34331 36.3371C6.45171 36.2191 6.5263 36.0741 6.55922 35.9174C6.59214 35.7606 6.58218 35.5978 6.53039 35.4463C6.47855 35.3027 6.3907 35.1749 6.27526 35.0751C6.15983 34.9752 6.02069 34.9067 5.87117 34.8761C4.85405 34.6766 3.92139 34.1732 3.19639 33.4325C2.47139 32.6917 1.98818 31.7485 1.81058 30.7273C1.63299 29.7061 1.76937 28.6551 2.20171 27.7131C2.63405 26.771 3.342 25.9823 4.23205 25.4511C4.57929 25.2177 4.96941 25.0554 5.37981 24.9738C5.79022 24.8922 6.21273 24.8928 6.62289 24.9757C7.03304 25.0585 7.42267 25.222 7.76921 25.4565C8.11574 25.691 8.41228 25.992 8.64165 26.342C8.72274 26.4559 8.82951 26.5491 8.95332 26.6141C9.07713 26.6791 9.2145 26.7141 9.35432 26.7161C9.52895 26.7148 9.69933 26.6621 9.84427 26.5647C10.0279 26.4305 10.1532 26.2312 10.1946 26.0076C10.236 25.784 10.1904 25.5531 10.067 25.3621C9.43238 24.4075 8.48264 23.7062 7.3836 23.3805C6.28457 23.0549 5.10607 23.1256 4.05388 23.5804C3.64426 22.8166 3.41217 21.9703 3.37489 21.1044C3.3376 20.2384 3.49608 19.3753 3.83852 18.5791C4.18097 17.7829 4.69856 17.0742 5.35278 16.5057C6.00701 15.9373 6.78101 15.5236 7.6172 15.2957C7.95654 15.8552 8.43356 16.3184 9.00277 16.6412C9.57197 16.964 10.2144 17.1356 10.8687 17.1397C11.3156 17.1417 11.7592 17.0632 12.1782 16.9081C12.3137 16.8953 12.4444 16.8516 12.5603 16.7805C12.6763 16.7094 12.7744 16.6126 12.8472 16.4977C12.9199 16.3827 12.9654 16.2527 12.9801 16.1174C12.9948 15.9822 12.9783 15.8454 12.9319 15.7175C12.8856 15.5896 12.8105 15.4741 12.7126 15.3797C12.6146 15.2853 12.4963 15.2146 12.3668 15.173C12.2373 15.1314 12.0999 15.1201 11.9653 15.1398C11.8307 15.1595 11.7025 15.2098 11.5903 15.2868C11.0656 15.4669 10.4912 15.4333 9.99106 15.1933C9.49096 14.9532 9.10542 14.526 8.91781 14.004C8.92117 13.9774 8.92117 13.9504 8.91781 13.9238C8.45589 12.8523 8.32898 11.6662 8.55376 10.5212C8.77854 9.37628 9.34448 8.32614 10.1772 7.50884C11.0099 6.69154 12.0705 6.14532 13.2194 5.94198C14.3684 5.73864 15.5519 5.8877 16.6146 6.36956H16.7927C19.2603 6.85061 19.9908 9.11332 19.6078 11.1355C19.5729 11.359 19.6244 11.5874 19.7518 11.7744C19.8792 11.9613 20.0729 12.0928 20.2937 12.1421H20.4541C20.6612 12.1467 20.8635 12.079 21.0261 11.9505C21.1887 11.8221 21.3014 11.641 21.3449 11.4384C21.9061 8.42738 20.6144 5.89742 18.1557 4.94423C18.6327 3.97168 19.3714 3.15138 20.2888 2.57543C21.2062 1.99949 22.2661 1.69072 23.3493 1.68379C24.5269 1.68183 25.6769 2.04123 26.6438 2.71348C27.6108 3.38574 28.3482 4.33848 28.7566 5.4431L28.6586 12.7568ZM37.0769 45.1563C37.3804 45.1563 37.677 45.2464 37.9291 45.4152C38.1813 45.5839 38.3777 45.8237 38.4934 46.1042C38.6091 46.3847 38.6389 46.6933 38.579 46.9907C38.5192 47.2882 38.3724 47.5612 38.1572 47.7751C37.942 47.9891 37.6682 48.1343 37.3704 48.1924C37.0726 48.2505 36.7642 48.2189 36.4844 48.1015C36.2046 47.9842 35.9659 47.7864 35.7986 47.5333C35.6313 47.2801 35.543 46.983 35.5447 46.6796C35.5459 46.4784 35.5867 46.2794 35.6648 46.0939C35.7428 45.9085 35.8567 45.7402 35.9998 45.5988C36.1429 45.4573 36.3125 45.3454 36.4988 45.2695C36.6852 45.1936 36.8846 45.1551 37.0859 45.1563H37.0769ZM46.3594 46.6796C46.3612 46.983 46.2728 47.2801 46.1055 47.5333C45.9382 47.7864 45.6995 47.9842 45.4197 48.1015C45.1399 48.2189 44.8316 48.2505 44.5337 48.1924C44.2359 48.1343 43.9621 47.9891 43.7469 47.7751C43.5317 47.5612 43.3849 47.2882 43.3251 46.9907C43.2652 46.6933 43.295 46.3847 43.4107 46.1042C43.5264 45.8237 43.7228 45.5839 43.975 45.4152C44.2272 45.2464 44.5237 45.1563 44.8272 45.1563C45.0284 45.1551 45.2279 45.1936 45.4142 45.2695C45.6006 45.3454 45.7701 45.4573 45.9132 45.5988C46.0563 45.7402 46.1702 45.9085 46.2483 46.0939C46.3263 46.2794 46.3671 46.4784 46.3683 46.6796H46.3594ZM53.7266 38.4573C53.4231 38.459 53.126 38.3707 52.8729 38.2034C52.6197 38.0361 52.422 37.7974 52.3046 37.5176C52.1873 37.2378 52.1557 36.9294 52.2138 36.6316C52.2719 36.3338 52.4171 36.0599 52.631 35.8448C52.845 35.6296 53.118 35.4828 53.4154 35.4229C53.7129 35.3631 54.0214 35.3929 54.3019 35.5086C54.5824 35.6243 54.8223 35.8207 54.991 36.0728C55.1598 36.325 55.2499 36.6216 55.2499 36.925C55.2499 37.3283 55.0909 37.7154 54.8074 38.0022C54.5239 38.2891 54.1387 38.4526 53.7355 38.4573H53.7266Z" fill="#2166F3"/>
</svg>
