<svg width="55" height="55" viewBox="0 0 55 55" fill="none" xmlns="http://www.w3.org/2000/svg">
<g clip-path="url(#clip0_758_504)">
<path d="M36.9831 20.0956C36.9145 20.0042 36.8283 19.9275 36.7296 19.8698C36.631 19.8121 36.5218 19.7747 36.4085 19.7597C36.2952 19.7447 36.1801 19.7525 36.0698 19.7826C35.9596 19.8126 35.8564 19.8644 35.7664 19.9348C35.6764 20.0052 35.6013 20.0929 35.5456 20.1926C35.4899 20.2924 35.4546 20.4023 35.4419 20.5158C35.4291 20.6294 35.4392 20.7444 35.4714 20.854C35.5036 20.9637 35.5574 21.0658 35.6296 21.1544C37.0515 22.9632 37.8206 25.1993 37.8124 27.5C37.812 29.7899 37.0495 32.0146 35.6451 33.8232C34.2406 35.6319 32.2741 36.9217 30.0557 37.4892C27.8372 38.0567 25.4929 37.8697 23.3925 36.9576C21.292 36.0456 19.5549 34.4604 18.455 32.4519C17.355 30.4435 16.9549 28.1261 17.3175 25.865C17.6802 23.604 18.7852 21.5281 20.4581 19.9644C22.131 18.4008 24.2768 17.4384 26.5572 17.2291C28.8375 17.0198 31.1226 17.5754 33.0523 18.8083C33.2444 18.9311 33.4775 18.9726 33.7002 18.9236C33.923 18.8746 34.1171 18.7392 34.24 18.547C34.3628 18.3549 34.4043 18.1218 34.3553 17.8991C34.3063 17.6764 34.1708 17.4822 33.9787 17.3594C31.4365 15.7359 28.3775 15.1258 25.4071 15.65C22.4366 16.1741 19.7711 17.7942 17.9381 20.1897C16.105 22.5851 15.238 25.5814 15.5085 28.5856C15.7791 31.5898 17.1675 34.383 19.399 36.4124C21.6306 38.4419 24.5426 39.5597 27.5589 39.5447C30.5753 39.5296 33.476 38.3829 35.6873 36.3313C37.8985 34.2797 39.259 31.4729 39.4996 28.4661C39.7402 25.4594 38.8433 22.4719 36.9865 20.0948L36.9831 20.0956Z" fill="#2166F3"/>
<path d="M40.6006 36.9531C40.4609 36.8102 40.3749 36.6234 40.357 36.4244C40.3392 36.2253 40.3906 36.0263 40.5026 35.8608C41.4207 34.4402 42.0978 32.8777 42.5067 31.2365L44.7196 32.3434C44.7101 32.4473 44.6878 32.5488 44.6878 32.6553C44.6853 33.4804 44.9789 34.279 45.5151 34.9062C46.0513 35.5333 46.7946 35.9473 47.61 36.0731C48.4255 36.1989 49.259 36.028 49.9592 35.5916C50.6595 35.1552 51.18 34.4821 51.4263 33.6946C51.6725 32.9071 51.6282 32.0574 51.3014 31.2998C50.9745 30.5422 50.3869 29.9269 49.645 29.5657C48.9032 29.2045 48.0564 29.1213 47.2585 29.3312C46.4605 29.5411 45.7643 30.0302 45.2962 30.7097L42.8384 29.4808C43.0014 28.214 43.0092 26.9321 42.8616 25.6634C42.5844 23.3412 41.7747 21.1143 40.4958 19.1563L42.444 17.208C43.9922 18.4456 45.9555 19.0434 47.9306 18.8785C49.9058 18.7136 51.7429 17.7987 53.0644 16.3215C54.386 14.8444 55.0918 12.9173 55.0368 10.936C54.9818 8.95473 54.1701 7.06974 52.7686 5.66823C51.3671 4.26672 49.4821 3.45509 47.5009 3.40008C45.5196 3.34507 43.5925 4.05084 42.1153 5.37242C40.6382 6.694 39.7232 8.53105 39.5584 10.5062C39.3935 12.4814 39.9912 14.4447 41.2288 15.9929L39.4748 17.7469C36.9868 14.6722 33.413 12.6704 29.4915 12.1549C29.1133 12.1077 28.7361 12.0793 28.3597 12.0587V10.1904C29.1698 9.98123 29.8758 9.48379 30.3453 8.79132C30.8149 8.09886 31.0158 7.25891 30.9104 6.42891C30.805 5.59891 30.4005 4.83586 29.7727 4.28277C29.1449 3.72969 28.337 3.42455 27.5003 3.42455C26.6636 3.42455 25.8557 3.72969 25.2279 4.28277C24.6001 4.83586 24.1956 5.59891 24.0902 6.42891C23.9848 7.25891 24.1857 8.09886 24.6552 8.79132C25.1248 9.48379 25.8308 9.98123 26.6409 10.1904V12.0595C23.1357 12.246 19.7998 13.6264 17.1878 15.9714L13.7726 12.5563C15.0102 11.0081 15.608 9.04475 15.4431 7.06958C15.2782 5.09441 14.3632 3.25736 12.8861 1.93578C11.409 0.614197 9.48187 -0.0915742 7.5006 -0.0365603C5.51932 0.0184536 3.63433 0.830075 2.23282 2.23159C0.831306 3.6331 0.0196841 5.51809 -0.0353298 7.49937C-0.0903437 9.48064 0.615427 11.4078 1.93701 12.8849C3.25859 14.362 5.09564 15.277 7.07081 15.4419C9.04598 15.6067 11.0093 15.009 12.5575 13.7714L15.9718 17.1874C13.6272 19.7998 12.2465 23.1354 12.059 26.6405H10.1908C9.9816 25.8305 9.48416 25.1244 8.7917 24.6549C8.09923 24.1853 7.25928 23.9844 6.42928 24.0898C5.59928 24.1952 4.83623 24.5998 4.28314 25.2275C3.73006 25.8553 3.42492 26.6633 3.42492 27.4999C3.42492 28.3366 3.73006 29.1445 4.28314 29.7723C4.83623 30.4001 5.59928 30.8046 6.42928 30.91C7.25928 31.0155 8.09923 30.8145 8.7917 30.345C9.48416 29.8754 9.9816 29.1694 10.1908 28.3593H12.0599C12.0797 28.7357 12.1089 29.113 12.1562 29.4911C12.5018 32.1734 13.5564 34.7151 15.2112 36.8542L12.5558 39.5097C11.0076 38.2721 9.04426 37.6744 7.06909 37.8392C5.09392 38.0041 3.25687 38.9191 1.93529 40.3962C0.613708 41.8733 -0.0920624 43.8005 -0.0370485 45.7817C0.0179653 47.763 0.829587 49.648 2.2311 51.0495C3.63261 52.451 5.51761 53.2626 7.49888 53.3177C9.48015 53.3727 11.4073 52.6669 12.8844 51.3453C14.3615 50.0237 15.2765 48.1867 15.4414 46.2115C15.6062 44.2364 15.0085 42.273 13.7709 40.7248L16.3336 38.1622C18.8019 40.7667 22.1016 42.4286 25.6638 42.8613C26.6176 42.9717 27.5795 42.995 28.5376 42.9309L29.1108 45.2237C28.4152 45.6668 27.903 46.3462 27.6683 47.1368C27.4336 47.9275 27.4922 48.7763 27.8333 49.5272C28.1744 50.2781 28.7751 50.8806 29.5249 51.224C30.2747 51.5674 31.1233 51.6286 31.9147 51.3963C32.7061 51.164 33.387 50.6539 33.8323 49.9597C34.2776 49.2655 34.4573 48.4339 34.3385 47.6178C34.2197 46.8017 33.8102 46.0559 33.1854 45.5175C32.5607 44.9791 31.7625 44.6844 30.9378 44.6874C30.8751 44.6874 30.8166 44.7029 30.7539 44.7063L30.2555 42.7134C32.2525 42.3555 34.1583 41.6038 35.862 40.5023C36.0273 40.3901 36.2263 40.3386 36.4252 40.3565C36.6241 40.3744 36.8107 40.4605 36.9534 40.6002L50.5994 54.2445C50.8386 54.4842 51.1227 54.6743 51.4355 54.8039C51.7483 54.9335 52.0836 55.0001 52.4222 54.9999C52.4918 54.9999 52.5614 54.9999 52.631 54.9913C53.0052 54.9605 53.3681 54.8484 53.6946 54.6631C54.0211 54.4777 54.3033 54.2235 54.5216 53.918C54.8706 53.4032 55.0274 52.7821 54.9646 52.1634C54.9017 51.5447 54.6232 50.9678 54.1779 50.5338L40.6006 36.9531ZM48.1253 30.9374C48.4652 30.9374 48.7975 31.0382 49.0802 31.2271C49.3628 31.4159 49.5831 31.6844 49.7132 31.9984C49.8433 32.3125 49.8773 32.6581 49.811 32.9915C49.7447 33.3249 49.581 33.6311 49.3406 33.8715C49.1003 34.1119 48.794 34.2756 48.4606 34.3419C48.1272 34.4082 47.7816 34.3742 47.4676 34.2441C47.1535 34.114 46.8851 33.8937 46.6962 33.6111C46.5073 33.3284 46.4065 32.9961 46.4065 32.6562C46.4065 32.2003 46.5876 31.7632 46.91 31.4408C47.2323 31.1185 47.6695 30.9374 48.1253 30.9374ZM47.2659 5.15617C48.4557 5.15617 49.6188 5.50899 50.608 6.16999C51.5973 6.831 52.3683 7.77051 52.8236 8.86972C53.2789 9.96893 53.3981 11.1785 53.166 12.3454C52.9338 13.5123 52.3609 14.5842 51.5196 15.4255C50.6783 16.2668 49.6064 16.8397 48.4395 17.0718C47.2726 17.304 46.0631 17.1848 44.9638 16.7295C43.8646 16.2742 42.9251 15.5032 42.2641 14.5139C41.6031 13.5246 41.2503 12.3616 41.2503 11.1718C41.2521 9.57692 41.8865 8.04788 43.0142 6.92012C44.142 5.79237 45.671 5.15799 47.2659 5.15617ZM7.73467 51.5624C6.54489 51.5624 5.38183 51.2096 4.39257 50.5486C3.4033 49.8876 2.63227 48.9481 2.17696 47.8489C1.72165 46.7497 1.60252 45.5401 1.83463 44.3732C2.06675 43.2063 2.63968 42.1344 3.48098 41.2931C4.32228 40.4518 5.39416 39.8789 6.56108 39.6468C7.728 39.4146 8.93754 39.5338 10.0368 39.9891C11.136 40.4444 12.0755 41.2154 12.7365 42.2047C13.3975 43.194 13.7503 44.357 13.7503 45.5468C13.7485 47.1417 13.1141 48.6707 11.9864 49.7985C10.8586 50.9262 9.32956 51.5606 7.73467 51.5624ZM32.6565 48.1249C32.6565 48.4649 32.5557 48.7972 32.3669 49.0798C32.178 49.3625 31.9096 49.5828 31.5955 49.7128C31.2815 49.8429 30.9359 49.877 30.6025 49.8107C30.2691 49.7443 29.9628 49.5806 29.7225 49.3403C29.4821 49.0999 29.3184 48.7936 29.2521 48.4602C29.1858 48.1268 29.2198 47.7813 29.3499 47.4672C29.48 47.1531 29.7003 46.8847 29.9829 46.6958C30.2656 46.507 30.5979 46.4062 30.9378 46.4062C31.3936 46.4062 31.8308 46.5873 32.1531 46.9096C32.4755 47.2319 32.6565 47.6691 32.6565 48.1249ZM25.7815 6.87493C25.7815 6.53499 25.8823 6.20269 26.0712 5.92004C26.2601 5.63739 26.5285 5.41709 26.8426 5.28701C27.1566 5.15692 27.5022 5.12288 27.8356 5.1892C28.169 5.25552 28.4753 5.41921 28.7156 5.65958C28.956 5.89996 29.1197 6.20621 29.186 6.53961C29.2523 6.87302 29.2183 7.2186 29.0882 7.53266C28.9581 7.84672 28.7378 8.11515 28.4552 8.30401C28.1725 8.49287 27.8402 8.59368 27.5003 8.59368C27.0445 8.59368 26.6073 8.41259 26.285 8.09026C25.9626 7.76794 25.7815 7.33077 25.7815 6.87493ZM7.73467 13.7499C6.54489 13.7499 5.38183 13.3971 4.39257 12.7361C3.4033 12.0751 2.63227 11.1356 2.17696 10.0364C1.72165 8.93717 1.60252 7.72763 1.83463 6.56071C2.06675 5.39379 2.63968 4.32191 3.48098 3.48061C4.32228 2.63931 5.39416 2.06638 6.56108 1.83426C7.728 1.60215 8.93754 1.72128 10.0368 2.17659C11.136 2.6319 12.0755 3.40293 12.7365 4.3922C13.3975 5.38146 13.7503 6.54452 13.7503 7.7343C13.7485 9.32918 13.1141 10.8582 11.9864 11.986C10.8586 13.1137 9.32956 13.7481 7.73467 13.7499ZM6.8753 29.2187C6.53536 29.2187 6.20306 29.1179 5.92041 28.929C5.63776 28.7402 5.41747 28.4717 5.28738 28.1577C5.15729 27.8436 5.12325 27.498 5.18957 27.1646C5.25589 26.8312 5.41958 26.525 5.65996 26.2846C5.90033 26.0442 6.20658 25.8805 6.53998 25.8142C6.87339 25.7479 7.21897 25.7819 7.53303 25.912C7.84709 26.0421 8.11553 26.2624 8.30438 26.545C8.49324 26.8277 8.59405 27.16 8.59405 27.4999C8.59405 27.9558 8.41296 28.3929 8.09064 28.7153C7.76831 29.0376 7.33114 29.2187 6.8753 29.2187ZM53.1277 52.9142C53.0552 53.018 52.9607 53.1044 52.8509 53.1674C52.7411 53.2304 52.6188 53.2684 52.4926 53.2786C52.3682 53.2899 52.2428 53.2734 52.1256 53.2303C52.0083 53.1872 51.9021 53.1186 51.8146 53.0294L38.1703 39.3851C37.9331 39.1463 37.651 38.9568 37.3402 38.8276C37.0295 38.6984 36.6962 38.632 36.3596 38.6323C35.8517 38.6346 35.3554 38.7838 34.9305 39.062C32.2482 40.8005 29.0404 41.5411 25.8675 41.1545C23.3057 40.8477 20.882 39.8264 18.8732 38.2072C16.8645 36.588 15.3519 34.4363 14.5083 31.998C13.6646 29.5598 13.5241 26.9334 14.1026 24.419C14.6811 21.9046 15.9554 19.6037 17.7797 17.7794C19.6041 15.955 21.905 14.6807 24.4194 14.1022C26.9337 13.5237 29.5602 13.6643 31.9984 14.5079C34.4367 15.3515 36.5884 16.8641 38.2076 18.8729C39.8267 20.8816 40.8481 23.3053 41.1549 25.8671C41.541 29.0404 40.799 32.2485 39.0589 34.9301C38.7314 35.4249 38.5849 36.0178 38.6445 36.6082C38.704 37.1987 38.9658 37.7504 39.3855 38.1699L52.9636 51.7481C53.1211 51.8938 53.2234 52.0894 53.2533 52.3019C53.2832 52.5144 53.2388 52.7307 53.1277 52.9142Z" fill="#2166F3"/>
<path d="M20.625 30.9372V32.4721C20.6277 32.9622 20.7683 33.4418 21.0308 33.8557C21.2932 34.2697 21.6669 34.6015 22.1091 34.813C23.7816 35.6538 25.6276 36.0917 27.4996 36.0917C29.3715 36.0917 31.2175 35.6538 32.89 34.813C33.3324 34.6017 33.7064 34.27 33.969 33.856C34.2316 33.442 34.3723 32.9623 34.375 32.4721V30.9372C34.3726 29.5721 33.9642 28.2385 33.2018 27.1062C32.4394 25.9738 31.3575 25.0937 30.0936 24.5778C30.6354 23.9593 30.9351 23.1657 30.9375 22.3435C30.9375 21.4318 30.5753 20.5574 29.9307 19.9128C29.286 19.2681 28.4117 18.906 27.5 18.906C26.5883 18.906 25.714 19.2681 25.0693 19.9128C24.4247 20.5574 24.0625 21.4318 24.0625 22.3435C24.0649 23.1657 24.3646 23.9593 24.9064 24.5778C23.6425 25.0937 22.5606 25.9738 21.7982 27.1062C21.0358 28.2385 20.6274 29.5721 20.625 30.9372ZM25.7812 22.3435C25.7812 22.0035 25.8821 21.6712 26.0709 21.3886C26.2598 21.1059 26.5282 20.8856 26.8423 20.7555C27.1563 20.6255 27.5019 20.5914 27.8353 20.6577C28.1687 20.7241 28.475 20.8878 28.7153 21.1281C28.9557 21.3685 29.1194 21.6747 29.1857 22.0082C29.252 22.3416 29.218 22.6871 29.0879 23.0012C28.9578 23.3153 28.7375 23.5837 28.4549 23.7726C28.1722 23.9614 27.8399 24.0622 27.5 24.0622C27.0442 24.0622 26.607 23.8811 26.2847 23.5588C25.9623 23.2365 25.7812 22.7993 25.7812 22.3435ZM27.5 25.781C28.8671 25.7823 30.1778 26.326 31.1445 27.2927C32.1112 28.2594 32.6549 29.5701 32.6562 30.9372V32.4721C32.6546 32.6377 32.6063 32.7996 32.5169 32.9391C32.4275 33.0786 32.3007 33.1901 32.1509 33.261C30.711 33.9968 29.117 34.3805 27.5 34.3805C25.883 34.3805 24.289 33.9968 22.8491 33.261C22.6993 33.1901 22.5725 33.0786 22.4831 32.9391C22.3937 32.7996 22.3454 32.6377 22.3438 32.4721V30.9372C22.3451 29.5701 22.8888 28.2594 23.8555 27.2927C24.8222 26.326 26.1329 25.7823 27.5 25.781ZM44.3747 15.7856C46.2344 16.5071 48.2968 16.5071 50.1566 15.7856C50.5693 15.6281 50.9245 15.3493 51.1755 14.9859C51.4265 14.6224 51.5614 14.1914 51.5625 13.7497C51.56 12.9957 51.3584 12.2557 50.9781 11.6045C50.5978 10.9534 50.0524 10.4142 49.3969 10.0415C49.6606 9.65401 49.8138 9.20194 49.8398 8.73391C49.8658 8.26588 49.7637 7.79962 49.5445 7.38528C49.3253 6.97093 48.9973 6.62419 48.5958 6.38234C48.1943 6.14049 47.7344 6.0127 47.2656 6.0127C46.7969 6.0127 46.337 6.14049 45.9355 6.38234C45.5339 6.62419 45.2059 6.97093 44.9867 7.38528C44.7675 7.79962 44.6655 8.26588 44.6915 8.73391C44.7175 9.20194 44.8706 9.65401 45.1344 10.0415C44.4789 10.4142 43.9334 10.9534 43.5531 11.6045C43.1729 12.2557 42.9713 12.9957 42.9688 13.7497C42.9698 14.1914 43.1047 14.6224 43.3557 14.9859C43.6067 15.3493 43.962 15.6281 44.3747 15.7856ZM46.4062 8.59346C46.4062 8.4235 46.4567 8.25734 46.5511 8.11602C46.6455 7.9747 46.7797 7.86455 46.9368 7.7995C47.0938 7.73446 47.2666 7.71744 47.4333 7.7506C47.6 7.78376 47.7531 7.86561 47.8733 7.98579C47.9935 8.10598 48.0753 8.25911 48.1085 8.42581C48.1416 8.59251 48.1246 8.7653 48.0596 8.92233C47.9945 9.07936 47.8844 9.21358 47.7431 9.30801C47.6017 9.40244 47.4356 9.45284 47.2656 9.45284C47.0377 9.45284 46.8191 9.3623 46.658 9.20113C46.4968 9.03997 46.4062 8.82138 46.4062 8.59346ZM47.2656 11.1716C47.9494 11.1716 48.6051 11.4432 49.0886 11.9267C49.5721 12.4102 49.8438 13.066 49.8438 13.7497C49.8444 13.8425 49.8168 13.9333 49.7646 14.0101C49.7124 14.0869 49.6381 14.1459 49.5516 14.1794C48.0829 14.7586 46.4492 14.7586 44.9805 14.1794C44.8938 14.146 44.8193 14.0871 44.767 14.0103C44.7146 13.9335 44.6869 13.8426 44.6875 13.7497C44.6875 13.066 44.9591 12.4102 45.4426 11.9267C45.9261 11.4432 46.5819 11.1716 47.2656 11.1716ZM9.86562 44.4165C10.1294 44.029 10.2825 43.5769 10.3085 43.1089C10.3345 42.6409 10.2325 42.1746 10.0133 41.7603C9.79409 41.3459 9.46608 40.9992 9.06454 40.7573C8.663 40.5155 8.20312 40.3877 7.73438 40.3877C7.26563 40.3877 6.80575 40.5155 6.40421 40.7573C6.00267 40.9992 5.67466 41.3459 5.45547 41.7603C5.23628 42.1746 5.13421 42.6409 5.16022 43.1089C5.18624 43.5769 5.33936 44.029 5.60312 44.4165C4.94763 44.7892 4.40217 45.3284 4.0219 45.9795C3.64163 46.6307 3.44003 47.3707 3.4375 48.1247C3.43855 48.5664 3.57348 48.9974 3.82447 49.3609C4.07547 49.7243 4.43075 50.0031 4.84344 50.1606C6.70319 50.8821 8.76556 50.8821 10.6253 50.1606C11.038 50.0031 11.3933 49.7243 11.6443 49.3609C11.8953 48.9974 12.0302 48.5664 12.0312 48.1247C12.0287 47.3707 11.8271 46.6307 11.4469 45.9795C11.0666 45.3284 10.5211 44.7892 9.86562 44.4165ZM6.875 42.9685C6.875 42.7985 6.9254 42.6323 7.01983 42.491C7.11426 42.3497 7.24848 42.2395 7.40551 42.1745C7.56254 42.1095 7.73533 42.0924 7.90203 42.1256C8.06873 42.1588 8.22186 42.2406 8.34204 42.3608C8.46223 42.481 8.54408 42.6341 8.57724 42.8008C8.6104 42.9675 8.59338 43.1403 8.52833 43.2973C8.46329 43.4544 8.35314 43.5886 8.21182 43.683C8.07049 43.7774 7.90434 43.8278 7.73438 43.8278C7.50645 43.8278 7.28787 43.7373 7.12671 43.5761C6.96554 43.415 6.875 43.1964 6.875 42.9685ZM10.0203 48.5544C8.55168 49.1336 6.91793 49.1336 5.4493 48.5544C5.36257 48.521 5.28807 48.4621 5.23572 48.3853C5.18337 48.3085 5.15564 48.2176 5.15625 48.1247C5.15625 47.441 5.42787 46.7852 5.91137 46.3017C6.39486 45.8182 7.05061 45.5466 7.73438 45.5466C8.41814 45.5466 9.07389 45.8182 9.55738 46.3017C10.0409 46.7852 10.3125 47.441 10.3125 48.1247C10.3132 48.2175 10.2856 48.3083 10.2334 48.3851C10.1812 48.4619 10.1069 48.5209 10.0203 48.5544ZM9.86562 6.60401C10.1294 6.21651 10.2825 5.76444 10.3085 5.29641C10.3345 4.82838 10.2325 4.36212 10.0133 3.94778C9.79409 3.53343 9.46608 3.18669 9.06454 2.94484C8.663 2.70299 8.20312 2.5752 7.73438 2.5752C7.26563 2.5752 6.80575 2.70299 6.40421 2.94484C6.00267 3.18669 5.67466 3.53343 5.45547 3.94778C5.23628 4.36212 5.13421 4.82838 5.16022 5.29641C5.18624 5.76444 5.33936 6.21651 5.60312 6.60401C4.94763 6.97672 4.40217 7.5159 4.0219 8.16703C3.64163 8.81817 3.44003 9.55817 3.4375 10.3122C3.43855 10.7539 3.57348 11.1849 3.82447 11.5484C4.07547 11.9118 4.43075 12.1906 4.84344 12.3481C6.70319 13.0696 8.76556 13.0696 10.6253 12.3481C11.038 12.1906 11.3933 11.9118 11.6443 11.5484C11.8953 11.1849 12.0302 10.7539 12.0312 10.3122C12.0287 9.55817 11.8271 8.81817 11.4469 8.16703C11.0666 7.5159 10.5211 6.97672 9.86562 6.60401ZM6.875 5.15596C6.875 4.986 6.9254 4.81984 7.01983 4.67852C7.11426 4.5372 7.24848 4.42705 7.40551 4.362C7.56254 4.29696 7.73533 4.27994 7.90203 4.3131C8.06873 4.34626 8.22186 4.42811 8.34204 4.54829C8.46223 4.66848 8.54408 4.82161 8.57724 4.98831C8.6104 5.15501 8.59338 5.3278 8.52833 5.48483C8.46329 5.64186 8.35314 5.77608 8.21182 5.87051C8.07049 5.96494 7.90434 6.01534 7.73438 6.01534C7.50645 6.01534 7.28787 5.9248 7.12671 5.76363C6.96554 5.60247 6.875 5.38388 6.875 5.15596ZM10.0203 10.7419C8.55168 11.3211 6.91793 11.3211 5.4493 10.7419C5.36257 10.7085 5.28807 10.6496 5.23572 10.5728C5.18337 10.496 5.15564 10.4051 5.15625 10.3122C5.15625 9.62845 5.42787 8.9727 5.91137 8.4892C6.39486 8.00571 7.05061 7.73409 7.73438 7.73409C8.41814 7.73409 9.07389 8.00571 9.55738 8.4892C10.0409 8.9727 10.3125 9.62845 10.3125 10.3122C10.3132 10.405 10.2856 10.4958 10.2334 10.5726C10.1812 10.6494 10.1069 10.7084 10.0203 10.7419Z" fill="#2166F3"/>
</g>
<defs>
<clipPath id="clip0_758_504">
<rect width="55" height="55" fill="white"/>
</clipPath>
</defs>
</svg>
