<svg width="46" height="46" viewBox="0 0 46 46" fill="none" xmlns="http://www.w3.org/2000/svg">
<g clip-path="url(#clip0_758_733)">
<path d="M10.9124 35.6005C9.47828 35.6005 8.07637 35.1753 6.88393 34.3786C5.69149 33.5818 4.7621 32.4494 4.21327 31.1245C3.66444 29.7995 3.52083 28.3416 3.8006 26.935C4.08038 25.5285 4.77097 24.2365 5.78504 23.2224C6.79911 22.2083 8.09112 21.5177 9.49768 21.238C10.9042 20.9582 12.3622 21.1018 13.6871 21.6506C15.0121 22.1994 16.1445 23.1288 16.9412 24.3213C17.7379 25.5137 18.1632 26.9156 18.1631 28.3497C18.1609 30.2721 17.3962 32.115 16.0369 33.4743C14.6776 34.8336 12.8347 35.5982 10.9124 35.6005ZM10.9124 22.8966C9.83368 22.8966 8.77918 23.2164 7.88224 23.8157C6.9853 24.415 6.28621 25.2667 5.87338 26.2633C5.46055 27.2599 5.35251 28.3566 5.56294 29.4146C5.77337 30.4726 6.2928 31.4444 7.05556 32.2072C7.81831 32.97 8.79013 33.4894 9.84812 33.6999C10.9061 33.9103 12.0027 33.8023 12.9994 33.3896C13.996 32.9768 14.8478 32.2777 15.4471 31.3808C16.0464 30.4839 16.3663 29.4294 16.3663 28.3506C16.3649 26.9045 15.7899 25.5179 14.7675 24.4953C13.745 23.4726 12.3585 22.8973 10.9124 22.8957V22.8966ZM19.757 45.9997H2.06836C1.83008 45.9997 1.60156 45.9051 1.43307 45.7366C1.26458 45.5681 1.16992 45.3396 1.16992 45.1013V43.2841C1.16992 39.4208 4.20664 36.7221 8.55652 36.7221H13.2688C17.6173 36.7221 20.6554 39.4205 20.6554 43.2841V45.1013C20.6554 45.3396 20.5608 45.5681 20.3923 45.7366C20.2238 45.9051 19.9953 45.9997 19.757 45.9997ZM2.9668 44.2029H18.8585V43.2841C18.8585 39.9924 16.0511 38.519 13.2688 38.519H8.55652C5.77423 38.519 2.9668 39.9924 2.9668 43.2841V44.2029Z" fill="#2166F3"/>
<path d="M23 46C22.7617 46 22.5332 45.9054 22.3647 45.7369C22.1962 45.5684 22.1016 45.3399 22.1016 45.1016C22.1016 44.8633 22.1962 44.6348 22.3647 44.4663C22.5332 44.2978 22.7617 44.2031 23 44.2031C27.1936 44.2031 31.293 42.9596 34.7798 40.6298C38.2667 38.2999 40.9843 34.9885 42.5891 31.1141C44.1939 27.2397 44.6138 22.9765 43.7957 18.8635C42.9776 14.7505 40.9582 10.9724 37.9929 8.00714C35.0276 5.04183 31.2495 3.02242 27.1365 2.2043C23.0235 1.38617 18.7603 1.80606 14.8859 3.41088C11.0116 5.01569 7.70008 7.73335 5.37025 11.2202C3.04042 14.707 1.79688 18.8064 1.79688 23C1.79687 23.2383 1.70222 23.4668 1.53373 23.6353C1.36524 23.8038 1.13672 23.8984 0.898438 23.8984C0.660157 23.8984 0.431636 23.8038 0.263146 23.6353C0.0946565 23.4668 0 23.2383 0 23C0 18.451 1.34893 14.0042 3.8762 10.2219C6.40347 6.43956 9.99558 3.4916 14.1983 1.75078C18.401 0.00996546 23.0255 -0.445511 27.4871 0.441949C31.9486 1.32941 36.0468 3.51995 39.2635 6.73655C42.4801 9.95316 44.6706 14.0514 45.5581 18.5129C46.4455 22.9745 45.99 27.599 44.2492 31.8017C42.5084 36.0044 39.5604 39.5965 35.7781 42.1238C31.9958 44.6511 27.549 46 23 46Z" fill="#2166F3"/>
<path d="M28.2992 26.9583C28.1414 26.9583 27.9865 26.9168 27.8499 26.8377L22.5492 23.7776C22.4129 23.6986 22.2998 23.5851 22.2212 23.4485C22.1427 23.312 22.1014 23.1571 22.1016 22.9996V10.3516C22.1016 10.1133 22.1962 9.88476 22.3647 9.71627C22.5332 9.54778 22.7617 9.45313 23 9.45312C23.2383 9.45312 23.4668 9.54778 23.6353 9.71627C23.8038 9.88476 23.8984 10.1133 23.8984 10.3516V22.4805L28.75 25.2816C28.9214 25.3805 29.0553 25.5331 29.131 25.7159C29.2068 25.8986 29.2201 26.1013 29.1689 26.2924C29.1177 26.4834 29.0049 26.6523 28.8479 26.7727C28.6909 26.8931 28.4986 26.9583 28.3008 26.9583H28.2992Z" fill="#2166F3"/>
<path d="M23.0002 41.7479C22.7619 41.7479 22.5334 41.6532 22.3649 41.4848C22.1964 41.3163 22.1018 41.0878 22.1018 40.8495C22.1018 40.6112 22.1964 40.3827 22.3649 40.2142C22.5334 40.0457 22.7619 39.951 23.0002 39.951C26.2423 39.9519 29.4166 39.0233 32.1471 37.2753C34.8776 35.5273 37.0497 33.0332 38.4061 30.0886C39.7625 27.1439 40.2464 23.8721 39.8003 20.6609C39.3542 17.4496 37.9968 14.4336 35.8891 11.9702C33.7814 9.50674 31.0117 7.69916 27.9082 6.76164C24.8046 5.82411 21.4973 5.79595 18.3783 6.68048C15.2592 7.56501 12.4591 9.32515 10.3097 11.7523C8.16039 14.1795 6.75189 17.172 6.25117 20.3752C6.2339 20.4925 6.19357 20.6052 6.13251 20.7069C6.07145 20.8086 5.99086 20.8972 5.8954 20.9675C5.79994 21.0379 5.69149 21.0887 5.57631 21.1169C5.46112 21.1452 5.34149 21.1503 5.2243 21.1321C5.10711 21.1139 4.99469 21.0727 4.89352 21.0108C4.79235 20.9489 4.70443 20.8676 4.63483 20.7716C4.56523 20.6755 4.51534 20.5667 4.48802 20.4513C4.46071 20.3359 4.45651 20.2162 4.47567 20.0992C5.03003 16.558 6.5878 13.25 8.96442 10.567C11.341 7.88401 14.4369 5.93846 17.8853 4.96086C21.3336 3.98326 24.9899 4.01458 28.421 5.05111C31.8521 6.08764 34.9142 8.08594 37.2445 10.8093C39.5749 13.5326 41.0757 16.8668 41.5693 20.4169C42.0629 23.967 41.5286 27.5842 40.0296 30.84C38.5307 34.0957 36.1299 36.8536 33.1117 38.7868C30.0935 40.7201 26.5845 41.7477 23.0002 41.7479Z" fill="#2166F3"/>
</g>
<defs>
<clipPath id="clip0_758_733">
<rect width="46" height="46" fill="white"/>
</clipPath>
</defs>
</svg>
