<svg width="45" height="47" viewBox="0 0 45 47" fill="none" xmlns="http://www.w3.org/2000/svg">
<path d="M39.6976 31.6932C40.4521 31.1506 41.0667 30.4364 41.4909 29.6096C41.9151 28.7827 42.1366 27.8669 42.1372 26.9376V22.2647C42.1357 20.8055 41.5555 19.4065 40.5238 18.3746C39.4921 17.3427 38.0931 16.7622 36.6339 16.7604H33.8077C32.491 16.7607 31.2185 17.2351 30.223 18.0968C30.1423 16.9483 29.7402 15.8457 29.0627 14.9149C28.3851 13.9842 27.4594 13.2627 26.3913 12.8331C26.9445 12.3814 27.3903 11.8123 27.6965 11.1671C28.0027 10.5218 28.1615 9.81655 28.1616 9.10234V5.38232C28.1604 4.18058 27.6826 3.02836 26.833 2.1785C25.9833 1.32864 24.8312 0.850543 23.6294 0.849121H21.3822C20.1804 0.850543 19.0283 1.32864 18.1787 2.1785C17.329 3.02836 16.8512 4.18058 16.85 5.38232V9.09912C16.8501 9.81333 17.0089 10.5186 17.3151 11.1638C17.6213 11.8091 18.0671 12.3782 18.6204 12.8299C17.5503 13.2601 16.6232 13.9832 15.9455 14.9163C15.2677 15.8494 14.8668 16.9547 14.7886 18.1054C13.7916 17.2381 12.5147 16.7605 11.1932 16.7604H8.36802C6.90862 16.7619 5.50941 17.3422 4.47746 18.3742C3.44551 19.4061 2.86514 20.8054 2.86372 22.2647V26.9376C2.86468 27.8668 3.08647 28.7825 3.51081 29.6091C3.93515 30.4357 4.54989 31.1497 5.30435 31.6921C3.82932 32.2025 2.54967 33.1592 1.64288 34.4296C0.736084 35.7 0.247085 37.2211 0.243701 38.7819V45.3819C0.239837 45.4853 0.256856 45.5884 0.293741 45.685C0.330626 45.7816 0.38662 45.8698 0.458372 45.9443C0.530125 46.0188 0.616163 46.078 0.711341 46.1185C0.806518 46.159 0.90888 46.1798 1.0123 46.1798C1.11573 46.1798 1.21809 46.159 1.31327 46.1185C1.40845 46.078 1.49448 46.0188 1.56624 45.9443C1.63799 45.8698 1.69398 45.7816 1.73087 45.685C1.76775 45.5884 1.78477 45.4853 1.78091 45.3819V38.7873C1.78261 37.2026 2.41287 35.6834 3.5334 34.5628C4.65393 33.4423 6.1732 32.8121 7.75786 32.8104H11.8044C13.389 32.8121 14.9082 33.4424 16.0285 34.5629C17.1489 35.6835 17.7789 37.2027 17.7803 38.7873V45.3819C17.7765 45.4853 17.7935 45.5884 17.8304 45.685C17.8672 45.7816 17.9232 45.8698 17.995 45.9443C18.0667 46.0188 18.1528 46.078 18.248 46.1185C18.3431 46.159 18.4455 46.1798 18.5489 46.1798C18.6523 46.1798 18.7547 46.159 18.8499 46.1185C18.9451 46.078 19.0311 46.0188 19.1029 45.9443C19.1746 45.8698 19.2306 45.7816 19.2675 45.685C19.3044 45.5884 19.3214 45.4853 19.3175 45.3819V38.7873C19.3142 37.2266 18.8254 35.7056 17.9188 34.4352C17.0122 33.1648 15.7328 32.208 14.258 31.6975C15.0134 31.1547 15.6289 30.44 16.0534 29.6123C16.478 28.7846 16.6995 27.8678 16.6997 26.9376V22.2647C16.6993 21.5681 16.5659 20.8779 16.3065 20.2313V18.5125C16.3076 17.2948 16.7918 16.1273 17.6527 15.2661C18.5137 14.405 19.6811 13.9206 20.8988 13.9191H24.1118C25.3296 13.9206 26.4971 14.405 27.3582 15.2661C28.2193 16.1272 28.7037 17.2947 28.7051 18.5125V20.2022C28.4383 20.8571 28.3011 21.5576 28.3012 22.2647V26.9376C28.302 27.8667 28.5236 28.7824 28.9477 29.609C29.3719 30.4357 29.9864 31.1496 30.7408 31.6921C29.2659 32.2027 27.9865 33.1595 27.0799 34.4299C26.1734 35.7002 25.6845 37.2212 25.6812 38.7819V45.3819C25.6812 45.5856 25.7621 45.781 25.9062 45.925C26.0502 46.0691 26.2456 46.15 26.4493 46.15C26.653 46.15 26.8483 46.0691 26.9924 45.925C27.1364 45.781 27.2173 45.5856 27.2173 45.3819V38.7873C27.219 37.2026 27.8493 35.6834 28.9698 34.5628C30.0904 33.4423 31.6096 32.8121 33.1943 32.8104H37.2419C38.8263 32.8123 40.3452 33.4428 41.4653 34.5633C42.5855 35.6838 43.2153 37.2029 43.2167 38.7873V45.3819C43.2129 45.4853 43.2299 45.5884 43.2668 45.685C43.3037 45.7816 43.3597 45.8698 43.4314 45.9443C43.5032 46.0188 43.5892 46.078 43.6844 46.1185C43.7796 46.159 43.8819 46.1798 43.9854 46.1798C44.0888 46.1798 44.1911 46.159 44.2863 46.1185C44.3815 46.078 44.4675 46.0188 44.5393 45.9443C44.611 45.8698 44.667 45.7816 44.7039 45.685C44.7408 45.5884 44.7578 45.4853 44.754 45.3819V38.7873C44.7518 37.2263 44.2638 35.7046 43.3578 34.4334C42.4517 33.1622 41.1725 32.2045 39.6976 31.6932ZM15.1614 26.9376C15.16 28.0869 14.7027 29.1887 13.8899 30.0013C13.0771 30.8139 11.9752 31.2709 10.8258 31.2721H8.7354C7.58618 31.2709 6.48435 30.8139 5.67172 30.0013C4.8591 29.1887 4.40207 28.0868 4.40093 26.9376V22.2647C4.40292 21.2132 4.82151 20.2053 5.56506 19.4618C6.3086 18.7182 7.31649 18.2996 8.36802 18.2977H11.1932C12.2449 18.2994 13.2531 18.7178 13.9969 19.4614C14.7406 20.205 15.1594 21.213 15.1614 22.2647V26.9376ZM21.6754 12.3852C20.8036 12.3846 19.9676 12.0382 19.351 11.4219C18.7343 10.8056 18.3873 9.96987 18.3862 9.09805V5.38232C18.387 4.588 18.703 3.82645 19.2646 3.26478C19.8263 2.7031 20.5879 2.38718 21.3822 2.38633H23.6294C24.4238 2.38718 25.1853 2.7031 25.747 3.26478C26.3087 3.82645 26.6246 4.588 26.6254 5.38232V9.09912C26.624 9.97085 26.2769 10.8064 25.6603 11.4226C25.0437 12.0389 24.2079 12.3854 23.3362 12.3862L21.6754 12.3852ZM34.1761 31.2731C33.0266 31.272 31.9245 30.8149 31.1117 30.002C30.2989 29.1892 29.8417 28.0871 29.8406 26.9376V22.2647C29.8426 21.2132 30.2612 20.2053 31.0047 19.4618C31.7483 18.7182 32.7561 18.2996 33.8077 18.2977H36.6339C37.6855 18.2996 38.6934 18.7182 39.4369 19.4618C40.1804 20.2053 40.599 21.2132 40.601 22.2647V26.9376C40.5996 28.0867 40.1425 29.1884 39.3299 30.001C38.5174 30.8135 37.4157 31.2707 36.2666 31.2721L34.1761 31.2731Z" fill="#2166F3"/>
</svg>
