<svg width="55" height="55" viewBox="0 0 55 55" fill="none" xmlns="http://www.w3.org/2000/svg">
<path d="M13.0062 19.384C14.0971 20.3646 16.2598 20.7575 18.2484 20.7575C18.6231 20.7575 18.9909 20.743 19.345 20.7164C19.8136 21.1973 20.5238 21.6627 21.5846 22.0532C23.1582 22.6326 25.259 22.9517 27.5001 22.9517C30.8046 22.9517 34.1305 22.2468 35.6455 20.7158C36.0025 20.7429 36.3738 20.7576 36.752 20.7576C38.7404 20.7576 40.9033 20.3646 41.9942 19.3842C42.6087 18.8318 42.7377 18.2327 42.7377 17.8273C42.7377 14.8185 40.5019 12.3232 37.6049 11.9124C38.9511 11.5421 39.9432 10.3078 39.9432 8.84554C39.9432 7.09177 38.5163 5.66489 36.7623 5.66489C35.0082 5.66489 33.5812 7.09166 33.5812 8.84554C33.5812 10.3072 34.5724 11.5409 35.9178 11.9118C35.2387 12.0075 34.5815 12.2202 33.9752 12.5407C32.3382 10.8401 30.0417 9.77875 27.5004 9.77875C24.9591 9.77875 22.6624 10.84 21.0254 12.5406C20.4192 12.2201 19.762 12.0074 19.083 11.9117C20.4283 11.5408 21.4195 10.307 21.4195 8.84542C21.4195 7.09166 19.9925 5.66478 18.2385 5.66478C16.4845 5.66478 15.0575 7.09155 15.0575 8.84542C15.0575 10.3077 16.0498 11.542 17.3959 11.9123C14.4986 12.3231 12.2627 14.8184 12.2627 17.8272C12.2627 18.2325 12.3916 18.8317 13.0062 19.384ZM35.1398 8.84531C35.1398 7.95095 35.8676 7.22337 36.7622 7.22337C37.6566 7.22337 38.3844 7.95095 38.3844 8.84531C38.3844 9.7399 37.6566 10.4676 36.7622 10.4676C35.8676 10.4676 35.1398 9.73979 35.1398 8.84531ZM36.7622 13.4103C39.1975 13.4103 41.1789 15.3916 41.1789 17.8271C41.1789 17.8801 41.1789 18.021 40.9522 18.2247C40.2451 18.8601 38.3904 19.2423 36.4575 19.197C36.4801 19.0588 36.4923 18.9168 36.4923 18.7705C36.4923 16.9285 35.9348 15.2148 34.9808 13.7875C35.5418 13.5389 36.1486 13.4104 36.7622 13.4103ZM27.5003 11.3373C31.5989 11.3373 34.9336 14.6719 34.9336 18.7705C34.9336 20.241 31.6684 21.3929 27.5 21.3929C23.3318 21.3929 20.0665 20.241 20.0665 18.7705C20.0667 14.6718 23.4014 11.3373 27.5003 11.3373ZM16.6162 8.84531C16.6162 7.95095 17.344 7.22337 18.2385 7.22337C19.133 7.22337 19.8608 7.95095 19.8608 8.84531C19.8608 9.7399 19.133 10.4676 18.2385 10.4676C17.344 10.4676 16.6162 9.73979 16.6162 8.84531ZM18.2385 13.4103C18.8589 13.4103 19.4621 13.5411 20.0196 13.7874C19.0655 15.2147 18.5079 16.9285 18.5079 18.7704C18.5079 18.9059 18.5186 19.0489 18.5429 19.197C16.6101 19.2424 14.7551 18.8601 14.048 18.2247C13.8214 18.021 13.8214 17.8801 13.8214 17.8271C13.8214 15.3918 15.8029 13.4103 18.2385 13.4103ZM54.2208 26.7206H49.3165L49.3061 22.2143L50.2423 22.1987C50.5797 23.1483 51.4869 23.8303 52.5507 23.8303C53.9013 23.8303 55.0001 22.7315 55.0001 21.3809C55.0001 20.0302 53.9013 18.9315 52.5507 18.9315C51.4582 18.9315 50.5306 19.6506 50.216 20.6403L48.5119 20.6686C48.3072 20.672 48.112 20.7559 47.9686 20.902C47.8251 21.0482 47.745 21.2449 47.7455 21.4497L47.7577 26.7206H45.4416L45.4136 17.073H46.9804C47.3067 18.0426 48.2236 18.7431 49.3018 18.7431C50.6524 18.7431 51.7512 17.6443 51.7512 16.2937C51.7512 14.9431 50.6524 13.8443 49.3018 13.8443C48.2238 13.8443 47.3068 14.5448 46.9804 15.5143H44.6319C44.5294 15.5143 44.4278 15.5345 44.3331 15.5738C44.2384 15.6131 44.1523 15.6707 44.0799 15.7433C44.0075 15.816 43.9502 15.9022 43.9112 15.997C43.8721 16.0919 43.8522 16.1935 43.8526 16.296L43.883 26.7206H40.5582C40.3515 26.7206 40.1532 26.8028 40.0071 26.9489C39.8609 27.0951 39.7788 27.2933 39.7788 27.5C39.7788 34.2705 34.2706 39.7786 27.5002 39.7786C20.7299 39.7786 15.2215 34.2705 15.2215 27.5C15.2215 27.2933 15.1394 27.0951 14.9933 26.9489C14.8471 26.8028 14.6489 26.7206 14.4422 26.7206H11.1172L11.1474 16.2959C11.1477 16.1934 11.1278 16.0918 11.0888 15.9969C11.0498 15.9021 10.9924 15.8159 10.92 15.7433C10.8476 15.6707 10.7616 15.6131 10.6669 15.5737C10.5721 15.5344 10.4706 15.5142 10.3681 15.5142H8.01976C7.69343 14.5447 6.77647 13.8442 5.69829 13.8442C4.34767 13.8442 3.2489 14.943 3.2489 16.2936C3.2489 17.6442 4.34767 18.743 5.69829 18.743C6.77636 18.743 7.69332 18.0424 8.01976 17.0729H9.58648L9.55853 26.7206H7.24241L7.25466 21.4497C7.25512 21.2449 7.17498 21.0482 7.03156 20.902C6.88814 20.7559 6.69296 20.672 6.48822 20.6686L4.78411 20.6403C4.46947 19.6506 3.54193 18.9315 2.4495 18.9315C1.09878 18.9315 0 20.0302 0 21.3809C0 22.7315 1.09878 23.8303 2.4495 23.8303C3.51332 23.8303 4.42049 23.1483 4.75783 22.1987L5.69406 22.2143L5.6837 26.7206H0.779464C0.572767 26.7206 0.374535 26.8028 0.228378 26.9489C0.0822215 27.0951 0.000111381 27.2933 0.000111381 27.5V30.172C0.000111381 31.5696 1.13707 32.7065 2.53468 32.7065C4.64772 32.7065 6.46361 33.9216 7.27392 35.8778C8.08411 37.8339 7.65936 39.9773 6.16512 41.4714C5.1769 42.4598 5.1769 44.0677 6.16512 45.056L9.94398 48.8349C10.9322 49.8229 12.5401 49.8229 13.5286 48.8349C15.0247 47.3386 17.1686 46.912 19.1241 47.722C21.0791 48.5317 22.2936 50.3493 22.2936 52.4653C22.2936 53.8629 23.4306 55 24.8282 55H30.1722C31.5698 55 32.7067 53.8629 32.7067 52.4653C32.7067 50.3523 33.9219 48.5365 35.8779 47.7262C37.8343 46.916 39.9777 47.3409 41.4717 48.835C42.4599 49.823 44.0678 49.8232 45.0562 48.835L48.8351 45.0561C49.8233 44.0678 49.8233 42.4599 48.8351 41.4716C47.3409 39.9774 46.9161 37.834 47.7263 35.8779C48.5366 33.9217 50.3526 32.7066 52.4655 32.7066C53.8631 32.7066 55.0001 31.5697 55.0001 30.1721V27.5C55.0001 27.2933 54.918 27.0951 54.7718 26.9489C54.6257 26.8028 54.4275 26.7206 54.2208 26.7206ZM52.5507 20.4902C53.0418 20.4902 53.4414 20.8898 53.4414 21.3809C53.4414 21.872 53.0418 22.2715 52.5507 22.2715C52.0596 22.2715 51.66 21.872 51.66 21.3809C51.66 20.8898 52.0596 20.4902 52.5507 20.4902ZM49.3019 15.403C49.793 15.403 50.1926 15.8026 50.1926 16.2937C50.1926 16.7848 49.793 17.1844 49.3019 17.1844C48.8108 17.1844 48.4114 16.7848 48.4114 16.2937C48.4114 15.8026 48.8108 15.403 49.3019 15.403ZM5.69829 17.1844C5.20719 17.1844 4.8076 16.7848 4.8076 16.2937C4.8076 15.8026 5.20719 15.403 5.69829 15.403C6.18939 15.403 6.58887 15.8026 6.58887 16.2937C6.58887 16.7848 6.18939 17.1844 5.69829 17.1844ZM2.4495 22.2715C1.95829 22.2715 1.5587 21.872 1.5587 21.3809C1.5587 20.8898 1.95829 20.4902 2.4495 20.4902C2.94061 20.4902 3.34008 20.8898 3.34008 21.3809C3.34008 21.872 2.94072 22.2715 2.4495 22.2715ZM53.4414 30.172C53.4414 30.71 53.0036 31.1478 52.4655 31.1478C49.7101 31.1478 47.3423 32.7317 46.2863 35.2813C45.2302 37.831 45.7844 40.6253 47.7328 42.5738C48.1133 42.9542 48.1133 43.5735 47.7328 43.9539L43.9539 47.7328C43.5736 48.1131 42.9542 48.1133 42.5738 47.7328C40.6254 45.7844 37.8312 45.2299 35.2813 46.2863C32.7317 47.3423 31.1478 49.7101 31.1478 52.4654C31.1478 53.0035 30.71 53.4414 30.172 53.4414H24.828C24.29 53.4414 23.8522 53.0035 23.8522 52.4654C23.8522 49.7071 22.269 47.3376 19.7205 46.2821C18.8663 45.9282 17.9849 45.7555 17.1165 45.7555C15.3937 45.7555 13.7231 46.436 12.4263 47.7329C12.0458 48.1132 11.4265 48.1134 11.0462 47.7329L7.26735 43.954C6.8868 43.5736 6.8868 42.9543 7.26735 42.5739C9.21573 40.6254 9.77007 37.8311 8.71383 35.2814C7.6578 32.7318 5.29002 31.1479 2.53456 31.1479C1.99648 31.1479 1.5587 30.7102 1.5587 30.1721V28.2794H13.6843C14.0902 35.5478 20.1318 41.3373 27.5 41.3373C34.8682 41.3373 40.9098 35.5478 41.3157 28.2794H53.4414V30.172ZM18.1172 26.7206C17.9105 26.7206 17.7122 26.8028 17.5661 26.9489C17.4199 27.0951 17.3378 27.2933 17.3378 27.5C17.3378 33.1035 21.8966 37.6623 27.5001 37.6623C33.1035 37.6623 37.6623 33.1035 37.6623 27.5C37.6623 27.2933 37.5802 27.0951 37.434 26.9489C37.2879 26.8028 37.0897 26.7206 36.883 26.7206H18.1172ZM27.5001 36.1036C23.0186 36.1036 19.3265 32.6595 18.9315 28.2794H36.0686C35.6737 32.6596 31.9815 36.1036 27.5001 36.1036ZM27.5003 9.14982C30.0231 9.14982 32.0756 7.09734 32.0756 4.57457C32.0756 2.05215 30.0232 0 27.5003 0C24.9775 0 22.9251 2.05215 22.9251 4.57457C22.9252 7.09734 24.9776 9.14982 27.5003 9.14982ZM27.5003 1.5587C29.1636 1.5587 30.5169 2.91155 30.5169 4.57457C30.5169 6.23782 29.1637 7.59111 27.5003 7.59111C25.837 7.59111 24.4838 6.23794 24.4838 4.57457C24.4839 2.91155 25.8371 1.5587 27.5003 1.5587Z" fill="#2166F3"/>
</svg>
