<svg width="63" height="62" viewBox="0 0 63 62" fill="none" xmlns="http://www.w3.org/2000/svg">
<path fill-rule="evenodd" clip-rule="evenodd" d="M15.1819 20.3184L17.449 17.4839L13.1749 11.3774C13.1157 11.2928 13.0737 11.1973 13.0513 11.0964C13.029 10.9955 13.0268 10.8913 13.0447 10.7895C13.0627 10.6878 13.1006 10.5906 13.1562 10.5035C13.2117 10.4164 13.2839 10.3411 13.3686 10.282C13.4533 10.2226 13.5488 10.1805 13.6497 10.158C13.7506 10.1356 13.855 10.1333 13.9568 10.1512C14.0586 10.1691 14.1559 10.2069 14.2431 10.2625C14.3303 10.318 14.4057 10.3902 14.465 10.4749L19.0771 17.0635C19.1746 17.203 19.2243 17.3703 19.2189 17.5404C19.2134 17.7105 19.153 17.8743 19.0467 18.0072L16.4113 21.3011C16.3468 21.3819 16.267 21.4492 16.1764 21.4991C16.0858 21.549 15.9863 21.5805 15.8835 21.5919C15.7808 21.6033 15.6767 21.5943 15.5774 21.5654C15.4781 21.5365 15.3855 21.4883 15.3049 21.4236C15.2242 21.3592 15.1569 21.2795 15.1071 21.189C15.0572 21.0986 15.0256 20.9992 15.0142 20.8965C15.0028 20.7939 15.0117 20.69 15.0405 20.5908C15.0693 20.4916 15.1173 20.399 15.1819 20.3184ZM18.4322 31.8097C26.314 31.8097 32.7263 25.3971 32.7263 17.5151C32.7262 17.3064 32.6432 17.1062 32.4956 16.9587C32.3479 16.8111 32.1477 16.7282 31.939 16.7282H29.2377C29.1334 16.7269 29.03 16.7463 28.9333 16.7853C28.8366 16.8243 28.7487 16.8821 28.6745 16.9553C28.6003 17.0286 28.5414 17.1158 28.5013 17.212C28.4611 17.3081 28.4404 17.4113 28.4404 17.5156C28.4404 17.6198 28.4611 17.723 28.5013 17.8192C28.5414 17.9154 28.6003 18.0026 28.6745 18.0758C28.7487 18.1491 28.8366 18.2069 28.9333 18.2458C29.03 18.2848 29.1334 18.3042 29.2377 18.3029H31.1269C30.7346 24.6899 25.6073 29.8185 19.2194 30.2095V28.32C19.2192 28.1113 19.1362 27.9112 18.9886 27.7637C18.841 27.6161 18.6409 27.5331 18.4322 27.533C18.2234 27.5331 18.0233 27.616 17.8756 27.7636C17.728 27.9111 17.645 28.1113 17.6448 28.32V30.2095C11.2569 29.8185 6.12926 24.6899 5.73742 18.3029H7.62644C7.83525 18.3029 8.03551 18.22 8.18317 18.0723C8.33082 17.9246 8.41377 17.7244 8.41377 17.5156C8.41377 17.3068 8.33082 17.1065 8.18317 16.9588C8.03551 16.8112 7.83525 16.7282 7.62644 16.7282H5.73742C6.12938 10.3405 11.257 5.21186 17.6448 4.82014V6.7104C17.645 6.91912 17.728 7.11924 17.8756 7.26678C18.0233 7.41432 18.2234 7.49724 18.4322 7.4973C18.6409 7.49714 18.8409 7.41419 18.9885 7.26666C19.1361 7.11914 19.2192 6.91908 19.2194 6.7104V4.82014C22.4004 5.02102 25.4069 6.42408 27.6095 8.713H24.3075C24.2042 8.71295 24.1018 8.73327 24.0063 8.77281C23.9108 8.81234 23.824 8.87031 23.7509 8.9434C23.6778 9.0165 23.6199 9.10328 23.5803 9.19878C23.5408 9.29429 23.5205 9.39666 23.5205 9.50003C23.5204 9.60344 23.5407 9.70586 23.5802 9.80144C23.6197 9.89701 23.6776 9.98386 23.7507 10.057C23.8238 10.1302 23.9106 10.1882 24.0062 10.2278C24.1017 10.2674 24.2041 10.2877 24.3075 10.2877H29.3044C29.4078 10.2877 29.5102 10.2674 29.6057 10.2278C29.7013 10.1882 29.7881 10.1302 29.8612 10.057C29.9343 9.98386 29.9922 9.89701 30.0317 9.80144C30.0712 9.70586 30.0915 9.60344 30.0914 9.50003V4.5032C30.0914 4.39984 30.0711 4.29749 30.0315 4.20199C29.992 4.1065 29.934 4.01973 29.8609 3.94665C29.7878 3.87356 29.7011 3.81559 29.6056 3.77604C29.5101 3.7365 29.4077 3.71615 29.3044 3.71617C29.201 3.7161 29.0986 3.73641 29.0031 3.77594C28.9075 3.81547 28.8207 3.87343 28.7476 3.94652C28.6745 4.01962 28.6165 4.1064 28.577 4.20192C28.5374 4.29744 28.5171 4.39981 28.5171 4.5032V7.39041C25.8572 4.74958 22.2207 3.22116 18.4322 3.22116C10.5501 3.22116 4.1377 9.6332 4.1377 17.515C4.1377 25.3971 10.5501 31.8097 18.4322 31.8097ZM57.188 56.1487C57.188 56.7313 56.7147 57.2049 56.1328 57.2049H35.6694C35.7468 56.9742 35.7904 56.7278 35.7904 56.4727V41.2977C35.7904 41.0889 35.7075 40.8886 35.5598 40.7409C35.4122 40.5932 35.212 40.5102 35.0032 40.5101H32.726C33.2994 34.6543 38.1007 29.9487 43.9538 29.4744L40.0126 48.6235C39.9847 48.7588 39.9929 48.899 40.0365 49.03C40.08 49.1611 40.1574 49.2783 40.2608 49.3699L44.405 53.0548C44.5493 53.1823 44.7353 53.2527 44.928 53.2527C45.1206 53.2527 45.3066 53.1823 45.451 53.0548L49.5952 49.3699C49.6985 49.2782 49.7758 49.161 49.8193 49.0299C49.8628 48.8989 49.871 48.7587 49.8431 48.6235L45.9018 29.4731C52.2086 29.9702 57.1882 35.2619 57.1882 41.6938V56.1487H57.188ZM11.4973 57.2048H33.4842C33.6783 57.2046 33.8643 57.1274 34.0016 56.9901C34.1388 56.8528 34.216 56.6667 34.2161 56.4726V44.9314L28.4345 48.5423C27.5148 49.1164 26.5811 49.3841 25.4963 49.3841H23.278V50.4118C23.278 50.5152 23.2576 50.6176 23.2181 50.7131C23.1785 50.8087 23.1205 50.8954 23.0474 50.9685C22.9742 51.0416 22.8874 51.0996 22.7919 51.1391C22.6963 51.1786 22.594 51.1989 22.4906 51.1989C22.3872 51.1989 22.2848 51.1786 22.1893 51.1391C22.0937 51.0996 22.0069 51.0416 21.9338 50.9685C21.8607 50.8954 21.8027 50.8086 21.7632 50.7131C21.7236 50.6176 21.7033 50.5152 21.7033 50.4118V49.3841H19.4848C18.4002 49.3841 17.4665 49.1163 16.5466 48.5416L10.7654 44.9314V56.4727C10.7656 56.6668 10.8427 56.8529 10.98 56.9901C11.1172 57.1274 11.3033 57.2046 11.4973 57.2048ZM16.7398 42.0847H10.7654V43.0748L17.3808 47.2062C18.0484 47.6236 18.6975 47.8095 19.4848 47.8095H21.7033V46.7633C21.7033 46.3282 22.0557 45.9762 22.4906 45.9762C22.9254 45.9762 23.278 46.328 23.278 46.7633V47.8095H25.4963C26.284 47.8095 26.9326 47.6236 27.6006 47.2062L34.216 43.0748V42.0847H28.2413L28.2104 42.099L28.2035 42.0847H16.7776L16.7707 42.099L16.7398 42.0847ZM18.6223 38.214C18.8706 37.6919 19.3447 37.3928 19.9229 37.3928H25.0589C25.6367 37.3928 26.1107 37.6919 26.3592 38.214L27.4537 40.5101H17.5282L18.6223 38.214ZM38.2852 21.2164C38.2852 17.5536 41.265 14.5745 44.9279 14.5745C48.5905 14.5745 51.5703 17.5536 51.5703 21.2164C51.5703 24.88 48.5905 27.8591 44.9279 27.8591C41.265 27.8592 38.2852 24.88 38.2852 21.2164ZM48.2092 48.4953L44.9277 32.5519L41.6463 48.4953L44.9277 51.4125L48.2092 48.4953ZM48.8603 28.429C51.4112 27.0338 53.1448 24.3246 53.1448 21.2165C53.1448 16.6855 49.4586 13.0005 44.9277 13.0005C40.3969 13.0005 36.7106 16.6855 36.7106 21.2165C36.7106 24.3246 38.4448 27.0339 40.9952 28.4305C35.5884 30.0384 31.6275 34.8512 31.1443 40.5102H29.1974L27.7805 37.5368C27.2678 36.4606 26.2504 35.8183 25.0586 35.8183H19.9226C18.7308 35.8183 17.7131 36.4607 17.2004 37.5368L15.7837 40.5102H9.9781C9.76927 40.5103 9.56905 40.5934 9.42142 40.7411C9.2738 40.8888 9.19085 41.089 9.19082 41.2978V56.4727C9.19082 57.7447 10.2255 58.7789 11.4975 58.7789H56.1329C57.5829 58.7789 58.7624 57.5995 58.7624 56.1487V41.6938C58.7624 35.4314 54.5793 30.1289 48.8603 28.429Z" fill="#2166F3"/>
</svg>
