<svg width="63" height="63" viewBox="0 0 63 63" fill="none" xmlns="http://www.w3.org/2000/svg">
<g clip-path="url(#clip0_501_127)">
<path d="M35.7946 15.6481C35.2298 15.0838 34.4792 14.7726 33.6807 14.7726C32.8822 14.7726 32.1315 15.0838 31.5672 15.6481C31.0024 16.2129 30.6912 16.9636 30.6912 17.762C30.6912 18.5605 31.0025 19.3112 31.5667 19.8755L36.6593 24.968C37.2236 25.5323 37.9748 25.8435 38.7733 25.8435C39.5718 25.8435 40.3221 25.5323 40.8867 24.968L51.7672 14.0876C52.332 13.5228 52.6428 12.7721 52.6428 11.9741C52.6428 11.1756 52.332 10.425 51.7672 9.86019C51.2029 9.29541 50.4517 8.98469 49.6533 8.98469C48.8549 8.98469 48.1042 9.29541 47.5399 9.86019L46.3402 11.0597C45.457 10.3845 44.481 9.8403 43.4424 9.44387V8.08399C43.4424 6.43542 42.1014 5.09443 40.4535 5.09443H31.0801V4.05666C31.0801 1.95023 29.3662 0.236511 27.2598 0.236511H16.8065C14.7001 0.236511 12.9864 1.95023 12.9864 4.05666V8.3728C12.9864 9.54305 13.9385 10.4953 15.1088 10.4953H28.9575C30.1279 10.4953 31.0801 9.54305 31.0801 8.3728V6.91362H40.453C41.0982 6.91362 41.6232 7.43868 41.6232 8.08387V8.9216C40.8694 8.76829 40.1021 8.69064 39.3329 8.68982C32.9617 8.68982 27.7783 13.8731 27.7783 20.2443C27.7783 26.6155 32.9617 31.7989 39.3329 31.7989C40.11 31.7989 40.8763 31.7208 41.6232 31.5708V59.2473C41.6232 59.8926 41.0982 60.4171 40.453 60.4171H3.6131C2.96779 60.4171 2.44334 59.8926 2.44334 59.2473V8.08399C2.44334 7.4388 2.96779 6.91374 3.6131 6.91374H9.65968C9.90093 6.91374 10.1323 6.8179 10.3029 6.64731C10.4735 6.47672 10.5693 6.24534 10.5693 6.00409C10.5693 5.76283 10.4735 5.53146 10.3029 5.36086C10.1323 5.19027 9.90093 5.09443 9.65968 5.09443H3.6131C1.96502 5.09443 0.624023 6.43542 0.624023 8.08399V59.2474C0.624023 60.8955 1.96502 62.2365 3.6131 62.2365H40.4535C42.1015 62.2365 43.4425 60.8955 43.4425 59.2474V31.0449C44.9077 30.4876 46.244 29.6375 47.3696 28.5464C49.5303 26.4543 50.7777 23.6493 50.8807 20.648C50.8889 20.4068 50.801 20.1724 50.6364 19.996C50.4718 19.8197 50.2439 19.7159 50.0028 19.7075C49.5042 19.6909 49.0801 20.0832 49.0625 20.5855C48.9172 24.8101 46.1393 28.2981 42.3242 29.5152C42.2722 29.527 42.2214 29.5436 42.1724 29.5648C41.2746 29.8349 40.3215 29.9797 39.3329 29.9797C33.965 29.9797 29.5976 25.6123 29.5976 20.2445C29.5976 14.8765 33.965 10.5091 39.3329 10.5091C41.383 10.5083 43.3809 11.1558 45.0408 12.3591L38.7733 18.6271L35.7946 15.6481ZM29.2608 8.3728C29.2608 8.41262 29.2529 8.45205 29.2377 8.48884C29.2224 8.52563 29.2001 8.55905 29.1719 8.58721C29.1438 8.61536 29.1104 8.6377 29.0736 8.65294C29.0368 8.66818 28.9974 8.67602 28.9575 8.67602H15.1089C15.0691 8.67602 15.0296 8.66818 14.9929 8.65294C14.9561 8.6377 14.9226 8.61536 14.8945 8.58721C14.8663 8.55905 14.844 8.52563 14.8288 8.48884C14.8135 8.45205 14.8057 8.41262 14.8057 8.3728V4.05666C14.8057 2.95313 15.703 2.0557 16.8066 2.0557H27.2599C28.3631 2.0557 29.2608 2.95301 29.2608 4.05666V8.3728ZM48.8266 11.1468C48.9348 11.0378 49.0637 10.9513 49.2056 10.8924C49.3476 10.8335 49.4998 10.8034 49.6534 10.8039C49.8072 10.8035 49.9596 10.8337 50.1016 10.8925C50.2437 10.9514 50.3727 11.0378 50.4812 11.1468C50.9371 11.6027 50.9371 12.3454 50.4812 12.8014L39.6002 23.6818C39.4919 23.7909 39.3629 23.8773 39.2209 23.9362C39.0789 23.995 38.9266 24.0252 38.7729 24.0248C38.6192 24.0252 38.4669 23.995 38.3249 23.9362C38.1829 23.8773 38.054 23.7909 37.9456 23.6818L32.853 18.5894C32.7441 18.481 32.6577 18.352 32.5989 18.21C32.5401 18.068 32.5101 17.9157 32.5106 17.762C32.5101 17.6083 32.5401 17.456 32.599 17.314C32.6579 17.172 32.7444 17.043 32.8535 16.9347C32.9619 16.8257 33.0908 16.7392 33.2328 16.6803C33.3748 16.6214 33.5271 16.5913 33.6808 16.5917C33.8345 16.5914 33.9868 16.6215 34.1288 16.6804C34.2708 16.7393 34.3997 16.8257 34.5081 16.9347L38.13 20.5566C38.2145 20.6411 38.3147 20.7081 38.4251 20.7538C38.5354 20.7996 38.6537 20.8231 38.7732 20.8231C38.8926 20.8231 39.0109 20.7996 39.1212 20.7538C39.2316 20.7081 39.3318 20.6411 39.4163 20.5566L48.8266 11.1468Z" fill="black"/>
<path d="M25.3802 23.0684H14.2967C14.1773 23.0684 14.059 23.0919 13.9487 23.1377C13.8384 23.1834 13.7381 23.2504 13.6537 23.3349C13.5693 23.4193 13.5023 23.5196 13.4567 23.63C13.411 23.7403 13.3875 23.8586 13.3876 23.978C13.3876 24.2191 13.4834 24.4504 13.6539 24.6208C13.8244 24.7913 14.0556 24.8871 14.2967 24.8871H25.3802C25.6213 24.8871 25.8526 24.7913 26.0232 24.6209C26.1937 24.4504 26.2896 24.2192 26.2897 23.978C26.2897 23.7368 26.1939 23.5054 26.0233 23.3348C25.8527 23.1642 25.6213 23.0684 25.3801 23.0684H25.3802ZM12.5607 13.6794H6.44029C6.20086 13.6821 5.97219 13.7792 5.80386 13.9495C5.63553 14.1197 5.54112 14.3495 5.54112 14.589C5.54112 14.8284 5.63553 15.0582 5.80386 15.2285C5.97219 15.3987 6.20086 15.4958 6.44029 15.4986H12.5607C12.8001 15.4958 13.0288 15.3987 13.1972 15.2285C13.3655 15.0582 13.4599 14.8284 13.4599 14.589C13.4599 14.3495 13.3655 14.1197 13.1972 13.9495C13.0288 13.7792 12.8001 13.6821 12.5607 13.6794ZM14.2967 29.107H25.3802C25.6214 29.1069 25.8528 29.0111 26.0233 28.8405C26.1939 28.6699 26.2897 28.4385 26.2897 28.1973C26.2896 27.9561 26.1937 27.7249 26.0231 27.5544C25.8525 27.384 25.6212 27.2882 25.3801 27.2882H14.2967C14.0556 27.2882 13.8244 27.384 13.6539 27.5545C13.4834 27.725 13.3876 27.9562 13.3876 28.1973C13.3875 28.3167 13.411 28.435 13.4567 28.5454C13.5023 28.6557 13.5693 28.756 13.6537 28.8405C13.7381 28.9249 13.8384 28.9919 13.9487 29.0377C14.059 29.0834 14.1773 29.1069 14.2967 29.107ZM29.2088 34.1001H14.2967C14.1773 34.1001 14.059 34.1237 13.9487 34.1694C13.8384 34.2151 13.7381 34.2822 13.6537 34.3666C13.5693 34.4511 13.5023 34.5514 13.4567 34.6617C13.411 34.7721 13.3875 34.8904 13.3876 35.0098C13.3875 35.1292 13.411 35.2475 13.4567 35.3578C13.5023 35.4682 13.5693 35.5685 13.6537 35.6529C13.7381 35.7374 13.8384 35.8044 13.9487 35.8502C14.059 35.8959 14.1773 35.9194 14.2967 35.9194H29.2088C29.4501 35.9194 29.6814 35.8236 29.852 35.653C30.0226 35.4824 30.1185 35.251 30.1185 35.0098C30.1185 34.7685 30.0226 34.5372 29.852 34.3666C29.6814 34.196 29.4501 34.1001 29.2088 34.1001ZM14.2967 40.1393H21.753C21.8724 40.1393 21.9906 40.1158 22.101 40.07C22.2113 40.0243 22.3115 39.9573 22.396 39.8728C22.4804 39.7883 22.5474 39.6881 22.593 39.5777C22.6387 39.4674 22.6622 39.3491 22.6621 39.2297C22.6622 39.1102 22.6387 38.992 22.593 38.8816C22.5474 38.7713 22.4804 38.671 22.396 38.5865C22.3115 38.502 22.2113 38.435 22.101 38.3893C21.9906 38.3436 21.8724 38.32 21.753 38.32H14.2967C14.1773 38.32 14.059 38.3436 13.9487 38.3893C13.8384 38.435 13.7381 38.502 13.6537 38.5865C13.5693 38.671 13.5023 38.7713 13.4567 38.8816C13.411 38.992 13.3875 39.1102 13.3876 39.2297C13.3875 39.3491 13.411 39.4674 13.4567 39.5777C13.5023 39.6881 13.5693 39.7883 13.6537 39.8728C13.7381 39.9573 13.8384 40.0243 13.9487 40.07C14.059 40.1158 14.1773 40.1393 14.2967 40.1393ZM14.2967 46.9631H25.3802C25.6196 46.9603 25.8483 46.8633 26.0166 46.693C26.185 46.5227 26.2794 46.2929 26.2794 46.0535C26.2794 45.814 26.185 45.5843 26.0166 45.414C25.8483 45.2437 25.6196 45.1466 25.3802 45.1439H14.2967C13.7944 45.1439 13.3876 45.5511 13.3876 46.0534C13.3876 46.5557 13.7944 46.9631 14.2967 46.9631ZM14.2967 51.1825H29.2088C29.4501 51.1824 29.6814 51.0866 29.852 50.916C30.0225 50.7454 30.1184 50.514 30.1184 50.2728C30.1183 50.0316 30.0224 49.8004 29.8518 49.6299C29.6813 49.4594 29.45 49.3636 29.2088 49.3636H14.2967C14.0556 49.3636 13.8243 49.4594 13.6538 49.6299C13.4833 49.8004 13.3876 50.0317 13.3876 50.2728C13.3875 50.3922 13.411 50.5105 13.4567 50.6209C13.5023 50.7312 13.5693 50.8315 13.6537 50.916C13.7381 51.0004 13.8384 51.0674 13.9487 51.1132C14.059 51.1589 14.1773 51.1824 14.2967 51.1825ZM8.37076 22.2798C6.34486 22.2798 4.69678 23.9279 4.69678 25.9538C4.69678 27.9797 6.34486 29.6278 8.37076 29.6278C10.3967 29.6278 12.0447 27.9797 12.0447 25.9538C12.0447 23.9279 10.3967 22.2798 8.37076 22.2798ZM8.37076 27.8085C7.348 27.8085 6.51597 26.9765 6.51597 25.9538C6.51597 24.931 7.348 24.0991 8.37076 24.0991C9.3934 24.0991 10.2254 24.931 10.2254 25.9538C10.2254 26.9765 9.3934 27.8085 8.37076 27.8085ZM8.37076 33.4455C6.34486 33.4455 4.69678 35.0939 4.69678 37.1195C4.69678 39.1454 6.34486 40.7935 8.37076 40.7935C10.3967 40.7935 12.0447 39.1454 12.0447 37.1195C12.0447 35.0939 10.3967 33.4455 8.37076 33.4455ZM8.37076 38.9746C7.348 38.9746 6.51597 38.1427 6.51597 37.12C6.51597 36.0967 7.348 35.2648 8.37076 35.2648C9.3934 35.2648 10.2254 36.0967 10.2254 37.12C10.2254 38.1426 9.3934 38.9746 8.37076 38.9746ZM8.37076 44.4891C6.34486 44.4891 4.69678 46.1372 4.69678 48.1631C4.69678 50.189 6.34486 51.8371 8.37076 51.8371C10.3967 51.8371 12.0447 50.189 12.0447 48.1631C12.0447 46.1372 10.3967 44.4891 8.37076 44.4891ZM8.37076 50.0179C7.348 50.0179 6.51597 49.1859 6.51597 48.1631C6.51597 47.1404 7.348 46.3084 8.37076 46.3084C9.3934 46.3084 10.2254 47.1404 10.2254 48.1631C10.2254 49.1859 9.3934 50.0179 8.37076 50.0179Z" fill="black"/>
</g>
<defs>
<clipPath id="clip0_501_127">
<rect width="62" height="62" fill="white" transform="translate(0.50293 0.236511)"/>
</clipPath>
</defs>
</svg>
