<svg width="63" height="62" viewBox="0 0 63 62" fill="none" xmlns="http://www.w3.org/2000/svg">
<g clip-path="url(#clip0_501_137)">
<path d="M48.3113 43.7008C44.3674 48.6248 38.3045 51.7781 31.5054 51.7781C21.5389 51.7781 13.1554 45.0032 10.7081 35.8076C10.5251 35.12 11.0415 34.4448 11.753 34.4448H12.7577C13.7664 34.4448 14.2702 33.2266 13.5581 32.5134L10.0222 28.9774L8.62238 27.5776C8.08715 27.0424 7.21891 27.0424 6.68368 27.5776L4.24607 30.014L1.7467 32.5134C1.03468 33.2266 1.53963 34.4448 2.54713 34.4448H3.65344C4.17584 34.4448 4.61988 34.819 4.71652 35.3324C7.09491 47.9635 18.1843 57.5179 31.5054 57.5179C46.4798 57.5179 58.6339 45.4437 58.7647 30.5008L56.3271 32.9372C55.7918 33.4724 54.9236 33.4724 54.3884 32.9372L52.9885 31.5373C52.8046 34.6727 51.9493 37.6277 50.5645 40.2608M15.9387 15.3977C19.8575 11.2936 25.3829 8.73669 31.5054 8.73669C37.6274 8.73669 43.1521 11.293 47.0706 15.3963" stroke="#2166F3" stroke-width="2" stroke-miterlimit="10" stroke-linecap="round" stroke-linejoin="round"/>
<path d="M50.771 20.6579C51.4173 21.9524 51.9305 23.3091 52.3027 24.7073C52.4857 25.3949 51.9693 26.0701 51.2578 26.0701H50.2531C49.2444 26.0701 48.7406 27.2883 49.4526 28.0016L52.9886 31.5375L54.3884 32.9373C54.9236 33.4726 55.7919 33.4726 56.3271 32.9373L58.7647 30.5009L61.2641 28.0016C61.9761 27.2883 61.4711 26.0701 60.4636 26.0701H59.3573C58.8349 26.0701 58.3909 25.6959 58.2943 25.1825C55.9159 12.5514 44.8265 2.99701 31.5054 2.99701C16.531 2.99701 4.37687 15.0712 4.24609 30.0141L6.6837 27.5777C7.21893 27.0425 8.08717 27.0425 8.6224 27.5777L10.0222 28.9776C10.1025 27.6015 10.315 26.2363 10.6568 24.901" stroke="#2166F3" stroke-width="2" stroke-miterlimit="10" stroke-linecap="round" stroke-linejoin="round"/>
<path d="M43.4964 27.9336L40.412 31.0169C40.1396 31.2893 39.9236 31.6126 39.7761 31.9684C39.6287 32.3243 39.5528 32.7057 39.5528 33.0909V45.8266H23.4584V33.0905C23.4585 32.7054 23.3826 32.3241 23.2352 31.9683C23.0879 31.6125 22.8718 31.2892 22.5995 31.0169L19.5161 27.9335L23.9955 23.4541L25.4923 24.951C27.0873 26.5459 29.2505 27.442 31.5061 27.442C33.7612 27.442 35.9239 26.5464 37.5188 24.9521L39.0171 23.4543L43.4964 27.9336Z" stroke="#2166F3" stroke-width="2" stroke-miterlimit="10" stroke-linecap="round" stroke-linejoin="round"/>
<path d="M39.5527 50.2229V45.8265H23.4584V50.2229M53.131 18.2975L43.4962 27.9336L39.0169 23.4543L48.6516 13.8181C49.8881 12.5817 51.8931 12.5817 53.131 13.8181C54.3676 15.0547 54.3676 17.061 53.131 18.2975ZM23.9955 23.4543L19.5161 27.9336L9.88 18.2975C8.64352 17.061 8.64352 15.0547 9.88 13.8181C11.1179 12.5817 13.1228 12.5817 14.3594 13.8181L23.9955 23.4543ZM31.505 40.5758C31.505 40.5758 30.3467 36.044 25.4504 36.6982C24.6326 36.8076 24.1787 37.6999 24.5572 38.4331C25.0696 39.4257 25.975 40.5758 27.42 40.5758H31.505Z" stroke="#2166F3" stroke-width="2" stroke-miterlimit="10" stroke-linecap="round" stroke-linejoin="round"/>
<path d="M31.5049 40.5758C31.5049 40.5758 32.6631 36.044 37.5594 36.6982C38.3773 36.8076 38.8312 37.6999 38.4526 38.4331C37.9403 39.4257 37.0349 40.5758 35.5899 40.5758H31.5049Z" stroke="#2166F3" stroke-width="2" stroke-miterlimit="10" stroke-linecap="round" stroke-linejoin="round"/>
<path d="M33.677 37.5042C34.2837 35.9467 34.2515 34.0484 31.9638 32.4358C31.8294 32.3415 31.6692 32.2909 31.505 32.2909C31.3408 32.2909 31.1806 32.3415 31.0463 32.4358C28.7681 34.0417 28.7266 35.9306 29.3254 37.4843M36.445 17.011V19.0963C36.445 21.8245 34.2338 24.0357 31.5056 24.0357C30.8638 24.0357 30.251 23.9134 29.6892 23.6906C27.8582 22.9676 26.5649 21.1827 26.5649 19.0963V17.011C26.5649 14.8931 28.213 13.159 30.297 13.0222C30.3854 13.0149 30.4738 13.0125 30.5635 13.0125H32.4465C34.6552 13.0125 36.445 14.8035 36.445 17.011Z" stroke="#2166F3" stroke-width="2" stroke-miterlimit="10" stroke-linecap="round" stroke-linejoin="round"/>
</g>
<defs>
<clipPath id="clip0_501_137">
<rect width="62" height="62" fill="white" transform="translate(0.505371)"/>
</clipPath>
</defs>
</svg>
