<svg width="63" height="63" viewBox="0 0 63 63" fill="none" xmlns="http://www.w3.org/2000/svg">
<g clip-path="url(#clip0_501_131)">
<path d="M59.0148 52.5794C59.0353 52.8355 58.9533 53.0893 58.7867 53.2849C58.6202 53.4805 58.3828 53.602 58.1267 53.6225L52.0226 54.1125C51.8827 54.1237 51.7421 54.1044 51.6104 54.056C51.4788 54.0075 51.3592 53.9311 51.26 53.8318C51.1608 53.7326 51.0844 53.6131 51.0359 53.4814C50.9875 53.3497 50.9682 53.2091 50.9795 53.0693L51.4692 46.9652C51.4921 46.7109 51.6145 46.476 51.8096 46.3115C52.0048 46.147 52.257 46.0662 52.5114 46.0866C52.7659 46.107 53.002 46.227 53.1684 46.4205C53.3349 46.614 53.4182 46.8654 53.4004 47.12L53.125 50.5534C58.0216 45.2058 60.7095 38.3014 60.7095 31.0245C60.7095 28.9268 60.4839 26.8339 60.039 24.804C59.984 24.5531 60.0309 24.2905 60.1695 24.0742C60.3081 23.8578 60.5269 23.7054 60.7779 23.6504C60.9022 23.6231 61.0306 23.6205 61.1559 23.6429C61.2811 23.6653 61.4007 23.7121 61.5079 23.7807C61.615 23.8494 61.7076 23.9384 61.7803 24.0429C61.853 24.1473 61.9044 24.265 61.9316 24.3893C62.4062 26.5551 62.647 28.7875 62.647 31.0245C62.647 38.84 59.7408 46.2524 54.4505 51.9738L57.9717 51.6912C58.5057 51.6477 58.972 52.0461 59.0148 52.5794ZM1.60458 37.6598C1.65186 37.8755 1.77134 38.0685 1.94325 38.207C2.11517 38.3455 2.32921 38.4211 2.54996 38.4214C2.61862 38.4214 2.68837 38.414 2.75824 38.3986C3.00921 38.3436 3.22805 38.1912 3.36663 37.9748C3.5052 37.7585 3.55215 37.4959 3.49716 37.245C3.05226 35.215 2.82666 33.1221 2.82666 31.0245C2.82666 23.7475 5.51458 16.843 10.4112 11.4954L10.1358 14.9288C10.1152 15.1849 10.1972 15.4387 10.3638 15.6343C10.5304 15.8299 10.7678 15.9513 11.0239 15.9718C11.2799 15.9924 11.5337 15.9103 11.7293 15.7438C11.9249 15.5772 12.0463 15.3398 12.0668 15.0837L12.5565 8.97963C12.5678 8.8398 12.5485 8.69919 12.5 8.56754C12.4516 8.43588 12.3751 8.31632 12.276 8.2171C12.1766 8.11819 12.057 8.04191 11.9254 7.99348C11.7938 7.94506 11.6532 7.92563 11.5134 7.93653L5.40935 8.42647C5.15326 8.44704 4.91583 8.56849 4.74928 8.7641C4.58273 8.95972 4.5007 9.21349 4.52125 9.46958C4.56411 10.003 5.03081 10.4012 5.56435 10.3578L9.08539 10.0752C3.79529 15.7965 0.88916 23.209 0.88916 31.0245C0.88916 33.2615 1.12989 35.4938 1.60458 37.6598ZM25.5476 2.7536C27.5777 2.3087 29.6705 2.0831 31.7681 2.0831C39.0448 2.0831 45.9492 4.77102 51.2971 9.66756L47.8637 9.39208C47.6098 9.37544 47.3595 9.45939 47.1669 9.62579C46.9743 9.79219 46.855 10.0277 46.8346 10.2814C46.8143 10.5351 46.8945 10.7866 47.0581 10.9815C47.2217 11.1765 47.4554 11.2993 47.7087 11.3234L53.8128 11.8131C53.9527 11.8243 54.0933 11.805 54.2249 11.7566C54.3566 11.7081 54.4761 11.6316 54.5753 11.5324C54.6745 11.4332 54.7509 11.3136 54.7994 11.182C54.8478 11.0503 54.8671 10.9097 54.8558 10.7699L54.366 4.66579C54.357 4.53807 54.3228 4.4134 54.2654 4.29897C54.2079 4.18455 54.1284 4.08265 54.0313 3.99916C53.9343 3.91567 53.8216 3.85225 53.6999 3.81256C53.5782 3.77288 53.4498 3.75771 53.3222 3.76795C53.1945 3.77818 53.0702 3.81361 52.9564 3.87219C52.8425 3.93077 52.7414 4.01133 52.6589 4.10923C52.5764 4.20712 52.5141 4.3204 52.4756 4.44251C52.4371 4.56462 52.4233 4.69315 52.4348 4.82067L52.7173 8.34183C46.996 3.05173 39.5833 0.145599 31.7681 0.145599C29.5313 0.145599 27.2989 0.386213 25.1329 0.861021C25.0082 0.887845 24.89 0.939021 24.7852 1.01161C24.6803 1.08421 24.5908 1.17679 24.5218 1.28405C24.4529 1.39131 24.4057 1.51113 24.3832 1.63665C24.3606 1.76216 24.363 1.8909 24.3903 2.01547C24.4176 2.14005 24.4692 2.25801 24.5422 2.36258C24.6152 2.46715 24.7082 2.55629 24.8157 2.62486C24.9232 2.69344 25.0432 2.74011 25.1688 2.76221C25.2944 2.7843 25.4231 2.78137 25.5476 2.7536ZM37.9885 59.2954C35.9584 59.7403 33.8655 59.9659 31.7681 59.9659C24.4911 59.9659 17.5865 57.2779 12.2389 52.3814L15.6725 52.6569C15.7993 52.6671 15.9269 52.6522 16.048 52.6131C16.169 52.574 16.2812 52.5114 16.3781 52.4289C16.4749 52.3464 16.5546 52.2457 16.6125 52.1324C16.6705 52.0192 16.7055 51.8956 16.7157 51.7688C16.7259 51.642 16.711 51.5144 16.6718 51.3933C16.6327 51.2723 16.5701 51.1601 16.4877 51.0632C16.4052 50.9664 16.3044 50.8867 16.1912 50.8288C16.0779 50.7708 15.9543 50.7358 15.8275 50.7256L9.72343 50.2359C9.58364 50.225 9.44315 50.2444 9.31156 50.2929C9.17997 50.3413 9.0604 50.4176 8.96103 50.5165C8.86182 50.6157 8.78536 50.7352 8.73691 50.8669C8.68847 50.9986 8.6692 51.1392 8.68045 51.279L9.17028 57.3831C9.18045 57.5099 9.21549 57.6335 9.27342 57.7468C9.33134 57.86 9.41101 57.9608 9.50787 58.0433C9.60473 58.1257 9.71689 58.1883 9.83794 58.2275C9.95899 58.2666 10.0866 58.2815 10.2134 58.2713C10.4695 58.2508 10.7069 58.1293 10.8734 57.9337C11.04 57.7381 11.122 57.4843 11.1015 57.2282L10.819 53.7072C16.54 58.9973 23.9527 61.9034 31.7681 61.9034C34.0048 61.9034 36.2372 61.6628 38.4033 61.188C38.6534 61.1322 38.8712 60.9795 39.0091 60.7634C39.1469 60.5474 39.1934 60.2855 39.1386 60.0351C39.0837 59.7848 38.9319 59.5664 38.7163 59.4277C38.5008 59.2891 38.2391 59.2415 37.9885 59.2954ZM13.6693 4.5057C13.6693 2.15878 15.5786 0.249619 17.9254 0.249619C20.2722 0.249619 22.1814 2.1589 22.1814 4.5057C22.1814 6.8525 20.2722 8.76166 17.9254 8.76166C15.5786 8.76166 13.6693 6.8525 13.6693 4.5057ZM15.6068 4.5057C15.6068 5.78421 16.6468 6.82416 17.9254 6.82416C19.2039 6.82416 20.2439 5.78409 20.2439 4.5057C20.2439 3.22731 19.2039 2.18712 17.9254 2.18712C16.6468 2.18712 15.6068 3.22719 15.6068 4.5057ZM9.50534 44.8672C9.50534 47.214 7.59606 49.1232 5.24926 49.1232C2.90247 49.1232 0.99318 47.214 0.99318 44.8672C0.99318 42.5204 2.90247 40.6111 5.24926 40.6111C7.59606 40.6111 9.50534 42.5205 9.50534 44.8672ZM7.56784 44.8672C7.56784 43.5887 6.52777 42.5486 5.24926 42.5486C3.97075 42.5486 2.93068 43.5888 2.93068 44.8672C2.93068 46.1456 3.97075 47.1857 5.24926 47.1857C6.52777 47.1857 7.56784 46.1457 7.56784 44.8672ZM54.0308 17.1818C54.0308 14.835 55.9401 12.9258 58.2868 12.9258C60.6334 12.9258 62.5428 14.8351 62.5428 17.1818C62.5428 19.5285 60.6335 21.4379 58.2868 21.4379C55.94 21.4379 54.0308 19.5285 54.0308 17.1818ZM55.9683 17.1818C55.9683 18.4603 57.0084 19.5004 58.2868 19.5004C59.5651 19.5004 60.6053 18.4602 60.6053 17.1818C60.6053 15.9034 59.5653 14.8633 58.2868 14.8633C57.0082 14.8633 55.9683 15.9033 55.9683 17.1818ZM49.8669 57.5433C49.8669 59.8901 47.9576 61.7993 45.6109 61.7993C43.2641 61.7993 41.3548 59.89 41.3548 57.5433C41.3548 55.1966 43.2641 53.2872 45.6109 53.2872C47.9576 53.2872 49.8669 55.1965 49.8669 57.5433ZM47.9294 57.5433C47.9294 56.2648 46.8893 55.2247 45.6109 55.2247C44.3324 55.2247 43.2923 56.2649 43.2923 57.5433C43.2923 58.8217 44.3324 59.8618 45.6109 59.8618C46.8893 59.8619 47.9294 58.8218 47.9294 57.5433ZM49.7647 35.4447C49.319 37.2708 48.5949 39.0175 47.6179 40.6234L49.5185 42.5238C49.7001 42.7055 49.8021 42.9519 49.8021 43.2088C49.8021 43.4658 49.7001 43.7122 49.5185 43.8939L44.6373 48.7749C44.4556 48.9565 44.2092 49.0586 43.9523 49.0586C43.6954 49.0586 43.4491 48.9565 43.2674 48.7749L41.3668 46.8745C39.7609 47.8514 38.0142 48.5754 36.1881 49.021V51.7072C36.1881 51.9641 36.086 52.2105 35.9044 52.3922C35.7227 52.5739 35.4763 52.6759 35.2194 52.6759H28.3165C28.0596 52.6759 27.8132 52.5739 27.6315 52.3922C27.4498 52.2105 27.3478 51.9641 27.3478 51.7072V49.021C25.5217 48.5753 23.7751 47.8512 22.1693 46.8742L20.2686 48.7748C20.1787 48.8648 20.0719 48.9362 19.9544 48.9849C19.8369 49.0337 19.7109 49.0587 19.5836 49.0588C19.4564 49.0588 19.3304 49.0337 19.2129 48.985C19.0953 48.9363 18.9885 48.8649 18.8986 48.7749L14.0175 43.8937C13.9276 43.8038 13.8562 43.697 13.8075 43.5795C13.7588 43.4619 13.7338 43.3359 13.7338 43.2087C13.7338 43.0815 13.7588 42.9555 13.8075 42.838C13.8562 42.7204 13.9276 42.6136 14.0175 42.5237L15.9181 40.6232C14.9411 39.0174 14.2171 37.2708 13.7716 35.4447H11.0855C10.8286 35.4447 10.5822 35.3426 10.4005 35.1609C10.2188 34.9793 10.1167 34.7328 10.1167 34.4759V27.5731C10.1167 27.3162 10.2188 27.0698 10.4005 26.8881C10.5822 26.7064 10.8286 26.6043 11.0855 26.6043H13.7717C14.2173 24.7782 14.9414 23.0316 15.9183 21.4258L14.0178 19.5252C13.8362 19.3435 13.7341 19.0971 13.7341 18.8402C13.7341 18.5833 13.8362 18.3369 14.0178 18.1551L18.8989 13.2742C19.0807 13.0926 19.327 12.9906 19.5839 12.9906C19.8408 12.9906 20.0872 13.0926 20.2689 13.2742L22.1693 15.1745C23.7751 14.1975 25.5218 13.4735 27.3479 13.0279V10.3419C27.3479 10.085 27.45 9.8386 27.6316 9.65693C27.8133 9.47525 28.0597 9.37319 28.3167 9.37319H35.2195C35.4764 9.37319 35.7228 9.47525 35.9045 9.65693C36.0862 9.8386 36.1882 10.085 36.1882 10.3419V13.0279C38.0144 13.4736 39.7611 14.1976 41.3669 15.1747L43.2674 13.2742C43.4491 13.0926 43.6955 12.9906 43.9523 12.9906C44.2092 12.9906 44.4556 13.0926 44.6373 13.2742L49.5182 18.1553C49.6082 18.2452 49.6796 18.352 49.7282 18.4696C49.7769 18.5871 49.802 18.7131 49.802 18.8403C49.802 18.9675 49.7769 19.0935 49.7282 19.211C49.6796 19.3286 49.6082 19.4354 49.5182 19.5253L47.618 21.4254C48.595 23.0314 49.319 24.7781 49.7647 26.6043H52.4508C52.7077 26.6043 52.9541 26.7064 53.1358 26.8881C53.3174 27.0698 53.4195 27.3162 53.4195 27.5731V34.4759C53.4195 34.7328 53.3174 34.9793 53.1358 35.1609C52.9541 35.3426 52.7077 35.4447 52.4508 35.4447H49.7647ZM48.9874 33.5072H51.4819V28.5418H48.9874C48.7633 28.5418 48.5462 28.4642 48.373 28.322C48.1998 28.1799 48.0812 27.9822 48.0374 27.7625C47.6128 25.6339 46.7853 23.6372 45.5777 21.8279C45.4533 21.6416 45.3974 21.4179 45.4194 21.1949C45.4414 20.972 45.54 20.7635 45.6984 20.6051L47.4634 18.8401L43.9524 15.3291L42.1873 17.0941C42.029 17.2526 41.8205 17.3512 41.5976 17.3732C41.3746 17.3952 41.151 17.3393 40.9647 17.2149C39.1541 16.0067 37.1575 15.1791 35.0301 14.7552C34.8103 14.7114 34.6126 14.5928 34.4705 14.4195C34.3284 14.2463 34.2507 14.0292 34.2507 13.8051V11.3106H29.2854V13.8051C29.2854 14.0291 29.2077 14.2462 29.0656 14.4195C28.9236 14.5927 28.7259 14.7113 28.5062 14.7552C26.3773 15.1799 24.3809 16.0074 22.5718 17.2149C22.3855 17.3392 22.1618 17.3952 21.9389 17.3732C21.7159 17.3512 21.5075 17.2526 21.349 17.0942L19.584 15.3292L16.0729 18.8401L17.838 20.6052C17.9964 20.7637 18.095 20.9721 18.1171 21.195C18.1391 21.418 18.0832 21.6417 17.9589 21.828C16.7507 23.6385 15.9232 25.6351 15.4992 27.7624C15.4555 27.9821 15.3369 28.1799 15.1636 28.322C14.9904 28.4642 14.7732 28.5418 14.5491 28.5418H12.0542V33.5072H14.5491C14.7732 33.5072 14.9903 33.5848 15.1636 33.7269C15.3368 33.869 15.4554 34.0668 15.4992 34.2865C15.9237 36.415 16.7512 38.4115 17.9589 40.2207C18.0833 40.4071 18.1392 40.6308 18.1172 40.8538C18.0952 41.0768 17.9966 41.2852 17.8382 41.4437L16.0729 43.2088L19.5839 46.72L21.349 44.9546C21.5075 44.7962 21.7159 44.6976 21.9388 44.6756C22.1618 44.6535 22.3855 44.7095 22.5718 44.8338C24.3822 46.0419 26.3788 46.8696 28.5062 47.2936C28.7259 47.3374 28.9237 47.456 29.0658 47.6292C29.2079 47.8025 29.2855 48.0196 29.2855 48.2437V50.7384H34.2509V48.2437C34.2508 48.0196 34.3285 47.8025 34.4706 47.6292C34.6127 47.456 34.8105 47.3374 35.0302 47.2936C37.1588 46.8691 39.1554 46.0416 40.9645 44.8339C41.1509 44.7097 41.3746 44.6538 41.5975 44.6758C41.8204 44.6978 42.0289 44.7963 42.1873 44.9546L43.9525 46.7198L47.4636 43.2088L45.6984 41.4438C45.5401 41.2853 45.4415 41.0769 45.4194 40.854C45.3974 40.631 45.4533 40.4073 45.5776 40.221C46.7858 38.4104 47.6134 36.4137 48.0374 34.2865C48.0811 34.0668 48.1997 33.869 48.3729 33.7269C48.5462 33.5848 48.7633 33.5071 48.9874 33.5072ZM44.8755 31.0245C44.8755 38.252 38.9955 44.1319 31.7681 44.1319C24.5406 44.1319 18.6606 38.252 18.6606 31.0245C18.6606 23.797 24.5406 17.9171 31.7681 17.9171C38.9955 17.9171 44.8755 23.797 44.8755 31.0245ZM42.938 31.0245C42.938 24.8654 37.9273 19.8546 31.7681 19.8546C25.6089 19.8546 20.5981 24.8654 20.5981 31.0245C20.5981 37.1836 25.6089 42.1944 31.7681 42.1944C37.9273 42.1944 42.938 37.1836 42.938 31.0245ZM22.4199 27.758C22.24 27.94 22.1395 28.1859 22.1403 28.4418C22.141 28.6977 22.243 28.9429 22.424 29.1238C22.6049 29.3048 22.8501 29.4068 23.106 29.4076C23.3619 29.4084 23.6077 29.3079 23.7898 29.1281C28.189 24.7287 35.3469 24.7287 39.7462 29.1281C39.9354 29.3172 40.1832 29.4118 40.4312 29.4118C40.6792 29.4118 40.9271 29.3172 41.1163 29.1281C41.2062 29.0381 41.2776 28.9313 41.3263 28.8138C41.375 28.6962 41.4 28.5703 41.4 28.443C41.4 28.3158 41.375 28.1898 41.3263 28.0723C41.2776 27.9548 41.2062 27.848 41.1163 27.758C35.9617 22.6035 27.5743 22.6035 22.4199 27.758ZM24.73 30.0683C24.5501 30.2504 24.4496 30.4962 24.4504 30.7521C24.4511 31.008 24.5531 31.2532 24.7341 31.4342C24.915 31.6152 25.1602 31.7172 25.4161 31.718C25.672 31.7188 25.9179 31.6182 26.0999 31.4384C29.2253 28.3129 34.3105 28.3129 37.4359 31.4384C37.625 31.6276 37.8729 31.7221 38.1209 31.7221C38.3689 31.7221 38.6168 31.6276 38.8059 31.4384C38.8959 31.3484 38.9672 31.2417 39.0159 31.1241C39.0646 31.0066 39.0897 30.8806 39.0897 30.7534C39.0897 30.6262 39.0646 30.5002 39.0159 30.3826C38.9672 30.2651 38.8959 30.1583 38.8059 30.0683C34.9252 26.1877 28.6108 26.1877 24.73 30.0683ZM27.0402 32.3785C26.8603 32.5605 26.7598 32.8063 26.7606 33.0622C26.7613 33.3181 26.8633 33.5633 27.0443 33.7443C27.2252 33.9253 27.4704 34.0273 27.7263 34.0281C27.9823 34.0289 28.2281 33.9284 28.4101 33.7485C30.2617 31.8969 33.2742 31.8969 35.1258 33.7485C35.3149 33.9377 35.5628 34.0322 35.8108 34.0322C36.0588 34.0322 36.3067 33.9377 36.4958 33.7485C36.5858 33.6586 36.6571 33.5518 36.7058 33.4342C36.7545 33.3167 36.7796 33.1907 36.7796 33.0635C36.7796 32.9363 36.7545 32.8103 36.7058 32.6927C36.6571 32.5752 36.5858 32.4684 36.4958 32.3785C33.8889 29.7715 29.6471 29.7715 27.0402 32.3785ZM34.4532 36.3725C34.4532 37.8531 33.2486 39.0576 31.7679 39.0576C30.2873 39.0576 29.0827 37.8531 29.0827 36.3725C29.0827 34.8918 30.2873 33.6872 31.7679 33.6872C33.2486 33.6872 34.4532 34.8919 34.4532 36.3725ZM32.5157 36.3725C32.5157 35.9602 32.1803 35.6247 31.7679 35.6247C31.3556 35.6247 31.0202 35.9602 31.0202 36.3725C31.0202 36.7847 31.3556 37.1201 31.7679 37.1201C32.1803 37.1201 32.5157 36.7847 32.5157 36.3725Z" fill="#2166F3"/>
</g>
<defs>
<clipPath id="clip0_501_131">
<rect width="62" height="62" fill="white" transform="translate(0.768066 0.0245056)"/>
</clipPath>
</defs>
</svg>
