<svg width="63" height="63" viewBox="0 0 63 63" fill="none" xmlns="http://www.w3.org/2000/svg">
<path d="M43.3283 10.5151L46.6889 4.69422C46.7442 4.59704 46.8181 4.51175 46.9064 4.44325C46.9948 4.37476 47.0958 4.32442 47.2037 4.29513C47.3116 4.26584 47.4242 4.25818 47.535 4.27259C47.6459 4.287 47.7528 4.32319 47.8496 4.37909C47.9464 4.43499 48.0312 4.50948 48.0991 4.59828C48.167 4.68708 48.2167 4.78844 48.2453 4.89651C48.2739 5.00459 48.2808 5.11725 48.2656 5.22801C48.2505 5.33877 48.2136 5.44544 48.157 5.54187L44.7965 11.3627C44.6832 11.5558 44.4983 11.6963 44.2819 11.7535C44.0655 11.8107 43.8352 11.78 43.6414 11.6681C43.4475 11.5562 43.3058 11.3721 43.2472 11.1561C43.1885 10.9401 43.2177 10.7097 43.3283 10.5151ZM56.7203 17.7607C56.6079 17.566 56.4228 17.424 56.2056 17.3658C55.9885 17.3076 55.7571 17.3381 55.5624 17.4505L52.0628 19.4712C51.9656 19.5264 51.8803 19.6003 51.8118 19.6887C51.7434 19.777 51.693 19.8781 51.6637 19.986C51.6344 20.0938 51.6268 20.2065 51.6412 20.3173C51.6556 20.4282 51.6918 20.5351 51.7477 20.6319C51.8036 20.7287 51.8781 20.8135 51.9669 20.8814C52.0557 20.9493 52.157 20.999 52.2651 21.0275C52.3732 21.0561 52.4858 21.063 52.5966 21.0479C52.7074 21.0327 52.814 20.9958 52.9105 20.9393L56.4101 18.9186C56.6048 18.8062 56.7468 18.6211 56.805 18.4039C56.8632 18.1868 56.8327 17.9554 56.7203 17.7607ZM60.9102 31.151H55.7152C55.4904 31.151 55.2748 31.2403 55.1158 31.3993C54.9569 31.5583 54.8676 31.7739 54.8676 31.9987C54.8676 32.2235 54.9569 32.4391 55.1158 32.5981C55.2748 32.757 55.4904 32.8463 55.7152 32.8463H60.9102C61.135 32.8463 61.3506 32.757 61.5095 32.5981C61.6685 32.4391 61.7578 32.2235 61.7578 31.9987C61.7578 31.7739 61.6685 31.5583 61.5095 31.3993C61.3506 31.2403 61.135 31.151 60.9102 31.151ZM31.8477 8.83829C32.0725 8.83829 32.2881 8.74898 32.447 8.59002C32.606 8.43105 32.6953 8.21544 32.6953 7.99063V3.91898C32.6953 3.69416 32.606 3.47856 32.447 3.31959C32.2881 3.16063 32.0725 3.07132 31.8477 3.07132C31.6228 3.07132 31.4072 3.16063 31.2483 3.31959C31.0893 3.47856 31 3.69416 31 3.91898V7.99063C31 8.21544 31.0893 8.43105 31.2483 8.59002C31.4072 8.74898 31.6228 8.83829 31.8477 8.83829ZM18.8989 11.3627C18.9541 11.4599 19.028 11.5452 19.1164 11.6137C19.2047 11.6822 19.3058 11.7325 19.4136 11.7618C19.5215 11.7911 19.6341 11.7988 19.745 11.7844C19.8559 11.7699 19.9628 11.7338 20.0596 11.6779C20.1564 11.622 20.2412 11.5475 20.3091 11.4587C20.377 11.3699 20.4267 11.2685 20.4552 11.1604C20.4838 11.0524 20.4907 10.9397 20.4756 10.8289C20.4604 10.7182 20.4235 10.6115 20.367 10.5151L17.0064 4.69422C16.8932 4.50112 16.7082 4.36063 16.4918 4.30342C16.2754 4.2462 16.0452 4.27691 15.8513 4.38883C15.6575 4.50075 15.5158 4.6848 15.4571 4.90082C15.3985 5.11684 15.4276 5.34729 15.5383 5.54187L18.8989 11.3627ZM11.6332 19.4712L8.13362 17.4505C8.03719 17.3939 7.93052 17.357 7.81976 17.3419C7.709 17.3267 7.59634 17.3337 7.48827 17.3622C7.38019 17.3908 7.27883 17.4405 7.19003 17.5084C7.10123 17.5763 7.02674 17.6611 6.97084 17.7579C6.91495 17.8547 6.87875 17.9616 6.86434 18.0725C6.84993 18.1833 6.85759 18.2959 6.88688 18.4038C6.91617 18.5117 6.96651 18.6127 7.03501 18.7011C7.1035 18.7894 7.18879 18.8634 7.28597 18.9186L10.7856 20.9393C10.9802 21.0499 11.2106 21.0791 11.4266 21.0205C11.6426 20.9618 11.8267 20.8201 11.9386 20.6263C12.0505 20.4324 12.0812 20.2022 12.024 19.9858C11.9668 19.7694 11.8263 19.5844 11.6332 19.4712ZM7.98008 31.151H2.78516C2.56034 31.151 2.34474 31.2403 2.18577 31.3993C2.02681 31.5583 1.9375 31.7739 1.9375 31.9987C1.9375 32.2235 2.02681 32.4391 2.18577 32.5981C2.34474 32.757 2.56034 32.8463 2.78516 32.8463H7.98008C8.20489 32.8463 8.4205 32.757 8.57946 32.5981C8.73843 32.4391 8.82773 32.2235 8.82773 31.9987C8.82773 31.7739 8.73843 31.5583 8.57946 31.3993C8.4205 31.2403 8.20489 31.151 7.98008 31.151ZM48.8513 29.8311C48.8526 32.6964 48.1314 35.5157 46.7543 38.0284C45.3773 40.5411 43.3889 42.666 40.973 44.2066V48.9565C40.9717 49.9176 40.6608 50.8527 40.0863 51.6232C39.5119 52.3937 38.7044 52.9586 37.7837 53.2342V56.6067C37.7828 57.3478 37.4881 58.0582 36.9641 58.5822C36.4401 59.1061 35.7297 59.4009 34.9887 59.4017H28.6094C27.8684 59.4008 27.158 59.1061 26.634 58.5821C26.1101 58.0581 25.8154 57.3477 25.8145 56.6067V53.2342C24.8938 52.9586 24.0863 52.3937 23.5118 51.6232C22.9373 50.8527 22.6264 49.9176 22.625 48.9565V44.2066C20.2092 42.666 18.2208 40.5411 16.8437 38.0284C15.4667 35.5157 14.7455 32.6964 14.7468 29.8311C14.7468 20.4285 22.3964 12.7789 31.799 12.7789C41.2015 12.7789 48.851 20.4285 48.851 29.8311H48.8513ZM32.6853 14.5006V17.7951C33.3311 17.4981 34.0413 17.3683 34.7504 17.4176C35.4595 17.467 36.1449 17.6938 36.7434 18.0774C37.3419 18.4609 37.8344 18.9888 38.1754 19.6125C38.5165 20.2361 38.6953 20.9356 38.6953 21.6464C38.6953 22.3573 38.5165 23.0567 38.1754 23.6804C37.8344 24.3041 37.3419 24.832 36.7434 25.2155C36.1449 25.599 35.4595 25.8259 34.7504 25.8752C34.0413 25.9245 33.3311 25.7947 32.6853 25.4978V28.6081H37.6679C37.8453 28.6081 38.0182 28.6637 38.1622 28.7671C38.3063 28.8706 38.4143 29.0166 38.471 29.1846C38.5277 29.3527 38.5303 29.5343 38.4784 29.7039C38.4265 29.8734 38.3227 30.0225 38.1816 30.13C37.7579 30.4522 37.446 30.8992 37.2898 31.408C37.1336 31.9169 37.1411 32.4619 37.3111 32.9663C37.4811 33.4707 37.8051 33.9091 38.2374 34.2196C38.6697 34.5301 39.1886 34.6971 39.7209 34.6971C40.2531 34.6971 40.772 34.5301 41.2043 34.2196C41.6367 33.9091 41.9607 33.4707 42.1307 32.9663C42.3007 32.4619 42.3081 31.9169 42.1519 31.408C41.9958 30.8992 41.6838 30.4522 41.2602 30.13C41.1191 30.0225 41.0154 29.8734 40.9635 29.7039C40.9116 29.5343 40.9142 29.3527 40.9709 29.1847C41.0276 29.0167 41.1356 28.8707 41.2796 28.7673C41.4237 28.6639 41.5965 28.6082 41.7738 28.6082H47.1069C46.8068 24.9135 45.1823 21.4515 42.5325 18.8593C39.8827 16.2672 36.3858 14.7193 32.6854 14.5005L32.6853 14.5006ZM16.4907 28.6081H20.0993C19.8024 27.9622 19.6726 27.2521 19.722 26.543C19.7714 25.834 19.9983 25.1487 20.3818 24.5502C20.7653 23.9518 21.2932 23.4594 21.9168 23.1184C22.5405 22.7773 23.2399 22.5986 23.9506 22.5986C24.6614 22.5986 25.3608 22.7773 25.9845 23.1184C26.6081 23.4594 27.136 23.9518 27.5195 24.5502C27.903 25.1487 28.1299 25.834 28.1793 26.543C28.2287 27.2521 28.0989 27.9622 27.802 28.6081H30.9898V23.7974C30.9898 23.6227 31.0438 23.4522 31.1444 23.3094C31.245 23.1665 31.3873 23.0582 31.5517 22.9994C31.7162 22.9405 31.8949 22.9338 32.0633 22.9804C32.2317 23.0269 32.3816 23.1243 32.4925 23.2593C32.8251 23.6648 33.2749 23.9576 33.7803 24.0976C34.2857 24.2375 34.822 24.2179 35.3158 24.0412C35.8096 23.8646 36.2368 23.5397 36.5388 23.1109C36.8408 22.6822 37.0029 22.1706 37.0029 21.6461C37.0029 21.1217 36.8408 20.6101 36.5388 20.1813C36.2368 19.7526 35.8096 19.4276 35.3158 19.251C34.822 19.0744 34.2857 19.0547 33.7803 19.1947C33.2749 19.3347 32.8251 19.6274 32.4925 20.0329C32.3816 20.1679 32.2317 20.2654 32.0633 20.3119C31.8949 20.3584 31.7162 20.3518 31.5517 20.2929C31.3872 20.234 31.2449 20.1257 31.1444 19.9828C31.0438 19.84 30.9898 19.6695 30.9898 19.4948V14.4955C27.275 14.6964 23.7589 16.237 21.093 18.8318C18.4271 21.4265 16.792 24.8997 16.4908 28.6077L16.4907 28.6081ZM23.7146 42.8875H30.99V41.2332C30.3437 41.5453 29.6289 41.6882 28.9124 41.6486C28.1958 41.609 27.5011 41.3881 26.8932 41.0066C26.2854 40.6252 25.7843 40.0956 25.437 39.4677C25.0897 38.8397 24.9075 38.1338 24.9075 37.4162C24.9075 36.6985 25.0897 35.9927 25.437 35.3647C25.7843 34.7367 26.2854 34.2072 26.8932 33.8257C27.5011 33.4443 28.1958 33.2234 28.9124 33.1837C29.6289 33.1441 30.3437 33.2871 30.99 33.5992V30.303H26.1021C25.9274 30.303 25.757 30.249 25.6141 30.1484C25.4713 30.0478 25.363 29.9056 25.3041 29.7411C25.2452 29.5766 25.2386 29.3979 25.2851 29.2295C25.3317 29.0611 25.4291 28.9112 25.5641 28.8004C25.9695 28.4678 26.2623 28.018 26.4022 27.5126C26.5422 27.0072 26.5225 26.4709 26.3459 25.9771C26.1693 25.4834 25.8443 25.0563 25.4156 24.7543C24.9869 24.4523 24.4753 24.2902 23.9509 24.2902C23.4265 24.2902 22.9149 24.4523 22.4862 24.7543C22.0574 25.0563 21.7325 25.4834 21.5559 25.9771C21.3793 26.4709 21.3596 27.0072 21.4996 27.5126C21.6395 28.018 21.9322 28.4678 22.3377 28.8004C22.4727 28.9113 22.5701 29.0612 22.6167 29.2296C22.6632 29.398 22.6566 29.5767 22.5977 29.7411C22.5387 29.9056 22.4304 30.0479 22.2876 30.1485C22.1447 30.249 21.9743 30.303 21.7995 30.303H16.4496C16.5168 32.8397 17.2166 35.3194 18.4853 37.517C19.754 39.7146 21.5516 41.5606 23.7148 42.8872L23.7146 42.8875ZM36.088 56.6075V53.4209H27.5097V56.607C27.51 56.8985 27.6259 57.178 27.8321 57.3842C28.0382 57.5904 28.3177 57.7063 28.6092 57.7066H34.9883C35.28 57.7064 35.5595 57.5904 35.7657 57.3842C35.9719 57.178 36.0879 56.8984 36.0881 56.6067L36.088 56.6075ZM39.2774 48.9573V44.5824H24.3203V48.9565C24.3211 49.6906 24.613 50.3943 25.132 50.9134C25.651 51.4325 26.3546 51.7246 27.0887 51.7256H36.5082C37.2424 51.7249 37.9463 51.4329 38.4655 50.9138C38.9847 50.3946 39.2767 49.6907 39.2775 48.9565L39.2774 48.9573ZM47.1485 30.3037H43.5379C43.8501 30.95 43.9931 31.6649 43.9535 32.3814C43.914 33.098 43.6931 33.7928 43.3117 34.4008C42.9302 35.0087 42.4006 35.5098 41.7726 35.8571C41.1446 36.2045 40.4387 36.3867 39.721 36.3867C39.0033 36.3867 38.2974 36.2045 37.6694 35.8571C37.0413 35.5098 36.5118 35.0087 36.1303 34.4008C35.7489 33.7928 35.528 33.098 35.4884 32.3814C35.4489 31.6649 35.5919 30.95 35.9041 30.3037H32.6854V35.364C32.6853 35.5413 32.6297 35.7142 32.5262 35.8583C32.4228 36.0023 32.2768 36.1103 32.1087 36.167C31.9407 36.2237 31.7591 36.2263 31.5895 36.1743C31.42 36.1224 31.271 36.0186 31.1635 35.8776C30.8413 35.4537 30.3941 35.1416 29.8851 34.9854C29.3762 34.8291 28.831 34.8365 28.3264 35.0065C27.8218 35.1765 27.3833 35.5006 27.0727 35.933C26.7621 36.3654 26.595 36.8845 26.595 37.4169C26.595 37.9493 26.7621 38.4684 27.0727 38.9008C27.3833 39.3332 27.8218 39.6573 28.3264 39.8273C28.831 39.9973 29.3762 40.0047 29.8851 39.8484C30.3941 39.6922 30.8413 39.3801 31.1635 38.9562C31.271 38.8152 31.42 38.7114 31.5896 38.6594C31.7592 38.6075 31.9408 38.6101 32.1088 38.6668C32.2768 38.7235 32.4229 38.8315 32.5263 38.9756C32.6297 39.1197 32.6854 39.2926 32.6854 39.4699V42.8878H39.8832C42.0464 41.5611 43.844 39.7151 45.1127 37.5173C46.3815 35.3196 47.0811 32.8398 47.1482 30.303L47.1485 30.3037Z" fill="black"/>
</svg>
