<svg width="51" height="50" viewBox="0 0 51 50" fill="none" xmlns="http://www.w3.org/2000/svg">
<g clip-path="url(#clip0_486_154)">
<path d="M37.0686 40.7536H27.6529L26.6678 39.7685L29.1399 37.2963C29.2733 37.1635 29.3711 36.9991 29.424 36.8185C29.477 36.6378 29.4836 36.4467 29.4431 36.2629C29.4034 36.0789 29.318 35.908 29.1946 35.7658C29.0713 35.6237 28.9141 35.5149 28.7376 35.4497L15.8334 30.6472C15.3805 30.4785 14.8864 30.586 14.5445 30.9281C14.2026 31.27 14.095 31.764 14.2637 32.217L17.4407 40.7536H4.50303C3.23936 40.7536 2.21143 39.7257 2.21143 38.4621V22.6621C2.21143 22.2575 1.88359 21.9297 1.479 21.9297C1.07441 21.9297 0.746582 22.2575 0.746582 22.6621V38.4621C0.746582 40.5334 2.43174 42.2186 4.50303 42.2186H17.9859L19.0661 45.121C19.1313 45.2976 19.2401 45.4549 19.3822 45.5782C19.5244 45.7016 19.6955 45.7871 19.8795 45.8268C20.0633 45.8673 20.2544 45.8608 20.435 45.8078C20.6156 45.7548 20.7799 45.6571 20.9127 45.5236L23.3849 43.0516L25.9015 45.5682C26.0147 45.6815 26.1493 45.7714 26.2974 45.8326C26.4455 45.8938 26.6042 45.9251 26.7645 45.9248C27.077 45.9248 27.3896 45.8059 27.6276 45.5681L29.1844 44.0114C29.6602 43.5354 29.6601 42.761 29.1843 42.2852H29.1842L29.1178 42.2188H37.0686C37.4731 42.2188 37.801 41.8909 37.801 41.4863C37.801 41.0817 37.4731 40.7536 37.0686 40.7536ZM26.7645 44.3593L23.9028 41.4976C23.8349 41.4295 23.7541 41.3755 23.6652 41.3387C23.5763 41.3019 23.4811 41.283 23.3849 41.2831C23.2887 41.283 23.1934 41.3019 23.1045 41.3387C23.0156 41.3755 22.9349 41.4295 22.8669 41.4976L20.2532 44.1112L15.8226 32.2062L27.7275 36.6369L25.1139 39.2506C25.0459 39.3186 24.9919 39.3994 24.9551 39.4882C24.9183 39.5771 24.8994 39.6723 24.8994 39.7685C24.8994 39.8647 24.9183 39.96 24.9552 40.0488C24.992 40.1377 25.0459 40.2184 25.114 40.2864L27.9757 43.148L26.7645 44.3593Z" fill="black"/>
<path d="M46.9901 4.07538H44.4294C44.0248 4.07538 43.697 4.40321 43.697 4.8078C43.697 5.21239 44.0248 5.54022 44.4294 5.54022H46.9901C48.2537 5.54022 49.2817 6.56815 49.2817 7.83182V12.4208H2.21143V7.83182C2.21143 6.56825 3.23936 5.54022 4.50303 5.54022H41.042C41.4466 5.54022 41.7744 5.21239 41.7744 4.8078C41.7744 4.40321 41.4466 4.07538 41.042 4.07538H4.50303C2.43174 4.07538 0.746582 5.76053 0.746582 7.83182V19.3662C0.746582 19.7708 1.07441 20.0986 1.479 20.0986C1.88359 20.0986 2.21143 19.7708 2.21143 19.3662V13.8857H49.2817V38.4621C49.2817 39.7257 48.2538 40.7537 46.9901 40.7537H40.5781C40.1735 40.7537 39.8457 41.0815 39.8457 41.4861C39.8457 41.8907 40.1735 42.2185 40.5781 42.2185H46.9901C49.0614 42.2185 50.7466 40.5334 50.7466 38.4621V7.83182C50.7466 5.76053 49.0614 4.07538 46.9901 4.07538Z" fill="black"/>
<path d="M5.6001 8.98054C5.6001 9.72986 6.20752 10.3373 6.95674 10.3373C7.70596 10.3373 8.31338 9.72986 8.31338 8.98054C8.31338 8.23123 7.70596 7.6239 6.95674 7.6239C6.20752 7.6239 5.6001 8.23123 5.6001 8.98054ZM9.77353 8.98054C9.77353 9.72986 10.381 10.3373 11.1302 10.3373C11.8794 10.3373 12.4868 9.72986 12.4868 8.98054C12.4868 8.23123 11.8794 7.6239 11.1302 7.6239C10.381 7.6239 9.77353 8.23123 9.77353 8.98054ZM13.947 8.98054C13.947 9.72986 14.5544 10.3373 15.3036 10.3373C16.0528 10.3373 16.6603 9.72986 16.6603 8.98054C16.6603 8.23123 16.0528 7.6239 15.3036 7.6239C14.5544 7.6239 13.947 8.23123 13.947 8.98054ZM9.7124 30.0107H9.7166C10.0262 30.0107 10.3025 29.816 10.4064 29.5242L12.2207 24.4332L13.9543 29.5149C14.0035 29.6591 14.0964 29.7843 14.2201 29.8732C14.3438 29.962 14.4921 30.0102 14.6444 30.0108H14.6475C14.7993 30.0108 14.9473 29.9636 15.0712 29.8758C15.195 29.788 15.2885 29.6639 15.3387 29.5206L17.798 22.5044C17.8623 22.321 17.8511 22.1197 17.7669 21.9446C17.6827 21.7696 17.5324 21.6351 17.349 21.5709C17.1657 21.5066 16.9643 21.5178 16.7893 21.6021C16.6142 21.6863 16.4798 21.8366 16.4155 22.0199L14.6567 27.0374L12.929 21.9724C12.7331 21.3288 11.7501 21.3228 11.5459 21.9631L9.7291 27.0612L8.00098 22.0322C7.96977 21.9412 7.92093 21.8573 7.85725 21.7852C7.79358 21.7131 7.71631 21.6542 7.62988 21.612C7.54344 21.5698 7.44953 21.545 7.35352 21.5391C7.2575 21.5332 7.16127 21.5463 7.07031 21.5776C6.97935 21.6089 6.89544 21.6577 6.82336 21.7214C6.75128 21.7851 6.69246 21.8624 6.65025 21.9488C6.60803 22.0352 6.58326 22.1291 6.57733 22.2251C6.57141 22.3211 6.58445 22.4173 6.61572 22.5083L9.02393 29.5163C9.07327 29.6599 9.16603 29.7846 9.28937 29.8732C9.41272 29.9618 9.56055 30.0098 9.7124 30.0107ZM23.2639 30.0107H23.2681C23.5776 30.0107 23.854 29.816 23.9579 29.5242L25.7722 24.4332L27.5058 29.5149C27.555 29.6591 27.6479 29.7843 27.7716 29.8732C27.8953 29.962 28.0436 30.0102 28.1959 30.0108H28.1989C28.3507 30.0108 28.4988 29.9636 28.6226 29.8758C28.7465 29.788 28.8399 29.6639 28.8901 29.5206L31.3495 22.5044C31.4138 22.321 31.4025 22.1197 31.3183 21.9446C31.2341 21.7696 31.0838 21.6351 30.9005 21.5709C30.7172 21.5066 30.5158 21.5178 30.3407 21.6021C30.1657 21.6863 30.0312 21.8366 29.967 22.0199L28.2082 27.0374L26.4805 21.9724C26.2845 21.3287 25.3016 21.3228 25.0974 21.9631L23.2806 27.0612L21.5524 22.0323C21.421 21.6497 21.0042 21.4459 20.6218 21.5777C20.5308 21.609 20.4469 21.6578 20.3748 21.7215C20.3027 21.7852 20.2439 21.8625 20.2017 21.9489C20.1595 22.0353 20.1347 22.1292 20.1288 22.2252C20.1229 22.3212 20.1359 22.4174 20.1672 22.5084L22.5754 29.5164C22.6248 29.66 22.7176 29.7846 22.8409 29.8732C22.9642 29.9618 23.112 30.0098 23.2639 30.0107ZM36.5956 30.0107H36.5997C36.9093 30.0107 37.1856 29.816 37.2896 29.5242L39.1038 24.4332L40.8374 29.5149C40.8866 29.6591 40.9795 29.7843 41.1032 29.8732C41.2269 29.962 41.3752 30.0102 41.5275 30.0108H41.5306C41.6824 30.0108 41.8304 29.9636 41.9543 29.8758C42.0781 29.788 42.1716 29.6639 42.2218 29.5206L44.6811 22.5044C44.7453 22.321 44.7341 22.1197 44.6499 21.9446C44.5657 21.7696 44.4154 21.6351 44.232 21.5709C44.0487 21.5066 43.8474 21.5178 43.6723 21.6021C43.4972 21.6863 43.3628 21.8366 43.2985 22.0199L41.5398 27.0374L39.8121 21.9724C39.6163 21.3288 38.6331 21.3228 38.429 21.9631L36.6122 27.0612L34.884 22.0323C34.8528 21.9413 34.8039 21.8574 34.7402 21.7853C34.6766 21.7132 34.5993 21.6543 34.5129 21.6121C34.4264 21.5699 34.3325 21.5451 34.2365 21.5392C34.1405 21.5333 34.0443 21.5464 33.9533 21.5777C33.8624 21.609 33.7784 21.6578 33.7064 21.7215C33.6343 21.7852 33.5755 21.8625 33.5333 21.9489C33.491 22.0353 33.4663 22.1292 33.4603 22.2252C33.4544 22.3212 33.4675 22.4174 33.4987 22.5084L35.907 29.5164C35.9564 29.66 36.0492 29.7847 36.1726 29.8732C36.2959 29.9618 36.4438 30.0098 36.5956 30.0107Z" fill="black"/>
</g>
<defs>
<clipPath id="clip0_486_154">
<rect width="50" height="50" fill="white" transform="translate(0.746582)"/>
</clipPath>
</defs>
</svg>
