<svg width="63" height="62" viewBox="0 0 63 62" fill="none" xmlns="http://www.w3.org/2000/svg">
<g clip-path="url(#clip0_492_135)">
<path fill-rule="evenodd" clip-rule="evenodd" d="M31.7424 39.6012C21.0879 39.6012 12.4126 30.9259 12.4126 20.2627C12.4126 9.60821 21.0879 0.932922 31.7424 0.932922C42.4056 0.932922 51.0809 9.60821 51.0809 20.2627C51.0809 30.9259 42.4056 39.6012 31.7424 39.6012ZM31.7424 2.38026C21.8813 2.38026 13.8599 10.4016 13.8599 20.2627C13.8599 30.1238 21.8813 38.1538 31.7424 38.1538C41.6121 38.1538 49.6335 30.1238 49.6335 20.2627C49.6335 10.4016 41.6121 2.38026 31.7424 2.38026Z" fill="#4981F5"/>
<path fill-rule="evenodd" clip-rule="evenodd" d="M31.7423 39.6012C28.8301 39.6012 26.1273 37.5261 24.1394 33.7683C20.1723 26.2787 20.1723 14.2467 24.1394 6.76587C28.2634 -1.02881 35.2298 -1.02881 39.3538 6.76587C43.3209 14.2467 43.3209 26.2787 39.3538 33.7683C37.3659 37.5261 34.6631 39.6012 31.7423 39.6012ZM31.7423 2.38027C29.3969 2.38027 27.1474 4.17636 25.4211 7.44595C21.6807 14.5082 21.6807 26.0259 25.4211 33.0882C28.9958 39.8366 34.4974 39.8366 38.0722 33.0882C41.8126 26.0259 41.8126 14.5082 38.0722 7.44595C36.3458 4.17636 34.0964 2.38027 31.7423 2.38027Z" fill="#4981F5"/>
<path fill-rule="evenodd" clip-rule="evenodd" d="M31.7424 30.8474C26.6593 30.8474 21.8639 29.7924 18.2456 27.8743C10.4596 23.7502 10.4509 16.7838 18.2456 12.6511C25.7351 8.69272 37.7584 8.69272 45.248 12.6511C53.0339 16.7838 53.0339 23.7502 45.248 27.8743C41.6296 29.7924 36.8342 30.8474 31.7424 30.8474ZM31.7424 11.134C26.8947 11.134 22.3435 12.1367 18.9256 13.9415C12.1772 17.5162 12.1772 23.0178 18.9256 26.5926C25.9879 30.333 37.5056 30.333 44.5679 26.5926C51.3163 23.0178 51.3163 17.5162 44.5679 13.9415C41.1501 12.1367 36.5988 11.134 31.7424 11.134Z" fill="#4981F5"/>
<path fill-rule="evenodd" clip-rule="evenodd" d="M31.7422 39.6012C31.3499 39.6012 31.0186 39.2786 31.0186 38.8775V1.65659C31.0186 1.25552 31.3499 0.932922 31.7422 0.932922C32.1433 0.932922 32.4746 1.25552 32.4746 1.65659V38.8775C32.4746 39.2786 32.1433 39.6012 31.7422 39.6012Z" fill="#4981F5"/>
<path fill-rule="evenodd" clip-rule="evenodd" d="M50.3572 20.9951H13.1363C12.7352 20.9951 12.4126 20.6638 12.4126 20.2627C12.4126 19.8617 12.7352 19.5391 13.1363 19.5391H50.3572C50.7583 19.5391 51.0809 19.8617 51.0809 20.2627C51.0809 20.6638 50.7583 20.9951 50.3572 20.9951Z" fill="#4981F5"/>
<path fill-rule="evenodd" clip-rule="evenodd" d="M57.9687 53.9873H5.5246C2.8915 53.9873 0.755371 51.8512 0.755371 49.2181V14.2554C0.755371 11.6223 2.8915 9.47742 5.5246 9.47742H16.0832C16.4842 9.47742 16.8156 9.80873 16.8156 10.2098C16.8156 10.6109 16.4842 10.9335 16.0832 10.9335H5.5246C3.69364 10.9335 2.20271 12.4244 2.20271 14.2554V49.2181C2.20271 51.0491 3.69364 52.54 5.5246 52.54H57.9687C59.7997 52.54 61.2906 51.0491 61.2906 49.2181V14.2554C61.2906 12.4244 59.7997 10.9335 57.9687 10.9335H47.4101C47.0091 10.9335 46.6777 10.6109 46.6777 10.2098C46.6777 9.80873 47.0091 9.47742 47.4101 9.47742H57.9687C60.6018 9.47742 62.7379 11.6223 62.7379 14.2554V49.2181C62.7379 51.8512 60.6018 53.9873 57.9687 53.9873Z" fill="#4981F5"/>
<path fill-rule="evenodd" clip-rule="evenodd" d="M57.7682 43.4724H5.72514C5.32407 43.4724 5.00147 43.1498 5.00147 42.7487V13.7584C5.00147 13.3573 5.32407 13.0347 5.72514 13.0347H14.3045C14.7056 13.0347 15.0282 13.3573 15.0282 13.7584C15.0282 14.1595 14.7056 14.4908 14.3045 14.4908H6.4488V42.025H57.0445V14.4908H49.1888C48.7877 14.4908 48.4651 14.1595 48.4651 13.7584C48.4651 13.3573 48.7877 13.0347 49.1888 13.0347H57.7682C58.1692 13.0347 58.4918 13.3573 58.4918 13.7584V42.7487C58.4918 43.1498 58.1692 43.4724 57.7682 43.4724ZM62.0143 47.0297H1.47904C1.07797 47.0297 0.755371 46.6983 0.755371 46.2973C0.755371 45.8962 1.07797 45.5736 1.47904 45.5736H62.0143C62.4153 45.5736 62.7379 45.8962 62.7379 46.2973C62.7379 46.6983 62.4153 47.0297 62.0143 47.0297ZM49.2934 50.5085H47.4886C47.0875 50.5085 46.7649 50.1859 46.7649 49.7848C46.7649 49.3838 47.0875 49.0524 47.4886 49.0524H49.2934C49.6945 49.0524 50.0258 49.3838 50.0258 49.7848C50.0258 50.1859 49.6945 50.5085 49.2934 50.5085ZM53.7052 50.5085H51.9004C51.4993 50.5085 51.1767 50.1859 51.1767 49.7848C51.1767 49.3838 51.4993 49.0524 51.9004 49.0524H53.7052C54.1062 49.0524 54.4375 49.3838 54.4375 49.7848C54.4375 50.1859 54.1062 50.5085 53.7052 50.5085ZM58.1169 50.5085H56.3121C55.911 50.5085 55.5884 50.1859 55.5884 49.7848C55.5884 49.3838 55.911 49.0524 56.3121 49.0524H58.1169C58.518 49.0524 58.8493 49.3838 58.8493 49.7848C58.8493 50.1859 58.518 50.5085 58.1169 50.5085ZM38.6389 61.0758C38.3338 61.0758 38.0548 60.884 37.9501 60.5875L35.4304 53.5078C35.2996 53.1242 35.5001 52.7144 35.875 52.5749C36.25 52.4441 36.6685 52.6446 36.7992 53.0195L39.319 60.0993C39.4847 60.5788 39.1272 61.0758 38.6389 61.0758ZM24.8544 61.0758C24.3661 61.0758 24.0086 60.5788 24.1743 60.0993L26.6941 53.0195C26.8248 52.6446 27.2433 52.4441 27.6183 52.5749C27.9932 52.7144 28.1937 53.1242 28.0629 53.5078L25.5432 60.5875C25.4385 60.884 25.1595 61.0758 24.8544 61.0758Z" fill="#4981F5"/>
<path fill-rule="evenodd" clip-rule="evenodd" d="M41.3768 61.0758H22.1167C21.7157 61.0758 21.3931 60.7445 21.3931 60.3434C21.3931 59.9423 21.7157 59.6198 22.1167 59.6198H41.3768C41.7778 59.6198 42.1004 59.9423 42.1004 60.3434C42.1004 60.7445 41.7778 61.0758 41.3768 61.0758Z" fill="#4981F5"/>
</g>
<defs>
<clipPath id="clip0_492_135">
<rect width="62" height="62" fill="white" transform="translate(0.746582)"/>
</clipPath>
</defs>
</svg>
