<svg width="62" height="62" viewBox="0 0 62 62" fill="none" xmlns="http://www.w3.org/2000/svg">
<g clip-path="url(#clip0_492_149)">
<path d="M26.0091 51.1795H43.0928C43.8921 51.1906 44.6852 51.0386 45.4237 50.7326C46.1623 50.4267 46.8306 49.9734 47.388 49.4003L59.9415 36.8473C60.8259 35.9629 61.3227 34.7634 61.3227 33.5128C61.3226 32.2621 60.8258 31.0627 59.9414 30.1783C59.0571 29.294 57.8576 28.7972 56.607 28.7972C55.3563 28.7972 54.1569 29.294 53.2725 30.1784L46.3669 37.0836C46.0545 36.1881 45.4715 35.4118 44.6986 34.8621C43.9258 34.3123 43.0011 34.0164 42.0527 34.0151H30.7405C28.0566 32.3669 22.4712 32.1319 17.8485 33.499C15.5226 34.1868 12.5712 35.5359 10.9713 38.1242L10.779 37.8627C10.5711 37.581 10.26 37.3932 9.91385 37.3405C9.56769 37.2878 9.21476 37.3745 8.93246 37.5817L1.22061 43.2557C0.938776 43.4635 0.750892 43.7746 0.698179 44.1208C0.645465 44.467 0.732227 44.8199 0.939428 45.1022L12.9761 61.462C13.0787 61.6019 13.2079 61.7202 13.3564 61.8098C13.5049 61.8995 13.6698 61.9588 13.8414 61.9844C13.9082 61.9946 13.9757 61.9997 14.0433 61.9998C14.3239 61.9998 14.5971 61.9098 14.8227 61.743L22.5347 56.0689C22.8165 55.8611 23.0044 55.55 23.057 55.2038C23.1097 54.8576 23.023 54.5047 22.8157 54.2224L22.215 53.406L24.6895 51.6079C25.0687 51.3207 25.5336 51.1698 26.0091 51.1795ZM14.0684 60.4946L2.18827 44.3478L9.6876 38.8305L21.5669 54.9775L14.0684 60.4946ZM21.3541 52.236L11.9179 39.4107C13.1686 36.8663 16.0329 35.5513 18.2606 34.8926C22.9198 33.5145 28.1539 34.0131 30.1198 35.3434C30.24 35.4248 30.3818 35.4682 30.527 35.4682H42.0524C42.8787 35.4682 43.671 35.7965 44.2553 36.3807C44.8395 36.9649 45.1677 37.7573 45.1677 38.5835C45.1677 39.4097 44.8395 40.2021 44.2553 40.7863C43.671 41.3705 42.8787 41.6988 42.0524 41.6988H30.527C30.3343 41.6988 30.1495 41.7753 30.0132 41.9116C29.877 42.0478 29.8004 42.2326 29.8004 42.4253C29.8004 42.618 29.877 42.8028 30.0132 42.9391C30.1495 43.0753 30.3343 43.1519 30.527 43.1519H42.0524C43.2094 43.1504 44.3228 42.7106 45.1683 41.9209C46.0139 41.1312 46.5287 40.0504 46.6091 38.8963L54.2994 31.2059C54.9139 30.607 55.7395 30.2743 56.5975 30.2798C57.4555 30.2853 58.2768 30.6286 58.8836 31.2354C59.4903 31.8421 59.8336 32.6634 59.8391 33.5214C59.8446 34.3794 59.5119 35.2051 58.9131 35.8195L46.3604 48.373C45.9384 48.8116 45.4303 49.1583 44.868 49.3912C44.3057 49.6241 43.7013 49.7383 43.0928 49.7264H26.0091C25.2268 49.7178 24.4632 49.966 23.8353 50.4329L21.3541 52.236ZM7.28486 43.8175C7.28484 44.2233 7.40515 44.62 7.63058 44.9574C7.85602 45.2949 8.17645 45.5578 8.55135 45.7131C8.92625 45.8684 9.33879 45.9091 9.73679 45.8299C10.1348 45.7508 10.5004 45.5554 10.7873 45.2684C11.0743 44.9815 11.2697 44.6159 11.3488 44.2179C11.428 43.8199 11.3873 43.4074 11.232 43.0324C11.0767 42.6575 10.8138 42.3371 10.4763 42.1117C10.1389 41.8862 9.74223 41.7659 9.33643 41.766C8.79252 41.7666 8.27107 41.983 7.88646 42.3676C7.50186 42.7522 7.2855 43.2736 7.28486 43.8175ZM9.935 43.8175C9.93502 43.9359 9.89993 44.0517 9.83417 44.1501C9.76841 44.2486 9.67493 44.3253 9.56555 44.3706C9.45617 44.416 9.33581 44.4278 9.21969 44.4047C9.10356 44.3816 8.9969 44.3246 8.91318 44.2409C8.82946 44.1572 8.77245 44.0505 8.74936 43.9344C8.72627 43.8183 8.73813 43.6979 8.78345 43.5885C8.82877 43.4792 8.90551 43.3857 9.00396 43.3199C9.10241 43.2541 9.21816 43.2191 9.33655 43.2191C9.49521 43.2193 9.64732 43.2824 9.7595 43.3946C9.87169 43.5068 9.93481 43.6589 9.935 43.8175ZM22.6903 11.9545C22.5325 11.9933 22.3923 12.0839 22.292 12.2118C22.1917 12.3397 22.1373 12.4975 22.1373 12.66V17.9802C22.1372 18.1428 22.1917 18.3006 22.292 18.4285C22.3922 18.5564 22.5325 18.647 22.6903 18.6859L25.6146 19.4048C25.7798 19.8828 25.9739 20.3504 26.1958 20.8049L24.6354 23.3821C24.5513 23.5211 24.5162 23.6843 24.5358 23.8456C24.5554 24.0069 24.6284 24.157 24.7433 24.2719L28.5056 28.0341C28.6205 28.149 28.7707 28.222 28.932 28.2415C29.0934 28.261 29.2566 28.2259 29.3956 28.1417L31.9727 26.5818C32.4272 26.8036 32.8947 26.9977 33.3727 27.163L34.0919 30.0874C34.1307 30.2452 34.2213 30.3855 34.3492 30.4857C34.4771 30.586 34.6349 30.6405 34.7974 30.6405H40.1176C40.2801 30.6405 40.4379 30.586 40.5658 30.4857C40.6937 30.3855 40.7843 30.2452 40.8231 30.0874L41.5422 27.1631C42.0202 26.9979 42.4877 26.8038 42.9422 26.5819L45.5192 28.1422C45.6583 28.2264 45.8215 28.2615 45.9829 28.2419C46.1442 28.2224 46.2944 28.1493 46.4093 28.0344L50.1713 24.2724C50.2862 24.1575 50.3592 24.0074 50.3787 23.8461C50.3983 23.6848 50.3632 23.5216 50.2791 23.3826L48.7191 20.8054C48.941 20.3508 49.1351 19.8833 49.3004 19.4053L52.2248 18.6863C52.3826 18.6475 52.5229 18.5569 52.6231 18.429C52.7234 18.3011 52.7779 18.1432 52.7778 17.9807V12.66C52.7778 12.4975 52.7233 12.3397 52.6231 12.2118C52.5228 12.0839 52.3826 11.9933 52.2248 11.9545L49.3005 11.2353C49.1351 10.7574 48.941 10.2899 48.7193 9.83536L50.2792 7.25812C50.3634 7.11908 50.3985 6.95584 50.379 6.79449C50.3594 6.63314 50.2863 6.483 50.1714 6.36808L46.4092 2.60618C46.2942 2.49126 46.1441 2.41818 45.9827 2.39865C45.8214 2.37911 45.6582 2.41423 45.5191 2.49841L42.942 4.05834C42.4875 3.83642 42.0199 3.64231 41.5419 3.47709L40.8229 0.552672C40.784 0.39494 40.6934 0.254789 40.5655 0.154606C40.4376 0.0544238 40.2798 -1.01579e-05 40.1174 1.42182e-09H34.7971C34.6346 9.84492e-06 34.4768 0.0544959 34.3489 0.154749C34.221 0.255003 34.1304 0.395236 34.0916 0.553035L33.3726 3.47745C32.8945 3.64264 32.427 3.83675 31.9725 4.0587L29.3954 2.49841C29.2563 2.41423 29.0931 2.37911 28.9317 2.39865C28.7704 2.41818 28.6203 2.49126 28.5053 2.60618L24.7433 6.36808C24.6284 6.48299 24.5553 6.63312 24.5357 6.79447C24.5162 6.95582 24.5513 7.11907 24.6354 7.25812L26.1955 9.83536C25.9736 10.2898 25.7795 10.7574 25.6142 11.2353L22.6903 11.9545ZM27.6476 9.42824L26.1735 6.99292L29.1301 4.03642L31.5655 5.51061C31.6729 5.57566 31.7954 5.61173 31.921 5.61532C32.0465 5.61891 32.1709 5.58988 32.2819 5.53108C32.8933 5.2069 33.5339 4.94106 34.1952 4.73707C34.3151 4.70014 34.4235 4.63277 34.5097 4.54152C34.5958 4.45026 34.6569 4.33824 34.6869 4.21636L35.3667 1.45312H39.5477L40.2274 4.21612C40.2575 4.338 40.3185 4.45002 40.4047 4.54128C40.4909 4.63253 40.5992 4.6999 40.7192 4.73682C41.3805 4.94087 42.0211 5.20671 42.6325 5.53084C42.7435 5.58959 42.8679 5.61859 42.9934 5.61501C43.119 5.61142 43.2415 5.57537 43.349 5.51037L45.7843 4.03618L48.7409 6.99268L47.2667 9.42824C47.2017 9.53569 47.1656 9.65818 47.162 9.78374C47.1585 9.90929 47.1875 10.0336 47.2463 10.1446C47.5703 10.7561 47.8361 11.3967 48.0402 12.0579C48.0771 12.1779 48.1445 12.2862 48.2357 12.3724C48.327 12.4586 48.439 12.5197 48.5609 12.5497L51.3239 13.229V17.4103L48.5609 18.0896C48.439 18.1196 48.327 18.1806 48.2357 18.2668C48.1445 18.353 48.0771 18.4613 48.0402 18.5812C47.8361 19.2425 47.5703 19.883 47.2463 20.4945C47.1875 20.6055 47.1584 20.7299 47.162 20.8555C47.1656 20.981 47.2017 21.1036 47.2667 21.211L48.7409 23.6463L45.7843 26.6043L43.349 25.1301C43.2415 25.0651 43.119 25.029 42.9935 25.0255C42.8679 25.0219 42.7436 25.0509 42.6326 25.1098C42.0212 25.4338 41.3806 25.6996 40.7193 25.9036C40.5994 25.9406 40.491 26.0079 40.4048 26.0992C40.3186 26.1905 40.2576 26.3025 40.2276 26.4244L39.5481 29.1873H35.3667L34.6873 26.4244C34.6573 26.3025 34.5963 26.1905 34.5101 26.0992C34.424 26.008 34.3157 25.9406 34.1958 25.9036C33.5345 25.6995 32.894 25.4337 32.2825 25.1096C32.1715 25.0508 32.0471 25.0217 31.9215 25.0253C31.796 25.0289 31.6735 25.0649 31.566 25.13L29.1301 26.6043L26.1735 23.6472L27.6476 21.2119C27.7127 21.1044 27.7487 20.9819 27.7523 20.8564C27.7559 20.7308 27.7269 20.6065 27.6681 20.4955C27.3441 19.884 27.0783 19.2434 26.8743 18.5822C26.8374 18.4623 26.77 18.3539 26.6787 18.2678C26.5875 18.1816 26.4755 18.1206 26.3536 18.0906L23.5906 17.4112V13.2295L26.3536 12.5502C26.4755 12.5202 26.5875 12.4591 26.6787 12.3729C26.77 12.2868 26.8374 12.1785 26.8743 12.0585C27.0784 11.3973 27.3441 10.7567 27.6681 10.1452C27.727 10.0342 27.7561 9.90971 27.7525 9.78403C27.7489 9.65836 27.7128 9.53577 27.6476 9.42824ZM37.4572 23.5968C39.3713 23.5954 41.2257 22.9304 42.7045 21.7151C44.1834 20.4998 45.1951 18.8094 45.5673 16.9318C45.9396 15.0542 45.6494 13.1057 44.7461 11.4181C43.8429 9.73048 42.3825 8.40824 40.6137 7.67663C38.8449 6.94502 36.8772 6.84929 35.0457 7.40574C33.2143 7.96219 31.6324 9.13641 30.5696 10.7284C29.5068 12.3203 29.0288 14.2315 29.217 16.1363C29.4052 18.0412 30.2481 19.8218 31.6019 21.1749C32.3703 21.9444 33.2831 22.5544 34.2879 22.97C35.2928 23.3856 36.3698 23.5986 37.4572 23.5968ZM33.0595 20.5405C33.292 19.5487 33.8529 18.6645 34.6513 18.0316C35.4496 17.3988 36.4384 17.0544 37.4572 17.0544C38.4759 17.0544 39.4648 17.3988 40.2631 18.0316C41.0614 18.6645 41.6224 19.5487 41.8548 20.5405C40.6231 21.5753 39.0659 22.1426 37.4572 22.1426C35.8485 22.1426 34.2913 21.5753 33.0595 20.5405ZM38.6722 15.0994C38.5129 15.2601 38.3234 15.3878 38.1147 15.475C37.9059 15.5623 37.6819 15.6075 37.4556 15.608C37.2294 15.6085 37.0052 15.5643 36.7961 15.4779C36.5869 15.3915 36.3969 15.2647 36.2369 15.1047C36.0769 14.9447 35.9501 14.7546 35.8637 14.5455C35.7773 14.3363 35.7331 14.1122 35.7336 13.8859C35.7341 13.6596 35.7793 13.4356 35.8666 13.2269C35.9539 13.0181 36.0815 12.8286 36.2423 12.6693C36.4018 12.5098 36.5913 12.3832 36.7997 12.2968C37.0082 12.2105 37.2317 12.1661 37.4573 12.1661C37.683 12.1661 37.9064 12.2106 38.1149 12.2969C38.3234 12.3833 38.5128 12.5099 38.6724 12.6694C38.8319 12.829 38.9585 13.0184 39.0448 13.2269C39.1312 13.4354 39.1756 13.6589 39.1756 13.8845C39.1756 14.1102 39.1311 14.3336 39.0448 14.5421C38.9584 14.7506 38.8318 14.9399 38.6722 15.0994ZM32.6297 10.4923C33.8437 9.27841 35.4705 8.56644 37.1859 8.49821C38.9013 8.42999 40.5795 9.01051 41.8861 10.1241C43.1927 11.2378 44.0318 12.8028 44.2363 14.5073C44.4407 16.2119 43.9955 17.9309 42.9894 19.322C42.3871 17.8511 41.2264 16.6789 39.7615 16.0624C40.1874 15.6121 40.472 15.0469 40.5802 14.4367C40.6884 13.8264 40.6155 13.1979 40.3704 12.6286C40.1252 12.0594 39.7187 11.5744 39.201 11.2337C38.6833 10.893 38.0771 10.7114 37.4574 10.7114C36.8376 10.7114 36.2314 10.893 35.7137 11.2337C35.196 11.5744 34.7895 12.0594 34.5444 12.6286C34.2993 13.1979 34.2263 13.8264 34.3345 14.4367C34.4427 15.0469 34.7274 15.6121 35.1533 16.0624C33.6883 16.6788 32.5275 17.851 31.9254 19.322C30.974 18.0067 30.5223 16.3955 30.6514 14.7774C30.7805 13.1593 31.4818 11.6401 32.6297 10.4923Z" fill="#4981F5"/>
</g>
<defs>
<clipPath id="clip0_492_149">
<rect width="62" height="62" fill="white"/>
</clipPath>
</defs>
</svg>
