<svg width="62" height="62" viewBox="0 0 62 62" fill="none" xmlns="http://www.w3.org/2000/svg">
<g clip-path="url(#clip0_492_145)">
<path d="M53.2812 43.5996V39.7188C53.2797 38.4346 52.7689 37.2034 51.8608 36.2954C50.9528 35.3874 49.7217 34.8765 48.4375 34.875H40.2826C41.1792 33.2209 41.9025 31.4785 42.4409 29.6757L46.1222 26.7298C46.6944 26.2729 47.1127 25.6516 47.3207 24.9495C47.5286 24.2475 47.5162 23.4986 47.2852 22.8038C47.0541 22.109 46.6155 21.5019 46.0285 21.0642C45.4415 20.6265 44.7344 20.3795 44.0026 20.3563L46.1609 14.4218C46.7117 12.9073 46.8892 11.2823 46.6785 9.68457C46.4679 8.08684 45.8752 6.56344 44.9507 5.24343C44.0262 3.92343 42.7971 2.84571 41.3677 2.10159C39.9382 1.35748 38.3504 0.968888 36.7389 0.968751H28.5142C22.36 0.967216 16.3295 2.69674 11.1116 5.95975C10.9548 6.05687 10.829 6.19671 10.7489 6.36286C10.6689 6.529 10.638 6.71454 10.6597 6.89767C10.6815 7.0808 10.7551 7.25391 10.8719 7.39665C10.9886 7.5394 11.1437 7.64585 11.3189 7.7035L13.6545 8.4785C13.976 8.58574 14.2722 8.75753 14.5249 8.98332C14.7776 9.20912 14.9815 9.48417 15.1241 9.79159C15.2667 10.099 15.345 10.4323 15.3541 10.7711C15.3633 11.1098 15.3032 11.4469 15.1774 11.7616C14.9453 12.3417 14.8387 12.9644 14.8645 13.5888C14.8904 14.2131 15.0482 14.8248 15.3276 15.3838L17.825 20.3738C17.1105 20.4307 16.4297 20.701 15.8709 21.1498C15.312 21.5986 14.9011 22.205 14.6913 22.8904C14.4816 23.5757 14.4827 24.3083 14.6947 24.993C14.9066 25.6776 15.3195 26.2828 15.8798 26.7298L19.561 29.6757C20.0988 31.4785 20.8214 33.2208 21.7174 34.875H13.5625C12.2783 34.8765 11.0472 35.3874 10.1392 36.2954C9.2311 37.2034 8.72029 38.4346 8.71875 39.7188V43.5996C6.42595 44.5574 4.4672 46.1712 3.0884 48.2383C1.70959 50.3055 0.972186 52.7339 0.96875 55.2188V60.0625C0.96875 60.3194 1.07081 60.5658 1.25249 60.7475C1.43417 60.9292 1.68057 61.0312 1.9375 61.0312H60.0625C60.3194 61.0312 60.5658 60.9292 60.7475 60.7475C60.9292 60.5658 61.0312 60.3194 61.0312 60.0625V55.2188C61.0278 52.7339 60.2904 50.3055 58.9116 48.2383C57.5328 46.1712 55.574 44.5574 53.2812 43.5996ZM38.75 20.3438H32.9375C32.6806 20.3438 32.4342 20.4458 32.2525 20.6275C32.0708 20.8092 31.9688 21.0556 31.9688 21.3125V22.2813H30.0312V21.3125C30.0312 21.0556 29.9292 20.8092 29.7475 20.6275C29.5658 20.4458 29.3194 20.3438 29.0625 20.3438H20.3438V18.9245L26.3907 14.8936C27.6919 14.0243 29.222 13.561 30.7869 13.5625C33.0257 13.5599 35.1974 12.798 36.9472 11.4012L38.5301 10.1351L40.1915 12.6286C41.1481 14.0599 41.6579 15.7431 41.6562 17.4646V20.3438H38.75ZM37.7812 22.2813V25.1875C37.7812 25.4444 37.6792 25.6908 37.4975 25.8725C37.3158 26.0542 37.0694 26.1563 36.8125 26.1563H34.875C34.6181 26.1563 34.3717 26.0542 34.19 25.8725C34.0083 25.6908 33.9062 25.4444 33.9062 25.1875V22.2813H37.7812ZM28.0938 22.2813V25.1875C28.0938 25.4444 27.9917 25.6908 27.81 25.8725C27.6283 26.0542 27.3819 26.1563 27.125 26.1563H25.1875C24.9306 26.1563 24.6842 26.0542 24.5025 25.8725C24.3208 25.6908 24.2188 25.4444 24.2188 25.1875V22.2813H28.0938ZM45.5312 23.9281C45.5317 24.1753 45.4764 24.4193 45.3694 24.6421C45.2624 24.8649 45.1064 25.0606 44.9132 25.2146L43.1568 26.6193C43.4129 25.1869 43.5538 23.7362 43.5783 22.2813H43.8844C44.3212 22.2813 44.74 22.4548 45.0489 22.7636C45.3577 23.0725 45.5312 23.4913 45.5312 23.9281ZM16.9754 12.4814C17.1992 11.9217 17.3063 11.3221 17.2901 10.7195C17.274 10.1169 17.1348 9.52399 16.8813 8.97708C16.6278 8.43018 16.2652 7.94085 15.8157 7.5391C15.3663 7.13735 14.8395 6.83166 14.2677 6.64078L13.9713 6.54391C18.4464 4.15475 23.4413 2.90535 28.5142 2.90625H36.7389C38.0386 2.90649 39.3192 3.21994 40.4721 3.82005C41.6251 4.42017 42.6164 5.28927 43.3622 6.35376C44.108 7.41826 44.5864 8.6468 44.7567 9.93536C44.927 11.2239 44.7843 12.5345 44.3407 13.7563L43.4988 16.0716C43.2884 14.454 42.7083 12.9067 41.8035 11.5494L39.556 8.17722C39.4814 8.06552 39.3844 7.97056 39.2712 7.89834C39.158 7.82613 39.0309 7.77825 38.8982 7.75775C38.7656 7.73772 38.6302 7.74518 38.5005 7.77968C38.3709 7.81417 38.2497 7.87497 38.1445 7.95828L35.7372 9.889C34.3307 11.0105 32.5858 11.6224 30.7869 11.625C28.8392 11.6232 26.9349 12.1998 25.3154 13.2816L18.8373 17.6003C18.7773 17.641 18.722 17.6885 18.6727 17.7417L17.0607 14.5167C16.9036 14.2027 16.8147 13.859 16.8001 13.5082C16.7854 13.1574 16.8451 12.8074 16.9754 12.4814ZM17.0878 25.2166C16.8204 25.0037 16.6259 24.7129 16.5311 24.3845C16.4364 24.0561 16.4462 23.7064 16.5592 23.3839C16.6721 23.0613 16.8826 22.7818 17.1615 22.5843C17.4404 22.3867 17.7739 22.2808 18.1156 22.2813H18.4198C18.4442 23.7368 18.5851 25.1882 18.8412 26.6213L17.0878 25.2166ZM20.3593 22.2813H22.2812V25.1875C22.2813 25.9583 22.5874 26.6975 23.1325 27.2425C23.6775 27.7876 24.4167 28.0938 25.1875 28.0938H27.125C27.8958 28.0938 28.635 27.7876 29.18 27.2425C29.7251 26.6975 30.0312 25.9583 30.0312 25.1875V24.2188H31.9688V25.1875C31.9688 25.9583 32.2749 26.6975 32.82 27.2425C33.365 27.7876 34.1042 28.0938 34.875 28.0938H36.8125C37.5833 28.0938 38.3225 27.7876 38.8675 27.2425C39.4126 26.6975 39.7188 25.9583 39.7188 25.1875V22.2813H41.6408C41.5655 26.7215 40.3259 31.0642 38.0457 34.875H23.9543C21.6741 31.0642 20.4345 26.7215 20.3593 22.2813ZM13.5625 36.8125H48.4375C49.2083 36.8125 49.9475 37.1187 50.4925 37.6637C51.0376 38.2087 51.3438 38.948 51.3438 39.7188V59.0938H10.6562V39.7188C10.6562 38.948 10.9624 38.2087 11.5075 37.6637C12.0525 37.1187 12.7917 36.8125 13.5625 36.8125ZM2.90625 55.2188C2.90888 53.2558 3.45286 51.3316 4.47835 49.6579C5.50384 47.9841 6.97111 46.6256 8.71875 45.7318V59.0938H2.90625V55.2188ZM59.0938 59.0938H53.2812V45.7318C55.0288 46.6257 56.496 47.9842 57.5215 49.6579C58.547 51.3317 59.091 53.2558 59.0938 55.2188V59.0938Z" fill="#4981F5"/>
<path d="M30.9998 56.1875C31.7662 56.1875 32.5154 55.9602 33.1526 55.5344C33.7899 55.1086 34.2865 54.5034 34.5798 53.7954C34.8731 53.0873 34.9499 52.3082 34.8003 51.5565C34.6508 50.8048 34.2818 50.1144 33.7398 49.5724C33.1979 49.0305 32.5074 48.6614 31.7558 48.5119C31.0041 48.3624 30.225 48.4391 29.5169 48.7324C28.8088 49.0257 28.2036 49.5224 27.7778 50.1596C27.3521 50.7969 27.1248 51.5461 27.1248 52.3125C27.1248 53.3402 27.5331 54.3258 28.2598 55.0525C28.9865 55.7792 29.9721 56.1875 30.9998 56.1875ZM30.9998 50.375C31.383 50.375 31.7576 50.4886 32.0762 50.7015C32.3948 50.9144 32.6432 51.217 32.7898 51.571C32.9365 51.9251 32.9748 52.3146 32.9001 52.6905C32.8253 53.0663 32.6408 53.4115 32.3698 53.6825C32.0988 53.9535 31.7536 54.138 31.3778 54.2127C31.0019 54.2875 30.6124 54.2491 30.2583 54.1025C29.9043 53.9558 29.6017 53.7075 29.3888 53.3889C29.1759 53.0703 29.0623 52.6957 29.0623 52.3125C29.0623 51.7986 29.2664 51.3058 29.6298 50.9424C29.9931 50.5791 30.4859 50.375 30.9998 50.375ZM24.5024 47.1849L25.8722 45.8151L22.6821 42.625L25.8722 39.4349L24.5024 38.0651L20.6274 41.9401C20.4458 42.1217 20.3438 42.3681 20.3438 42.625C20.3438 42.8818 20.4458 43.1282 20.6274 43.3099L24.5024 47.1849ZM37.4972 47.1849L41.3722 43.3099C41.5538 43.1282 41.6558 42.8818 41.6558 42.625C41.6558 42.3681 41.5538 42.1217 41.3722 41.9401L37.4972 38.0651L36.1274 39.4349L39.3175 42.625L36.1274 45.8151L37.4972 47.1849ZM27.3185 45.9177L33.131 38.1687L34.681 39.3312L28.8676 47.0812L27.3185 45.9177Z" fill="#4981F5"/>
</g>
<defs>
<clipPath id="clip0_492_145">
<rect width="62" height="62" fill="white"/>
</clipPath>
</defs>
</svg>
