<svg width="63" height="62" viewBox="0 0 63 62" fill="none" xmlns="http://www.w3.org/2000/svg">
<path d="M48.9316 41.6562C45.1923 41.6562 42.1504 44.6981 42.1504 48.4375C42.1504 52.1769 45.1923 55.2188 48.9316 55.2188C52.671 55.2188 55.7129 52.1769 55.7129 48.4375C55.7129 44.6981 52.671 41.6562 48.9316 41.6562ZM48.9316 53.2812C46.2608 53.2812 44.0879 51.1083 44.0879 48.4375C44.0879 45.7667 46.2608 43.5938 48.9316 43.5938C51.6025 43.5938 53.7754 45.7667 53.7754 48.4375C53.7754 51.1083 51.6025 53.2812 48.9316 53.2812Z" fill="#4981F5"/>
<path d="M48.9314 45.5312C47.3291 45.5312 46.0252 46.8352 46.0252 48.4375C46.0252 50.0398 47.3291 51.3438 48.9314 51.3438C50.5337 51.3438 51.8377 50.0398 51.8377 48.4375C51.8377 46.8352 50.5337 45.5312 48.9314 45.5312ZM48.9314 49.4062C48.3976 49.4062 47.9627 48.9713 47.9627 48.4375C47.9627 47.9037 48.3976 47.4688 48.9314 47.4688C49.4652 47.4688 49.9002 47.9037 49.9002 48.4375C49.9002 48.9713 49.4652 49.4062 48.9314 49.4062ZM3.99884 25.1875H4.36891V39.7188H6.30641V23.25H3.99884C3.89682 23.25 3.79649 23.2239 3.70738 23.1743C3.61826 23.1246 3.54331 23.053 3.48964 22.9663C3.43597 22.8795 3.40536 22.7805 3.40072 22.6785C3.39608 22.5766 3.41756 22.4752 3.46313 22.3839L6.73944 15.8313C6.94384 15.4235 7.60647 15.4235 7.80991 15.8313L11.0862 22.3839C11.1317 22.4751 11.1532 22.5765 11.1486 22.6783C11.144 22.7801 11.1135 22.8791 11.06 22.9658C11.0064 23.0526 10.9316 23.1242 10.8426 23.1739C10.7536 23.2237 10.6534 23.2498 10.5515 23.25H8.24391V39.7188H10.1814V25.1875H10.5515C10.9836 25.187 11.4085 25.0763 11.7859 24.8656C12.1632 24.655 12.4806 24.3515 12.7078 23.9839C12.935 23.6162 13.0646 23.1967 13.0843 22.765C13.104 22.3333 13.0131 21.9037 12.8203 21.5169L9.54397 14.9652C9.11191 14.1002 8.24294 13.5625 7.27516 13.5625C6.30738 13.5625 5.43841 14.1002 5.00634 14.9643L1.73003 21.5169C1.53721 21.9037 1.44633 22.3333 1.46601 22.765C1.4857 23.1967 1.61529 23.6162 1.84251 23.9839C2.06974 24.3515 2.38706 24.655 2.76442 24.8656C3.14178 25.0763 3.56668 25.187 3.99884 25.1875ZM18.5688 27.6598C19.0009 28.5248 19.8699 29.0625 20.8377 29.0625C21.8054 29.0625 22.6744 28.5248 23.1065 27.6607L26.3828 21.1081C26.5756 20.7213 26.6665 20.2917 26.6468 19.86C26.6271 19.4283 26.4975 19.0088 26.2703 18.6411C26.0431 18.2735 25.7257 17.97 25.3484 17.7594C24.971 17.5487 24.5461 17.438 24.114 17.4375H23.7439V2.90625H21.8064V19.375H24.114C24.216 19.375 24.3163 19.4011 24.4054 19.4507C24.4946 19.5004 24.5695 19.572 24.6232 19.6587C24.6768 19.7455 24.7075 19.8445 24.7121 19.9465C24.7167 20.0484 24.6952 20.1498 24.6497 20.2411L21.3734 26.7937C21.169 27.2015 20.5063 27.2015 20.3029 26.7937L17.0266 20.2411C16.9811 20.1499 16.9596 20.0485 16.9642 19.9467C16.9688 19.8449 16.9993 19.7459 17.0529 19.6592C17.1064 19.5724 17.1812 19.5008 17.2702 19.4511C17.3592 19.4013 17.4594 19.3752 17.5613 19.375H19.8689V2.90625H17.9314V17.4375H17.5613C17.1292 17.438 16.7043 17.5487 16.3269 17.7594C15.9496 17.97 15.6322 18.2735 15.405 18.6411C15.1778 19.0088 15.0482 19.4283 15.0285 19.86C15.0088 20.2917 15.0997 20.7213 15.2925 21.1081L18.5688 27.6598Z" fill="#4981F5"/>
<path d="M56.6816 0.96875H33.4316C30.7608 0.96875 28.5879 3.14166 28.5879 5.8125V32.0104C26.6447 32.1644 24.7634 32.7657 23.0911 33.7673C21.4188 34.7689 20.0008 36.1437 18.9479 37.7842C18.9324 37.7842 18.9169 37.7812 18.9004 37.7812C14.9615 37.7812 11.4081 40.2138 9.93655 43.8078C8.93467 43.5512 7.88741 43.5269 6.87469 43.7367C5.86197 43.9465 4.91057 44.3849 4.09311 45.0184C3.27564 45.6519 2.61373 46.4639 2.15789 47.3922C1.70205 48.3206 1.46434 49.3408 1.46289 50.375C1.46289 54.1144 4.50477 57.1562 8.24414 57.1562H39.8409L40.3679 57.6832C40.8111 58.1275 41.3835 58.4201 42.0031 58.5193C42.6228 58.6185 43.2579 58.5191 43.8176 58.2354C43.9472 58.1669 44.0904 58.128 44.2368 58.1217C44.3833 58.1153 44.5293 58.1416 44.6643 58.1986C44.7893 58.2529 44.9162 58.3052 45.0421 58.3546C45.3134 58.4592 45.5236 58.6888 45.6195 58.9823C45.8147 59.5787 46.1935 60.0981 46.7018 60.4661C47.2101 60.8341 47.8217 61.0319 48.4492 61.0312H49.4141C50.0417 61.0319 50.6534 60.8339 51.1617 60.4657C51.67 60.0975 52.0488 59.5779 52.2438 58.9814C52.3397 58.6888 52.5499 58.4602 52.8192 58.3556C52.9471 58.3062 53.074 58.2548 53.2 58.1996C53.4635 58.0843 53.7725 58.0988 54.0457 58.2364C54.6054 58.5202 55.2405 58.6197 55.8602 58.5205C56.4799 58.4213 57.0522 58.1286 57.4954 57.6842L58.1784 57.0022C58.623 56.5592 58.9159 55.9868 59.0151 55.3671C59.1143 54.7474 59.0147 54.1121 58.7305 53.5525C58.6625 53.4228 58.6239 53.2796 58.6176 53.1333C58.6112 52.9869 58.6372 52.841 58.6937 52.7058C58.748 52.5808 58.8003 52.4539 58.8497 52.328C58.9543 52.0567 59.1839 51.8465 59.4775 51.7506C60.0736 51.5549 60.5927 51.1758 60.9605 50.6674C61.3283 50.1591 61.526 49.5474 61.5254 48.9199V5.8125C61.5254 3.14166 59.3525 0.96875 56.6816 0.96875ZM33.4316 2.90625H56.6816C58.284 2.90625 59.5879 4.21019 59.5879 5.8125V45.1718C59.5491 45.1573 59.5143 45.1379 59.4755 45.1244C59.3351 45.0808 59.2061 45.0065 59.0979 44.907C58.9897 44.8075 58.9049 44.6852 58.8497 44.5489C58.8005 44.4209 58.7485 44.2939 58.6937 44.1682C58.6375 44.0332 58.6116 43.8874 58.618 43.7413C58.6244 43.5951 58.6628 43.4522 58.7305 43.3225C59.0147 42.7629 59.1143 42.1276 59.0151 41.5079C58.9159 40.8882 58.623 40.3158 58.1784 39.8728L57.6504 39.3458V6.78125C57.6504 5.71272 56.7814 4.84375 55.7129 4.84375H34.4004C33.3319 4.84375 32.4629 5.71272 32.4629 6.78125V32.3136C31.8261 32.1608 31.1783 32.0581 30.5254 32.0065V5.8125C30.5254 4.21019 31.8293 2.90625 33.4316 2.90625ZM40.7748 38.8546C39.4119 36.1974 37.1543 34.1069 34.4004 32.952V30.0312H55.7129V38.3422C55.1402 38.2771 54.5609 38.3801 54.0457 38.6386C53.916 38.7069 53.7729 38.7456 53.6265 38.752C53.4801 38.7583 53.3341 38.7322 53.199 38.6754C53.0739 38.6213 52.948 38.5693 52.8212 38.5194C52.6844 38.4642 52.5616 38.3792 52.4617 38.2706C52.3619 38.1621 52.2874 38.0326 52.2438 37.8917C52.0484 37.2955 51.6695 36.7764 51.1613 36.4085C50.653 36.0407 50.0415 35.843 49.4141 35.8438H48.4492C47.8216 35.8431 47.2098 36.0411 46.7016 36.4093C46.1933 36.7775 45.8145 37.2971 45.6195 37.8936C45.5758 38.0343 45.5013 38.1634 45.4014 38.2717C45.3016 38.38 45.1788 38.4646 45.0421 38.5194C44.9152 38.5688 44.7893 38.6202 44.6633 38.6754C44.5283 38.7319 44.3825 38.7579 44.2364 38.7515C44.0902 38.7452 43.9472 38.7066 43.8176 38.6386C43.3383 38.396 42.8022 38.2879 42.2663 38.326C41.7305 38.364 41.215 38.5467 40.7748 38.8546ZM55.7129 12.5938H34.4004V6.78125H55.7129V12.5938ZM34.4004 14.5312H55.7129V20.3438H34.4004V14.5312ZM34.4004 22.2812H55.7129V28.0938H34.4004V22.2812ZM3.40039 50.375C3.40039 47.7042 5.5733 45.5312 8.24414 45.5312C8.89998 45.5304 9.54908 45.6636 10.1516 45.9226L11.1581 46.3537L11.4643 45.3026C12.4195 42.0147 15.4778 39.7188 18.9004 39.7188C20.1752 39.7182 21.4305 40.0323 22.5548 40.6332C23.6791 41.2342 24.6377 42.1033 25.3455 43.1636L26.9555 42.0864C25.5936 40.0511 23.5106 38.6078 21.1266 38.0477C22.124 36.7614 23.4018 35.7197 24.8627 35.002C26.3236 34.2843 27.929 33.9096 29.5566 33.9062C33.793 33.9062 37.6476 36.4628 39.3265 40.3174C39.0289 40.7555 38.854 41.2652 38.8201 41.7937C38.7862 42.3221 38.8945 42.85 39.1337 43.3225C39.2722 43.5957 39.2848 43.9038 39.1705 44.1692C39.1163 44.2942 39.064 44.4211 39.0145 44.547C38.9099 44.8183 38.6803 45.0285 38.3868 45.1244C37.7904 45.3199 37.2711 45.6989 36.9031 46.2073C36.5351 46.7157 36.3373 47.3275 36.3379 47.9551V48.9199C36.3373 49.5476 36.5352 50.1593 36.9034 50.6676C37.2716 51.1759 37.7912 51.5546 38.3878 51.7497C38.6803 51.8456 38.909 52.0558 39.0136 52.3251C39.063 52.453 39.1143 52.5799 39.1695 52.7058C39.2258 52.8409 39.2516 52.9866 39.2453 53.1328C39.2389 53.2789 39.2005 53.4219 39.1327 53.5515C38.8741 54.0667 38.7711 54.646 38.8363 55.2188H8.24414C5.5733 55.2188 3.40039 53.0458 3.40039 50.375ZM59.5879 48.9199C59.5879 49.3704 59.3002 49.7676 58.871 49.909C58.4582 50.0417 58.08 50.2645 57.764 50.5614C57.448 50.8583 57.202 51.2219 57.044 51.6257C57.0033 51.7293 56.9606 51.833 56.917 51.9337C56.7467 52.3296 56.6659 52.7582 56.6805 53.189C56.6951 53.6197 56.8046 54.0419 57.0013 54.4253C57.2048 54.8274 57.1273 55.3117 56.8085 55.6305L56.1256 56.3134C55.9708 56.4687 55.7708 56.5709 55.5543 56.6055C55.3378 56.6402 55.116 56.6054 54.9205 56.5062C54.5372 56.3095 54.1151 56.1999 53.6846 56.1853C53.254 56.1707 52.8255 56.2515 52.4298 56.4219C52.3281 56.4655 52.2244 56.5082 52.1188 56.5498C51.7153 56.7083 51.352 56.9546 51.0553 57.2707C50.7586 57.5869 50.5358 57.9651 50.4032 58.3778C50.3349 58.5863 50.2025 58.7677 50.0248 58.8963C49.8472 59.0249 49.6334 59.094 49.4141 59.0938H48.4492C47.9987 59.0938 47.6015 58.806 47.4601 58.3769C47.3275 57.964 47.1046 57.5859 46.8077 57.2699C46.5108 56.9539 46.1473 56.7079 45.7435 56.5498C45.6401 56.5093 45.5374 56.467 45.4354 56.4229C45.073 56.2648 44.6819 56.1833 44.2865 56.1836C43.8283 56.1836 43.3691 56.2921 42.9438 56.5062C42.5408 56.7087 42.0564 56.6322 41.7387 56.3134L41.0557 55.6305C40.9005 55.4757 40.7982 55.2757 40.7636 55.0592C40.729 54.8427 40.7637 54.6209 40.8629 54.4253C41.0597 54.0421 41.1693 53.62 41.1838 53.1895C41.1984 52.7589 41.1176 52.3304 40.9472 51.9347C40.9031 51.8317 40.8604 51.728 40.8193 51.6237C40.6608 51.2202 40.4145 50.8569 40.0984 50.5602C39.7822 50.2634 39.4041 50.0407 38.9913 49.9081C38.7828 49.8402 38.6012 49.7081 38.4725 49.5305C38.3439 49.353 38.2749 49.1392 38.2754 48.9199V47.9551C38.2754 47.5046 38.5631 47.1074 38.9913 46.966C39.4043 46.8335 39.7827 46.6107 40.0988 46.3137C40.415 46.0168 40.6612 45.6532 40.8193 45.2493C40.86 45.1457 40.9026 45.042 40.9462 44.9413C41.1166 44.5454 41.1973 44.1168 41.1828 43.686C41.1682 43.2553 41.0587 42.8331 40.862 42.4497C40.6585 42.0476 40.736 41.5623 41.0547 41.2436L41.7367 40.5616C42.0555 40.2419 42.5398 40.1634 42.9428 40.3688C43.3261 40.5655 43.7481 40.6751 44.1787 40.6897C44.6093 40.7043 45.0378 40.6235 45.4335 40.4531C45.5362 40.4085 45.6398 40.3659 45.7435 40.3262C46.147 40.1674 46.5103 39.9211 46.8071 39.605C47.104 39.2889 47.327 38.9108 47.4601 38.4981C47.6006 38.069 47.9987 37.7812 48.4492 37.7812H49.4141C49.8645 37.7812 50.2617 38.069 50.4032 38.4981C50.5359 38.9107 50.7587 39.2887 51.0554 39.6047C51.3522 39.9207 51.7154 40.1668 52.1188 40.3252C52.2225 40.3659 52.3261 40.4085 52.4279 40.4521C52.8238 40.6222 53.2524 40.7029 53.6831 40.6883C54.1138 40.6738 54.536 40.5643 54.9195 40.3678C55.3215 40.1634 55.8059 40.2419 56.1256 40.5606L56.8076 41.2426C57.1263 41.5613 57.2038 42.0467 57.0004 42.4487C56.8036 42.832 56.694 43.254 56.6795 43.6846C56.6649 44.1152 56.7457 44.5436 56.9161 44.9393C56.9597 45.0411 57.0023 45.1447 57.044 45.2503C57.2025 45.6539 57.4487 46.0172 57.7649 46.3139C58.081 46.6106 58.4592 46.8333 58.872 46.966C59.3002 47.1064 59.5879 47.5046 59.5879 47.9551V48.4375V48.9199Z" fill="#4981F5"/>
<path d="M36.3379 8.71875H38.2754V10.6562H36.3379V8.71875ZM40.2129 8.71875H42.1504V10.6562H40.2129V8.71875ZM36.3379 24.2188H38.2754V26.1562H36.3379V24.2188ZM40.2129 24.2188H42.1504V26.1562H40.2129V24.2188ZM51.8379 16.4688H53.7754V18.4062H51.8379V16.4688ZM47.9629 16.4688H49.9004V18.4062H47.9629V16.4688ZM51.8379 31.9688H53.7754V33.9062H51.8379V31.9688ZM47.9629 31.9688H49.9004V33.9062H47.9629V31.9688ZM29.5566 35.8438C28.8184 35.8438 28.0851 35.9358 27.3769 36.1189L27.8603 37.9953C28.4144 37.8526 28.9844 37.7807 29.5566 37.7812C31.0605 37.7803 32.522 38.2794 33.7111 39.2002C34.9001 40.1209 35.7492 41.4109 36.1247 42.8672L38.0012 42.3838C37.5185 40.5114 36.4268 38.8526 34.8981 37.6687C33.3693 36.4847 31.4902 35.8427 29.5566 35.8438ZM18.9004 41.6562C17.5611 41.6591 16.2636 42.1231 15.2262 42.9701C14.1888 43.8171 13.4748 44.9956 13.2041 46.3072L15.1029 46.6928C15.2834 45.8185 15.7595 45.0331 16.4511 44.4687C17.1428 43.9043 18.0077 43.5953 18.9004 43.5938C19.5026 43.5914 20.0969 43.7306 20.6355 44C21.1741 44.2694 21.642 44.6615 22.0013 45.1447L23.5504 43.9813C23.0113 43.2568 22.3097 42.6691 21.5021 42.2652C20.6945 41.8614 19.8033 41.6528 18.9004 41.6562Z" fill="#4981F5"/>
</svg>
