<svg width="51" height="52" fill="none" xmlns="http://www.w3.org/2000/svg"><path d="M40.437 21.875v-8.377a4.171 4.171 0 0 0-4.166-4.167h-9.376c.139-.545.209-1.105.209-1.668 0-3.38-2.413-6.156-5.738-6.6a6.718 6.718 0 0 0-5.32 1.583 6.666 6.666 0 0 0-2.275 5.017c0 .578.074 1.155.239 1.668H4.604a4.171 4.171 0 0 0-4.167 4.167v8.7c0 .484.221.928.605 1.22.399.301.909.395 1.389.26.436-.12.887-.18 1.34-.18 2.534 0 4.615 1.806 4.948 4.295.198 1.476-.223 2.898-1.187 4a4.995 4.995 0 0 1-3.762 1.706c-.45 0-.899-.06-1.334-.177a1.584 1.584 0 0 0-1.395.257 1.52 1.52 0 0 0-.605 1.22V43.5a4.171 4.171 0 0 0 4.166 4.167H26.03A14.918 14.918 0 0 0 35.435 51c8.271 0 15-6.73 15-15 0-6.516-4.184-12.06-10-14.125h.002zM2.104 43.5v-8.542c2.414.611 5.05-.2 6.684-2.068a6.71 6.71 0 0 0 1.583-5.318c-.445-3.326-3.22-5.74-6.6-5.74-.578 0-1.155.074-1.667.24v-8.574c0-1.379 1.122-2.5 2.5-2.5h9.533c.483 0 .928-.221 1.22-.605a1.582 1.582 0 0 0 .26-1.39 5.106 5.106 0 0 1-.18-1.34c0-1.442.622-2.814 1.707-3.762 1.102-.964 2.523-1.387 4-1.187 2.487.333 4.293 2.414 4.293 4.948 0 .451-.06.903-.177 1.334a1.582 1.582 0 0 0 .258 1.396 1.52 1.52 0 0 0 1.22.606h9.532c1.379 0 2.5 1.121 2.5 2.5v7.888a14.96 14.96 0 0 0-3.333-.387c-8.27 0-15 6.73-15 15 0 3.843 1.466 7.343 3.852 10H4.604c-1.378 0-2.5-1.12-2.5-2.499zm33.333 5.833c-7.351 0-13.333-5.981-13.333-13.333s5.982-13.333 13.333-13.333c7.352 0 13.334 5.981 13.334 13.333s-5.982 13.333-13.334 13.333z" fill="#2166F3" stroke="#2166F3" stroke-width=".5"/><path d="m43.821 30.554-1.97-1.59c-.934-.753-2.36-.54-3.038.446l-5.794 8.443-1.025-1.722c-.637-1.068-2.144-1.345-3.111-.562l-1.827 1.474c-.957.772-1.033 2.26-.172 3.13l4.211 4.247a2.533 2.533 0 0 0 1.793.748c.027 0 .055 0 .083-.002a2.533 2.533 0 0 0 1.823-.87l9.296-10.714c.773-.89.65-2.29-.267-3.027l-.002-.001zm-.99 1.935-9.297 10.714a.847.847 0 0 1-.619.296c-.261.025-.466-.084-.637-.255l-4.211-4.246a.451.451 0 0 1 .035-.66l1.826-1.474a.43.43 0 0 1 .633.117l1.69 2.842a.83.83 0 0 0 1.093.317.832.832 0 0 0 .31-.272l6.533-9.516a.427.427 0 0 1 .617-.093l1.971 1.59a.45.45 0 0 1 .054.638l.001.002z" fill="#2166F3" stroke="#2166F3" stroke-width=".5"/></svg>