<svg width="49" height="34" viewBox="0 0 49 34" fill="none" xmlns="http://www.w3.org/2000/svg">
<path d="M11.2441 0.698553C10.2175 0.742303 2.38874 1.40688 1.83249 1.45844C1.27624 1.50375 0.662834 1.761 1.21908 3.10944C1.77533 4.45788 10.6645 24.051 10.9145 24.6213C11.163 25.19 11.8084 26.1193 13.3163 25.7443C14.8616 25.3631 20.2224 23.9302 23.1521 23.1442C24.6974 26.013 27.8548 31.8284 28.4408 32.6596C29.2173 33.7752 29.7586 33.5854 30.9524 33.212C31.8899 32.9198 45.5711 27.8881 46.1867 27.6334C46.8024 27.3709 47.1807 27.192 46.7635 26.5561C46.4557 26.092 42.8451 21.1466 40.956 18.5544C42.2529 18.2028 46.8588 16.951 47.3495 16.8088C47.926 16.6572 48.0069 16.3747 47.6913 16.0153C47.3834 15.656 43.0932 10.1655 42.3385 9.23737C41.5838 8.30925 41.2094 8.47133 40.7485 8.53852C40.2798 8.60571 34.8535 9.54162 34.2238 9.64631C33.5942 9.75881 33.1985 10.0133 33.586 10.5679C33.9298 11.0617 37.4982 16.2404 38.2888 17.3795L24.1012 20.8524L12.8127 1.56525C12.3658 0.884002 12.2691 0.645428 11.2441 0.698553ZM11.0671 2.03827C11.3312 2.02265 11.3014 2.08173 11.3967 2.24579C11.3967 2.24579 21.8113 20.6281 21.9863 20.95C22.1769 21.2719 22.0696 21.3703 21.9008 21.4078C21.7321 21.4453 13.784 23.3906 13.359 23.4891C12.934 23.586 12.9345 23.5414 12.8829 23.3914C12.8313 23.2414 3.43774 3.41586 3.30649 3.16742C3.17524 2.92055 3.18149 2.72492 3.30649 2.72492C3.43149 2.72492 10.8109 2.05234 11.0671 2.03827ZM41.2673 9.82331C41.3726 9.84772 41.4832 9.92658 41.6152 10.1102C41.8793 10.4774 45.4678 15.1276 45.6069 15.3073C45.7382 15.4808 45.5027 15.5863 45.1949 15.6613C44.8871 15.7285 39.8055 17.0163 39.8055 17.0163L35.6521 11.1905C35.5349 11.0186 35.4407 10.8526 35.7345 10.8151C36.0267 10.7776 40.7435 9.89914 40.956 9.85383C41.0623 9.82726 41.162 9.7989 41.2673 9.82331ZM39.3233 18.8413C39.4214 18.8524 39.5039 18.9218 39.6133 19.0976C39.8273 19.4585 44.1849 25.5046 44.3099 25.7077C44.4349 25.9093 44.5635 26.0446 44.1604 26.1868C43.7651 26.3368 30.7095 30.8381 30.461 30.9506C30.2048 31.0631 30.0047 31.0994 29.6828 30.6119C29.361 30.1244 25.1143 22.6132 25.1143 22.6132L38.9388 18.9359C39.1107 18.8796 39.2253 18.8301 39.3233 18.8413Z" fill="black" stroke="black" stroke-width="0.5"/>
</svg>
