<svg width="44" height="41" viewBox="0 0 44 41" fill="none" xmlns="http://www.w3.org/2000/svg">
<path d="M35.9329 7.15C35.7496 7.15 35.5663 7.15 35.3829 6.96667C31.7163 3.66667 26.9496 1.83333 21.9996 1.83333C17.2329 1.83333 12.4663 3.48333 8.7996 6.78333C8.43294 6.96667 7.88294 6.96667 7.51627 6.6C7.1496 6.23333 7.33294 5.68333 7.6996 5.31667C11.5496 1.83333 16.6829 0 21.9996 0C27.3163 0 32.6329 2.01667 36.6663 5.5C37.0329 5.86667 37.0329 6.41667 36.6663 6.78333C36.4829 6.96667 36.2996 7.15 35.9329 7.15Z" fill="#2166F3"/>
<path d="M13.7505 7.33333H8.25052C7.70052 7.33333 7.33385 6.96667 7.33385 6.41667V0.916667C7.33385 0.366667 7.70052 0 8.25052 0C8.80052 0 9.16719 0.366667 9.16719 0.916667V5.5H13.7505C14.3005 5.5 14.6672 5.86667 14.6672 6.41667C14.6672 6.96667 14.3005 7.33333 13.7505 7.33333ZM22.1839 40.3333C16.8672 40.3333 11.5505 38.3167 7.51719 34.8333C7.15052 34.4667 7.15052 33.9167 7.51719 33.55C7.88385 33.1833 8.43385 33.1833 8.80052 33.55C12.4672 36.85 17.2339 38.6833 22.1839 38.6833C26.9505 38.6833 31.7172 37.0333 35.3839 33.7333C35.7505 33.3667 36.3005 33.3667 36.6672 33.9167C37.0339 34.2833 37.0339 34.8333 36.4839 35.2C32.6339 38.5 27.5005 40.3333 22.1839 40.3333Z" fill="#2166F3"/>
<path d="M35.9333 40.3333C35.3833 40.3333 35.0167 39.9667 35.0167 39.4167V34.8333H30.4333C29.8833 34.8333 29.5167 34.4667 29.5167 33.9167C29.5167 33.3667 29.8833 33 30.4333 33H35.9333C36.4833 33 36.85 33.3667 36.85 33.9167V39.4167C36.85 39.9667 36.4833 40.3333 35.9333 40.3333ZM9.16667 20.1667C6.6 20.1667 4.58333 18.15 4.58333 15.5833C4.58333 13.0167 6.6 11 9.16667 11C11.7333 11 13.75 13.0167 13.75 15.5833C13.75 18.15 11.7333 20.1667 9.16667 20.1667ZM9.16667 12.8333C7.7 12.8333 6.41667 14.1167 6.41667 15.5833C6.41667 17.05 7.7 18.3333 9.16667 18.3333C10.6333 18.3333 11.9167 17.05 11.9167 15.5833C11.9167 14.1167 10.6333 12.8333 9.16667 12.8333ZM17.4167 29.3333C16.8667 29.3333 16.5 28.9667 16.5 28.4167V26.5833C16.5 25.1167 15.2167 23.8333 13.75 23.8333H4.58333C3.11667 23.8333 1.83333 25.1167 1.83333 26.5833V28.4167C1.83333 28.9667 1.46667 29.3333 0.916667 29.3333C0.366667 29.3333 0 28.9667 0 28.4167V26.5833C0 24.0167 2.01667 22 4.58333 22H13.75C16.3167 22 18.3333 24.0167 18.3333 26.5833V28.4167C18.3333 28.9667 17.9667 29.3333 17.4167 29.3333ZM34.8333 20.1667C32.2667 20.1667 30.25 18.15 30.25 15.5833C30.25 13.0167 32.2667 11 34.8333 11C37.4 11 39.4167 13.0167 39.4167 15.5833C39.4167 18.15 37.4 20.1667 34.8333 20.1667ZM34.8333 12.8333C33.3667 12.8333 32.0833 14.1167 32.0833 15.5833C32.0833 17.05 33.3667 18.3333 34.8333 18.3333C36.3 18.3333 37.5833 17.05 37.5833 15.5833C37.5833 14.1167 36.3 12.8333 34.8333 12.8333ZM43.0833 29.3333C42.5333 29.3333 42.1667 28.9667 42.1667 28.4167V26.5833C42.1667 25.1167 40.8833 23.8333 39.4167 23.8333H30.25C28.7833 23.8333 27.5 25.1167 27.5 26.5833V28.4167C27.5 28.9667 27.1333 29.3333 26.5833 29.3333C26.0333 29.3333 25.6667 28.9667 25.6667 28.4167V26.5833C25.6667 24.0167 27.6833 22 30.25 22H39.4167C41.9833 22 44 24.0167 44 26.5833V28.4167C44 28.9667 43.6333 29.3333 43.0833 29.3333Z" fill="#2166F3"/>
</svg>
