<?xml version="1.0" standalone="no"?>
<!DOCTYPE svg PUBLIC "-//W3C//DTD SVG 20010904//EN"
 "http://www.w3.org/TR/2001/REC-SVG-20010904/DTD/svg10.dtd">
<svg version="1.0" xmlns="http://www.w3.org/2000/svg"
 width="100.000000pt" height="100.000000pt" viewBox="0 0 100.000000 100.000000"
 preserveAspectRatio="xMidYMid meet">

<g transform="translate(0.000000,100.000000) scale(0.100000,-0.100000)"
fill="#000000" stroke="none">
<path d="M4 797 c-2 -7 -3 -100 -2 -207 l3 -195 78 -3 c62 -2 78 0 83 13 5 12
19 3 63 -37 31 -29 92 -80 135 -113 l79 -60 78 1 c67 0 82 4 102 22 13 12 33
22 44 22 11 0 26 7 34 16 7 9 29 23 48 32 25 12 39 27 46 49 14 44 24 51 40
30 11 -15 25 -17 86 -15 l74 3 0 205 0 205 -73 -2 c-86 -2 -192 -27 -209 -49
-10 -13 -20 -11 -85 17 -82 35 -144 41 -182 16 -35 -23 -196 -25 -196 -2 0 23
-48 42 -134 54 -98 14 -106 14 -112 -2z m179 -52 c25 -7 27 -10 21 -44 -4 -20
-21 -85 -38 -146 l-31 -110 -47 -3 -48 -3 0 159 c0 87 2 161 5 164 5 5 93 -6
138 -17z m777 -191 l0 -164 -43 0 -44 0 -50 138 c-27 75 -53 145 -57 154 -6
14 0 18 31 24 60 11 147 21 156 16 4 -2 7 -77 7 -168z m-321 127 c104 -42 102
-40 147 -168 28 -80 28 -83 10 -100 -14 -14 -20 -15 -23 -5 -3 7 -59 58 -126
114 l-120 101 -36 -13 c-20 -7 -49 -23 -64 -36 -31 -26 -44 -29 -66 -15 -27
17 29 103 94 143 43 26 78 22 184 -21z m-306 -47 c-34 -64 -27 -98 21 -114 38
-12 63 -5 120 34 l38 26 76 -63 c113 -92 175 -154 170 -169 -11 -32 -42 -18
-108 47 -58 57 -68 64 -79 51 -11 -13 -3 -26 54 -85 62 -64 65 -70 45 -76 -18
-6 -33 4 -79 49 -31 31 -62 56 -68 56 -30 0 -21 -27 27 -75 29 -29 49 -58 46
-64 -14 -23 -43 -9 -96 44 -30 30 -60 55 -67 55 -26 0 -12 -35 29 -77 41 -42
39 -55 -5 -31 -37 19 -180 134 -226 181 l-43 45 27 106 28 105 56 3 c31 2 57
3 58 2 2 0 -9 -23 -24 -50z"/>
</g>
</svg>
