<svg width="51" height="38" fill="none" xmlns="http://www.w3.org/2000/svg"><path d="M5.016 4.456a.893.893 0 1 0 0-1.785.893.893 0 0 0 0 1.785zM8.586 4.456a.893.893 0 1 0 0-1.785.893.893 0 0 0 0 1.785zM12.159 4.456a.893.893 0 1 0 0-1.785.893.893 0 0 0 0 1.785z" fill="#2166F3"/><path d="M46.087-.008H5.014A4.47 4.47 0 0 0 .551 4.456v28.572a4.47 4.47 0 0 0 4.464 4.464h41.072a4.47 4.47 0 0 0 4.464-4.464V4.456a4.47 4.47 0 0 0-4.465-4.464zM5.014 1.778h41.072a2.682 2.682 0 0 1 2.678 2.678v.893H2.337v-.893a2.682 2.682 0 0 1 2.678-2.678zm41.072 33.928H5.014a2.682 2.682 0 0 1-2.678-2.678V7.135h46.428v25.893a2.682 2.682 0 0 1-2.678 2.678z" fill="#2166F3"/><path d="m9.8 16.27-5.357 4.464a.893.893 0 0 0 0 1.372L9.8 26.571c.899.746 2.06-.61 1.143-1.373l-4.534-3.777 4.534-3.778c.905-.755-.232-2.13-1.143-1.373zm31.5 0c-.914-.756-2.047.618-1.143 1.372l4.534 3.779-4.534 3.777c-.916.765.243 2.12 1.144 1.373l5.357-4.465a.894.894 0 0 0 0-1.372L41.3 16.27zm-13.979.686h-2.323l.544-4.353c.146-1.177-1.628-1.388-1.772-.222l-1.562 12.5c-.146 1.17 1.624 1.41 1.771.222l.797-6.36h2.546a.892.892 0 0 1 .886 1.003l-.642 5.135c-.147 1.172 1.622 1.41 1.771.222l.642-5.136a2.678 2.678 0 0 0-2.658-3.01zm8.702 0h-1.75a2.692 2.692 0 0 0-2.662 2.345l-.696 5.58-.67 5.357c-.146 1.172 1.623 1.41 1.772.222l.571-4.575h2.99a2.692 2.692 0 0 0 2.661-2.345l.447-3.573a2.69 2.69 0 0 0-2.663-3.01zm.445 6.358a.903.903 0 0 1-.891.785H32.81l.571-4.572a.903.903 0 0 1 .892-.785h1.75c.542 0 .954.482.891 1.005l-.446 3.567zm-18.302-6.358h-1.75a2.694 2.694 0 0 0-2.663 2.345l-.696 5.58v.002l-.67 5.355c-.145 1.17 1.624 1.41 1.772.222l.572-4.575h2.988a2.694 2.694 0 0 0 2.663-2.345l.446-3.574a2.689 2.689 0 0 0-2.662-3.01zm.445 6.358a.904.904 0 0 1-.892.785h-2.766l.57-4.572a.903.903 0 0 1 .893-.785h1.75c.549 0 .953.491.89 1.005l-.445 3.567z" fill="#2166F3"/></svg>