<svg width="41" height="51" viewBox="0 0 41 51" fill="none" xmlns="http://www.w3.org/2000/svg">
<path d="M26.7923 5.72143L28.9826 2.07062C29.0419 1.97184 29.0811 1.86236 29.0981 1.74842C29.115 1.63448 29.1094 1.51832 29.0814 1.40657C29.0535 1.29481 29.0038 1.18965 28.9352 1.0971C28.8666 1.00454 28.7805 0.926401 28.6817 0.867134C28.583 0.807868 28.4735 0.768637 28.3595 0.751682C28.2456 0.734728 28.1294 0.740381 28.0177 0.76832C27.9059 0.796258 27.8008 0.845935 27.7082 0.914513C27.6157 0.983091 27.5375 1.06923 27.4782 1.16801L25.1669 5.02057C23.7906 4.5311 22.3169 4.25041 20.7749 4.25041C19.2328 4.25041 17.7591 4.5311 16.3828 5.02057L14.0715 1.16801C13.9518 0.968516 13.7577 0.824744 13.532 0.76832C13.3063 0.711895 13.0675 0.74744 12.868 0.867134C12.6685 0.986828 12.5247 1.18087 12.4683 1.40657C12.4119 1.63226 12.4474 1.87113 12.5671 2.07062L14.7574 5.72143C10.5233 7.90999 7.61719 12.3222 7.61719 17.4089C7.61719 17.6416 7.7096 17.8647 7.87411 18.0292C8.03861 18.1937 8.26172 18.2861 8.49437 18.2861H33.0553C33.288 18.2861 33.5111 18.1937 33.6756 18.0292C33.8401 17.8647 33.9325 17.6416 33.9325 17.4089C33.9316 12.3231 31.0264 7.91087 26.7923 5.72143ZM9.40487 16.5318C9.85399 10.6521 14.782 6.00564 20.7749 6.00564C26.7677 6.00564 31.6957 10.6521 32.1448 16.5318H9.40487Z" fill="#2166F3"/>
<path d="M26.8956 10.7099H25.7395C25.5862 10.7099 25.4392 10.7708 25.3308 10.8792C25.2224 10.9876 25.1615 11.1347 25.1615 11.288V12.4441C25.1615 12.7634 25.4202 13.0222 25.7395 13.0222H26.8965C27.0498 13.0222 27.1969 12.9613 27.3053 12.8529C27.4137 12.7445 27.4746 12.5974 27.4746 12.4441V11.288C27.4743 11.1346 27.4132 10.9876 27.3047 10.8792C27.1962 10.7708 27.049 10.7099 26.8956 10.7099ZM15.8107 10.7099H14.6537C14.5004 10.7099 14.3534 10.7708 14.245 10.8792C14.1366 10.9876 14.0757 11.1347 14.0757 11.288V12.4441C14.0757 12.7634 14.3345 13.0222 14.6537 13.0222H15.8107C15.9641 13.0222 16.1111 12.9613 16.2195 12.8529C16.3279 12.7445 16.3888 12.5974 16.3888 12.4441V11.288C16.3888 11.1347 16.3279 10.9876 16.2195 10.8792C16.1111 10.7708 15.9641 10.7099 15.8107 10.7099ZM33.0552 19.1633H8.49421C8.26157 19.1633 8.03845 19.2557 7.87395 19.4202C7.70945 19.5847 7.61703 19.8078 7.61703 20.0405V37.734C7.61889 38.8576 8.06637 39.9346 8.8613 40.7287C9.65623 41.5228 10.7337 41.9692 11.8573 41.9699H12.8801V47.2382C12.8801 49.1698 14.4538 50.7417 16.3888 50.7417C18.3239 50.7417 19.8975 49.1698 19.8975 47.2382V41.9699H21.6519V47.2382C21.6519 49.1698 23.2255 50.7417 25.1606 50.7417C27.0956 50.7417 28.6693 49.1698 28.6693 47.2382V41.9699H29.6921C30.8158 41.9694 31.8934 41.5232 32.6883 40.729C33.4833 39.9348 33.9307 38.8577 33.9324 37.734V20.0405C33.9324 19.8078 33.8399 19.5847 33.6754 19.4202C33.5109 19.2557 33.2878 19.1633 33.0552 19.1633ZM32.178 37.734C32.1768 38.3926 31.9144 39.0237 31.4483 39.489C30.9823 39.9543 30.3506 40.2156 29.6921 40.2156H27.7921C27.5595 40.2156 27.3364 40.308 27.1719 40.4725C27.0074 40.637 26.9149 40.8601 26.9149 41.0927V47.2382C26.9149 47.7035 26.7301 48.1498 26.4011 48.4788C26.0721 48.8078 25.6259 48.9926 25.1606 48.9926C24.6953 48.9926 24.2491 48.8078 23.9201 48.4788C23.5911 48.1498 23.4062 47.7035 23.4062 47.2382V41.0927C23.4062 40.8601 23.3138 40.637 23.1493 40.4725C22.9848 40.308 22.7617 40.2156 22.529 40.2156H19.0203C18.7877 40.2156 18.5646 40.308 18.4001 40.4725C18.2356 40.637 18.1432 40.8601 18.1432 41.0927V47.2382C18.1432 47.7035 17.9583 48.1498 17.6293 48.4788C17.3003 48.8078 16.8541 48.9926 16.3888 48.9926C15.9235 48.9926 15.4773 48.8078 15.1483 48.4788C14.8193 48.1498 14.6345 47.7035 14.6345 47.2382V41.0927C14.6345 40.8601 14.542 40.637 14.3775 40.4725C14.213 40.308 13.9899 40.2156 13.7573 40.2156H11.8582C11.1996 40.2153 10.568 39.954 10.1019 39.4888C9.6357 39.0236 9.37301 38.3926 9.37139 37.734V20.9176H32.178V37.734ZM37.8797 19.1633C36.1867 19.1633 34.8095 20.5422 34.8095 22.2369V34.5104C34.8095 36.2051 36.1867 37.584 37.8797 37.584C39.5726 37.584 40.9498 36.2051 40.9498 34.5104V22.2369C40.9493 21.4225 40.6258 20.6415 40.0503 20.0653C39.4747 19.4891 38.6941 19.1647 37.8797 19.1633ZM39.1954 34.5104C39.1954 35.2376 38.6051 35.8297 37.8797 35.8297C37.1542 35.8297 36.5639 35.2376 36.5639 34.5104V22.2369C36.5639 21.5097 37.1542 20.9176 37.8797 20.9176C38.6051 20.9176 39.1954 21.5097 39.1954 22.2369V34.5104ZM3.66973 19.1633C1.97678 19.1633 0.599609 20.5422 0.599609 22.2369V34.5104C0.599609 36.2051 1.97678 37.584 3.66973 37.584C5.36268 37.584 6.73985 36.2051 6.73985 34.5104V22.2369C6.73939 21.4225 6.41589 20.6415 5.84034 20.0653C5.26478 19.4891 4.48416 19.1647 3.66973 19.1633ZM4.9855 34.5104C4.9855 35.2376 4.39516 35.8297 3.66973 35.8297C2.94431 35.8297 2.35396 35.2376 2.35396 34.5104V22.2369C2.35396 21.5097 2.94431 20.9176 3.66973 20.9176C4.39516 20.9176 4.9855 21.5097 4.9855 22.2369V34.5104Z" fill="#2166F3"/>
</svg>
