<svg width="57" height="57" viewBox="0 0 57 57" fill="none" xmlns="http://www.w3.org/2000/svg">
<path d="M1.26663 42.2287H55.7333C56.1708 42.2287 56.5166 41.8829 56.5166 41.4453C56.5166 41.0078 56.1708 40.662 55.7333 40.662H1.26663C0.829125 40.662 0.483301 41.0078 0.483301 41.4453C0.483301 41.8829 0.829125 42.2287 1.26663 42.2287Z" fill="#2166F3" stroke="#2166F3" stroke-width="0.3"/>
<path d="M5.18063 47.5107H51.8193C54.4101 47.5107 56.5166 45.4042 56.5166 42.8133V14.7567C56.5166 12.1658 54.4101 10.0594 51.8193 10.0594H46.702C46.2645 10.0594 45.9186 10.4052 45.9186 10.8427C45.9186 11.2802 46.2645 11.626 46.702 11.626H51.8193C53.5478 11.626 54.95 13.0282 54.95 14.7567V42.8133C54.95 44.5418 53.5478 45.944 51.8193 45.944H5.18063C3.45214 45.944 2.04997 44.5418 2.04997 42.8133V14.7567C2.04997 13.0282 3.45214 11.626 5.18063 11.626H10.298C10.7355 11.626 11.0813 11.2802 11.0813 10.8427C11.0813 10.4052 10.7355 10.0594 10.298 10.0594H5.18063C2.58979 10.0594 0.483301 12.1658 0.483301 14.7567V42.8133C0.483301 45.4042 2.58979 47.5107 5.18063 47.5107Z" fill="#2166F3" stroke="#2166F3" stroke-width="0.3"/>
<path d="M32.7624 54.6505L32.7626 54.6509C32.9023 54.9146 33.1682 55.0727 33.4525 55.0727C33.5784 55.0727 33.6985 55.0413 33.8092 54.9998L33.8189 54.9962L33.828 54.9912C34.2009 54.7892 34.3603 54.3076 34.1548 53.9273C33.5502 52.7802 33.251 51.6675 33.251 50.5448C33.251 49.4218 33.5504 48.2797 34.1561 47.0743C34.3583 46.6841 34.2029 46.2128 33.8109 46.0232C33.4208 45.8217 32.9497 45.9776 32.7606 46.3698C31.3344 49.2101 31.3331 51.9335 32.7624 54.6505ZM22.857 53.9157L22.8568 53.9161C22.6535 54.3071 22.8102 54.7749 23.183 54.9778C23.2952 55.0415 23.4218 55.0727 23.5472 55.0727C23.8338 55.0727 24.0972 54.9128 24.2483 54.6408L24.2483 54.6409L24.2499 54.6378C25.6794 51.9205 25.678 49.1968 24.2513 46.3561C24.0612 45.9762 23.5912 45.8234 23.2036 46.0094L23.2036 46.0094L23.2014 46.0105C22.8214 46.2005 22.6685 46.6706 22.8546 47.0582L22.8546 47.0583L22.8556 47.0601C24.0512 49.4639 24.0495 51.6424 22.857 53.9157Z" fill="#2166F3" stroke="#2166F3" stroke-width="0.3"/>
<path d="M47.4979 35.4047V35.4033V4.66133C47.4979 3.14668 46.2649 1.92733 44.7639 1.92733H12.2485C10.7339 1.92733 9.51455 3.1603 9.51455 4.66133V35.4033C9.51455 36.918 10.7475 38.1373 12.2485 38.1373H44.7639C46.2666 38.1373 47.4845 36.9039 47.4979 35.4047ZM20.5452 55.0727H36.4545C36.8882 55.0727 37.2505 54.7307 37.2505 54.2893C37.2505 53.8518 36.9047 53.506 36.4672 53.506H20.5452C20.1077 53.506 19.7619 53.8518 19.7619 54.2893C19.7619 54.7268 20.1077 55.0727 20.5452 55.0727ZM11.0812 4.66133C11.0812 4.02217 11.6094 3.494 12.2485 3.494H44.7639C45.403 3.494 45.9312 4.02217 45.9312 4.66133V35.4033C45.9312 36.0425 45.403 36.5707 44.7639 36.5707H12.2485C11.6094 36.5707 11.0812 36.0425 11.0812 35.4033V4.66133Z" fill="#2166F3" stroke="#2166F3" stroke-width="0.3"/>
<path d="M10.2979 10.8407H46.7019C47.1355 10.8407 47.4979 10.4987 47.4979 10.0573C47.4979 9.61984 47.1521 9.27402 46.7146 9.27402H10.2979C9.86037 9.27402 9.51455 9.61984 9.51455 10.0573C9.51455 10.4949 9.86037 10.8407 10.2979 10.8407ZM12.8839 6.38402C12.8839 7.54353 13.825 8.48468 14.9846 8.48468C16.1441 8.48468 17.0852 7.54353 17.0852 6.38402C17.0852 5.22451 16.1441 4.28335 14.9846 4.28335C13.825 4.28335 12.8839 5.22451 12.8839 6.38402ZM14.4506 6.38402C14.4506 6.08686 14.6874 5.85002 14.9846 5.85002C15.2817 5.85002 15.5185 6.08686 15.5185 6.38402C15.5185 6.68117 15.2817 6.91802 14.9846 6.91802C14.6874 6.91802 14.4506 6.68117 14.4506 6.38402ZM18.1279 6.38402C18.1279 7.54353 19.069 8.48468 20.2285 8.48468C21.3881 8.48468 22.3292 7.54353 22.3292 6.38402C22.3292 5.22451 21.3881 4.28335 20.2285 4.28335C19.069 4.28335 18.1279 5.22451 18.1279 6.38402ZM19.6946 6.38402C19.6946 6.08686 19.9314 5.85002 20.2285 5.85002C20.5257 5.85002 20.7626 6.08686 20.7626 6.38402C20.7626 6.68117 20.5257 6.91802 20.2285 6.91802C19.9314 6.91802 19.6946 6.68117 19.6946 6.38402ZM23.3719 6.38402C23.3719 7.54353 24.313 8.48468 25.4726 8.48468C26.6321 8.48468 27.5732 7.54353 27.5732 6.38402C27.5732 5.22451 26.6321 4.28335 25.4726 4.28335C24.313 4.28335 23.3719 5.22451 23.3719 6.38402ZM24.9385 6.38402C24.9385 6.08686 25.1754 5.85002 25.4726 5.85002C25.7697 5.85002 26.0065 6.08686 26.0065 6.38402C26.0065 6.68117 25.7697 6.91802 25.4726 6.91802C25.1754 6.91802 24.9385 6.68117 24.9385 6.38402ZM30.0705 7.16735H37.9999C38.4228 7.16735 38.7832 6.82347 38.7832 6.38402C38.7832 5.94651 38.4374 5.60068 37.9999 5.60068H30.0705C29.633 5.60068 29.2872 5.94651 29.2872 6.38402C29.2872 6.82153 29.633 7.16735 30.0705 7.16735ZM41.2045 7.16735H43.3959C43.8334 7.16735 44.1792 6.82153 44.1792 6.38402C44.1792 5.94651 43.8334 5.60068 43.3959 5.60068H41.2045C40.767 5.60068 40.4212 5.94651 40.4212 6.38402C40.4212 6.82153 40.767 7.16735 41.2045 7.16735Z" fill="#2166F3" stroke="#2166F3" stroke-width="0.3"/>
<path d="M41.5232 7.48598C41.5232 7.92349 41.869 8.26932 42.3065 8.26932C42.7314 8.26932 43.0899 7.91083 43.0899 7.48598V5.29465C43.0899 4.85714 42.744 4.51132 42.3065 4.51132C41.869 4.51132 41.5232 4.85714 41.5232 5.29465V7.48598ZM25.6625 18.5546H46.7019C47.1355 18.5546 47.4979 18.2127 47.4979 17.7713C47.4979 17.3338 47.152 16.988 46.7145 16.988H25.6625C25.225 16.988 24.8792 17.3338 24.8792 17.7713C24.8792 18.2088 25.225 18.5546 25.6625 18.5546ZM10.2852 18.5546H14.7185C15.156 18.5546 15.5019 18.2088 15.5019 17.7713C15.5019 17.3338 15.156 16.988 14.7185 16.988H10.2852C9.84768 16.988 9.50186 17.3338 9.50186 17.7713C9.50186 18.2088 9.84768 18.5546 10.2852 18.5546Z" fill="#2166F3" stroke="#2166F3" stroke-width="0.3"/>
<path d="M13.9352 17.7714C13.9352 21.2235 16.7384 24.0267 20.1905 24.0267C23.6427 24.0267 26.4459 21.2235 26.4459 17.7714C26.4459 14.3192 23.6427 11.516 20.1905 11.516C16.7384 11.516 13.9352 14.3192 13.9352 17.7714ZM15.5019 17.784C15.5019 15.1944 17.6131 13.0953 20.1905 13.0953C22.768 13.0953 24.8792 15.1944 24.8792 17.784C24.8792 20.3738 22.7804 22.4727 20.1905 22.4727C17.6007 22.4727 15.5019 20.3738 15.5019 17.784Z" fill="#2166F3" stroke="#2166F3" stroke-width="0.3"/>
<path d="M20.102 18.7993V18.7993L20.0999 18.7994C18.2839 18.8255 16.6509 19.8445 15.8149 21.4503C15.6113 21.8276 15.7535 22.2975 16.1416 22.5011C16.2535 22.5644 16.3797 22.5953 16.5047 22.5953C16.7869 22.5953 17.0636 22.4396 17.2167 22.1794L17.2169 22.1795L17.2209 22.1716C17.7776 21.0826 18.9039 20.3908 20.1415 20.366H20.2526C21.4895 20.3908 22.6163 21.082 23.1858 22.1717C23.3757 22.5496 23.8593 22.7056 24.2373 22.5024C24.6149 22.312 24.7704 21.8283 24.5666 21.4504C23.7303 19.8442 22.0844 18.8255 20.2689 18.7994V18.7993H20.2667H20.102Z" fill="#2166F3" stroke="#2166F3" stroke-width="0.3"/>
<path d="M17.2286 17.404C17.2286 19.0317 18.5493 20.366 20.1906 20.366C21.8188 20.366 23.1526 19.0322 23.1526 17.404C23.1526 15.7758 21.8188 14.442 20.1906 14.442C18.5625 14.442 17.2286 15.7758 17.2286 17.404ZM18.7953 17.3913C18.7953 16.6255 19.4248 15.996 20.1906 15.996C20.9565 15.996 21.586 16.6255 21.586 17.3913C21.586 18.1571 20.9565 18.7866 20.1906 18.7866C19.4248 18.7866 18.7953 18.1571 18.7953 17.3913ZM30.2606 34.9073H41.4326C43.0228 34.9073 44.3186 33.6115 44.3186 32.0213V28.4493C44.3186 26.8591 43.0228 25.5633 41.4326 25.5633H30.2606C28.6705 25.5633 27.3746 26.8591 27.3746 28.4493V32.0213C27.3746 33.6115 28.6705 34.9073 30.2606 34.9073ZM28.9413 28.462C28.9413 27.7342 29.5328 27.1426 30.2606 27.1426H41.4326C42.1605 27.1426 42.752 27.7342 42.752 28.462V32.034C42.752 32.7618 42.1605 33.3533 41.4326 33.3533H30.2606C29.5328 33.3533 28.9413 32.7618 28.9413 32.034V28.462ZM29.716 23.14H41.9773C42.4148 23.14 42.7606 22.7942 42.7606 22.3566C42.7606 21.9191 42.4148 21.5733 41.9773 21.5733H29.716C29.2785 21.5733 28.9326 21.9191 28.9326 22.3566C28.9326 22.7942 29.2785 23.14 29.716 23.14ZM13.4646 31.0186H24.4466C24.8841 31.0186 25.23 30.6728 25.23 30.2353C25.23 29.7978 24.8841 29.452 24.4466 29.452H13.4646C13.0271 29.452 12.6813 29.7978 12.6813 30.2353C12.6813 30.6728 13.0271 31.0186 13.4646 31.0186ZM13.4646 27.5986H24.4466C24.8841 27.5986 25.23 27.2528 25.23 26.8153C25.23 26.3778 24.8841 26.032 24.4466 26.032H13.4646C13.0271 26.032 12.6813 26.3778 12.6813 26.8153C12.6813 27.2528 13.0271 27.5986 13.4646 27.5986ZM13.4646 34.4386H24.4466C24.8841 34.4386 25.23 34.0928 25.23 33.6553C25.23 33.2178 24.8841 32.872 24.4466 32.872H13.4646C13.0271 32.872 12.6813 33.2178 12.6813 33.6553C12.6813 34.0928 13.0271 34.4386 13.4646 34.4386Z" fill="#2166F3" stroke="#2166F3" stroke-width="0.3"/>
</svg>
