<svg width="54" height="54" viewBox="0 0 54 54" fill="none" xmlns="http://www.w3.org/2000/svg">
<g clip-path="url(#clip0_2493_181)">
<path d="M13.052 5.35925C12.5059 5.35925 12.0631 5.80166 12.0631 6.34782C12.0631 6.89398 12.5059 7.33662 13.052 7.33662H13.0613C13.6074 7.33662 14.0452 6.8939 14.0452 6.34782C14.0452 5.80174 13.5982 5.35925 13.052 5.35925ZM25.3079 45.503C24.7619 45.503 24.3191 45.946 24.3191 46.4919C24.3191 47.038 24.7619 47.4804 25.3079 47.4804H25.3173C25.8634 47.4804 26.3015 47.038 26.3015 46.4919C26.3015 45.946 25.8541 45.503 25.3079 45.503ZM12.2473 15.5839L8.85824 13.6292C8.19383 13.2462 7.40032 13.2465 6.73591 13.6301C6.07182 14.0137 5.67554 14.7007 5.67554 15.4679V19.3762C5.67554 20.1431 6.07182 20.83 6.73559 21.2134C7.06815 21.4059 7.43281 21.5016 7.79755 21.5016C8.16166 21.5016 8.52536 21.4062 8.85761 21.2146L12.2465 19.261C12.9117 18.8778 13.309 18.1905 13.309 17.4227C13.309 16.6552 12.9121 15.9675 12.2473 15.5839ZM11.2588 17.548L7.86999 19.5016C7.852 19.5119 7.79787 19.5434 7.72511 19.5016C7.65299 19.4601 7.65299 19.397 7.65299 19.3762V15.4679C7.65299 15.4474 7.65299 15.3843 7.72511 15.3428C7.75261 15.3267 7.77742 15.3214 7.79882 15.3214C7.83345 15.3214 7.85882 15.336 7.86999 15.3428L11.2595 17.2969C11.2771 17.3075 11.3316 17.339 11.3316 17.4227C11.3316 17.5063 11.2771 17.5376 11.2588 17.548Z" fill="#2166F3"/>
<path d="M50.1304 30.1867L48.5976 29.3012C48.6369 28.9706 48.6564 28.6371 48.6564 28.3034C48.6564 27.9699 48.6369 27.6359 48.5976 27.3053L50.1304 26.4202C50.2429 26.3553 50.3416 26.2689 50.4207 26.1659C50.4998 26.0629 50.5578 25.9453 50.5913 25.8198C50.6592 25.5662 50.6235 25.2963 50.4923 25.0694L48.1787 21.0614C47.9053 20.5885 47.301 20.4264 46.8282 20.6994L45.2948 21.5846C44.7608 21.1831 44.1804 20.8475 43.566 20.5851V18.8161C43.566 18.2701 43.1233 17.8273 42.5772 17.8273H42.5174V3.97471C42.5174 1.79429 40.7428 0.0196533 38.562 0.0196533H12.0631C9.88226 0.0196533 8.10802 1.79421 8.10802 3.97471V9.3143H0.988884C0.442727 9.3143 0 9.75671 0 10.3029V24.5412C0 25.0873 0.442727 25.53 0.988884 25.53H8.10794V46.6894C8.10794 48.8705 9.88218 50.6444 12.063 50.6444H38.5619C40.7427 50.6444 42.5173 48.8704 42.5173 46.6894V38.7791H42.5768C43.1228 38.7791 43.5653 38.3367 43.5653 37.7905V36.0218C44.1798 35.7591 44.7604 35.4235 45.2947 35.0222L46.8275 35.907C47.3009 36.18 47.9053 36.0184 48.1783 35.545L50.4922 31.5377C50.7653 31.0643 50.6034 30.4596 50.1303 30.1866L50.1304 30.1867ZM1.97769 11.2918H16.6114V23.5527H1.97769V11.2918ZM38.562 48.6671H12.0631C10.9727 48.6671 10.0854 47.78 10.0854 46.6894V44.3163H40.5397V46.6894C40.5397 47.78 39.6524 48.6671 38.562 48.6671ZM40.5397 42.3389H10.0854V25.53H17.6002C18.1463 25.53 18.5891 25.0873 18.5891 24.5412V10.3029C18.5891 9.75679 18.1463 9.3143 17.6002 9.3143H10.0854V3.97479C10.0854 2.88438 10.9727 1.99734 12.0631 1.99734H38.562C39.6524 1.99734 40.5397 2.88438 40.5397 3.97479V5.35924H17.0164C16.4699 5.35924 16.0275 5.80165 16.0275 6.34781C16.0275 6.89397 16.4699 7.33662 17.0163 7.33662H40.5397V17.8273H37.9487C37.4032 17.8273 36.9602 18.2701 36.9602 18.8161V20.5851C36.3458 20.8476 35.7654 21.1831 35.2313 21.5846L33.6983 20.6994C33.2251 20.4264 32.6202 20.5885 32.3475 21.0613L30.0335 25.0693C29.9685 25.1818 29.9263 25.306 29.9094 25.4347C29.8924 25.5635 29.9011 25.6944 29.9348 25.8199C29.9684 25.9453 30.0263 26.0629 30.1054 26.1659C30.1844 26.2689 30.283 26.3553 30.3955 26.4202L31.9286 27.3053C31.8894 27.6365 31.8696 27.9698 31.8694 28.3034C31.8694 28.6371 31.889 28.9706 31.9286 29.3018L30.3955 30.187C29.9224 30.46 29.7605 31.0644 30.0335 31.5378L32.3475 35.5451C32.6202 36.0179 33.2252 36.1801 33.6983 35.9071L35.2313 35.0223C35.7655 35.4235 36.3459 35.7592 36.9602 36.0219V37.7906C36.9602 38.3368 37.4032 38.7792 37.9487 38.7792H40.5397V42.3389ZM46.5447 26.9907C46.634 27.4226 46.6791 27.8624 46.679 28.3034C46.679 28.7448 46.6338 29.1867 46.5447 29.6158C46.5023 29.8194 46.5253 30.0313 46.6103 30.2211C46.6952 30.411 46.8379 30.5692 47.018 30.6734L48.2858 31.4049L46.9604 33.7003L45.6914 32.9675C45.5111 32.8633 45.3025 32.8189 45.0954 32.8403C44.8883 32.8618 44.6933 32.9481 44.5382 33.087C43.8737 33.6808 43.1103 34.1229 42.2682 34.3993C42.0704 34.4643 41.8981 34.5901 41.776 34.7588C41.6538 34.9275 41.5881 35.1304 41.588 35.3387V36.8017H38.9375V35.3387C38.9376 35.1304 38.8719 34.9275 38.7498 34.7588C38.6278 34.5901 38.4555 34.4643 38.2577 34.3993C37.4159 34.1222 36.6521 33.6808 35.9878 33.087C35.8326 32.9481 35.6375 32.8617 35.4303 32.8403C35.2232 32.8188 35.0146 32.8633 34.8342 32.9675L33.5655 33.7003L32.24 31.405L33.5075 30.6734C33.6877 30.5693 33.8305 30.4111 33.9155 30.2212C34.0006 30.0314 34.0236 29.8195 33.9812 29.6158C33.8918 29.184 33.8468 28.7443 33.8469 28.3034C33.8469 27.8619 33.8921 27.4198 33.9812 26.9907C34.0236 26.7871 34.0006 26.5752 33.9155 26.3854C33.8305 26.1956 33.6877 26.0374 33.5075 25.9334L32.24 25.2019L33.5655 22.9062L34.8342 23.639C35.0145 23.7431 35.2231 23.7877 35.4302 23.7663C35.6374 23.7449 35.8325 23.6586 35.9877 23.5198C36.6521 22.9254 37.4159 22.484 38.2577 22.2071C38.4555 22.1421 38.6277 22.0163 38.7497 21.8476C38.8718 21.6789 38.9375 21.4761 38.9375 21.2679V19.805H41.588V21.2679C41.588 21.4761 41.6537 21.6791 41.7759 21.8477C41.898 22.0164 42.0703 22.1422 42.2682 22.2071C43.1097 22.484 43.8735 22.9257 44.5378 23.5198C44.6931 23.6586 44.8882 23.7448 45.0953 23.7662C45.3024 23.7877 45.511 23.7431 45.6914 23.639L46.9601 22.9062L48.2854 25.2019L47.018 25.9338C46.8379 26.0378 46.6953 26.1959 46.6103 26.3857C46.5253 26.5754 46.5023 26.7872 46.5447 26.9907Z" fill="#2166F3"/>
<path d="M40.2632 23.9901C37.8846 23.9901 35.9499 25.9251 35.9499 28.3034C35.9499 30.6814 37.8846 32.6164 40.2632 32.6164C42.6412 32.6164 44.5759 30.6814 44.5759 28.3034C44.5759 25.9251 42.6412 23.9901 40.2632 23.9901ZM40.2632 30.639C38.975 30.639 37.9276 29.5913 37.9276 28.3034C37.9276 27.0155 38.975 25.9679 40.2632 25.9679C41.5508 25.9679 42.5988 27.0155 42.5988 28.3034C42.5988 29.5913 41.5508 30.6391 40.2632 30.6391V30.639ZM27.4877 32.847H14.2054C13.6594 32.847 13.2166 33.2897 13.2166 33.8359C13.2166 34.3817 13.6594 34.8245 14.2054 34.8245H27.4877C28.0338 34.8245 28.4766 34.3817 28.4766 33.8359C28.4766 33.2898 28.0339 32.847 27.4877 32.847ZM20.8466 36.8022H14.2051C13.659 36.8022 13.2163 37.2449 13.2163 37.7906C13.2163 38.3368 13.659 38.7792 14.2051 38.7792H20.8466C21.3927 38.7792 21.8351 38.3368 21.8351 37.7906C21.8351 37.2449 21.3927 36.8022 20.8466 36.8022ZM24.8011 36.8022C24.5414 36.8022 24.2859 36.9077 24.102 37.0919C23.9182 37.2758 23.8125 37.5306 23.8125 37.7906C23.8125 38.0507 23.9181 38.3058 24.102 38.4897C24.288 38.6742 24.5391 38.7782 24.8011 38.7792C25.0635 38.7787 25.3151 38.6747 25.5014 38.4898C25.6853 38.3059 25.7899 38.0507 25.7899 37.7907C25.7899 37.5308 25.6853 37.2758 25.5014 37.0919C25.3152 36.9069 25.0635 36.8028 24.8011 36.8022ZM22.9067 11.2918H36.1889C36.7354 11.2918 37.1778 10.8491 37.1778 10.3029C37.1778 9.75674 36.7354 9.31433 36.1889 9.31433H22.9067C22.3605 9.31433 21.9178 9.75674 21.9178 10.3029C21.9178 10.8491 22.3605 11.2918 22.9067 11.2918ZM30.5363 14.258C30.5363 13.7119 30.0939 13.2695 29.5478 13.2695H22.9064C22.3602 13.2695 21.9175 13.7119 21.9175 14.258C21.9175 14.804 22.3602 15.2468 22.9064 15.2468H29.5478C30.0939 15.2468 30.5363 14.8041 30.5363 14.258Z" fill="#2166F3"/>
</g>
<defs>
<clipPath id="clip0_2493_181">
<rect width="54" height="54" fill="white"/>
</clipPath>
</defs>
</svg>
