<svg width="57" height="57" viewBox="0 0 57 57" fill="none" xmlns="http://www.w3.org/2000/svg">
<path d="M5.06659 46.534H51.9333C54.5793 46.534 56.7433 44.3701 56.7433 41.724V13.5407C56.7433 10.895 54.5924 8.73065 51.9333 8.73065C51.4405 8.73065 51.0499 9.12125 51.0499 9.61399C51.0499 10.1067 51.4405 10.4973 51.9333 10.4973C53.6071 10.4973 54.9766 11.8553 54.9766 13.5407V41.724C54.9766 43.3979 53.6186 44.7673 51.9333 44.7673H5.06659C3.3927 44.7673 2.02326 43.4093 2.02326 41.724V13.5407C2.02326 11.8668 3.38129 10.4973 5.06659 10.4973H25.0546C25.5473 10.4973 25.9379 10.1067 25.9379 9.61399C25.9379 9.12125 25.5473 8.73065 25.0546 8.73065H5.06659C2.42097 8.73065 0.256592 10.8815 0.256592 13.5407V41.724C0.256592 44.3696 2.4074 46.534 5.06659 46.534Z" fill="#2166F3" stroke="#2166F3" stroke-width="0.5"/>
<path d="M22.7436 52.8301L22.7429 52.8313C22.5138 53.2719 22.6907 53.7981 23.1092 54.0265C23.237 54.099 23.3806 54.134 23.522 54.134C23.8477 54.134 24.1433 53.9519 24.3106 53.6508L24.3106 53.6508L24.3135 53.6453C25.7584 50.8857 25.756 48.1156 24.3156 45.2349C24.1003 44.8041 23.5702 44.6338 23.1352 44.8426L23.1352 44.8426L23.1316 44.8444C22.7008 45.0598 22.5305 45.5899 22.7393 46.0249L22.7393 46.0249L22.7409 46.028C23.9357 48.43 23.9327 50.5744 22.7436 52.8301ZM32.6997 53.6588L32.6998 53.659C32.8565 53.955 33.1562 54.134 33.478 54.134C33.6203 54.134 33.753 54.0986 33.8698 54.0548L33.886 54.0487L33.9011 54.0405C34.32 53.8136 34.5011 53.273 34.2687 52.8419C33.6706 51.7006 33.3765 50.5974 33.3765 49.4871C33.3765 48.3763 33.6708 47.2433 34.2709 46.0427C34.4978 45.6037 34.3232 45.0716 33.8812 44.857C33.442 44.6311 32.9102 44.8064 32.6964 45.249C31.2441 48.1417 31.2418 50.8992 32.6997 53.6588Z" fill="#2166F3" stroke="#2166F3" stroke-width="0.5"/>
<path d="M47.6282 12.9188L47.6277 12.919C45.21 13.9783 41.9528 14.57 38.494 14.57C35.0349 14.57 31.7905 13.9909 29.3602 12.9316C28.2509 12.4455 27.3906 11.8909 26.8114 11.3132C26.2315 10.7348 25.9507 10.1519 25.9507 9.60133C25.9507 9.05007 26.229 8.46709 26.8069 7.88919C27.3842 7.31184 28.2442 6.75736 29.3596 6.27129C31.778 5.22425 35.0229 4.63266 38.494 4.63266C41.9647 4.63266 45.2098 5.2241 47.6287 6.25874C48.7376 6.74477 49.5976 7.29924 50.1766 7.87675C50.7566 8.45516 51.0374 9.03809 51.0374 9.58866C51.0374 10.1399 50.7591 10.7229 50.1812 11.3008C49.6038 11.8782 48.7437 12.4327 47.6282 12.9188ZM20.5074 54.134H36.4927C36.9854 54.134 37.376 53.7434 37.376 53.2507C37.376 52.7579 36.9854 52.3673 36.4927 52.3673H20.5074C20.0146 52.3673 19.624 52.7579 19.624 53.2507C19.624 53.7434 20.0146 54.134 20.5074 54.134ZM24.1714 9.614C24.1714 11.5858 25.8401 13.2699 28.3938 14.447C30.9661 15.6325 34.5218 16.3493 38.494 16.3493C42.4664 16.3493 46.0222 15.6293 48.5945 14.4405C51.1482 13.2603 52.8167 11.573 52.8167 9.60133C52.8167 7.62931 51.1477 5.94842 48.594 4.77459C46.0218 3.59223 42.4661 2.87866 38.494 2.87866C34.5218 2.87866 30.9661 3.59544 28.3938 4.78103C25.8401 5.95807 24.1714 7.64217 24.1714 9.614ZM24.1714 16.7707C24.1714 18.7425 25.8401 20.4266 28.3938 21.6036C30.9661 22.7892 34.5218 23.506 38.494 23.506C42.4663 23.506 46.022 22.7892 48.5943 21.6036C51.148 20.4266 52.8167 18.7425 52.8167 16.7707C52.8167 16.2779 52.4261 15.8873 51.9334 15.8873C51.4406 15.8873 51.05 16.2779 51.05 16.7707C51.05 17.3123 50.7734 17.894 50.1992 18.4735C49.6259 19.052 48.7731 19.6099 47.6699 20.0965C45.4647 21.0692 42.299 21.7393 38.494 21.7393C34.689 21.7393 31.5233 21.0692 29.3182 20.0965C28.215 19.6099 27.3621 19.052 26.7889 18.4735C26.2146 17.894 25.938 17.3123 25.938 16.7707C25.938 16.2779 25.5474 15.8873 25.0547 15.8873C24.562 15.8873 24.1714 16.2779 24.1714 16.7707ZM24.1714 23.94C24.1714 25.9118 25.8401 27.5959 28.3938 28.773C30.9661 29.9585 34.5218 30.6753 38.494 30.6753C42.4663 30.6753 46.022 29.9585 48.5943 28.773C51.148 27.5959 52.8167 25.9118 52.8167 23.94C52.8167 23.4473 52.4261 23.0567 51.9334 23.0567C51.4406 23.0567 51.05 23.4473 51.05 23.94C51.05 24.4817 50.7734 25.0633 50.1992 25.6429C49.6259 26.2214 48.7731 26.7793 47.6699 27.2658C45.4647 28.2385 42.299 28.9087 38.494 28.9087C34.689 28.9087 31.5233 28.2385 29.3182 27.2658C28.215 26.7793 27.3621 26.2214 26.7889 25.6429C26.2146 25.0633 25.938 24.4817 25.938 23.94C25.938 23.4473 25.5474 23.0567 25.0547 23.0567C24.562 23.0567 24.1714 23.4473 24.1714 23.94Z" fill="#2166F3" stroke="#2166F3" stroke-width="0.5"/>
<mask id="path-4-outside-1_2493_175" maskUnits="userSpaceOnUse" x="4.15527" y="7.96802" width="49" height="33" fill="black">
<rect fill="white" x="4.15527" y="7.96802" width="49" height="33"/>
<path d="M25.0546 24.5733C24.6999 24.5733 24.4213 24.2947 24.4213 23.94V9.60135C24.4213 9.24668 24.6999 8.96802 25.0546 8.96802C25.4093 8.96802 25.6879 9.24668 25.6879 9.60135V23.94C25.6879 24.282 25.4093 24.5733 25.0546 24.5733ZM51.9333 24.5733C51.5786 24.5733 51.2999 24.2947 51.2999 23.94V9.60135C51.2999 9.24668 51.5786 8.96802 51.9333 8.96802C52.2879 8.96802 52.5666 9.24668 52.5666 9.60135V23.94C52.5666 24.282 52.2753 24.5733 51.9333 24.5733ZM10.2093 29.2854C10.0699 29.2854 9.93061 29.2347 9.80394 29.146L5.38327 25.536C5.23127 25.422 5.15527 25.232 5.15527 25.042C5.15527 24.852 5.24394 24.6747 5.38327 24.548L9.80394 20.938C10.0699 20.7227 10.4753 20.7607 10.6906 21.0267C10.9059 21.2927 10.8679 21.698 10.6019 21.9134L6.77661 25.042L10.6019 28.1707C10.8679 28.386 10.9186 28.7913 10.6906 29.0574C10.5766 29.2093 10.3866 29.2854 10.2093 29.2854ZM18.1893 29.2854C18.0119 29.2854 17.8219 29.2093 17.6953 29.0574C17.4799 28.7913 17.5179 28.386 17.7839 28.1707L21.5966 25.042L17.7839 21.9134C17.5179 21.698 17.4673 21.2927 17.6953 21.0267C17.9233 20.7607 18.3159 20.71 18.5819 20.938L23.0026 24.548C23.1546 24.662 23.2306 24.852 23.2306 25.042C23.2306 25.232 23.1419 25.4094 23.0026 25.536L18.5819 29.146C18.4806 29.2347 18.3286 29.2854 18.1893 29.2854ZM13.0719 29.8807C13.0213 29.8807 12.9579 29.868 12.9073 29.8554C12.5653 29.7667 12.3626 29.412 12.4639 29.0827L14.7186 20.6594C14.8073 20.3174 15.1619 20.1147 15.4913 20.216C15.8333 20.3047 16.0359 20.6594 15.9346 20.9887L13.6799 29.412C13.6039 29.6907 13.3506 29.8807 13.0719 29.8807ZM16.3779 35.416H6.06727C5.71261 35.416 5.43394 35.1374 5.43394 34.7827C5.43394 34.428 5.71261 34.1494 6.06727 34.1494H16.3779C16.7326 34.1494 17.0113 34.428 17.0113 34.7827C17.0113 35.1374 16.7199 35.416 16.3779 35.416ZM23.7499 35.416H20.0006C19.6459 35.416 19.3673 35.1374 19.3673 34.7827C19.3673 34.428 19.6459 34.1494 20.0006 34.1494H23.7499C24.1046 34.1494 24.3833 34.428 24.3833 34.7827C24.3833 35.1374 24.1046 35.416 23.7499 35.416ZM34.4153 35.416H30.6659C30.3113 35.416 30.0326 35.1374 30.0326 34.7827C30.0326 34.428 30.3113 34.1494 30.6659 34.1494H34.4153C34.7699 34.1494 35.0486 34.428 35.0486 34.7827C35.0486 35.1374 34.7573 35.416 34.4153 35.416ZM51.1606 35.416H38.0506C37.6959 35.416 37.4173 35.1374 37.4173 34.7827C37.4173 34.428 37.6959 34.1494 38.0506 34.1494H51.1733C51.5279 34.1494 51.8066 34.428 51.8066 34.7827C51.8066 35.1374 51.5153 35.416 51.1606 35.416ZM13.4646 40.0773H6.06727C5.71261 40.0773 5.43394 39.7987 5.43394 39.444C5.43394 39.0893 5.71261 38.8107 6.06727 38.8107H13.4646C13.8193 38.8107 14.0979 39.0893 14.0979 39.444C14.0979 39.7987 13.8066 40.0773 13.4646 40.0773ZM35.4793 40.0773H17.3913C17.0366 40.0773 16.7579 39.7987 16.7579 39.444C16.7579 39.0893 17.0366 38.8107 17.3913 38.8107H35.4793C35.8339 38.8107 36.1126 39.0893 36.1126 39.444C36.1126 39.7987 35.8339 40.0773 35.4793 40.0773ZM43.4846 40.0773H40.2166C39.8619 40.0773 39.5833 39.7987 39.5833 39.444C39.5833 39.0893 39.8619 38.8107 40.2166 38.8107H43.4846C43.8393 38.8107 44.1179 39.0893 44.1179 39.444C44.1179 39.7987 43.8266 40.0773 43.4846 40.0773ZM51.2113 40.0773H47.9433C47.5886 40.0773 47.3099 39.7987 47.3099 39.444C47.3099 39.0893 47.5886 38.8107 47.9433 38.8107H51.2113C51.5659 38.8107 51.8446 39.0893 51.8446 39.444C51.8446 39.7987 51.5533 40.0773 51.2113 40.0773ZM21.0393 16.4414H13.8066C13.4519 16.4414 13.1733 16.1627 13.1733 15.808C13.1733 15.4534 13.4519 15.1747 13.8066 15.1747H21.0393C21.3939 15.1747 21.6726 15.4534 21.6726 15.808C21.6726 16.1627 21.3939 16.4414 21.0393 16.4414ZM9.86727 16.4414H6.06727C5.71261 16.4414 5.43394 16.1627 5.43394 15.808C5.43394 15.4534 5.71261 15.1747 6.06727 15.1747H9.87994C10.2346 15.1747 10.5133 15.4534 10.5133 15.808C10.5133 16.1627 10.2219 16.4414 9.86727 16.4414Z"/>
</mask>
<path d="M25.0546 24.5733C24.6999 24.5733 24.4213 24.2947 24.4213 23.94V9.60135C24.4213 9.24668 24.6999 8.96802 25.0546 8.96802C25.4093 8.96802 25.6879 9.24668 25.6879 9.60135V23.94C25.6879 24.282 25.4093 24.5733 25.0546 24.5733ZM51.9333 24.5733C51.5786 24.5733 51.2999 24.2947 51.2999 23.94V9.60135C51.2999 9.24668 51.5786 8.96802 51.9333 8.96802C52.2879 8.96802 52.5666 9.24668 52.5666 9.60135V23.94C52.5666 24.282 52.2753 24.5733 51.9333 24.5733ZM10.2093 29.2854C10.0699 29.2854 9.93061 29.2347 9.80394 29.146L5.38327 25.536C5.23127 25.422 5.15527 25.232 5.15527 25.042C5.15527 24.852 5.24394 24.6747 5.38327 24.548L9.80394 20.938C10.0699 20.7227 10.4753 20.7607 10.6906 21.0267C10.9059 21.2927 10.8679 21.698 10.6019 21.9134L6.77661 25.042L10.6019 28.1707C10.8679 28.386 10.9186 28.7913 10.6906 29.0574C10.5766 29.2093 10.3866 29.2854 10.2093 29.2854ZM18.1893 29.2854C18.0119 29.2854 17.8219 29.2093 17.6953 29.0574C17.4799 28.7913 17.5179 28.386 17.7839 28.1707L21.5966 25.042L17.7839 21.9134C17.5179 21.698 17.4673 21.2927 17.6953 21.0267C17.9233 20.7607 18.3159 20.71 18.5819 20.938L23.0026 24.548C23.1546 24.662 23.2306 24.852 23.2306 25.042C23.2306 25.232 23.1419 25.4094 23.0026 25.536L18.5819 29.146C18.4806 29.2347 18.3286 29.2854 18.1893 29.2854ZM13.0719 29.8807C13.0213 29.8807 12.9579 29.868 12.9073 29.8554C12.5653 29.7667 12.3626 29.412 12.4639 29.0827L14.7186 20.6594C14.8073 20.3174 15.1619 20.1147 15.4913 20.216C15.8333 20.3047 16.0359 20.6594 15.9346 20.9887L13.6799 29.412C13.6039 29.6907 13.3506 29.8807 13.0719 29.8807ZM16.3779 35.416H6.06727C5.71261 35.416 5.43394 35.1374 5.43394 34.7827C5.43394 34.428 5.71261 34.1494 6.06727 34.1494H16.3779C16.7326 34.1494 17.0113 34.428 17.0113 34.7827C17.0113 35.1374 16.7199 35.416 16.3779 35.416ZM23.7499 35.416H20.0006C19.6459 35.416 19.3673 35.1374 19.3673 34.7827C19.3673 34.428 19.6459 34.1494 20.0006 34.1494H23.7499C24.1046 34.1494 24.3833 34.428 24.3833 34.7827C24.3833 35.1374 24.1046 35.416 23.7499 35.416ZM34.4153 35.416H30.6659C30.3113 35.416 30.0326 35.1374 30.0326 34.7827C30.0326 34.428 30.3113 34.1494 30.6659 34.1494H34.4153C34.7699 34.1494 35.0486 34.428 35.0486 34.7827C35.0486 35.1374 34.7573 35.416 34.4153 35.416ZM51.1606 35.416H38.0506C37.6959 35.416 37.4173 35.1374 37.4173 34.7827C37.4173 34.428 37.6959 34.1494 38.0506 34.1494H51.1733C51.5279 34.1494 51.8066 34.428 51.8066 34.7827C51.8066 35.1374 51.5153 35.416 51.1606 35.416ZM13.4646 40.0773H6.06727C5.71261 40.0773 5.43394 39.7987 5.43394 39.444C5.43394 39.0893 5.71261 38.8107 6.06727 38.8107H13.4646C13.8193 38.8107 14.0979 39.0893 14.0979 39.444C14.0979 39.7987 13.8066 40.0773 13.4646 40.0773ZM35.4793 40.0773H17.3913C17.0366 40.0773 16.7579 39.7987 16.7579 39.444C16.7579 39.0893 17.0366 38.8107 17.3913 38.8107H35.4793C35.8339 38.8107 36.1126 39.0893 36.1126 39.444C36.1126 39.7987 35.8339 40.0773 35.4793 40.0773ZM43.4846 40.0773H40.2166C39.8619 40.0773 39.5833 39.7987 39.5833 39.444C39.5833 39.0893 39.8619 38.8107 40.2166 38.8107H43.4846C43.8393 38.8107 44.1179 39.0893 44.1179 39.444C44.1179 39.7987 43.8266 40.0773 43.4846 40.0773ZM51.2113 40.0773H47.9433C47.5886 40.0773 47.3099 39.7987 47.3099 39.444C47.3099 39.0893 47.5886 38.8107 47.9433 38.8107H51.2113C51.5659 38.8107 51.8446 39.0893 51.8446 39.444C51.8446 39.7987 51.5533 40.0773 51.2113 40.0773ZM21.0393 16.4414H13.8066C13.4519 16.4414 13.1733 16.1627 13.1733 15.808C13.1733 15.4534 13.4519 15.1747 13.8066 15.1747H21.0393C21.3939 15.1747 21.6726 15.4534 21.6726 15.808C21.6726 16.1627 21.3939 16.4414 21.0393 16.4414ZM9.86727 16.4414H6.06727C5.71261 16.4414 5.43394 16.1627 5.43394 15.808C5.43394 15.4534 5.71261 15.1747 6.06727 15.1747H9.87994C10.2346 15.1747 10.5133 15.4534 10.5133 15.808C10.5133 16.1627 10.2219 16.4414 9.86727 16.4414Z" fill="#2166F3"/>
<path d="M25.0546 24.5733C24.6999 24.5733 24.4213 24.2947 24.4213 23.94V9.60135C24.4213 9.24668 24.6999 8.96802 25.0546 8.96802C25.4093 8.96802 25.6879 9.24668 25.6879 9.60135V23.94C25.6879 24.282 25.4093 24.5733 25.0546 24.5733ZM51.9333 24.5733C51.5786 24.5733 51.2999 24.2947 51.2999 23.94V9.60135C51.2999 9.24668 51.5786 8.96802 51.9333 8.96802C52.2879 8.96802 52.5666 9.24668 52.5666 9.60135V23.94C52.5666 24.282 52.2753 24.5733 51.9333 24.5733ZM10.2093 29.2854C10.0699 29.2854 9.93061 29.2347 9.80394 29.146L5.38327 25.536C5.23127 25.422 5.15527 25.232 5.15527 25.042C5.15527 24.852 5.24394 24.6747 5.38327 24.548L9.80394 20.938C10.0699 20.7227 10.4753 20.7607 10.6906 21.0267C10.9059 21.2927 10.8679 21.698 10.6019 21.9134L6.77661 25.042L10.6019 28.1707C10.8679 28.386 10.9186 28.7913 10.6906 29.0574C10.5766 29.2093 10.3866 29.2854 10.2093 29.2854ZM18.1893 29.2854C18.0119 29.2854 17.8219 29.2093 17.6953 29.0574C17.4799 28.7913 17.5179 28.386 17.7839 28.1707L21.5966 25.042L17.7839 21.9134C17.5179 21.698 17.4673 21.2927 17.6953 21.0267C17.9233 20.7607 18.3159 20.71 18.5819 20.938L23.0026 24.548C23.1546 24.662 23.2306 24.852 23.2306 25.042C23.2306 25.232 23.1419 25.4094 23.0026 25.536L18.5819 29.146C18.4806 29.2347 18.3286 29.2854 18.1893 29.2854ZM13.0719 29.8807C13.0213 29.8807 12.9579 29.868 12.9073 29.8554C12.5653 29.7667 12.3626 29.412 12.4639 29.0827L14.7186 20.6594C14.8073 20.3174 15.1619 20.1147 15.4913 20.216C15.8333 20.3047 16.0359 20.6594 15.9346 20.9887L13.6799 29.412C13.6039 29.6907 13.3506 29.8807 13.0719 29.8807ZM16.3779 35.416H6.06727C5.71261 35.416 5.43394 35.1374 5.43394 34.7827C5.43394 34.428 5.71261 34.1494 6.06727 34.1494H16.3779C16.7326 34.1494 17.0113 34.428 17.0113 34.7827C17.0113 35.1374 16.7199 35.416 16.3779 35.416ZM23.7499 35.416H20.0006C19.6459 35.416 19.3673 35.1374 19.3673 34.7827C19.3673 34.428 19.6459 34.1494 20.0006 34.1494H23.7499C24.1046 34.1494 24.3833 34.428 24.3833 34.7827C24.3833 35.1374 24.1046 35.416 23.7499 35.416ZM34.4153 35.416H30.6659C30.3113 35.416 30.0326 35.1374 30.0326 34.7827C30.0326 34.428 30.3113 34.1494 30.6659 34.1494H34.4153C34.7699 34.1494 35.0486 34.428 35.0486 34.7827C35.0486 35.1374 34.7573 35.416 34.4153 35.416ZM51.1606 35.416H38.0506C37.6959 35.416 37.4173 35.1374 37.4173 34.7827C37.4173 34.428 37.6959 34.1494 38.0506 34.1494H51.1733C51.5279 34.1494 51.8066 34.428 51.8066 34.7827C51.8066 35.1374 51.5153 35.416 51.1606 35.416ZM13.4646 40.0773H6.06727C5.71261 40.0773 5.43394 39.7987 5.43394 39.444C5.43394 39.0893 5.71261 38.8107 6.06727 38.8107H13.4646C13.8193 38.8107 14.0979 39.0893 14.0979 39.444C14.0979 39.7987 13.8066 40.0773 13.4646 40.0773ZM35.4793 40.0773H17.3913C17.0366 40.0773 16.7579 39.7987 16.7579 39.444C16.7579 39.0893 17.0366 38.8107 17.3913 38.8107H35.4793C35.8339 38.8107 36.1126 39.0893 36.1126 39.444C36.1126 39.7987 35.8339 40.0773 35.4793 40.0773ZM43.4846 40.0773H40.2166C39.8619 40.0773 39.5833 39.7987 39.5833 39.444C39.5833 39.0893 39.8619 38.8107 40.2166 38.8107H43.4846C43.8393 38.8107 44.1179 39.0893 44.1179 39.444C44.1179 39.7987 43.8266 40.0773 43.4846 40.0773ZM51.2113 40.0773H47.9433C47.5886 40.0773 47.3099 39.7987 47.3099 39.444C47.3099 39.0893 47.5886 38.8107 47.9433 38.8107H51.2113C51.5659 38.8107 51.8446 39.0893 51.8446 39.444C51.8446 39.7987 51.5533 40.0773 51.2113 40.0773ZM21.0393 16.4414H13.8066C13.4519 16.4414 13.1733 16.1627 13.1733 15.808C13.1733 15.4534 13.4519 15.1747 13.8066 15.1747H21.0393C21.3939 15.1747 21.6726 15.4534 21.6726 15.808C21.6726 16.1627 21.3939 16.4414 21.0393 16.4414ZM9.86727 16.4414H6.06727C5.71261 16.4414 5.43394 16.1627 5.43394 15.808C5.43394 15.4534 5.71261 15.1747 6.06727 15.1747H9.87994C10.2346 15.1747 10.5133 15.4534 10.5133 15.808C10.5133 16.1627 10.2219 16.4414 9.86727 16.4414Z" stroke="#2166F3" mask="url(#path-4-outside-1_2493_175)"/>
</svg>
