<svg width="58" height="58" viewBox="0 0 58 58" fill="none" xmlns="http://www.w3.org/2000/svg">
<path d="M56.6998 40.0342V6.58121C56.6978 5.70706 56.3489 4.86945 55.7299 4.25223C55.1109 3.635 54.2723 3.2886 53.3981 3.28906H4.60196C3.72796 3.2886 2.88948 3.63488 2.27049 4.25192C1.65151 4.86896 1.30259 5.70635 1.30029 6.58035V40.0334C1.30029 41.8746 2.82388 43.335 4.60196 43.335H21.9872C22.2262 45.1919 21.6367 47.1604 20.352 48.7818H17.9636C16.3301 48.7818 15.0004 50.1106 15.0004 51.7442C15.0004 53.3777 16.3301 54.71 17.9627 54.71H40.0304C41.6648 54.71 42.9945 53.3803 42.9945 51.7459C42.9945 50.1115 41.6648 48.7836 40.0304 48.7836H37.6421C36.3583 47.1622 35.7687 45.1936 36.0077 43.3368H53.3973C55.1511 43.3368 56.699 41.8946 56.699 40.0351L56.6998 40.0342ZM4.60196 5.02127H53.3981C54.2638 5.02127 54.9685 5.72073 54.9685 6.58121V35.4661H52.2555V8.68047C52.2555 8.45088 52.1643 8.23069 52.0019 8.06834C51.8396 7.906 51.6194 7.81479 51.3898 7.81479H6.60599C6.3764 7.81479 6.15622 7.906 5.99387 8.06834C5.83153 8.23069 5.74032 8.45088 5.74032 8.68047V35.4661H3.03164V6.58121C3.03324 6.1661 3.1995 5.7686 3.49392 5.47596C3.78834 5.18333 4.18685 5.02035 4.60196 5.02127ZM53.3947 41.6011C37.2542 41.6011 30.7695 41.5968 4.59937 41.6011C3.79516 41.6011 3.0602 40.9449 3.03683 40.0775C3.02817 39.7615 3.03423 38.5972 3.0325 37.1974H54.9615V40.0325C54.9615 40.8203 54.2984 41.6011 53.3947 41.6011ZM50.5232 35.4661H7.47167V9.54614H50.5241L50.5232 35.4661ZM41.264 51.745C41.264 52.4254 40.7109 52.9777 40.0313 52.9777H17.9636C17.6369 52.9773 17.3237 52.8472 17.0928 52.6161C16.8618 52.385 16.732 52.0717 16.7318 51.745C16.7318 51.0663 17.2849 50.514 17.9636 50.514H40.0313C40.7109 50.514 41.264 51.0663 41.264 51.745ZM35.5298 48.7827H22.466C23.4727 47.0929 23.922 45.1806 23.7368 43.3359H34.2581C34.0738 45.1798 34.523 47.0929 35.5298 48.7827Z" fill="#2166F3" stroke="#2166F3" stroke-width="0.5"/>
<path d="M13.0001 30.872H26.1868C26.408 31.4379 26.7946 31.9239 27.2962 32.2667C27.7978 32.6095 28.391 32.7932 28.9985 32.7938C29.6063 32.7934 30.1999 32.6099 30.7018 32.267C31.2037 31.9242 31.5906 31.4381 31.812 30.872H44.9961C45.2257 30.872 45.4459 30.7808 45.6083 30.6185C45.7706 30.4561 45.8618 30.2359 45.8618 30.0063V29.0801C45.8618 20.1264 38.6257 12.2168 28.9985 12.2168C19.6952 12.2177 12.1353 19.852 12.1353 29.0801V30.0063C12.1353 30.2359 12.2265 30.4561 12.3888 30.6185C12.5511 30.7808 12.7705 30.872 13.0001 30.872ZM30.123 26.9557L30.1118 26.9523C29.7572 26.8109 29.3794 26.7369 28.9977 26.7341C27.597 26.7341 26.3227 27.7547 26.0327 29.1407H22.6428C22.8739 25.8373 25.6363 23.2195 28.9977 23.2195C30.2487 23.2163 31.4725 23.5844 32.514 24.2773L30.123 26.9557ZM28.9977 31.0625C28.3683 31.0625 27.7407 30.6201 27.6992 29.764C27.6992 29.048 28.2818 28.4655 28.9977 28.4655C29.7136 28.4655 30.2962 29.048 30.2936 29.841L30.2927 29.8713L30.2901 29.9354C30.2485 30.2482 30.0943 30.5352 29.8564 30.7426C29.6186 30.9501 29.3133 31.0638 28.9977 31.0625ZM31.9635 29.1407C31.8762 28.7445 31.712 28.3692 31.4804 28.0361L33.8108 25.4243C34.7172 26.4614 35.2593 27.7666 35.3543 29.1407H31.9635ZM13.8657 29.0801C13.8639 25.6173 15.056 22.2597 17.241 19.5733L18.5568 20.8891C18.6362 20.9737 18.7317 21.0415 18.8378 21.0885C18.9438 21.1354 19.0582 21.1606 19.1742 21.1625C19.2902 21.1644 19.4054 21.1429 19.5129 21.0994C19.6204 21.0559 19.7181 20.9913 19.8002 20.9093C19.8822 20.8273 19.947 20.7296 19.9905 20.6221C20.0341 20.5146 20.0556 20.3995 20.0538 20.2835C20.052 20.1675 20.0269 20.0531 19.9801 19.947C19.9332 19.8409 19.8654 19.7453 19.7809 19.6659L18.4062 18.2912C21.0179 15.7244 24.4749 14.1962 28.1311 13.9923V15.9106C28.1311 16.1402 28.2223 16.3604 28.3847 16.5227C28.547 16.6851 28.7672 16.7763 28.9968 16.7763C29.2264 16.7763 29.4466 16.6851 29.6089 16.5227C29.7713 16.3604 29.8625 16.1402 29.8625 15.9106V13.9906C33.5217 14.1859 36.9828 15.7145 39.5918 18.2878L38.2136 19.6659C38.1309 19.7458 38.065 19.8413 38.0196 19.9469C37.9742 20.0525 37.9504 20.1661 37.9494 20.281C37.9484 20.396 37.9703 20.51 38.0138 20.6164C38.0573 20.7228 38.1216 20.8194 38.2029 20.9007C38.2842 20.982 38.3808 21.0462 38.4872 21.0898C38.5936 21.1333 38.7076 21.1552 38.8225 21.1542C38.9375 21.1532 39.0511 21.1293 39.1567 21.084C39.2623 21.0386 39.3578 20.9726 39.4377 20.89L40.7604 19.5672C42.949 22.2536 44.1395 25.6151 44.1296 29.0801V29.1407H37.0787C36.9799 27.2751 36.2332 25.5024 34.9673 24.1284L36.5403 22.3659C36.6932 22.1947 36.7718 21.9697 36.7588 21.7404C36.7458 21.5112 36.6423 21.2965 36.471 21.1436C36.2997 20.9907 36.0747 20.9121 35.8455 20.9251C35.6163 20.9381 35.4016 21.0416 35.2487 21.2129L33.6714 22.9806C32.3073 22.0078 30.6731 21.486 28.9977 21.4881C24.6823 21.4881 21.1538 24.8824 20.9184 29.1407H13.8657V29.0801Z" fill="#2166F3" stroke="#2166F3" stroke-width="0.5"/>
</svg>
