<svg width="12" height="14" viewBox="0 0 12 14" fill="none" xmlns="http://www.w3.org/2000/svg">
<path d="M0.999997 5.99994H8.59L5.29 2.70994C5.10169 2.52164 4.99591 2.26624 4.99591 1.99994C4.99591 1.73364 5.10169 1.47825 5.29 1.28994C5.4783 1.10164 5.7337 0.99585 6 0.99585C6.2663 0.99585 6.52169 1.10164 6.71 1.28994L11.71 6.28994C11.801 6.38505 11.8724 6.49719 11.92 6.61994C12.02 6.8634 12.02 7.13648 11.92 7.37994C11.8724 7.50269 11.801 7.61484 11.71 7.70994L6.71 12.7099C6.61703 12.8037 6.50643 12.8781 6.38457 12.9288C6.26271 12.9796 6.13201 13.0057 6 13.0057C5.86798 13.0057 5.73728 12.9796 5.61542 12.9288C5.49356 12.8781 5.38296 12.8037 5.29 12.7099C5.19627 12.617 5.12187 12.5064 5.07111 12.3845C5.02034 12.2627 4.9942 12.132 4.9942 11.9999C4.9942 11.8679 5.02034 11.7372 5.07111 11.6154C5.12187 11.4935 5.19627 11.3829 5.29 11.2899L8.59 7.99994H0.999997C0.73478 7.99994 0.480426 7.89458 0.29289 7.70705C0.105353 7.51951 -2.86102e-06 7.26516 -2.86102e-06 6.99994C-2.86102e-06 6.73472 0.105353 6.48037 0.29289 6.29283C0.480426 6.1053 0.73478 5.99994 0.999997 5.99994Z" fill="#2166F3"/>
</svg>
