<svg width="48" height="48" viewBox="0 0 48 48" fill="none" xmlns="http://www.w3.org/2000/svg">
<path d="M21.8241 0.196C19.8817 0.38277 18.3128 0.718957 16.3704 1.35398C15.063 1.78355 14.951 1.83024 13.4942 2.53063C7.35875 5.47226 2.66147 11.2155 0.952521 17.8832C0.354856 20.1991 0.168086 21.6653 0.177424 24.0933C0.177424 26.9042 0.52295 29.052 1.40077 31.6575C1.77431 32.7594 2.43735 34.403 2.56809 34.5337C2.58676 34.5618 6.99454 31.48 7.21867 31.2839C7.25602 31.2466 7.16264 30.9011 7.01322 30.5088C6.64902 29.603 6.21011 27.9594 6.014 26.7548C5.78988 25.438 5.78988 22.6178 6.014 21.2544C7.12528 14.4559 11.6731 9.00223 18.07 6.789C20.1992 6.06059 21.6934 5.80845 24 5.80845C26.9977 5.80845 29.6124 6.42479 32.2552 7.76954C33.4319 8.36721 35.4957 9.72129 35.477 9.88939C35.477 9.9174 35.1782 10.1602 34.8047 10.4123C34.0389 10.9446 33.9829 11.0847 34.263 11.7197C34.4965 12.252 34.898 12.4481 36.1494 12.6442C36.635 12.719 37.2607 12.8217 37.5408 12.8777C37.821 12.9244 38.2039 12.9898 38.3813 13.0271C38.5587 13.0551 38.9416 13.1205 39.2218 13.1672C39.5019 13.2139 39.9035 13.2886 40.1089 13.326C40.7907 13.4567 41.3416 13.41 41.6124 13.2046C42.1541 12.803 42.1914 12.6816 42.7424 9.50651L43.2654 6.46215L43.0599 6.04191C42.9105 5.73374 42.7517 5.56565 42.4716 5.42557L42.0887 5.2388L41.379 5.75242C40.277 6.54619 40.3051 6.53686 39.8475 6.10728C38.6054 4.93063 36.6257 3.60456 34.6926 2.66137C32.0311 1.35398 30.0233 0.737634 27.0817 0.3174C25.9331 0.149307 23.0101 0.0839374 21.8241 0.196Z" fill="url(#paint0_linear_1_155)"/>
<path d="M42.7237 14.3906C41.491 15.2684 40.4731 16.0155 40.4545 16.0529C40.4451 16.0902 40.5385 16.3704 40.6786 16.6786C41.2482 17.9579 41.7058 19.5081 41.9953 21.1517C42.2381 22.5992 42.2194 25.5595 41.9486 27.0537C40.828 33.2358 36.8218 38.3066 31.1439 40.7346C28.7533 41.7525 26.2879 42.2194 23.5797 42.154C22.8607 42.1354 22.1883 42.1073 22.0856 42.0887C21.9829 42.0607 21.6467 42.014 21.3385 41.9766C19.4054 41.7525 16.7533 40.8186 14.8482 39.7073C13.905 39.1564 12.2334 37.961 12.2334 37.849C12.2428 37.8023 12.579 37.5408 12.9899 37.2607L13.7463 36.747L13.6996 36.3828C13.6436 35.9906 13.4288 35.6451 13.0646 35.3743C12.8591 35.2249 12.5323 35.1501 10.2257 34.7766C9.76807 34.7019 8.83422 34.5525 8.17119 34.4311C6.78909 34.1883 6.36885 34.2256 5.95796 34.6179C5.81788 34.7486 5.65913 34.9914 5.61243 35.1501C5.41632 35.7478 4.56652 41.0521 4.61321 41.3136C4.68792 41.6965 5.0708 42.1634 5.40699 42.3035C5.72449 42.4342 5.74317 42.4249 6.91049 41.5751L7.43344 41.2015L7.90037 41.6404C10.3751 43.9003 13.4475 45.6653 16.7626 46.7206C18.1447 47.1595 20.0124 47.5424 21.8521 47.7665C22.3564 47.8225 25.7183 47.8319 26.0545 47.7758C26.1852 47.7572 26.5868 47.7105 26.9416 47.6731C29.8926 47.393 33.712 46.0856 36.4389 44.4046C41.6871 41.1642 45.4786 36.084 47.0568 30.154C48.3642 25.2513 48.084 20.0124 46.2724 15.2965C45.7961 14.0638 45.1797 12.7937 45.0677 12.7937C45.0117 12.8031 43.9564 13.5128 42.7237 14.3906Z" fill="url(#paint1_linear_1_155)"/>
<path d="M22.7393 13.1112C20.5541 13.6155 18.7704 15.2217 18.1074 17.2762C17.8272 18.126 17.7619 19.7136 17.9673 20.5914C18.4249 22.5338 19.807 24.1307 21.7214 24.9338C25.1486 26.3533 29.1735 24.2521 30.0327 20.5914C30.2381 19.7136 30.1728 18.126 29.9019 17.2762C29.1175 14.8389 26.8202 13.1112 24.2335 13.0178C23.6451 12.9992 23.0942 13.0272 22.7393 13.1112Z" fill="url(#paint2_linear_1_155)"/>
<path d="M11.1969 15.53C9.45058 16.1277 8.36731 17.8833 8.67548 19.6389C8.89027 20.9463 8.89961 20.9463 13.4661 25.5502L17.6498 29.7526V33.6934V37.6343H24H30.3502V33.6934V29.7526L34.5339 25.5502C39.035 21.021 39.063 20.9837 39.3152 19.7603C39.5953 18.3782 38.9323 16.7814 37.7463 15.9876C37.1767 15.6047 36.2708 15.3152 35.6451 15.3152C34.5619 15.3245 33.7401 15.6701 32.8996 16.4825L32.3113 17.0428L32.4233 17.4164C32.4981 17.6498 32.5354 18.3222 32.5354 19.1907C32.5261 20.8156 32.3673 21.572 31.751 22.8607C31.3027 23.7946 30.9759 24.2895 30.2848 25.0366C26.8949 28.6973 21.1051 28.6973 17.7152 25.0366C17.0241 24.2895 16.6973 23.7946 16.249 22.8607C15.6327 21.572 15.4739 20.8156 15.4646 19.1907C15.4646 18.3502 15.5019 17.6405 15.5767 17.4164L15.6887 17.0428L15.2405 16.5946C14.0825 15.4179 12.6444 15.0351 11.1969 15.53Z" fill="url(#paint3_linear_1_155)"/>
<defs>
<linearGradient id="paint0_linear_1_155" x1="0.177093" y1="17.3371" x2="43.2654" y2="17.3371" gradientUnits="userSpaceOnUse">
<stop stop-color="#34D1F8"/>
<stop offset="1" stop-color="#2168F1"/>
</linearGradient>
<linearGradient id="paint1_linear_1_155" x1="4.61136" y1="30.3036" x2="47.8683" y2="30.3036" gradientUnits="userSpaceOnUse">
<stop stop-color="#34D1F8"/>
<stop offset="1" stop-color="#2168F1"/>
</linearGradient>
<linearGradient id="paint2_linear_1_155" x1="17.8472" y1="19.1965" x2="30.1534" y2="19.1965" gradientUnits="userSpaceOnUse">
<stop stop-color="#34D1F8"/>
<stop offset="1" stop-color="#2168F1"/>
</linearGradient>
<linearGradient id="paint3_linear_1_155" x1="8.62326" y1="26.4747" x2="39.379" y2="26.4747" gradientUnits="userSpaceOnUse">
<stop stop-color="#34D1F8"/>
<stop offset="1" stop-color="#2168F1"/>
</linearGradient>
</defs>
</svg>
