<svg width="44" height="48" viewBox="0 0 44 48" fill="none" xmlns="http://www.w3.org/2000/svg">
<path d="M9.25 1.40625V2.8125H5.03125H0.8125V6.44062C0.8125 9.1875 0.85 10.3031 0.953125 11.0062C1.6 15.2719 4.79688 18.6375 9.05313 19.5375L10.0281 19.7437L10.15 20.0906C10.3469 20.6437 11.0219 21.9375 11.4625 22.5937C13.0469 24.9469 15.475 26.7656 18.175 27.6281L19 27.8906V28.2937C19 28.9031 18.7375 30.0656 18.4188 30.8156C17.875 32.1281 16.5438 33.6562 15.2688 34.4531L14.6781 34.8094L14.7063 36.225L14.7344 37.6406L21.9813 37.6687L29.2188 37.6875V36.2437V34.8L28.6375 34.3969C26.4063 32.8875 25.1125 30.8062 24.9906 28.5094L24.9531 27.9094L25.75 27.6562C28.4875 26.7937 30.8875 25.0125 32.5094 22.6312C32.9875 21.9187 33.6531 20.6719 33.85 20.0812C33.9719 19.7437 33.9906 19.7344 34.7125 19.5844C36.3063 19.2656 37.3094 18.8625 38.5375 18.0562C40.9844 16.4437 42.6063 13.9031 43.0469 10.9875C43.15 10.3125 43.1875 9.15937 43.1875 6.44062V2.8125H38.9688H34.75V1.40625V-1.49757e-06H22H9.25V1.40625ZM40.375 7.8C40.375 10.1531 40.3 10.8187 39.9438 11.9062C39.5781 12.9844 39.0438 13.8187 38.0875 14.775C37.3469 15.5156 37.0938 15.6937 36.25 16.1156C35.7063 16.3781 35.1344 16.6219 34.9844 16.65L34.7031 16.7062V12.5906V8.48437H22H9.29688V12.5906V16.6969L9.01563 16.6312C8.86563 16.6031 8.29375 16.3687 7.75938 16.1062C6.90625 15.6937 6.67188 15.5344 5.92188 14.7844C4.95625 13.8187 4.42188 12.9937 4.05625 11.9062C3.7 10.8187 3.625 10.1531 3.625 7.8V5.625H22H40.375V7.8Z" fill="url(#paint0_linear_1_214)"/>
<path d="M11.6875 42.8437V45.1875H10.4688H9.25V46.5937V48H22H34.75V46.5937V45.1875H33.5313H32.3125V42.8437V40.5H22H11.6875V42.8437Z" fill="url(#paint1_linear_1_214)"/>
<defs>
<linearGradient id="paint0_linear_1_214" x1="0.8125" y1="18.8438" x2="43.1875" y2="18.8438" gradientUnits="userSpaceOnUse">
<stop stop-color="#34D1F8"/>
<stop offset="1" stop-color="#2168F1"/>
</linearGradient>
<linearGradient id="paint1_linear_1_214" x1="9.25" y1="44.25" x2="34.75" y2="44.25" gradientUnits="userSpaceOnUse">
<stop stop-color="#34D1F8"/>
<stop offset="1" stop-color="#2168F1"/>
</linearGradient>
</defs>
</svg>
