<svg width="32" height="32" viewBox="0 0 32 32" fill="none" xmlns="http://www.w3.org/2000/svg">
<path fill-rule="evenodd" clip-rule="evenodd" d="M21.058 1.33325C21.61 1.33325 22.058 1.78125 22.058 2.33325L22.0586 3.46367C24.0054 3.59714 25.6223 4.26398 26.7666 5.41072C28.016 6.66539 28.6733 8.46939 28.6667 10.6334V22.7974C28.6667 27.2401 25.8453 30.0001 21.3053 30.0001H10.028C5.48796 30.0001 2.66663 27.2014 2.66663 22.6961V10.6307C2.66663 6.44031 5.1827 3.7505 9.28621 3.46412L9.28703 2.33325C9.28703 1.78125 9.73503 1.33325 10.287 1.33325C10.839 1.33325 11.287 1.78125 11.287 2.33325L11.2866 3.43859H20.0573L20.058 2.33325C20.058 1.78125 20.506 1.33325 21.058 1.33325ZM26.6666 13.2053H4.66663V22.6961C4.66663 26.1174 6.57063 28.0001 10.028 28.0001H21.3053C24.7626 28.0001 26.6667 26.1521 26.6667 22.7974L26.6666 13.2053ZM21.6016 21.595C22.1536 21.595 22.6016 22.043 22.6016 22.595C22.6016 23.147 22.1536 23.595 21.6016 23.595C21.0496 23.595 20.5962 23.147 20.5962 22.595C20.5962 22.043 21.0376 21.595 21.5896 21.595H21.6016ZM15.6849 21.595C16.2369 21.595 16.6849 22.043 16.6849 22.595C16.6849 23.147 16.2369 23.595 15.6849 23.595C15.1329 23.595 14.6796 23.147 14.6796 22.595C14.6796 22.043 15.1209 21.595 15.6729 21.595H15.6849ZM9.75582 21.595C10.3078 21.595 10.7558 22.043 10.7558 22.595C10.7558 23.147 10.3078 23.595 9.75582 23.595C9.20382 23.595 8.74916 23.147 8.74916 22.595C8.74916 22.043 9.19183 21.595 9.74383 21.595H9.75582ZM21.6016 16.4127C22.1536 16.4127 22.6016 16.8607 22.6016 17.4127C22.6016 17.9647 22.1536 18.4127 21.6016 18.4127C21.0496 18.4127 20.5962 17.9647 20.5962 17.4127C20.5962 16.8607 21.0376 16.4127 21.5896 16.4127H21.6016ZM15.6849 16.4127C16.2369 16.4127 16.6849 16.8607 16.6849 17.4127C16.6849 17.9647 16.2369 18.4127 15.6849 18.4127C15.1329 18.4127 14.6796 17.9647 14.6796 17.4127C14.6796 16.8607 15.1209 16.4127 15.6729 16.4127H15.6849ZM9.75582 16.4127C10.3078 16.4127 10.7558 16.8607 10.7558 17.4127C10.7558 17.9647 10.3078 18.4127 9.75582 18.4127C9.20382 18.4127 8.74916 17.9647 8.74916 17.4127C8.74916 16.8607 9.19183 16.4127 9.74383 16.4127H9.75582ZM20.0573 5.43859H11.2866L11.287 6.72125C11.287 7.27325 10.839 7.72125 10.287 7.72125C9.73503 7.72125 9.28703 7.27325 9.28703 6.72125L9.28632 5.46886C6.29934 5.71978 4.66663 7.53039 4.66663 10.6307V11.2053H26.6666L26.6667 10.6307C26.672 8.98405 26.2293 7.70405 25.3506 6.82405C24.5793 6.05046 23.4518 5.58845 22.0591 5.46949L22.058 6.72125C22.058 7.27325 21.61 7.72125 21.058 7.72125C20.506 7.72125 20.058 7.27325 20.058 6.72125L20.0573 5.43859Z" fill="#2166F3"/>
</svg>
