<svg width="32" height="32" viewBox="0 0 32 32" fill="none" xmlns="http://www.w3.org/2000/svg">
<path d="M25 5H7C5.93913 5 4.92172 5.42143 4.17157 6.17157C3.42143 6.92172 3 7.93913 3 9V19C3 20.0609 3.42143 21.0783 4.17157 21.8284C4.92172 22.5786 5.93913 23 7 23H18L24 27V23H25C26.0609 23 27.0783 22.5786 27.8284 21.8284C28.5786 21.0783 29 20.0609 29 19V9C29 7.93913 28.5786 6.92172 27.8284 6.17157C27.0783 5.42143 26.0609 5 25 5Z" stroke="#2166F3" stroke-width="2" stroke-linecap="round" stroke-linejoin="round"/>
<path d="M10 15C10 15.2652 9.89464 15.5196 9.70711 15.7071C9.51957 15.8946 9.26522 16 9 16C8.73478 16 8.48043 15.8946 8.29289 15.7071C8.10536 15.5196 8 15.2652 8 15C8 14.7348 8.10536 14.4804 8.29289 14.2929C8.48043 14.1054 8.73478 14 9 14C9.26522 14 9.51957 14.1054 9.70711 14.2929C9.89464 14.4804 10 14.7348 10 15ZM16 15C16 15.2652 15.8946 15.5196 15.7071 15.7071C15.5196 15.8946 15.2652 16 15 16C14.7348 16 14.4804 15.8946 14.2929 15.7071C14.1054 15.5196 14 15.2652 14 15C14 14.7348 14.1054 14.4804 14.2929 14.2929C14.4804 14.1054 14.7348 14 15 14C15.2652 14 15.5196 14.1054 15.7071 14.2929C15.8946 14.4804 16 14.7348 16 15ZM22 15C22 15.2652 21.8946 15.5196 21.7071 15.7071C21.5196 15.8946 21.2652 16 21 16C20.7348 16 20.4804 15.8946 20.2929 15.7071C20.1054 15.5196 20 15.2652 20 15C20 14.7348 20.1054 14.4804 20.2929 14.2929C20.4804 14.1054 20.7348 14 21 14C21.2652 14 21.5196 14.1054 21.7071 14.2929C21.8946 14.4804 22 14.7348 22 15Z" stroke="#2166F3" stroke-width="2" stroke-linecap="round" stroke-linejoin="round"/>
</svg>
