<svg width="52" height="52" fill="none" xmlns="http://www.w3.org/2000/svg"><path d="M30.592 50.268h2.39a2.93 2.93 0 0 0 2.93-2.93V22.924H1.732v24.414a2.93 2.93 0 0 0 2.93 2.93h24.465M1.732 28.783h34.18m-19.824-5.86V1.734h29.175" stroke="#2166F3" stroke-width="1.8" stroke-miterlimit="10"/><path d="M46.727 1.732h3.54v24.414a2.93 2.93 0 0 1-2.93 2.93H35.913M16.088 7.592h34.18m-28.133 4.286 2.93 2.93-2.93 2.93m6.176-1.465h12.003m-12.003-2.93h15.91M23.036 35.62h6.822m-6.822-2.93h9.042m-9.042 8.79h6.822m-6.822-2.93h9.042m-25.464-5.86h13.672v13.672H6.615V32.69z" stroke="#2166F3" stroke-width="1.8" stroke-miterlimit="10"/><path d="m6.615 45.031 4.517-3.553 3.64 1.942" stroke="#2166F3" stroke-width="1.8" stroke-miterlimit="10"/><path d="m11.574 46.361 6.37-5.859 2.344 1.465M13.451 39.492a1.953 1.953 0 1 0 0-3.906 1.953 1.953 0 0 0 0 3.906zM4.906 25.854h1.465m1.465 0H9.3M19.359 4.76h1.465m1.465 0h1.465" stroke="#2166F3" stroke-width="1.8" stroke-miterlimit="10"/></svg>