<svg width="50" height="50" fill="none" xmlns="http://www.w3.org/2000/svg"><path d="M22.553 9.387h4.935a1.729 1.729 0 0 0 1.725-1.727V2.727A1.73 1.73 0 0 0 27.488 1h-4.935a1.729 1.729 0 0 0-1.726 1.727V7.66a1.728 1.728 0 0 0 1.726 1.728zm0-6.66h4.935V7.66h-4.935V2.727zM45 20.98c-5.541.177-5.54 8.211 0 8.386 5.542-.175 5.54-8.211 0-8.386zm0 6.66a2.467 2.467 0 0 1 0-4.933 2.467 2.467 0 0 1 0 4.933zm-36.044.85a1.836 1.836 0 0 0 .082-1.798l-2.345-4.688a1.859 1.859 0 0 0-3.304 0L1.044 26.69a1.86 1.86 0 0 0 1.652 2.674h4.689a1.835 1.835 0 0 0 1.57-.875zm-6.26-.851a.112.112 0 0 1-.103-.057.115.115 0 0 1-.005-.119l2.345-4.689c.019-.072.19-.097.216 0l2.344 4.688c.04.05-.018.194-.108.176l-4.69.001zM27.74 42.172a1.728 1.728 0 0 0-1.495-.865h-2.449a1.728 1.728 0 0 0-1.495.863l-1.224 2.12a1.734 1.734 0 0 0 0 1.727l1.223 2.118a1.729 1.729 0 0 0 1.496.865h2.449a1.727 1.727 0 0 0 1.494-.864l1.225-2.12a1.734 1.734 0 0 0 0-1.726l-1.224-2.118zm-1.495 5.1h-2.448l-1.225-2.119 1.224-2.119h2.448l1.224 2.119-1.223 2.12zm5.627-39.947a19.113 19.113 0 0 1 10.995 11.009.864.864 0 0 0 1.613-.617A20.847 20.847 0 0 0 32.492 5.713a.864.864 0 0 0-.62 1.612zM6.057 18.82a.865.865 0 0 0 1.116-.497A19.112 19.112 0 0 1 18.179 7.327a.863.863 0 0 0-.615-1.613A20.84 20.84 0 0 0 5.56 17.704a.863.863 0 0 0 .497 1.115zM18.17 43.022A19.116 19.116 0 0 1 7.173 32.014a.863.863 0 0 0-1.613.616 20.848 20.848 0 0 0 11.99 12.004.863.863 0 1 0 .619-1.612zM43.984 31.53a.862.862 0 0 0-1.116.497 19.11 19.11 0 0 1-11.007 10.993.864.864 0 0 0 .616 1.614A20.841 20.841 0 0 0 44.48 32.644a.862.862 0 0 0-.496-1.115zm-23.46-1.398a.863.863 0 0 0 0 1.726h3.633v1.385a.864.864 0 0 0 1.727 0v-1.385c5.87.459 5.984-8.162 0-7.72V19.87h3.632a.864.864 0 0 0 0-1.727h-3.632V16.76a.863.863 0 1 0-1.727 0v1.384h-.635a3.86 3.86 0 0 0 0 7.72h.635v4.268h-3.632zm5.36-4.268c3.683-.391 3.68 4.658 0 4.267v-4.267zm-2.362-1.726a2.133 2.133 0 1 1 0-4.267h.635v4.267h-.635z" fill="#2166F3" stroke="#2166F3" stroke-width=".3"/><path d="M34.18 32.934a.863.863 0 0 0 1.209-.174 12.857 12.857 0 0 0 2.58-7.76c.138-10.504-12.397-16.778-20.71-10.37a.863.863 0 1 0 1.034 1.384 11.226 11.226 0 0 1 15.713 15.712.863.863 0 0 0 .175 1.208zM15.859 17.065a.86.86 0 0 0-1.207.174A12.86 12.86 0 0 0 12.069 25c-.137 10.505 12.398 16.778 20.71 10.37a.863.863 0 1 0-1.034-1.382 11.225 11.225 0 0 1-15.712-15.714.863.863 0 0 0-.175-1.208z" fill="#2166F3" stroke="#2166F3" stroke-width=".3"/></svg>