<?xml version="1.0" encoding="iso-8859-1"?>
<!-- Generator: Adobe Illustrator 19.0.0, SVG Export Plug-In . SVG Version: 6.00 Build 0)  -->
<svg version="1.1" id="Capa_1" xmlns="http://www.w3.org/2000/svg" xmlns:xlink="http://www.w3.org/1999/xlink" x="0px" y="0px"
	 viewBox="0 0 490.667 490.667" style="enable-background:new 0 0 490.667 490.667;" xml:space="preserve">
<path style="fill:#FF5722;" d="M480,298.667H106.667V53.333c0-5.888,4.779-10.667,10.667-10.667H480
	c5.888,0,10.667,4.779,10.667,10.667V288C490.667,293.888,485.888,298.667,480,298.667z"/>
<path style="fill:#FF794E;" d="M480,298.667h-21.333v-256H480c5.888,0,10.667,4.779,10.667,10.667V288
	C490.667,293.888,485.888,298.667,480,298.667z"/>
<rect x="106.667" y="106.667" style="fill:#FACA4F;" width="384" height="64"/>
<rect x="458.667" y="106.667" style="fill:#FCDF95;" width="32" height="64"/>
<path style="fill:#35BAF6;" d="M106.667,192h-96C4.779,192,0,196.779,0,202.667v234.667C0,443.221,4.779,448,10.667,448h362.667
	c5.888,0,10.667-4.779,10.667-10.667V298.667H106.667V192z"/>
<path style="fill:#5DC8F8;" d="M352,298.667V448h21.333c5.888,0,10.667-4.779,10.667-10.667V298.667H352z"/>
<g>
	<rect x="160" y="224" style="fill:#BF411A;" width="85.333" height="21.333"/>
	<rect x="266.667" y="224" style="fill:#BF411A;" width="42.667" height="21.333"/>
</g>
<rect x="53.333" y="352" style="fill:#027FB7;" width="42.667" height="21.333"/>
<rect x="117.333" y="352" style="fill:#86D6FA;" width="42.667" height="21.333"/>
<g>
	<rect x="266.667" y="352" style="fill:#027FB7;" width="64" height="21.333"/>
	<rect x="181.333" y="352" style="fill:#027FB7;" width="21.333" height="21.333"/>
</g>
<rect x="224" y="352" style="fill:#86D6FA;" width="21.333" height="21.333"/>
<path style="fill:#FBD572;" d="M106.667,298.667H96c-17.675,0-32-14.325-32-32l0,0c0-17.675,14.325-32,32-32h10.667V298.667z"/>
<path style="fill:#FACA4F;" d="M405.333,256h-64v-21.333c0-11.787,9.547-21.333,21.333-21.333h64v21.333
	C426.667,246.453,417.12,256,405.333,256z"/>
<g>
</g>
<g>
</g>
<g>
</g>
<g>
</g>
<g>
</g>
<g>
</g>
<g>
</g>
<g>
</g>
<g>
</g>
<g>
</g>
<g>
</g>
<g>
</g>
<g>
</g>
<g>
</g>
<g>
</g>
</svg>
