<svg width="50" height="36" viewBox="0 0 50 36" fill="none" xmlns="http://www.w3.org/2000/svg">
<path d="M15.915 27.8702C15.7146 27.8702 15.5224 27.7906 15.3805 27.6491C13.6637 25.9393 12.4337 23.8027 11.8174 21.4594C11.2011 19.1161 11.2206 16.6508 11.8741 14.3176C12.5275 11.9844 13.7913 9.86754 15.535 8.18522C17.2788 6.50289 19.4396 5.3159 21.7947 4.74652C21.8922 4.72083 21.9938 4.71487 22.0936 4.72897C22.1934 4.74307 22.2894 4.77696 22.3759 4.82864C22.4625 4.88033 22.5378 4.94877 22.5975 5.02995C22.6573 5.11114 22.7002 5.20344 22.7238 5.30143C22.7474 5.39942 22.7511 5.50114 22.7349 5.60061C22.7187 5.70009 22.6827 5.79532 22.6292 5.88072C22.5757 5.96612 22.5056 6.03998 22.4232 6.09795C22.3407 6.15593 22.2475 6.19686 22.1491 6.21834C20.0559 6.72479 18.1356 7.7801 16.5859 9.27556C15.0362 10.771 13.9132 12.6526 13.3326 14.7264C12.752 16.8002 12.7347 18.9914 13.2826 21.0741C13.8304 23.1568 14.9236 25.0558 16.4495 26.5755C16.5561 26.6813 16.6289 26.8163 16.6585 26.9634C16.6882 27.1106 16.6735 27.2633 16.6162 27.402C16.5589 27.5408 16.4616 27.6594 16.3368 27.7427C16.2119 27.8261 16.0651 27.8705 15.915 27.8702ZM25.0003 31.6239C24.7995 31.6239 24.607 31.5442 24.465 31.4022C24.323 31.2602 24.2432 31.0676 24.2432 30.8668C24.2432 30.666 24.323 30.4735 24.465 30.3315C24.607 30.1895 24.7995 30.1097 25.0003 30.1097C28.2131 30.1097 31.2943 28.8335 33.5661 26.5617C35.8378 24.2899 37.1141 21.2087 37.1141 17.996C37.1141 14.7832 35.8378 11.702 33.5661 9.43023C31.2943 7.15845 28.2131 5.88219 25.0003 5.88219C24.7995 5.88219 24.607 5.80242 24.465 5.66043C24.323 5.51845 24.2432 5.32587 24.2432 5.12508C24.2432 4.92428 24.323 4.7317 24.465 4.58972C24.607 4.44773 24.7995 4.36797 25.0003 4.36797C28.6147 4.36797 32.081 5.80377 34.6368 8.35951C37.1925 10.9153 38.6283 14.3816 38.6283 17.996C38.6283 21.6103 37.1925 25.0767 34.6368 27.6324C32.081 30.1881 28.6147 31.6239 25.0003 31.6239Z" fill="black" stroke="black"/>
<path d="M25.001 31.6239H1.53055C1.32975 31.6239 1.13718 31.5442 0.99519 31.4022C0.853204 31.2602 0.773438 31.0676 0.773438 30.8668C0.773438 30.666 0.853204 30.4735 0.99519 30.3315C1.13718 30.1895 1.32975 30.1097 1.53055 30.1097H25.001C25.2018 30.1097 25.3943 30.1895 25.5363 30.3315C25.6783 30.4735 25.7581 30.666 25.7581 30.8668C25.7581 31.0676 25.6783 31.2602 25.5363 31.4022C25.3943 31.5442 25.2018 31.6239 25.001 31.6239ZM48.4714 31.6239H34.0863C33.8855 31.6239 33.6929 31.5442 33.5509 31.4022C33.409 31.2602 33.3292 31.0676 33.3292 30.8668C33.3292 30.666 33.409 30.4735 33.5509 30.3315C33.6929 30.1895 33.8855 30.1097 34.0863 30.1097H48.4714C48.6722 30.1097 48.8648 30.1895 49.0068 30.3315C49.1487 30.4735 49.2285 30.666 49.2285 30.8668C49.2285 31.0676 49.1487 31.2602 49.0068 31.4022C48.8648 31.5442 48.6722 31.6239 48.4714 31.6239Z" fill="black" stroke="black"/>
<path d="M48.4709 31.624C48.2701 31.6239 48.0775 31.5441 47.9356 31.4021L44.15 27.6166C44.0121 27.4738 43.9358 27.2825 43.9375 27.084C43.9393 26.8855 44.0189 26.6956 44.1593 26.5552C44.2996 26.4149 44.4895 26.3352 44.688 26.3335C44.8865 26.3318 45.0778 26.4081 45.2206 26.546L49.0061 30.3316C49.112 30.4374 49.1841 30.5723 49.2133 30.7192C49.2425 30.866 49.2275 31.0182 49.1702 31.1566C49.1129 31.2949 49.0159 31.4131 48.8914 31.4963C48.7669 31.5795 48.6206 31.6239 48.4709 31.624Z" fill="black" stroke="black"/>
<path d="M44.686 35.4095C44.5362 35.4095 44.3899 35.3651 44.2654 35.2819C44.1409 35.1987 44.0439 35.0804 43.9866 34.9421C43.9293 34.8038 43.9144 34.6516 43.9436 34.5047C43.9728 34.3579 44.0448 34.223 44.1507 34.1171L47.9362 30.3316C48.079 30.1937 48.2703 30.1173 48.4688 30.1191C48.6673 30.1208 48.8572 30.2004 48.9976 30.3408C49.1379 30.4812 49.2176 30.6711 49.2193 30.8696C49.221 31.0681 49.1447 31.2593 49.0068 31.4021L45.2212 35.1877C45.0793 35.3297 44.8867 35.4095 44.686 35.4095ZM25.0011 5.88219C24.8514 5.88216 24.705 5.83774 24.5805 5.75454C24.4561 5.67135 24.3591 5.55312 24.3018 5.41479C24.2445 5.27647 24.2295 5.12426 24.2587 4.97742C24.2879 4.83058 24.36 4.69569 24.4658 4.5898L28.2514 0.80425C28.3942 0.666337 28.5854 0.590024 28.7839 0.591749C28.9824 0.593474 29.1723 0.673099 29.3127 0.813473C29.4531 0.953847 29.5327 1.14374 29.5344 1.34225C29.5361 1.54076 29.4598 1.73201 29.3219 1.8748L25.5364 5.66036C25.3944 5.80235 25.2019 5.88215 25.0011 5.88219Z" fill="black" stroke="black"/>
<path d="M28.7873 9.66774C28.5865 9.6677 28.3939 9.58791 28.252 9.44591L24.4664 5.66036C24.3285 5.51756 24.2522 5.32632 24.2539 5.12781C24.2557 4.92929 24.3353 4.7394 24.4757 4.59903C24.616 4.45865 24.8059 4.37903 25.0044 4.3773C25.2029 4.37558 25.3942 4.45189 25.537 4.5898L29.3225 8.37536C29.4284 8.48124 29.5005 8.61613 29.5297 8.76297C29.5589 8.90982 29.5439 9.06202 29.4866 9.20034C29.4293 9.33867 29.3323 9.4569 29.2078 9.5401C29.0833 9.62329 28.937 9.66771 28.7873 9.66774Z" fill="black" stroke="black"/>
</svg>
