<svg width="49" height="49" viewBox="0 0 49 49" fill="none" xmlns="http://www.w3.org/2000/svg">
<path d="M42.0533 15.5932C43.8795 15.5891 45.6297 14.8619 46.921 13.5706C48.2123 12.2793 48.9395 10.5291 48.9436 8.70289V6.94594C48.9395 5.11977 48.2123 3.36954 46.921 2.07824C45.6297 0.786934 43.8795 0.0596998 42.0533 0.0556641H40.2964C38.4702 0.0596998 36.72 0.786934 35.4286 2.07824C34.1373 3.36954 33.4101 5.11977 33.4061 6.94594V12.2779H15.5922V6.94594C15.5882 5.11977 14.8609 3.36954 13.5696 2.07824C12.2783 0.786934 10.5281 0.0596998 8.70191 0.0556641H6.94497C5.11879 0.0596998 3.36857 0.786934 2.07726 2.07824C0.785957 3.36954 0.0587233 5.11977 0.0546875 6.94594V8.70289C0.0587233 10.5291 0.785957 12.2793 2.07726 13.5706C3.36857 14.8619 5.11879 15.5891 6.94497 15.5932H12.2769V33.4071H6.94497C5.11879 33.4111 3.36857 34.1383 2.07726 35.4296C0.785957 36.7209 0.0587233 38.4712 0.0546875 40.2973V42.0543C0.0587233 43.8805 0.785957 45.6307 2.07726 46.922C3.36857 48.2133 5.11879 48.9405 6.94497 48.9446H8.70191C10.5281 48.9405 12.2783 48.2133 13.5696 46.922C14.8609 45.6307 15.5882 43.8805 15.5922 42.0543V36.7223H33.4061V42.1154C33.4262 43.9309 34.1605 45.6655 35.45 46.9437C36.7396 48.2218 38.4807 48.9406 40.2964 48.9446H42.0533C43.8795 48.9405 45.6297 48.2133 46.921 46.922C48.2123 45.6307 48.9395 43.8805 48.9436 42.0543V40.2973C48.9395 38.4712 48.2123 36.7209 46.921 35.4296C45.6297 34.1383 43.8795 33.4111 42.0533 33.4071H36.7214V15.5932H42.0533ZM36.7214 6.94594C36.7214 5.98159 37.1044 5.05673 37.7863 4.37482C38.4683 3.69292 39.3931 3.30983 40.3575 3.30983H42.1144C43.0788 3.30983 44.0036 3.69292 44.6855 4.37482C45.3674 5.05673 45.7505 5.98159 45.7505 6.94594V8.70289C45.7426 9.18041 45.6406 9.65168 45.4505 10.0898C45.2604 10.5279 44.9858 10.9243 44.6425 11.2563C44.2991 11.5882 43.8938 11.8493 43.4495 12.0246C43.0053 12.1999 42.5308 12.286 42.0533 12.2779H36.7214V6.94594ZM6.94497 12.2779C5.9911 12.278 5.07539 11.9033 4.39521 11.2346C3.71504 10.5658 3.32489 9.65661 3.30885 8.70289V6.94594C3.30885 5.98159 3.69194 5.05673 4.37385 4.37482C5.05575 3.69292 5.98061 3.30983 6.94497 3.30983H8.70191C9.65564 3.32586 10.5649 3.71602 11.2336 4.39619C11.9024 5.07636 12.277 5.99208 12.2769 6.94594V12.2779H6.94497ZM12.2769 42.0543C12.2769 43.0186 11.8938 43.9435 11.2119 44.6254C10.53 45.3073 9.60516 45.6904 8.6408 45.6904H6.94497C5.98061 45.6904 5.05575 45.3073 4.37385 44.6254C3.69194 43.9435 3.30885 43.0186 3.30885 42.0543V40.2973C3.32489 39.3436 3.71504 38.4344 4.39521 37.7656C5.07539 37.0969 5.9911 36.7222 6.94497 36.7223H12.2769V42.0543ZM42.0533 36.7223C43.0177 36.7223 43.9425 37.1054 44.6244 37.7873C45.3063 38.4692 45.6894 39.3941 45.6894 40.3584V42.1154C45.6894 43.0797 45.3063 44.0046 44.6244 44.6865C43.9425 45.3684 43.0177 45.7515 42.0533 45.7515H40.2964C39.8188 45.7435 39.3476 45.6416 38.9094 45.4515C38.4713 45.2613 38.075 44.9868 37.743 44.6434C37.411 44.3001 37.1499 43.8947 36.9746 43.4505C36.7993 43.0062 36.7133 42.5318 36.7214 42.0543V36.7223H42.0533ZM33.4061 33.4682H15.5922V15.5932H33.4061V33.4682Z" fill="#2166F3"/>
</svg>
