<svg width="50" height="50" viewBox="0 0 50 50" fill="none" xmlns="http://www.w3.org/2000/svg">
<path d="M24.6429 6.07143C25.0714 6.07143 25.4286 6.07143 25.5714 5.57143C25.7143 5.21429 25.5714 5 25.2857 4.78571C25 4.57143 24.1429 4.64286 23.9286 4.85714C23.6429 5.07143 23.6429 5.35714 23.7857 5.64286C23.9286 6 24.2857 6.07143 24.6429 6.07143ZM20.6429 42.7143C19.3571 42.7143 18.4286 43.7143 18.4286 45C18.4286 46.2143 19.4286 47.2143 20.6429 47.2143C21.8571 47.2143 22.8571 46.2143 22.8571 45C22.8571 43.7143 21.8571 42.7143 20.6429 42.7143ZM20.5714 45.7857C20.0714 45.7857 19.7143 45.4286 19.7143 44.9286C19.7143 44.5 20.0714 44.0714 20.5714 44.0714C21.0714 44.0714 21.4286 44.5 21.4286 44.9286C21.4286 45.4286 21.0714 45.7857 20.5714 45.7857ZM35.1429 34.2143C35.0714 33.8571 34.8571 33.6429 34.5 33.6429C34.1429 33.6429 33.8571 33.7857 33.7857 34.1429C33.7143 34.2857 33.7143 34.5 33.7143 34.7143C33.7143 36.8571 33.7143 37.6429 33.7143 39.7143C33.7143 40.0714 33.6429 40.1429 33.2857 40.1429C24.7857 40.1429 16.2857 40.1429 7.78571 40.1429C7.42857 40.1429 7.35714 40.0714 7.35714 39.6429C7.35714 29.6429 7.35714 19.6429 7.35714 9.71429C7.35714 9.35714 7.42857 9.21429 7.85714 9.21429C16.3571 9.21429 24.8571 9.21429 33.3571 9.21429C33.7143 9.21429 33.7857 9.28571 33.7857 9.64286C33.7857 11.0714 33.7857 11.0714 33.7857 12.5C33.7857 12.7857 33.7857 13.1429 34.1429 13.2857C34.3571 13.4286 34.6429 13.4286 34.8571 13.2857C35.1429 13.1429 35.2143 12.8571 35.2143 12.5C35.2143 9.14286 35.2143 7.28571 35.2143 3.85714C35.2143 2.14286 34.0714 1 32.2857 1C24.5 1.21429 16.7143 1.21429 9 1.21429C7.21429 1.21429 6.07143 2.35714 6 4.14286C6 5.85714 6 7.64286 6 9.35714V25.5C6 32.6429 6 39.7143 6 46.8571C6 48.6429 7.14286 49.7857 8.92857 49.7857C16.7143 49.7857 24.4286 49.7857 32.2143 49.7857C32.4286 49.7857 32.7143 49.7857 32.9286 49.7143C34.2857 49.4286 35.1429 48.3571 35.1429 46.9286C35.1429 42.3571 35.1429 39.0714 35.1429 34.5C35.2143 34.4286 35.2143 34.3571 35.1429 34.2143ZM7.42857 4.21429C7.42857 3.07143 7.92857 2.57143 9.07143 2.57143C16.7857 2.57143 24.5 2.57143 32.2143 2.57143C33.2857 2.57143 33.7857 3.07143 33.7857 4.14286C33.7857 5.21429 33.7857 6.28571 33.7857 7.35714C33.7857 7.78571 33.7143 7.85714 33.2857 7.85714C29.0714 7.85714 24.8571 7.85714 20.5714 7.85714C16.3571 7.85714 12.1429 7.85714 7.85714 7.85714C7.5 7.85714 7.35714 7.78571 7.35714 7.35714C7.42857 6.35714 7.42857 5.28571 7.42857 4.21429ZM33.7857 46.7857C33.7857 47.9286 33.2857 48.4286 32.1429 48.4286C24.4286 48.4286 16.7857 48.4286 9.07143 48.4286C7.92857 48.4286 7.42857 47.9286 7.42857 46.7857C7.42857 45.2143 7.42857 43.6429 7.42857 42C7.42857 41.6429 7.57143 41.5714 7.85714 41.5714C12.0714 41.5714 16.3571 41.5714 20.5714 41.5714C24.7857 41.5714 29 41.5714 33.2143 41.5714C33.7143 41.5714 33.7857 41.7143 33.7857 42.1429C33.7857 43.7143 33.7857 45.2143 33.7857 46.7857ZM16.4286 6.07143C17.2857 6.07143 18.1429 6.07143 19 6.07143C19.8571 6.07143 20.7143 6.07143 21.5714 6.07143C22.1429 6.07143 22.4286 5.85714 22.4286 5.35714C22.4286 4.92857 22.1429 4.64286 21.5714 4.64286C19.8571 4.64286 18.0714 4.64286 16.3571 4.64286C15.8571 4.64286 15.5 4.92857 15.5 5.35714C15.6429 5.78571 15.9286 6.07143 16.4286 6.07143ZM41.8571 21.7857C41.5 21.6429 41.4286 21.4286 41.2143 21.1429C40.8571 20.5 40.8571 19.9286 41.2143 19.2857C41.4286 18.8571 41.3571 18.4286 41 18.0714C40.7143 17.7143 40.3571 17.3571 40 17.0714C39.6429 16.7857 39.2857 16.7143 38.8571 16.8571C38.7143 16.9286 38.5 17 38.4286 17.0714C38.0714 17.2857 37.7857 17.2143 37.4286 17.0714C36.7857 16.8571 36.3571 16.5 36.1429 15.7857C36 15.2857 35.5714 15.0714 35.0714 15C34.6429 15 34.2143 15 33.7857 15C33.2857 15 32.9286 15.2857 32.7857 15.7143C32.7143 15.8571 32.6429 16 32.5714 16.2143C32.5 16.5714 32.2143 16.7143 31.9286 16.9286C31.2857 17.2857 30.7143 17.2857 30.0714 16.9286C29.6429 16.7143 29.2143 16.7857 28.7857 17.1429C28.5 17.4286 28.1429 17.7143 27.8571 18.0714C27.5 18.4286 27.4286 18.9286 27.6429 19.3571C28 19.9286 28 20.5 27.6429 21.1429C27.4286 21.5 27.2857 21.7143 26.9286 21.8571C25.9286 22.2143 25.7857 22.4286 25.7857 23.5714C25.7857 23.6429 25.7857 23.7857 25.7857 23.8571C25.7857 24.9286 25.9286 25.1429 26.9286 25.5C27.2857 25.6429 27.5 25.8571 27.7143 26.2143C28 26.8571 28 27.3571 27.7143 28C27.5 28.4286 27.5714 28.8571 27.9286 29.2857C28.2143 29.6429 28.5714 29.9286 28.8571 30.2143C29.2143 30.5 29.6429 30.5714 30.0714 30.4286C30.2143 30.3571 30.3571 30.2857 30.5 30.2143C30.7857 30 31.0714 30.0714 31.4286 30.2143C32.1429 30.4286 32.5 30.8571 32.7143 31.5C32.8571 32 33.2143 32.2143 33.7143 32.2143C34.1429 32.2143 34.6429 32.2143 35.0714 32.2143C35.5 32.1429 35.8571 32 36 31.5714C36.2143 30.7857 36.7143 30.3571 37.5 30.1429C37.7143 30.0714 37.9286 30.0714 38.1429 30.1429C38.5 30.2857 38.7857 30.5 39.2143 30.5C40 30.5714 41.2857 29.1429 41.2857 28.3571C41.2857 28.0714 41.1429 27.7857 41 27.5714C40.7857 27.2143 40.8571 26.9286 41 26.5714C41.2143 25.8571 41.6429 25.5 42.2857 25.2857C42.7143 25.1429 42.9286 24.7857 43 24.3571C43 24.1429 43 23.8571 43.0714 23.6429C43.0714 22.4286 43 22.2143 41.8571 21.7857ZM41.4286 24.3571C41.2143 24.4286 41 24.5 40.7857 24.5714C40.5 24.7143 40.2857 24.8571 40.2143 25.2143C40.0714 25.7143 39.9286 26.2143 39.6429 26.6429C39.4286 26.9286 39.4286 27.2143 39.5714 27.5714C39.6429 27.7143 39.7143 27.9286 39.7857 28.1429C40 28.5 39.9286 28.7143 39.6429 29C39.3571 29.2143 39.1429 29.3571 38.8571 29.1429C38.7857 29.0714 38.7143 29.0714 38.5714 29C38.0714 28.6429 37.5714 28.7143 37.0714 29.0714C36.7143 29.2857 36.3571 29.4286 35.9286 29.5C35.6429 29.5714 35.4286 29.7143 35.3571 30C35.2857 30.2143 35.1429 30.4286 35.0714 30.7143C35 31.1429 34.7143 31.1429 34.4286 31.1429C34.1429 31.1429 33.7857 31.1429 33.7857 30.7143C33.7857 30.6429 33.7857 30.6429 33.7143 30.5714C33.5714 29.8571 33.1429 29.4286 32.4286 29.2857C32.2143 29.2857 31.9286 29.1429 31.7143 29C31.2143 28.6429 30.7857 28.7143 30.3571 28.9286C30.2857 28.9286 30.2143 29 30.1429 29C29.5714 29.2857 29.3571 29.2143 28.9286 28.6429C28.8571 28.5 28.8571 28.4286 28.9286 28.2857C29.4286 27.5 29.2857 26.7857 28.9286 25.8571C28.5714 25 28.1429 24.4286 27.2143 24.2143C27.0714 24.1429 27 24.0714 27 23.9286C26.9286 23.2143 26.9286 23.1429 27.6429 22.9286C28.2857 22.7143 28.6429 22.4286 28.7857 21.7143C28.8571 21.3571 29.0714 21 29.2143 20.7143C29.3571 20.4286 29.4286 20.1429 29.2857 19.8571C29.2143 19.6429 29.1429 19.4286 29 19.2143C28.7857 18.9286 28.8571 18.7143 29.1429 18.4286C29.4286 18.1429 29.6429 18.0714 30 18.2857C30.2143 18.4286 30.4286 18.5 30.5714 18.5714C30.8571 18.7143 31.0714 18.7143 31.3571 18.5C31.7857 18.2143 32.2857 18 32.8571 17.8571C33.1429 17.7857 33.3571 17.6429 33.4286 17.3571C33.5 17.1429 33.6429 16.9286 33.7143 16.7143C33.7857 16.3571 34 16.2857 34.3571 16.2857C34.7143 16.2857 35 16.3571 35.0714 16.7857C35.1429 17 35.2143 17.2143 35.3571 17.4286C35.4286 17.6429 35.6429 17.8571 35.8571 17.9286C36.4286 18.0714 36.9286 18.2857 37.4286 18.5714C37.6429 18.7143 37.9286 18.7143 38.1429 18.6429C38.3571 18.5714 38.5 18.5 38.7143 18.4286C39.2143 18.2143 39.5714 18.2857 39.8571 18.7857C39.8571 18.8571 39.9286 18.8571 39.9286 18.9286C39.7857 19.2143 39.6429 19.5714 39.5 19.8571C39.3571 20.2143 39.3571 20.5 39.5714 20.8571C39.8571 21.2857 40 21.7143 40.1429 22.1429C40.2143 22.5 40.4286 22.7143 40.7857 22.8571C41 22.9286 41.1429 23 41.3571 23.0714C41.7857 23.1429 41.8571 23.4286 41.8571 23.7857C41.8571 24.0714 41.7857 24.2143 41.4286 24.3571ZM34.5 19.2143C34.1429 19.2143 33.8571 19.4286 33.8571 19.7143C33.8571 20.0714 34.1429 20.2143 34.5 20.2143C34.5714 20.2143 34.6429 20.2143 34.7143 20.2143C36.6429 20.2857 38.3571 22.4286 37.8571 24.3571C37.5714 25.6429 36.2143 26.8571 35 27C33.6429 27.1429 32.0714 26.2857 31.5 25.0714C30.9286 23.8571 31 22.2857 32 21.3571C32.3571 20.9286 32.7143 20.5714 32.4286 20.2857C32.1429 20 31.8571 20.0714 31.4286 20.5C30.1429 21.7143 29.7857 23.6429 30.4286 25.2857C31.0714 27 32.7143 28.0714 34.7857 28.0714C36.3571 28 37.7143 27.2143 38.5 25.5C39.2857 23.8571 39.0714 22.2143 37.8571 20.7857C37 19.7857 35.8571 19.2857 34.5 19.2143ZM17.3571 20.4286C18.2143 17.7857 19 15.2143 19.8571 12.5714C19.9286 12.2857 20 11.9286 20 11.7143C20 11 19.6429 10.7857 19.0714 10.6429C18.4286 10.5 17.7857 10.8571 17.5 11.7857C16.6429 14.4286 15.8571 17.1429 15 19.7857C14.6429 20.8571 14.8571 21.5714 15.5714 21.7857C16.2143 22.2143 17 21.5 17.3571 20.4286ZM13.5 14.0714C14 13.5714 14.0714 13 13.5714 12.5714C13.1429 12.1429 12.5714 12.1429 12.0714 12.6429C11.0714 13.6429 10.1429 14.5714 9.14286 15.5714C8.64286 16.0714 8.64286 16.5714 9.14286 17.0714C10.1429 18.0714 11.1429 19.0714 12.0714 20.0714C12.3571 20.3571 12.5714 20.4286 12.9286 20.4286C13.3571 20.4286 13.7143 20.2857 13.8571 19.8571C14 19.4286 13.9286 19 13.7143 18.6429C13.0714 18 12.4286 17.2857 11.7857 16.7143C11.4286 16.4286 11.4286 16.2857 11.7857 15.9286C12.2143 15.3571 12.9286 14.7143 13.5 14.0714ZM21.2143 18.6429C20.8571 19 20.7857 19.4286 20.9286 19.8571C21.0714 20.2857 21.4286 20.4286 21.8571 20.4286C22.2143 20.4286 22.4286 20.2857 22.7143 20C23.6429 19 24.6429 18.0714 25.6429 17.0714C26.2143 16.5 26.2143 16 25.6429 15.5C24.7143 14.5 23.7143 13.5714 22.7143 12.5714C22.2143 12.0714 21.6429 12.0714 21.2143 12.5C20.7857 12.9286 20.7857 13.5 21.2857 14C21.8571 14.6429 22.5714 15.2857 23.1429 15.8571C23.5 16.2143 23.4286 16.3571 23.1429 16.6429C22.4286 17.3571 21.8571 18 21.2143 18.6429ZM10.3571 27.1429C9.85714 27.1429 9.5 27.5 9.42857 27.9286C9.42857 28.4286 9.78571 28.7857 10.2857 28.7857C11.4286 28.7857 23.2857 28.7857 24.4286 28.7857C24.9286 28.7857 25.2857 28.3571 25.2857 27.9286C25.2857 27.4286 24.9286 27.1429 24.4286 27.0714C23.8571 27.0714 12.5714 27.0714 12.0714 27.0714C11.5 27.1429 10.9286 27.1429 10.3571 27.1429ZM14.4286 25C14.4286 25.5 14.7857 25.8571 15.2857 25.8571C15.7143 25.8571 16.0714 25.8571 16.5 25.8571C16.9286 25.8571 19.2857 25.8571 19.7143 25.8571H19.7857C20.3571 25.8571 20.7143 25.5 20.7143 25C20.7143 24.5714 20.3571 24.1429 19.8571 24.1429C19 24.1429 16.1429 24.1429 15.2857 24.1429C14.7857 24.1429 14.4286 24.5 14.4286 25ZM10.7857 25.8571C10.9286 25.8571 12.3571 25.8571 12.5 25.8571C13.0714 25.8571 13.4286 25.5 13.4286 25C13.4286 24.5 13.0714 24.1429 12.5 24.1429C12.2143 24.1429 10.5714 24.1429 10.2857 24.1429C9.78571 24.2143 9.5 24.5714 9.42857 25C9.42857 25.4286 9.78571 25.8571 10.2857 25.8571C10.5 25.8571 10.6429 25.8571 10.7857 25.8571ZM24.4286 33.2857C23.8571 33.2857 12.5714 33.2857 12.0714 33.2857C11.5 33.2857 10.9286 33.2857 10.3571 33.2857C9.85714 33.2857 9.5 33.6429 9.42857 34.0714C9.42857 34.5714 9.78571 34.9286 10.2857 34.9286C11.4286 34.9286 23.2857 34.9286 24.4286 34.9286C24.9286 34.9286 25.2857 34.5 25.2857 34.0714C25.2857 33.6429 24.9286 33.3571 24.4286 33.2857ZM24.4286 36.4286C23.8571 36.4286 12.5714 36.4286 12.0714 36.4286C11.5 36.4286 10.9286 36.4286 10.3571 36.4286C9.85714 36.4286 9.5 36.7857 9.42857 37.2143C9.42857 37.7143 9.78571 38.0714 10.2857 38.0714C11.4286 38.0714 23.2857 38.0714 24.4286 38.0714C24.9286 38.0714 25.2857 37.6429 25.2857 37.2143C25.2857 36.7857 24.9286 36.5 24.4286 36.4286ZM24.6429 30.2143C23.7857 30.2143 20.9286 30.2143 20.0714 30.2143C19.5714 30.2143 19.2143 30.5714 19.2143 31.0714C19.2143 31.5714 19.5714 31.9286 20.0714 31.9286C20.5 31.9286 20.8571 31.9286 21.2857 31.9286C21.7143 31.9286 24.0714 31.9286 24.5 31.9286H24.5714C25.1429 31.9286 25.5 31.5714 25.5 31.0714C25.5714 30.5714 25.2143 30.2143 24.6429 30.2143ZM10.2857 30.2143C9.78571 30.2857 9.5 30.6429 9.42857 31.0714C9.42857 31.5 9.78571 31.9286 10.2857 31.9286C10.4286 31.9286 10.5714 31.9286 10.7143 31.9286C10.8571 31.9286 17.1429 31.9286 17.2143 31.9286C17.7857 31.9286 18.1429 31.5714 18.1429 31.0714C18.1429 30.5714 17.7857 30.2143 17.2143 30.2143C17 30.1429 10.5714 30.1429 10.2857 30.2143Z" fill="#2166F3" stroke="#2166F3" stroke-width="0.3"/>
</svg>
