<svg width="50" height="50" viewBox="0 0 50 50" fill="none" xmlns="http://www.w3.org/2000/svg">
<path d="M32.5567 41.3093V42.6495C32.5567 42.9588 32.4536 43.0619 32.1443 43.0619C32.0412 43.0619 32.0412 43.0619 31.9381 43.0619H6.57732C6.16495 43.0619 5.95876 42.9588 5.95876 42.5464C6.16495 36.1546 6.16495 29.866 6.16495 23.5773V4.81443C6.16495 3.68041 6.57732 3.26804 7.71134 3.26804H31.3196C32.2474 3.26804 32.6598 3.7835 32.6598 4.60825V5.02062H34.8247V4.71134C34.8247 2.4433 33.3814 1 31.1134 1H7.60825C7.19588 1 6.8866 1 6.47423 1.10309C4.92784 1.61856 4 2.95876 4 4.71134V45.9485C4 48.0103 5.4433 49.6598 7.71134 49.6598H31.2165C33.4845 49.6598 34.9278 48.2165 34.9278 45.9485V41.3093H32.5567ZM32.6598 45.7423V46.1546C32.6598 46.9794 32.1443 47.3917 31.4227 47.3917H7.91753C6.26804 47.3917 6.16495 46.567 6.26804 45.433C6.26804 45.2268 6.37113 45.2268 6.47423 45.2268H32.1443C32.6598 45.2268 32.7629 45.3299 32.6598 45.7423ZM21.8351 38.9381C21.8351 38.732 21.8351 38.6289 21.5258 38.6289C21.2165 38.6289 20.8041 38.6289 20.4948 38.6289C20.2887 38.6289 20.2887 38.6289 20.2887 38.8351C20.2887 40.0722 20.2887 41.2062 20.2887 42.4433H21.732C21.8351 41.3093 21.8351 40.0722 21.8351 38.9381ZM22.0412 15.1237C22.3505 15.0206 22.5567 14.7113 22.5567 14.299C22.4536 13.8866 22.2474 13.6804 21.6289 13.6804C18.7423 13.6804 15.7526 13.6804 12.866 13.6804C12.4536 13.6804 12.0412 13.7835 11.732 13.8866C11.0103 14.1959 10.701 14.8144 10.4948 15.5361V25.3299C10.5979 25.3299 10.5979 25.433 10.5979 25.5361C10.9072 26.567 11.5258 27.0825 12.5567 27.1856C13.2784 27.2887 14 27.1856 14.7216 27.1856C15.0309 27.1856 15.0309 27.2887 15.0309 27.4948C15.0309 28.1134 15.0309 28.6289 15.0309 29.2474C15.0309 29.6598 15.134 29.9691 15.5464 30.1753C15.9588 30.3814 16.268 30.1753 16.4742 29.866C17.299 29.0412 18.1237 28.2165 18.9485 27.3918C19.0515 27.2887 19.2577 27.1856 19.4639 27.1856C20.1856 27.1856 21.0103 27.1856 21.732 27.1856C22.2474 27.1856 22.5567 26.9794 22.5567 26.567C22.6598 26.0515 22.3505 25.6392 21.732 25.6392C20.9072 25.6392 20.1856 25.6392 19.3608 25.6392C18.8454 25.6392 18.3299 25.7423 18.0206 26.1546C17.6082 26.6701 17.0928 27.0825 16.5773 27.5979C16.5773 27.1856 16.5773 26.8763 16.5773 26.567C16.5773 25.8454 16.268 25.6392 15.6495 25.6392C14.8247 25.6392 14 25.6392 13.0722 25.6392C12.3505 25.6392 12.0412 25.3299 12.0412 24.6082C12.0412 21.7216 12.0412 18.9381 12.0412 16.0515C12.0412 15.3299 12.3505 15.0206 13.0722 15.0206C15.9588 15.0206 18.7423 15.0206 21.6289 15.0206C21.732 15.2268 21.9381 15.2268 22.0412 15.1237ZM21.1134 21C21.1134 20.6907 21.1134 20.2783 21.1134 19.9691C21.1134 19.7629 21.0103 19.7629 20.9072 19.7629C18.5361 19.7629 16.1649 19.7629 13.7938 19.7629C13.5876 19.7629 13.5876 19.7629 13.5876 19.9691C13.5876 20.2783 13.5876 20.5876 13.5876 21C13.5876 21.2062 13.6907 21.3093 13.8969 21.3093C15.0309 21.3093 16.1649 21.3093 17.4021 21.3093C18.5361 21.3093 19.7732 21.3093 20.9072 21.3093C21.0103 21.3093 21.1134 21.2062 21.1134 21ZM13.7938 18.2165C14.9278 18.2165 16.0619 18.2165 17.299 18.2165H20.2887C21.0103 18.2165 21.0103 18.2165 21.0103 17.4948C21.0103 16.7732 21.0103 16.7732 20.2887 16.7732C18.1237 16.7732 15.9588 16.7732 13.7938 16.7732C13.4845 16.7732 13.4845 16.8763 13.4845 17.0825C13.4845 17.3918 13.4845 17.701 13.4845 18.0103C13.4845 18.2165 13.5876 18.2165 13.7938 18.2165ZM13.4845 23.4742C13.4845 24.299 13.4845 24.299 14.3093 24.299C15.0309 24.299 15.0309 24.299 15.0309 23.5773C15.0309 22.7526 15.0309 22.7526 14.2062 22.7526C13.4845 22.7526 13.4845 22.7526 13.4845 23.4742ZM16.5773 23.5773C16.5773 24.299 16.5773 24.299 17.299 24.299C18.1237 24.299 18.1237 24.299 18.1237 23.4742C18.1237 22.7526 18.1237 22.7526 17.4021 22.7526C16.5773 22.7526 16.5773 22.7526 16.5773 23.5773ZM40.0825 13.6804C40.8041 13.6804 40.8041 13.6804 40.8041 12.9588C40.8041 12.134 40.8041 12.134 39.9794 12.134C39.2577 12.134 39.2577 12.134 39.2577 12.8557C39.2577 13.6804 39.2577 13.6804 40.0825 13.6804ZM29.3608 39.4536C29.3608 38.6289 29.3608 38.6289 28.5361 38.6289C27.8144 38.6289 27.8144 38.6289 27.8144 39.3505C27.8144 40.0722 27.8144 40.0722 28.5361 40.0722C29.3608 40.1753 29.3608 40.1753 29.3608 39.4536ZM41.5258 18.2165C41.1134 18.2165 40.8041 18.5258 40.8041 19.0412C40.8041 19.3505 40.8041 19.7629 40.8041 20.1753C40.1856 19.5567 39.6701 19.0412 39.1546 18.5258C38.9485 18.3196 38.7423 18.2165 38.433 18.2165C37.9175 18.2165 37.5052 18.2165 36.9897 18.2165C36.4742 18.2165 36.1649 18.5258 36.1649 18.9381C36.1649 19.3505 36.4742 19.6598 36.8866 19.6598C37.1959 19.6598 37.5052 19.6598 37.8144 19.6598C38.0206 19.6598 38.1237 19.7629 38.3299 19.866C39.1546 20.6907 39.9794 21.5155 40.8041 22.3402C41.1134 22.6495 41.4227 22.7526 41.732 22.6495C42.1443 22.4433 42.2474 22.134 42.2474 21.8247C42.2474 20.8969 42.2474 19.9691 42.2474 19.1443C42.2474 18.6289 41.9381 18.2165 41.5258 18.2165ZM46.4742 7.08247C46.0619 6.56701 45.5464 6.25773 44.9278 6.15464H29.0515C28.9485 6.15464 28.7423 6.25773 28.6392 6.25773C27.8144 6.56701 27.1959 7.18557 27.1959 8.1134C27.0928 9.24742 27.1959 10.3814 27.1959 11.4124C27.1959 11.6186 27.299 11.8247 27.5052 12.0309C27.7113 12.2371 28.0206 12.2371 28.2268 12.134C28.5361 12.0309 28.6392 11.7216 28.6392 11.4124C28.6392 10.4845 28.6392 9.65979 28.6392 8.73196C28.6392 7.90722 28.8454 7.70103 29.6701 7.70103C34.5155 7.70103 39.3608 7.70103 44.2062 7.70103C45.0309 7.70103 45.2371 8.01031 45.2371 8.73196C45.2371 11.5155 45.2371 14.4021 45.2371 17.1856C45.2371 17.9072 45.134 18.1134 44.4124 18.2165C44 18.3196 43.7938 18.6289 43.7938 19.0412C43.7938 19.4536 44.1031 19.7629 44.5155 19.7629C44.8247 19.7629 45.134 19.6598 45.4433 19.5567C46.165 19.2474 46.4742 18.6289 46.6804 17.9072V8.1134C46.6804 7.70103 46.6804 7.39175 46.4742 7.08247ZM36.9897 13.6804C37.7113 13.6804 37.7113 13.6804 37.7113 12.9588C37.7113 12.2371 37.7113 12.2371 36.9897 12.2371C36.1649 12.2371 36.1649 12.2371 36.1649 13.0619C36.1649 13.6804 36.1649 13.6804 36.9897 13.6804ZM36.6804 38.6289C36.3711 38.6289 36.0619 38.6289 35.6495 38.6289C35.3402 38.6289 35.3402 38.732 35.3402 38.9381C35.3402 40.0722 35.3402 41.2062 35.3402 42.4433H36.8866C36.8866 41.2062 36.8866 40.0722 36.8866 38.8351C36.9897 38.732 36.8866 38.6289 36.6804 38.6289ZM34.7217 12.9588C34.7217 12.134 34.7217 12.134 34 12.134C33.2784 12.134 33.2784 12.134 33.2784 12.8557C33.2784 13.6804 33.2784 13.6804 34 13.6804C34.7217 13.6804 34.7217 13.6804 34.7217 12.9588ZM38.5361 32.9588C37.0928 32.134 35.4433 31.4124 33.8969 30.5876C33.7938 30.4845 33.5876 30.4845 33.4845 30.3814C32.6598 29.6598 32.0412 28.9381 31.8351 27.9072C31.8351 27.701 31.8351 27.5979 31.9381 27.4948C32.6598 26.7732 33.2784 25.9485 33.6907 25.0206C34.5155 23.3711 34.7217 21.5155 34.6186 19.6598C34.6186 19.0412 34.5155 18.4227 34.3093 17.8041C33.2784 14.9175 30.4948 13.268 27.5052 13.7835C25.0309 14.1959 22.9691 16.3608 22.6598 18.732C22.5567 19.7629 22.5567 20.8969 22.6598 21.9278C22.9691 23.9897 23.5876 25.8454 25.134 27.2887C26.5773 28.732 28.2268 29.2474 30.1856 28.5258C30.3918 28.4227 30.4948 28.5258 30.4948 28.732C30.4948 28.835 30.5979 28.9381 30.5979 29.0412C30.701 29.2474 30.5979 29.3505 30.4948 29.5567C29.9794 29.9691 29.3608 30.3814 28.8454 30.7938C28.6392 31 28.5361 30.8969 28.3299 30.7938C27.7113 30.3814 27.0928 29.866 26.5773 29.4536C25.5464 28.6289 25.5464 28.732 24.6186 29.5567C24.1031 29.9691 23.6907 30.4845 23.0722 30.7938C21.6289 31.5155 20.0825 32.2371 18.6392 33.0619C17.0928 33.9897 15.9588 35.433 15.8557 37.2887C15.6495 39.0412 15.7526 40.6907 15.8557 42.4433H17.299C17.299 41 17.299 39.5567 17.299 38.0103C17.299 36.567 17.9175 35.433 19.0515 34.6082C19.9794 33.8866 21.0103 33.5773 21.9381 33.0619C22.4536 32.7526 22.9691 32.5464 23.4845 32.2371C23.6907 33.3711 23.8969 34.5052 24.1031 35.6392C24.2062 36.3608 24.6186 36.567 25.2371 36.2577C25.9588 35.9485 26.7835 35.7423 27.5052 35.3299C28.3299 34.9175 28.9485 34.9175 29.7732 35.3299C30.4948 35.7423 31.3196 35.9485 32.0412 36.2577C32.6598 36.4639 33.0722 36.2577 33.1753 35.6392C33.1753 35.3299 33.2784 35.1237 33.2784 34.8144C33.3814 33.9897 33.5876 33.0619 33.6907 32.2371C35.0309 32.8557 36.268 33.4742 37.5052 34.1959C39.1546 35.1237 39.9794 36.4639 39.9794 38.4227C39.9794 39.7629 39.9794 41.2062 39.9794 42.5464H41.4227C41.4227 41 41.4227 39.4536 41.4227 37.9072C41.4227 35.6392 40.3918 34.0928 38.5361 32.9588ZM25.7526 25.7423C24.8247 24.6082 24.4124 23.1649 24.2062 21.7216C24.2062 21.4124 24.2062 21 24.1031 20.6907C24.1031 20.4845 24.2062 20.4845 24.3093 20.3814C25.0309 20.2783 25.6495 19.9691 26.1649 19.4536C26.268 19.3505 26.3711 19.3505 26.5773 19.4536C27.299 20.0722 28.2268 20.3814 29.1546 20.4845C29.6701 20.4845 30.2887 20.4845 30.8041 20.4845C31.2165 20.4845 31.5258 20.2783 31.6289 19.866C31.732 19.5567 31.6289 19.2474 31.3196 19.0412C31.1134 18.9381 30.9072 18.9381 30.701 18.9381C30.1856 18.9381 29.7732 18.9381 29.2577 18.9381C28.3299 18.9381 27.6082 18.5258 27.0928 17.9072C26.5773 17.2887 26.1649 17.2887 25.6495 17.9072C25.2371 18.3196 24.8247 18.6289 24.2062 18.835C24.5155 17.0825 26.0619 15.5361 27.8144 15.2268C30.2887 14.8144 32.5567 16.2577 33.0722 18.732C33.4845 21.3093 33.1753 23.7835 31.4227 25.8454C29.6701 27.9072 27.299 27.8041 25.7526 25.7423ZM32.2474 32.134C32.0412 32.9588 31.9381 33.7835 31.8351 34.6082C30.9072 34.1959 29.9794 33.8866 29.1546 33.4742C28.8454 33.3711 28.5361 33.3711 28.2268 33.4742C27.299 33.8866 26.4742 34.1959 25.5464 34.6082C25.4433 33.7835 25.3402 32.8557 25.134 32.0309C24.9278 31.3093 25.3402 31 25.7526 30.6907C25.8557 30.5876 25.9588 30.6907 26.0619 30.7938C26.7835 31.3093 27.5052 31.8247 28.1237 32.3402C28.6392 32.7526 28.8454 32.7526 29.4639 32.3402C30.1856 31.8247 30.8041 31.3093 31.5258 30.7938C31.732 30.5876 31.8351 30.5876 32.0412 30.7938C32.2474 31.2062 32.3505 31.5155 32.2474 32.134Z" fill="#2166F3"/>
</svg>
