<svg width="80" height="80" viewBox="0 0 80 80" fill="none" xmlns="http://www.w3.org/2000/svg">
<path d="M62.5 46.25C58.4091 46.2536 54.4701 47.8001 51.4694 50.5806C48.4687 53.3612 46.6272 57.1712 46.3125 61.25H45C44.6685 61.25 44.3505 61.1183 44.1161 60.8839C43.8817 60.6495 43.75 60.3315 43.75 60V40C43.75 39.6685 43.8817 39.3505 44.1161 39.1161C44.3505 38.8817 44.6685 38.75 45 38.75H63.75C65.4112 38.752 67.0522 38.3853 68.5545 37.6763C70.0568 36.9673 71.3831 35.9337 72.4375 34.65C73.4962 33.355 74.2549 31.8415 74.6591 30.2184C75.0632 28.5953 75.1028 26.9028 74.775 25.2625C74.3399 23.0775 73.2631 21.0718 71.6822 19.502C70.1012 17.9322 68.0881 16.8696 65.9 16.45C64.9772 16.2789 64.037 16.2201 63.1 16.275C62.6041 14.8679 61.8333 13.5734 60.8324 12.467C59.8316 11.3606 58.6206 10.4643 57.2701 9.83034C55.9195 9.19636 54.4563 8.83734 52.9657 8.7742C51.4751 8.71105 49.9868 8.94502 48.5875 9.4625C47.014 6.94743 44.8265 4.874 42.2309 3.43732C39.6352 2.00063 36.7167 1.24792 33.75 1.25C25.025 1.25 17.6625 7.75 16.4375 16.25C15.6198 16.2345 14.8027 16.3058 14 16.4625C11.8336 16.8982 9.84449 17.965 8.28304 19.5287C6.7216 21.0924 5.65761 23.083 5.225 25.25C4.89525 26.8922 4.93387 28.5871 5.33807 30.2125C5.74227 31.838 6.502 33.3535 7.5625 34.65C8.61695 35.9337 9.94317 36.9673 11.4455 37.6763C12.9478 38.3853 14.5888 38.752 16.25 38.75H35C35.3315 38.75 35.6495 38.8817 35.8839 39.1161C36.1183 39.3505 36.25 39.6685 36.25 40V57.5C36.25 57.8315 36.1183 58.1495 35.8839 58.3839C35.6495 58.6183 35.3315 58.75 35 58.75H33.75V47.5C33.75 45.8424 33.0915 44.2527 31.9194 43.0806C30.7473 41.9085 29.1576 41.25 27.5 41.25H7.5C6.67924 41.25 5.86651 41.4117 5.10823 41.7258C4.34994 42.0399 3.66095 42.5002 3.08058 43.0806C1.90848 44.2527 1.25 45.8424 1.25 47.5V72.5C1.25 74.1576 1.90848 75.7473 3.08058 76.9194C3.66095 77.4998 4.34994 77.9602 5.10823 78.2743C5.86651 78.5883 6.67924 78.75 7.5 78.75H27.5C29.1576 78.75 30.7473 78.0915 31.9194 76.9194C33.0915 75.7473 33.75 74.1576 33.75 72.5V61.25H35C35.9946 61.25 36.9484 60.8549 37.6517 60.1517C38.3549 59.4484 38.75 58.4946 38.75 57.5V40C38.75 39.0054 38.3549 38.0516 37.6517 37.3484C36.9484 36.6451 35.9946 36.25 35 36.25H16.25C14.9496 36.2552 13.6644 35.9697 12.4886 35.4143C11.3127 34.8589 10.2759 34.0477 9.45391 33.04C8.63193 32.0323 8.04561 30.8536 7.73782 29.5901C7.43003 28.3266 7.40857 27.0103 7.675 25.7375C8.01164 24.0565 8.83812 22.5126 10.0504 21.3004C11.2626 20.0881 12.8065 19.2616 14.4875 18.925C17.1125 18.4125 19.7875 19.075 21.8125 20.75C22.81 21.5693 23.6134 22.5997 24.1646 23.7669C24.7158 24.9342 25.0011 26.2092 25 27.5H27.5C27.5054 24.9787 26.6609 22.5291 25.1027 20.5468C23.5446 18.5645 21.3638 17.1653 18.9125 16.575C19.3725 13.4583 20.8023 10.5655 22.9989 8.307C25.1955 6.04853 28.0474 4.53903 31.1502 3.99262C34.253 3.44621 37.449 3.89064 40.285 5.26285C43.121 6.63507 45.4529 8.86541 46.95 11.6375L47.5375 12.7125L48.6125 12.1625C49.8194 11.5593 51.1507 11.2468 52.5 11.25C54.8206 11.25 57.0462 12.1719 58.6872 13.8128C60.3281 15.4538 61.25 17.6794 61.25 20C61.25 22.3206 60.3281 24.5462 58.6872 26.1872C57.0462 27.8281 54.8206 28.75 52.5 28.75V31.25C54.0806 31.2471 55.6429 30.9115 57.0853 30.2651C58.5277 29.6187 59.8179 28.6759 60.8719 27.498C61.926 26.3202 62.7203 24.9337 63.2033 23.4286C63.6862 21.9236 63.8469 20.3337 63.675 18.7625C64.2701 18.7547 64.8646 18.805 65.45 18.9125C67.1431 19.2365 68.7014 20.0575 69.9259 21.2709C71.1504 22.4842 71.9856 24.0349 72.325 25.725C72.5843 27.0068 72.5551 28.3303 72.2394 29.5994C71.9238 30.8686 71.3296 32.0515 70.5 33.0625C69.6807 34.06 68.6503 34.8634 67.4831 35.4146C66.3159 35.9658 65.0408 36.2511 63.75 36.25H45C44.0054 36.25 43.0516 36.6451 42.3484 37.3484C41.6451 38.0516 41.25 39.0054 41.25 40V60C41.25 60.9946 41.6451 61.9484 42.3484 62.6517C43.0516 63.3549 44.0054 63.75 45 63.75H46.3125C46.6272 67.8288 48.4687 71.6388 51.4694 74.4194C54.4701 77.1999 58.4091 78.7464 62.5 78.75C66.6995 78.5853 70.6721 76.8011 73.585 73.7717C76.498 70.7422 78.125 66.7027 78.125 62.5C78.125 58.2973 76.498 54.2578 73.585 51.2283C70.6721 48.1989 66.6995 46.4148 62.5 46.25ZM7.5 43.75H27.5C28.4946 43.75 29.4484 44.1451 30.1517 44.8484C30.8549 45.5516 31.25 46.5054 31.25 47.5V66.25H3.75V47.5C3.75 46.5054 4.14509 45.5516 4.84835 44.8484C5.55161 44.1451 6.50544 43.75 7.5 43.75ZM27.5 76.25H7.5C6.50544 76.25 5.55161 75.8549 4.84835 75.1517C4.14509 74.4484 3.75 73.4946 3.75 72.5V68.75H31.25V72.5C31.25 73.4946 30.8549 74.4484 30.1517 75.1517C29.4484 75.8549 28.4946 76.25 27.5 76.25ZM62.5 48.75C64.9903 48.7551 67.4325 49.4357 69.5664 50.7194C71.7003 52.0031 73.4459 53.8417 74.6172 56.0393C75.7885 58.2369 76.3416 60.7112 76.2175 63.1983C76.0934 65.6855 75.2967 68.0924 73.9125 70.1625C73.2761 68.8154 72.3764 67.6092 71.2665 66.6153C70.1566 65.6213 68.8589 64.8596 67.45 64.375C68.2506 63.6727 68.8922 62.8077 69.332 61.8377C69.7717 60.8677 69.9995 59.815 70 58.75C70.0016 57.4957 69.6886 56.2611 69.0896 55.1591C68.4907 54.057 67.6249 53.1228 66.5715 52.4419C65.5182 51.761 64.3109 51.3551 63.0601 51.2615C61.8093 51.1678 60.555 51.3893 59.412 51.9057C58.269 52.4222 57.2737 53.217 56.5173 54.2175C55.7609 55.2181 55.2675 56.3923 55.0823 57.6328C54.897 58.8734 55.0258 60.1405 55.457 61.3184C55.8881 62.4963 56.6077 63.5472 57.55 64.375C56.1403 64.8616 54.8422 65.6255 53.7324 66.6216C52.6225 67.6177 51.7232 68.8259 51.0875 70.175C49.5585 67.9079 48.7443 65.2345 48.75 62.5C48.75 58.8533 50.1987 55.3559 52.7773 52.7773C55.3559 50.1987 58.8533 48.75 62.5 48.75ZM57.5 58.75C57.5 57.4239 58.0268 56.1522 58.9645 55.2145C59.9021 54.2768 61.1739 53.75 62.5 53.75C63.8261 53.75 65.0979 54.2768 66.0355 55.2145C66.9732 56.1522 67.5 57.4239 67.5 58.75C67.5 60.0761 66.9732 61.3479 66.0355 62.2855C65.0979 63.2232 63.8261 63.75 62.5 63.75C61.1739 63.75 59.9021 63.2232 58.9645 62.2855C58.0268 61.3479 57.5 60.0761 57.5 58.75ZM52.9375 72.3625C53.4879 70.589 54.592 69.0386 56.088 67.9385C57.584 66.8385 59.3931 66.2467 61.25 66.25H63.75C65.6069 66.2467 67.416 66.8385 68.912 67.9385C70.408 69.0386 71.5121 70.589 72.0625 72.3625C69.5041 74.8562 66.0727 76.2519 62.5 76.2519C58.9273 76.2519 55.4959 74.8562 52.9375 72.3625Z" fill="#2166F3"/>
<path d="M8.75 53.7501H26.25C26.913 53.7501 27.5489 53.4867 28.0178 53.0178C28.4866 52.549 28.75 51.9131 28.75 51.2501V48.7501C28.75 48.087 28.4866 47.4512 28.0178 46.9823C27.5489 46.5135 26.913 46.2501 26.25 46.2501H8.75C8.08696 46.2501 7.45107 46.5135 6.98223 46.9823C6.51339 47.4512 6.25 48.087 6.25 48.7501V51.2501C6.25 52.6251 7.375 53.7501 8.75 53.7501ZM8.75 48.7501H26.25V51.2501H8.75V48.7501ZM8.75 63.7501H26.25C26.913 63.7501 27.5489 63.4867 28.0178 63.0178C28.4866 62.549 28.75 61.9131 28.75 61.2501V58.7501C28.75 58.087 28.4866 57.4512 28.0178 56.9823C27.5489 56.5135 26.913 56.2501 26.25 56.2501H8.75C8.08696 56.2501 7.45107 56.5135 6.98223 56.9823C6.51339 57.4512 6.25 58.087 6.25 58.7501V61.2501C6.25 62.6251 7.375 63.7501 8.75 63.7501ZM8.75 58.7501H26.25V61.2501H8.75V58.7501ZM26.25 71.2501H28.75V73.7501H26.25V71.2501ZM21.25 71.2501H23.75V73.7501H21.25V71.2501ZM16.25 71.2501H18.75V73.7501H16.25V71.2501ZM20 27.5001H22.5C22.5 25.8425 21.8415 24.2528 20.6694 23.0807C19.4973 21.9086 17.9076 21.2501 16.25 21.2501V23.7501C17.2446 23.7501 18.1984 24.1452 18.9017 24.8484C19.6049 25.5517 20 26.5055 20 27.5001ZM44.95 13.1876C43.92 11.0985 42.3241 9.3406 40.344 8.11409C38.3639 6.88757 36.0792 6.24172 33.75 6.25008V8.75008C35.6151 8.74407 37.4443 9.2624 39.029 10.2459C40.6137 11.2295 41.8901 12.6386 42.7125 14.3126L44.95 13.1876ZM56.25 20.0001C56.25 20.9946 55.8549 21.9485 55.1516 22.6517C54.4484 23.355 53.4946 23.7501 52.5 23.7501V26.2501C54.1576 26.2501 55.7473 25.5916 56.9194 24.4195C58.0915 23.2474 58.75 21.6577 58.75 20.0001H56.25ZM16.25 31.2501H18.75V33.7501H16.25V31.2501ZM21.25 31.2501H23.75V33.7501H21.25V31.2501ZM26.25 31.2501H28.75V33.7501H26.25V31.2501Z" fill="#2166F3"/>
</svg>
