<svg width="81" height="80" viewBox="0 0 81 80" fill="none" xmlns="http://www.w3.org/2000/svg">
<path d="M69.25 56.2575V51.25C69.248 49.593 68.5889 48.0044 67.4172 46.8328C66.2456 45.6611 64.657 45.002 63 45H52.4775C53.6345 42.8657 54.5678 40.6175 55.2625 38.2913L60.0125 34.49C60.7508 33.9006 61.2906 33.0988 61.5589 32.193C61.8273 31.2871 61.8113 30.3207 61.5131 29.4243C61.215 28.5278 60.649 27.7443 59.8916 27.1796C59.1342 26.6149 58.2218 26.2961 57.2775 26.2663L60.0625 18.6088C60.7731 16.6545 61.0022 14.5578 60.7304 12.4962C60.4585 10.4346 59.6938 8.46896 58.5009 6.76572C57.308 5.06248 55.7221 3.67188 53.8776 2.71173C52.0332 1.75158 49.9844 1.25018 47.905 1.25H37.2925C29.3516 1.24802 21.5703 3.47967 14.8375 7.69C14.6352 7.81531 14.4729 7.99576 14.3696 8.21014C14.2663 8.42452 14.2264 8.66392 14.2545 8.90022C14.2826 9.13651 14.3775 9.35988 14.5282 9.54407C14.6789 9.72826 14.879 9.86562 15.105 9.94L18.1188 10.94C18.5335 11.0784 18.9157 11.3 19.2418 11.5914C19.5678 11.8827 19.8309 12.2376 20.0149 12.6343C20.1989 13.031 20.2999 13.4611 20.3118 13.8982C20.3236 14.3353 20.246 14.7702 20.0837 15.1763C19.7842 15.9248 19.6467 16.7283 19.6801 17.5339C19.7135 18.3394 19.9171 19.1288 20.2775 19.85L23.5 26.2888C22.5781 26.3621 21.6996 26.711 20.9785 27.2901C20.2575 27.8692 19.7272 28.6517 19.4566 29.536C19.1859 30.4203 19.1874 31.3655 19.4609 32.249C19.7343 33.1324 20.2671 33.9132 20.99 34.49L25.74 38.2913C26.4339 40.6174 27.3664 42.8656 28.5225 45H18C16.343 45.002 14.7544 45.6611 13.5828 46.8328C12.4111 48.0044 11.752 49.593 11.75 51.25V56.2575C8.79155 57.4934 6.26413 59.5757 4.48503 62.243C2.70593 64.9103 1.75443 68.0438 1.75 71.25V77.5C1.75 77.8315 1.8817 78.1495 2.11612 78.3839C2.35054 78.6183 2.66848 78.75 3 78.75H78C78.3315 78.75 78.6495 78.6183 78.8839 78.3839C79.1183 78.1495 79.25 77.8315 79.25 77.5V71.25C79.2456 68.0438 78.2941 64.9103 76.515 62.243C74.7359 59.5757 72.2084 57.4934 69.25 56.2575ZM50.5 26.25H43C42.6685 26.25 42.3505 26.3817 42.1161 26.6161C41.8817 26.8505 41.75 27.1685 41.75 27.5V28.75H39.25V27.5C39.25 27.1685 39.1183 26.8505 38.8839 26.6161C38.6495 26.3817 38.3315 26.25 38 26.25H26.75V24.4188L34.5525 19.2175C36.2315 18.0958 38.2058 17.4981 40.225 17.5C43.1138 17.4966 45.9161 16.5135 48.1737 14.7113L50.2162 13.0775L52.36 16.295C53.5943 18.1418 54.2521 20.3137 54.25 22.535V26.25H50.5ZM49.25 28.75V32.5C49.25 32.8315 49.1183 33.1495 48.8839 33.3839C48.6495 33.6183 48.3315 33.75 48 33.75H45.5C45.1685 33.75 44.8505 33.6183 44.6161 33.3839C44.3817 33.1495 44.25 32.8315 44.25 32.5V28.75H49.25ZM36.75 28.75V32.5C36.75 32.8315 36.6183 33.1495 36.3839 33.3839C36.1495 33.6183 35.8315 33.75 35.5 33.75H33C32.6685 33.75 32.3505 33.6183 32.1161 33.3839C31.8817 33.1495 31.75 32.8315 31.75 32.5V28.75H36.75ZM59.25 30.875C59.2506 31.1939 59.1793 31.5088 59.0412 31.7962C58.9031 32.0837 58.7018 32.3362 58.4525 32.535L56.1862 34.3475C56.5166 32.4992 56.6984 30.6274 56.73 28.75H57.125C57.6886 28.75 58.2291 28.9739 58.6276 29.3724C59.0261 29.7709 59.25 30.3114 59.25 30.875ZM22.4038 16.105C22.6925 15.3828 22.8307 14.6092 22.8099 13.8316C22.789 13.0541 22.6095 12.289 22.2823 11.5833C21.9552 10.8777 21.4873 10.2463 20.9074 9.72787C20.3275 9.20949 19.6478 8.81505 18.91 8.56875L18.5275 8.44375C24.3018 5.36097 30.7468 3.74884 37.2925 3.75H47.905C49.5821 3.75032 51.2345 4.15477 52.7221 4.9291C54.2098 5.70344 55.4889 6.82486 56.4513 8.1984C57.4136 9.57195 58.0308 11.1572 58.2505 12.8198C58.4703 14.4825 58.2862 16.1736 57.7137 17.75L56.6275 20.7375C56.356 18.6504 55.6075 16.6538 54.44 14.9025L51.54 10.5513C51.4438 10.4071 51.3186 10.2846 51.1725 10.1914C51.0264 10.0982 50.8625 10.0365 50.6912 10.01C50.5201 9.98415 50.3454 9.99378 50.1781 10.0383C50.0108 10.0828 49.8544 10.1612 49.7188 10.2688L46.6125 12.76C44.7977 14.2071 42.5461 14.9967 40.225 15C37.7119 14.9977 35.2548 15.7417 33.165 17.1375L24.8062 22.71C24.7288 22.7626 24.6575 22.8238 24.5937 22.8925L22.5138 18.7313C22.3111 18.3261 22.1964 17.8826 22.1775 17.4299C22.1585 16.9773 22.2356 16.5257 22.4038 16.105ZM22.5487 32.5375C22.2037 32.2628 21.9527 31.8876 21.8305 31.4639C21.7083 31.0402 21.7209 30.5889 21.8667 30.1727C22.0124 29.7565 22.2841 29.3959 22.6439 29.141C23.0038 28.8861 23.434 28.7494 23.875 28.75H24.2675C24.2989 30.6282 24.4808 32.5008 24.8112 34.35L22.5487 32.5375ZM26.77 28.75H29.25V32.5C29.25 33.4946 29.6451 34.4484 30.3483 35.1517C31.0516 35.8549 32.0054 36.25 33 36.25H35.5C36.4946 36.25 37.4484 35.8549 38.1517 35.1517C38.8549 34.4484 39.25 33.4946 39.25 32.5V31.25H41.75V32.5C41.75 33.4946 42.1451 34.4484 42.8484 35.1517C43.5516 35.8549 44.5054 36.25 45.5 36.25H48C48.9946 36.25 49.9484 35.8549 50.6516 35.1517C51.3549 34.4484 51.75 33.4946 51.75 32.5V28.75H54.23C54.1329 34.4793 52.5334 40.0828 49.5912 45H31.4087C28.4666 40.0828 26.8671 34.4793 26.77 28.75ZM18 47.5H63C63.9946 47.5 64.9484 47.8951 65.6516 48.5984C66.3549 49.3016 66.75 50.2554 66.75 51.25V76.25H14.25V51.25C14.25 50.2554 14.6451 49.3016 15.3483 48.5984C16.0516 47.8951 17.0054 47.5 18 47.5ZM4.25 71.25C4.25339 68.7172 4.9553 66.2344 6.27851 64.0746C7.60173 61.9149 9.49497 60.162 11.75 59.0088V76.25H4.25V71.25ZM76.75 76.25H69.25V59.0088C71.5049 60.1622 73.3981 61.9151 74.7213 64.0748C76.0445 66.2344 76.7465 68.7172 76.75 71.25V76.25Z" fill="#2166F3"/>
<path d="M40.4997 72.5C41.4886 72.5 42.4553 72.2067 43.2776 71.6573C44.0998 71.1079 44.7407 70.327 45.1191 69.4134C45.4976 68.4998 45.5966 67.4944 45.4037 66.5245C45.2107 65.5546 44.7345 64.6637 44.0353 63.9644C43.336 63.2652 42.4451 62.789 41.4752 62.596C40.5053 62.4031 39.4999 62.5021 38.5863 62.8806C37.6727 63.259 36.8918 63.8999 36.3424 64.7221C35.793 65.5444 35.4997 66.5111 35.4997 67.5C35.4997 68.826 36.0265 70.0978 36.9642 71.0355C37.9019 71.9732 39.1737 72.5 40.4997 72.5ZM40.4997 65C40.9942 65 41.4775 65.1466 41.8887 65.4213C42.2998 65.696 42.6202 66.0864 42.8094 66.5433C42.9987 67.0001 43.0482 67.5027 42.9517 67.9877C42.8552 68.4726 42.6171 68.9181 42.2675 69.2677C41.9179 69.6174 41.4724 69.8555 40.9875 69.9519C40.5025 70.0484 39.9998 69.9989 39.543 69.8097C39.0862 69.6204 38.6958 69.3 38.4211 68.8889C38.1464 68.4778 37.9997 67.9944 37.9997 67.5C37.9997 66.8369 38.2631 66.201 38.732 65.7322C39.2008 65.2634 39.8367 65 40.4997 65ZM32.116 60.8837L33.8835 59.1162L29.7672 55L33.8835 50.8837L32.116 49.1162L27.116 54.1162C26.8816 54.3506 26.75 54.6685 26.75 55C26.75 55.3314 26.8816 55.6493 27.116 55.8837L32.116 60.8837ZM48.8835 60.8837L53.8835 55.8837C54.1178 55.6493 54.2495 55.3314 54.2495 55C54.2495 54.6685 54.1178 54.3506 53.8835 54.1162L48.8835 49.1162L47.116 50.8837L51.2322 55L47.116 59.1162L48.8835 60.8837ZM35.7497 59.2487L43.2497 49.25L45.2497 50.75L37.7485 60.75L35.7497 59.2487Z" fill="#2166F3"/>
</svg>
