<svg width="80" height="80" viewBox="0 0 80 80" fill="none" xmlns="http://www.w3.org/2000/svg">
<g clip-path="url(#clip0_115_560)">
<path d="M74.8658 0.275391H33.9981C31.165 0.275391 28.8602 2.58008 28.8602 5.41305V14.7045C28.1581 15.2045 27.2586 15.531 26.3177 15.5982C24.9877 15.6899 23.7806 15.2759 23.0847 14.4896C23.0649 14.4674 23.0443 14.4459 23.0228 14.4254C19.3758 10.9251 13.6052 11.1224 9.50438 12.8704C5.44766 14.5999 2.92766 17.6959 2.92766 20.9505C2.92766 22.0618 3.23609 23.1388 3.83219 24.1371C3.25969 25.7334 2.9675 27.5579 2.9675 29.5741C2.9675 33.6766 4.18922 37.6749 6.40719 40.8641C7.01516 43.2643 7.98485 45.4696 9.2786 47.3382C9.4733 47.619 9.67673 47.8937 9.8886 48.1618C6.53453 49.3145 3.34734 51.1357 0.394063 53.594C0.270747 53.6967 0.171524 53.8252 0.103424 53.9705C0.0353248 54.1158 1.59405e-05 54.2743 0 54.4348V71.8368C0 72.0818 0.0823438 72.3199 0.23375 72.5127L4.18141 77.537H0V79.7251H74.8658C77.6963 79.7251 79.9992 77.4223 79.9992 74.5916V5.41305C79.9991 2.58008 77.6963 0.275391 74.8658 0.275391ZM10.3623 14.8832C11.8967 14.229 13.6984 13.8226 15.483 13.8226C17.6847 13.8226 19.8609 14.4412 21.4788 15.9763C22.6248 17.2446 24.4861 17.9184 26.4711 17.7809C28.2497 17.6538 29.8994 16.8915 31.0139 15.7248C32.0773 16.5862 33.0678 17.8191 33.0678 19.4224C33.0678 23.4874 26.6433 27.2465 19.0388 27.631C13.9038 27.8902 9.18328 26.5966 6.71891 24.2538C5.655 23.2423 5.11563 22.131 5.11563 20.9504C5.11578 18.5877 7.12609 16.2629 10.3623 14.8832ZM34.6758 68.8338V71.4584L32.4303 74.3162V65.6848H34.6758V68.8338ZM36.8639 65.6848V8.27867H71.9956V67.7398H36.8639V65.6848ZM34.6758 52.2005C33.4989 51.348 32.2889 50.5904 31.0483 49.932V39.9584C32.8906 36.9385 33.8964 33.3018 33.8964 29.5743C33.8964 27.6652 33.6328 25.9202 33.1139 24.3738C33.7839 23.6468 34.3119 22.8698 34.6759 22.0566V52.2005H34.6758ZM13.8189 51.5559C15.2678 52.3379 16.8256 52.7473 18.4341 52.7473C20.0408 52.7473 21.597 52.3384 23.0447 51.5571V52.0698C23.0447 54.6146 20.9764 56.6849 18.4341 56.6849C15.8892 56.6849 13.8189 54.6146 13.8189 52.0698V51.5559ZM31.2988 25.9752C31.5688 27.0688 31.7081 28.2716 31.7081 29.5741C31.7081 31.0637 31.5269 32.5345 31.1833 33.9462C31.1016 31.4863 30.6648 29.0757 29.9033 26.8807C30.3841 26.6037 30.8499 26.3015 31.2988 25.9752ZM28.8602 45.1804V48.8863C28.2384 48.6209 27.6102 48.3796 26.9758 48.1616C27.1876 47.8934 27.391 47.6187 27.5858 47.3379C28.0542 46.6612 28.4783 45.9385 28.8602 45.1804ZM5.52469 26.1235C5.94948 26.4927 6.40114 26.8298 6.87594 27.132C6.16656 29.2599 5.75953 31.5759 5.68078 33.9424C5.33247 32.5124 5.15623 31.0459 5.15578 29.5741C5.15563 28.3266 5.28 27.1729 5.52469 26.1235ZM7.85297 34.7916C7.85297 32.4943 8.19203 30.2382 8.83906 28.1723C11.3248 29.2601 14.3941 29.8527 17.713 29.8527C18.187 29.8527 18.6663 29.8407 19.1494 29.8163C22.4114 29.6515 25.418 28.9502 27.9283 27.869C28.638 30.0146 29.0111 32.3838 29.0111 34.7916C29.0111 43.486 24.2664 50.5593 18.4344 50.5593C12.5997 50.5593 7.85297 43.4859 7.85297 34.7916ZM2.18813 54.9527C5.09969 52.606 8.23844 50.9193 11.533 49.9291C11.5655 49.9585 11.5983 49.9868 11.6308 50.0155V52.0696C11.6308 55.8209 14.6827 58.8727 18.4341 58.8727C22.1828 58.8727 25.2328 55.8209 25.2328 52.0696V50.0168C25.2658 49.9876 25.2989 49.959 25.3317 49.9293C28.6314 50.921 31.7702 52.6074 34.6758 54.9523V63.4968H32.4303V62.828C32.4303 61.414 31.2798 60.2635 29.8658 60.2635H6.99813C5.58406 60.2635 4.43359 61.414 4.43359 62.828V63.4968H2.18813V54.9527ZM2.18813 65.6848H4.43359V74.3162L2.18813 71.4584V65.6848ZM6.62172 77.537V62.828C6.62172 62.624 6.79422 62.4515 6.99813 62.4515H29.8658C30.0698 62.4515 30.2422 62.624 30.2422 62.828V77.537H6.62172ZM77.8109 74.5918C77.8109 76.2159 76.4897 77.5371 74.8656 77.5371H32.6825L36.6302 72.5129C36.7816 72.3201 36.8639 72.0821 36.8639 71.837V69.928H73.0897C73.3799 69.928 73.6581 69.8128 73.8633 69.6076C74.0685 69.4024 74.1838 69.1242 74.1838 68.834V7.18477C74.1838 7.0411 74.1555 6.89884 74.1005 6.76611C74.0455 6.63338 73.9649 6.51278 73.8633 6.4112C73.7617 6.30962 73.6411 6.22905 73.5084 6.17408C73.3756 6.11912 73.2334 6.09084 73.0897 6.09086H35.7698C35.4797 6.09086 35.2015 6.2061 34.9963 6.41125C34.7911 6.61639 34.6758 6.89463 34.6758 7.18477V16.8545C34.0523 15.5179 32.9389 14.3024 31.3941 13.3038C31.288 13.2358 31.1711 13.1866 31.0483 13.1584V5.41305C31.0483 3.78648 32.3716 2.46336 33.9981 2.46336H74.8658C76.4899 2.46336 77.8111 3.78664 77.8111 5.41305L77.8109 74.5918ZM68.315 11.9195H40.5444C40.2542 11.9195 39.976 12.0347 39.7708 12.2398C39.5656 12.445 39.4504 12.7232 39.4503 13.0134V43.0252C39.4503 43.1689 39.4786 43.3112 39.5336 43.4439C39.5886 43.5766 39.6692 43.6972 39.7708 43.7988C39.8724 43.9004 39.993 43.981 40.1257 44.0359C40.2584 44.0909 40.4007 44.1192 40.5444 44.1191H68.3148C68.605 44.1191 68.8832 44.0039 69.0884 43.7988C69.2936 43.5936 69.4089 43.3154 69.4089 43.0252V13.0135C69.409 12.8698 69.3807 12.7276 69.3257 12.5948C69.2708 12.4621 69.1902 12.3415 69.0886 12.2399C68.987 12.1383 68.8664 12.0577 68.7337 12.0027C68.601 11.9477 68.4587 11.9194 68.315 11.9195ZM67.2209 41.9313H41.6384V14.1074H67.2209V41.9313ZM14.1611 44.3546L15.8469 42.9599L16.5442 43.8029C16.9795 44.3291 17.6855 44.9565 18.5759 44.9565C19.4663 44.9565 20.1722 44.3291 20.6075 43.8029L21.3048 42.9599L22.9906 44.3546L22.2933 45.1976C21.2397 46.4712 19.9542 47.1445 18.5759 47.1445C17.2173 47.1445 15.8969 46.453 14.8584 45.1976L14.1611 44.3546ZM14.3772 38.9373H12.1891V34.8624H14.3772V38.9373ZM24.6748 38.9373H22.4867V34.8624H24.6748V38.9373ZM15.242 66.7876L12.0266 70.0032L15.242 73.2188L13.6948 74.7659L9.70578 70.7768C9.50062 70.5716 9.38536 70.2934 9.38536 70.0032C9.38536 69.7131 9.50062 69.4348 9.70578 69.2296L13.6948 65.2405L15.242 66.7876ZM27.158 69.2118C27.3631 69.417 27.4784 69.6952 27.4784 69.9854C27.4784 70.2755 27.3631 70.5538 27.158 70.759L23.1689 74.7479L21.6219 73.2009L24.8373 69.9854L21.6219 66.7698L23.1689 65.2226L27.158 69.2118ZM18.9941 63.6759L21.1072 64.2427L17.8695 76.3127L15.7564 75.7459L18.9941 63.6759ZM52.0424 48.6415H40.5444C40.2542 48.6415 39.976 48.7567 39.7708 48.9619C39.5656 49.167 39.4504 49.4453 39.4503 49.7354V63.0051C39.4503 63.1487 39.4786 63.291 39.5336 63.4237C39.5886 63.5565 39.6692 63.6771 39.7708 63.7786C39.8724 63.8802 39.993 63.9608 40.1257 64.0158C40.2584 64.0707 40.4007 64.099 40.5444 64.099H52.0424C52.3325 64.099 52.6107 63.9837 52.8159 63.7786C53.0211 63.5735 53.1364 63.2952 53.1364 63.0051V49.7354C53.1364 49.5917 53.1081 49.4495 53.0531 49.3167C52.9981 49.184 52.9176 49.0634 52.816 48.9618C52.7144 48.8602 52.5938 48.7797 52.461 48.7247C52.3283 48.6697 52.186 48.6415 52.0424 48.6415ZM50.9483 61.9112H41.6384V50.8295H50.9483V61.9112ZM68.315 48.6415H56.817C56.5269 48.6415 56.2486 48.7567 56.0435 48.9619C55.8383 49.167 55.723 49.4453 55.723 49.7354V63.0051C55.723 63.1487 55.7513 63.291 55.8063 63.4237C55.8612 63.5565 55.9418 63.6771 56.0434 63.7786C56.145 63.8802 56.2656 63.9608 56.3984 64.0158C56.5311 64.0707 56.6734 64.099 56.817 64.099H68.315C68.6051 64.099 68.8834 63.9837 69.0886 63.7786C69.2937 63.5735 69.409 63.2952 69.4091 63.0051V49.7354C69.4091 49.5917 69.3808 49.4495 69.3258 49.3167C69.2708 49.184 69.1902 49.0634 69.0886 48.9618C68.987 48.8602 68.8664 48.7797 68.7337 48.7247C68.6009 48.6697 68.4587 48.6415 68.315 48.6415ZM67.2209 61.9112H57.9111V50.8295H67.2209V61.9112ZM49.3619 31.5401L47.2605 33.6415L48.8077 35.1885L50.9091 33.0871C51.6358 33.594 52.4636 33.9377 53.3356 34.0945V37.068H55.5238V34.0945C56.3961 33.9376 57.2242 33.5938 57.9511 33.0866L60.0569 35.1891L61.603 33.6409L59.4981 31.5393C60.0048 30.8127 60.3483 29.9852 60.505 29.1134H63.4784V26.9254H60.505C60.3483 26.0533 60.0046 25.2254 59.4977 24.4987L61.6036 22.3927L60.0564 20.8457L57.9505 22.9515C57.2238 22.4445 56.396 22.1008 55.5239 21.9441V18.9705H53.3358V21.9441C52.464 22.1008 51.6365 22.4443 50.91 22.951L48.8086 20.8463L47.2602 22.3923L49.3627 24.4982C48.8554 25.2251 48.5116 26.0532 48.3548 26.9255H45.3814V29.1135H48.3548C48.5113 29.9856 48.8549 30.8135 49.3619 31.5401ZM54.4297 24.0332C56.6277 24.0332 58.4159 25.8215 58.4159 28.0195C58.4159 30.2174 56.6278 32.0057 54.4297 32.0057C52.2319 32.0057 50.4436 30.2174 50.4436 28.0195C50.4436 25.8213 52.2317 24.0332 54.4297 24.0332Z" fill="#2166F3"/>
</g>
<defs>
<clipPath id="clip0_115_560">
<rect width="80" height="80" fill="white"/>
</clipPath>
</defs>
</svg>
