<svg width="50" height="50" fill="none" xmlns="http://www.w3.org/2000/svg"><path d="M13.804 6.95a6.86 6.86 0 0 0-6.853 6.854 6.86 6.86 0 0 0 6.853 6.853 6.86 6.86 0 0 0 6.853-6.853 6.86 6.86 0 0 0-6.853-6.853zm0 12.144a5.296 5.296 0 0 1-5.29-5.29 5.296 5.296 0 0 1 5.29-5.29 5.296 5.296 0 0 1 5.29 5.29 5.296 5.296 0 0 1-5.29 5.29zm8.633-.784c.266-.509.487-1.04.659-1.588l3.072-.492a.782.782 0 0 0 .658-.772V12.15a.781.781 0 0 0-.657-.771l-3.073-.492a9.686 9.686 0 0 0-.659-1.589l1.825-2.52a.781.781 0 0 0-.08-1.012l-2.34-2.34a.781.781 0 0 0-1.01-.08L18.31 5.17a9.688 9.688 0 0 0-1.588-.658l-.492-3.073a.781.781 0 0 0-.772-.658H12.15a.78.78 0 0 0-.771.658l-.492 3.073a9.683 9.683 0 0 0-1.589.658l-2.52-1.825a.78.78 0 0 0-1.011.08l-2.34 2.34a.781.781 0 0 0-.081 1.011L5.17 9.297a9.683 9.683 0 0 0-.658 1.589l-3.073.492a.781.781 0 0 0-.658.771v3.31a.781.781 0 0 0 .658.77l3.073.492c.172.549.392 1.08.658 1.59l-1.825 2.52a.781.781 0 0 0 .08 1.011l2.34 2.34a.781.781 0 0 0 1.011.08l2.521-1.825a9.68 9.68 0 0 0 1.589.659l.492 3.072a.781.781 0 0 0 .771.658h3.31a.781.781 0 0 0 .77-.658l.493-3.072a9.697 9.697 0 0 0 1.588-.66l2.521 1.826a.782.782 0 0 0 1.011-.08l2.34-2.34a.781.781 0 0 0 .08-1.01l-1.825-2.522zm-1.229 4.296-2.385-1.727a.781.781 0 0 0-.856-.039 8.128 8.128 0 0 1-2.132.884.78.78 0 0 0-.578.633l-.465 2.907h-1.977l-.465-2.907a.781.781 0 0 0-.578-.633 8.115 8.115 0 0 1-2.131-.884.781.781 0 0 0-.857.04L6.4 22.605l-1.398-1.398 1.727-2.385a.781.781 0 0 0 .04-.856 8.125 8.125 0 0 1-.885-2.132.781.781 0 0 0-.633-.578l-2.906-.465v-1.977l2.906-.465a.781.781 0 0 0 .633-.578c.192-.749.49-1.466.884-2.131a.781.781 0 0 0-.039-.857L5.001 6.4 6.4 5.001l2.385 1.727a.782.782 0 0 0 .857.04 8.119 8.119 0 0 1 2.131-.885.782.782 0 0 0 .578-.633l.465-2.906h1.977l.466 2.906a.781.781 0 0 0 .577.633c.75.192 1.467.49 2.132.884a.782.782 0 0 0 .856-.039l2.385-1.727L22.606 6.4 20.88 8.784a.78.78 0 0 0-.039.857c.395.665.692 1.382.884 2.131a.782.782 0 0 0 .633.578l2.907.465v1.977l-2.906.465a.782.782 0 0 0-.634.578 8.12 8.12 0 0 1-.884 2.131.781.781 0 0 0 .04.857l1.726 2.385-1.398 1.398zm-4.68-7.467a1.94 1.94 0 0 1-.458 1.543c-.346.4-.876.689-1.485.822v.163a.781.781 0 0 1-1.562 0v-.177c-.967-.241-1.703-.922-1.936-1.855a.781.781 0 0 1 1.516-.378c.146.584.773.78 1.262.766.427-.01.848-.16 1.024-.363.055-.064.109-.154.087-.333-.02-.171-.07-.573-1.293-.774-2.026-.333-2.383-1.488-2.414-2.147-.052-1.066.647-1.964 1.754-2.274V9.94a.781.781 0 1 1 1.562 0v.185c.713.192 1.379.67 1.737 1.522a.782.782 0 0 1-1.441.605c-.285-.68-.994-.718-1.367-.633-.167.038-.71.201-.685.71.007.139.025.504 1.107.682 1.58.259 2.451.975 2.591 2.128zm20.679 10.056c-6.623 0-12.012 5.389-12.012 12.012s5.389 12.012 12.012 12.012 12.012-5.389 12.012-12.012-5.389-12.012-12.012-12.012zm0 22.461c-5.762 0-10.45-4.687-10.45-10.449s4.688-10.45 10.45-10.45 10.45 4.688 10.45 10.45-4.688 10.45-10.45 10.45zm3.514-8.42a.781.781 0 0 1-1.068.285l-2.837-1.637a.782.782 0 0 1-.39-.677v-4.249a.781.781 0 1 1 1.562 0v3.798l2.447 1.412a.781.781 0 0 1 .285 1.067zm-4.295-10.001v-.97a.781.781 0 1 1 1.562 0v.97a.781.781 0 1 1-1.562 0zm7.656 1.097a.782.782 0 0 1 0 1.105l-.685.685a.78.78 0 0 1-1.275-.253.782.782 0 0 1 .17-.852l.685-.685a.783.783 0 0 1 1.105 0zm0 12.645a.781.781 0 1 1-1.105 1.105l-.685-.685a.781.781 0 1 1 1.105-1.105l.685.685zm-11.96-.685a.781.781 0 0 1 0 1.105l-.685.685a.779.779 0 0 1-1.105 0 .78.78 0 0 1 0-1.105l.685-.685a.78.78 0 0 1 1.105 0zm0-11.275a.782.782 0 1 1-1.105 1.105l-.685-.685a.782.782 0 1 1 1.105-1.105l.685.685zm14.808 6.19a.782.782 0 0 1-.781.781h-.97a.781.781 0 1 1 0-1.562h.97a.782.782 0 0 1 .78.781zm-8.942 7.972v.97a.782.782 0 0 1-1.562 0v-.97a.781.781 0 1 1 1.562 0zm-7.972-7.972a.782.782 0 0 1-.781.781h-.97a.781.781 0 1 1 0-1.562h.97a.781.781 0 0 1 .78.781zm-7.683 3.472c-6.938 0-13.02-3.311-15.408-8.309a2.863 2.863 0 1 0-1.495.493c1.214 2.642 3.356 4.914 6.231 6.597 3.107 1.82 6.797 2.781 10.672 2.781a.781.781 0 0 0 0-1.562zM4.015 30.002c0-.717.584-1.3 1.301-1.3.718 0 1.301.583 1.301 1.3 0 .718-.583 1.302-1.3 1.302a1.303 1.303 0 0 1-1.302-1.301zM28.041 8.755c6.684.817 12.118 4.865 13.51 9.964a2.867 2.867 0 0 0-1.73 2.629 2.867 2.867 0 0 0 2.864 2.863 2.867 2.867 0 0 0 2.863-2.863 2.868 2.868 0 0 0-2.435-2.832c-.7-2.792-2.41-5.32-4.978-7.34-2.715-2.139-6.14-3.512-9.904-3.972a.78.78 0 1 0-.19 1.55zm15.945 12.593c0 .717-.584 1.3-1.301 1.3a1.303 1.303 0 0 1-1.302-1.3c0-.718.584-1.301 1.301-1.301.718 0 1.302.583 1.302 1.3z" fill="#2166F3" stroke="#2166F3" stroke-width=".2"/></svg>