<svg width="50" height="46" fill="none" xmlns="http://www.w3.org/2000/svg"><path d="M46.875 22.219a.781.781 0 0 0-.781.781 21.088 21.088 0 0 1-41.46 5.456l2.812 1.484a.782.782 0 0 0 .73-1.383l-4.23-2.233a.825.825 0 0 0-1.184.34L.84 31.295a.781.781 0 1 0 1.444.599l1.007-2.427A22.656 22.656 0 0 0 47.656 23a.781.781 0 0 0-.78-.781zm1.862-8.535a.78.78 0 0 0-1.021.423l-1.007 2.427A22.656 22.656 0 0 0 2.344 23a.782.782 0 0 0 1.562 0 21.088 21.088 0 0 1 41.46-5.455l-2.812-1.485a.782.782 0 0 0-.73 1.383l4.234 2.235a.809.809 0 0 0 1.182-.341l1.921-4.63a.783.783 0 0 0-.424-1.023z" fill="#2166F3" stroke="#2166F3" stroke-width=".3"/><path d="M25 33.156A10.156 10.156 0 1 0 14.844 23 10.168 10.168 0 0 0 25 33.156zm0-18.75A8.593 8.593 0 1 1 16.406 23 8.604 8.604 0 0 1 25 14.406z" fill="#2166F3" stroke="#2166F3" stroke-width=".3"/><path d="M30.469 23.781h.781a.781.781 0 1 0 0-1.562h-.781a.781.781 0 1 0 0 1.562zM20.312 23a.781.781 0 0 0-.78-.781h-.782a.781.781 0 1 0 0 1.562h.781a.781.781 0 0 0 .782-.781zM25 30.031a.781.781 0 0 0 .781-.781v-.781a.781.781 0 1 0-1.562 0v.781a.781.781 0 0 0 .781.781zm.402-6.361 3.907-2.344a.781.781 0 1 0-.805-1.34L25.78 21.62V16.75a.781.781 0 1 0-1.562 0V23a.78.78 0 0 0 1.183.67z" fill="#2166F3" stroke="#2166F3" stroke-width=".3"/><path d="M8.438 19.89a.781.781 0 0 0-.626.766v4.688a.781.781 0 0 0 .625.765l2.993.599a13.706 13.706 0 0 0 1.354 3.262l-1.69 2.543a.781.781 0 0 0 .097.985l3.313 3.312a.782.782 0 0 0 .986.098l2.542-1.695c1.024.59 2.12 1.045 3.261 1.354l.6 2.992a.78.78 0 0 0 .763.629h4.688a.782.782 0 0 0 .765-.626l.6-2.992a13.714 13.714 0 0 0 3.26-1.354l2.543 1.69a.78.78 0 0 0 .986-.097l3.312-3.312a.782.782 0 0 0 .098-.986l-1.695-2.543a13.71 13.71 0 0 0 1.354-3.262l2.992-.598a.78.78 0 0 0 .629-.764v-4.688a.782.782 0 0 0-.626-.765l-2.992-.599a13.706 13.706 0 0 0-1.354-3.262l1.69-2.543a.78.78 0 0 0-.097-.985L35.496 9.19a.781.781 0 0 0-.986-.098l-2.542 1.695a13.716 13.716 0 0 0-3.261-1.354l-.598-2.995a.781.781 0 0 0-.765-.625h-4.688a.781.781 0 0 0-.765.625l-.6 2.992c-1.14.309-2.236.764-3.26 1.354l-2.543-1.69a.781.781 0 0 0-.986.097l-3.312 3.312a.782.782 0 0 0-.098.986l1.702 2.553a13.761 13.761 0 0 0-1.349 3.25l-3.008.599zm6.713-9.14 2.422 1.613a.782.782 0 0 0 .846.013 12.192 12.192 0 0 1 3.715-1.542.781.781 0 0 0 .591-.608l.572-2.851h3.406l.57 2.848a.781.781 0 0 0 .591.609c1.315.305 2.57.826 3.715 1.543a.781.781 0 0 0 .847-.012l2.422-1.614 2.407 2.406-1.614 2.422a.781.781 0 0 0-.013.847 12.197 12.197 0 0 1 1.541 3.716.781.781 0 0 0 .61.59l2.846.567v3.406l-2.848.57a.781.781 0 0 0-.609.59 12.196 12.196 0 0 1-1.543 3.716.781.781 0 0 0 .013.847l1.614 2.422-2.408 2.404-2.422-1.613a.78.78 0 0 0-.847-.012 12.193 12.193 0 0 1-3.715 1.541.781.781 0 0 0-.59.609l-.567 2.848h-3.406l-.57-2.848a.781.781 0 0 0-.591-.609 12.192 12.192 0 0 1-3.715-1.543.781.781 0 0 0-.847.013l-2.422 1.613-2.405-2.407 1.614-2.422a.78.78 0 0 0 .012-.847 12.197 12.197 0 0 1-1.541-3.716.782.782 0 0 0-.609-.59l-2.848-.566v-3.406l2.848-.57a.804.804 0 0 0 .609-.59 12.196 12.196 0 0 1 1.543-3.716.83.83 0 0 0-.012-.847l-1.615-2.422 2.403-2.402z" fill="#2166F3" stroke="#2166F3" stroke-width=".3"/></svg>