<svg width="22" height="22" viewBox="0 0 22 22" fill="none" xmlns="http://www.w3.org/2000/svg">
<path d="M17.9628 0.89098C15.0588 3.07998 11.2198 7.09498 8.2718 11.022C7.6888 11.803 7.1938 12.43 7.1608 12.43C7.1278 12.43 6.0278 11.616 4.7298 10.615C3.4318 9.62498 2.2878 8.79998 2.1998 8.79998C1.9798 8.79998 0.450802 10.428 0.373802 10.747C0.318802 10.945 0.692802 11.594 2.0568 13.662C4.0588 16.709 5.2908 18.667 6.2918 20.405C7.0508 21.714 7.3038 21.901 7.6448 21.428C7.7438 21.285 8.2718 20.361 8.8218 19.36C12.7268 12.265 17.2918 5.66498 20.9768 1.75998C22.1098 0.54998 21.9668 0.329981 20.0638 0.329981H18.7108L17.9628 0.89098Z" fill="#2166F3"/>
</svg>
