<svg width="48" height="48" viewBox="0 0 48 48" fill="none" xmlns="http://www.w3.org/2000/svg">
<g clip-path="url(#clip0_1044_1065)">
<path d="M9.01819 9.01819C13.02 5.01637 18.3406 2.8125 24 2.8125C28.3279 2.8125 32.5121 4.12903 36.031 6.55941L33.3144 6.83803L33.6014 9.63581L40.9139 8.88581L40.1639 1.57331L37.366 1.86028L37.6092 4.23131C33.6269 1.48659 28.8945 0 24 0C17.5894 0 11.5625 2.49647 7.02947 7.02947C2.49647 11.5625 0 17.5894 0 24C0 28.7993 1.41225 33.4317 4.08403 37.3964L6.41634 35.8247C6.384 35.7766 6.35259 35.7281 6.32062 35.6798C4.02544 32.2133 2.8125 28.179 2.8125 24C2.8125 18.3407 5.01637 13.02 9.01819 9.01819ZM43.9161 10.6036L41.5837 12.1753C41.616 12.2233 41.6474 12.272 41.6794 12.3202C43.9745 15.7867 45.1875 19.821 45.1875 24C45.1875 29.6594 42.9836 34.98 38.9818 38.9818C34.9801 42.9836 29.6595 45.1875 24 45.1875C19.6721 45.1875 15.4879 43.871 11.969 41.4406L14.6856 41.162L14.3986 38.3642L7.08609 39.1142L7.83609 46.4267L10.634 46.1397L10.3908 43.7687C14.3732 46.5134 19.1056 48 24 48C30.4106 48 36.4375 45.5035 40.9706 40.9705C45.5036 36.4375 48 30.4106 48 24C48 19.2007 46.5878 14.5683 43.9161 10.6036Z" fill="black"/>
<path d="M11.7172 26.9518L13.5378 25.2691C14.917 24.0002 15.1792 23.145 15.1792 22.2072C15.1792 20.4141 13.6481 19.2693 11.4276 19.2693C9.52417 19.2693 8.1587 20.0693 7.42773 21.2831L9.45527 22.4141C9.84142 21.7934 10.4759 21.4762 11.1793 21.4762C12.0069 21.4762 12.4207 21.8486 12.4207 22.4693C12.4207 22.8693 12.3103 23.3107 11.5379 24.0279L7.92423 27.4071V29.1174H15.4412V26.9519L11.7172 26.9518ZM24.1174 27.2691H25.5518V25.1037H24.1174V23.4624H21.5381V25.1037H19.5796L23.5105 19.4624H20.683L16.3521 25.4898V27.2691H21.4554V29.1173H24.1174V27.2691ZM28.0348 30.4965L32.5863 17.5039H30.2554L25.7038 30.4965H28.0348ZM34.9036 23.1175V21.6279H37.4414L34.1864 29.1173H37.1656L40.5724 21.1727V19.4624H32.5726V23.1175H34.9036Z" fill="black"/>
</g>
<defs>
<clipPath id="clip0_1044_1065">
<rect width="48" height="48" fill="white"/>
</clipPath>
</defs>
</svg>
