<svg width="40" height="44" viewBox="0 0 40 44" fill="none" xmlns="http://www.w3.org/2000/svg">
<path d="M7.51577 24.5477V24.5501C7.63706 24.551 7.7569 24.5766 7.86795 24.6254C7.97901 24.6742 8.07897 24.7451 8.16173 24.8338C8.24448 24.9224 8.3083 25.0271 8.34929 25.1412C8.39027 25.2554 8.40757 25.3767 8.40012 25.4978C8.39267 25.6188 8.36063 25.7371 8.30595 25.8454C8.25128 25.9537 8.17511 26.0497 8.08211 26.1275C7.98911 26.2054 7.88121 26.2635 7.76501 26.2983C7.64881 26.3331 7.52674 26.3438 7.40625 26.3298C5.5825 26.2406 3.85486 25.4854 2.55072 24.2074C1.24658 22.9295 0.456548 21.2175 0.330346 19.3959C0.204144 17.5744 0.750539 15.7698 1.86599 14.3242C2.98143 12.8786 4.58843 11.8924 6.38244 11.5525C6.10985 9.31999 6.61506 7.06179 7.81294 5.15829C9.01083 3.25479 10.8282 1.82233 12.9588 1.10224C15.0895 0.382138 17.4032 0.418412 19.5103 1.20495C21.6173 1.99148 23.3889 3.48021 24.5265 5.42032C26.2321 5.08458 28.0016 5.39998 29.4862 6.30435C30.9708 7.20871 32.0627 8.63643 32.5467 10.306C34.5051 10.5282 36.3137 11.4618 37.6292 12.9295C38.9447 14.3971 39.6755 16.2967 39.6828 18.2677C39.6902 20.2386 38.9735 22.1436 37.669 23.621C36.3645 25.0984 34.5629 26.0454 32.6062 26.2822V26.2798C32.4801 26.2966 32.3519 26.2863 32.2301 26.2495C32.1083 26.2128 31.9958 26.1505 31.9 26.0667C31.8042 25.983 31.7274 25.8798 31.6747 25.764C31.622 25.6482 31.5946 25.5225 31.5943 25.3953C31.5945 25.1708 31.6793 24.9546 31.8318 24.7898C31.9842 24.625 32.1932 24.5237 32.417 24.506C33.9355 24.3154 35.3315 23.5749 36.3409 22.4246C37.3503 21.2742 37.9031 19.7938 37.8948 18.2634C37.8864 16.733 37.3174 15.2588 36.2955 14.1195C35.2736 12.9803 33.8696 12.255 32.3491 12.081L31.1634 11.9489L30.8312 10.8013C30.4711 9.56083 29.6594 8.50027 28.556 7.82862C27.4527 7.15698 26.1378 6.92297 24.8705 7.17271L23.6289 7.41556L22.9884 6.32509C22.0591 4.73769 20.6109 3.5193 18.8879 2.8754C17.1649 2.23149 15.2726 2.20147 13.53 2.79039C11.7875 3.37931 10.3013 4.55113 9.32216 6.10825C8.34302 7.66537 7.93082 9.51252 8.15506 11.3382L8.35625 12.9989L6.71339 13.3072C5.34874 13.5682 4.12729 14.3209 3.28063 15.4225C2.43397 16.5242 2.02095 17.8981 2.11988 19.284C2.2188 20.6699 2.8228 21.9713 3.81736 22.9414C4.81191 23.9116 6.12788 24.4832 7.51577 24.5477Z" fill="black"/>
<path fill-rule="evenodd" clip-rule="evenodd" d="M16.4974 28.9H14.9141L17.9403 20.4346H19.6426L22.67 28.9H21.0795L20.3641 26.712H17.2129L16.4974 28.9ZM18.8093 21.9417H18.7736L17.595 25.5441H19.9831L18.8093 21.9417Z" fill="black"/>
<path d="M25.0854 28.9H23.5723V20.4346H25.0854V28.9Z" fill="black"/>
<path fill-rule="evenodd" clip-rule="evenodd" d="M13.0592 15.3464C12.4278 15.3464 11.8222 15.5973 11.3757 16.0438C10.9291 16.4903 10.6783 17.0959 10.6783 17.7274V31.6083C10.6783 32.2398 10.9291 32.8454 11.3757 33.2919C11.8222 33.7384 12.4278 33.9893 13.0592 33.9893H19.1712V36.2274H17.5997C17.284 36.2274 16.9812 36.3528 16.7579 36.576C16.5347 36.7993 16.4092 37.1021 16.4092 37.4178V39.0155H9.82591V37.4178C9.82591 37.1021 9.70049 36.7993 9.47723 36.576C9.25397 36.3528 8.95117 36.2274 8.63544 36.2274H3.83305C3.51732 36.2274 3.21452 36.3528 2.99126 36.576C2.768 36.7993 2.64258 37.1021 2.64258 37.4178V42.219C2.64258 42.5348 2.768 42.8376 2.99126 43.0608C3.21452 43.2841 3.51732 43.4095 3.83305 43.4095H8.63425C8.94998 43.4095 9.25278 43.2841 9.47604 43.0608C9.6993 42.8376 9.82472 42.5348 9.82472 42.219V40.6726H16.4081V42.219C16.4081 42.5348 16.5335 42.8376 16.7567 43.0608C16.98 43.2841 17.2828 43.4095 17.5985 43.4095H22.3997C22.7155 43.4095 23.0183 43.2841 23.2415 43.0608C23.4648 42.8376 23.5902 42.5348 23.5902 42.219V40.6726H30.1735V42.219C30.1735 42.5348 30.299 42.8376 30.5222 43.0608C30.7455 43.2841 31.0483 43.4095 31.364 43.4095H36.1652C36.4809 43.4095 36.7837 43.2841 37.007 43.0608C37.2303 42.8376 37.3557 42.5348 37.3557 42.219V37.4178C37.3557 37.1021 37.2303 36.7993 37.007 36.576C36.7837 36.3528 36.4809 36.2274 36.1652 36.2274H31.364C31.0483 36.2274 30.7455 36.3528 30.5222 36.576C30.299 36.7993 30.1735 37.1021 30.1735 37.4178V39.0155H23.5902V37.4178C23.5902 37.1021 23.4648 36.7993 23.2415 36.576C23.0183 36.3528 22.7155 36.2274 22.3997 36.2274H20.8283V33.9893H26.9378C27.5693 33.9893 28.1749 33.7384 28.6214 33.2919C29.0679 32.8454 29.3188 32.2398 29.3188 31.6083V17.7262C29.3188 17.0947 29.0679 16.4891 28.6214 16.0426C28.1749 15.5961 27.5693 15.3452 26.9378 15.3452L13.0592 15.3464ZM26.9402 17.1321H13.0592C12.9014 17.1321 12.75 17.1948 12.6383 17.3065C12.5267 17.4181 12.464 17.5695 12.464 17.7274V31.6083C12.464 31.7662 12.5267 31.9176 12.6383 32.0292C12.75 32.1408 12.9014 32.2035 13.0592 32.2035H26.9402C27.0981 32.2035 27.2495 32.1408 27.3611 32.0292C27.4727 31.9176 27.5354 31.7662 27.5354 31.6083V17.7262C27.5354 17.5683 27.4727 17.4169 27.3611 17.3053C27.2495 17.1936 27.0981 17.1321 26.9402 17.1321ZM18.195 41.6238V38.0131H21.8057V41.6238H18.195ZM4.42829 38.0131V41.6238H8.03901V38.0131H4.42829ZM31.9592 41.6238V38.0131H35.57V41.6238H31.9592Z" fill="black"/>
</svg>
