<svg width="46" height="48" viewBox="0 0 46 48" fill="none" xmlns="http://www.w3.org/2000/svg">
<g clip-path="url(#clip0_1044_1085)">
<path d="M46.4633 34.442H40.953V16.1814C40.953 15.3328 40.2658 14.6455 39.4172 14.6455C38.5685 14.6455 37.8804 15.3328 37.8804 16.1814V36.2806C37.8804 37.1417 37.0232 37.8694 36.0032 37.8819C35.9943 37.8817 35.9858 37.8806 35.9769 37.8806C35.9602 37.8806 35.944 37.8825 35.9274 37.8831H30.0385C30.0219 37.8825 30.0058 37.8806 29.989 37.8806C29.9722 37.8806 29.9561 37.8825 29.9395 37.8831H24.0489C24.0323 37.8825 24.0162 37.8806 23.9995 37.8806C23.9828 37.8806 23.9667 37.8825 23.9501 37.8831H18.0602C18.0437 37.8825 18.0275 37.8806 18.0108 37.8806C17.9942 37.8806 17.978 37.8825 17.9614 37.8831H12.0716C12.055 37.8825 12.0389 37.8806 12.0222 37.8806C12.0133 37.8806 12.0047 37.8818 11.9959 37.8819C10.975 37.8694 10.1186 37.1417 10.1186 36.2806V11.7228C10.1186 10.8542 10.9906 10.1204 12.0222 10.1204H35.9769C37.0086 10.1204 37.8804 10.8542 37.8804 11.7228V12.024C37.8804 12.8726 38.5684 13.5599 39.4172 13.5599H46.4633C47.3119 13.5599 48 12.8726 48 12.024C48 11.1754 47.312 10.4881 46.4633 10.4881H40.7766C40.3338 8.97184 39.0964 7.76193 37.5135 7.27781V2.40111C37.5135 1.5525 36.8255 0.865234 35.9768 0.865234C35.1282 0.865234 34.4409 1.5525 34.4409 2.40111V7.04859H31.5248V2.40111C31.5248 1.5525 30.8375 0.865234 29.9889 0.865234C29.1403 0.865234 28.4522 1.5525 28.4522 2.40111V7.04859H25.5352V2.40111C25.5352 1.5525 24.8472 0.865234 23.9993 0.865234C23.1514 0.865234 22.4634 1.5525 22.4634 2.40111V7.04859H19.5464V2.40111C19.5464 1.5525 18.8584 0.865234 18.0106 0.865234C17.1627 0.865234 16.4747 1.5525 16.4747 2.40111V7.04859H13.5577V2.40111C13.5577 1.5525 12.8704 0.865234 12.0218 0.865234C11.1732 0.865234 10.4859 1.5525 10.4859 2.40111V7.27753C8.90309 7.76127 7.66665 8.97109 7.22397 10.4873H1.53588C0.688019 10.4873 0 11.1745 0 12.0232C0 12.8718 0.688019 13.559 1.53588 13.559H7.04697V34.442H1.53588C0.688019 34.442 0 35.1291 0 35.9777C0 36.8264 0.688019 37.5136 1.53588 37.5136H7.22425C7.66683 39.0298 8.90328 40.2401 10.4863 40.7241V45.5989C10.4863 46.4476 11.1736 47.1348 12.0222 47.1348C12.87 47.1348 13.5581 46.4476 13.5581 45.5989V40.9531H16.4751V45.5989C16.4751 46.4475 17.1623 47.1347 18.0109 47.1347C18.8587 47.1347 19.5468 46.4475 19.5468 45.5989V40.9531H22.4638V45.5989C22.4638 46.4475 23.1511 47.1347 23.9997 47.1347C24.8483 47.1347 25.5356 46.4475 25.5356 45.5989V40.9531H28.4525V45.5989C28.4525 46.4475 29.1405 47.1347 29.9893 47.1347C30.837 47.1347 31.5251 46.4475 31.5251 45.5989V40.9531H34.4413V45.5989C34.4413 46.4475 35.1285 47.1347 35.9771 47.1347C36.8258 47.1347 37.5139 46.4475 37.5139 45.5989V40.7239C39.0969 40.2399 40.3332 39.0298 40.7758 37.5136H46.4636C47.3113 37.5136 48.0003 36.8264 48.0003 35.9777C48 35.1291 47.3119 34.442 46.4633 34.442Z" fill="black"/>
<path d="M46.4633 28.4535H43.4848C42.6362 28.4535 41.9489 29.1408 41.9489 29.9894C41.9489 30.838 42.6362 31.5253 43.4848 31.5253H46.4633C47.311 31.5253 48 30.838 48 29.9894C48 29.1408 47.3119 28.4535 46.4633 28.4535ZM46.4633 22.4641H43.4848C42.6362 22.4641 41.9489 23.1513 41.9489 23.9999C41.9489 24.8485 42.6362 25.5358 43.4848 25.5358H46.4633C47.311 25.5358 48 24.8485 48 23.9999C48 23.1513 47.3119 22.4641 46.4633 22.4641ZM46.4633 16.4754H43.4848C42.6362 16.4754 41.9489 17.1627 41.9489 18.0113C41.9489 18.8599 42.6362 19.5472 43.4848 19.5472H46.4633C47.311 19.5472 48 18.8599 48 18.0113C48 17.1627 47.3119 16.4754 46.4633 16.4754ZM1.53588 31.5253H4.5152C5.36297 31.5253 6.05108 30.838 6.05108 29.9894C6.05108 29.1408 5.36381 28.4535 4.5152 28.4535H1.53588C0.688019 28.4535 0 29.1417 0 29.9894C0 30.8372 0.688019 31.5253 1.53588 31.5253ZM1.53588 25.5358H4.5152C5.36297 25.5358 6.05108 24.8494 6.05108 24.0008C6.05108 23.1522 5.36381 22.4649 4.5152 22.4649H1.53588C0.688019 22.4649 0 23.1529 0 24.0008C0 24.8485 0.688019 25.5358 1.53588 25.5358ZM1.53588 19.5472H4.5152C5.36297 19.5472 6.05108 18.8599 6.05108 18.0113C6.05108 17.1627 5.36381 16.4754 4.5152 16.4754H1.53588C0.688019 16.4754 0 17.1627 0 18.0113C0 18.8599 0.688019 19.5472 1.53588 19.5472ZM19.0384 15.9629C18.7292 15.9627 18.4271 16.056 18.1717 16.2304C17.9163 16.4048 17.7196 16.6523 17.6073 16.9405L12.5364 29.9437C12.2285 30.7349 12.6188 31.6251 13.4092 31.9329C14.2004 32.2408 15.0907 31.8498 15.3984 31.0601L16.2031 28.9968H21.8737L22.6784 31.0601C22.9146 31.6675 23.4946 32.0386 24.1094 32.0386C24.2949 32.0386 24.4838 32.0045 24.6676 31.9329C25.4572 31.6251 25.849 30.7341 25.5404 29.9437L20.4695 16.9405C20.3571 16.6524 20.1604 16.405 19.905 16.2305C19.6497 16.0561 19.3476 15.9628 19.0384 15.9629ZM17.4009 25.9252L19.0384 21.7261L20.6759 25.9252H17.4009ZM32.6922 19.0346C33.54 19.0346 34.2289 18.3474 34.2289 17.4988C34.2289 16.6502 33.5409 15.9629 32.6922 15.9629H28.3917C27.5431 15.9629 26.8558 16.6502 26.8558 17.4988C26.8558 18.3474 27.5431 19.0346 28.3917 19.0346H29.0057V28.9669H28.3917C27.5431 28.9669 26.8558 29.6542 26.8558 30.5028C26.8558 31.3514 27.5431 32.0387 28.3917 32.0387H32.6922C33.54 32.0387 34.2289 31.3514 34.2289 30.5028C34.2289 29.6542 33.5409 28.9669 32.6922 28.9669H32.079V19.0346H32.6922Z" fill="black"/>
</g>
<defs>
<clipPath id="clip0_1044_1085">
<rect width="48" height="48" fill="white"/>
</clipPath>
</defs>
</svg>
