<svg width="47" height="45" viewBox="0 0 47 45" fill="none" xmlns="http://www.w3.org/2000/svg">
<path d="M43.0231 19.0375C42.2943 19.0389 41.585 19.2827 40.998 19.7334C40.4111 20.1842 39.9771 20.8184 39.7591 21.544H25.2802V17.8827H35.0161C35.2178 17.8821 35.4148 17.8191 35.5822 17.7017L40.2232 14.4715C40.6977 14.7209 41.2219 14.8503 41.7532 14.8493C42.5029 14.8505 43.2323 14.5952 43.8296 14.1225C44.4269 13.6498 44.8593 12.9858 45.0603 12.2321C45.2613 11.4785 45.22 10.6769 44.9427 9.95012C44.6654 9.22333 44.1673 8.61149 43.5248 8.20834C42.8824 7.8052 42.1309 7.63299 41.3857 7.71812C40.6405 7.80324 39.9426 8.14099 39.3989 8.67962C38.8552 9.21825 38.4958 9.92804 38.3757 10.7002C38.2556 11.4724 38.3815 12.2644 38.734 12.9548L34.7203 15.754H25.2802V11.8851H30.2119C30.375 11.8845 30.5357 11.8432 30.6803 11.7645C30.825 11.6858 30.9494 11.572 31.0432 11.4327L33.1903 8.30356C33.9844 8.16318 34.7054 7.73417 35.2255 7.09244C35.7457 6.45071 36.0315 5.63766 36.0324 4.79718C36.0332 3.9567 35.7491 3.143 35.2303 2.50009C34.7115 1.85719 33.9914 1.42654 33.1976 1.28438C32.4037 1.14221 31.5873 1.29769 30.8927 1.72329C30.1982 2.1489 29.6703 2.81719 29.4026 3.60987C29.1348 4.40256 29.1445 5.26853 29.4298 6.0545C29.7151 6.84048 30.2578 7.49578 30.9616 7.90443L29.7019 9.75639H25.2802V6.98909C25.1381 5.5478 24.5817 4.18503 23.684 3.07966C22.7863 1.97429 21.5893 1.17797 20.2501 0.795234C18.9109 0.412496 17.4921 0.461225 16.1799 0.935025C14.8677 1.40883 13.7235 2.28555 12.8974 3.45013C10.7921 3.61495 8.82386 4.60248 7.38586 6.21547C5.94785 7.82846 5.14594 9.94816 5.1403 12.1512C5.14118 12.6687 5.18555 13.1851 5.2729 13.6945C3.85117 14.4164 2.65496 15.5444 1.82329 16.9476C0.99161 18.3507 0.558624 19.9714 0.574648 21.6211C0.590672 23.2709 1.05505 24.8821 1.91381 26.2673C2.77257 27.6526 3.99044 28.7552 5.4259 29.4468C4.85926 30.6393 4.56594 31.9528 4.5691 33.2838C4.5718 35.5977 5.45387 37.8159 7.02184 39.4521C8.58981 41.0882 10.7157 42.0086 12.9331 42.0115H13.4431C14.0597 42.8433 14.8514 43.5159 15.757 43.9773C16.6625 44.4387 17.6577 44.6765 18.6655 44.6723C20.1762 44.678 21.6455 44.1577 22.8408 43.1938C24.0362 42.2299 24.8892 40.8774 25.2649 39.3506C25.2812 39.2701 25.2898 39.1881 25.2904 39.1058V35.4604H29.6968L30.9565 37.3124C30.2488 37.7221 29.7029 38.3799 29.4155 39.1694C29.1281 39.9588 29.1177 40.8289 29.3861 41.6256C29.6545 42.4223 30.1845 43.0941 30.8821 43.5222C31.5797 43.9503 32.4 44.1069 33.1977 43.9644C33.9954 43.8218 34.719 43.3893 35.2404 42.7435C35.7618 42.0976 36.0474 41.28 36.0465 40.4355C36.0456 39.591 35.7583 38.7741 35.2356 38.1294C34.7128 37.4848 33.9883 37.0539 33.1903 36.9132L31.0432 33.784C30.9488 33.6458 30.8242 33.533 30.6795 33.4553C30.5349 33.3775 30.3746 33.337 30.2119 33.337H25.2802V29.4894H34.7203L38.7391 32.2886C38.3495 33.0449 38.232 33.9216 38.4077 34.7603C38.5834 35.5991 39.0408 36.3446 39.6973 36.8622C40.3537 37.3798 41.166 37.6354 41.9872 37.5827C42.8085 37.5301 43.5846 37.1727 44.1754 36.5751C44.7662 35.9775 45.1326 35.1791 45.2086 34.3242C45.2846 33.4693 45.065 32.6142 44.5896 31.9134C44.1142 31.2127 43.4143 30.7124 42.6164 30.5031C41.8184 30.2938 40.975 30.3891 40.2385 30.7719L35.5975 27.5416C35.4301 27.4243 35.2331 27.3613 35.0314 27.3607H25.2802V23.6727H39.7591C39.9477 24.3031 40.3002 24.8666 40.7774 25.3005C41.2545 25.7344 41.8376 26.0217 42.4618 26.1305C43.0861 26.2393 43.727 26.1653 44.3134 25.9168C44.8997 25.6683 45.4086 25.255 45.7833 24.7228C46.1581 24.1906 46.3841 23.5604 46.4361 22.9022C46.4882 22.2441 46.3644 21.5837 46.0784 20.9946C45.7923 20.4055 45.3554 19.9107 44.816 19.5652C44.2766 19.2197 43.656 19.037 43.0231 19.0375ZM41.743 9.83622C42.0164 9.83622 42.2836 9.9208 42.5109 10.0793C42.7381 10.2377 42.9153 10.463 43.0199 10.7265C43.1245 10.99 43.1519 11.28 43.0985 11.5598C43.0452 11.8395 42.9136 12.0965 42.7203 12.2982C42.527 12.4999 42.2807 12.6372 42.0126 12.6929C41.7445 12.7485 41.4666 12.72 41.2141 12.6108C40.9615 12.5017 40.7457 12.3168 40.5938 12.0796C40.442 11.8425 40.3609 11.5636 40.3609 11.2784C40.3622 10.8963 40.5083 10.5303 40.7672 10.2602C41.0261 9.99001 41.3769 9.83762 41.743 9.83622ZM32.614 3.34369C32.8874 3.34369 33.1546 3.42828 33.3819 3.58675C33.6091 3.74522 33.7863 3.97046 33.8909 4.23398C33.9955 4.49751 34.0229 4.78748 33.9695 5.06724C33.9162 5.347 33.7846 5.60397 33.5913 5.80567C33.398 6.00736 33.1517 6.14472 32.8836 6.20037C32.6155 6.25601 32.3376 6.22745 32.0851 6.1183C31.8325 6.00914 31.6167 5.82429 31.4648 5.58712C31.313 5.34996 31.2319 5.07112 31.2319 4.78589C31.2332 4.40382 31.3793 4.03781 31.6382 3.76765C31.8971 3.49749 32.2479 3.3451 32.614 3.34369ZM32.614 41.8731C32.3406 41.8731 32.0734 41.7885 31.8461 41.63C31.6189 41.4716 31.4417 41.2463 31.3371 40.9828C31.2325 40.7193 31.2051 40.4293 31.2585 40.1495C31.3118 39.8698 31.4434 39.6128 31.6367 39.4111C31.83 39.2094 32.0763 39.0721 32.3444 39.0164C32.6125 38.9608 32.8904 38.9893 33.1429 39.0985C33.3955 39.2076 33.6113 39.3925 33.7632 39.6297C33.915 39.8668 33.9961 40.1457 33.9961 40.4309C33.9948 40.813 33.8487 41.179 33.5898 41.4491C33.3309 41.7193 32.9801 41.8717 32.614 41.8731ZM43.1251 33.9384C43.1251 34.2236 43.044 34.5024 42.8922 34.7396C42.7403 34.9768 42.5245 35.1616 42.2719 35.2708C42.0194 35.3799 41.7415 35.4085 41.4734 35.3529C41.2053 35.2972 40.959 35.1599 40.7657 34.9582C40.5724 34.7565 40.4408 34.4995 40.3875 34.2197C40.3341 33.94 40.3615 33.65 40.4661 33.3865C40.5707 33.1229 40.7479 32.8977 40.9751 32.7392C41.2024 32.5808 41.4696 32.4962 41.743 32.4962C42.1091 32.4976 42.4599 32.65 42.7188 32.9201C42.9777 33.1903 43.1238 33.5563 43.1251 33.9384ZM23.2351 38.9621C22.9401 39.9939 22.3343 40.899 21.5075 41.5432C20.6807 42.1874 19.677 42.5363 18.6451 42.5383C17.8712 42.5357 17.1105 42.3289 16.4337 41.9372C15.757 41.5454 15.1861 40.9815 14.7742 40.2979C14.6822 40.1462 14.5549 40.0213 14.4042 39.9348C14.2535 39.8483 14.0843 39.8029 13.9123 39.8029H13.7695C13.4824 39.8482 13.1928 39.873 12.9025 39.8774C11.2331 39.8747 9.63229 39.1844 8.44806 37.9566C7.26382 36.7289 6.59194 35.0629 6.5785 33.3211C6.58065 33.2821 6.58065 33.243 6.5785 33.204C6.57984 32.4243 6.72842 31.6525 7.01575 30.9328C7.30308 30.2131 7.72352 29.5595 8.25305 29.0094C8.78258 28.4593 9.41081 28.0235 10.1018 27.727C10.7928 27.4304 11.5331 27.2788 12.2803 27.2809C12.5508 27.2809 12.8103 27.1687 13.0016 26.9691C13.1928 26.7695 13.3003 26.4988 13.3003 26.2165C13.3003 25.9342 13.1928 25.6635 13.0016 25.4639C12.8103 25.2643 12.5508 25.1522 12.2803 25.1522C11.228 25.1523 10.187 25.3781 9.22197 25.8157C8.25689 26.2534 7.38835 26.8933 6.6703 27.696C5.46159 27.2184 4.42246 26.3652 3.69325 25.2517C2.96405 24.1382 2.5799 22.818 2.59269 21.4694C2.60548 20.1208 3.01459 18.8088 3.76478 17.7106C4.51496 16.6123 5.57007 15.7808 6.7876 15.3283C7.03351 15.2372 7.23665 15.0514 7.35523 14.8088C7.47381 14.5663 7.49882 14.2856 7.4251 14.0244C7.25562 13.416 7.17313 12.7848 7.1803 12.1512C7.18422 10.6364 7.68622 9.16897 8.60241 7.99403C9.51861 6.8191 10.7935 6.00786 12.214 5.6959C12.0566 6.8503 12.1578 8.02707 12.5098 9.13375C12.5799 9.33608 12.707 9.51151 12.8745 9.63691C13.0421 9.76232 13.2421 9.83181 13.4482 9.83622C13.5681 9.83573 13.6871 9.81414 13.8001 9.77235C13.9263 9.72379 14.042 9.64968 14.1406 9.55428C14.2392 9.45888 14.3188 9.34407 14.3747 9.21647C14.4306 9.08886 14.4618 8.95098 14.4665 8.81074C14.4712 8.67051 14.4492 8.53069 14.4019 8.39935C14.1038 7.2745 14.1038 6.08635 14.4019 4.9615C14.9508 4.09981 15.7401 3.43485 16.6631 3.05657C17.586 2.67829 18.5981 2.60494 19.5622 2.84646C20.5264 3.08797 21.3963 3.63269 22.0541 4.40692C22.7119 5.18116 23.1259 6.14754 23.2402 7.17535V14.695C22.5199 13.8701 21.6425 13.2112 20.6642 12.7603C19.686 12.3095 18.6283 12.0766 17.5588 12.0767C17.2883 12.0767 17.0288 12.1888 16.8376 12.3884C16.6463 12.588 16.5388 12.8587 16.5388 13.141C16.5388 13.4233 16.6463 13.694 16.8376 13.8936C17.0288 14.0932 17.2883 14.2054 17.5588 14.2054C19.0643 14.2068 20.5078 14.8311 21.5729 15.9414C22.6379 17.0518 23.2375 18.5575 23.2402 20.1285V27.7705C22.5191 26.9466 21.6416 26.2884 20.6635 25.8376C19.6854 25.3869 18.6281 25.1534 17.5588 25.1522C17.2883 25.1522 17.0288 25.2643 16.8376 25.4639C16.6463 25.6635 16.5388 25.9342 16.5388 26.2165C16.5388 26.4988 16.6463 26.7695 16.8376 26.9691C17.0288 27.1687 17.2883 27.2809 17.5588 27.2809C19.0648 27.2837 20.5083 27.9092 21.5732 29.0204C22.6381 30.1316 23.2375 31.6378 23.2402 33.2093L23.2351 38.9621ZM43.018 24.0612C42.7455 24.0591 42.4797 23.973 42.254 23.8137C42.0283 23.6545 41.8527 23.4291 41.7494 23.166C41.6461 22.903 41.6195 22.6139 41.6732 22.3351C41.7269 22.0563 41.8583 21.8003 42.0509 21.5993C42.2436 21.3982 42.4889 21.2611 42.7561 21.2051C43.0232 21.1491 43.3003 21.1768 43.5524 21.2846C43.8045 21.3925 44.0205 21.5757 44.1731 21.8112C44.3258 22.0467 44.4083 22.3241 44.4103 22.6084C44.409 22.9914 44.2622 23.3582 44.0022 23.6285C43.7422 23.8988 43.3901 24.0506 43.0231 24.0506L43.018 24.0612Z" fill="black"/>
</svg>
