<svg width="45" height="45" viewBox="0 0 45 45" fill="none" xmlns="http://www.w3.org/2000/svg">
<g clip-path="url(#clip0_1044_1038)">
<path d="M29.6886 12.9828C29.873 12.9828 30.0505 12.9097 30.1807 12.7788L38.329 4.6305H39.561C39.704 5.03645 39.9692 5.38817 40.3202 5.6374C40.6711 5.88663 41.0905 6.02117 41.521 6.02255C42.6722 6.02255 43.609 5.0857 43.609 3.93448C43.609 2.78326 42.6722 1.84641 41.521 1.84641C41.0905 1.84779 40.6711 1.98233 40.3202 2.23156C39.9692 2.4808 39.704 2.83252 39.561 3.23846H38.0408C37.9494 3.23836 37.8589 3.25633 37.7744 3.29133C37.69 3.32633 37.6133 3.37766 37.5488 3.44239L29.4004 11.5907H28.2965V10.8947C28.2965 9.74349 27.3597 8.80664 26.2085 8.80664C25.0572 8.80664 24.1204 9.74349 24.1204 10.8947V12.9828H20.57C20.4085 12.1974 19.9811 11.4916 19.36 10.9845C18.7389 10.4774 17.962 10.1999 17.1602 10.1987C16.2887 10.1987 15.5008 10.5321 14.8897 11.0631L8.44734 6.14366C8.68151 5.67343 8.80485 5.15581 8.80788 4.6305C8.80788 2.71157 7.2467 1.15039 5.32777 1.15039C3.40884 1.15039 1.84766 2.71157 1.84766 4.6305C1.84766 6.54944 3.40884 8.11062 5.32777 8.11062C6.19919 8.11062 6.98709 7.77722 7.5982 7.24616L14.0406 12.1656C13.9097 12.4244 13.8122 12.6988 13.7503 12.9821H8.73759C8.5758 12.1969 8.1484 11.4914 7.52733 10.9844C6.90627 10.4774 6.12948 10.2 5.32777 10.1987C3.40884 10.1987 1.84766 11.7599 1.84766 13.6788C1.84766 15.5977 3.40884 17.1589 5.32777 17.1589C6.19919 17.1589 6.98709 16.8255 7.5982 16.2945L10.0969 18.2029L7.5982 20.1114C6.98709 19.5804 6.19919 19.247 5.32777 19.247C3.40884 19.247 1.84766 20.8082 1.84766 22.7271C1.84766 24.646 3.40884 26.2072 5.32777 26.2072C6.19919 26.2072 6.98709 25.8738 7.5982 25.3427L10.0969 27.2512L7.5982 29.1597C6.98709 28.6287 6.19919 28.2953 5.32777 28.2953C3.40884 28.2953 1.84766 29.8565 1.84766 31.7754C1.84766 33.6943 3.40884 35.2555 5.32777 35.2555C6.12958 35.2542 6.90644 34.9766 7.52752 34.4695C8.1486 33.9624 8.57594 33.2568 8.73759 32.4714H13.7503C13.8095 32.7603 13.9146 33.0296 14.0406 33.2878L7.5982 38.2073C6.98709 37.677 6.19919 37.3436 5.32777 37.3436C3.40884 37.3436 1.84766 38.9048 1.84766 40.8237C1.84766 42.7426 3.40884 44.3038 5.32777 44.3038C7.2467 44.3038 8.80788 42.7426 8.80788 40.8237C8.80788 40.2794 8.67146 39.7706 8.44734 39.3112L14.8897 34.3917C15.5008 34.9221 16.2887 35.2555 17.1602 35.2555C17.962 35.2542 18.7388 34.9766 19.3599 34.4695C19.981 33.9624 20.4083 33.2568 20.57 32.4714H24.1204V33.8635C24.1204 35.0147 25.0572 35.9515 26.2085 35.9515C27.3597 35.9515 28.2965 35.0147 28.2965 33.8635H29.4004L37.5488 42.0118C37.6133 42.0765 37.69 42.1279 37.7744 42.1629C37.8589 42.1979 37.9494 42.2158 38.0408 42.2157H39.561C39.704 42.6217 39.9692 42.9734 40.3202 43.2226C40.6711 43.4719 41.0905 43.6064 41.521 43.6078C42.6722 43.6078 43.609 42.6709 43.609 41.5197C43.609 40.3685 42.6722 39.4316 41.521 39.4316C41.0905 39.433 40.6711 39.5676 40.3202 39.8168C39.9692 40.066 39.704 40.4177 39.561 40.8237H38.329L30.1807 32.6753C30.1161 32.6106 30.0394 32.5593 29.955 32.5243C29.8705 32.4893 29.78 32.4713 29.6886 32.4714H28.2965V30.3833H31.4885L36.8527 35.7476C36.9173 35.8123 36.994 35.8637 37.0784 35.8987C37.1629 35.9337 37.2534 35.9516 37.3448 35.9515H39.561C39.704 36.3575 39.9692 36.7092 40.3202 36.9584C40.6711 37.2077 41.0905 37.3422 41.521 37.3436C42.6722 37.3436 43.609 36.4067 43.609 35.2555C43.609 34.1043 42.6722 33.1674 41.521 33.1674C41.0905 33.1688 40.6711 33.3034 40.3202 33.5526C39.9692 33.8018 39.704 34.1535 39.561 34.5595H37.633L32.2687 29.1952C32.2042 29.1305 32.1275 29.0792 32.043 29.0442C31.9586 29.0092 31.868 28.9912 31.7766 28.9913H28.2965V26.9032H34.2726L36.8527 29.4834C36.9173 29.5481 36.994 29.5995 37.0784 29.6345C37.1629 29.6694 37.2534 29.6874 37.3448 29.6873H39.561C39.704 30.0933 39.9692 30.445 40.3202 30.6942C40.6711 30.9435 41.0905 31.078 41.521 31.0794C42.6722 31.0794 43.609 30.1425 43.609 28.9913C43.609 27.8401 42.6722 26.9032 41.521 26.9032C41.0905 26.9046 40.6711 27.0391 40.3202 27.2884C39.9692 27.5376 39.704 27.8893 39.561 28.2953H37.633L35.0528 25.7151C34.9883 25.6504 34.9116 25.5991 34.8271 25.5641C34.7427 25.5291 34.6521 25.5111 34.5607 25.5112H28.2965V23.4231H39.561C39.704 23.8291 39.9692 24.1808 40.3202 24.43C40.6711 24.6792 41.0905 24.8138 41.521 24.8152C42.6722 24.8152 43.609 23.8783 43.609 22.7271C43.609 21.5759 42.6722 20.639 41.521 20.639C41.0905 20.6404 40.6711 20.7749 40.3202 21.0242C39.9692 21.2734 39.704 21.6251 39.561 22.0311H28.2965V19.943H34.5607C34.7452 19.943 34.9227 19.8699 35.0528 19.7391L37.633 17.1589H39.561C39.704 17.5649 39.9692 17.9166 40.3202 18.1658C40.6711 18.415 41.0905 18.5496 41.521 18.551C42.6722 18.551 43.609 17.6141 43.609 16.4629C43.609 15.3117 42.6722 14.3748 41.521 14.3748C41.0905 14.3762 40.6711 14.5107 40.3202 14.76C39.9692 15.0092 39.704 15.3609 39.561 15.7669H37.3448C37.2534 15.7668 37.1629 15.7847 37.0784 15.8197C36.994 15.8547 36.9173 15.9061 36.8527 15.9708L34.2726 18.551H28.2965V16.4629H31.7766C31.9611 16.4629 32.1386 16.3898 32.2687 16.259L37.633 10.8947H39.561C39.704 11.3007 39.9692 11.6524 40.3202 11.9016C40.6711 12.1508 41.0905 12.2854 41.521 12.2868C42.6722 12.2868 43.609 11.3499 43.609 10.1987C43.609 9.04746 42.6722 8.11062 41.521 8.11062C41.0905 8.112 40.6711 8.24653 40.3202 8.49577C39.9692 8.745 39.704 9.09672 39.561 9.50266H37.3448C37.2534 9.50257 37.1629 9.52054 37.0784 9.55553C36.994 9.59053 36.9173 9.64187 36.8527 9.7066L31.4885 15.0708H28.2965V12.9828H29.6886ZM41.521 3.23846C41.6588 3.23832 41.7936 3.27908 41.9083 3.35559C42.023 3.43209 42.1124 3.5409 42.1652 3.66823C42.218 3.79557 42.2319 3.93571 42.205 4.07093C42.1782 4.20614 42.1118 4.33035 42.0143 4.42783C41.9168 4.52531 41.7926 4.59168 41.6574 4.61854C41.5222 4.6454 41.382 4.63155 41.2547 4.57873C41.1274 4.52591 41.0186 4.4365 40.9421 4.32182C40.8656 4.20714 40.8248 4.07234 40.8249 3.93448C40.8249 3.55028 41.1374 3.23846 41.521 3.23846ZM41.521 40.8237C41.6588 40.8235 41.7936 40.8643 41.9083 40.9408C42.023 41.0173 42.1124 41.1261 42.1652 41.2535C42.218 41.3808 42.2319 41.5209 42.205 41.6562C42.1782 41.7914 42.1118 41.9156 42.0143 42.0131C41.9168 42.1105 41.7926 42.1769 41.6574 42.2038C41.5222 42.2306 41.382 42.2168 41.2547 42.164C41.1274 42.1111 41.0186 42.0217 40.9421 41.907C40.8656 41.7924 40.8248 41.6576 40.8249 41.5197C40.8249 41.1355 41.1374 40.8237 41.521 40.8237ZM41.521 34.5595C41.6588 34.5593 41.7936 34.6001 41.9083 34.6766C42.023 34.7531 42.1124 34.8619 42.1652 34.9893C42.218 35.1166 42.2319 35.2567 42.205 35.392C42.1782 35.5272 42.1118 35.6514 42.0143 35.7489C41.9168 35.8463 41.7926 35.9127 41.6574 35.9396C41.5222 35.9664 41.382 35.9526 41.2547 35.8998C41.1274 35.8469 41.0186 35.7575 40.9421 35.6428C40.8656 35.5282 40.8248 35.3934 40.8249 35.2555C40.8249 34.8713 41.1374 34.5595 41.521 34.5595ZM41.521 28.2953C41.6588 28.2951 41.7936 28.3359 41.9083 28.4124C42.023 28.4889 42.1124 28.5977 42.1652 28.7251C42.218 28.8524 42.2319 28.9925 42.205 29.1277C42.1782 29.263 42.1118 29.3872 42.0143 29.4847C41.9168 29.5821 41.7926 29.6485 41.6574 29.6754C41.5222 29.7022 41.382 29.6884 41.2547 29.6355C41.1274 29.5827 41.0186 29.4933 40.9421 29.3786C40.8656 29.264 40.8248 29.1292 40.8249 28.9913C40.8249 28.6071 41.1374 28.2953 41.521 28.2953ZM41.521 22.0311C41.6588 22.0309 41.7936 22.0717 41.9083 22.1482C42.023 22.2247 42.1124 22.3335 42.1652 22.4608C42.218 22.5882 42.2319 22.7283 42.205 22.8635C42.1782 22.9988 42.1118 23.123 42.0143 23.2204C41.9168 23.3179 41.7926 23.3843 41.6574 23.4112C41.5222 23.438 41.382 23.4242 41.2547 23.3713C41.1274 23.3185 41.0186 23.2291 40.9421 23.1144C40.8656 22.9998 40.8248 22.865 40.8249 22.7271C40.8249 22.3429 41.1374 22.0311 41.521 22.0311ZM41.521 15.7669C41.6588 15.7667 41.7936 15.8075 41.9083 15.884C42.023 15.9605 42.1124 16.0693 42.1652 16.1966C42.218 16.324 42.2319 16.4641 42.205 16.5993C42.1782 16.7346 42.1118 16.8588 42.0143 16.9562C41.9168 17.0537 41.7926 17.1201 41.6574 17.147C41.5222 17.1738 41.382 17.16 41.2547 17.1071C41.1274 17.0543 41.0186 16.9649 40.9421 16.8502C40.8656 16.7355 40.8248 16.6007 40.8249 16.4629C40.8249 16.0787 41.1374 15.7669 41.521 15.7669ZM41.521 9.50266C41.6588 9.50253 41.7936 9.54329 41.9083 9.61979C42.023 9.6963 42.1124 9.8051 42.1652 9.93244C42.218 10.0598 42.2319 10.1999 42.205 10.3351C42.1782 10.4703 42.1118 10.5946 42.0143 10.692C41.9168 10.7895 41.7926 10.8559 41.6574 10.8827C41.5222 10.9096 41.382 10.8958 41.2547 10.8429C41.1274 10.7901 41.0186 10.7007 40.9421 10.586C40.8656 10.4713 40.8248 10.3365 40.8249 10.1987C40.8249 9.81448 41.1374 9.50266 41.521 9.50266ZM20.57 14.3748H24.1204V22.0311H20.57C20.4085 21.2457 19.9811 20.5399 19.36 20.0328C18.7389 19.5257 17.962 19.2482 17.1602 19.247C16.2887 19.247 15.5008 19.5804 14.8897 20.1114L12.391 18.2029L14.8897 16.2945C15.5008 16.8255 16.2887 17.1589 17.1602 17.1589C17.962 17.1576 18.7388 16.88 19.3599 16.3729C19.981 15.8658 20.4083 15.1602 20.57 14.3748ZM15.0721 22.7271C15.0721 21.5759 16.0089 20.639 17.1602 20.639C18.3114 20.639 19.2482 21.5759 19.2482 22.7271C19.2482 23.8783 18.3114 24.8152 17.1602 24.8152C16.0089 24.8152 15.0721 23.8783 15.0721 22.7271ZM17.1602 11.5907C18.3114 11.5907 19.2482 12.5276 19.2482 13.6788C19.2482 14.83 18.3114 15.7669 17.1602 15.7669C16.0089 15.7669 15.0721 14.83 15.0721 13.6788C15.0721 12.5276 16.0089 11.5907 17.1602 11.5907ZM5.32777 6.71857C4.17655 6.71857 3.2397 5.78173 3.2397 4.6305C3.2397 3.47928 4.17655 2.54244 5.32777 2.54244C6.47899 2.54244 7.41584 3.47928 7.41584 4.6305C7.41584 5.78173 6.47899 6.71857 5.32777 6.71857ZM5.32777 15.7669C4.17655 15.7669 3.2397 14.83 3.2397 13.6788C3.2397 12.5276 4.17655 11.5907 5.32777 11.5907C6.47899 11.5907 7.41584 12.5276 7.41584 13.6788C7.41584 14.83 6.47899 15.7669 5.32777 15.7669ZM8.44734 15.1913C8.5782 14.9325 8.67573 14.6581 8.73759 14.3748H13.7503C13.8095 14.6637 13.9146 14.933 14.0406 15.1913L11.244 17.3274L8.44734 15.1913ZM14.0406 21.2146C13.9097 21.4734 13.8122 21.7478 13.7503 22.0311H8.73759C8.67573 21.7478 8.5782 21.4734 8.44734 21.2146L11.244 19.0792L14.0406 21.2146ZM5.32777 24.8152C4.17655 24.8152 3.2397 23.8783 3.2397 22.7271C3.2397 21.5759 4.17655 20.639 5.32777 20.639C6.47899 20.639 7.41584 21.5759 7.41584 22.7271C7.41584 23.8783 6.47899 24.8152 5.32777 24.8152ZM8.44734 24.2396C8.5782 23.9808 8.67573 23.7064 8.73759 23.4231H13.7503C13.8095 23.712 13.9146 23.9813 14.0406 24.2396L11.244 26.3756L8.44734 24.2396ZM13.7503 31.0794H8.73759C8.67573 30.7961 8.5782 30.5217 8.44734 30.2629L11.244 28.1275L14.0406 30.2629C13.9097 30.5217 13.8122 30.7961 13.7503 31.0794ZM5.32777 33.8635C4.17655 33.8635 3.2397 32.9266 3.2397 31.7754C3.2397 30.6242 4.17655 29.6873 5.32777 29.6873C6.47899 29.6873 7.41584 30.6242 7.41584 31.7754C7.41584 32.9266 6.47899 33.8635 5.32777 33.8635ZM5.32777 42.9118C4.17655 42.9118 3.2397 41.9749 3.2397 40.8237C3.2397 39.6725 4.17655 38.7356 5.32777 38.7356C6.47899 38.7356 7.41584 39.6725 7.41584 40.8237C7.41584 41.9749 6.47899 42.9118 5.32777 42.9118ZM17.1602 33.8635C16.0089 33.8635 15.0721 32.9266 15.0721 31.7754C15.0721 30.6242 16.0089 29.6873 17.1602 29.6873C18.3114 29.6873 19.2482 30.6242 19.2482 31.7754C19.2482 32.9266 18.3114 33.8635 17.1602 33.8635ZM20.57 31.0794C20.4085 30.294 19.9811 29.5882 19.36 29.0811C18.7389 28.574 17.962 28.2965 17.1602 28.2953C16.2887 28.2953 15.5008 28.6287 14.8897 29.1597L12.391 27.2512L14.8897 25.3427C15.5008 25.8738 16.2887 26.2072 17.1602 26.2072C17.962 26.2059 18.7388 25.9283 19.3599 25.4212C19.981 24.9141 20.4083 24.2085 20.57 23.4231H24.1204V31.0794H20.57ZM26.9045 33.8635C26.8965 34.0427 26.8196 34.2119 26.69 34.3359C26.5603 34.4598 26.3878 34.529 26.2085 34.529C26.0291 34.529 25.8566 34.4598 25.7269 34.3359C25.5973 34.2119 25.5204 34.0427 25.5124 33.8635V10.8947C25.5204 10.7155 25.5973 10.5463 25.7269 10.4223C25.8566 10.2983 26.0291 10.2291 26.2085 10.2291C26.3878 10.2291 26.5603 10.2983 26.69 10.4223C26.8196 10.5463 26.8965 10.7155 26.9045 10.8947V33.8635Z" fill="#2166F3"/>
<path d="M21.3359 16.4629H22.728V17.8549H21.3359V16.4629ZM21.3359 19.247H22.728V20.639H21.3359V19.247ZM21.3359 24.8152H22.728V26.2072H21.3359V24.8152ZM21.3359 27.5993H22.728V28.9913H21.3359V27.5993Z" fill="#2166F3"/>
</g>
<defs>
<clipPath id="clip0_1044_1038">
<rect width="44.5455" height="44.5455" fill="white" transform="translate(0.455078 0.454102)"/>
</clipPath>
</defs>
</svg>
