<svg width="50" height="50" viewBox="0 0 50 50" fill="none" xmlns="http://www.w3.org/2000/svg">
<g clip-path="url(#clip0_1044_769)">
<path d="M8.9215 18.3349C8.51056 18.2021 8.28829 17.7591 8.41056 17.3494C8.47589 17.1524 8.61664 16.9894 8.80197 16.896C8.98729 16.8027 9.20207 16.7866 9.39923 16.8513C10.6996 17.2611 11.8324 18.0584 12.666 19.0994C13.3379 19.935 13.8025 20.9178 14.0219 21.9673C14.3106 21.9232 14.5996 21.9009 14.8887 21.9009C16.5664 21.9009 18.0996 22.5877 19.2 23.6838C19.7656 24.2469 20.2139 24.9165 20.519 25.654C20.8242 26.3915 20.9801 27.1821 20.9777 27.9802C20.9782 28.0824 20.9584 28.1836 20.9194 28.278C20.8805 28.3724 20.8232 28.4582 20.7508 28.5303C20.6785 28.6024 20.5925 28.6594 20.498 28.698C20.4034 28.7366 20.3021 28.7561 20.2 28.7552C19.7668 28.7552 19.4113 28.4119 19.4113 27.9802C19.4113 26.7291 18.9113 25.5994 18.0891 24.7908C17.2668 23.9713 16.1445 23.4623 14.8891 23.4623C14.1453 23.4633 13.4131 23.6458 12.7559 23.9939C12.1031 24.3497 11.5434 24.8543 11.1223 25.467C10.8891 25.8326 10.4 25.9209 10.0445 25.6881C9.87141 25.5734 9.75079 25.3948 9.70912 25.1914C9.66746 24.988 9.70815 24.7764 9.82228 24.6029C10.3777 23.7724 11.1332 23.097 12.0223 22.6205C12.1777 22.5318 12.3445 22.4545 12.5109 22.388C12.3445 21.5244 11.9777 20.7271 11.4445 20.074C10.793 19.2587 9.9153 18.6537 8.9215 18.3349ZM17.066 40.2048C16.9801 40.2606 16.884 40.2988 16.7832 40.3173C16.6824 40.3358 16.579 40.3342 16.4789 40.3126C16.3787 40.291 16.2838 40.2498 16.1996 40.1915C16.1155 40.1331 16.0436 40.0586 15.9883 39.9724C15.766 39.6068 15.866 39.131 16.2324 38.8982C16.753 38.5611 17.3228 38.307 17.9215 38.1451C18.5248 37.9717 19.1492 37.8823 19.777 37.8795C21.4438 37.8795 22.9438 38.4771 24.0438 39.4298C25.177 40.415 25.866 41.7771 25.866 43.2943C25.8665 43.3964 25.8467 43.4976 25.8077 43.5921C25.7688 43.6865 25.7115 43.7722 25.6391 43.8443C25.5668 43.9164 25.4808 43.9734 25.3863 44.012C25.2917 44.0507 25.1904 44.0701 25.0883 44.0693C24.6551 44.0693 24.2992 43.7259 24.2992 43.2943C24.2992 42.2423 23.8106 41.3009 23.0215 40.6033C22.1992 39.8951 21.0547 39.4521 19.777 39.4521C19.277 39.4521 18.7996 39.5185 18.3438 39.64C17.8774 39.7728 17.4551 39.9724 17.066 40.2048ZM7.09923 27.6365C7.30509 27.6161 7.51065 27.678 7.67097 27.8087C7.83128 27.9395 7.9333 28.1284 7.9547 28.3341C7.97181 28.5412 7.90686 28.7466 7.77387 28.9062C7.64087 29.0658 7.45049 29.1668 7.24376 29.1873C6.64376 29.2427 6.06603 29.2427 5.51017 29.1763C4.95135 29.1116 4.40274 28.9776 3.87697 28.7775C3.78116 28.7426 3.69325 28.6889 3.61836 28.6197C3.54346 28.5505 3.48307 28.4671 3.44069 28.3743C3.39831 28.2816 3.37479 28.1813 3.3715 28.0794C3.3682 27.9775 3.3852 27.8759 3.4215 27.7806C3.45701 27.6849 3.51112 27.5972 3.58071 27.5225C3.6503 27.4478 3.73399 27.3876 3.82695 27.3454C3.91992 27.3032 4.02032 27.2798 4.12236 27.2766C4.2244 27.2734 4.32607 27.2904 4.4215 27.3267C4.81056 27.4709 5.24376 27.5705 5.69923 27.6259C6.14376 27.6806 6.61056 27.6806 7.09923 27.6365ZM16.366 3.6736C16.4774 3.26383 16.8996 3.00914 17.3106 3.10914C17.4105 3.13263 17.5048 3.17566 17.588 3.23577C17.6712 3.29587 17.7417 3.37185 17.7954 3.45933C17.8491 3.54681 17.885 3.64405 17.9009 3.74546C17.9169 3.84686 17.9126 3.95042 17.8883 4.05016C17.8328 4.27164 17.7883 4.615 17.8219 5.02477C17.8442 5.3236 17.9106 5.65602 18.0442 5.96578C18.2109 6.36461 18.0109 6.81852 17.6109 6.98453C17.2219 7.13961 16.7555 6.95133 16.6 6.5525C16.4155 6.10425 16.303 5.62964 16.2668 5.14625C16.2306 4.65314 16.264 4.1574 16.366 3.6736ZM18.7551 15.0349C18.5464 15.0345 18.3464 14.9516 18.1986 14.8043C18.0507 14.657 17.9672 14.4573 17.966 14.2486C17.966 13.817 18.3215 13.4627 18.7551 13.4627C19.6551 13.4627 20.4774 13.8279 21.0664 14.4259C21.3695 14.7281 21.61 15.0871 21.774 15.4823C21.9381 15.8776 22.0226 16.3013 22.0226 16.7293C22.0226 17.1572 21.9381 17.581 21.774 17.9762C21.61 18.3715 21.3695 18.7304 21.0664 19.0326C20.7644 19.3385 20.4045 19.5813 20.0076 19.7467C19.6108 19.9121 19.185 19.9968 18.7551 19.9959C18.3219 19.9959 17.966 19.6416 17.966 19.2095C17.966 18.7775 18.3215 18.4345 18.7551 18.4345C19.2219 18.4345 19.6442 18.2353 19.9551 17.9361C20.1147 17.7783 20.2411 17.5903 20.327 17.3831C20.413 17.1758 20.4566 16.9534 20.4555 16.7291C20.4555 16.2642 20.2664 15.8322 19.9551 15.5334C19.7978 15.3752 19.6109 15.2498 19.4049 15.1642C19.1989 15.0787 18.9781 15.0347 18.7551 15.0349ZM6.56642 37.149C6.46431 37.3298 6.29473 37.4628 6.0948 37.5189C5.89487 37.5749 5.68087 37.5495 5.49962 37.4482C5.3217 37.3441 5.19173 37.1744 5.13767 36.9755C5.08362 36.7765 5.10979 36.5644 5.21056 36.3845C5.53302 35.8282 5.92918 35.318 6.38829 34.8677C6.85504 34.4227 7.38256 34.0462 7.95509 33.7494C8.14109 33.6575 8.35563 33.642 8.5529 33.7062C8.75017 33.7703 8.91455 33.9091 9.01095 34.0927C9.10303 34.2782 9.11852 34.4923 9.05406 34.6891C8.9896 34.8858 8.85037 35.0493 8.66642 35.1443C8.23024 35.3684 7.82956 35.6558 7.47736 35.997C7.12171 36.3369 6.81512 36.7246 6.56642 37.149ZM18.1219 33.8267C18.3019 33.7249 18.5147 33.698 18.7143 33.7519C18.914 33.8057 19.0844 33.9361 19.1887 34.1146C19.3996 34.4802 19.2774 34.9673 18.8996 35.1775C18.4455 35.4412 17.9436 35.6123 17.423 35.6807C16.9023 35.7492 16.3733 35.7137 15.8664 35.5763C14.8471 35.3029 13.9768 34.6386 13.4442 33.7275C13.1797 33.2756 13.0081 32.7755 12.9394 32.2565C12.8707 31.7375 12.9063 31.2099 13.0442 30.7048C13.18 30.1989 13.415 29.7249 13.7355 29.3104C14.0559 28.896 14.4555 28.5493 14.911 28.2904C15.2777 28.0689 15.7555 28.2013 15.9774 28.5779C16.1887 28.9435 16.0551 29.4197 15.6887 29.6416C15.133 29.9602 14.7257 30.4854 14.5555 31.1029C14.3921 31.7239 14.4798 32.3843 14.7996 32.9412C15.1332 33.517 15.6777 33.9045 16.2777 34.0709C16.9008 34.2324 17.5623 34.1448 18.1219 33.8267ZM12.3215 11.4252C12.2575 11.3447 12.2102 11.2524 12.1822 11.1535C12.1543 11.0545 12.1463 10.9511 12.1587 10.849C12.1711 10.747 12.2036 10.6485 12.2544 10.5591C12.3053 10.4698 12.3733 10.3915 12.4547 10.3287C12.5356 10.2651 12.6283 10.2181 12.7274 10.1903C12.8265 10.1626 12.9301 10.1547 13.0322 10.167C13.1344 10.1793 13.2331 10.2117 13.3228 10.2622C13.4124 10.3128 13.4912 10.3805 13.5547 10.4615C13.6215 10.5502 13.6992 10.6388 13.766 10.7052C14.0664 10.9935 14.4219 11.215 14.8328 11.2482C15.2551 11.2923 15.766 11.1373 16.3547 10.672C16.5102 10.5392 16.677 10.4064 16.8324 10.2513L16.8434 10.2291C17.6102 9.50953 18.4547 9.11071 19.2766 8.95563C20.2543 8.78961 21.1879 8.95563 21.932 9.34313C22.0235 9.38979 22.1048 9.45416 22.1711 9.53249C22.2375 9.61082 22.2876 9.70156 22.3186 9.79943C22.3496 9.8973 22.3609 10.0004 22.3517 10.1026C22.3425 10.2049 22.3132 10.3043 22.2652 10.3951C22.0652 10.7826 21.5984 10.9267 21.2098 10.7271C20.7543 10.4834 20.1652 10.3841 19.5543 10.4947C19.0098 10.5943 18.4434 10.8603 17.9211 11.3584C17.7211 11.5689 17.5211 11.7459 17.3211 11.89C16.3766 12.6318 15.4875 12.8755 14.6875 12.7978C13.8762 12.7314 13.1875 12.333 12.6652 11.8127C12.5442 11.6798 12.4219 11.558 12.3215 11.4252Z" fill="#2166F3"/>
<path d="M25.6676 9.52031C25.5649 9.51985 25.4632 9.49914 25.3685 9.45935C25.2738 9.41957 25.1879 9.36149 25.1156 9.28845C25.0434 9.21542 24.9863 9.12885 24.9475 9.0337C24.9088 8.93856 24.8892 8.83671 24.8898 8.73398C24.8898 8.30195 25.2344 7.95898 25.6676 7.95898H29.1898C29.3178 7.58326 29.5309 7.24222 29.8125 6.9625C30.268 6.5082 30.8898 6.2207 31.5902 6.2207C32.2902 6.2207 32.9125 6.50859 33.3789 6.9625C33.6119 7.19495 33.7966 7.47115 33.9225 7.77522C34.0484 8.0793 34.113 8.40527 34.1125 8.73438C34.1141 9.06521 34.05 9.39307 33.9241 9.69902C33.7982 10.005 33.6129 10.2829 33.3789 10.5168C32.9023 10.9866 32.2595 11.2494 31.5902 11.248C31.2603 11.2499 30.9332 11.1862 30.6281 11.0607C30.3229 10.9351 30.0457 10.7503 29.8125 10.5168C29.5331 10.2353 29.3203 9.89482 29.1898 9.52031H25.6676ZM36.8902 33.7711C37.3234 33.7711 37.6793 33.4168 37.6793 32.9848C37.6793 32.5527 37.3238 32.2098 36.8902 32.2098C36.4566 32.2098 36.1125 32.5531 36.1125 32.9848C36.1118 33.0875 36.1314 33.1893 36.1702 33.2845C36.2089 33.3796 36.266 33.4662 36.3383 33.5392C36.4105 33.6123 36.4965 33.6703 36.5912 33.7101C36.6859 33.7499 36.7875 33.7706 36.8902 33.7711ZM36.8902 35.1992C37.1833 35.1998 37.4736 35.1424 37.7444 35.0303C38.0151 34.9182 38.2611 34.7536 38.468 34.5461C38.868 34.1473 39.1121 33.5937 39.1121 32.9848C39.1121 32.3758 38.868 31.8219 38.468 31.4234C38.046 31.0117 37.4798 30.7812 36.8902 30.7813C36.2789 30.7813 35.7234 31.0246 35.3234 31.4234C34.9234 31.8223 34.6793 32.3758 34.6793 32.9848C34.6793 33.5937 34.9234 34.1477 35.3234 34.5461C35.5275 34.7545 35.7713 34.9196 36.0405 35.0318C36.3096 35.144 36.5986 35.201 36.8902 35.1992ZM25.0898 31.2355C24.6566 31.2355 24.3008 30.8812 24.3008 30.4492C24.3008 30.0172 24.6566 29.6742 25.0898 29.6742H31.2676C31.4012 29.6742 31.5121 29.6965 31.623 29.7516L33.9121 30.6594C34.0012 30.5488 34.1121 30.427 34.2121 30.3164C34.9012 29.641 35.8453 29.209 36.8898 29.209C37.8935 29.2102 38.8559 29.6083 39.5672 30.3164C40.2563 31.0027 40.6785 31.9437 40.6785 32.9848C40.6785 34.0258 40.2563 34.9781 39.5672 35.6531C38.8898 36.3398 37.9336 36.7605 36.8898 36.7605C36.3936 36.7619 35.9019 36.6651 35.4431 36.4759C34.9843 36.2866 34.5674 36.0086 34.2164 35.6577C33.8654 35.3069 33.5872 34.8901 33.3978 34.4314C33.2083 33.9727 33.1114 33.4811 33.1125 32.9848C33.1125 32.6746 33.1457 32.3648 33.2234 32.0656L31.1234 31.2352L25.0898 31.2355ZM25.0898 41.0129C24.6566 41.0129 24.3008 40.6699 24.3008 40.2383C24.3008 39.8066 24.6566 39.452 25.0898 39.452H29.7676C29.8898 39.0762 30.0992 38.7346 30.3785 38.4551C30.6141 38.2217 30.8933 38.037 31.2003 37.9116C31.5073 37.7862 31.836 37.7225 32.1676 37.7242C32.8563 37.7242 33.4898 38.0012 33.9453 38.4551C34.4008 38.909 34.6898 39.5402 34.6898 40.2379C34.6898 40.9352 34.4008 41.5555 33.9453 42.0094C33.4898 42.4633 32.8563 42.7512 32.1676 42.7512C31.4965 42.7507 30.8531 42.4839 30.3785 42.0094C30.0966 41.7319 29.8869 41.3896 29.7676 41.0125L25.0898 41.0129ZM32.8344 39.5625C32.6566 39.3871 32.4176 39.2878 32.168 39.2855C31.9012 39.2855 31.6563 39.3965 31.4902 39.5625C31.3125 39.7395 31.2121 39.9723 31.2121 40.2379C31.2121 40.5035 31.3125 40.7359 31.4902 40.9133C31.6711 41.0909 31.9145 41.1904 32.168 41.1902C32.423 41.1902 32.668 41.0797 32.8344 40.9133C33.0125 40.7363 33.1125 40.5035 33.1125 40.2379C33.1125 39.9723 33.0125 39.7395 32.8344 39.5625ZM36.8902 14.6691C37.3234 14.6691 37.6793 15.0125 37.6793 15.4445C37.6793 15.8766 37.3238 16.2309 36.8902 16.2309C36.4566 16.2309 36.1125 15.8766 36.1125 15.4445C36.1125 15.0125 36.4566 14.6691 36.8902 14.6691ZM41.0121 23.373C41.4453 23.373 41.8012 23.716 41.8012 24.148C41.8012 24.5801 41.4457 24.9344 41.0121 24.9344C40.5785 24.9344 40.2344 24.5801 40.2344 24.148C40.2344 23.716 40.5789 23.373 41.0121 23.373ZM25.0898 24.9344C24.6566 24.9344 24.3008 24.5801 24.3008 24.148C24.3008 23.716 24.6566 23.373 25.0898 23.373H37.3125C37.4662 22.6575 37.8207 22.0006 38.3344 21.4793C39.0234 20.8039 39.968 20.3723 41.0121 20.3723C41.5093 20.3718 42.0017 20.4694 42.4611 20.6593C42.9206 20.8493 43.3381 21.1279 43.6898 21.4793C44.3789 22.166 44.8012 23.107 44.8012 24.148C44.8012 25.1891 44.3789 26.1414 43.6898 26.8168C43.0121 27.5035 42.0676 27.9242 41.0121 27.9242C40.5148 27.9251 40.0223 27.8277 39.5628 27.6376C39.1033 27.4476 38.6858 27.1686 38.3344 26.8168C37.8344 26.3074 37.4676 25.6652 37.3125 24.9344H25.0898ZM39.4457 25.7207C39.6518 25.9255 39.8963 26.0876 40.1652 26.1979C40.434 26.3081 40.7219 26.3643 41.0125 26.3633C41.6348 26.3633 42.1906 26.1195 42.5906 25.7207C42.9902 25.3113 43.2344 24.7574 43.2344 24.1484C43.2344 23.5395 42.9902 22.9859 42.5906 22.5871C42.1906 22.1883 41.6348 21.9449 41.0125 21.9449C40.4258 21.9429 39.8622 22.1739 39.4457 22.5871C39.2396 22.7927 39.0762 23.0369 38.9646 23.3058C38.8531 23.5746 38.7957 23.8628 38.7957 24.1539C38.7957 24.445 38.8531 24.7332 38.9646 25.0021C39.0762 25.2709 39.2396 25.5151 39.4457 25.7207ZM25.0898 18.7664C24.8812 18.766 24.6811 18.6831 24.5333 18.5358C24.3855 18.3885 24.3019 18.1887 24.3008 17.9801C24.3008 17.5484 24.6566 17.2051 25.0898 17.2051H31.1234L33.2234 16.3746C33.147 16.0706 33.1097 15.758 33.1125 15.4445C33.1125 14.4447 33.5078 13.4854 34.2121 12.7758C34.9261 12.0729 35.888 11.6792 36.8898 11.6797C37.8921 11.677 38.8546 12.071 39.5672 12.7758C40.2563 13.4625 40.6785 14.4035 40.6785 15.4445C40.6785 16.4855 40.2563 17.4379 39.5672 18.1133C39.2164 18.4659 38.7991 18.7453 38.3395 18.9354C37.8799 19.1255 37.3872 19.2225 36.8898 19.2207C36.3926 19.2215 35.9001 19.1241 35.4405 18.934C34.981 18.744 34.5636 18.4651 34.2121 18.1133C34.1121 18.0027 34.0012 17.8918 33.9121 17.7699L31.623 18.6781C31.5135 18.736 31.3915 18.7664 31.2676 18.7668L25.0898 18.7664ZM38.468 13.8832C38.046 13.4715 37.4798 13.241 36.8902 13.241C36.3035 13.2389 35.7399 13.4699 35.3234 13.8832C34.9234 14.282 34.6793 14.8355 34.6793 15.4445C34.6793 16.0535 34.9234 16.6074 35.3234 17.0168C35.5296 17.2216 35.774 17.3837 36.0429 17.4939C36.3117 17.6041 36.5997 17.6602 36.8902 17.659C37.4798 17.6588 38.0459 17.4284 38.468 17.0168C38.868 16.607 39.1121 16.0535 39.1121 15.4445C39.1121 14.8355 38.868 14.282 38.468 13.8832ZM32.268 8.05859C32.0898 7.89258 31.8566 7.78164 31.5902 7.78164C31.3238 7.78164 31.0902 7.89258 30.9129 8.05859C30.7457 8.23555 30.6348 8.46797 30.6348 8.73398C30.6348 8.99961 30.7457 9.23203 30.9129 9.40937C31.0902 9.57539 31.3238 9.68594 31.5902 9.68594C31.8566 9.68594 32.0898 9.57539 32.268 9.40937C32.4344 9.23203 32.5453 8.99961 32.5453 8.73398C32.5449 8.46836 32.434 8.23555 32.268 8.05859Z" fill="#2166F3"/>
<path d="M24.3003 3.95031V43.2386C24.3003 45.7859 22.678 48.1222 20.0558 48.4097C19.3382 48.4863 18.6126 48.3993 17.9335 48.1554C16.6222 47.6683 15.5112 46.5609 15.1222 44.8222C15.0108 44.3237 14.4444 44.0691 13.989 44.3124C12.7222 44.9105 11.4335 45.0987 10.2667 44.9437C9.19991 44.8109 8.22217 44.3679 7.46671 43.7034C6.71124 43.039 6.17803 42.1312 5.95577 41.0347C5.7335 39.8944 5.85577 38.5542 6.44444 37.0484C6.48146 36.9523 6.49903 36.8499 6.49612 36.7471C6.49322 36.6442 6.4699 36.5429 6.42752 36.4492C6.38514 36.3554 6.32455 36.271 6.24926 36.2008C6.17397 36.1307 6.0855 36.0762 5.98897 36.0405C5.86671 35.9964 5.74483 35.9851 5.62217 35.9964C4.66671 36.1073 3.8335 35.7089 3.22217 35.0441C2.81085 34.5901 2.49991 34.003 2.32217 33.3722C2.14405 32.7409 2.09991 32.0546 2.22217 31.4011C2.42217 30.3495 3.07764 29.3526 4.31124 28.7546C4.9335 28.4554 4.88897 27.5808 4.2667 27.3261C3.31124 26.8944 2.58897 26.1191 2.12217 25.189C1.69991 24.3144 1.49991 23.3066 1.58897 22.3097C1.6667 21.3245 2.01124 20.3609 2.65577 19.5636C3.3335 18.7331 4.35577 18.0687 5.75577 17.7476C6.25577 17.6257 6.49991 17.0831 6.27764 16.6405C5.85538 15.7769 5.64444 14.78 5.6667 13.7944C5.68936 12.9085 5.9003 12.0448 6.31124 11.2921C6.72472 10.533 7.36062 9.91865 8.1335 9.53155C8.84483 9.17726 9.72256 8.98898 10.7671 9.01085C10.8698 9.01334 10.972 8.99554 11.0679 8.95847C11.1637 8.92139 11.2513 8.86578 11.3256 8.7948C11.3999 8.72383 11.4595 8.63889 11.501 8.54485C11.5424 8.45081 11.5649 8.34953 11.5671 8.24679C11.5671 8.20265 11.5671 8.14718 11.5562 8.0921C11.4596 7.40847 11.5518 6.71144 11.823 6.07648C12.0343 5.58937 12.3452 5.15734 12.7452 4.82531C13.1653 4.48674 13.6674 4.2652 14.2007 4.18312C14.8898 4.07218 15.7116 4.18312 16.6448 4.58195C17.0448 4.74796 17.5116 4.55968 17.6784 4.16124C18.2339 2.95421 19.1007 2.19015 20.012 1.82452C20.5816 1.59176 21.202 1.51165 21.812 1.5921C23.1003 1.75773 24.1894 2.63234 24.3003 3.95031ZM25.0339 46.6495C25.5339 47.646 26.2335 48.421 27.0562 48.9749C27.8654 49.5204 28.7964 49.8588 29.7671 49.9601C30.7255 50.0688 31.696 49.9512 32.6007 49.6167C34.1448 49.0523 35.4784 47.8562 36.1448 46.0515C37.4339 46.5163 38.7226 46.6491 39.9335 46.4944C41.323 46.3062 42.5898 45.7413 43.5784 44.8663C44.5784 43.9804 45.2894 42.7737 45.5784 41.3339C45.8003 40.2042 45.7558 38.9198 45.3671 37.5249C46.3784 37.3702 47.2562 36.8378 47.9339 36.0964C48.5116 35.4538 48.9448 34.6566 49.1894 33.7933C49.423 32.9405 49.478 32.0109 49.3116 31.1136C49.089 29.9734 48.5112 28.8987 47.5003 28.0683C48.2558 27.4816 48.8558 26.7284 49.278 25.8761C49.8357 24.7312 50.0774 23.4582 49.978 22.1886C49.8671 20.9042 49.4112 19.6417 48.5671 18.5898C47.8335 17.6819 46.8116 16.9398 45.4784 16.4749C45.7803 15.5992 45.9233 14.6767 45.9007 13.7507C45.8671 12.6323 45.6003 11.514 45.0562 10.5394C44.4936 9.50136 43.6243 8.66226 42.5671 8.13663C41.8448 7.78234 41.0003 7.54991 40.0448 7.47218C40.0339 6.77413 39.8894 6.08781 39.6116 5.46788C39.3116 4.75929 38.8452 4.1171 38.2448 3.6296C37.6147 3.10717 36.8541 2.76643 36.0448 2.64406C35.2558 2.52218 34.378 2.58859 33.4226 2.88781C32.6894 1.63624 31.6558 0.817102 30.5558 0.374133C29.7116 0.0421021 28.8226 -0.0688354 27.989 0.0421021C27.1335 0.152649 26.3448 0.496008 25.7112 1.03859C25.4671 1.23781 25.2558 1.48156 25.0558 1.74718C24.3558 0.82804 23.2444 0.208118 22.0112 0.0421021C21.178 -0.0688354 20.289 0.0421021 19.4444 0.374133C18.3444 0.817102 17.3112 1.63624 16.5776 2.88781C15.6222 2.58859 14.7444 2.52218 13.9554 2.64406C13.1435 2.76874 12.3799 3.1091 11.7444 3.6296C11.1444 4.11671 10.6886 4.75929 10.3776 5.46788C10.1079 6.10217 9.96445 6.78298 9.95538 7.47218C8.98858 7.54952 8.15538 7.78195 7.43311 8.13663C6.31085 8.69015 5.48858 9.54288 4.94405 10.5394C4.39952 11.514 4.13272 12.6323 4.09952 13.7507C4.07676 14.6767 4.21977 15.5993 4.52178 16.4749C3.18819 16.9398 2.16631 17.6819 1.43272 18.5898C0.577252 19.6421 0.121783 20.9042 0.021783 22.1886C-0.0775591 23.4582 0.164108 24.7312 0.721783 25.8761C1.14405 26.7288 1.74405 27.4816 2.49952 28.0683C1.47725 28.8987 0.899517 29.9734 0.688189 31.1136C0.510455 32.0109 0.565924 32.9409 0.810455 33.7933C1.05499 34.6569 1.48819 35.4542 2.06592 36.0964C2.74366 36.8378 3.62139 37.3702 4.63272 37.5249C4.24366 38.9198 4.19952 40.2042 4.42139 41.3339C4.71045 42.7737 5.42139 43.9804 6.42139 44.8663C7.41045 45.7413 8.67686 46.3062 10.0659 46.4944C11.2659 46.6491 12.5659 46.5167 13.855 46.0515C14.5218 47.8562 15.855 49.0523 17.3995 49.6167C18.3042 49.9512 19.2747 50.0688 20.2331 49.9601C22.4003 49.7163 24.1003 48.421 25.0339 46.6495ZM25.8671 3.95031C25.9452 3.19718 26.2558 2.61007 26.7226 2.21163C27.1222 1.8796 27.6339 1.65812 28.1894 1.59171C28.7957 1.51077 29.4126 1.59094 29.978 1.82413C31.0116 2.2339 31.9007 3.15304 32.3226 4.17179C32.4066 4.36206 32.5621 4.51166 32.7555 4.58831C32.9488 4.66497 33.1646 4.66255 33.3562 4.58156C34.2898 4.18273 35.112 4.07218 35.8007 4.18273C36.3341 4.26488 36.8363 4.48641 37.2565 4.82491C37.6565 5.15695 37.9679 5.58898 38.1788 6.07609C38.4497 6.7111 38.542 7.40808 38.4456 8.09171C38.4243 8.20504 38.4286 8.32169 38.4581 8.43317C38.4875 8.54465 38.5415 8.64816 38.616 8.73618C38.6904 8.82421 38.7836 8.89453 38.8887 8.94204C38.9937 8.98956 39.1081 9.01306 39.2233 9.01085C40.2788 8.98859 41.1565 9.17687 41.8679 9.53155C42.6406 9.91888 43.2764 10.5332 43.6901 11.2921C44.1011 12.0452 44.3124 12.9089 44.3343 13.7944C44.3569 14.78 44.1456 15.7769 43.712 16.6405C43.512 17.1499 43.7011 17.6151 44.2456 17.7476C45.6452 18.0687 46.6679 18.7331 47.3456 19.5636C47.9901 20.3609 48.3347 21.3241 48.412 22.3097C48.4898 23.3066 48.3007 24.314 47.8788 25.189C47.412 26.1191 46.6901 26.8944 45.723 27.3261C45.5562 27.4038 45.4007 27.5366 45.323 27.7136C45.2776 27.8052 45.2508 27.905 45.2441 28.007C45.2374 28.1091 45.251 28.2114 45.2841 28.3082C45.3172 28.405 45.3691 28.4942 45.4369 28.5708C45.5046 28.6475 45.5868 28.7099 45.6788 28.7546C46.9233 29.3526 47.5679 30.3495 47.7788 31.4011C47.9011 32.0546 47.8562 32.7409 47.6788 33.3722C47.2675 34.8452 46.0565 36.196 44.3898 35.9964H44.3788C44.2565 35.9855 44.123 35.9964 44.0007 36.0405C43.8085 36.1157 43.6539 36.2639 43.5706 36.4528C43.4873 36.6416 43.4821 36.8557 43.5562 37.0484C44.1452 38.5542 44.2675 39.8944 44.0343 41.0347C43.8233 42.1312 43.2784 43.039 42.5343 43.7034C41.7784 44.3679 40.8007 44.8109 39.7343 44.9437C38.5562 45.0984 37.2784 44.9105 36.0007 44.3124C35.5562 44.0691 34.9894 44.3234 34.8784 44.8222C34.4894 46.5609 33.378 47.6683 32.0671 48.1554C31.388 48.3995 30.6624 48.4865 29.9448 48.4097C29.2252 48.3327 28.5351 48.082 27.9339 47.6792C26.7339 46.8819 25.8671 45.398 25.8671 43.2386V3.95031Z" fill="#2166F3"/>
</g>
<defs>
<clipPath id="clip0_1044_769">
<rect width="50" height="50" fill="white"/>
</clipPath>
</defs>
</svg>
