<svg width="55" height="55" viewBox="0 0 55 55" fill="none" xmlns="http://www.w3.org/2000/svg">
<g clip-path="url(#clip0_1044_740)">
<path d="M4.5 48.8332H5.33333V51.2832C5.33225 51.5969 5.4174 51.9048 5.57949 52.1734C5.74158 52.442 5.97436 52.6609 6.25241 52.8062C6.53047 52.9514 6.84309 53.0175 7.15614 52.9971C7.46919 52.9767 7.77062 52.8707 8.0275 52.6907L13.5383 48.8332H23.6667C24.3297 48.8332 24.9656 48.5698 25.4344 48.1009C25.9033 47.6321 26.1667 46.9962 26.1667 46.3332V41.3115C26.7218 41.3403 27.278 41.3417 27.8333 41.3157V46.3332C27.8333 46.9962 28.0967 47.6321 28.5656 48.1009C29.0344 48.5698 29.6703 48.8332 30.3333 48.8332H40.4617L45.9725 52.6907C46.2296 52.8705 46.5311 52.9763 46.8442 52.9964C47.1573 53.0166 47.4699 52.9503 47.7479 52.8049C48.0259 52.6595 48.2586 52.4405 48.4206 52.1719C48.5826 51.9032 48.6678 51.5952 48.6667 51.2815V48.8332H49.5C50.163 48.8332 50.7989 48.5698 51.2678 48.1009C51.7366 47.6321 52 46.9962 52 46.3332V31.3332C52 30.6701 51.7366 30.0342 51.2678 29.5654C50.7989 29.0966 50.163 28.8332 49.5 28.8332H42.2342C42.6273 27.9464 42.9397 27.026 43.1675 26.0832L44.8917 25.3923C45.2181 25.2669 45.503 25.0529 45.7144 24.7743C45.9258 24.4958 46.0553 24.1638 46.0883 23.8157C46.1922 22.7192 46.1922 21.6154 46.0883 20.519C46.0566 20.1718 45.9286 19.8403 45.7188 19.5618C45.5091 19.2832 45.2258 19.0687 44.9008 18.9423L43.1667 18.2498C42.7657 16.5765 42.1034 14.9769 41.2042 13.5098L41.9325 11.7982C42.0755 11.4762 42.1249 11.1206 42.0751 10.7718C42.0253 10.4231 41.8782 10.0955 41.6508 9.8265C40.9532 8.9948 40.1842 8.22576 39.3525 7.52817C39.0843 7.29676 38.7559 7.14632 38.4055 7.09439C38.0551 7.04246 37.6971 7.09116 37.3733 7.23483L35.6583 7.964C34.1909 7.06401 32.5907 6.40114 30.9167 5.99983L30.2258 4.274C30.0998 3.94818 29.8857 3.66381 29.6075 3.45264C29.3292 3.24147 28.9977 3.11182 28.65 3.07817C27.5539 2.97329 26.4503 2.97329 25.3542 3.07817C25.0069 3.11038 24.6754 3.23848 24.3967 3.44817C24.118 3.65787 23.903 3.9409 23.7758 4.26567L23.0833 5.99983C21.4094 6.40062 19.8092 7.06293 18.3417 7.96233L16.63 7.234C16.3081 7.09062 15.9523 7.04107 15.6034 7.09105C15.2546 7.14103 14.927 7.2885 14.6583 7.5165C13.8268 8.21401 13.0578 8.98276 12.36 9.814C12.1291 10.0825 11.979 10.4109 11.9271 10.7612C11.8752 11.1114 11.9236 11.4693 12.0667 11.7932L12.7958 13.5082C11.8964 14.9757 11.2341 16.5759 10.8333 18.2498L9.10833 18.9415C8.78216 19.0668 8.49739 19.2806 8.286 19.5588C8.07461 19.837 7.94498 20.1687 7.91167 20.5165C7.80763 21.6126 7.80763 22.7162 7.91167 23.8123C7.94332 24.1598 8.07121 24.4916 8.28097 24.7704C8.49074 25.0492 8.77408 25.264 9.09917 25.3907L10.8325 26.0848C11.0603 27.0277 11.3727 27.9481 11.7658 28.8348H4.5C3.83696 28.8348 3.20107 29.0982 2.73223 29.5671C2.26339 30.0359 2 30.6718 2 31.3348L2 46.3332C2 46.9962 2.26339 47.6321 2.73223 48.1009C3.20107 48.5698 3.83696 48.8332 4.5 48.8332ZM17.4358 28.8332C16.063 26.8816 15.3285 24.5526 15.3333 22.1665C15.3333 19.0723 16.5625 16.1048 18.7504 13.9169C20.9383 11.729 23.9058 10.4998 27 10.4998C30.0942 10.4998 33.0617 11.729 35.2496 13.9169C37.4375 16.1048 38.6667 19.0723 38.6667 22.1665C38.6715 24.5526 37.937 26.8816 36.5642 28.8332H30.3333C29.6703 28.8332 29.0344 29.0966 28.5656 29.5654C28.0967 30.0342 27.8333 30.6701 27.8333 31.3332V33.799C27.2786 33.8407 26.7214 33.8407 26.1667 33.799V31.3332C26.1667 30.6701 25.9033 30.0342 25.4344 29.5654C24.9656 29.0966 24.3297 28.8332 23.6667 28.8332H17.4358ZM26.1667 39.6407V35.474C26.4467 35.4923 26.725 35.5032 27 35.5032C27.275 35.5032 27.5533 35.4923 27.8333 35.474V39.649C27.278 39.6741 26.7217 39.6713 26.1667 39.6407ZM50.3333 31.3332V46.3332C50.3333 46.5542 50.2455 46.7661 50.0893 46.9224C49.933 47.0787 49.721 47.1665 49.5 47.1665H47.8333C47.6123 47.1665 47.4004 47.2543 47.2441 47.4106C47.0878 47.5669 47 47.7788 47 47.9998V51.2832L46.9275 51.3248L41.2025 47.3173C41.0626 47.2193 40.8959 47.1666 40.725 47.1665H30.3333C30.1123 47.1665 29.9004 47.0787 29.7441 46.9224C29.5878 46.7661 29.5 46.5542 29.5 46.3332V31.3332C29.5 31.1122 29.5878 30.9002 29.7441 30.7439C29.9004 30.5876 30.1123 30.4998 30.3333 30.4998H49.5C49.721 30.4998 49.933 30.5876 50.0893 30.7439C50.2455 30.9002 50.3333 31.1122 50.3333 31.3332ZM12.3658 25.3057C12.338 25.1709 12.2773 25.0451 12.189 24.9395C12.1007 24.834 11.9877 24.7519 11.86 24.7007L9.70917 23.8398C9.67106 23.8247 9.63788 23.7994 9.61331 23.7666C9.58874 23.7338 9.57375 23.6948 9.57 23.654C9.47616 22.659 9.47616 21.6573 9.57 20.6623C9.57676 20.623 9.59403 20.5861 9.62 20.5558C9.64596 20.5254 9.67965 20.5026 9.7175 20.4898L11.8583 19.6315C11.9858 19.5808 12.0987 19.4991 12.1869 19.394C12.275 19.2888 12.3356 19.1634 12.3633 19.029C12.7393 17.2514 13.4406 15.5585 14.4317 14.0357C14.5055 13.9213 14.5502 13.7905 14.5619 13.6548C14.5735 13.5191 14.5517 13.3826 14.4983 13.2573L13.5992 11.1373C13.5799 11.099 13.5722 11.056 13.577 11.0134C13.5817 10.9708 13.5987 10.9305 13.6258 10.8973C14.2712 10.1293 14.982 9.41858 15.75 8.77317C15.7831 8.75277 15.821 8.74142 15.8599 8.74025C15.8988 8.73908 15.9374 8.74813 15.9717 8.7665L18.0908 9.6665C18.216 9.72048 18.3526 9.74265 18.4884 9.73101C18.6242 9.71938 18.755 9.67431 18.8692 9.59983C20.392 8.60872 22.0849 7.90751 23.8625 7.5315C23.9969 7.50352 24.1223 7.44279 24.2275 7.35469C24.3328 7.26659 24.4146 7.15385 24.4658 7.0265L25.3267 4.8765C25.3418 4.83834 25.3671 4.80509 25.3999 4.78039C25.4327 4.75569 25.4717 4.7405 25.5125 4.7365C26.5075 4.64306 27.5091 4.64306 28.5042 4.7365C28.5435 4.74334 28.5803 4.76065 28.6106 4.7866C28.641 4.81255 28.6638 4.8462 28.6767 4.884L29.5342 7.02483C29.5854 7.15218 29.6672 7.26492 29.7725 7.35302C29.8777 7.44112 30.0031 7.50185 30.1375 7.52983C31.9152 7.90636 33.6081 8.60814 35.1308 9.59983C35.2451 9.67411 35.3759 9.71905 35.5116 9.73068C35.6474 9.74231 35.784 9.72026 35.9092 9.6665L38.0292 8.76567C38.0676 8.74684 38.1105 8.73935 38.153 8.74407C38.1956 8.7488 38.2358 8.76554 38.2692 8.79233C39.0378 9.4371 39.7486 10.1479 40.3933 10.9165C40.4136 10.9497 40.4248 10.9876 40.426 11.0264C40.4272 11.0653 40.4182 11.1038 40.4 11.1382L39.5 13.2573C39.4467 13.3826 39.4249 13.5191 39.4365 13.6548C39.4481 13.7905 39.4928 13.9213 39.5667 14.0357C40.5578 15.5585 41.259 17.2514 41.635 19.029C41.6627 19.1634 41.7233 19.2888 41.8115 19.394C41.8996 19.4991 42.0125 19.5808 42.14 19.6315L44.2908 20.494C44.3289 20.5089 44.362 20.5341 44.3866 20.5668C44.4112 20.5995 44.4262 20.6383 44.43 20.679C44.5242 21.674 44.5242 22.6757 44.43 23.6707C44.4234 23.7101 44.4062 23.747 44.3802 23.7774C44.3542 23.8078 44.3204 23.8305 44.2825 23.8432L42.1417 24.7007C42.014 24.7519 41.9009 24.834 41.8127 24.9395C41.7244 25.0451 41.6636 25.1709 41.6358 25.3057C41.3742 26.53 40.9561 27.7156 40.3917 28.8332H38.5383C39.7176 26.8096 40.3371 24.5086 40.3333 22.1665C40.3333 18.6303 38.9286 15.2389 36.4281 12.7384C33.9276 10.2379 30.5362 8.83317 27 8.83317C23.4638 8.83317 20.0724 10.2379 17.5719 12.7384C15.0714 15.2389 13.6667 18.6303 13.6667 22.1665C13.6629 24.5086 14.2824 26.8096 15.4617 28.8332H13.6083C13.0445 27.7155 12.6269 26.53 12.3658 25.3057ZM3.66667 31.3332C3.66667 31.1122 3.75446 30.9002 3.91074 30.7439C4.06702 30.5876 4.27899 30.4998 4.5 30.4998H23.6667C23.8877 30.4998 24.0996 30.5876 24.2559 30.7439C24.4122 30.9002 24.5 31.1122 24.5 31.3332V46.3332C24.5 46.5542 24.4122 46.7661 24.2559 46.9224C24.0996 47.0787 23.8877 47.1665 23.6667 47.1665H13.275C13.1041 47.1666 12.9374 47.2193 12.7975 47.3173L7.0725 51.3248L7.55 52.0082L7 51.2815V47.9998C7 47.7788 6.9122 47.5669 6.75592 47.4106C6.59964 47.2543 6.38768 47.1665 6.16667 47.1665H4.5C4.27899 47.1665 4.06702 47.0787 3.91074 46.9224C3.75446 46.7661 3.66667 46.5542 3.66667 46.3332V31.3332Z" fill="#2166F3"/>
<path d="M10.3333 45.4998C10.5543 45.4998 10.7663 45.412 10.9226 45.2558C11.0789 45.0995 11.1667 44.8875 11.1667 44.6665V40.4998H16.1667V44.6665C16.1667 44.8875 16.2545 45.0995 16.4107 45.2558C16.567 45.412 16.779 45.4998 17 45.4998C17.221 45.4998 17.433 45.412 17.5893 45.2558C17.7455 45.0995 17.8333 44.8875 17.8333 44.6665V36.3332C17.8333 35.2281 17.3943 34.1683 16.6129 33.3869C15.8315 32.6055 14.7717 32.1665 13.6667 32.1665C12.5616 32.1665 11.5018 32.6055 10.7204 33.3869C9.93899 34.1683 9.5 35.2281 9.5 36.3332V44.6665C9.5 44.8875 9.5878 45.0995 9.74408 45.2558C9.90036 45.412 10.1123 45.4998 10.3333 45.4998ZM13.6667 33.8332C14.3297 33.8332 14.9656 34.0966 15.4344 34.5654C15.9033 35.0342 16.1667 35.6701 16.1667 36.3332V38.8332H11.1667V36.3332C11.1667 35.6701 11.4301 35.0342 11.8989 34.5654C12.3677 34.0966 13.0036 33.8332 13.6667 33.8332ZM36.1667 36.3332H37.0442C37.1692 38.4343 37.9271 40.4484 39.2183 42.1107C38.473 42.8425 37.6127 43.4472 36.6717 43.9007C36.4953 43.9763 36.3505 44.1105 36.2616 44.2806C36.1728 44.4506 36.1453 44.6461 36.1839 44.8341C36.2225 45.0221 36.3248 45.1909 36.4735 45.3122C36.6221 45.4335 36.8081 45.4998 37 45.4998C37.1129 45.5003 37.2247 45.4773 37.3283 45.4323C38.4365 44.9051 39.4515 44.2008 40.3333 43.3473C41.2153 44.2003 42.2302 44.9039 43.3383 45.4307C43.4418 45.4762 43.5536 45.4998 43.6667 45.4998C43.8586 45.5005 44.0449 45.4349 44.1941 45.314C44.3433 45.1932 44.4461 45.0246 44.4853 44.8366C44.5245 44.6487 44.4976 44.453 44.4092 44.2826C44.3208 44.1123 44.1762 43.9776 44 43.9015C43.0585 43.4476 42.1977 42.8427 41.4517 42.1107C42.7414 40.4479 43.4982 38.4339 43.6225 36.3332H44.5C44.721 36.3332 44.933 36.2454 45.0893 36.0891C45.2455 35.9328 45.3333 35.7209 45.3333 35.4998C45.3333 35.2788 45.2455 35.0669 45.0893 34.9106C44.933 34.7543 44.721 34.6665 44.5 34.6665H41.1667V32.9998C41.1667 32.7788 41.0789 32.5669 40.9226 32.4106C40.7663 32.2543 40.5543 32.1665 40.3333 32.1665C40.1123 32.1665 39.9004 32.2543 39.7441 32.4106C39.5878 32.5669 39.5 32.7788 39.5 32.9998V34.6665H36.1667C35.9457 34.6665 35.7337 34.7543 35.5774 34.9106C35.4211 35.0669 35.3333 35.2788 35.3333 35.4998C35.3333 35.7209 35.4211 35.9328 35.5774 36.0891C35.7337 36.2454 35.9457 36.3332 36.1667 36.3332ZM40.3333 40.8257C39.3912 39.5051 38.8299 37.951 38.7108 36.3332H41.9558C41.8368 37.951 41.2755 39.5051 40.3333 40.8257Z" fill="#2166F3"/>
</g>
<defs>
<clipPath id="clip0_1044_740">
<rect width="50" height="50" fill="white" transform="translate(2 3)"/>
</clipPath>
</defs>
</svg>
