<svg width="49" height="48" viewBox="0 0 49 48" fill="none" xmlns="http://www.w3.org/2000/svg">
<path fill-rule="evenodd" clip-rule="evenodd" d="M2.04284 9.62951C0.863529 9.28912 0 8.20098 0 6.91275C0 5.35245 1.26676 4.08559 2.82716 4.08559C4.38745 4.08559 5.65422 5.35245 5.65422 6.91275C5.65422 8.20098 4.79069 9.28912 3.61147 9.62951V14.6932L10.7584 14.7313V13.6317C10.7584 11.997 12.0856 10.6697 13.7203 10.6697H15.4932L15.4553 3.61147H11.4773C11.137 4.79078 10.0488 5.65422 8.76059 5.65422C7.2002 5.65422 5.93343 4.38745 5.93343 2.82716C5.93343 1.26676 7.2002 0 8.76059 0C10.0488 0 11.137 0.863529 11.4773 2.04284H16.2354C16.4427 2.04284 16.6415 2.12489 16.7885 2.27107C16.9355 2.41725 17.0186 2.61566 17.0197 2.82294L17.0619 10.6697H21.0784V2.82716C21.0784 2.39422 21.4299 2.04284 21.8627 2.04284C22.2956 2.04284 22.6471 2.39422 22.6471 2.82716V10.6697H25.9804V2.82716C25.9804 2.39422 26.3319 2.04284 26.7647 2.04284C27.1976 2.04284 27.549 2.39422 27.549 2.82716V10.6697H31.5656L31.6077 2.82294C31.6089 2.61566 31.692 2.41725 31.839 2.27107C31.9859 2.12489 32.1848 2.04284 32.3921 2.04284H37.1502C37.4905 0.863529 38.5786 0 39.8669 0C41.4273 0 42.694 1.26676 42.694 2.82716C42.694 4.38745 41.4273 5.65422 39.8669 5.65422C38.5786 5.65422 37.4905 4.79078 37.1502 3.61147H33.1722L33.1342 10.6697H34.9072C36.5419 10.6697 37.869 11.997 37.869 13.6317V14.7313L45.016 14.6932V9.62951C43.8368 9.28912 42.9732 8.20098 42.9732 6.91275C42.9732 5.35245 44.24 4.08559 45.8003 4.08559C47.3607 4.08559 48.6275 5.35245 48.6275 6.91275C48.6275 8.20098 47.7639 9.28912 46.5846 9.62951V15.4733C46.5846 15.6806 46.5026 15.8795 46.3564 16.0265C46.2102 16.1734 46.0118 16.2566 45.8045 16.2576L37.869 16.2999V20.3165H45.8003C46.2332 20.3165 46.5846 20.6678 46.5846 21.1008C46.5846 21.5336 46.2332 21.8851 45.8003 21.8851H37.869V25.2184H45.8003C46.2332 25.2184 46.5846 25.5698 46.5846 26.0028C46.5846 26.4356 46.2332 26.7871 45.8003 26.7871H37.869V30.8035L45.8045 30.8458C46.0118 30.8469 46.2102 30.93 46.3564 31.077C46.5026 31.224 46.5846 31.4228 46.5846 31.6301V37.474C47.7639 37.8143 48.6275 38.9025 48.6275 40.1908C48.6275 41.7511 47.3607 43.0178 45.8003 43.0178C44.24 43.0178 42.9732 41.7511 42.9732 40.1908C42.9732 38.9025 43.8368 37.8143 45.016 37.474V32.4103L37.869 32.3722V33.4719C37.869 35.1066 36.5419 36.4337 34.9072 36.4337H33.1338L33.1726 44.254H37.0884C37.3347 42.944 38.4859 41.9517 39.8669 41.9517C41.4273 41.9517 42.694 43.2184 42.694 44.7787C42.694 46.339 41.4273 47.6059 39.8669 47.6059C38.6752 47.6059 37.6547 46.867 37.2391 45.8227H32.3921C32.1847 45.8227 31.9858 45.7406 31.8389 45.5943C31.6919 45.4481 31.6088 45.2496 31.6077 45.0423L31.5652 36.4337H27.549V45.0383C27.549 45.4713 27.1976 45.8227 26.7647 45.8227C26.3319 45.8227 25.9804 45.4713 25.9804 45.0383V36.4337H22.6471V45.0383C22.6471 45.4713 22.2956 45.8227 21.8627 45.8227C21.4299 45.8227 21.0784 45.4713 21.0784 45.0383V36.4337H17.0623L17.0197 45.0423C17.0187 45.2496 16.9356 45.4481 16.7886 45.5943C16.6416 45.7406 16.4427 45.8227 16.2354 45.8227H11.4773C11.137 47.002 10.0488 47.8655 8.76059 47.8655C7.2002 47.8655 5.93343 46.5987 5.93343 45.0383C5.93343 43.478 7.2002 42.2113 8.76059 42.2113C10.0488 42.2113 11.137 43.0747 11.4773 44.254H15.4549L15.4936 36.4337H13.7203C12.0856 36.4337 10.7584 35.1066 10.7584 33.4719V32.3722L3.61147 32.4103V37.474C4.79069 37.8143 5.65422 38.9025 5.65422 40.1908C5.65422 41.7511 4.38745 43.0178 2.82716 43.0178C1.26676 43.0178 0 41.7511 0 40.1908C0 38.9025 0.863529 37.8143 2.04284 37.474V31.6301C2.04284 31.4228 2.12489 31.224 2.27107 31.077C2.41725 30.93 2.61566 30.8469 2.82294 30.8458L10.7584 30.8035V26.7871H2.82716C2.39422 26.7871 2.04284 26.4356 2.04284 26.0028C2.04284 25.5698 2.39422 25.2184 2.82716 25.2184H10.7584V21.8851H2.82716C2.39422 21.8851 2.04284 21.5336 2.04284 21.1008C2.04284 20.6678 2.39422 20.3165 2.82716 20.3165H10.7584V16.2999L2.82294 16.2576C2.61565 16.2566 2.41722 16.1734 2.27104 16.0265C2.12486 15.8795 2.04281 15.6806 2.04284 15.4733V9.62951ZM2.82716 5.65422C2.13255 5.65422 1.56863 6.21814 1.56863 6.91275C1.56863 7.60735 2.13255 8.17128 2.82716 8.17128C3.52167 8.17128 4.08559 7.60735 4.08559 6.91275C4.08559 6.21814 3.52167 5.65422 2.82716 5.65422ZM36.3004 13.6317C36.3004 12.8626 35.6761 12.2383 34.9072 12.2383H13.7203C12.9514 12.2383 12.3271 12.8626 12.3271 13.6317V33.4719C12.3271 34.2408 12.9514 34.8651 13.7203 34.8651H34.9072C35.6761 34.8651 36.3004 34.2408 36.3004 33.4719V13.6317ZM32.0999 16.6956V29.4937C32.0999 30.4247 31.3327 31.1922 30.382 31.1922H18.2454C17.2949 31.1922 16.5275 30.4247 16.5275 29.4937V16.6956C16.5275 16.4876 16.6102 16.2881 16.7573 16.141C16.9044 15.9939 17.1038 15.9113 17.3119 15.9113H31.3156C31.5236 15.9113 31.7231 15.9939 31.8702 16.141C32.0173 16.2881 32.0999 16.4876 32.0999 16.6956ZM21.1851 17.4799H18.0962V29.4937C18.0962 29.57 18.1676 29.6235 18.2454 29.6235H30.382C30.4599 29.6235 30.5313 29.57 30.5313 29.4937V17.4799H27.4425V22.2901C27.4425 22.4981 27.3598 22.6976 27.2127 22.8447C27.0656 22.9918 26.8662 23.0744 26.6581 23.0744H21.9694C21.7614 23.0744 21.5619 22.9918 21.4148 22.8447C21.2677 22.6976 21.1851 22.4981 21.1851 22.2901V17.4799ZM25.8738 17.4799H22.7537V21.5058H25.8738V17.4799ZM39.8669 1.56863C39.1724 1.56863 38.6084 2.13255 38.6084 2.82716C38.6084 3.52176 39.1724 4.08559 39.8669 4.08559C40.5615 4.08559 41.1254 3.52176 41.1254 2.82716C41.1254 2.13255 40.5615 1.56863 39.8669 1.56863ZM8.76059 1.56863C8.06598 1.56863 7.50206 2.13255 7.50206 2.82716C7.50206 3.52176 8.06598 4.08559 8.76059 4.08559C9.4551 4.08559 10.019 3.52176 10.019 2.82716C10.019 2.13255 9.4551 1.56863 8.76059 1.56863ZM45.8003 38.9323C45.1058 38.9323 44.5419 39.4962 44.5419 40.1908C44.5419 40.8853 45.1058 41.4492 45.8003 41.4492C46.4949 41.4492 47.0588 40.8853 47.0588 40.1908C47.0588 39.4962 46.4949 38.9323 45.8003 38.9323ZM2.82716 38.9323C2.13255 38.9323 1.56863 39.4962 1.56863 40.1908C1.56863 40.8853 2.13255 41.4492 2.82716 41.4492C3.52167 41.4492 4.08559 40.8853 4.08559 40.1908C4.08559 39.4962 3.52167 38.9323 2.82716 38.9323ZM8.76059 43.7799C8.06598 43.7799 7.50206 44.3437 7.50206 45.0383C7.50206 45.7329 8.06598 46.2969 8.76059 46.2969C9.4551 46.2969 10.019 45.7329 10.019 45.0383C10.019 44.3437 9.4551 43.7799 8.76059 43.7799ZM45.8003 5.65422C45.1058 5.65422 44.5419 6.21814 44.5419 6.91275C44.5419 7.60735 45.1058 8.17128 45.8003 8.17128C46.4949 8.17128 47.0588 7.60735 47.0588 6.91275C47.0588 6.21814 46.4949 5.65422 45.8003 5.65422ZM39.8669 43.5203C39.1724 43.5203 38.6084 44.0841 38.6084 44.7787C38.6084 45.4733 39.1724 46.0373 39.8669 46.0373C40.5615 46.0373 41.1254 45.4733 41.1254 44.7787C41.1254 44.0841 40.5615 43.5203 39.8669 43.5203Z" fill="#2166F3"/>
</svg>
