<svg width="50" height="50" viewBox="0 0 50 50" fill="none" xmlns="http://www.w3.org/2000/svg">
<path d="M47.0311 24.0452H45.5031V23.5746C45.5031 22.6176 44.7232 21.839 43.7646 21.839H42.7043C41.7458 21.839 40.9659 22.6176 40.9659 23.5746V24.0452H36.9908V23.5746C36.9908 22.6831 36.3138 21.9471 35.4462 21.8505V0.781152C35.4462 0.678634 35.426 0.57712 35.3868 0.482405C35.3475 0.387691 35.29 0.301631 35.2175 0.229139C35.1451 0.156648 35.059 0.0991448 34.9643 0.0599128C34.8696 0.0206807 34.768 0.000488281 34.6655 0.000488281H0.782617C0.680099 0.000488281 0.578585 0.0206807 0.48387 0.0599128C0.389155 0.0991448 0.303096 0.156648 0.230604 0.229139C0.0842014 0.375542 0.00195313 0.574107 0.00195312 0.781152V49.2192C0.00195313 49.4263 0.0842014 49.6248 0.230604 49.7712C0.377007 49.9177 0.575572 49.9999 0.782617 49.9999H47.0311C48.6673 49.9999 49.9985 48.753 49.9985 47.2206V26.8217C49.9984 25.2907 48.6673 24.0452 47.0311 24.0452ZM42.5272 23.5745C42.5272 23.48 42.6083 23.4001 42.7043 23.4001H43.7646C43.8606 23.4001 43.9417 23.48 43.9417 23.5745V26.6556C43.9417 26.7501 43.8606 26.8299 43.7646 26.8299H42.7043C42.6084 26.8299 42.5272 26.7501 42.5272 26.6556V23.5745ZM40.9658 25.6064V26.6556C40.9658 27.6126 41.7456 28.3912 42.7042 28.3912H43.7645C44.723 28.3912 45.503 27.6125 45.503 26.6556V25.6064H47.031C47.8063 25.6064 48.437 26.1517 48.437 26.8217V29.6812H21.4417V26.8217C21.4417 26.1517 22.0726 25.6064 22.848 25.6064H23.9413V26.6556C23.9413 27.6126 24.7212 28.3912 25.6798 28.3912H26.74C27.6985 28.3912 28.4784 27.6125 28.4784 26.6556V25.6064H32.4535V26.6556C32.4535 27.6126 33.2334 28.3912 34.1921 28.3912H35.2522C36.2107 28.3912 36.9907 27.6125 36.9907 26.6556V25.6064H40.9658ZM25.5027 26.6556V23.5745C25.5027 23.48 25.5838 23.4001 25.6798 23.4001H26.74C26.8359 23.4001 26.9171 23.48 26.9171 23.5745V26.6556C26.9171 26.7501 26.836 26.8299 26.74 26.8299H25.6798C25.5838 26.8299 25.5027 26.7501 25.5027 26.6556ZM35.2522 23.4002C35.3481 23.4002 35.4293 23.4801 35.4293 23.5746V26.6557C35.4293 26.7502 35.3481 26.83 35.2522 26.83H34.1921C34.0961 26.83 34.0149 26.7502 34.0149 26.6557V23.5746C34.0149 23.4801 34.0961 23.4002 34.1921 23.4002H35.2522ZM1.56328 1.56182H33.8848V21.8678C33.0725 22.0133 32.4536 22.7224 32.4536 23.5746V24.0452H28.4785V23.5746C28.4785 22.6176 27.6987 21.839 26.7401 21.839H25.6799C24.7214 21.839 23.9414 22.6176 23.9414 23.5746V24.0452H22.848C21.2117 24.0452 19.8804 25.2907 19.8804 26.8218V47.2207C19.8804 47.6573 19.9888 48.0706 20.1812 48.4387H1.56328V1.56182ZM47.0311 48.4386H22.848C22.0856 48.4386 21.4417 47.8809 21.4417 47.2206V31.2426H48.4372V47.2206C48.4371 47.8922 47.8064 48.4386 47.0311 48.4386ZM29.4833 33.6369H25.4749C25.2679 33.6369 25.0693 33.7192 24.9229 33.8656C24.7765 34.012 24.6942 34.2105 24.6942 34.4176V38.4232C24.6942 38.6303 24.7765 38.8289 24.9229 38.9753C25.0693 39.1217 25.2679 39.2039 25.4749 39.2039H29.4833C29.6903 39.2039 29.8889 39.1217 30.0353 38.9753C30.1817 38.8289 30.264 38.6303 30.264 38.4232V34.4176C30.2639 34.2105 30.1817 34.012 30.0353 33.8656C29.8889 33.7192 29.6903 33.6369 29.4833 33.6369ZM28.7026 37.6426H26.2556V35.1983H28.7026V37.6426ZM36.8744 33.6369H32.8688C32.7662 33.6369 32.6647 33.6571 32.57 33.6963C32.4753 33.7356 32.3892 33.7931 32.3167 33.8656C32.2442 33.9381 32.1867 34.0241 32.1475 34.1188C32.1083 34.2135 32.0881 34.3151 32.0881 34.4176V38.4232C32.0881 38.5258 32.1083 38.6273 32.1475 38.722C32.1867 38.8167 32.2442 38.9028 32.3167 38.9753C32.3892 39.0477 32.4753 39.1052 32.57 39.1445C32.6647 39.1837 32.7662 39.2039 32.8688 39.2039H36.8744C36.9769 39.2039 37.0785 39.1837 37.1732 39.1445C37.2679 39.1052 37.3539 39.0477 37.4264 38.9753C37.4989 38.9028 37.5564 38.8167 37.5957 38.722C37.6349 38.6273 37.6551 38.5258 37.6551 38.4232V34.4176C37.6551 34.2105 37.5728 34.012 37.4264 33.8656C37.28 33.7192 37.0815 33.6369 36.8744 33.6369ZM36.0938 37.6426H33.6495V35.1983H36.0938V37.6426ZM29.4833 40.4771H25.4749C25.2679 40.4771 25.0693 40.5594 24.9229 40.7058C24.7765 40.8522 24.6942 41.0508 24.6942 41.2578V45.2635C24.6942 45.4705 24.7765 45.6691 24.9229 45.8155C25.0693 45.9619 25.2679 46.0441 25.4749 46.0441H29.4833C29.5858 46.0441 29.6873 46.0239 29.7821 45.9847C29.8768 45.9455 29.9628 45.888 30.0353 45.8155C30.1078 45.743 30.1653 45.6569 30.2045 45.5622C30.2438 45.4675 30.264 45.366 30.264 45.2635V41.2578C30.264 41.1553 30.2438 41.0538 30.2045 40.9591C30.1653 40.8643 30.1078 40.7783 30.0353 40.7058C29.9628 40.6333 29.8768 40.5758 29.7821 40.5366C29.6873 40.4973 29.5858 40.4771 29.4833 40.4771ZM28.7026 44.4828H26.2556V42.0386H28.7026V44.4828ZM36.8744 40.4771H32.8688C32.7662 40.4771 32.6647 40.4973 32.57 40.5366C32.4753 40.5758 32.3892 40.6333 32.3167 40.7058C32.2442 40.7783 32.1867 40.8643 32.1475 40.9591C32.1083 41.0538 32.0881 41.1553 32.0881 41.2578V45.2635C32.0881 45.366 32.1083 45.4675 32.1475 45.5622C32.1867 45.6569 32.2442 45.743 32.3167 45.8155C32.3892 45.888 32.4753 45.9455 32.57 45.9847C32.6647 46.0239 32.7662 46.0441 32.8688 46.0441H36.8744C36.9769 46.0441 37.0785 46.0239 37.1732 45.9847C37.2679 45.9455 37.3539 45.888 37.4264 45.8155C37.4989 45.743 37.5564 45.6569 37.5957 45.5622C37.6349 45.4675 37.6551 45.366 37.6551 45.2635V41.2578C37.6551 41.1553 37.6349 41.0538 37.5957 40.9591C37.5564 40.8643 37.4989 40.7783 37.4264 40.7058C37.3539 40.6333 37.2679 40.5758 37.1732 40.5366C37.0785 40.4973 36.9769 40.4771 36.8744 40.4771ZM36.0938 44.4828H33.6495V42.0386H36.0938V44.4828ZM44.4067 33.6369H40.3984C40.1914 33.6369 39.9928 33.7192 39.8464 33.8656C39.7 34.012 39.6178 34.2105 39.6178 34.4176V38.4232C39.6178 38.5258 39.638 38.6273 39.6772 38.722C39.7164 38.8167 39.7739 38.9028 39.8464 38.9753C39.9189 39.0477 40.005 39.1052 40.0997 39.1445C40.1944 39.1837 40.2959 39.2039 40.3984 39.2039H44.4067C44.6138 39.2039 44.8124 39.1217 44.9588 38.9753C45.1052 38.8289 45.1874 38.6303 45.1874 38.4232V34.4176C45.1874 34.2105 45.1051 34.012 44.9587 33.8656C44.8123 33.7192 44.6138 33.6369 44.4067 33.6369ZM43.6261 37.6426H41.1791V35.1983H43.6261V37.6426ZM44.4067 40.4771H40.3984C40.1914 40.4771 39.9928 40.5594 39.8464 40.7058C39.7 40.8522 39.6178 41.0508 39.6178 41.2578V45.2635C39.6178 45.366 39.638 45.4675 39.6772 45.5622C39.7164 45.6569 39.7739 45.743 39.8464 45.8155C39.9189 45.888 40.005 45.9455 40.0997 45.9847C40.1944 46.0239 40.2959 46.0441 40.3984 46.0441H44.4067C44.6138 46.0441 44.8124 45.9619 44.9588 45.8155C45.1052 45.6691 45.1874 45.4705 45.1874 45.2635V41.2578C45.1874 41.1553 45.1672 41.0538 45.128 40.9591C45.0887 40.8643 45.0312 40.7783 44.9588 40.7058C44.8863 40.6333 44.8002 40.5758 44.7055 40.5366C44.6108 40.4973 44.5093 40.4771 44.4067 40.4771ZM43.6261 44.4828H41.1791V42.0386H43.6261V44.4828ZM4.79355 13.9633V5.57285C4.79355 5.36581 4.8758 5.16724 5.02221 5.02084C5.16861 4.87444 5.36717 4.79219 5.57422 4.79219H14.6458C14.7483 4.79219 14.8498 4.81238 14.9445 4.85161C15.0393 4.89084 15.1253 4.94835 15.1978 5.02084C15.2703 5.09333 15.3278 5.17939 15.367 5.2741C15.4063 5.36882 15.4265 5.47033 15.4265 5.57285C15.4265 5.67537 15.4063 5.77688 15.367 5.8716C15.3278 5.96631 15.2703 6.05237 15.1978 6.12486C15.1253 6.19736 15.0393 6.25486 14.9445 6.29409C14.8498 6.33332 14.7483 6.35352 14.6458 6.35352H6.35488V13.1827H13.865V10.8069L12.4132 12.1248C12.2697 12.2554 12.0826 12.3276 11.8886 12.3274C11.7861 12.3276 11.6847 12.3075 11.59 12.2683C11.4953 12.2291 11.4093 12.1717 11.3369 12.0992L9.55693 10.322C9.41042 10.1757 9.32802 9.97717 9.32786 9.77012C9.32779 9.6676 9.3479 9.56606 9.38706 9.47132C9.42623 9.37657 9.48367 9.29047 9.5561 9.21792C9.62854 9.14537 9.71456 9.0878 9.80925 9.0485C9.90394 9.00919 10.0054 8.98892 10.108 8.98885C10.315 8.98869 10.5136 9.07079 10.6602 9.21709L11.9142 10.4691L15.6822 7.04893C15.8356 6.91033 16.0377 6.83824 16.2442 6.84847C16.4507 6.85869 16.6447 6.9504 16.7836 7.10347C16.9226 7.25653 16.9951 7.45847 16.9854 7.66497C16.9756 7.87147 16.8844 8.06567 16.7316 8.20498L15.4265 9.38965V13.9633C15.4265 14.1703 15.3442 14.3689 15.1978 14.5153C15.0514 14.6617 14.8528 14.7439 14.6458 14.7439H5.57422C5.36717 14.7439 5.16861 14.6617 5.02221 14.5153C4.8758 14.3689 4.79355 14.1703 4.79355 13.9633ZM4.79355 29.194V20.8063C4.79355 20.5993 4.8758 20.4007 5.02221 20.2543C5.16861 20.1079 5.36717 20.0257 5.57422 20.0257H14.6458C14.8528 20.0257 15.0514 20.1079 15.1978 20.2543C15.3442 20.4007 15.4265 20.5993 15.4265 20.8063C15.4265 21.0134 15.3442 21.212 15.1978 21.3584C15.0514 21.5048 14.8528 21.587 14.6458 21.587H6.35488V28.4134H13.865V26.0403L12.4132 27.3582C12.2697 27.4888 12.0826 27.5611 11.8886 27.5608C11.786 27.561 11.6845 27.5408 11.5897 27.5016C11.495 27.4623 11.4089 27.4048 11.3365 27.3321L9.55654 25.5521C9.48404 25.4797 9.42653 25.3936 9.3873 25.2989C9.34806 25.2042 9.32786 25.1027 9.32786 25.0001C9.32786 24.8976 9.34806 24.7961 9.3873 24.7014C9.42653 24.6067 9.48404 24.5206 9.55654 24.4481C9.62903 24.3756 9.71508 24.3181 9.8098 24.2789C9.90451 24.2397 10.006 24.2195 10.1085 24.2195C10.2111 24.2195 10.3126 24.2397 10.4073 24.2789C10.502 24.3181 10.5881 24.3756 10.6605 24.4481L11.9146 25.7021L15.6822 22.2823C15.8356 22.1437 16.0377 22.0716 16.2442 22.0819C16.4507 22.0921 16.6447 22.1838 16.7836 22.3369C16.9226 22.4899 16.9951 22.6919 16.9854 22.8984C16.9756 23.1049 16.8844 23.2991 16.7316 23.4384L15.4265 24.623V29.194C15.4265 29.2966 15.4063 29.3981 15.367 29.4928C15.3278 29.5875 15.2703 29.6736 15.1978 29.7461C15.1253 29.8185 15.0393 29.8761 14.9445 29.9153C14.8498 29.9545 14.7483 29.9747 14.6458 29.9747H5.57422C5.4717 29.9747 5.37019 29.9545 5.27547 29.9153C5.18076 29.8761 5.0947 29.8185 5.02221 29.7461C4.94971 29.6736 4.89221 29.5875 4.85298 29.4928C4.81375 29.3981 4.79355 29.2966 4.79355 29.194ZM16.7852 37.5694C16.854 37.6454 16.9073 37.7341 16.9419 37.8306C16.9764 37.9271 16.9917 38.0295 16.9867 38.1319C16.9817 38.2343 16.9566 38.3347 16.9127 38.4274C16.8689 38.5201 16.8073 38.6032 16.7313 38.6721L15.4265 39.8557V44.4274C15.4265 44.6345 15.3442 44.833 15.1978 44.9795C15.0514 45.1259 14.8528 45.2081 14.6458 45.2081H5.57422C5.36717 45.2081 5.16861 45.1259 5.02221 44.9795C4.8758 44.833 4.79355 44.6345 4.79355 44.4274V36.0397C4.79355 35.8327 4.8758 35.6341 5.02221 35.4877C5.16861 35.3413 5.36717 35.2591 5.57422 35.2591H14.6458C14.8528 35.2591 15.0514 35.3413 15.1978 35.4877C15.3442 35.6341 15.4265 35.8327 15.4265 36.0397C15.4265 36.2468 15.3442 36.4454 15.1978 36.5918C15.0514 36.7382 14.8528 36.8204 14.6458 36.8204H6.35488V43.6467H13.865V41.2718L12.4129 42.589C12.2695 42.7194 12.0825 42.7916 11.8886 42.7914C11.7861 42.7915 11.6846 42.7714 11.59 42.7322C11.4953 42.6931 11.4093 42.6356 11.3369 42.5631L9.55693 40.7858C9.48438 40.7134 9.42681 40.6274 9.38751 40.5327C9.3482 40.438 9.32794 40.3365 9.32786 40.234C9.32779 40.1315 9.34791 40.0299 9.38708 39.9352C9.42625 39.8405 9.4837 39.7544 9.55615 39.6818C9.62859 39.6093 9.7146 39.5517 9.80929 39.5124C9.90397 39.4731 10.0055 39.4528 10.108 39.4528C10.2105 39.4527 10.312 39.4728 10.4068 39.512C10.5015 39.5512 10.5876 39.6086 10.6602 39.6811L11.9144 40.9333L15.6825 37.5154C15.7585 37.4466 15.8472 37.3933 15.9437 37.3588C16.0403 37.3242 16.1426 37.309 16.245 37.314C16.3474 37.3191 16.4478 37.3442 16.5405 37.388C16.6332 37.4318 16.7163 37.4935 16.7852 37.5694ZM19.8803 5.57285C19.8803 5.36581 19.9625 5.16724 20.1089 5.02084C20.2553 4.87444 20.4539 4.79219 20.6609 4.79219H30.812C31.0191 4.79219 31.2176 4.87444 31.364 5.02084C31.5104 5.16724 31.5927 5.36581 31.5927 5.57285C31.5927 5.7799 31.5104 5.97846 31.364 6.12486C31.2176 6.27127 31.0191 6.35352 30.812 6.35352H20.6609C20.4539 6.35352 20.2553 6.27127 20.1089 6.12486C19.9625 5.97846 19.8803 5.7799 19.8803 5.57285ZM19.8803 9.7667C19.8803 9.55965 19.9625 9.36109 20.1089 9.21469C20.2553 9.06828 20.4539 8.98603 20.6609 8.98603H30.812C31.0191 8.98603 31.2176 9.06828 31.364 9.21469C31.5104 9.36109 31.5927 9.55965 31.5927 9.7667C31.5927 9.97374 31.5104 10.1723 31.364 10.3187C31.2176 10.4651 31.0191 10.5474 30.812 10.5474H20.6609C20.4539 10.5474 20.2553 10.4651 20.1089 10.3187C19.9625 10.1723 19.8803 9.97374 19.8803 9.7667Z" fill="black"/>
</svg>
