<?xml version="1.0" standalone="no"?>
<!DOCTYPE svg PUBLIC "-//W3C//DTD SVG 20010904//EN"
 "http://www.w3.org/TR/2001/REC-SVG-20010904/DTD/svg10.dtd">
<svg version="1.0" xmlns="http://www.w3.org/2000/svg"
 width="100.000000pt" height="100.000000pt" viewBox="0 0 100.000000 100.000000"
 preserveAspectRatio="xMidYMid meet">

<g transform="translate(0.000000,100.000000) scale(0.100000,-0.100000)"
fill="#000000" stroke="none">
<path d="M371 989 c-79 -15 -169 -65 -232 -128 -181 -181 -182 -470 -1 -650
160 -161 391 -184 587 -60 l48 31 92 -92 c93 -93 125 -109 133 -66 3 13 -25
48 -88 111 l-93 93 20 29 c11 15 31 48 43 73 173 340 -131 733 -509 659z m171
-60 c211 -44 363 -266 319 -467 -45 -212 -259 -363 -458 -324 -268 54 -410
324 -299 567 60 131 208 228 358 234 15 1 51 -4 80 -10z"/>
<path d="M394 756 c-27 -27 -34 -42 -34 -74 0 -78 80 -133 146 -100 110 54 76
208 -47 208 -22 0 -41 -10 -65 -34z m97 -36 c23 -13 25 -53 3 -74 -20 -20 -33
-20 -56 1 -22 20 -23 46 -2 67 18 19 28 20 55 6z"/>
<path d="M302 520 c-43 -27 -53 -58 -50 -154 l3 -81 210 0 210 0 3 92 c3 89 2
93 -27 125 l-29 33 -144 3 c-129 2 -146 1 -176 -18z m296 -56 c18 -12 22 -25
22 -70 l0 -54 -155 0 -155 0 0 54 c0 78 14 86 155 86 84 0 116 -4 133 -16z"/>
</g>
</svg>
