<svg width="43" height="50" viewBox="0 0 43 50" fill="none" xmlns="http://www.w3.org/2000/svg">
<path d="M21.718 11.9564H20.6309V10.8697C20.6309 3.76365 24.3946 0 31.5006 0H32.5874V1.08709C32.5874 8.19273 28.8238 11.9564 21.718 11.9564ZM30.3726 2.21474C25.6444 2.54083 23.1718 5.01348 22.8318 9.7555C27.6419 9.42951 30.06 7.01097 30.3726 2.21474ZM30.4135 50.0001C28.6627 49.9988 26.9381 49.5747 25.3865 48.7637C24.2602 48.1607 23.0024 47.8451 21.7248 47.8451C20.4472 47.8451 19.1894 48.1607 18.0631 48.7637C16.5113 49.5747 14.7866 49.9988 13.0357 50.0001C5.72622 50.0001 -0.0078125 39.9727 -0.0078125 27.174C-0.0078125 19.3885 5.8484 13.0435 13.0357 13.0435C14.3815 13.0435 15.7181 13.2684 16.9895 13.7094L21.025 15.1085C21.4871 15.2681 21.9895 15.2681 22.4516 15.1085L26.4732 13.7094C27.7406 13.2704 29.0722 13.0454 30.4135 13.0435C34.3399 13.0435 38.0084 14.9322 40.5087 18.2201L41.4596 19.4837L39.9378 19.9183C36.0305 21.0443 33.428 24.7311 33.6759 28.7901C33.9235 32.8491 36.9551 36.192 40.9704 36.834L42.2072 37.0378L41.8266 38.2336C39.5712 45.489 35.1827 50.0001 30.4135 50.0001ZM21.718 45.6521C23.3482 45.665 24.9513 46.0705 26.3916 46.8344C27.631 47.4887 29.012 47.8292 30.4136 47.8259C33.9734 47.8259 37.3564 44.3612 39.3945 38.7092C34.7141 37.396 31.4847 33.1218 31.5006 28.2607C31.5194 24.0341 33.9746 20.1977 37.8046 18.4104C35.8076 16.3724 33.1852 15.2172 30.4136 15.2172C29.313 15.2175 28.22 15.4013 27.1798 15.761L23.1447 17.1601C22.2245 17.4762 21.2251 17.4762 20.3049 17.1601L16.256 15.761C15.2158 15.4011 14.1228 15.2173 13.0221 15.2172C7.03026 15.2172 2.15282 20.5842 2.15282 27.174C2.15282 38.3697 7.12534 47.8259 13.0221 47.8259C14.4237 47.8296 15.8048 47.4891 17.0441 46.8344C18.4844 46.0704 20.0877 45.6649 21.718 45.6521Z" fill="#2166F3"/>
</svg>
