<svg width="44" height="44" viewBox="0 0 44 44" fill="none" xmlns="http://www.w3.org/2000/svg">
<path d="M9.28994 4.87961C9.23835 4.80533 9.2019 4.72161 9.18268 4.63324C9.16346 4.54486 9.16184 4.45357 9.17791 4.36457C9.19398 4.27557 9.22744 4.19061 9.27635 4.11455C9.32527 4.03848 9.3887 3.9728 9.46301 3.92125C13.1552 1.35616 17.4906 0 22 0C27.5693 0 32.8519 2.0717 36.9281 5.84227L36.7267 3.32971C36.6965 2.95084 36.9789 2.61847 37.3578 2.58834C37.7349 2.55734 38.069 2.84063 38.0992 3.21949L38.4479 7.56869C38.4643 7.77018 38.3911 7.96822 38.2481 8.11115C38.1842 8.17517 38.1082 8.22592 38.0246 8.2605C37.9409 8.29507 37.8513 8.31279 37.7608 8.31264C37.7427 8.31264 37.7238 8.31178 37.7057 8.31006L33.3565 7.96133C32.9776 7.93119 32.6943 7.59883 32.7253 7.21996C32.7555 6.8411 33.087 6.55867 33.4667 6.58881L35.9173 6.78513C32.1079 3.2944 27.187 1.37769 22 1.37769C17.7731 1.37769 13.7097 2.64861 10.2492 5.05268C9.93659 5.26967 9.50779 5.19217 9.28994 4.87961ZM1.37769 22C1.37769 16.813 3.2944 11.8921 6.78513 8.08102L6.58881 10.5316C6.55867 10.9104 6.8411 11.2428 7.21996 11.273C7.2389 11.2747 7.25699 11.2755 7.27593 11.2755C7.63155 11.2755 7.93292 11.0026 7.96219 10.6418L8.31092 6.2926C8.32728 6.09112 8.25409 5.89307 8.11115 5.75014C7.96822 5.6072 7.76932 5.53487 7.56869 5.55037L3.21949 5.8991C2.84063 5.92924 2.55734 6.2616 2.58834 6.64047C2.61847 7.01933 2.94998 7.30262 3.32971 7.27162L5.84227 7.07014C2.0717 11.1481 0 16.4307 0 22C0 26.5094 1.35616 30.8439 3.92125 34.537C3.98459 34.6286 4.06927 34.7034 4.16797 34.755C4.26668 34.8066 4.37645 34.8335 4.48783 34.8332C4.62387 34.8332 4.76078 34.7936 4.88047 34.7101C5.19303 34.4931 5.27053 34.0634 5.05354 33.7517C2.64861 30.2903 1.37769 26.2269 1.37769 22ZM42.8901 28.9117C43.5996 30.3178 44 31.9056 44 33.5855C44 39.3279 39.3279 44 33.5855 44C31.9056 44 30.3178 43.5996 28.9108 42.8901C26.6867 43.6263 24.3636 44 22 44C16.4307 44 11.1481 41.9283 7.07186 38.1577L7.27335 40.6703C7.30348 41.0492 7.02106 41.3815 6.64219 41.4117C6.62325 41.4134 6.60517 41.4142 6.58622 41.4142C6.23061 41.4142 5.92924 41.1413 5.89996 40.7805L5.55123 36.4313C5.53487 36.2298 5.60806 36.0318 5.751 35.8888C5.89393 35.7459 6.09198 35.6736 6.29346 35.6891L10.6427 36.0378C11.0215 36.0679 11.3048 36.4003 11.2738 36.7792C11.2428 37.158 10.9104 37.4413 10.5324 37.4103L8.08188 37.214C11.8929 40.7047 16.8139 42.6214 22.0009 42.6214C23.8194 42.6214 25.613 42.3847 27.3489 41.9197C26.0254 40.9269 24.9448 39.6258 24.2155 38.125C23.4836 38.2249 22.7405 38.2757 22.0009 38.2757C13.0261 38.2757 5.72431 30.9739 5.72431 21.9991C5.72431 13.0243 13.0252 5.72344 22 5.72344C30.9748 5.72344 38.2766 13.0252 38.2766 22C38.2766 22.7414 38.2258 23.4836 38.1259 24.2146C39.6267 24.9448 40.9277 26.0254 41.9205 27.3489C42.3855 25.6121 42.6223 23.8194 42.6223 22C42.6223 17.7731 41.3514 13.7097 38.9473 10.2492C38.7303 9.93659 38.8078 9.50779 39.1204 9.2908C39.433 9.07382 39.8618 9.15131 40.0787 9.46388C42.6438 13.1561 44 17.4915 44 22.0009C44 24.3645 43.6263 26.6876 42.8901 28.9117ZM36.8041 23.6808C36.8412 23.3519 36.867 23.0204 36.8825 22.6888H30.837C30.8301 22.9756 30.8189 23.2623 30.8043 23.549C31.6903 23.3036 32.6229 23.171 33.5855 23.171C34.7083 23.171 35.7898 23.351 36.8041 23.6808ZM9.05229 29.3646H14.0929C13.5341 27.3119 13.2146 25.0438 13.1621 22.6888H7.1175C7.22857 25.1084 7.91828 27.379 9.05229 29.3646ZM34.9477 14.6354H29.9071C30.4659 16.6881 30.7854 18.9562 30.8379 21.3112H36.8825C36.7714 18.8916 36.0817 16.621 34.9477 14.6354ZM23.5654 30.7423H22.6888V36.8317C22.9945 36.7732 23.2976 36.6776 23.5981 36.5424C23.5895 36.5131 23.5818 36.4838 23.574 36.4546L23.543 36.3435C23.5163 36.2453 23.4905 36.1472 23.4664 36.0481C23.4543 35.9973 23.4414 35.9465 23.4302 35.8957C23.4182 35.8423 23.407 35.7898 23.3958 35.7364C23.3829 35.6762 23.3717 35.6168 23.3596 35.5565C23.3501 35.5074 23.3407 35.4592 23.3321 35.4101C23.3157 35.318 23.3011 35.2258 23.2873 35.1337L23.2692 35.0071C23.2589 34.9339 23.2503 34.8607 23.2416 34.7876C23.2373 34.7514 23.233 34.7152 23.2296 34.6791C23.2184 34.574 23.2089 34.4681 23.2012 34.3622L23.196 34.2787C23.19 34.1926 23.1857 34.1056 23.1822 34.0186C23.1805 33.9868 23.1796 33.954 23.1788 33.9222C23.1753 33.8103 23.1728 33.6992 23.1728 33.5864C23.1728 33.4684 23.1753 33.3504 23.1796 33.2333C23.1805 33.2015 23.1822 33.1705 23.1831 33.1386C23.1874 33.0336 23.1934 32.9285 23.2012 32.8235L23.2063 32.7589C23.2141 32.6582 23.2236 32.5583 23.2348 32.4584L23.2503 32.3241C23.2589 32.2509 23.2692 32.1786 23.2795 32.1062C23.2907 32.0261 23.3036 31.9461 23.3166 31.866C23.3252 31.8143 23.3338 31.7627 23.3432 31.711C23.3553 31.6438 23.3682 31.5767 23.382 31.5095L23.3975 31.4372C23.444 31.203 23.5008 30.9713 23.5654 30.7423ZM24.0614 29.3646C24.3274 28.7662 24.6512 28.191 25.0309 27.6451C26.1357 26.0573 27.6382 24.8208 29.3956 24.0485C29.4275 23.5973 29.4481 23.1426 29.4585 22.688H22.6888V29.3638H24.0614V29.3646ZM28.4769 14.6354H22.6888V21.3112H29.4593C29.4051 18.9355 29.0667 16.6623 28.4769 14.6354ZM28.0231 13.2577C27.7665 12.5645 27.4772 11.9093 27.1569 11.2971C25.9126 8.91883 24.3464 7.48 22.6888 7.16658V13.2577H28.0231ZM16.8423 11.2971C16.522 11.9084 16.2335 12.5645 15.976 13.2577H21.3112V7.16658C19.6536 7.48 18.0874 8.91883 16.8423 11.2971ZM15.5231 14.6354C14.9333 16.6623 14.5949 18.9355 14.5407 21.3112H21.3112V14.6354H15.5231ZM14.0938 14.6354H9.05315C7.91828 16.621 7.22857 18.8916 7.1175 21.3112H13.163C13.2146 18.9553 13.5341 16.6881 14.0938 14.6354ZM15.5231 29.3646H21.3112V22.6888H14.5407C14.5949 25.0645 14.9333 27.3377 15.5231 29.3646ZM15.9769 30.7423C16.2335 31.4355 16.5228 32.0907 16.8431 32.7029C18.0882 35.0812 19.6536 36.52 21.312 36.8334V30.7423H15.9769ZM26.3122 7.73832C27.0682 8.50638 27.7639 9.4854 28.3778 10.659C28.7972 11.4607 29.1666 12.3321 29.4843 13.2577H34.0565C32.1665 10.6582 29.4576 8.69065 26.3122 7.73832ZM9.94348 13.2577H14.5157C14.8326 12.3321 15.202 11.4607 15.6222 10.659C16.2361 9.4854 16.9318 8.50724 17.6887 7.73832C14.5424 8.69065 11.8335 10.6582 9.94348 13.2577ZM17.6878 36.2617C16.9318 35.4928 16.2361 34.5146 15.6213 33.341C15.202 32.5393 14.8326 31.6679 14.5148 30.7423H9.94262C11.8335 33.3418 14.5424 35.3094 17.6878 36.2617ZM42.6223 33.5855C42.6223 28.6026 38.5685 24.5487 33.5855 24.5487C28.9995 24.5487 25.2005 27.9835 24.6245 32.4153C24.6236 32.4257 24.6219 32.4351 24.6202 32.4455C24.6124 32.5066 24.6056 32.5678 24.5987 32.6297C24.5926 32.684 24.5883 32.7382 24.5832 32.7916C24.5789 32.8433 24.5746 32.895 24.5711 32.9458C24.5659 33.0267 24.5608 33.1068 24.5573 33.1886C24.5556 33.2187 24.5548 33.2488 24.5539 33.279C24.5505 33.3806 24.5479 33.4831 24.5479 33.5855C24.5479 33.7035 24.5513 33.8206 24.5556 33.9377L24.5582 34.0049C24.5634 34.1151 24.5703 34.2244 24.5797 34.3338L24.5875 34.4164C24.5969 34.5241 24.6081 34.6308 24.6219 34.7376L24.6323 34.8134C24.6443 34.9004 24.6572 34.9865 24.6719 35.0726C24.6779 35.107 24.6831 35.1414 24.6891 35.1759C24.7054 35.2697 24.7244 35.3627 24.7442 35.4549C24.7537 35.4996 24.7631 35.5444 24.7735 35.5883C24.7933 35.6744 24.8139 35.7605 24.8355 35.8467C24.8484 35.8975 24.863 35.9483 24.8768 35.9991C24.8914 36.0507 24.9061 36.1032 24.9216 36.1549C24.9474 36.2419 24.9741 36.328 25.0025 36.4132L25.0387 36.5217C26.2605 40.0676 29.6298 42.6214 33.5847 42.6214C38.5685 42.6223 42.6223 38.5685 42.6223 33.5855ZM41.366 33.5855C41.366 37.8753 37.8762 41.366 33.5855 41.366C29.2949 41.366 25.805 37.8762 25.805 33.5855C25.805 29.2957 29.2949 25.805 33.5855 25.805C37.8762 25.805 41.366 29.2957 41.366 33.5855ZM39.9883 33.5855C39.9883 30.0552 37.1158 27.1827 33.5855 27.1827C30.0552 27.1827 27.1827 30.0552 27.1827 33.5855C27.1827 37.1158 30.0552 39.9883 33.5855 39.9883C37.1158 39.9883 39.9883 37.1158 39.9883 33.5855ZM33.7551 32.8967H33.415C32.9569 32.8967 32.5841 32.5238 32.5841 32.0658C32.5841 31.6077 32.9569 31.2348 33.415 31.2348H33.8938C34.1581 31.2348 34.4104 31.3649 34.568 31.5827C34.791 31.891 35.2215 31.9598 35.5298 31.7368C35.838 31.5138 35.9069 31.0833 35.6839 30.775C35.3463 30.3088 34.841 29.9918 34.2744 29.8907V29.5506C34.2744 29.17 33.9661 28.8618 33.5855 28.8618C33.2049 28.8618 32.8967 29.17 32.8967 29.5506V29.9191C31.9288 30.1533 31.2073 31.0273 31.2073 32.0658C31.2073 33.2833 32.1984 34.2744 33.4159 34.2744H33.756C34.2141 34.2744 34.5869 34.6472 34.5869 35.1053C34.5869 35.5634 34.2141 35.9362 33.756 35.9362H33.2773C33.0129 35.9362 32.7606 35.8062 32.6031 35.5883C32.38 35.2801 31.9495 35.2112 31.6413 35.4342C31.333 35.6572 31.2641 36.0877 31.4871 36.396C31.8272 36.8661 32.337 37.1813 32.8967 37.2803V37.6204C32.8967 38.001 33.2049 38.3093 33.5855 38.3093C33.9661 38.3093 34.2744 38.001 34.2744 37.6204V37.2519C35.2422 37.0177 35.9638 36.1437 35.9638 35.1053C35.9638 33.8878 34.9735 32.8967 33.7551 32.8967Z" fill="#2166F3"/>
</svg>
