<svg width="51" height="51" viewBox="0 0 51 51" fill="none" xmlns="http://www.w3.org/2000/svg">
<path d="M3.7474 24.8092H22.0807C22.9648 24.8092 23.8126 24.4581 24.4378 23.8329C25.0629 23.2078 25.4141 22.36 25.4141 21.4759V3.97591C25.4141 3.09186 25.0629 2.24401 24.4378 1.61889C23.8126 0.993768 22.9648 0.642578 22.0807 0.642578L3.7474 0.642578C2.86334 0.642578 2.01549 0.993768 1.39037 1.61889C0.765252 2.24401 0.414063 3.09186 0.414062 3.97591L0.414063 21.4759C0.414063 22.36 0.765252 23.2078 1.39037 23.8329C2.01549 24.4581 2.86334 24.8092 3.7474 24.8092ZM22.0807 23.1426H3.7474C3.30537 23.1426 2.88145 22.967 2.56888 22.6544C2.25632 22.3419 2.08073 21.9179 2.08073 21.4759V8.97591H23.7474V21.4759C23.7474 21.9179 23.5718 22.3419 23.2592 22.6544C22.9467 22.967 22.5228 23.1426 22.0807 23.1426ZM3.7474 2.30924H22.0807C22.5228 2.30924 22.9467 2.48484 23.2592 2.7974C23.5718 3.10996 23.7474 3.53388 23.7474 3.97591V7.30924H2.08073V3.97591C2.08073 3.53388 2.25632 3.10996 2.56888 2.7974C2.88145 2.48484 3.30537 2.30924 3.7474 2.30924ZM47.0807 26.4759H28.7474C27.8633 26.4759 27.0155 26.8271 26.3904 27.4522C25.7653 28.0773 25.4141 28.9252 25.4141 29.8092V47.3092C25.4141 48.1933 25.7653 49.0411 26.3904 49.6663C27.0155 50.2914 27.8633 50.6426 28.7474 50.6426H47.0807C47.9648 50.6426 48.8126 50.2914 49.4377 49.6663C50.0629 49.0411 50.4141 48.1933 50.4141 47.3092V29.8092C50.4141 28.9252 50.0629 28.0773 49.4377 27.4522C48.8126 26.8271 47.9648 26.4759 47.0807 26.4759ZM28.7474 28.1426H47.0807C47.5228 28.1426 47.9467 28.3182 48.2592 28.6307C48.5718 28.9433 48.7474 29.3672 48.7474 29.8092V33.1426H27.0807V29.8092C27.0807 29.3672 27.2563 28.9433 27.5689 28.6307C27.8814 28.3182 28.3054 28.1426 28.7474 28.1426ZM47.0807 48.9759H28.7474C28.3054 48.9759 27.8814 48.8003 27.5689 48.4878C27.2563 48.1752 27.0807 47.7513 27.0807 47.3092V34.8092H48.7474V47.3092C48.7474 47.7513 48.5718 48.1752 48.2592 48.4878C47.9467 48.8003 47.5228 48.9759 47.0807 48.9759Z" fill="#2166F3"/>
<path d="M4.57943 5.64225H5.41276C5.63377 5.64225 5.84574 5.55446 6.00202 5.39817C6.1583 5.24189 6.24609 5.02993 6.24609 4.80892C6.24609 4.58791 6.1583 4.37594 6.00202 4.21966C5.84574 4.06338 5.63377 3.97559 5.41276 3.97559H4.57943C4.35841 3.97559 4.14645 4.06338 3.99017 4.21966C3.83389 4.37594 3.74609 4.58791 3.74609 4.80892C3.74609 5.02993 3.83389 5.24189 3.99017 5.39817C4.14645 5.55446 4.35841 5.64225 4.57943 5.64225ZM8.74609 5.64225H9.57943C9.80044 5.64225 10.0124 5.55446 10.1687 5.39817C10.325 5.24189 10.4128 5.02993 10.4128 4.80892C10.4128 4.58791 10.325 4.37594 10.1687 4.21966C10.0124 4.06338 9.80044 3.97559 9.57943 3.97559H8.74609C8.52508 3.97559 8.31312 4.06338 8.15684 4.21966C8.00056 4.37594 7.91276 4.58791 7.91276 4.80892C7.91276 5.02993 8.00056 5.24189 8.15684 5.39817C8.31312 5.55446 8.52508 5.64225 8.74609 5.64225ZM16.2461 5.64225H21.2461C21.4671 5.64225 21.6791 5.55446 21.8354 5.39817C21.9916 5.24189 22.0794 5.02993 22.0794 4.80892C22.0794 4.58791 21.9916 4.37594 21.8354 4.21966C21.6791 4.06338 21.4671 3.97559 21.2461 3.97559H16.2461C16.0251 3.97559 15.8131 4.06338 15.6568 4.21966C15.5006 4.37594 15.4128 4.58791 15.4128 4.80892C15.4128 5.02993 15.5006 5.24189 15.6568 5.39817C15.8131 5.55446 16.0251 5.64225 16.2461 5.64225ZM5.41276 11.4756H4.57943C4.35841 11.4756 4.14645 11.5634 3.99017 11.7197C3.83389 11.8759 3.74609 12.0879 3.74609 12.3089C3.74609 12.5299 3.83389 12.7419 3.99017 12.8982C4.14645 13.0545 4.35841 13.1423 4.57943 13.1423H5.41276C5.63377 13.1423 5.84574 13.0545 6.00202 12.8982C6.1583 12.7419 6.24609 12.5299 6.24609 12.3089C6.24609 12.0879 6.1583 11.8759 6.00202 11.7197C5.84574 11.5634 5.63377 11.4756 5.41276 11.4756ZM5.41276 14.8089H4.57943C4.35841 14.8089 4.14645 14.8967 3.99017 15.053C3.83389 15.2093 3.74609 15.4212 3.74609 15.6423C3.74609 15.8633 3.83389 16.0752 3.99017 16.2315C4.14645 16.3878 4.35841 16.4756 4.57943 16.4756H5.41276C5.63377 16.4756 5.84574 16.3878 6.00202 16.2315C6.1583 16.0752 6.24609 15.8633 6.24609 15.6423C6.24609 15.4212 6.1583 15.2093 6.00202 15.053C5.84574 14.8967 5.63377 14.8089 5.41276 14.8089ZM5.41276 18.1423H4.57943C4.35841 18.1423 4.14645 18.2301 3.99017 18.3863C3.83389 18.5426 3.74609 18.7546 3.74609 18.9756C3.74609 19.1966 3.83389 19.4086 3.99017 19.5648C4.14645 19.7211 4.35841 19.8089 4.57943 19.8089H5.41276C5.63377 19.8089 5.84574 19.7211 6.00202 19.5648C6.1583 19.4086 6.24609 19.1966 6.24609 18.9756C6.24609 18.7546 6.1583 18.5426 6.00202 18.3863C5.84574 18.2301 5.63377 18.1423 5.41276 18.1423ZM17.0794 11.4756H16.2461C16.0251 11.4756 15.8131 11.5634 15.6568 11.7197C15.5006 11.8759 15.4128 12.0879 15.4128 12.3089C15.4128 12.5299 15.5006 12.7419 15.6568 12.8982C15.8131 13.0545 16.0251 13.1423 16.2461 13.1423H17.0794C17.3004 13.1423 17.5124 13.0545 17.6687 12.8982C17.825 12.7419 17.9128 12.5299 17.9128 12.3089C17.9128 12.0879 17.825 11.8759 17.6687 11.7197C17.5124 11.5634 17.3004 11.4756 17.0794 11.4756ZM8.74609 13.1423H12.9128C13.1338 13.1423 13.3457 13.0545 13.502 12.8982C13.6583 12.7419 13.7461 12.5299 13.7461 12.3089C13.7461 12.0879 13.6583 11.8759 13.502 11.7197C13.3457 11.5634 13.1338 11.4756 12.9128 11.4756H8.74609C8.52508 11.4756 8.31312 11.5634 8.15684 11.7197C8.00056 11.8759 7.91276 12.0879 7.91276 12.3089C7.91276 12.5299 8.00056 12.7419 8.15684 12.8982C8.31312 13.0545 8.52508 13.1423 8.74609 13.1423ZM21.2461 18.1423H20.4128C20.1917 18.1423 19.9798 18.2301 19.8235 18.3863C19.6672 18.5426 19.5794 18.7546 19.5794 18.9756C19.5794 19.1966 19.6672 19.4086 19.8235 19.5648C19.9798 19.7211 20.1917 19.8089 20.4128 19.8089H21.2461C21.4671 19.8089 21.6791 19.7211 21.8354 19.5648C21.9916 19.4086 22.0794 19.1966 22.0794 18.9756C22.0794 18.7546 21.9916 18.5426 21.8354 18.3863C21.6791 18.2301 21.4671 18.1423 21.2461 18.1423ZM17.0794 18.1423H8.74609C8.52508 18.1423 8.31312 18.2301 8.15684 18.3863C8.00056 18.5426 7.91276 18.7546 7.91276 18.9756C7.91276 19.1966 8.00056 19.4086 8.15684 19.5648C8.31312 19.7211 8.52508 19.8089 8.74609 19.8089H17.0794C17.3004 19.8089 17.5124 19.7211 17.6687 19.5648C17.825 19.4086 17.9128 19.1966 17.9128 18.9756C17.9128 18.7546 17.825 18.5426 17.6687 18.3863C17.5124 18.2301 17.3004 18.1423 17.0794 18.1423ZM8.74609 16.4756H15.4128C15.6338 16.4756 15.8457 16.3878 16.002 16.2315C16.1583 16.0752 16.2461 15.8633 16.2461 15.6423C16.2461 15.4212 16.1583 15.2093 16.002 15.053C15.8457 14.8967 15.6338 14.8089 15.4128 14.8089H8.74609C8.52508 14.8089 8.31312 14.8967 8.15684 15.053C8.00056 15.2093 7.91276 15.4212 7.91276 15.6423C7.91276 15.8633 8.00056 16.0752 8.15684 16.2315C8.31312 16.3878 8.52508 16.4756 8.74609 16.4756ZM29.5794 31.4756H30.4128C30.6338 31.4756 30.8457 31.3878 31.002 31.2315C31.1583 31.0752 31.2461 30.8633 31.2461 30.6423C31.2461 30.4212 31.1583 30.2093 31.002 30.053C30.8457 29.8967 30.6338 29.8089 30.4128 29.8089H29.5794C29.3584 29.8089 29.1465 29.8967 28.9902 30.053C28.8339 30.2093 28.7461 30.4212 28.7461 30.6423C28.7461 30.8633 28.8339 31.0752 28.9902 31.2315C29.1465 31.3878 29.3584 31.4756 29.5794 31.4756ZM33.7461 31.4756H34.5794C34.8004 31.4756 35.0124 31.3878 35.1687 31.2315C35.325 31.0752 35.4128 30.8633 35.4128 30.6423C35.4128 30.4212 35.325 30.2093 35.1687 30.053C35.0124 29.8967 34.8004 29.8089 34.5794 29.8089H33.7461C33.5251 29.8089 33.3131 29.8967 33.1568 30.053C33.0006 30.2093 32.9128 30.4212 32.9128 30.6423C32.9128 30.8633 33.0006 31.0752 33.1568 31.2315C33.3131 31.3878 33.5251 31.4756 33.7461 31.4756ZM41.2461 31.4756H46.2461C46.4671 31.4756 46.6791 31.3878 46.8354 31.2315C46.9916 31.0752 47.0794 30.8633 47.0794 30.6423C47.0794 30.4212 46.9916 30.2093 46.8354 30.053C46.6791 29.8967 46.4671 29.8089 46.2461 29.8089H41.2461C41.0251 29.8089 40.8131 29.8967 40.6568 30.053C40.5006 30.2093 40.4128 30.4212 40.4128 30.6423C40.4128 30.8633 40.5006 31.0752 40.6568 31.2315C40.8131 31.3878 41.0251 31.4756 41.2461 31.4756ZM30.4128 37.3089H29.5794C29.3584 37.3089 29.1465 37.3967 28.9902 37.553C28.8339 37.7093 28.7461 37.9212 28.7461 38.1423C28.7461 38.3633 28.8339 38.5752 28.9902 38.7315C29.1465 38.8878 29.3584 38.9756 29.5794 38.9756H30.4128C30.6338 38.9756 30.8457 38.8878 31.002 38.7315C31.1583 38.5752 31.2461 38.3633 31.2461 38.1423C31.2461 37.9212 31.1583 37.7093 31.002 37.553C30.8457 37.3967 30.6338 37.3089 30.4128 37.3089ZM30.4128 40.6423H29.5794C29.3584 40.6423 29.1465 40.7301 28.9902 40.8863C28.8339 41.0426 28.7461 41.2546 28.7461 41.4756C28.7461 41.6966 28.8339 41.9086 28.9902 42.0648C29.1465 42.2211 29.3584 42.3089 29.5794 42.3089H30.4128C30.6338 42.3089 30.8457 42.2211 31.002 42.0648C31.1583 41.9086 31.2461 41.6966 31.2461 41.4756C31.2461 41.2546 31.1583 41.0426 31.002 40.8863C30.8457 40.7301 30.6338 40.6423 30.4128 40.6423ZM30.4128 43.9756H29.5794C29.3584 43.9756 29.1465 44.0634 28.9902 44.2197C28.8339 44.3759 28.7461 44.5879 28.7461 44.8089C28.7461 45.0299 28.8339 45.2419 28.9902 45.3982C29.1465 45.5545 29.3584 45.6423 29.5794 45.6423H30.4128C30.6338 45.6423 30.8457 45.5545 31.002 45.3982C31.1583 45.2419 31.2461 45.0299 31.2461 44.8089C31.2461 44.5879 31.1583 44.3759 31.002 44.2197C30.8457 44.0634 30.6338 43.9756 30.4128 43.9756ZM42.0794 37.3089H41.2461C41.0251 37.3089 40.8131 37.3967 40.6568 37.553C40.5006 37.7093 40.4128 37.9212 40.4128 38.1423C40.4128 38.3633 40.5006 38.5752 40.6568 38.7315C40.8131 38.8878 41.0251 38.9756 41.2461 38.9756H42.0794C42.3004 38.9756 42.5124 38.8878 42.6687 38.7315C42.825 38.5752 42.9128 38.3633 42.9128 38.1423C42.9128 37.9212 42.825 37.7093 42.6687 37.553C42.5124 37.3967 42.3004 37.3089 42.0794 37.3089ZM33.7461 38.9756H37.9128C38.1338 38.9756 38.3457 38.8878 38.502 38.7315C38.6583 38.5752 38.7461 38.3633 38.7461 38.1423C38.7461 37.9212 38.6583 37.7093 38.502 37.553C38.3457 37.3967 38.1338 37.3089 37.9128 37.3089H33.7461C33.5251 37.3089 33.3131 37.3967 33.1568 37.553C33.0006 37.7093 32.9128 37.9212 32.9128 38.1423C32.9128 38.3633 33.0006 38.5752 33.1568 38.7315C33.3131 38.8878 33.5251 38.9756 33.7461 38.9756ZM46.2461 43.9756H45.4128C45.1917 43.9756 44.9798 44.0634 44.8235 44.2197C44.6672 44.3759 44.5794 44.5879 44.5794 44.8089C44.5794 45.0299 44.6672 45.2419 44.8235 45.3982C44.9798 45.5545 45.1917 45.6423 45.4128 45.6423H46.2461C46.4671 45.6423 46.6791 45.5545 46.8354 45.3982C46.9916 45.2419 47.0794 45.0299 47.0794 44.8089C47.0794 44.5879 46.9916 44.3759 46.8354 44.2197C46.6791 44.0634 46.4671 43.9756 46.2461 43.9756ZM42.0794 43.9756H33.7461C33.5251 43.9756 33.3131 44.0634 33.1568 44.2197C33.0006 44.3759 32.9128 44.5879 32.9128 44.8089C32.9128 45.0299 33.0006 45.2419 33.1568 45.3982C33.3131 45.5545 33.5251 45.6423 33.7461 45.6423H42.0794C42.3004 45.6423 42.5124 45.5545 42.6687 45.3982C42.825 45.2419 42.9128 45.0299 42.9128 44.8089C42.9128 44.5879 42.825 44.3759 42.6687 44.2197C42.5124 44.0634 42.3004 43.9756 42.0794 43.9756ZM33.7461 42.3089H40.4128C40.6338 42.3089 40.8457 42.2211 41.002 42.0648C41.1583 41.9086 41.2461 41.6966 41.2461 41.4756C41.2461 41.2546 41.1583 41.0426 41.002 40.8863C40.8457 40.7301 40.6338 40.6423 40.4128 40.6423H33.7461C33.5251 40.6423 33.3131 40.7301 33.1568 40.8863C33.0006 41.0426 32.9128 41.2546 32.9128 41.4756C32.9128 41.6966 33.0006 41.9086 33.1568 42.0648C33.3131 42.2211 33.5251 42.3089 33.7461 42.3089ZM40.6169 21.1364C40.548 21.2215 40.4966 21.3194 40.4656 21.4244C40.4345 21.5294 40.4245 21.6395 40.436 21.7484C40.4476 21.8573 40.4804 21.9628 40.5328 22.059C40.5851 22.1552 40.6559 22.2401 40.7411 22.3089L42.5744 23.7906C42.7463 23.9294 42.9663 23.9944 43.186 23.9711C43.4057 23.9478 43.6072 23.8382 43.7461 23.6664L45.2278 21.8331C45.2999 21.7484 45.3543 21.6502 45.3879 21.5442C45.4214 21.4382 45.4335 21.3266 45.4232 21.2158C45.413 21.1051 45.3806 20.9976 45.3282 20.8995C45.2757 20.8015 45.2042 20.7149 45.1178 20.645C45.0313 20.575 44.9318 20.523 44.825 20.4921C44.7181 20.4612 44.6062 20.452 44.4958 20.4651C44.3854 20.4781 44.2787 20.5131 44.182 20.568C44.0853 20.6229 44.0005 20.6966 43.9328 20.7848L43.7103 21.0598C42.1219 13.4181 36.3936 8.06892 28.8303 7.30975C28.7214 7.29881 28.6114 7.30942 28.5066 7.34098C28.4018 7.37254 28.3043 7.42443 28.2195 7.49368C28.1348 7.56294 28.0645 7.64821 28.0128 7.74462C27.961 7.84103 27.9287 7.9467 27.9178 8.05559C27.9068 8.16447 27.9174 8.27445 27.949 8.37924C27.9805 8.48402 28.0324 8.58157 28.1017 8.6663C28.171 8.75104 28.2562 8.8213 28.3526 8.87308C28.449 8.92486 28.5547 8.95714 28.6636 8.96809C36.7528 9.77725 40.8119 15.6164 42.0469 21.2181L41.7894 21.0098C41.7042 20.941 41.6062 20.8898 41.5011 20.8589C41.396 20.8281 41.2858 20.8183 41.1769 20.83C41.068 20.8418 40.9625 20.8749 40.8664 20.9275C40.7703 20.98 40.6856 21.0511 40.6169 21.1364ZM10.2086 30.1481C10.2775 30.063 10.3289 29.9651 10.36 29.8601C10.391 29.7551 10.401 29.645 10.3895 29.5361C10.378 29.4272 10.3451 29.3217 10.2927 29.2255C10.2404 29.1293 10.1696 29.0444 10.0844 28.9756L8.25109 27.4939C8.07924 27.3551 7.85927 27.2901 7.63955 27.3134C7.41984 27.3367 7.21837 27.4463 7.07943 27.6181L5.59776 29.4514C5.52565 29.5361 5.47121 29.6343 5.43764 29.7403C5.40408 29.8463 5.39206 29.958 5.40232 30.0687C5.41257 30.1794 5.44487 30.2869 5.49733 30.385C5.54979 30.483 5.62134 30.5696 5.70777 30.6395C5.79419 30.7095 5.89375 30.7615 6.00057 30.7924C6.10738 30.8233 6.2193 30.8325 6.32973 30.8194C6.44016 30.8064 6.54687 30.7714 6.64356 30.7165C6.74026 30.6616 6.82499 30.5879 6.89276 30.4998L7.11526 30.2248C8.70443 37.8656 14.4328 43.2148 21.9961 43.9756C22.0253 43.9756 22.0528 43.9798 22.0794 43.9798C22.2932 43.9798 22.4989 43.8976 22.6538 43.7503C22.8087 43.6029 22.9011 43.4017 22.9118 43.1881C22.9225 42.9746 22.8507 42.7651 22.7113 42.603C22.5719 42.4409 22.3755 42.3386 22.1628 42.3173C14.0736 41.5081 10.0144 35.6689 8.77943 30.0673L9.03693 30.2756C9.12223 30.3442 9.2202 30.3952 9.32525 30.4259C9.4303 30.4566 9.54037 30.4664 9.64917 30.4545C9.75797 30.4427 9.86337 30.4095 9.95936 30.3569C10.0553 30.3044 10.14 30.2334 10.2086 30.1481Z" fill="#2166F3"/>
</svg>
