<svg width="50" height="36" viewBox="0 0 50 36" fill="none" xmlns="http://www.w3.org/2000/svg">
<path d="M48.4375 28.9375H44.5312V2.76562C44.5304 2.04067 44.2421 1.34564 43.7295 0.833015C43.2169 0.320394 42.5218 0.0320513 41.7969 0.03125H8.20312C7.47817 0.0320513 6.78314 0.320394 6.27052 0.833015C5.75789 1.34564 5.46955 2.04067 5.46875 2.76562V28.9375H1.5625C1.3553 28.9375 1.15659 29.0198 1.01007 29.1663C0.86356 29.3128 0.78125 29.5115 0.78125 29.7188V33.2344C0.782051 33.9593 1.07039 34.6544 1.58301 35.167C2.09564 35.6796 2.79067 35.9679 3.51562 35.9688H46.4844C47.2093 35.9679 47.9044 35.6796 48.417 35.167C48.9296 34.6544 49.2179 33.9593 49.2188 33.2344V29.7188C49.2188 29.5115 49.1364 29.3128 48.9899 29.1663C48.8434 29.0198 48.6447 28.9375 48.4375 28.9375ZM7.03125 2.76562C7.03151 2.4549 7.15506 2.15698 7.37477 1.93727C7.59448 1.71756 7.8924 1.59401 8.20312 1.59375H41.7969C42.1076 1.59401 42.4055 1.71756 42.6252 1.93727C42.8449 2.15698 42.9685 2.4549 42.9688 2.76562V28.9375H7.03125V2.76562ZM28.5605 30.5L28.2676 31.2812H21.6572L21.3965 30.5H28.5605ZM47.6562 33.2344C47.656 33.5451 47.5324 33.843 47.3127 34.0627C47.093 34.2824 46.7951 34.406 46.4844 34.4062H3.51562C3.2049 34.406 2.90698 34.2824 2.68727 34.0627C2.46756 33.843 2.34401 33.5451 2.34375 33.2344V30.5H19.749L20.3525 32.3096C20.4044 32.4651 20.5039 32.6004 20.6369 32.6963C20.7699 32.7922 20.9298 32.8438 21.0938 32.8438H28.8086C28.9676 32.8437 29.1228 32.7951 29.2535 32.7046C29.3842 32.614 29.4841 32.4858 29.54 32.3369L30.2285 30.5H47.6562V33.2344Z" fill="#2166F3"/>
<path d="M42.1875 27.375V3.15625C42.1875 2.94905 42.1052 2.75034 41.9587 2.60382C41.8122 2.45731 41.6135 2.375 41.4062 2.375H8.59375C8.38655 2.375 8.18784 2.45731 8.04132 2.60382C7.89481 2.75034 7.8125 2.94905 7.8125 3.15625V27.375C7.8125 27.5822 7.89481 27.7809 8.04132 27.9274C8.18784 28.0739 8.38655 28.1562 8.59375 28.1562H41.4062C41.6135 28.1562 41.8122 28.0739 41.9587 27.9274C42.1052 27.7809 42.1875 27.5822 42.1875 27.375ZM40.625 26.5938H9.375V3.9375H40.625V26.5938Z" fill="#2166F3"/>
<path d="M22.1938 19.4111C22.3609 19.5337 22.5697 19.585 22.7745 19.5536C22.9793 19.5222 23.1633 19.4108 23.2859 19.2438L27.8758 12.9938C27.9365 12.9111 27.9803 12.8172 28.0048 12.7175C28.0292 12.6179 28.0338 12.5144 28.0183 12.413C28.0027 12.3115 27.9673 12.2142 27.9141 12.1264C27.861 12.0387 27.791 11.9622 27.7083 11.9015C27.6256 11.8408 27.5317 11.7969 27.4321 11.7725C27.3324 11.7481 27.2289 11.7435 27.1275 11.759C27.026 11.7746 26.9287 11.81 26.8409 11.8631C26.7532 11.9163 26.6767 11.9863 26.616 12.069L22.0262 18.319C21.9655 18.4017 21.9217 18.4956 21.8972 18.5952C21.8728 18.6949 21.8683 18.7984 21.8838 18.8998C21.8994 19.0012 21.9348 19.0985 21.988 19.1863C22.0412 19.274 22.1111 19.3504 22.1938 19.4111ZM29.2188 19.4064C29.3845 19.5307 29.5929 19.5841 29.798 19.5548C30.0031 19.5255 30.1882 19.4159 30.3125 19.2501L32.6562 16.1251C32.7577 15.9899 32.8125 15.8254 32.8125 15.6564C32.8125 15.4873 32.7577 15.3229 32.6562 15.1876L30.3125 12.0626C30.2509 11.9806 30.1738 11.9114 30.0855 11.8591C29.9973 11.8069 29.8996 11.7725 29.798 11.758C29.6964 11.7435 29.593 11.7491 29.4936 11.7746C29.3942 11.8 29.3008 11.8448 29.2188 11.9064C29.1367 11.9679 29.0675 12.0451 29.0153 12.1333C28.963 12.2216 28.9286 12.3193 28.9141 12.4209C28.8996 12.5225 28.9052 12.6259 28.9307 12.7253C28.9562 12.8247 29.0009 12.9181 29.0625 13.0001L31.0547 15.6564L29.0625 18.3126C28.9382 18.4784 28.8848 18.6868 28.9141 18.8919C28.9434 19.097 29.053 19.2821 29.2188 19.4064ZM19.6875 19.2501C19.8118 19.4159 19.9969 19.5255 20.202 19.5548C20.4071 19.5841 20.6155 19.5307 20.7813 19.4064C20.947 19.2821 21.0566 19.097 21.0859 18.8919C21.1152 18.6868 21.0618 18.4784 20.9375 18.3126L18.9453 15.6564L20.9375 13.0001C20.9991 12.9181 21.0438 12.8247 21.0693 12.7253C21.0948 12.6259 21.1004 12.5225 21.0859 12.4209C21.0714 12.3193 21.037 12.2216 20.9847 12.1333C20.9325 12.0451 20.8633 11.9679 20.7813 11.9064C20.6992 11.8448 20.6058 11.8 20.5064 11.7746C20.407 11.7491 20.3036 11.7435 20.202 11.758C20.1004 11.7725 20.0027 11.8069 19.9145 11.8591C19.8262 11.9114 19.7491 11.9806 19.6875 12.0626L17.3438 15.1876C17.2423 15.3229 17.1875 15.4873 17.1875 15.6564C17.1875 15.8254 17.2423 15.9899 17.3438 16.1251L19.6875 19.2501Z" fill="#2166F3"/>
<path d="M16.0156 22.6875H33.9844C34.7093 22.6867 35.4043 22.3983 35.917 21.8857C36.4296 21.3731 36.7179 20.6781 36.7188 19.9531V11.3594C36.7179 10.6344 36.4296 9.93941 35.917 9.42679C35.4043 8.91418 34.7093 8.62583 33.9844 8.625H16.0156C15.2907 8.62583 14.5957 8.91418 14.083 9.42679C13.5704 9.93941 13.2821 10.6344 13.2812 11.3594V19.9531C13.2821 20.6781 13.5704 21.3731 14.083 21.8857C14.5957 22.3983 15.2907 22.6867 16.0156 22.6875ZM14.8438 11.3594C14.8441 11.0487 14.9677 10.7508 15.1874 10.5311C15.4071 10.3114 15.7049 10.1878 16.0156 10.1875H33.9844C34.2951 10.1878 34.5929 10.3114 34.8126 10.5311C35.0323 10.7508 35.1559 11.0487 35.1562 11.3594V19.9531C35.1559 20.2638 35.0323 20.5617 34.8126 20.7814C34.5929 21.0011 34.2951 21.1247 33.9844 21.125H16.0156C15.7049 21.1247 15.4071 21.0011 15.1874 20.7814C14.9677 20.5617 14.8441 20.2638 14.8438 19.9531V11.3594Z" fill="#2166F3"/>
</svg>
