<svg width="50" height="50" viewBox="0 0 50 50" fill="none" xmlns="http://www.w3.org/2000/svg">
<g clip-path="url(#clip0_166_598)">
<path d="M24.7737 48.709H24.225C23.7133 48.7093 23.2057 48.6174 22.7266 48.4379C17.4378 46.4592 13.1881 43.2524 10.0955 38.9067C7.66689 35.494 5.98247 31.4144 5.08907 26.7813C3.61548 19.1393 4.80875 12.515 4.86027 12.2367C5.12411 10.8121 6.07974 9.62812 7.4166 9.06961L22.8509 2.62152C23.3758 2.4022 23.9304 2.29102 24.4993 2.29102C25.0682 2.29102 25.6229 2.4022 26.1478 2.62149L41.5821 9.06958C42.9189 9.62814 43.8746 10.8121 44.1384 12.2367C44.1899 12.515 45.383 19.1401 43.9096 26.7813C43.0161 31.4144 41.3317 35.4939 38.9032 38.9066C35.8106 43.2524 31.5609 46.4592 26.2721 48.4378C25.793 48.6174 25.2854 48.7093 24.7737 48.709ZM24.4993 3.88477C24.1443 3.8844 23.7927 3.95488 23.4653 4.09208L8.03096 10.5402C7.19235 10.8905 6.59288 11.6332 6.42738 12.5269C6.37809 12.793 5.23677 19.1299 6.65399 26.4795C7.50388 30.8869 9.09865 34.7571 11.394 37.9826C14.2988 42.0645 18.2995 45.0799 23.285 46.9452C23.5855 47.0578 23.9039 47.1154 24.2249 47.1152H24.7737C25.0957 47.1152 25.412 47.058 25.7137 46.9451C30.6991 45.08 34.6998 42.0645 37.6047 37.9826C39.9 34.7571 41.4948 30.887 42.3447 26.4795C43.7617 19.1307 42.6205 12.793 42.5713 12.5268C42.4058 11.6332 41.8063 10.8905 40.9677 10.5401L25.5334 4.09205C25.2059 3.95487 24.8544 3.8844 24.4993 3.88477Z" fill="#2166F3"/>
<path d="M24.774 45.2297H24.2252C24.1299 45.2297 24.0353 45.2125 23.946 45.1792C19.3194 43.4482 15.6133 40.6592 12.9306 36.8894C10.7929 33.8855 9.3042 30.263 8.5058 26.1226C7.79995 22.4621 7.77544 19.0623 7.87916 16.8549C7.99189 14.4562 8.26998 12.934 8.28176 12.8704C8.30586 12.7402 8.36204 12.618 8.44521 12.515C8.52838 12.4119 8.63592 12.3312 8.75811 12.2802L24.1924 5.8321C24.2897 5.79144 24.3941 5.77051 24.4996 5.77051C24.605 5.77051 24.7094 5.79144 24.8068 5.8321L40.241 12.2802C40.3632 12.3312 40.4708 12.4119 40.5539 12.515C40.6371 12.618 40.6933 12.7402 40.7174 12.8704C40.7292 12.934 41.0072 14.4562 41.12 16.8549C41.2237 19.0623 41.1992 22.4621 40.4934 26.1226C39.695 30.263 38.2063 33.8855 36.0686 36.8894C33.3859 40.6592 29.6798 43.4482 25.0532 45.1792C24.9639 45.2126 24.8693 45.2297 24.774 45.2297ZM24.3705 43.6359H24.6287C32.4087 40.6779 37.2192 34.6849 38.9285 25.8208C40.0245 20.1369 39.431 15.0419 39.2169 13.5796L24.4996 7.43101L9.782 13.5797C9.69397 14.1782 9.54191 15.3841 9.46895 16.9779C9.37181 19.0996 9.39892 22.3641 10.0798 25.8675C11.7975 34.7062 16.6048 40.6834 24.3705 43.6359Z" fill="#2166F3"/>
<path d="M28.3404 35.3643H20.659C18.5962 35.3643 16.918 33.686 16.918 31.623V25.381C16.918 23.318 18.5962 21.6396 20.659 21.6396H28.3404C30.4033 21.6396 32.0815 23.318 32.0815 25.381V31.623C32.0815 33.686 30.4033 35.3643 28.3404 35.3643ZM20.659 23.2334C19.475 23.2334 18.5117 24.1968 18.5117 25.381V31.623C18.5117 32.8072 19.475 33.7706 20.659 33.7706H28.3404C29.5245 33.7706 30.4877 32.8072 30.4877 31.623V25.381C30.4877 24.1968 29.5244 23.2334 28.3404 23.2334H20.659ZM24.4997 29.4543C23.2823 29.4543 22.2919 28.4638 22.2919 27.2464C22.2919 26.0289 23.2823 25.0383 24.4997 25.0383C25.7172 25.0383 26.7076 26.0289 26.7076 27.2464C26.7076 28.4638 25.7172 29.4543 24.4997 29.4543ZM24.4997 26.6321C24.1611 26.6321 23.8856 26.9076 23.8856 27.2464C23.8856 27.585 24.1611 27.8605 24.4997 27.8605C24.8383 27.8605 25.1138 27.585 25.1138 27.2464C25.1138 26.9076 24.8384 26.6321 24.4997 26.6321Z" fill="#2166F3"/>
<path d="M29.4619 23.2333C29.0218 23.2333 28.6651 22.8765 28.6651 22.4364V19.9956C28.6651 17.6987 26.7964 15.8301 24.4995 15.8301C22.2026 15.8301 20.334 17.6987 20.334 19.9956V22.4364C20.334 22.8765 19.9772 23.2333 19.5371 23.2333C19.097 23.2333 18.7402 22.8765 18.7402 22.4364V19.9956C18.7402 18.4572 19.3393 17.011 20.4271 15.9232C21.5149 14.8354 22.9612 14.2363 24.4995 14.2363C26.0379 14.2363 27.4842 14.8354 28.572 15.9232C29.6598 17.011 30.2588 18.4572 30.2588 19.9956V22.4364C30.2588 22.8765 29.902 23.2333 29.4619 23.2333ZM24.4995 31.8324C24.0594 31.8324 23.7026 31.4757 23.7026 31.0356V28.6572C23.7026 28.2171 24.0594 27.8603 24.4995 27.8603C24.9396 27.8603 25.2964 28.2171 25.2964 28.6572V31.0356C25.2964 31.4757 24.9396 31.8324 24.4995 31.8324Z" fill="#2166F3"/>
</g>
<defs>
<clipPath id="clip0_166_598">
<rect width="50" height="50" fill="white"/>
</clipPath>
</defs>
</svg>
