<svg width="62" height="55" viewBox="0 0 62 55" fill="none" xmlns="http://www.w3.org/2000/svg">
<path d="M51.1915 35.1757C50.7711 34.4737 49.0487 32.3877 44.5361 35.0157L36.6992 39.5804C36.3761 39.7685 36.0485 39.9103 35.7098 40.0068C35.8233 39.7902 35.9121 39.5616 35.9746 39.3252C36.387 37.7857 35.4734 36.1791 33.8948 35.6673C33.8613 35.6564 33.8271 35.6478 33.7925 35.6416C31.5473 35.2366 29.328 34.4343 27.5448 33.7896C26.9235 33.565 26.3367 33.3529 25.837 33.1909C23.7986 32.5296 21.9636 33.3436 20.4376 34.2271L14.6821 37.5595L14.175 36.6636C13.921 36.2148 13.5064 35.8915 13.0074 35.7532C12.5086 35.6149 11.9865 35.6787 11.5377 35.9326L9.33901 37.1771C8.4104 37.7026 8.08256 38.8856 8.60805 39.8143L15.0726 51.2367C15.3266 51.6855 15.7413 52.0088 16.2403 52.1471C16.4128 52.1949 16.5881 52.2186 16.7622 52.2186C17.0915 52.2186 17.4164 52.1339 17.7099 51.9678L19.9088 50.7232C20.8374 50.1977 21.1654 49.0147 20.6398 48.086L20.0152 46.9824L21.2398 46.2755L31.2429 48.9558C31.8043 49.1063 32.3627 49.1811 32.9122 49.181C34.0233 49.181 35.0968 48.875 36.0781 48.2709L50.3002 39.5135C51.6343 38.692 52.0592 36.6244 51.1915 35.1757ZM19.1391 49.3634L16.9402 50.6079C16.8248 50.6732 16.7136 50.6568 16.6575 50.6414C16.6014 50.6259 16.4976 50.5825 16.4324 50.4672L9.96782 39.0447C9.86831 38.8689 9.93286 38.6363 10.1085 38.5369L12.3074 37.2925C12.3622 37.2613 12.4243 37.2449 12.4873 37.2451C12.5294 37.2451 12.5652 37.2521 12.5901 37.2591C12.6461 37.2746 12.7498 37.3179 12.8152 37.4332L19.2798 48.8556C19.3793 49.0314 19.3148 49.264 19.1391 49.3634ZM32.5005 41.477L33.4752 41.6354C34.9532 41.8718 36.2649 41.6412 37.4854 40.9306L45.3224 36.3659C47.5324 35.0787 49.2253 34.9338 49.851 35.9784C50.2794 36.6938 50.0926 37.8063 49.4807 38.1829L35.2586 46.9403C34.1517 47.6218 32.9368 47.7922 31.6472 47.4465L21.3314 44.6824C21.1313 44.6289 20.9181 44.657 20.7386 44.7604L19.2455 45.6225L15.4517 38.9192L21.2205 35.5792C22.5103 34.8324 23.9039 34.2061 25.3548 34.677C25.8299 34.8311 26.3784 35.0293 27.0134 35.2589C28.8372 35.9183 31.1032 36.7375 33.458 37.1688C34.23 37.4417 34.6618 38.1868 34.4651 38.9206C34.2061 39.8871 33.3953 40.0068 32.7489 39.9331C31.5998 39.6965 30.5062 39.3845 29.3491 39.054C28.7984 38.8968 28.229 38.7341 27.6433 38.5772C27.5442 38.5506 27.4408 38.5438 27.3391 38.5572C27.2374 38.5706 27.1393 38.6039 27.0505 38.6552C26.9616 38.7065 26.8837 38.7748 26.8213 38.8562C26.7588 38.9376 26.713 39.0305 26.6865 39.1296C26.6599 39.2287 26.6531 39.3321 26.6665 39.4338C26.6799 39.5355 26.7132 39.6336 26.7645 39.7224C26.8158 39.8113 26.8841 39.8892 26.9655 39.9516C27.0469 40.0141 27.1398 40.0599 27.2389 40.0864C27.8122 40.24 28.3753 40.4009 28.92 40.5563C30.1179 40.8984 31.2494 41.2216 32.4693 41.471M12.9032 39.4238C12.9181 39.5258 12.9128 39.6298 12.8875 39.7298C12.8623 39.8297 12.8175 39.9237 12.756 40.0064C12.6944 40.0891 12.6171 40.1588 12.5285 40.2116C12.44 40.2644 12.3419 40.2993 12.2399 40.3142C12.1379 40.3291 12.0339 40.3238 11.934 40.2985C11.834 40.2732 11.74 40.2285 11.6573 40.1669C11.5747 40.1054 11.5049 40.0281 11.4521 39.9395C11.3993 39.851 11.3645 39.7529 11.3496 39.6509C11.323 39.4465 11.3778 39.2399 11.5022 39.0756C11.6267 38.9113 11.8107 38.8025 12.0146 38.7727C12.2185 38.7429 12.426 38.7945 12.5922 38.9163C12.7585 39.0381 12.8702 39.2204 12.9032 39.4238ZM24.4264 15.9843C24.7878 16.6892 24.9693 17.0429 25.0211 17.337C25.073 17.6311 25.0235 18.0255 24.925 18.8114C24.9002 19.0092 24.8726 19.2294 24.843 19.4769C24.6803 20.8379 25.4176 22.1149 26.6777 22.6547C26.9068 22.7528 27.1113 22.839 27.2949 22.9164L27.392 22.9574L24.4883 29.1941C24.4281 29.3236 24.4044 29.467 24.42 29.609C24.4355 29.7509 24.4897 29.8858 24.5765 29.9991C24.6634 30.1125 24.7797 30.1998 24.9127 30.2517C25.0457 30.3036 25.1904 30.318 25.331 30.2935L28.5227 29.7358L30.1505 32.5372C30.2223 32.6607 30.3265 32.7621 30.4518 32.8305C30.5771 32.8989 30.7188 32.9317 30.8615 32.9252C31.0041 32.9187 31.1422 32.8733 31.2609 32.7938C31.3795 32.7143 31.4741 32.6039 31.5343 32.4744L34.4168 26.2831L34.3599 26.2566C34.8535 26.1073 35.1447 26.0322 35.3834 26.0322C35.6821 26.0322 36.062 26.1494 36.8188 26.383L37.0696 26.4603L39.1498 31.2899C39.2063 31.4211 39.2976 31.5343 39.4139 31.6172C39.5302 31.7 39.667 31.7495 39.8094 31.7601C39.9517 31.7707 40.0943 31.742 40.2216 31.6773C40.3489 31.6125 40.4559 31.5141 40.5312 31.3928L42.2396 28.6398L45.4136 29.2899C45.5535 29.3186 45.6986 29.3084 45.833 29.2604C45.9675 29.2124 46.0863 29.1284 46.1764 29.0177C46.2665 28.907 46.3246 28.7736 46.3442 28.6322C46.3639 28.4908 46.3444 28.3467 46.2879 28.2155L43.9235 22.7257C43.9788 22.7022 44.0341 22.6786 44.0893 22.6549C45.3494 22.1152 46.0867 20.8381 45.924 19.4771C45.8944 19.2296 45.8668 19.0094 45.842 18.8117C45.7434 18.0258 45.694 17.6313 45.7458 17.3372C45.7977 17.0432 45.9791 16.6894 46.3405 15.9846C46.4314 15.8072 46.5327 15.6098 46.6452 15.3874C47.2636 14.1641 47.0075 12.7118 46.0081 11.7738C45.845 11.621 45.6816 11.4686 45.5176 11.3168C44.937 10.778 44.6455 10.5077 44.4961 10.249C44.3468 9.99043 44.2583 9.60283 44.0823 8.83066C44.0379 8.63633 43.9886 8.41992 43.9317 8.17725C43.6191 6.84258 42.4894 5.89473 41.1207 5.81865C40.8719 5.80479 40.6503 5.79385 40.4513 5.78389C39.6602 5.74453 39.2631 5.72471 38.9825 5.62256C38.7018 5.52041 38.3849 5.28037 37.7537 4.80205C37.5948 4.68174 37.4179 4.54775 37.2184 4.39834C36.121 3.57686 34.6464 3.57686 33.5491 4.39834C33.3496 4.54775 33.1727 4.68174 33.0138 4.80205C32.3825 5.28037 32.0657 5.52041 31.785 5.62256C31.5043 5.72471 31.1074 5.74453 30.3162 5.78389C30.1171 5.79385 29.8955 5.80479 29.6467 5.81865C28.2781 5.89482 27.1484 6.84268 26.8358 8.17725C26.779 8.41992 26.7296 8.63623 26.6852 8.83057C26.509 9.60283 26.4206 9.99033 26.2712 10.249C26.1219 10.5076 25.8304 10.778 25.2498 11.3167C25.0859 11.4686 24.9224 11.6209 24.7593 11.7737C23.7598 12.7118 23.5038 14.164 24.1221 15.3873C24.2228 15.5867 24.3243 15.7856 24.4264 15.9843ZM30.7496 30.4579L29.6001 28.4799C29.5199 28.3418 29.3992 28.2316 29.2544 28.1642C29.1095 28.0968 28.9475 28.0753 28.7902 28.1028L26.5366 28.4966L28.7642 23.7119C28.9486 23.9173 29.1543 24.2356 29.4939 24.7615C29.602 24.929 29.7224 25.1154 29.8588 25.3241C30.4384 26.2104 31.3971 26.7129 32.4083 26.7129C32.437 26.7129 32.4659 26.7105 32.4946 26.7098L30.7496 30.4579ZM42.0196 26.9997C41.8631 26.9677 41.7005 26.9844 41.5538 27.0476C41.4071 27.1108 41.2833 27.2174 41.1991 27.3531L39.9928 29.297L38.861 26.6691C39.6802 26.5316 40.4256 26.0617 40.908 25.3241C41.0301 25.137 41.1518 24.9496 41.2728 24.7617C41.7025 24.0963 41.9181 23.7623 42.1469 23.5703C42.2362 23.4954 42.3469 23.4261 42.4916 23.3513L44.2607 27.4587L42.0196 26.9997ZM25.8283 12.9129C26.0076 12.7446 26.168 12.5957 26.3123 12.462C27.699 11.1756 27.7875 11.0221 28.2083 9.17793C28.2521 8.98623 28.3007 8.77285 28.3569 8.5334C28.5124 7.86973 29.0527 7.41641 29.7332 7.37852C29.9788 7.36484 30.1973 7.354 30.3937 7.34414C32.283 7.2501 32.4495 7.18945 33.9572 6.04717C34.1138 5.92842 34.2884 5.79619 34.4853 5.64883C34.7581 5.44453 35.0708 5.34248 35.3836 5.34248C35.6963 5.34248 36.009 5.44453 36.282 5.64883C36.4584 5.78099 36.6344 5.91374 36.81 6.04707C38.3177 7.18936 38.4842 7.2499 40.3735 7.34404C40.5699 7.35381 40.7884 7.36465 41.0339 7.37842C41.7146 7.41631 42.2548 7.86963 42.4103 8.5333C42.4664 8.77275 42.5151 8.98623 42.5588 9.17793C42.9795 11.022 43.0681 11.1755 44.4549 12.4619C44.6167 12.6117 44.778 12.762 44.9388 12.9128C45.4359 13.3793 45.5583 14.0738 45.2507 14.6822C45.1398 14.9017 45.0399 15.0965 44.9502 15.2714C44.0872 16.9546 44.0564 17.1291 44.2917 19.006C44.3162 19.201 44.3434 19.4182 44.3726 19.6623C44.4536 20.3392 44.1009 20.9499 43.4743 21.2183C43.2483 21.315 43.0465 21.4001 42.8653 21.4765C41.1222 22.211 40.9865 22.3249 39.9603 23.914C39.8409 24.0993 39.7209 24.2842 39.6003 24.4688C39.2273 25.0392 38.5647 25.2804 37.912 25.0833C37.6766 25.0121 37.4674 24.9477 37.2796 24.8896C35.4723 24.332 35.2951 24.3319 33.4873 24.8896C33.2996 24.9477 33.0904 25.0121 32.855 25.0833C32.2027 25.2805 31.5397 25.0393 31.1666 24.4688C31.0461 24.2841 30.9261 24.0992 30.8066 23.9139C29.7805 22.3249 29.6448 22.2109 27.9016 21.4765C27.7205 21.4001 27.5188 21.3151 27.2927 21.2183C26.6661 20.9499 26.3134 20.3392 26.3944 19.6622C26.4236 19.4181 26.4508 19.2008 26.4753 19.0058C26.7107 17.1289 26.6799 16.9545 25.8167 15.2712C25.7271 15.0963 25.6272 14.9016 25.5163 14.6821C25.2087 14.0739 25.3312 13.3794 25.8283 12.9129ZM35.3833 22.4105C39.3333 22.4105 42.5469 19.197 42.5469 15.247C42.5469 11.297 39.3333 8.0835 35.3833 8.0835C31.4333 8.0835 28.2199 11.2971 28.2199 15.247C28.2199 19.197 31.4334 22.4105 35.3833 22.4105ZM35.3833 9.6459C38.4717 9.6459 40.9844 12.1585 40.9844 15.2469C40.9844 18.3353 38.4718 20.8479 35.3833 20.8479C32.2949 20.8479 29.7824 18.3354 29.7824 15.2469C29.7824 12.1584 32.295 9.6459 35.3833 9.6459ZM33.3946 18.0153L31.384 16.0047C31.3115 15.9321 31.2539 15.846 31.2147 15.7513C31.1754 15.6565 31.1552 15.5549 31.1552 15.4523C31.1552 15.3497 31.1754 15.2481 31.2147 15.1533C31.2539 15.0586 31.3115 14.9724 31.384 14.8999C31.4566 14.8274 31.5427 14.7698 31.6375 14.7305C31.7322 14.6913 31.8338 14.6711 31.9364 14.6711C32.039 14.6711 32.1406 14.6913 32.2354 14.7305C32.3302 14.7698 32.4163 14.8274 32.4888 14.8999L33.9731 16.3843L38.3053 12.4526C38.4588 12.3134 38.6612 12.2408 38.8682 12.2508C39.0752 12.2609 39.2697 12.3527 39.4089 12.5062C39.5482 12.6596 39.6208 12.8621 39.6107 13.069C39.6007 13.276 39.5089 13.4705 39.3554 13.6098L34.472 18.0415C34.3284 18.1721 34.1412 18.2444 33.9471 18.2442C33.8445 18.2443 33.7428 18.2241 33.648 18.1849C33.5532 18.1456 33.4671 18.088 33.3946 18.0153Z" fill="#2166F3"/>
</svg>
