<svg width="50" height="50" viewBox="0 0 50 50" fill="none" xmlns="http://www.w3.org/2000/svg">
<path fill-rule="evenodd" clip-rule="evenodd" d="M3.125 7.8125V34.375C3.125 34.9966 3.37193 35.5927 3.81147 36.0323C4.25101 36.4718 4.84715 36.7188 5.46875 36.7188H20.3125V42.9688H13.2812C13.074 42.9688 12.8753 43.0511 12.7288 43.1976C12.5823 43.3441 12.5 43.5428 12.5 43.75C12.5 43.9572 12.5823 44.1559 12.7288 44.3024C12.8753 44.4489 13.074 44.5312 13.2812 44.5312H36.7188C36.926 44.5312 37.1247 44.4489 37.2712 44.3024C37.4177 44.1559 37.5 43.9572 37.5 43.75C37.5 43.5428 37.4177 43.3441 37.2712 43.1976C37.1247 43.0511 36.926 42.9688 36.7188 42.9688H29.6875V36.7188H44.5312C45.1529 36.7188 45.749 36.4718 46.1885 36.0323C46.6281 35.5927 46.875 34.9966 46.875 34.375V7.8125C46.875 7.1909 46.6281 6.59476 46.1885 6.15522C45.749 5.71568 45.1529 5.46875 44.5312 5.46875H5.46875C4.84715 5.46875 4.25101 5.71568 3.81147 6.15522C3.37193 6.59476 3.125 7.1909 3.125 7.8125ZM21.875 42.9688H28.125V36.7188H21.875V42.9688ZM45.3125 28.9062V34.375C45.3125 34.5822 45.2302 34.7809 45.0837 34.9274C44.9372 35.0739 44.7385 35.1562 44.5312 35.1562H5.46875C5.26155 35.1562 5.06284 35.0739 4.91632 34.9274C4.76981 34.7809 4.6875 34.5822 4.6875 34.375V28.9062H45.3125ZM23.4375 32.8125H26.5625V31.25H23.4375V32.8125ZM28.125 32.8125H31.25V31.25H28.125V32.8125ZM18.75 32.8125H21.875V31.25H18.75V32.8125ZM45.3125 7.8125V27.3438H4.6875V7.8125C4.6875 7.6053 4.76981 7.40659 4.91632 7.26007C5.06284 7.11356 5.26155 7.03125 5.46875 7.03125H44.5312C44.7385 7.03125 44.9372 7.11356 45.0837 7.26007C45.2302 7.40659 45.3125 7.6053 45.3125 7.8125ZM27.4141 20.8391L31.3469 24.7719C31.4195 24.8444 31.5057 24.9019 31.6006 24.9411C31.6955 24.9804 31.7971 25.0005 31.8998 25.0004C32.0024 25.0004 32.1041 24.9801 32.1989 24.9407C32.2937 24.9014 32.3798 24.8437 32.4523 24.7711C32.5249 24.6985 32.5824 24.6122 32.6216 24.5174C32.6608 24.4225 32.681 24.3208 32.6809 24.2182C32.6808 24.1155 32.6605 24.0139 32.6212 23.9191C32.5818 23.8243 32.5242 23.7382 32.4516 23.6656L28.5188 19.7344C29.3366 18.7071 29.8482 17.4701 29.9948 16.1652C30.1414 14.8603 29.917 13.5406 29.3474 12.3575C28.7778 11.1744 27.8861 10.176 26.7746 9.47676C25.6632 8.77757 24.3771 8.40599 23.0641 8.40469C19.2125 8.40469 16.0859 11.5313 16.0859 15.3828C16.0859 19.2344 19.2125 22.3625 23.0641 22.3625C24.7078 22.3625 26.2203 21.7922 27.4141 20.8391ZM23.0641 9.96719C24.473 10.0086 25.8103 10.5975 26.7923 11.6087C27.7742 12.62 28.3235 13.974 28.3235 15.3836C28.3235 16.7931 27.7742 18.1472 26.7923 19.1585C25.8103 20.1697 24.473 20.7585 23.0641 20.8C21.6551 20.7585 20.3178 20.1697 19.3359 19.1585C18.3539 18.1472 17.8047 16.7931 17.8047 15.3836C17.8047 13.974 18.3539 12.62 19.3359 11.6087C20.3178 10.5975 21.6551 10.0086 23.0641 9.96719Z" fill="black"/>
</svg>
