<svg width="46" height="34" viewBox="0 0 46 34" fill="none" xmlns="http://www.w3.org/2000/svg">
<path d="M12.0625 8.40625H33.9375C34.1447 8.40625 34.3434 8.32394 34.4899 8.17743C34.6364 8.03091 34.7187 7.8322 34.7187 7.625V1.375C34.7187 1.1678 34.6364 0.969086 34.4899 0.822573C34.3434 0.67606 34.1447 0.59375 33.9375 0.59375H12.0625C11.8553 0.59375 11.6566 0.67606 11.5101 0.822573C11.3636 0.969086 11.2812 1.1678 11.2812 1.375V7.625C11.2812 7.8322 11.3636 8.03091 11.5101 8.17743C11.6566 8.32394 11.8553 8.40625 12.0625 8.40625ZM12.8437 2.15625H33.1562V6.84375H12.8437V2.15625ZM12.0625 20.9062H19.9219C20.1291 20.9062 20.3278 20.8239 20.4743 20.6774C20.6208 20.5309 20.7031 20.3322 20.7031 20.125C20.7031 19.9178 20.6208 19.7191 20.4743 19.5726C20.3278 19.4261 20.1291 19.3438 19.9219 19.3438H12.8437V14.6562H33.1562V19.3438H26.1578C25.9506 19.3438 25.7519 19.4261 25.6054 19.5726C25.4589 19.7191 25.3766 19.9178 25.3766 20.125C25.3766 20.3322 25.4589 20.5309 25.6054 20.6774C25.7519 20.8239 25.9506 20.9062 26.1578 20.9062H33.9375C34.1447 20.9062 34.3434 20.8239 34.4899 20.6774C34.6364 20.5309 34.7187 20.3322 34.7187 20.125V13.875C34.7187 13.6678 34.6364 13.4691 34.4899 13.3226C34.3434 13.1761 34.1447 13.0938 33.9375 13.0938H12.0625C11.8553 13.0938 11.6566 13.1761 11.5101 13.3226C11.3636 13.4691 11.2812 13.6678 11.2812 13.875V20.125C11.2812 20.3322 11.3636 20.5309 11.5101 20.6774C11.6566 20.8239 11.8553 20.9062 12.0625 20.9062ZM12.0625 33.4062H33.9375C34.1447 33.4062 34.3434 33.3239 34.4899 33.1774C34.6364 33.0309 34.7187 32.8322 34.7187 32.625V26.375C34.7187 26.1678 34.6364 25.9691 34.4899 25.8226C34.3434 25.6761 34.1447 25.5938 33.9375 25.5938H12.0625C11.8553 25.5938 11.6566 25.6761 11.5101 25.8226C11.3636 25.9691 11.2812 26.1678 11.2812 26.375V32.625C11.2812 32.8322 11.3636 33.0309 11.5101 33.1774C11.6566 33.3239 11.8553 33.4062 12.0625 33.4062ZM12.8437 27.1562H33.1562V31.8438H12.8437V27.1562ZM38.625 3.71875H37.0625C36.8553 3.71875 36.6566 3.80106 36.5101 3.94757C36.3636 4.09409 36.2812 4.2928 36.2812 4.5C36.2812 4.7072 36.3636 4.90591 36.5101 5.05243C36.6566 5.19894 36.8553 5.28125 37.0625 5.28125H38.625C40.0754 5.28125 41.4664 5.85742 42.492 6.88301C43.5176 7.9086 44.0937 9.2996 44.0937 10.75C44.0937 12.2004 43.5176 13.5914 42.492 14.617C41.4664 15.6426 40.0754 16.2187 38.625 16.2188H37.0625C36.8553 16.2188 36.6566 16.3011 36.5101 16.4476C36.3636 16.5941 36.2812 16.7928 36.2812 17C36.2812 17.2072 36.3636 17.4059 36.5101 17.5524C36.6566 17.6989 36.8553 17.7812 37.0625 17.7812H38.625C40.4898 17.7812 42.2782 17.0405 43.5968 15.7218C44.9155 14.4032 45.6562 12.6148 45.6562 10.75C45.6562 8.8852 44.9155 7.09677 43.5968 5.77816C42.2782 4.45954 40.4898 3.71875 38.625 3.71875ZM7.375 30.2812H8.9375C9.1447 30.2812 9.34341 30.1989 9.48993 30.0524C9.63644 29.9059 9.71875 29.7072 9.71875 29.5C9.71875 29.2928 9.63644 29.0941 9.48993 28.9476C9.34341 28.8011 9.1447 28.7188 8.9375 28.7188H7.375C5.9246 28.7187 4.5336 28.1426 3.50801 27.117C2.48242 26.0914 1.90625 24.7004 1.90625 23.25C1.90625 21.7996 2.48242 20.4086 3.50801 19.383C4.5336 18.3574 5.9246 17.7813 7.375 17.7812H8.9375C9.1447 17.7812 9.34341 17.6989 9.48993 17.5524C9.63644 17.4059 9.71875 17.2072 9.71875 17C9.71875 16.7928 9.63644 16.5941 9.48993 16.4476C9.34341 16.3011 9.1447 16.2188 8.9375 16.2188H7.375C5.5102 16.2188 3.72177 16.9595 2.40316 18.2782C1.08454 19.5968 0.34375 21.3852 0.34375 23.25C0.34375 25.1148 1.08454 26.9032 2.40316 28.2218C3.72177 29.5405 5.5102 30.2812 7.375 30.2812ZM43.8656 27.3844C43.7183 27.2421 43.5209 27.1633 43.3161 27.1651C43.1112 27.1669 42.9153 27.249 42.7705 27.3939C42.6256 27.5387 42.5434 27.7347 42.5417 27.9395C42.5399 28.1444 42.6186 28.3417 42.7609 28.4891L42.9891 28.7188H37.0625C36.8553 28.7188 36.6566 28.8011 36.5101 28.9476C36.3636 29.0941 36.2812 29.2928 36.2812 29.5C36.2812 29.7072 36.3636 29.9059 36.5101 30.0524C36.6566 30.1989 36.8553 30.2812 37.0625 30.2812H42.9891L42.7609 30.5094C42.6863 30.5814 42.6268 30.6677 42.5859 30.763C42.5449 30.8583 42.5234 30.9608 42.5225 31.0645C42.5216 31.1683 42.5413 31.2711 42.5806 31.3672C42.6199 31.4632 42.6779 31.5504 42.7513 31.6237C42.8246 31.6971 42.9118 31.7551 43.0078 31.7944C43.1039 31.8337 43.2067 31.8534 43.3105 31.8525C43.4142 31.8516 43.5167 31.8301 43.612 31.7891C43.7073 31.7482 43.7936 31.6887 43.8656 31.6141L45.4281 30.0516C45.5746 29.9051 45.6569 29.7064 45.6569 29.4992C45.6569 29.2921 45.5746 29.0934 45.4281 28.9469L43.8656 27.3844ZM1.125 5.28125H7.05156L6.82344 5.50937C6.74882 5.58144 6.6893 5.66765 6.64836 5.76297C6.60741 5.85828 6.58586 5.9608 6.58496 6.06453C6.58406 6.16826 6.60383 6.27114 6.64311 6.36715C6.68239 6.46316 6.7404 6.55039 6.81375 6.62375C6.88711 6.6971 6.97434 6.75511 7.07035 6.79439C7.16636 6.83367 7.26924 6.85344 7.37297 6.85254C7.4767 6.85164 7.57922 6.83009 7.67453 6.78914C7.76985 6.7482 7.85606 6.68868 7.92812 6.61406L9.49062 5.05156C9.63709 4.90506 9.71936 4.70638 9.71936 4.49922C9.71936 4.29206 9.63709 4.09338 9.49062 3.94687L7.92812 2.38437C7.78078 2.24206 7.58343 2.16332 7.37859 2.1651C7.17375 2.16688 6.9778 2.24904 6.83295 2.39389C6.6881 2.53874 6.60594 2.73469 6.60416 2.93953C6.60238 3.14437 6.68113 3.34172 6.82344 3.48906L7.05156 3.71875H1.125C0.9178 3.71875 0.719086 3.80106 0.572573 3.94757C0.42606 4.09409 0.34375 4.2928 0.34375 4.5C0.34375 4.7072 0.42606 4.90591 0.572573 5.05243C0.719086 5.19894 0.9178 5.28125 1.125 5.28125Z" fill="black"/>
<path d="M23 20.9062C23.4315 20.9062 23.7812 20.5565 23.7812 20.125C23.7812 19.6935 23.4315 19.3438 23 19.3438C22.5685 19.3438 22.2188 19.6935 22.2188 20.125C22.2188 20.5565 22.5685 20.9062 23 20.9062Z" fill="black"/>
</svg>
