<svg width="49" height="49" viewBox="0 0 49 49" fill="none" xmlns="http://www.w3.org/2000/svg">
<path d="M48.4375 19.5312C48.4375 14.1945 44.2977 9.81563 39.0625 9.41484V2.34375C39.0625 1.05156 38.0109 0 36.7188 0H2.34375C1.05156 0 0 1.05156 0 2.34375V46.0938C0 47.3859 1.05156 48.4375 2.34375 48.4375H38.2812C40.4352 48.4375 42.1875 46.6852 42.1875 44.5312V32.8125C42.1875 31.9508 41.4867 31.25 40.625 31.25V29.4039C45.0969 28.3414 48.4375 24.3234 48.4375 19.5312ZM46.875 19.5312C46.875 24.2695 43.0195 28.125 38.2812 28.125C33.543 28.125 29.6875 24.2695 29.6875 19.5312C29.6875 14.793 33.543 10.9375 38.2812 10.9375C43.0195 10.9375 46.875 14.793 46.875 19.5312ZM28.2148 20.8141C28.4001 22.2734 28.9028 23.6745 29.6875 24.9188V27C29.6875 33.3156 25.5219 38.8758 19.5312 40.5945C13.5406 38.8758 9.375 33.3164 9.375 27V21.0164C13.1445 20.5906 16.5562 19.6 19.5312 18.0688C22.1156 19.4 25.0344 20.318 28.2148 20.8141ZM28.1406 19.2203C25.1055 18.7156 22.3352 17.8047 19.9008 16.4984L19.5312 16.3008L19.1617 16.4984C16.1023 18.1398 12.5219 19.1609 8.52109 19.5344L7.8125 19.6V27C7.8125 34.0914 12.5477 40.3258 19.3273 42.1594L19.5312 42.2148L19.7352 42.1594C26.5148 40.325 31.25 34.0914 31.25 27V26.8422C31.7164 27.2915 32.2247 27.6952 32.768 28.0477C32.3086 35.6141 26.9375 42.0055 19.5312 43.7289C11.7023 41.9086 6.25 35.0547 6.25 26.9992V17.9648C10.9326 17.9064 15.5158 16.6059 19.5312 14.1961C22.2396 15.8227 25.219 16.9477 28.3266 17.5172C28.2173 18.0787 28.1551 18.6484 28.1406 19.2203ZM2.34375 1.5625H36.7188C37.1492 1.5625 37.5 1.91328 37.5 2.34375V9.375H1.5625V2.34375C1.5625 1.91328 1.91328 1.5625 2.34375 1.5625ZM1.5625 46.0938V10.9375H32.893C30.9982 12.1294 29.5484 13.9117 28.7672 16.0094C25.6359 15.4559 22.6405 14.3048 19.9445 12.6188L19.5305 12.3602L19.1164 12.6188C15.1568 15.0952 10.5804 16.4077 5.91016 16.4062H4.6875V27.0008C4.6875 35.8516 10.7219 43.3742 19.3617 45.2938L19.5312 45.3312L19.7008 45.2938C27.6406 43.5297 33.4781 36.8602 34.2711 28.8586C34.8039 29.0883 35.3625 29.2672 35.9375 29.4031V31.25C35.0758 31.25 34.375 31.9508 34.375 32.8125V44.5312C34.375 45.4141 34.6805 46.2203 35.1766 46.875H2.34375C1.91328 46.875 1.5625 46.5242 1.5625 46.0938ZM40.625 32.8125V34.375H35.9375V32.8125H40.625ZM38.2812 46.875C36.9891 46.875 35.9375 45.8234 35.9375 44.5312V35.9375H40.625V44.5312C40.625 45.8234 39.5734 46.875 38.2812 46.875ZM39.0625 31.25H37.5V29.6477C37.7586 29.6672 38.0172 29.6875 38.2812 29.6875C38.5453 29.6875 38.8039 29.668 39.0625 29.6477V31.25Z" fill="#2166F3"/>
</svg>
