<svg width="62" height="62" viewBox="0 0 62 62" fill="none" xmlns="http://www.w3.org/2000/svg">
<path d="M3.67775 30.0541C4.89052 29.9207 5.76547 28.8293 5.632 27.6166C5.49854 26.4038 4.40721 25.5288 3.19444 25.6623C1.98168 25.7958 1.10673 26.8871 1.24019 28.0999C1.37365 29.3126 2.46499 30.1876 3.67775 30.0541Z" fill="#2166F3" stroke="#2166F3" stroke-width="2" stroke-miterlimit="10" stroke-linecap="round" stroke-linejoin="round"/>
<path d="M47.6245 21.0408V4.90425C47.6245 2.98324 46.0877 1.44643 44.1667 1.44643H17.7527C15.8317 1.44643 14.2949 2.98324 14.2949 4.90425V21.425M47.6245 35.3523V56.9637C47.6245 58.8847 46.0877 60.4215 44.1667 60.4215H17.7527C15.8317 60.4215 14.2949 58.8847 14.2949 56.9637V35.3523" stroke="#2166F3" stroke-width="2" stroke-miterlimit="10" stroke-linecap="round" stroke-linejoin="round"/>
<path d="M25.3409 1.44643C26.4935 1.44643 27.55 2.02273 28.1264 2.98324C29.4711 5.0003 32.4486 5.0003 33.7933 2.98324C34.3696 2.02273 35.5223 1.44643 36.5788 1.44643M14.3911 48.3191C14.3911 50.2401 15.9279 51.777 17.8489 51.777H44.2629C46.1839 51.777 47.7207 50.2401 47.7207 48.3191" stroke="#2166F3" stroke-width="2" stroke-miterlimit="10" stroke-linecap="round" stroke-linejoin="round"/>
<path d="M31.0081 57.54C31.8039 57.54 32.4489 56.8949 32.4489 56.0992C32.4489 55.3035 31.8039 54.6585 31.0081 54.6585C30.2124 54.6585 29.5674 55.3035 29.5674 56.0992C29.5674 56.8949 30.2124 57.54 31.0081 57.54Z" fill="#2166F3" stroke="#2166F3" stroke-width="2" stroke-miterlimit="10" stroke-linecap="round" stroke-linejoin="round"/>
<path d="M6.89948 36.5488C8.08906 36.2777 8.8336 35.0936 8.56246 33.904C8.29132 32.7144 7.10717 31.9699 5.9176 32.241C4.72802 32.5121 3.98347 33.6963 4.25461 34.8859C4.52575 36.0754 5.7099 36.82 6.89948 36.5488Z" fill="#2166F3" stroke="#2166F3" stroke-width="2" stroke-miterlimit="10" stroke-linecap="round" stroke-linejoin="round"/>
<path d="M6.5088 23.6351C7.72767 23.5806 8.67158 22.5484 8.61708 21.3295C8.56259 20.1106 7.53032 19.1667 6.31145 19.2212C5.09258 19.2757 4.14867 20.308 4.20317 21.5268C4.25766 22.7457 5.28993 23.6896 6.5088 23.6351Z" fill="#2166F3" stroke="#2166F3" stroke-width="2" stroke-miterlimit="10" stroke-linecap="round" stroke-linejoin="round"/>
<path d="M5.65039 27.8604H16.6962ZM7.95561 32.855L9.68452 31.1261H16.6962M7.95561 22.9618L9.68452 24.5946H16.6962M5.65039 27.8604H16.6962Z" fill="#2166F3"/>
<path d="M5.65039 27.8604H16.6962M7.95561 32.855L9.68452 31.1261H16.6962M7.95561 22.9618L9.68452 24.5946H16.6962" stroke="#2166F3" stroke-width="2" stroke-miterlimit="10" stroke-linecap="round" stroke-linejoin="round"/>
<path d="M7.95557 32.855L9.68448 31.1261H16.6962M7.95557 22.9618L9.68448 24.5946H16.6962" fill="#2166F3"/>
<path d="M7.95557 32.855L9.68448 31.1261H16.6962M7.95557 22.9618L9.68448 24.5946H16.6962" stroke="#2166F3" stroke-width="2" stroke-miterlimit="10" stroke-linecap="round" stroke-linejoin="round"/>
<path d="M58.8028 30.0471C60.0155 29.9136 60.8905 28.8223 60.757 27.6095C60.6235 26.3968 59.5322 25.5218 58.3194 25.6553C57.1067 25.7887 56.2317 26.8801 56.3652 28.0928C56.4987 29.3056 57.59 30.1806 58.8028 30.0471Z" fill="#2166F3" stroke="#2166F3" stroke-width="2" stroke-miterlimit="10" stroke-linecap="round" stroke-linejoin="round"/>
<path d="M56.0909 23.5792C57.2805 23.308 58.025 22.1239 57.7539 20.9343C57.4827 19.7447 56.2986 19.0002 55.109 19.2713C53.9194 19.5425 53.1749 20.7266 53.446 21.9162C53.7172 23.1058 54.9013 23.8503 56.0909 23.5792Z" fill="#2166F3" stroke="#2166F3" stroke-width="2" stroke-miterlimit="10" stroke-linecap="round" stroke-linejoin="round"/>
<path d="M55.6777 36.6231C56.8966 36.5686 57.8405 35.5363 57.786 34.3175C57.7315 33.0986 56.6993 32.1547 55.4804 32.2092C54.2615 32.2637 53.3176 33.2959 53.3721 34.5148C53.4266 35.7337 54.4589 36.6776 55.6777 36.6231Z" fill="#2166F3" stroke="#2166F3" stroke-width="2" stroke-miterlimit="10" stroke-linecap="round" stroke-linejoin="round"/>
<path d="M58.8028 30.0471C60.0155 29.9136 60.8905 28.8223 60.757 27.6095C60.6235 26.3968 59.5322 25.5218 58.3194 25.6553C57.1067 25.7887 56.2317 26.8801 56.3652 28.0928C56.4987 29.3056 57.59 30.1806 58.8028 30.0471Z" fill="#2166F3" stroke="#2166F3" stroke-width="2" stroke-miterlimit="10" stroke-linecap="round" stroke-linejoin="round"/>
<path d="M56.0909 23.5792C57.2805 23.308 58.025 22.1239 57.7539 20.9343C57.4827 19.7447 56.2986 19.0002 55.109 19.2713C53.9194 19.5425 53.1749 20.7266 53.446 21.9162C53.7172 23.1058 54.9013 23.8503 56.0909 23.5792Z" fill="#2166F3" stroke="#2166F3" stroke-width="2" stroke-miterlimit="10" stroke-linecap="round" stroke-linejoin="round"/>
<path d="M55.6777 36.6231C56.8966 36.5686 57.8405 35.5363 57.786 34.3175C57.7315 33.0986 56.6993 32.1547 55.4804 32.2092C54.2615 32.2637 53.3176 33.2959 53.3721 34.5148C53.4266 35.7337 54.4589 36.6776 55.6777 36.6231Z" fill="#2166F3" stroke="#2166F3" stroke-width="2" stroke-miterlimit="10" stroke-linecap="round" stroke-linejoin="round"/>
<path d="M56.3652 27.8604H45.3193ZM54.0599 22.9618L52.331 24.5946H45.3193M54.0599 32.855L52.331 31.1261H45.3193M56.3652 27.8604H45.3193Z" fill="#2166F3"/>
<path d="M56.3652 27.8604H45.3193M54.0599 22.9618L52.331 24.5946H45.3193M54.0599 32.855L52.331 31.1261H45.3193" stroke="#2166F3" stroke-width="2" stroke-miterlimit="10" stroke-linecap="round" stroke-linejoin="round"/>
<path d="M27.454 21.0408V18.3513M31.0079 21.0408V18.3513M34.5618 21.0408V18.3513M27.454 37.4654V34.776M31.0079 37.4654V34.776M34.5618 37.4654V34.776M37.8275 24.3065H40.613M37.8275 27.8604H40.613M37.8275 31.5103H40.613M21.4028 24.3065H24.1883M21.4028 27.8604H24.1883M21.4028 31.5103H24.1883M27.601 31.2682V24.4486H34.4206V31.2682H27.601Z" stroke="#2166F3" stroke-width="2" stroke-miterlimit="10" stroke-linecap="round" stroke-linejoin="round"/>
</svg>
