<svg width="44" height="58" viewBox="0 0 44 58" fill="none" xmlns="http://www.w3.org/2000/svg">
<path d="M16.3337 5.83648H20.8187C21.0527 5.83648 21.2772 5.74352 21.4426 5.57805C21.6081 5.41257 21.7011 5.18814 21.7011 4.95413C21.7011 4.72012 21.6081 4.49569 21.4426 4.33021C21.2772 4.16474 21.0527 4.07178 20.8187 4.07178H16.3337C16.0997 4.07178 15.8753 4.16474 15.7098 4.33021C15.5443 4.49569 15.4514 4.72012 15.4514 4.95413C15.4514 5.18814 15.5443 5.41257 15.7098 5.57805C15.8753 5.74352 16.0997 5.83648 16.3337 5.83648ZM12.334 53.3388H20.3334C20.5674 53.3388 20.7919 53.2459 20.9573 53.0804C21.1228 52.9149 21.2158 52.6905 21.2158 52.4565C21.2158 52.2225 21.1228 51.998 20.9573 51.8326C20.7919 51.6671 20.5674 51.5741 20.3334 51.5741H12.334C12.1 51.5741 11.8756 51.6671 11.7101 51.8326C11.5446 51.998 11.4517 52.2225 11.4517 52.4565C11.4517 52.6905 11.5446 52.9149 11.7101 53.0804C11.8756 53.2459 12.1 53.3388 12.334 53.3388Z" fill="#2166F3"/>
<path d="M0.960478 44.5594C1.19449 44.5594 1.41892 44.4665 1.5844 44.301C1.74987 44.1355 1.84283 43.9111 1.84283 43.6771V9.14706H30.8237V13.6859C30.8237 13.9199 30.9167 14.1443 31.0822 14.3098C31.2476 14.4753 31.4721 14.5682 31.7061 14.5682C31.9401 14.5682 32.1645 14.4753 32.33 14.3098C32.4955 14.1443 32.5884 13.9199 32.5884 13.6859L32.592 4.27647C32.592 2.34412 31.0125 0.764709 29.074 0.764709H3.58989C1.74577 0.764709 0.078125 2.28236 0.078125 4.27912V43.6771C0.078125 43.9111 0.171087 44.1355 0.33656 44.301C0.502034 44.4665 0.726463 44.5594 0.960478 44.5594ZM29.0722 2.52942C30.0049 2.52942 30.8246 3.29265 30.8246 4.27912V7.38236H1.84283V4.27647C1.84283 3.31471 2.63165 2.52942 3.59254 2.52942H29.0722Z" fill="#2166F3"/>
<path d="M21.7789 22.9965C21.9452 23.1611 22.17 23.2529 22.404 23.2517C22.638 23.2506 22.8619 23.1565 23.0265 22.9903L26.7148 19.2685C26.8783 19.1033 26.9701 18.8802 26.9701 18.6478C26.9701 18.4153 26.8783 18.1923 26.7148 18.0271L23.0265 14.3053C22.8602 14.1476 22.639 14.0609 22.4098 14.0634C22.1806 14.066 21.9614 14.1576 21.7986 14.3189C21.6357 14.4803 21.5421 14.6986 21.5374 14.9278C21.5328 15.157 21.6175 15.3789 21.7736 15.5468L24.8451 18.6482L21.7727 21.7488C21.6081 21.9151 21.5163 22.1399 21.5175 22.3739C21.5186 22.6079 21.6127 22.8318 21.7789 22.9965ZM10.888 14.2991C10.8058 14.2174 10.7083 14.1527 10.601 14.1088C10.4937 14.0649 10.3788 14.0425 10.2629 14.0431C10.147 14.0437 10.0323 14.0671 9.92551 14.1121C9.81868 14.1571 9.72178 14.2228 9.64038 14.3053L5.95302 18.0271C5.78949 18.1923 5.69775 18.4153 5.69775 18.6478C5.69775 18.8802 5.78949 19.1033 5.95302 19.2685L9.64126 22.9903C9.72178 23.0768 9.81887 23.1463 9.92676 23.1946C10.0346 23.2429 10.1511 23.269 10.2693 23.2714C10.3875 23.2738 10.505 23.2525 10.6147 23.2086C10.7245 23.1647 10.8243 23.0992 10.9083 23.016C10.9923 22.9328 11.0587 22.8336 11.1035 22.7243C11.1484 22.6149 11.1709 22.4976 11.1695 22.3794C11.1682 22.2612 11.1432 22.1445 11.0959 22.0362C11.0486 21.9278 10.98 21.8301 10.8942 21.7488L7.82273 18.6482L10.8942 15.5468C11.0588 15.3805 11.1506 15.1556 11.1495 14.9217C11.1483 14.6877 11.0543 14.4638 10.888 14.2991ZM17.7563 11.8056L12.5768 24.8379C12.534 24.9456 12.5128 25.0607 12.5145 25.1766C12.5162 25.2925 12.5406 25.4069 12.5865 25.5134C12.6324 25.6198 12.6988 25.7161 12.7819 25.7969C12.865 25.8777 12.9633 25.9413 13.071 25.9841C13.1787 26.0269 13.2937 26.0481 13.4096 26.0464C13.5255 26.0448 13.64 26.0203 13.7464 25.9744C13.8528 25.9286 13.9492 25.8622 14.0299 25.779C14.1107 25.6959 14.1743 25.5977 14.2171 25.49L19.3966 12.4576C19.483 12.24 19.4795 11.9969 19.3867 11.7819C19.294 11.5669 19.1196 11.3975 18.902 11.311C18.6844 11.2246 18.4413 11.2281 18.2263 11.3208C18.0112 11.4136 17.8418 11.5879 17.7554 11.8056H17.7563ZM31.7107 28.1529C29.1254 28.1529 27.0254 30.2529 27.0254 32.8382C27.0254 35.4482 29.1536 37.5235 31.7107 37.5235C34.2571 37.5235 36.3871 35.4518 36.3871 32.8382C36.3871 30.2529 34.2871 28.1529 31.7107 28.1529ZM32.593 35.6176V32.2559C32.593 31.7706 32.196 31.3735 31.7107 31.3735C31.2166 31.3735 30.8283 31.7706 30.8283 32.2559V35.6265C30.1651 35.414 29.5994 34.9718 29.2332 34.3794C28.867 33.787 28.7242 33.0834 28.8306 32.3951C28.937 31.7068 29.2855 31.0791 29.8135 30.6249C30.3415 30.1708 31.0142 29.92 31.7107 29.9176C33.3166 29.9176 34.6224 31.2323 34.6224 32.8382C34.6224 34.1441 33.7666 35.2471 32.593 35.6176Z" fill="#2166F3"/>
<path d="M43.137 30.05L40.9664 29.8029C40.7987 29.2912 40.587 28.7882 40.3311 28.3029L41.6017 26.5029C41.8575 26.1588 41.8134 25.6735 41.5134 25.3735L38.9811 22.85C38.8287 22.6954 38.6245 22.6026 38.4078 22.5896C38.1912 22.5766 37.9773 22.6442 37.8075 22.7794L36.1046 24.1471C35.6193 23.9 35.1164 23.6971 34.5958 23.5382L34.234 21.3588C34.1985 21.1532 34.0913 20.9667 33.9314 20.8327C33.7715 20.6986 33.5692 20.6255 33.3605 20.6265H29.787C29.337 20.6265 28.9575 20.9618 28.9046 21.4118L28.6664 23.5912C28.1458 23.7588 27.6517 23.9706 27.1752 24.2177L25.3664 22.9382C25.1974 22.8171 24.9908 22.7603 24.7837 22.7781C24.5766 22.7959 24.3827 22.8871 24.2369 23.0353L21.7134 25.5588C21.3958 25.8765 21.3693 26.3794 21.6517 26.7324L23.0105 28.4441C22.7634 28.9294 22.5605 29.4324 22.4017 29.9529L20.2311 30.3147C19.8075 30.3941 19.4899 30.7559 19.4899 31.1882V34.7618C19.4899 35.2118 19.834 35.5824 20.2752 35.6353L22.4458 35.8824C22.6134 36.4029 22.834 36.9059 23.0811 37.3824L21.8105 39.1735C21.5634 39.5265 21.5987 40.0029 21.9075 40.3118L24.4311 42.8353C24.7487 43.1529 25.2517 43.1794 25.6046 42.8971L27.3164 41.5382C27.8017 41.7765 28.2958 41.9794 28.8164 42.1382L29.1781 44.3176C29.2117 44.5249 29.3181 44.7134 29.4782 44.8493C29.6384 44.9851 29.8417 45.0594 30.0517 45.0588H30.8281V47.0088H0.960478C0.475184 47.0088 0.078125 47.4059 0.078125 47.8912V53.7235C0.0804546 54.6542 0.451191 55.5461 1.10927 56.2041C1.76735 56.8622 2.65923 57.233 3.58989 57.2353H29.0722C31.0134 57.2353 32.5928 55.6559 32.5928 53.7235V45.0588H33.6252C34.0752 45.0588 34.4546 44.7235 34.5075 44.2735L34.7546 42.0941C35.2677 41.9257 35.7663 41.7162 36.2458 41.4676L38.0458 42.7471C38.3987 42.9941 38.8752 42.95 39.184 42.65L41.6987 40.1176C42.0164 39.8 42.0428 39.2971 41.7605 38.9529L40.4017 37.2412C40.6487 36.7471 40.8517 36.2441 41.0105 35.7324L43.1811 35.3618C43.6046 35.2912 43.9222 34.9206 43.9222 34.4971V30.9235C43.9222 30.4735 43.587 30.0941 43.137 30.05ZM30.8281 53.7235C30.8281 54.6853 30.0428 55.4706 29.0722 55.4706H3.58989C2.62813 55.4706 1.84283 54.6853 1.84283 53.7235V48.7735H30.8281V53.7235ZM42.1575 33.7471L40.1634 34.0824C39.8105 34.1441 39.537 34.4 39.4487 34.7529C39.2722 35.4941 38.9811 36.2088 38.5928 36.8882C38.4075 37.1971 38.434 37.5941 38.6634 37.8765L39.8899 39.4294L38.4605 40.8765L36.8017 39.6941C36.6602 39.5953 36.4928 39.5401 36.3203 39.5354C36.1478 39.5307 35.9777 39.5767 35.8311 39.6676C35.1869 40.0647 34.4811 40.3647 33.7311 40.55C33.3693 40.6382 33.1046 40.9471 33.0605 41.3088L32.8399 43.2941H30.7928L30.4575 41.2912C30.4299 41.121 30.3522 40.963 30.2344 40.8373C30.1165 40.7115 29.9638 40.6238 29.7958 40.5853C29.0546 40.4 28.3399 40.1088 27.6781 39.7206C27.5245 39.6295 27.3467 39.5875 27.1686 39.6001C26.9904 39.6128 26.8204 39.6794 26.6811 39.7912L25.1193 41.0265L23.6811 39.5882L24.8458 37.9559C25.0337 37.6903 25.0664 37.2976 24.8811 36.9676C24.484 36.3235 24.1752 35.6088 23.9811 34.85C23.9384 34.6772 23.8435 34.5218 23.7093 34.4049C23.5751 34.2881 23.4081 34.2155 23.2311 34.1971L21.2546 33.9677V31.9382L23.2487 31.6029C23.6017 31.5412 23.884 31.2765 23.9634 30.9324C24.1399 30.1824 24.4311 29.4677 24.8281 28.8147C25.0134 28.4971 24.9958 28.1 24.7664 27.8088L23.5222 26.2471L24.9605 24.8088L26.6105 25.9824C26.7511 26.0825 26.918 26.1393 27.0905 26.1456C27.263 26.1518 27.4336 26.1074 27.5811 26.0177C28.2252 25.6206 28.9399 25.3206 29.6987 25.1265C30.0517 25.0382 30.3075 24.7382 30.3517 24.3765L30.5722 22.3912H32.6193L32.9546 24.3853C33.0164 24.7382 33.2722 25.0206 33.6164 25.1C34.3664 25.2765 35.0811 25.5676 35.7428 25.9647C36.0605 26.15 36.4575 26.1235 36.7399 25.8941L38.2928 24.65L39.7311 26.0971L38.5664 27.7382C38.3811 28.0003 38.3431 28.3832 38.5311 28.7177C38.937 29.3794 39.2369 30.0941 39.4222 30.8265C39.5105 31.1794 39.8105 31.4441 40.1811 31.4882L42.1575 31.7088V33.7471Z" fill="#2166F3"/>
</svg>
