<svg width="58" height="58" viewBox="0 0 58 58" fill="none" xmlns="http://www.w3.org/2000/svg">
<path d="M52.4375 0.875H5.5625C4.3193 0.875 3.12701 1.36886 2.24794 2.24794C1.36886 3.12701 0.875 4.3193 0.875 5.5625V29.9375C0.875 31.1807 1.36886 32.373 2.24794 33.2521C3.12701 34.1311 4.3193 34.625 5.5625 34.625H15.9969L17.7688 36.4063C17.7688 36.5281 17.75 36.65 17.7594 36.7719C17.7963 37.2562 17.9288 37.7285 18.1493 38.1613C18.3697 38.5941 18.6737 38.979 19.0437 39.2937C18.9781 39.35 18.9125 39.4062 18.8469 39.4719C18.4679 39.8539 18.1748 40.3125 17.9873 40.8169C17.7997 41.3214 17.722 41.86 17.7594 42.3969C17.7963 42.8812 17.9288 43.3535 18.1493 43.7863C18.3697 44.2191 18.6737 44.604 19.0437 44.9187C18.9781 44.975 18.9125 45.0312 18.8469 45.0969C18.4679 45.4789 18.1748 45.9375 17.9873 46.4419C17.7997 46.9464 17.722 47.485 17.7594 48.0219C17.8537 48.9855 18.3073 49.8784 19.0299 50.5228C19.7525 51.1673 20.6913 51.5161 21.6594 51.5H22.0063C21.6274 52.149 21.4542 52.8975 21.5094 53.6469C21.6037 54.6105 22.0573 55.5034 22.7799 56.1478C23.5025 56.7923 24.4413 57.1411 25.4094 57.125H35.5625C35.6065 57.1265 35.6505 57.1234 35.6937 57.1156L47.9563 55.3625C48.1662 55.8821 48.5263 56.3274 48.9905 56.6413C49.4548 56.9553 50.0021 57.1237 50.5625 57.125H54.3125C55.0577 57.1228 55.7718 56.8257 56.2988 56.2988C56.8257 55.7718 57.1228 55.0577 57.125 54.3125V5.5625C57.125 4.3193 56.6311 3.12701 55.7521 2.24794C54.873 1.36886 53.6807 0.875 52.4375 0.875ZM18.8469 33.8469C18.6901 34.0174 18.546 34.1991 18.4156 34.3906L16.325 32.3094L18.4156 29.6187C18.5306 29.4723 18.5984 29.2944 18.6102 29.1086C18.6219 28.9228 18.5769 28.7378 18.4813 28.5781C17.9284 27.6231 17.5059 26.5984 17.225 25.5312C17.1748 25.3511 17.0723 25.19 16.9304 25.0681C16.7886 24.9463 16.6138 24.8693 16.4281 24.8469L13.0625 24.425V20.45L16.4281 20.0281C16.6138 20.0057 16.7886 19.9287 16.9304 19.8069C17.0723 19.685 17.1748 19.5239 17.225 19.3438C17.5059 18.2766 17.9284 17.2519 18.4813 16.2969C18.5769 16.1372 18.6219 15.9522 18.6102 15.7664C18.5984 15.5806 18.5306 15.4027 18.4156 15.2563L16.325 12.5656L19.1281 9.7625L21.8188 11.8531C21.9652 11.9681 22.1431 12.0359 22.3289 12.0477C22.5147 12.0594 22.6997 12.0144 22.8594 11.9187C23.8144 11.3659 24.8391 10.9434 25.9063 10.6625C26.0864 10.6123 26.2475 10.5098 26.3694 10.3679C26.4912 10.2261 26.5682 10.0513 26.5906 9.86563L27.0125 6.5H30.9875L31.4094 9.86563C31.4318 10.0513 31.5088 10.2261 31.6306 10.3679C31.7525 10.5098 31.9136 10.6123 32.0937 10.6625C33.1609 10.9434 34.1856 11.3659 35.1406 11.9187C35.3003 12.0144 35.4853 12.0594 35.6711 12.0477C35.8569 12.0359 36.0348 11.9681 36.1812 11.8531L38.8719 9.7625L41.675 12.5656L39.5844 15.2563C39.4694 15.4027 39.4016 15.5806 39.3898 15.7664C39.3781 15.9522 39.4231 16.1372 39.5188 16.2969C40.0716 17.2519 40.4941 18.2766 40.775 19.3438C40.8252 19.5239 40.9277 19.685 41.0696 19.8069C41.2114 19.9287 41.3862 20.0057 41.5719 20.0281L44.9375 20.45V24.425L41.5719 24.8469C41.3862 24.8693 41.2114 24.9463 41.0696 25.0681C40.9277 25.19 40.8252 25.3511 40.775 25.5312C40.6339 26.0639 40.4586 26.5869 40.25 27.0969V22.4375C40.2504 21.2335 39.7869 20.0757 38.9559 19.2045C38.1248 18.3333 36.9902 17.8158 35.7875 17.7594C35.5431 17.7485 35.2982 17.761 35.0562 17.7969L33.4156 16.1469L32.0844 17.4781L33.1156 18.5C32.8718 18.657 32.6427 18.8359 32.4312 19.0344C31.9407 19.5011 31.5499 20.0624 31.2825 20.6843C31.015 21.3063 30.8764 21.9761 30.875 22.6531V31.8125C30.875 32.0611 30.7762 32.2996 30.6004 32.4754C30.4246 32.6512 30.1861 32.75 29.9375 32.75H21.5C21.0074 32.7496 20.5195 32.8463 20.0643 33.0345C19.6091 33.2227 19.1954 33.4987 18.8469 33.8469ZM41.675 32.3094L41.6375 32.3469C41.3131 32.1556 41.0306 31.9009 40.8067 31.5981C40.5828 31.2953 40.4222 30.9506 40.3344 30.5844L41.675 32.3094ZM47.75 53.4969L35.4969 55.25H25.4094C24.9163 55.2617 24.4363 55.0912 24.061 54.7713C23.6857 54.4513 23.4415 54.0043 23.375 53.5156C23.3576 53.2465 23.398 52.9768 23.4934 52.7246C23.5888 52.4723 23.737 52.2434 23.9281 52.0531C24.1009 51.8781 24.3067 51.739 24.5336 51.6441C24.7605 51.5491 25.004 51.5002 25.25 51.5H31.8125C32.0611 51.5 32.2996 51.4012 32.4754 51.2254C32.6512 51.0496 32.75 50.8111 32.75 50.5625C32.75 50.3139 32.6512 50.0754 32.4754 49.8996C32.2996 49.7238 32.0611 49.625 31.8125 49.625H21.6594C21.1663 49.6367 20.6863 49.4662 20.311 49.1463C19.9357 48.8263 19.6915 48.3793 19.625 47.8906C19.6076 47.6215 19.648 47.3518 19.7434 47.0996C19.8388 46.8473 19.987 46.6184 20.1781 46.4281C20.3509 46.2531 20.5567 46.114 20.7836 46.0191C21.0105 45.9241 21.254 45.8752 21.5 45.875H31.8125C32.0611 45.875 32.2996 45.7762 32.4754 45.6004C32.6512 45.4246 32.75 45.1861 32.75 44.9375C32.75 44.6889 32.6512 44.4504 32.4754 44.2746C32.2996 44.0988 32.0611 44 31.8125 44H21.6594C21.1663 44.0117 20.6863 43.8412 20.311 43.5213C19.9357 43.2013 19.6915 42.7543 19.625 42.2656C19.6076 41.9965 19.648 41.7268 19.7434 41.4746C19.8388 41.2223 19.987 40.9934 20.1781 40.8031C20.3509 40.6281 20.5567 40.489 20.7836 40.3941C21.0105 40.2991 21.254 40.2502 21.5 40.25H31.8125C32.0611 40.25 32.2996 40.1512 32.4754 39.9754C32.6512 39.7996 32.75 39.5611 32.75 39.3125C32.75 39.0639 32.6512 38.8254 32.4754 38.6496C32.2996 38.4738 32.0611 38.375 31.8125 38.375H21.6594C21.1663 38.3867 20.6863 38.2162 20.311 37.8963C19.9357 37.5763 19.6915 37.1293 19.625 36.6406C19.6076 36.3715 19.648 36.1018 19.7434 35.8496C19.8388 35.5973 19.987 35.3684 20.1781 35.1781C20.3509 35.0031 20.5567 34.864 20.7836 34.7691C21.0105 34.6741 21.254 34.6252 21.5 34.625H29.9375C30.6827 34.6228 31.3968 34.3257 31.9238 33.7988C32.4507 33.2718 32.7478 32.5577 32.75 31.8125V22.6531C32.7514 22.2302 32.8385 21.8119 33.0061 21.4236C33.1737 21.0352 33.4182 20.6849 33.725 20.3937C33.9835 20.1382 34.2914 19.9382 34.63 19.806C34.9685 19.6739 35.3305 19.6122 35.6937 19.625C36.3909 19.6631 37.0505 19.9529 37.55 20.4406C38.0788 20.9706 38.3755 21.6888 38.375 22.4375V29.9375C38.375 31.1807 38.8689 32.373 39.7479 33.2521C40.627 34.1311 41.8193 34.625 43.0625 34.625H47.75V53.4969ZM55.25 31.0438C54.9494 30.9346 54.6323 30.8775 54.3125 30.875H50.5625C49.9826 30.878 49.4176 31.0596 48.9446 31.3951C48.4715 31.7306 48.1133 32.2037 47.9188 32.75H43.7844C43.8508 32.5973 43.8746 32.4295 43.8531 32.2644C43.8317 32.0993 43.7658 31.9431 43.6625 31.8125L41.4406 28.9625C41.8348 28.2151 42.1612 27.4339 42.4156 26.6281L45.9875 26.1781C46.2146 26.1507 46.4238 26.0412 46.5757 25.8702C46.7276 25.6993 46.8119 25.4787 46.8125 25.25V19.625C46.8119 19.3963 46.7276 19.1757 46.5757 19.0048C46.4238 18.8338 46.2146 18.7243 45.9875 18.6969L42.4156 18.2469C42.1612 17.4411 41.8348 16.6599 41.4406 15.9125L43.6625 13.0625C43.8016 12.882 43.8707 12.6572 43.8569 12.4297C43.8431 12.2022 43.7474 11.9874 43.5875 11.825L39.6125 7.85C39.4501 7.69008 39.2353 7.59438 39.0078 7.58059C38.7803 7.56681 38.5555 7.63587 38.375 7.775L35.525 9.99687C34.7776 9.60266 33.9964 9.27635 33.1906 9.02187L32.7406 5.45C32.7132 5.22294 32.6037 5.01375 32.4327 4.8618C32.2618 4.70985 32.0412 4.62563 31.8125 4.625H26.1875C25.9588 4.62563 25.7382 4.70985 25.5673 4.8618C25.3963 5.01375 25.2868 5.22294 25.2594 5.45L24.8094 9.02187C24.0036 9.27635 23.2224 9.60266 22.475 9.99687L19.625 7.775C19.4445 7.63587 19.2197 7.56681 18.9922 7.58059C18.7647 7.59438 18.5499 7.69008 18.3875 7.85L14.4125 11.825C14.2526 11.9874 14.1569 12.2022 14.1431 12.4297C14.1293 12.6572 14.1984 12.882 14.3375 13.0625L16.5594 15.9125C16.1652 16.6599 15.8388 17.4411 15.5844 18.2469L12.0125 18.6969C11.7854 18.7243 11.5762 18.8338 11.4243 19.0048C11.2724 19.1757 11.1881 19.3963 11.1875 19.625V25.25C11.1881 25.4787 11.2724 25.6993 11.4243 25.8702C11.5762 26.0412 11.7854 26.1507 12.0125 26.1781L15.5844 26.6281C15.8388 27.4339 16.1652 28.2151 16.5594 28.9625L14.3375 31.8125C14.2342 31.9431 14.1683 32.0993 14.1469 32.2644C14.1254 32.4295 14.1492 32.5973 14.2156 32.75H5.5625C4.81726 32.7478 4.10319 32.4507 3.57622 31.9238C3.04926 31.3968 2.75223 30.6827 2.75 29.9375V5.5625C2.75223 4.81726 3.04926 4.10319 3.57622 3.57622C4.10319 3.04926 4.81726 2.75223 5.5625 2.75H52.4375C53.1827 2.75223 53.8968 3.04926 54.4238 3.57622C54.9507 4.10319 55.2478 4.81726 55.25 5.5625V31.0438Z" fill="#2166F3"/>
<path d="M18.9622 23.1003L24.5872 28.7253L25.9128 27.3997L20.9506 22.4375L25.9128 17.4753L24.5872 16.1497L18.9622 21.7747C18.7864 21.9505 18.6877 22.1889 18.6877 22.4375C18.6877 22.6861 18.7864 22.9245 18.9622 23.1003ZM26.2166 29.7172L29.9741 14.7191L31.7919 15.1747L28.0344 30.1719L26.2166 29.7172ZM28.0625 8.375H29.9375V10.25H28.0625V8.375ZM18.3903 13.1572L19.7159 11.8316L21.0416 13.1572L19.7159 14.4828L18.3903 13.1572ZM14.9375 21.5H16.8125V23.375H14.9375V21.5ZM18.3875 31.7169L19.7141 30.3913L21.0397 31.7169L19.7141 33.0425L18.3875 31.7169ZM41.1875 21.5H43.0625V23.375H41.1875V21.5ZM36.95 13.1591L38.2756 11.8334L39.6012 13.1591L38.2756 14.4847L36.95 13.1591Z" fill="#2166F3"/>
</svg>
