<svg width="61" height="50" viewBox="0 0 61 50" fill="none" xmlns="http://www.w3.org/2000/svg">
<path d="M55.0254 7.50003H42.5254V4.99995C42.5254 2.24241 40.283 -9.15527e-05 37.5254 -9.15527e-05H22.5254C19.7679 -9.15527e-05 17.5254 2.24229 17.5254 4.99995V7.49991H5.02543C2.26777 7.50003 0.0253906 9.74241 0.0253906 12.4999V44.9999C0.0253906 47.7574 2.26777 49.9999 5.02543 49.9999H55.0255C57.783 49.9999 60.0255 47.7576 60.0255 44.9999V12.4999C60.0254 9.74241 57.783 7.50003 55.0254 7.50003ZM20.0254 4.99995C20.0254 3.62182 21.1473 2.49999 22.5254 2.49999H37.5254C38.9035 2.49999 40.0254 3.62182 40.0254 4.99995V7.49991H20.0254V4.99995ZM57.5254 45C57.5254 46.3781 56.4036 47.5 55.0255 47.5H5.02543C3.6473 47.5 2.52547 46.3781 2.52547 45V26.8047C3.26387 27.2352 4.11066 27.5001 5.02543 27.5001H25.0255V31.2501C25.0254 31.4143 25.0576 31.5768 25.1204 31.7286C25.1832 31.8803 25.2753 32.0181 25.3914 32.1342C25.5075 32.2503 25.6453 32.3424 25.797 32.4052C25.9487 32.468 26.1113 32.5002 26.2755 32.5001H33.7755C33.9397 32.5002 34.1023 32.468 34.254 32.4052C34.4057 32.3424 34.5436 32.2503 34.6597 32.1342C34.7758 32.0181 34.8678 31.8803 34.9306 31.7286C34.9934 31.5768 35.0257 31.4143 35.0255 31.2501V27.5001H55.0256C55.9404 27.5001 56.7873 27.2353 57.5255 26.8047V45H57.5254ZM27.5254 30V25H32.5255V30H27.5254ZM57.5254 22.5C57.5254 23.8782 56.4036 25 55.0255 25H35.0254V23.7499C35.0255 23.5858 34.9933 23.4232 34.9305 23.2715C34.8677 23.1197 34.7756 22.9819 34.6595 22.8658C34.5434 22.7497 34.4056 22.6576 34.2539 22.5948C34.1022 22.5321 33.9396 22.4998 33.7754 22.4999H26.2754C26.1112 22.4998 25.9486 22.5321 25.7969 22.5948C25.6452 22.6576 25.5073 22.7497 25.3912 22.8658C25.2751 22.9819 25.1831 23.1197 25.1203 23.2715C25.0575 23.4232 25.0252 23.5858 25.0254 23.7499V25H5.02543C3.6473 25 2.52547 23.8782 2.52547 22.5V12.5001C2.52547 11.1219 3.6473 10.0001 5.02543 10.0001H55.0255C56.4036 10.0001 57.5254 11.1219 57.5254 12.5001V22.5Z" fill="#2166F3"/>
</svg>
