<svg width="55" height="55" fill="none" xmlns="http://www.w3.org/2000/svg"><g clip-path="url(#a)" stroke="#2166F3" stroke-width="2.5" stroke-miterlimit="10"><path d="M38.386 10.656h9.281v27.271H7.334v-27.27h31.052zM50.99 44.344H4.011l-2.52-6.417h52.135l-2.636 6.417z"/><path d="M23.146 31.396V22c0-1.49-1.146-2.635-2.636-2.635-1.49 0-2.635 1.146-2.635 2.635v9.396m9.625-6.531h2.406c1.604 0 2.75-1.26 2.75-2.75s-1.26-2.75-2.75-2.75H27.5v5.5zm0 0v6.531m9.625 0V18.448m-13.98 7.792h-5.27"/></g><defs><clipPath id="a"><path fill="#fff" d="M0 0h55v55H0z"/></clipPath></defs></svg>