<svg width="36" height="34" viewBox="0 0 36 34" fill="none" xmlns="http://www.w3.org/2000/svg">
<path d="M29.2507 25.3334C29.2507 25.0019 29.119 24.6839 28.8845 24.4495C28.6501 24.2151 28.3322 24.0834 28.0007 24.0834C27.6691 24.0834 27.3512 24.2151 27.1168 24.4495C26.8823 24.6839 26.7507 25.0019 26.7507 25.3334H29.2507ZM26.7507 32.0001C26.7507 32.3316 26.8823 32.6495 27.1168 32.8839C27.3512 33.1184 27.6691 33.2501 28.0007 33.2501C28.3322 33.2501 28.6501 33.1184 28.8845 32.8839C29.119 32.6495 29.2507 32.3316 29.2507 32.0001H26.7507ZM6.52565 9.52173C6.36336 9.49656 6.1977 9.5036 6.03813 9.54245C5.87856 9.5813 5.7282 9.65121 5.59565 9.74817C5.32794 9.94398 5.14898 10.2381 5.09815 10.5659C5.07298 10.7282 5.08002 10.8938 5.11888 11.0534C5.15773 11.213 5.22763 11.3633 5.32459 11.4959C5.52041 11.7636 5.81455 11.9426 6.14232 11.9934L6.52565 9.52173ZM12.549 13.6451C12.7021 13.7044 12.8654 13.733 13.0295 13.7292C13.1937 13.7254 13.3554 13.6893 13.5056 13.623C13.6558 13.5567 13.7915 13.4614 13.9049 13.3427C14.0183 13.2239 14.1072 13.084 14.1665 12.9309C14.2258 12.7778 14.2544 12.6145 14.2506 12.4504C14.2468 12.2862 14.2107 12.1244 14.1444 11.9742C14.0781 11.824 13.9828 11.6884 13.8641 11.575C13.7453 11.4616 13.6054 11.3727 13.4523 11.3134L12.549 13.6451ZM19.2507 7.08839C19.2507 6.75687 19.119 6.43893 18.8845 6.20451C18.6501 5.97009 18.3322 5.83839 18.0007 5.83839C17.6691 5.83839 17.3512 5.97009 17.1168 6.20451C16.8823 6.43893 16.7507 6.75687 16.7507 7.08839H19.2507ZM18.0007 32.0001V33.2501C18.3322 33.2501 18.6501 33.1184 18.8845 32.8839C19.119 32.6495 19.2507 32.3316 19.2507 32.0001H18.0007ZM33.4173 20.3334C33.4173 20.6649 33.549 20.9829 33.7834 21.2173C34.0179 21.4517 34.3358 21.5834 34.6673 21.5834C34.9988 21.5834 35.3168 21.4517 35.5512 21.2173C35.7856 20.9829 35.9173 20.6649 35.9173 20.3334H33.4173ZM6.52565 16.1901C6.36201 16.1615 6.19433 16.1659 6.0324 16.203C5.87048 16.24 5.71755 16.3089 5.58257 16.4057C5.44759 16.5025 5.33325 16.6252 5.24625 16.7667C5.15924 16.9082 5.10131 17.0657 5.07583 17.2298C5.05036 17.3939 5.05785 17.5615 5.09788 17.7227C5.13791 17.8839 5.20967 18.0356 5.30896 18.1687C5.40825 18.3019 5.53309 18.4139 5.67618 18.4983C5.81927 18.5826 5.97773 18.6376 6.14232 18.6601L6.52565 16.1901ZM9.36232 19.3101C9.68389 19.391 10.0244 19.3408 10.309 19.1706C10.5936 19.0004 10.7989 18.7241 10.8798 18.4026C10.9607 18.081 10.9105 17.7404 10.7404 17.4559C10.5702 17.1713 10.2939 16.966 9.97232 16.8851L9.36232 19.3101ZM26.7507 25.3334V32.0001H29.2507V25.3334H26.7507ZM6.14232 11.9934C8.19065 12.3101 10.4523 12.8351 12.549 13.6451L13.4523 11.3134C11.1423 10.4201 8.69732 9.85839 6.52565 9.52173L6.14232 11.9934ZM16.7507 7.08839V32.0001H19.2507V7.08839H16.7507ZM4.51732 3.26173C8.14399 3.67006 12.8623 4.76339 16.144 7.06506L17.579 5.01673C13.784 2.35673 8.56565 1.20173 4.79898 0.776727L4.51732 3.26173ZM4.51732 28.8617C8.14399 29.2734 12.8623 30.3667 16.144 32.6667L17.579 30.6184C13.784 27.9584 8.56565 26.8051 4.79898 26.3784L4.51732 28.8617ZM0.0839844 5.22673V24.0001H2.58398V5.22506L0.0839844 5.22673ZM4.79898 26.3784C3.54898 26.2367 2.58398 25.1984 2.58398 24.0001H0.0839844C0.0839844 26.5717 2.10732 28.5917 4.51732 28.8651L4.79898 26.3784ZM4.79898 0.776727C2.11232 0.471727 0.0839844 2.71506 0.0839844 5.22673L2.58398 5.22506C2.58398 3.96339 3.54398 3.15339 4.51732 3.26173L4.79898 0.776727ZM31.204 0.778394C27.4373 1.20339 22.219 2.35839 18.4207 5.01839L19.8573 7.06673C23.1407 4.76673 27.8573 3.67173 31.484 3.26339L31.204 0.778394ZM33.4173 5.22839V20.3334H35.9173V5.22506L33.4173 5.22839ZM31.484 3.26339C32.4573 3.15506 33.4173 3.96673 33.4173 5.22839H35.9173C35.9173 2.71673 33.8907 0.475061 31.2023 0.778394L31.484 3.26339ZM16.144 7.06506C17.2557 7.84339 18.7457 7.84506 19.8573 7.06673L18.4223 5.01839C18.2984 5.10405 18.1513 5.14992 18.0007 5.14992C17.85 5.14992 17.7029 5.10238 17.579 5.01673L16.144 7.06506ZM16.144 32.6667C16.7023 33.0584 17.354 33.2501 18.0007 33.2501V30.7517C17.8499 30.7522 17.7027 30.7062 17.579 30.6201L16.144 32.6667ZM6.14398 18.6617C7.17398 18.8217 8.26398 19.0334 9.36065 19.3117L9.97232 16.8867C8.83485 16.6012 7.68472 16.3687 6.52565 16.1901L6.14398 18.6617ZM29.6673 20.3334C29.6673 20.7754 29.4917 21.1993 29.1792 21.5119C28.8666 21.8245 28.4427 22.0001 28.0007 22.0001C27.5586 22.0001 27.1347 21.8245 26.8221 21.5119C26.5096 21.1993 26.334 20.7754 26.334 20.3334C26.334 19.8914 26.5096 19.4674 26.8221 19.1549C27.1347 18.8423 27.5586 18.6667 28.0007 18.6667C28.4427 18.6667 28.8666 18.8423 29.1792 19.1549C29.4917 19.4674 29.6673 19.8914 29.6673 20.3334Z" fill="#7B7B7B"/>
</svg>
