<svg width="46" height="46" fill="none" xmlns="http://www.w3.org/2000/svg"><path fill-rule="evenodd" clip-rule="evenodd" d="M13.236 1.612c-6.41 0-11.625 5.215-11.625 11.625S6.826 24.86 13.236 24.86c6.409 0 11.624-5.215 11.624-11.624 0-6.41-5.216-11.625-11.624-11.625zm0 24.225c-6.95 0-12.601-5.652-12.601-12.6C.635 6.289 6.287.636 13.235.636c6.95 0 12.602 5.653 12.602 12.6 0 6.948-5.653 12.601-12.6 12.601h-.001z" fill="#111" stroke="#111" stroke-width=".5"/><path fill-rule="evenodd" clip-rule="evenodd" d="M13.236 16.514c-1.245 0-2.397-.658-3.245-1.853a2.696 2.696 0 0 0-.07-.08c-.237-.267-.372-.479-.424-1.013-.334-.03-.66-.186-.946-.461-.639-.616-.91-1.635-.632-2.37.215-.568.73-.91 1.414-.94a.49.49 0 0 1 .38.818.489.489 0 0 1-.338.158c-.387.016-.495.184-.542.308-.138.367.046.985.396 1.323.28.268.476.185.543.158a.488.488 0 0 1 .677.446c.007.704.06.764.201.924.032.035.067.074.102.117.01.01.018.02.026.032.66.939 1.533 1.457 2.457 1.457.925 0 1.799-.518 2.46-1.457.008-.011.015-.022.025-.032.035-.043.069-.082.1-.117.144-.16.196-.22.203-.924a.487.487 0 0 1 .677-.446c.065.027.263.111.543-.158.35-.338.534-.956.395-1.323-.047-.124-.155-.292-.541-.308a.49.49 0 0 1 .041-.976c.684.03 1.198.372 1.413.94.28.735.007 1.754-.63 2.37-.286.275-.613.43-.947.46-.052.535-.186.747-.425 1.015l-.069.079c-.847 1.195-1.999 1.854-3.245 1.853z" fill="#111" stroke="#111" stroke-width=".5"/><path fill-rule="evenodd" clip-rule="evenodd" d="M14.687 7.239c.072 0 .144.016.21.048a1.743 1.743 0 0 1 .94 1.163c.121.817.302.992.511 1.194.125.119.238.237.337.388.353-1.081.418-2.344.114-3.22-.322-.927-2.398-2.235-3.54-2.235h-.031c-.871-.01-1.94.29-2.334 1.163a.485.485 0 0 1-.435.288c-.102.002-.408.008-.666.496-.395.747-.425 2.22-.01 3.508.1-.15.213-.27.336-.388.21-.202.392-.377.513-1.194a.536.536 0 0 1 .012-.06 1.752 1.752 0 0 1 .927-1.103.49.49 0 0 1 .654.233c.1.216.535.38 1.009.38.475 0 .909-.164 1.01-.38a.485.485 0 0 1 .443-.281zm-4.783 4.686a.489.489 0 0 1-.409-.22c-1.044-1.6-1.308-4.234-.565-5.638.284-.537.705-.876 1.205-.98.652-1.109 2.004-1.497 3.1-1.486l.02-.001c1.457 0 3.964 1.445 4.467 2.892.517 1.488.187 3.778-.75 5.212a.488.488 0 0 1-.895-.234c-.054-.785-.202-.927-.405-1.123-.341-.329-.638-.686-.796-1.719a.756.756 0 0 0-.115-.226c-.413.342-1.014.474-1.526.474-.513 0-1.114-.132-1.527-.474a.767.767 0 0 0-.116.226c-.158 1.033-.454 1.39-.796 1.72-.204.195-.351.337-.404 1.122a.487.487 0 0 1-.488.455zM5.006 22.613c-.016 0-.032 0-.05-.002a.488.488 0 0 1-.436-.536c.16-1.592.448-3.332 1.834-3.845l4.166-1.542a.487.487 0 0 1 .523.121 3.038 3.038 0 0 0 2.19.94 3.037 3.037 0 0 0 2.192-.94.491.491 0 0 1 .523-.12l4.167 1.541.015.006c1.387.568 1.667 2.28 1.82 3.84a.488.488 0 1 1-.97.097c-.127-1.274-.335-2.663-1.213-3.03l-3.87-1.433a4.028 4.028 0 0 1-2.663 1.016 4.022 4.022 0 0 1-2.662-1.015l-3.879 1.435c-.817.302-1.06 1.634-1.201 3.028a.487.487 0 0 1-.486.438z" fill="#111" stroke="#111" stroke-width=".5"/><path fill-rule="evenodd" clip-rule="evenodd" d="M15.78 17.635a.487.487 0 0 1-.488-.489v-2.383a.488.488 0 1 1 .976 0v2.383c0 .27-.219.489-.488.489zm-5.09 0a.488.488 0 0 1-.488-.489v-2.383a.488.488 0 1 1 .977 0v2.383c0 .27-.219.489-.488.489zm-2.515 7.098a.488.488 0 0 1-.488-.488v-2.102a.488.488 0 1 1 .976 0v2.102c0 .27-.217.488-.488.488zm10.12 0a.488.488 0 0 1-.488-.488v-2.102a.488.488 0 0 1 .977 0v2.102c0 .27-.219.488-.488.488zm14.468-3.593c-6.41 0-11.624 5.215-11.624 11.624 0 6.41 5.214 11.624 11.624 11.624s11.624-5.214 11.624-11.624S39.173 21.14 32.763 21.14zm0 24.225c-6.948 0-12.6-5.653-12.6-12.6 0-6.949 5.652-12.602 12.6-12.602 6.948 0 12.6 5.653 12.6 12.601 0 6.948-5.652 12.6-12.6 12.6z" fill="#111" stroke="#111" stroke-width=".5"/><path fill-rule="evenodd" clip-rule="evenodd" d="M32.763 36.042c-1.246 0-2.398-.658-3.245-1.854a2.512 2.512 0 0 0-.07-.079c-.237-.267-.372-.48-.423-1.014-.335-.029-.662-.185-.947-.461-.638-.615-.91-1.635-.631-2.37.214-.567.73-.91 1.412-.94a.489.489 0 1 1 .042.976c-.386.017-.494.184-.542.309-.138.367.047.985.396 1.322.28.27.478.186.543.159a.488.488 0 0 1 .678.445c.006.704.059.764.201.924.033.035.067.074.102.117.01.01.017.021.025.032.66.94 1.534 1.457 2.46 1.457.924 0 1.796-.518 2.457-1.456a3.796 3.796 0 0 1 .127-.15c.143-.16.195-.22.202-.924a.486.486 0 0 1 .677-.445c.065.027.263.11.543-.159.349-.337.534-.955.396-1.321-.048-.125-.155-.293-.542-.31a.489.489 0 0 1-.468-.508.492.492 0 0 1 .51-.467c.683.03 1.199.372 1.412.939.28.735.007 1.755-.63 2.37-.286.276-.613.431-.946.46-.053.536-.188.748-.425 1.015a3.86 3.86 0 0 0-.07.08c-.847 1.195-1.999 1.853-3.244 1.853z" fill="#111" stroke="#111" stroke-width=".5"/><path fill-rule="evenodd" clip-rule="evenodd" d="M34.214 26.766c.073 0 .144.017.21.048a1.748 1.748 0 0 1 .928 1.104c.006.02.01.04.013.06.12.817.302.992.511 1.193.125.12.238.238.337.389.352-1.081.418-2.344.114-3.219-.322-.929-2.397-2.236-3.54-2.236h-.03c-.872-.01-1.942.29-2.335 1.163a.488.488 0 0 1-.436.289c-.1 0-.408.007-.665.494-.395.748-.425 2.222-.01 3.509.099-.15.213-.27.336-.389.21-.201.391-.376.512-1.193a.584.584 0 0 1 .013-.06 1.751 1.751 0 0 1 .927-1.104.489.489 0 0 1 .653.234c.101.217.536.38 1.01.38s.909-.163 1.01-.38a.487.487 0 0 1 .442-.282zm1.878 4.688a.488.488 0 0 1-.487-.456c-.054-.785-.202-.927-.405-1.123-.342-.329-.638-.685-.796-1.72a.773.773 0 0 0-.116-.225c-.413.342-1.013.474-1.526.474-.513 0-1.114-.132-1.527-.474a.789.789 0 0 0-.115.226c-.158 1.034-.454 1.39-.796 1.719-.205.196-.35.338-.405 1.123a.488.488 0 0 1-.895.234c-1.045-1.599-1.309-4.233-.567-5.636.284-.538.705-.877 1.206-.982.642-1.09 1.959-1.485 3.049-1.485h.07c1.459 0 3.965 1.444 4.468 2.892.517 1.487.188 3.777-.75 5.211a.49.49 0 0 1-.408.222zM24.534 42.14a.488.488 0 0 1-.487-.538c.162-1.59.45-3.333 1.835-3.845l4.166-1.542a.492.492 0 0 1 .523.12 3.034 3.034 0 0 0 2.192.94c.824 0 1.622-.342 2.19-.94a.493.493 0 0 1 .523-.12l4.167 1.542.014.006c1.387.569 1.668 2.28 1.821 3.84a.489.489 0 1 1-.971.097c-.126-1.274-.334-2.663-1.213-3.03l-3.87-1.433a4.017 4.017 0 0 1-2.662 1.015c-.98 0-1.934-.366-2.663-1.015l-3.877 1.435c-.818.303-1.062 1.635-1.203 3.029a.488.488 0 0 1-.485.44z" fill="#111" stroke="#111" stroke-width=".5"/><path fill-rule="evenodd" clip-rule="evenodd" d="M35.307 37.163a.489.489 0 0 1-.489-.489V34.29a.487.487 0 1 1 .977 0v2.384c0 .27-.219.489-.488.489zm-5.09 0a.488.488 0 0 1-.488-.489V34.29a.485.485 0 0 1 .488-.489.488.488 0 0 1 .488.489v2.384c0 .27-.218.489-.487.489zm-2.514 7.097a.487.487 0 0 1-.489-.488V41.67a.488.488 0 0 1 .977 0v2.1c0 .271-.219.49-.488.49zm10.12 0a.489.489 0 0 1-.489-.488V41.67a.489.489 0 0 1 .976 0v2.1c0 .271-.218.49-.488.49zm-21.127-2.344A11.335 11.335 0 0 1 5.36 30.361a.487.487 0 1 1 .975.018 10.361 10.361 0 0 0 11.542 10.494.487.487 0 0 1 .438.788.485.485 0 0 1-.326.182c-.43.049-.861.073-1.293.073z" fill="#111" stroke="#111" stroke-width=".5"/><path fill-rule="evenodd" clip-rule="evenodd" d="M3.527 33.064a.489.489 0 0 1-.336-.842l2.32-2.205a.487.487 0 0 1 .615-.046l2.503 1.747a.487.487 0 0 1-.383.883.488.488 0 0 1-.176-.083L5.894 31l-2.03 1.93a.49.49 0 0 1-.337.134zM40.15 16.12h-.01a.49.49 0 0 1-.48-.498A10.36 10.36 0 0 0 28.12 5.128a.488.488 0 1 1-.111-.97A11.338 11.338 0 0 1 40.638 15.64a.488.488 0 0 1-.488.479z" fill="#111" stroke="#111" stroke-width=".5"/><path fill-rule="evenodd" clip-rule="evenodd" d="M40.151 16.119a.488.488 0 0 1-.28-.089l-2.502-1.747a.49.49 0 0 1-.121-.68.49.49 0 0 1 .68-.12l2.175 1.519 2.03-1.931a.489.489 0 0 1 .673.708l-2.319 2.205a.489.489 0 0 1-.336.135z" fill="#111" stroke="#111" stroke-width=".5"/></svg>