<svg width="40" height="40" viewBox="0 0 40 40" fill="none" xmlns="http://www.w3.org/2000/svg">
<g clip-path="url(#clip0_176_904)">
<path d="M37.7635 9.76745C37.7635 7.95807 36.2916 6.48619 34.4822 6.48619C33.5533 6.48619 32.7137 6.87502 32.1162 7.4976L19.3113 0.104602C19.1926 0.0360755 19.0579 0 18.9209 0C18.7838 0 18.6491 0.0360755 18.5304 0.104602L5.72502 7.49768C5.1276 6.87502 4.28838 6.48619 3.35939 6.48619C1.55001 6.48619 0.078125 7.95807 0.078125 9.76745C0.078125 11.3074 1.14469 12.6023 2.57814 12.9539V27.7345C2.57814 28.0134 2.72704 28.2713 2.96876 28.411L15.7698 35.8019C15.6827 36.0998 15.6386 36.4085 15.6385 36.7189C15.6385 38.528 17.1104 40.0001 18.9198 40.0001C20.7288 40.0001 22.2007 38.528 22.2007 36.7189C22.2007 36.4009 22.1546 36.0939 22.0698 35.8027L34.873 28.411C35.1146 28.2716 35.2636 28.0134 35.2636 27.7345V12.9539C36.6969 12.6023 37.7636 11.3074 37.7636 9.76745H37.7635ZM1.64063 9.76745C1.64063 8.81964 2.41149 8.0487 3.35939 8.0487C4.30697 8.0487 5.07783 8.81964 5.07783 9.76745C5.07783 10.7151 4.30697 11.4862 3.35939 11.4862C2.41149 11.4862 1.64063 10.7151 1.64063 9.76745ZM18.9198 38.4376C17.9719 38.4376 17.201 37.6668 17.201 36.7189C17.201 35.7713 17.9719 35.0001 18.9198 35.0001C19.8673 35.0001 20.6385 35.7713 20.6385 36.7189C20.6385 37.6668 19.8673 38.4376 18.9198 38.4376ZM21.2873 34.4505C20.6895 33.8271 19.8496 33.4376 18.9198 33.4376C17.9905 33.4376 17.1506 33.8267 16.5531 34.4496L4.14064 27.2835V12.9539C5.57377 12.6023 6.64034 11.3074 6.64034 9.76745C6.64034 9.44886 6.59393 9.14089 6.50885 8.84925L18.9206 1.68336L31.3329 8.84925C31.2457 9.14751 31.2014 9.45669 31.2014 9.76745C31.2014 11.3074 32.2679 12.6023 33.7011 12.9539V27.2835L21.2873 34.4505ZM34.4822 11.4862C33.5346 11.4862 32.7634 10.7151 32.7634 9.76745C32.7634 8.81964 33.5346 8.0487 34.4822 8.0487C35.4301 8.0487 36.2009 8.81964 36.2009 9.76745C36.2009 10.7151 35.4301 11.4862 34.4822 11.4862Z" fill="#7B7B7B"/>
<path d="M29.6248 12.1193L19.3122 6.16564C19.1935 6.09711 19.0588 6.06104 18.9218 6.06104C18.7847 6.06104 18.65 6.09711 18.5313 6.16564L8.21875 12.1193C7.97703 12.2591 7.82812 12.517 7.82812 12.7959V24.7036C7.82812 24.9825 7.97703 25.2407 8.21875 25.3802L18.5313 31.3342C18.6521 31.4037 18.7867 31.4389 18.9216 31.4389C19.0568 31.4389 19.1914 31.4037 19.3122 31.3342L29.6248 25.3802C29.8664 25.2407 30.0154 24.9826 30.0154 24.7036V12.7959C30.0154 12.517 29.8664 12.2591 29.6248 12.1193ZM18.9216 7.74432L27.6716 12.7959L18.9216 17.8478L10.1719 12.7959L18.9216 7.74432ZM19.7029 29.3045V25.7812C19.7029 25.3497 19.3531 24.9999 18.9216 24.9999C18.4904 24.9999 18.1407 25.3497 18.1407 25.7812V29.3045L9.39063 24.2526V14.149L18.5313 19.4265C18.6521 19.496 18.7867 19.5312 18.9216 19.5312C19.0568 19.5312 19.1914 19.496 19.3122 19.4265L28.4529 14.1491V24.2526L19.7029 29.3045Z" fill="#7B7B7B"/>
<path d="M18.9209 21.4844C18.7135 21.4849 18.5147 21.5672 18.3676 21.7133C18.2216 21.8601 18.1393 22.0586 18.1387 22.2656C18.1394 22.4726 18.2216 22.6709 18.3676 22.8177C18.5147 22.9638 18.7135 23.0462 18.9209 23.0469C19.1262 23.0469 19.3279 22.9633 19.4732 22.8177C19.6191 22.6709 19.7014 22.4726 19.7021 22.2656C19.7021 22.0599 19.6185 21.8586 19.4732 21.7133C19.3264 21.5672 19.1279 21.485 18.9209 21.4844Z" fill="#7B7B7B"/>
</g>
<defs>
<clipPath id="clip0_176_904">
<rect width="40" height="40" fill="white"/>
</clipPath>
</defs>
</svg>
