<svg width="18" height="19" viewBox="0 0 18 19" fill="none" xmlns="http://www.w3.org/2000/svg">
<path d="M14.6979 1.22908C12.3219 3.02008 9.18095 6.30508 6.76895 9.51809C6.29195 10.1571 5.88695 10.6701 5.85995 10.6701C5.83295 10.6701 4.93295 10.0041 3.87095 9.18509C2.80895 8.37508 1.87295 7.70008 1.80095 7.70008C1.62095 7.70008 0.369947 9.03209 0.306947 9.29309C0.261947 9.45509 0.567947 9.98609 1.68395 11.6781C3.32195 14.1711 4.32995 15.7731 5.14895 17.1951C5.76995 18.2661 5.97695 18.4191 6.25595 18.0321C6.33695 17.9151 6.76895 17.1591 7.21895 16.3401C10.4139 10.5351 14.1489 5.13508 17.1639 1.94008C18.0909 0.950083 17.9739 0.770082 16.4169 0.770082H15.3099L14.6979 1.22908Z" fill="#2166F3"/>
</svg>
