<svg width="48" height="50" viewBox="0 0 48 50" fill="none" xmlns="http://www.w3.org/2000/svg">
<g clip-path="url(#clip0_176_966)">
<path d="M24.0007 8.33325C20.8983 8.33325 17.8655 9.31073 15.2859 11.1421C12.7063 12.9734 10.6958 15.5764 9.50851 18.6219C8.32125 21.6673 8.01061 25.0184 8.61587 28.2514C9.22113 31.4844 10.7151 34.4542 12.9089 36.785C15.1026 39.1159 17.8977 40.7033 20.9405 41.3463C23.9833 41.9894 27.1373 41.6594 30.0036 40.3979C32.8699 39.1365 35.3198 37.0002 37.0434 34.2594C38.767 31.5186 39.687 28.2963 39.687 24.9999C39.6822 20.5812 38.028 16.3449 35.0873 13.2204C32.1466 10.0959 28.1595 8.33832 24.0007 8.33325ZM24.0007 39.9999C21.2085 39.9999 18.479 39.1202 16.1574 37.472C13.8358 35.8237 12.0263 33.4811 10.9577 30.7402C9.8892 27.9993 9.60962 24.9833 10.1544 22.0736C10.6991 19.1638 12.0437 16.4911 14.0181 14.3933C15.9924 12.2955 18.508 10.8669 21.2465 10.2881C23.9851 9.70936 26.8237 10.0064 29.4033 11.1417C31.983 12.277 34.1879 14.1996 35.7391 16.6664C37.2904 19.1331 38.1184 22.0332 38.1184 24.9999C38.114 28.9767 36.6252 32.7894 33.9786 35.6014C31.332 38.4134 27.7436 39.9953 24.0007 39.9999Z" fill="#2166F3" stroke="#2166F3" stroke-width="0.5"/>
<path d="M47.4119 22.64C47.3525 22.1391 47.1418 21.6722 46.8115 21.3093C46.4811 20.9464 46.0489 20.7072 45.5797 20.6275L43.0833 20.1933C42.6018 18.0275 41.7935 15.9587 40.6895 14.0675L42.164 11.8792C42.4454 11.4689 42.5932 10.9724 42.585 10.4648C42.5768 9.95726 42.413 9.46639 42.1185 9.06666C41.6532 8.45765 41.1557 7.87727 40.6284 7.32833C40.105 6.76692 39.5553 6.23402 38.9813 5.73166C38.6061 5.4235 38.1465 5.25362 37.6723 5.24776C37.1981 5.24189 36.7349 5.40036 36.3531 5.69916L34.2903 7.26833C32.5103 6.09539 30.5633 5.2365 28.5248 4.725L28.1162 2.07333C28.0411 1.57275 27.8147 1.11177 27.4711 0.760095C27.1275 0.408422 26.6855 0.18519 26.2119 0.124162C24.7388 -0.0449681 23.2528 -0.0449681 21.7797 0.124162C21.3083 0.187248 20.8688 0.411088 20.5273 0.762088C20.1858 1.11309 19.9606 1.57231 19.8856 2.07083L19.477 4.725C17.4385 5.2365 15.4915 6.09539 13.7115 7.26833L11.6519 5.70166C11.2668 5.40085 10.7996 5.24231 10.3217 5.25029C9.84386 5.25826 9.38158 5.43231 9.0056 5.74583C8.43805 6.24054 7.8946 6.76566 7.37737 7.31916C6.84469 7.87363 6.34242 8.46015 5.87306 9.07583C5.58165 9.47498 5.42037 9.96403 5.41358 10.4691C5.40679 10.9743 5.55485 11.468 5.83541 11.8758L7.31227 14.0675C6.20833 15.9587 5.39996 18.0275 4.91855 20.1933L2.42286 20.6275C1.95173 20.7073 1.51786 20.9479 1.18687 21.3129C0.855888 21.678 0.645787 22.1476 0.588349 22.6508C0.431488 24.217 0.431488 25.7964 0.588349 27.3625C0.648198 27.8629 0.859082 28.3293 1.18939 28.6917C1.51971 29.054 1.95166 29.2929 2.42051 29.3725L4.91698 29.8067C5.39839 31.9725 6.20676 34.0413 7.3107 35.9325L5.84482 38.1117C5.56036 38.5219 5.41013 39.0199 5.41707 39.5294C5.42401 40.0389 5.58774 40.532 5.88325 40.9333C6.32325 41.5058 6.82443 42.0908 7.37345 42.6717C7.89388 43.2363 8.44376 43.7693 9.02051 44.2683C9.39433 44.5799 9.85436 44.7519 10.3294 44.7578C10.8045 44.7637 11.2682 44.6031 11.6487 44.3008L13.7107 42.7317C15.4907 43.9046 17.4377 44.7635 19.4762 45.275L19.8848 47.9267C19.9599 48.4272 20.1864 48.8882 20.5299 49.2399C20.8735 49.5916 21.3155 49.8148 21.7891 49.8758C23.2624 50.0425 24.7481 50.0425 26.2213 49.8758C26.6927 49.8127 27.1322 49.5889 27.4737 49.2379C27.8152 48.8869 28.0404 48.4277 28.1154 47.9292L28.524 45.2767C30.5625 44.7652 32.5095 43.9063 34.2895 42.7333L36.3491 44.3C36.7347 44.6055 37.2049 44.7661 37.6858 44.7566C38.1667 44.7471 38.631 44.568 39.0056 44.2475C39.5749 43.7555 40.1179 43.2302 40.6323 42.6742C41.1797 42.0925 41.6806 41.5069 42.135 40.9175C42.424 40.5185 42.5833 40.0305 42.5888 39.5271C42.5943 39.0236 42.4458 38.5319 42.1656 38.1258L40.6887 35.9342C41.7927 34.0429 42.6011 31.9742 43.0825 29.8083L45.5782 29.3742C46.0493 29.2944 46.4832 29.0538 46.8141 28.6887C47.1451 28.3237 47.3552 27.854 47.4127 27.3508C47.5685 25.7891 47.5685 24.2142 47.4127 22.6525L47.4119 22.64ZM45.8534 27.1667C45.8318 27.3069 45.769 27.4363 45.6741 27.5364C45.5792 27.6365 45.4569 27.7022 45.3248 27.7242L42.3052 28.25C42.1487 28.2774 42.0036 28.3546 41.8892 28.4714C41.7748 28.5881 41.6964 28.7391 41.6644 28.9042C41.2063 31.2562 40.332 33.4945 39.088 35.5C39.0012 35.6406 38.9565 35.8057 38.9598 35.9738C38.963 36.1419 39.014 36.3049 39.106 36.4417L40.8997 39.1083C40.9772 39.2198 41.0196 39.3543 41.021 39.4928C41.0224 39.6313 40.9827 39.7668 40.9076 39.88C40.472 40.4428 40.01 40.9818 39.5233 41.495C39.0482 42.009 38.5468 42.4947 38.0213 42.95C37.913 43.0388 37.78 43.087 37.6433 43.087C37.5065 43.087 37.3735 43.0388 37.2652 42.95L34.7719 41.0542C34.6432 40.9564 34.4897 40.9022 34.3315 40.8988C34.1734 40.8954 34.0179 40.9429 33.8856 41.035C31.9981 42.3568 29.8915 43.2858 27.6778 43.7725C27.5224 43.8065 27.3803 43.8898 27.2704 44.0113C27.1605 44.1329 27.0878 44.287 27.0621 44.4533L26.5672 47.6625C26.55 47.8021 26.4907 47.932 26.3983 48.0327C26.3058 48.1335 26.1851 48.1998 26.0542 48.2217C24.6926 48.3767 23.3194 48.3767 21.9578 48.2217C21.8249 48.2013 21.7019 48.1355 21.6075 48.0341C21.5131 47.9327 21.4524 47.8014 21.4346 47.66L20.9397 44.4517C20.914 44.2853 20.8413 44.1312 20.7314 44.0097C20.6215 43.8881 20.4794 43.8048 20.324 43.7708C18.1109 43.2828 16.0051 42.3527 14.1185 41.03C13.9862 40.9378 13.8308 40.8904 13.6726 40.8938C13.5144 40.8972 13.3609 40.9514 13.2323 41.0492L10.7366 42.9475C10.6335 43.0335 10.5073 43.0822 10.3763 43.0864C10.2453 43.0905 10.1165 43.0501 10.0087 42.9708C9.4729 42.5097 8.96251 42.0161 8.48011 41.4925C7.99879 40.9853 7.54174 40.4526 7.1107 39.8967C7.02869 39.781 6.98433 39.6402 6.98433 39.4954C6.98433 39.3506 7.02869 39.2098 7.1107 39.0942L8.89502 36.4442C8.98706 36.3075 9.03803 36.1444 9.04125 35.9763C9.04447 35.8082 8.99978 35.6431 8.91305 35.5025C7.669 33.497 6.79469 31.2587 6.33658 28.9067C6.30458 28.7416 6.2262 28.5906 6.1118 28.4739C5.9974 28.3571 5.85235 28.2799 5.6958 28.2525L2.67541 27.7267C2.54517 27.7054 2.42443 27.6415 2.33008 27.5438C2.23572 27.446 2.17246 27.3195 2.14913 27.1817C2.00376 25.7349 2.00376 24.2759 2.14913 22.8292C2.16828 22.688 2.23026 22.5573 2.32567 22.457C2.42108 22.3567 2.54471 22.2922 2.67776 22.2733L5.69737 21.7475C5.85392 21.7201 5.99897 21.6429 6.11337 21.5261C6.22777 21.4093 6.30615 21.2584 6.33815 21.0933C6.7963 18.7422 7.67034 16.5048 8.91384 14.5C9.00057 14.3594 9.04526 14.1943 9.04204 14.0262C9.03882 13.8581 8.98784 13.695 8.8958 13.5583L7.10913 10.9025C7.02968 10.7905 6.98548 10.6548 6.9828 10.5146C6.98013 10.3745 7.01912 10.2369 7.09423 10.1217C7.5257 9.55517 7.98792 9.01592 8.47854 8.50666C8.95577 7.99505 9.45707 7.50942 9.98051 7.05166C10.0894 6.96432 10.2221 6.91708 10.3585 6.91708C10.495 6.91708 10.6277 6.96432 10.7366 7.05166L13.2299 8.9475C13.3586 9.04529 13.5121 9.09945 13.6703 9.10287C13.8284 9.10629 13.9839 9.05881 14.1162 8.96666C16.0037 7.64486 18.1103 6.7159 20.324 6.22916C20.4794 6.19516 20.6215 6.11188 20.7314 5.99033C20.8413 5.86878 20.914 5.71466 20.9397 5.54833L21.4346 2.33916C21.4518 2.1996 21.5111 2.06971 21.6035 1.96892C21.696 1.86812 21.8167 1.80184 21.9476 1.78C23.3092 1.625 24.6824 1.625 26.044 1.78C26.1769 1.80034 26.2999 1.8662 26.3943 1.96757C26.4887 2.06894 26.5494 2.20029 26.5672 2.34166L27.0621 5.55C27.0878 5.71633 27.1605 5.87044 27.2704 5.992C27.3803 6.11355 27.5224 6.19683 27.6778 6.23083C29.8908 6.71838 31.9966 7.64789 33.8833 8.97C34.0156 9.06215 34.171 9.10963 34.3292 9.10621C34.4874 9.10279 34.6409 9.04862 34.7695 8.95083L37.2652 7.0525C37.3706 6.9669 37.4989 6.91929 37.6315 6.91659C37.7641 6.91389 37.8941 6.95625 38.0025 7.0375C38.535 7.5025 39.0449 7.99591 39.5303 8.51583C40.0148 9.01963 40.4715 9.55274 40.8982 10.1125C40.9767 10.2284 41.0181 10.3681 41.0162 10.511C41.0144 10.6538 40.9694 10.7922 40.888 10.9058L39.1036 13.5558C39.0116 13.6925 38.9606 13.8556 38.9574 14.0237C38.9542 14.1918 38.9989 14.3569 39.0856 14.4975C40.3297 16.503 41.204 18.7413 41.6621 21.0933C41.6941 21.2584 41.7725 21.4093 41.8869 21.5261C42.0013 21.6429 42.1463 21.7201 42.3029 21.7475L45.3233 22.2733C45.4553 22.2923 45.5781 22.3562 45.6731 22.4555C45.7681 22.5548 45.8303 22.6842 45.8503 22.8242C45.9952 24.2684 45.9952 25.7249 45.8503 27.1692L45.8534 27.1667Z" fill="#2166F3" stroke="#2166F3" stroke-width="0.5"/>
<path d="M16.1587 20.8334C16.5748 20.8334 16.9738 21.009 17.2679 21.3216C17.5621 21.6341 17.7274 22.0581 17.7274 22.5001C17.7274 22.7211 17.81 22.9331 17.9571 23.0894C18.1042 23.2456 18.3037 23.3334 18.5117 23.3334C18.7197 23.3334 18.9192 23.2456 19.0663 23.0894C19.2134 22.9331 19.296 22.7211 19.296 22.5001C19.296 21.616 18.9655 20.7682 18.3771 20.1431C17.7888 19.518 16.9908 19.1668 16.1587 19.1668C15.3267 19.1668 14.5287 19.518 13.9404 20.1431C13.352 20.7682 13.0215 21.616 13.0215 22.5001V27.5001C13.0215 28.3842 13.352 29.232 13.9404 29.8571C14.5287 30.4822 15.3267 30.8334 16.1587 30.8334C16.9908 30.8334 17.7888 30.4822 18.3771 29.8571C18.9655 29.232 19.296 28.3842 19.296 27.5001C19.296 27.2791 19.2134 27.0671 19.0663 26.9108C18.9192 26.7546 18.7197 26.6668 18.5117 26.6668C18.3037 26.6668 18.1042 26.7546 17.9571 26.9108C17.81 27.0671 17.7274 27.2791 17.7274 27.5001C17.7274 27.9421 17.5621 28.3661 17.2679 28.6786C16.9738 28.9912 16.5748 29.1668 16.1587 29.1668C15.7427 29.1668 15.3437 28.9912 15.0496 28.6786C14.7554 28.3661 14.5901 27.9421 14.5901 27.5001V22.5001C14.5901 22.0581 14.7554 21.6341 15.0496 21.3216C15.3437 21.009 15.7427 20.8334 16.1587 20.8334ZM26.4952 19.1801C26.3144 19.145 26.1276 19.1784 25.9676 19.2747C25.8076 19.371 25.6846 19.5239 25.6199 19.7068L24.0019 24.2934L22.3838 19.7101C22.3196 19.5271 22.197 19.3739 22.0373 19.2772C21.8777 19.1805 21.6911 19.1465 21.5102 19.181C21.3294 19.2155 21.1656 19.3165 21.0476 19.4662C20.9296 19.6159 20.8649 19.8048 20.8646 20.0001V30.0001C20.8646 30.2211 20.9473 30.4331 21.0943 30.5894C21.2414 30.7456 21.4409 30.8334 21.6489 30.8334C21.8569 30.8334 22.0564 30.7456 22.2035 30.5894C22.3506 30.4331 22.4332 30.2211 22.4332 30.0001V24.5959L23.267 26.9601C23.3228 27.1193 23.4232 27.2566 23.5545 27.3535C23.6859 27.4504 23.842 27.5023 24.0019 27.5023C24.1618 27.5023 24.3179 27.4504 24.4492 27.3535C24.5806 27.2566 24.6809 27.1193 24.7368 26.9601L25.5705 24.5959V30.0001C25.5705 30.2211 25.6531 30.4331 25.8002 30.5894C25.9473 30.7456 26.1468 30.8334 26.3548 30.8334C26.5628 30.8334 26.7623 30.7456 26.9094 30.5894C27.0565 30.4331 27.1391 30.2211 27.1391 30.0001V20.0001C27.1392 19.8049 27.0747 19.616 26.957 19.4661C26.8394 19.3162 26.6759 19.215 26.4952 19.1801ZM28.7078 22.5001C28.7078 23.3842 29.0383 24.232 29.6266 24.8571C30.215 25.4822 31.013 25.8334 31.845 25.8334C32.1553 25.8334 32.4585 25.9312 32.7165 26.1143C32.9745 26.2975 33.1755 26.5578 33.2942 26.8623C33.413 27.1668 33.444 27.5019 33.3835 27.8253C33.323 28.1486 33.1736 28.4455 32.9542 28.6786C32.7348 28.9117 32.4553 29.0704 32.151 29.1347C31.8468 29.199 31.5314 29.166 31.2447 29.0399C30.9581 28.9138 30.7131 28.7001 30.5407 28.426C30.3684 28.152 30.2764 27.8297 30.2764 27.5001C30.2764 27.2791 30.1938 27.0671 30.0467 26.9108C29.8996 26.7546 29.7001 26.6668 29.4921 26.6668C29.2841 26.6668 29.0846 26.7546 28.9375 26.9108C28.7904 27.0671 28.7078 27.2791 28.7078 27.5001C28.7078 28.1594 28.8918 28.8038 29.2365 29.352C29.5812 29.9002 30.0712 30.3274 30.6444 30.5797C31.2177 30.832 31.8485 30.898 32.4571 30.7694C33.0656 30.6408 33.6246 30.3233 34.0634 29.8571C34.5021 29.3909 34.8009 28.797 34.922 28.1504C35.043 27.5038 34.9809 26.8336 34.7435 26.2245C34.506 25.6154 34.1039 25.0948 33.588 24.7285C33.0721 24.3623 32.4655 24.1668 31.845 24.1668C31.5348 24.1668 31.2315 24.069 30.9735 23.8859C30.7156 23.7027 30.5145 23.4424 30.3958 23.1379C30.2771 22.8334 30.246 22.4982 30.3065 22.1749C30.3671 21.8516 30.5164 21.5547 30.7358 21.3216C30.9552 21.0885 31.2347 20.9298 31.539 20.8655C31.8433 20.8011 32.1587 20.8342 32.4453 20.9603C32.7319 21.0864 32.9769 21.3001 33.1493 21.5741C33.3216 21.8482 33.4136 22.1705 33.4136 22.5001C33.4136 22.7211 33.4963 22.9331 33.6434 23.0894C33.7904 23.2456 33.9899 23.3334 34.198 23.3334C34.406 23.3334 34.6055 23.2456 34.7525 23.0894C34.8996 22.9331 34.9823 22.7211 34.9823 22.5001C34.9823 21.616 34.6517 20.7682 34.0634 20.1431C33.475 19.518 32.6771 19.1668 31.845 19.1668C31.013 19.1668 30.215 19.518 29.6266 20.1431C29.0383 20.7682 28.7078 21.616 28.7078 22.5001Z" fill="#2166F3" stroke="#2166F3" stroke-width="0.5"/>
</g>
<defs>
<clipPath id="clip0_176_966">
<rect width="47.0588" height="50" fill="white" transform="translate(0.470703)"/>
</clipPath>
</defs>
</svg>
