<svg width="40" height="40" viewBox="0 0 40 40" fill="none" xmlns="http://www.w3.org/2000/svg">
<g clip-path="url(#clip0_176_887)">
<path d="M3.51625 40.0001C2.5841 39.9991 1.69039 39.6284 1.0312 38.9693C0.372011 38.3102 0.00115805 37.4166 0 36.4844L0 15.0001C0.00135072 14.1595 0.303323 13.3472 0.851343 12.7099C1.39936 12.0726 2.15728 11.6523 2.98813 11.5251C3.34472 11.4845 3.70389 11.4714 4.0625 11.4857C4.12629 11.4856 4.18923 11.471 4.24652 11.443C4.30382 11.4149 4.35396 11.3742 4.39312 11.3238L12.9419 0.330694C13.0801 0.15339 13.2824 0.0373786 13.5053 0.00757915C13.7281 -0.0222203 13.9538 0.0365688 14.1338 0.171319L18.5512 3.48382C18.6179 3.53383 18.6979 3.5628 18.7811 3.56704C18.8642 3.57127 18.9468 3.55056 19.0181 3.50757L24.6631 0.125069C24.8518 0.0114211 25.0769 -0.0253595 25.2918 0.0223387C25.5068 0.0700369 25.6953 0.198563 25.8181 0.381319L33.1625 11.3988C33.2225 11.4886 33.3147 11.5519 33.42 11.5757C34.1976 11.7526 34.8925 12.1871 35.3919 12.8088C35.8914 13.4304 36.166 14.2027 36.1713 15.0001V20.0001C36.1713 20.1111 36.2154 20.2176 36.2939 20.2962C36.3724 20.3747 36.4789 20.4188 36.59 20.4188H39.1425C39.3699 20.419 39.5879 20.5094 39.7487 20.6702C39.9094 20.8309 39.9998 21.0489 40 21.2763V28.9332C39.9997 29.1605 39.9092 29.3784 39.7485 29.5392C39.5877 29.6999 39.3698 29.7904 39.1425 29.7907H30.2094C28.9875 29.7591 27.8263 29.2516 26.9733 28.3763C26.1203 27.5009 25.6429 26.327 25.6429 25.1048C25.6429 23.8825 26.1203 22.7086 26.9733 21.8333C27.8263 20.9579 28.9875 20.4504 30.2094 20.4188H34.0381C34.1492 20.4188 34.2557 20.3747 34.3342 20.2962C34.4128 20.2176 34.4569 20.1111 34.4569 20.0001V15.0001C34.4562 14.5224 34.2661 14.0646 33.9283 13.7269C33.5906 13.3892 33.1326 13.1993 32.655 13.1988H3.51625C3.03868 13.1993 2.58081 13.3892 2.24312 13.7269C1.90543 14.0646 1.7155 14.5225 1.715 15.0001V36.4844C1.71566 36.9619 1.90567 37.4196 2.24334 37.7572C2.58102 38.0947 3.03879 38.2846 3.51625 38.2851H32.655C33.1326 38.2847 33.5905 38.095 33.9283 37.7574C34.2661 37.4198 34.4562 36.962 34.4569 36.4844V32.7619C34.4538 32.6474 34.4737 32.5335 34.5154 32.4268C34.557 32.3201 34.6197 32.2228 34.6996 32.1407C34.7795 32.0586 34.875 31.9934 34.9806 31.9488C35.0861 31.9043 35.1995 31.8813 35.3141 31.8813C35.4286 31.8813 35.542 31.9043 35.6476 31.9488C35.7531 31.9934 35.8486 32.0586 35.9285 32.1407C36.0084 32.2228 36.0711 32.3201 36.1128 32.4268C36.1545 32.5335 36.1743 32.6474 36.1713 32.7619V36.4844C36.1703 37.4166 35.7995 38.3104 35.1402 38.9695C34.481 39.6286 33.5872 39.9992 32.655 40.0001H3.51625ZM30.2094 22.1332C29.4213 22.1332 28.6656 22.4462 28.1084 23.0035C27.5512 23.5607 27.2381 24.3164 27.2381 25.1044C27.2381 25.8925 27.5512 26.6482 28.1084 27.2054C28.6656 27.7627 29.4213 28.0757 30.2094 28.0757H37.8662C37.9773 28.0757 38.0838 28.0316 38.1624 27.953C38.2409 27.8745 38.285 27.768 38.285 27.6569V22.5526C38.2851 22.4975 38.2743 22.443 38.2533 22.3921C38.2323 22.3413 38.2015 22.295 38.1626 22.2561C38.1237 22.2171 38.0775 22.1862 38.0266 22.1651C37.9758 22.144 37.9213 22.1332 37.8662 22.1332H30.2094ZM24.5 2.21757L20.7919 4.44444C20.7331 4.47987 20.6839 4.52919 20.6486 4.58808C20.6133 4.64696 20.593 4.71361 20.5895 4.78216C20.586 4.85072 20.5993 4.91909 20.6284 4.98128C20.6575 5.04346 20.7014 5.09756 20.7562 5.13882C29.5562 11.7013 29.0937 11.4857 29.3587 11.4857H30.375C30.4508 11.4857 30.5252 11.4651 30.5902 11.4261C30.6552 11.3871 30.7084 11.3312 30.7441 11.2644C30.7799 11.1975 30.7968 11.1222 30.7931 11.0465C30.7894 10.9708 30.7652 10.8975 30.7231 10.8344L25.0662 2.34444C25.0063 2.2545 24.914 2.19112 24.8086 2.16749C24.7031 2.14386 24.5926 2.1618 24.5 2.21757ZM15.3706 6.52507C23.1513 11.6813 22.6981 11.4857 22.9387 11.4857H25.105C25.1928 11.4852 25.2781 11.4572 25.3492 11.4057C25.4202 11.3541 25.4732 11.2815 25.5008 11.1983C25.5284 11.115 25.5292 11.0251 25.503 10.9413C25.4769 10.8576 25.4251 10.7841 25.355 10.7313L14.105 2.29382C14.0172 2.22788 13.907 2.19905 13.7982 2.21354C13.6894 2.22804 13.5906 2.2847 13.5231 2.37132L6.96063 10.8088C6.91262 10.8708 6.88294 10.9449 6.87494 11.0229C6.86694 11.1008 6.88094 11.1795 6.91536 11.2499C6.94979 11.3203 7.00325 11.3797 7.06969 11.4212C7.13612 11.4628 7.21288 11.4849 7.29125 11.4851H10.425C10.49 11.4849 10.554 11.4697 10.6122 11.4407C10.6703 11.4116 10.7209 11.3695 10.76 11.3176L14.205 6.72382C14.3362 6.54678 14.5307 6.42726 14.7479 6.39022C14.9651 6.35319 15.1882 6.4015 15.3706 6.52507ZM14.8569 8.71757L13.2837 10.8126C13.2372 10.8748 13.2088 10.9488 13.2018 11.0263C13.1949 11.1038 13.2096 11.1817 13.2444 11.2512C13.2791 11.3208 13.3325 11.3794 13.3987 11.4203C13.4648 11.4613 13.541 11.483 13.6188 11.4832H18.3375C18.4273 11.4829 18.5146 11.4538 18.5866 11.4002C18.6586 11.3466 18.7115 11.2713 18.7375 11.1854C18.7635 11.0995 18.7613 11.0075 18.7312 10.9229C18.701 10.8384 18.6445 10.7657 18.57 10.7157L15.4244 8.61819C15.335 8.55914 15.2264 8.53653 15.1209 8.55501C15.0153 8.57349 14.9209 8.63165 14.8569 8.71757Z" fill="#7B7B7B"/>
<path d="M31.4851 26.1498C32.0626 26.1498 32.5307 25.6817 32.5307 25.1042C32.5307 24.5267 32.0626 24.0586 31.4851 24.0586C30.9076 24.0586 30.4395 24.5267 30.4395 25.1042C30.4395 25.6817 30.9076 26.1498 31.4851 26.1498Z" fill="#7B7B7B"/>
<path d="M16.1714 34.8952C15.9439 34.8953 15.7257 34.8052 15.5647 34.6445C15.4037 34.4838 15.313 34.2658 15.3127 34.0383V32.762C15.3127 32.651 15.2686 32.5445 15.19 32.4659C15.1115 32.3874 15.005 32.3433 14.8939 32.3433H13.6196C13.5084 32.3433 13.4019 32.3874 13.3232 32.4659C13.2446 32.5444 13.2003 32.6509 13.2002 32.762V34.0383C13.1941 34.2616 13.1012 34.4738 12.9411 34.6296C12.781 34.7854 12.5664 34.8726 12.343 34.8726C12.1196 34.8726 11.905 34.7854 11.7449 34.6296C11.5848 34.4738 11.4918 34.2616 11.4858 34.0383V32.762C11.4858 32.651 11.4417 32.5445 11.3632 32.4659C11.2846 32.3874 11.1781 32.3433 11.0671 32.3433H9.7908C9.56338 32.3433 9.34527 32.2529 9.18446 32.0921C9.02365 31.9313 8.9333 31.7132 8.9333 31.4858C8.9333 31.2584 9.02365 31.0403 9.18446 30.8794C9.34527 30.7186 9.56338 30.6283 9.7908 30.6283H11.0671C11.122 30.6283 11.1765 30.6175 11.2273 30.5964C11.2781 30.5754 11.3243 30.5445 11.3632 30.5056C11.402 30.4668 11.4329 30.4206 11.4539 30.3698C11.475 30.319 11.4858 30.2645 11.4858 30.2095V22.5527C11.4859 22.4976 11.4751 22.4431 11.4541 22.3922C11.4331 22.3413 11.4023 22.2951 11.3634 22.2562C11.3245 22.2172 11.2783 22.1863 11.2274 22.1652C11.1766 22.1441 11.1221 22.1333 11.0671 22.1333H9.7908C9.67629 22.1364 9.56232 22.1165 9.45561 22.0748C9.34891 22.0331 9.25164 21.9705 9.16955 21.8906C9.08746 21.8107 9.02221 21.7151 8.97766 21.6096C8.93311 21.504 8.91016 21.3907 8.91016 21.2761C8.91016 21.1615 8.93311 21.0481 8.97766 20.9426C9.02221 20.8371 9.08746 20.7415 9.16955 20.6616C9.25164 20.5817 9.34891 20.5191 9.45561 20.4774C9.56232 20.4357 9.67629 20.4158 9.7908 20.4189H11.0671C11.1781 20.4189 11.2846 20.3748 11.3632 20.2963C11.4417 20.2177 11.4858 20.1112 11.4858 20.0002V18.7239C11.4827 18.6094 11.5026 18.4954 11.5443 18.3887C11.586 18.282 11.6486 18.1847 11.7285 18.1027C11.8084 18.0206 11.904 17.9553 12.0095 17.9108C12.115 17.8662 12.2284 17.8433 12.343 17.8433C12.4575 17.8433 12.5709 17.8662 12.6765 17.9108C12.782 17.9553 12.8776 18.0206 12.9575 18.1027C13.0374 18.1847 13.1 18.282 13.1417 18.3887C13.1834 18.4954 13.2033 18.6094 13.2002 18.7239V20.0002C13.2003 20.1113 13.2446 20.2178 13.3232 20.2963C13.4019 20.3748 13.5084 20.4189 13.6196 20.4189H14.8958C15.0065 20.4184 15.1126 20.3741 15.1907 20.2956C15.2688 20.2171 15.3127 20.1109 15.3127 20.0002V18.7239C15.3096 18.6094 15.3295 18.4954 15.3712 18.3887C15.4128 18.282 15.4755 18.1847 15.5554 18.1027C15.6353 18.0206 15.7308 17.9553 15.8364 17.9108C15.9419 17.8662 16.0553 17.8433 16.1699 17.8433C16.2844 17.8433 16.3978 17.8662 16.5034 17.9108C16.6089 17.9553 16.7044 18.0206 16.7843 18.1027C16.8642 18.1847 16.9269 18.282 16.9686 18.3887C17.0103 18.4954 17.0301 18.6094 17.0271 18.7239V20.2352C17.0271 20.3216 17.0538 20.4058 17.1036 20.4764C17.1534 20.547 17.2238 20.6005 17.3052 20.6295C17.7744 20.7923 18.2019 21.0566 18.5572 21.4035C18.9125 21.7505 19.1868 22.1716 19.3607 22.6368C19.5345 23.102 19.6035 23.5998 19.5628 24.0948C19.5221 24.5897 19.3727 25.0696 19.1252 25.5002C19.0715 25.5939 19.056 25.7047 19.0821 25.8095C19.1082 25.9144 19.1738 26.0051 19.2652 26.0627C19.8876 26.4575 20.3652 27.0435 20.6263 27.7328C20.8873 28.4221 20.9178 29.1775 20.7132 29.8855C20.5085 30.5936 20.0797 31.2163 19.4911 31.66C18.9026 32.1037 18.186 32.3445 17.4489 32.3464C17.3379 32.3464 17.2314 32.3905 17.1528 32.4691C17.0743 32.5476 17.0302 32.6541 17.0302 32.7652V34.0414C17.029 34.2683 16.938 34.4856 16.7771 34.6456C16.6161 34.8056 16.3984 34.8953 16.1714 34.8952ZM13.6196 27.2383C13.5084 27.2383 13.4019 27.2824 13.3232 27.3609C13.2446 27.4394 13.2003 27.5459 13.2002 27.657V30.2095C13.2003 30.3207 13.2446 30.4272 13.3232 30.5057C13.4019 30.5842 13.5084 30.6283 13.6196 30.6283H17.4477C19.6914 30.6283 19.6889 27.2383 17.4477 27.2383H13.6196ZM13.6196 22.1333C13.5083 22.1333 13.4017 22.1775 13.323 22.2561C13.2444 22.3348 13.2002 22.4414 13.2002 22.5527V25.1045C13.2003 25.2157 13.2446 25.3223 13.3232 25.4009C13.4018 25.4795 13.5084 25.5237 13.6196 25.5239H16.1714C18.4152 25.5239 18.4127 22.1333 16.1714 22.1333H13.6196Z" fill="#7B7B7B"/>
</g>
<defs>
<clipPath id="clip0_176_887">
<rect width="40" height="40" fill="white"/>
</clipPath>
</defs>
</svg>
