<svg width="42" height="42" fill="none" xmlns="http://www.w3.org/2000/svg"><path d="M16.833 12.666a1.042 1.042 0 0 0-1.042 1.042v2.083a1.042 1.042 0 0 0 1.042 1.042h2.083a1.042 1.042 0 0 0 1.042-1.042v-2.083a1.042 1.042 0 0 0-1.042-1.042h-2.083zm-1.042 7.292a1.042 1.042 0 0 1 1.042-1.042h2.083a1.042 1.042 0 0 1 1.042 1.042v2.083a1.042 1.042 0 0 1-1.042 1.042h-2.083a1.042 1.042 0 0 1-1.042-1.042v-2.083zm1.042 5.208a1.042 1.042 0 0 0-1.042 1.042v2.083a1.042 1.042 0 0 0 1.042 1.042h2.083a1.042 1.042 0 0 0 1.042-1.042v-2.083a1.042 1.042 0 0 0-1.042-1.042h-2.083zm5.208-11.458a1.042 1.042 0 0 1 1.042-1.042h2.083a1.042 1.042 0 0 1 1.042 1.042v2.083a1.042 1.042 0 0 1-1.042 1.042h-2.083a1.042 1.042 0 0 1-1.042-1.042v-2.083zm1.042 5.208a1.042 1.042 0 0 0-1.042 1.042v2.083a1.042 1.042 0 0 0 1.042 1.042h2.083a1.042 1.042 0 0 0 1.042-1.042v-2.083a1.042 1.042 0 0 0-1.042-1.042h-2.083zm-1.042 7.292a1.042 1.042 0 0 1 1.042-1.042h2.083a1.042 1.042 0 0 1 1.042 1.042v2.083a1.042 1.042 0 0 1-1.042 1.042h-2.083a1.042 1.042 0 0 1-1.042-1.042v-2.083z" fill="#111"/><path fill-rule="evenodd" clip-rule="evenodd" d="M9.541 2.608A2.083 2.083 0 0 1 12.222.612l18.75 5.625a2.083 2.083 0 0 1 1.486 1.996v4.87l6.241 3.567a2.083 2.083 0 0 1 1.05 1.809v21.27h1.042a1.042 1.042 0 1 1 0 2.084H1.208a1.042 1.042 0 0 1 0-2.083h1.041V8.5a2.083 2.083 0 0 1 2.084-2.084H9.54V2.608zM37.666 39.75V18.479l-5.208-2.975V39.75h5.208zm-7.292-26.063V39.75h-5.208V34.54a2.083 2.083 0 0 0-2.083-2.083h-4.167a2.083 2.083 0 0 0-2.083 2.083v5.209h-5.209V2.608l18.75 5.625v5.454zM9.541 39.75H4.333V8.5H9.54v31.25zm9.375 0h4.167V34.54h-4.167v5.209z" fill="#111"/></svg>