<svg width="48" height="54" viewBox="0 0 48 54" fill="none" xmlns="http://www.w3.org/2000/svg">
<path d="M32.7047 22.7152C33.5711 21.8576 34.1089 20.6687 34.1089 19.3562C34.1089 16.7493 31.9875 14.6284 29.3801 14.6284C27.3709 14.6284 25.5901 15.9021 24.9251 17.7685C24.6464 17.7171 24.3597 17.6889 24.0663 17.6889C23.7729 17.6889 23.4863 17.7171 23.2075 17.7685C22.5426 15.902 20.7617 14.6284 18.7525 14.6284C16.1451 14.6284 14.0238 16.7493 14.0238 19.3562C14.0238 20.6687 14.5617 21.8576 15.4281 22.7152C13.3497 23.8991 12.0117 26.141 12.0117 28.5792C12.0117 29 12.3528 29.3409 12.7734 29.3409C13.1941 29.3409 13.5352 29 13.5352 28.5792C13.5352 26.4258 14.8834 24.4703 16.8929 23.7034C17.7496 24.0713 18.6964 24.1763 19.6129 24.0049C19.8519 24.6719 20.2373 25.2769 20.7409 25.7753C19.7031 26.3625 18.8399 27.215 18.2398 28.2455C17.6397 29.276 17.3242 30.4475 17.3257 31.64C17.3257 32.0608 17.6667 32.4017 18.0874 32.4017C18.5081 32.4017 18.8491 32.0608 18.8491 31.64C18.8479 30.6139 19.1497 29.6103 19.7166 28.7551C20.2835 27.8998 21.0903 27.231 22.0358 26.8324C22.0876 26.8105 22.1354 26.7832 22.1795 26.752C22.7745 27.0122 23.4169 27.1464 24.0663 27.1459C24.7265 27.1459 25.3552 27.0095 25.9263 26.7642C27.935 27.5311 29.2835 29.4886 29.2835 31.64C29.2835 32.0608 29.6246 32.4017 30.0452 32.4017C30.4659 32.4017 30.8069 32.0608 30.8069 31.64C30.8069 29.204 29.4687 26.9603 27.3909 25.776C27.8949 25.2775 28.2807 24.6723 28.5197 24.0049C29.4362 24.1763 30.383 24.0714 31.2396 23.7034C33.2491 24.4703 34.5974 26.4256 34.5974 28.5792C34.5974 29 34.9384 29.3409 35.3591 29.3409C35.7798 29.3409 36.1208 29 36.1208 28.5792C36.121 26.1409 34.783 23.8991 32.7047 22.7152ZM19.338 22.4175C19.338 22.4474 19.3397 22.4769 19.3402 22.5067C19.1483 22.5424 18.9518 22.5615 18.7527 22.5615C16.9853 22.5615 15.5473 21.1237 15.5473 19.3562C15.5473 17.5894 16.9853 16.1519 18.7527 16.1519C20.1162 16.1519 21.3241 17.0171 21.7736 18.284C20.3223 19.0922 19.338 20.6418 19.338 22.4175ZM20.8614 22.4175C20.8614 20.6503 22.2991 19.2125 24.0664 19.2125C25.8337 19.2125 27.2714 20.6502 27.2714 22.4175C27.2714 24.1848 25.8337 25.6225 24.0664 25.6225C22.2991 25.6225 20.8614 24.1847 20.8614 22.4175ZM28.7925 22.5067C28.7931 22.4769 28.7948 22.4473 28.7948 22.4175C28.7948 20.6418 27.8104 19.0923 26.3591 18.2841C26.8086 17.0172 28.0165 16.152 29.3801 16.152C31.1475 16.152 32.5854 17.5894 32.5854 19.3563C32.5854 21.1237 31.1475 22.5616 29.3801 22.5616C29.183 22.5613 28.9863 22.5429 28.7925 22.5067Z" fill="#2166F3" stroke="#2166F3" stroke-width="0.5"/>
<path d="M43.7929 33.9203V20.0745C45.6916 19.7162 47.1326 18.0461 47.1326 16.0448C47.1326 13.783 45.2926 11.943 43.0308 11.943C41.7878 11.943 40.6729 12.4996 39.9201 13.3756L27.937 6.45667C28.0901 6.02129 28.1682 5.56311 28.1681 5.10162C28.1681 2.84001 26.3281 1 24.0664 1C21.8047 1 19.9645 2.84002 19.9645 5.10172C19.9645 5.57653 20.0465 6.03224 20.1956 6.45677L8.21249 13.3756C7.45971 12.4996 6.34485 11.943 5.10182 11.943C2.84002 11.943 1 13.783 1 16.0448C1 18.0461 2.44097 19.7161 4.33969 20.0745V33.9203C2.44097 34.2786 1 35.9487 1 37.95C1 40.2118 2.84002 42.0518 5.10182 42.0518C6.34292 42.0518 7.45615 41.497 8.20893 40.6233L20.1955 47.5435C20.0425 47.9788 19.9644 48.4368 19.9645 48.8982C19.9645 51.16 21.8046 53 24.0664 53C26.3282 53 28.1682 51.16 28.1682 48.8982C28.1682 48.4236 28.0862 47.9679 27.9372 47.5435L39.9238 40.6233C40.6766 41.4971 41.7898 42.0518 43.0309 42.0518C45.2927 42.0518 47.1327 40.2118 47.1327 37.95C47.1326 35.9486 45.6915 34.2786 43.7929 33.9203ZM43.0308 13.4664C44.4525 13.4664 45.6092 14.6231 45.6092 16.0448C45.6092 17.4665 44.4525 18.6232 43.0308 18.6232C41.6091 18.6232 40.4524 17.4665 40.4524 16.0448C40.4524 14.6231 41.6091 13.4664 43.0308 13.4664ZM24.0664 2.52344C25.488 2.52344 26.6447 3.68004 26.6447 5.10172C26.6447 6.52208 25.4902 7.67786 24.0703 7.68L24.0664 7.67979L24.0624 7.68C22.6425 7.67786 21.488 6.52208 21.488 5.10172C21.488 3.68004 22.6446 2.52344 24.0664 2.52344ZM2.52344 16.0448C2.52344 14.6231 3.68014 13.4664 5.10182 13.4664C6.5235 13.4664 7.6802 14.6231 7.6802 16.0448C7.6802 17.4665 6.5235 18.6232 5.10182 18.6232C3.68014 18.6232 2.52344 17.4665 2.52344 16.0448ZM5.10182 40.5283C3.68014 40.5283 2.52344 39.3716 2.52344 37.9499C2.52344 36.5282 3.68014 35.3715 5.10182 35.3715C6.5235 35.3715 7.6802 36.5282 7.6802 37.9499C7.6802 39.3716 6.5235 40.5283 5.10182 40.5283ZM24.0664 51.4765C22.6447 51.4765 21.488 50.3198 21.488 48.8981C21.488 47.4764 22.6447 46.3197 24.0664 46.3197C25.488 46.3197 26.6447 47.4764 26.6447 48.8981C26.6447 50.3198 25.488 51.4765 24.0664 51.4765ZM27.1737 46.2251C26.5788 45.5345 25.7587 45.0439 24.828 44.8684V41.9338C24.828 41.513 24.4869 41.1721 24.0663 41.1721C23.6456 41.1721 23.3045 41.513 23.3045 41.9338V44.8684C22.3739 45.044 21.5538 45.5345 20.9588 46.2251L8.97248 39.3051C9.12557 38.8697 9.2037 38.4115 9.20354 37.95C9.20354 37.4748 9.12138 37.0186 8.97208 36.5937L11.5142 35.1256C11.6863 35.0232 11.8111 34.8571 11.8616 34.6632C11.9122 34.4694 11.8843 34.2635 11.7842 34.0901C11.684 33.9166 11.5196 33.7896 11.3264 33.7365C11.1333 33.6834 10.927 33.7085 10.7523 33.8063L8.20792 35.2758C7.61307 34.5857 6.79325 34.0956 5.86303 33.9202V20.0746C6.79355 19.8992 7.61357 19.4088 8.20843 18.7185L10.7562 20.1898C10.8428 20.2399 10.9385 20.2724 11.0376 20.2854C11.1368 20.2985 11.2376 20.2919 11.3342 20.2661C11.4309 20.2402 11.5215 20.1955 11.6008 20.1346C11.6802 20.0737 11.7467 19.9978 11.7967 19.9111C11.8468 19.8245 11.8793 19.7289 11.8923 19.6297C11.9054 19.5305 11.8988 19.4297 11.8729 19.3331C11.8471 19.2365 11.8024 19.1459 11.7415 19.0665C11.6806 18.9871 11.6047 18.9205 11.5181 18.8705L8.97218 17.4003C9.1253 16.9648 9.20346 16.5065 9.20334 16.0448C9.20348 15.5852 9.12595 15.1288 8.97401 14.6949L20.9588 7.77496C21.5537 8.46538 22.3737 8.95593 23.3042 9.13143V12.0663C23.3042 12.4871 23.6453 12.828 24.066 12.828C24.4866 12.828 24.8277 12.4871 24.8277 12.0663V9.13143C25.7582 8.95593 26.5782 8.46538 27.1731 7.77496L39.1579 14.6949C39.006 15.1288 38.9285 15.5852 38.9286 16.0448C38.9286 16.5197 39.0106 16.9756 39.1597 17.4003L36.6138 18.8705C36.4389 18.9715 36.3112 19.1379 36.259 19.3331C36.2067 19.5282 36.2341 19.7361 36.3351 19.9111C36.4361 20.086 36.6025 20.2137 36.7977 20.2659C36.9928 20.3182 37.2007 20.2908 37.3757 20.1898L39.9235 18.7185C40.5184 19.4088 41.3384 19.8992 42.2689 20.0746V33.9202C41.3387 34.0956 40.5189 34.5857 39.924 35.2758L37.3796 33.8063C37.293 33.7563 37.1974 33.7238 37.0982 33.7108C36.999 33.6977 36.8982 33.7043 36.8016 33.7302C36.705 33.756 36.6144 33.8007 36.535 33.8616C36.4556 33.9225 36.389 33.9984 36.339 34.085C36.289 34.1717 36.2565 34.2673 36.2434 34.3665C36.2304 34.4656 36.237 34.5664 36.2628 34.6631C36.2887 34.7597 36.3334 34.8503 36.3943 34.9296C36.4552 35.009 36.5311 35.0756 36.6177 35.1256L39.1598 36.5937C39.0065 37.0295 38.9282 37.4881 38.9284 37.95C38.9284 38.4248 39.0103 38.8806 39.1594 39.3051L27.1737 46.2251ZM43.0308 40.5283C41.6091 40.5283 40.4524 39.3716 40.4524 37.9499C40.4524 36.5282 41.6091 35.3715 43.0308 35.3715C44.4525 35.3715 45.6092 36.5282 45.6092 37.9499C45.6092 39.3716 44.4525 40.5283 43.0308 40.5283Z" fill="#2166F3" stroke="#2166F3" stroke-width="0.5"/>
<path d="M30.4455 34.8701H28.1787C27.758 34.8701 27.4169 35.2111 27.4169 35.6318C27.4169 36.0526 27.758 36.3936 28.1787 36.3936H30.4455C30.8662 36.3936 31.2072 36.0526 31.2072 35.6318C31.2072 35.2111 30.8662 34.8701 30.4455 34.8701ZM30.4455 37.8535H17.6855C17.2649 37.8535 16.9238 38.1945 16.9238 38.6152C16.9238 39.036 17.2649 39.3769 17.6855 39.3769H30.4456C30.5457 39.3769 30.6447 39.3572 30.7371 39.3189C30.8295 39.2807 30.9135 39.2245 30.9842 39.1538C31.055 39.0831 31.1111 38.9991 31.1493 38.9067C31.1876 38.8143 31.2073 38.7152 31.2073 38.6152C31.2073 38.5151 31.1876 38.4161 31.1493 38.3237C31.111 38.2313 31.0549 38.1473 30.9842 38.0766C30.9134 38.0058 30.8294 37.9497 30.737 37.9115C30.6446 37.8732 30.5456 37.8535 30.4455 37.8535ZM17.6855 36.3936H17.6961C18.1168 36.3936 18.4578 36.0526 18.4578 35.6318C18.4578 35.2111 18.1168 34.8701 17.6961 34.8701H17.6855C17.2649 34.8701 16.9238 35.2111 16.9238 35.6318C16.9238 36.0526 17.2649 36.3936 17.6855 36.3936ZM20.3345 36.3936C20.7552 36.3936 21.0962 36.0526 21.0962 35.6318C21.0962 35.2111 20.7552 34.8701 20.3345 34.8701H20.3239C19.9033 34.8701 19.5622 35.2111 19.5622 35.6318C19.5622 36.0526 19.9033 36.3936 20.3239 36.3936H20.3345ZM22.9729 36.3936C23.3936 36.3936 23.7346 36.0526 23.7346 35.6318C23.7346 35.2111 23.3936 34.8701 22.9729 34.8701H22.9623C22.5416 34.8701 22.2006 35.2111 22.2006 35.6318C22.2006 36.0526 22.5416 36.3936 22.9623 36.3936H22.9729Z" fill="#2166F3" stroke="#2166F3" stroke-width="0.5"/>
</svg>
