<svg width="50" height="50" fill="none" xmlns="http://www.w3.org/2000/svg"><g clip-path="url(#a)" fill="#111"><path d="M35.156 30.469a.781.781 0 0 1-.781-.782v-9.375H18.75V25a.781.781 0 1 1-1.563 0v-5.469a.781.781 0 0 1 .782-.781h17.187a.781.781 0 0 1 .782.781v10.157a.781.781 0 0 1-.782.78z"/><path d="M35.156 23.438H17.97a.781.781 0 1 1 0-1.563h17.187a.781.781 0 1 1 0 1.563zm0 3.125h-5.289a.781.781 0 1 1 0-1.563h5.29a.781.781 0 1 1 0 1.563zm-8.593-7.032a9.375 9.375 0 1 1 9.375-9.375 9.386 9.386 0 0 1-9.376 9.375zm0-17.187a7.813 7.813 0 1 0 7.812 7.812 7.821 7.821 0 0 0-7.813-7.812z"/><path d="M27.344 14.063h-3.125a.781.781 0 1 1 0-1.563h3.125a.781.781 0 1 0 0-1.563H25.78a2.343 2.343 0 1 1 0-4.687h3.125a.781.781 0 1 1 0 1.563h-3.125a.781.781 0 1 0 0 1.562h1.563a2.343 2.343 0 1 1 0 4.688z"/><path d="M26.562 7.813a.781.781 0 0 1-.78-.782V5.47a.781.781 0 1 1 1.562 0V7.03a.781.781 0 0 1-.782.782zm0 7.812a.781.781 0 0 1-.78-.781V13.28a.781.781 0 1 1 1.562 0v1.563a.781.781 0 0 1-.782.781zM14.844 49.219a.781.781 0 0 1-.553-.23L1.01 35.71a.781.781 0 0 1 0-1.105l5.469-5.469a.781.781 0 0 1 1.104 0l13.282 13.281a.782.782 0 0 1 0 1.105l-5.47 5.469a.781.781 0 0 1-.551.229zM2.667 35.156l12.177 12.177 4.364-4.364L7.03 30.792l-4.364 4.364z"/><path d="M8.594 32.031a.78.78 0 0 1-.553-1.333l6.25-6.25a.78.78 0 0 1 .553-.23h13.28a3.125 3.125 0 1 1 0 6.25h-5.468a.781.781 0 0 1 0-1.562h5.469a1.563 1.563 0 1 0 0-3.125H15.167l-6.021 6.021a.78.78 0 0 1-.552.23z"/><path d="M18.75 42.187a.78.78 0 0 1-.552-1.334l3.906-3.906a.781.781 0 0 1 .552-.229h11.382L47.266 22.73a1.435 1.435 0 0 0-2.06-1.996l-9.497 9.506a.781.781 0 0 1-.553.23h-7.812a.781.781 0 1 1 0-1.563h7.488l9.267-9.279a2.998 2.998 0 0 1 4.297 4.176L34.943 38.037a.78.78 0 0 1-.568.244H22.98l-3.678 3.677a.78.78 0 0 1-.552.23z"/></g><defs><clipPath id="a"><path fill="#fff" d="M0 0h50v50H0z"/></clipPath></defs></svg>