<svg width="55" height="55" viewBox="0 0 55 55" fill="none" xmlns="http://www.w3.org/2000/svg">
<path d="M51.5627 26.6409C51.3348 26.6409 51.1162 26.7314 50.955 26.8926C50.7939 27.0537 50.7033 27.2723 50.7033 27.5002C50.7048 33.1294 48.6593 38.567 44.9482 42.7995C41.2371 47.0321 36.1135 49.7708 30.5325 50.5051C24.9515 51.2395 19.2938 49.9194 14.6141 46.791C9.9344 43.6625 6.55192 38.9391 5.09715 33.5012L8.1909 35.1341C8.39261 35.2405 8.62834 35.2625 8.84624 35.1951C9.06413 35.1277 9.24634 34.9766 9.35278 34.7748C9.45922 34.5731 9.48117 34.3374 9.4138 34.1195C9.34643 33.9016 9.19527 33.7194 8.99356 33.613L4.34004 31.1569C4.23182 31.0886 4.1104 31.0441 3.98374 31.0261C3.85708 31.0081 3.72804 31.0171 3.6051 31.0525C3.48216 31.0878 3.36809 31.1488 3.27037 31.2314C3.17265 31.3139 3.09349 31.4162 3.03809 31.5316L0.924887 36.6242C0.881664 36.7285 0.859403 36.8403 0.859375 36.9531C0.859347 37.066 0.881553 37.1778 0.924725 37.2821C0.967897 37.3864 1.03119 37.4812 1.11099 37.561C1.19079 37.6409 1.28553 37.7042 1.38981 37.7474C1.49409 37.7906 1.60586 37.8129 1.71874 37.8129C1.83162 37.813 1.9434 37.7908 2.0477 37.7476C2.152 37.7044 2.24677 37.6411 2.32661 37.5613C2.40645 37.4815 2.46979 37.3868 2.51301 37.2825L3.62075 34.6133C5.33319 40.3466 9.05121 45.2724 14.0955 48.4907C19.1399 51.7091 25.1737 53.0052 31.0947 52.1422C37.0157 51.2792 42.4286 48.3147 46.3444 43.7903C50.2601 39.266 52.4174 33.4838 52.4221 27.5002C52.4221 27.2723 52.3315 27.0537 52.1704 26.8926C52.0092 26.7314 51.7906 26.6409 51.5627 26.6409ZM53.6106 17.253C53.5063 17.2098 53.3945 17.1875 53.2817 17.1875C53.1688 17.1874 53.057 17.2096 52.9527 17.2528C52.8484 17.296 52.7536 17.3593 52.6737 17.4391C52.5939 17.5189 52.5306 17.6137 52.4874 17.718L51.3797 20.3872C49.6672 14.6539 45.9492 9.72809 40.9049 6.50972C35.8605 3.29135 29.8267 1.99528 23.9057 2.8583C17.9847 3.72131 12.5718 6.68581 8.65604 11.2102C4.74026 15.7345 2.58297 21.5167 2.57832 27.5002C2.57832 27.7282 2.66887 27.9467 2.83003 28.1079C2.99119 28.2691 3.20978 28.3596 3.4377 28.3596C3.66562 28.3596 3.88421 28.2691 4.04537 28.1079C4.20653 27.9467 4.29707 27.7282 4.29707 27.5002C4.29561 21.8711 6.34107 16.4335 10.0522 12.201C13.7633 7.9684 18.8869 5.2297 24.4679 4.49533C30.0489 3.76096 35.7066 5.08104 40.3863 8.20949C45.066 11.338 48.4485 16.0613 49.9032 21.4992L46.8095 19.8664C46.6078 19.76 46.3721 19.738 46.1542 19.8054C45.9363 19.8727 45.7541 20.0239 45.6476 20.2256C45.5412 20.4273 45.5192 20.6631 45.5866 20.881C45.654 21.0988 45.8051 21.2811 46.0068 21.3875L50.6638 23.8462C50.7712 23.917 50.8927 23.9638 51.0199 23.9831C51.147 24.0025 51.2769 23.994 51.4005 23.9583C51.5242 23.9226 51.6385 23.8605 51.7358 23.7763C51.8331 23.6921 51.911 23.5878 51.964 23.4706L54.0772 18.378C54.1207 18.2735 54.1431 18.1615 54.1432 18.0483C54.1432 17.9351 54.1209 17.8231 54.0776 17.7186C54.0342 17.6141 53.9706 17.5191 53.8905 17.4392C53.8104 17.3593 53.7152 17.2961 53.6106 17.253Z" fill="#2166F3" stroke="#2166F3" stroke-width="0.5"/>
<path d="M27.5 38.6719C29.7096 38.6719 31.8696 38.0167 33.7068 36.7891C35.544 35.5615 36.9759 33.8167 37.8215 31.7753C38.667 29.7339 38.8883 27.4876 38.4572 25.3205C38.0261 23.1533 36.9621 21.1627 35.3997 19.6003C33.8373 18.0379 31.8467 16.9739 29.6795 16.5428C27.5124 16.1117 25.2661 16.333 23.2247 17.1785C21.1833 18.0241 19.4385 19.456 18.2109 21.2932C16.9833 23.1305 16.3281 25.2904 16.3281 27.5C16.3315 30.4619 17.5097 33.3016 19.6041 35.3959C21.6985 37.4903 24.5381 38.6685 27.5 38.6719ZM27.5 18.0469C29.3697 18.0469 31.1973 18.6013 32.7519 19.64C34.3064 20.6787 35.5181 22.1551 36.2335 23.8824C36.949 25.6098 37.1362 27.5105 36.7715 29.3442C36.4067 31.1779 35.5064 32.8623 34.1844 34.1844C32.8623 35.5064 31.1779 36.4067 29.3442 36.7715C27.5105 37.1362 25.6098 36.949 23.8824 36.2336C22.1551 35.5181 20.6787 34.3064 19.64 32.7519C18.6013 31.1973 18.0469 29.3697 18.0469 27.5C18.0498 24.9938 19.0467 22.5911 20.8189 20.8189C22.5911 19.0467 24.9938 18.0498 27.5 18.0469Z" fill="#2166F3" stroke="#2166F3" stroke-width="0.5"/>
<path d="M33.5156 28.3594H34.375C34.6029 28.3594 34.8215 28.2688 34.9827 28.1077C35.1438 27.9465 35.2344 27.7279 35.2344 27.5C35.2344 27.2721 35.1438 27.0535 34.9827 26.8923C34.8215 26.7312 34.6029 26.6406 34.375 26.6406H33.5156C33.2877 26.6406 33.0691 26.7312 32.908 26.8923C32.7468 27.0535 32.6562 27.2721 32.6562 27.5C32.6562 27.7279 32.7468 27.9465 32.908 28.1077C33.0691 28.2688 33.2877 28.3594 33.5156 28.3594ZM22.3438 27.5C22.3438 27.2721 22.2532 27.0535 22.092 26.8923C21.9309 26.7312 21.7123 26.6406 21.4844 26.6406H20.625C20.3971 26.6406 20.1785 26.7312 20.0173 26.8923C19.8562 27.0535 19.7656 27.2721 19.7656 27.5C19.7656 27.7279 19.8562 27.9465 20.0173 28.1077C20.1785 28.2688 20.3971 28.3594 20.625 28.3594H21.4844C21.7123 28.3594 21.9309 28.2688 22.092 28.1077C22.2532 27.9465 22.3438 27.7279 22.3438 27.5ZM27.5 35.2344C27.7279 35.2344 27.9465 35.1438 28.1077 34.9827C28.2688 34.8215 28.3594 34.6029 28.3594 34.375V33.5156C28.3594 33.2877 28.2688 33.0691 28.1077 32.908C27.9465 32.7468 27.7279 32.6562 27.5 32.6562C27.2721 32.6562 27.0535 32.7468 26.8923 32.908C26.7312 33.0691 26.6406 33.2877 26.6406 33.5156V34.375C26.6406 34.6029 26.7312 34.8215 26.8923 34.9827C27.0535 35.1438 27.2721 35.2344 27.5 35.2344ZM27.9426 28.2365L32.2395 25.6584C32.3383 25.6013 32.4249 25.5252 32.494 25.4343C32.5632 25.3435 32.6135 25.2398 32.6421 25.1293C32.6707 25.0187 32.677 24.9036 32.6607 24.7907C32.6443 24.6777 32.6056 24.5691 32.5468 24.4712C32.488 24.3734 32.4103 24.2882 32.3182 24.2207C32.2261 24.1533 32.1215 24.1048 32.0105 24.0782C31.8995 24.0516 31.7843 24.0473 31.6716 24.0658C31.5589 24.0842 31.4511 24.1248 31.3543 24.1854L28.3594 25.9815V20.625C28.3594 20.3971 28.2688 20.1785 28.1077 20.0173C27.9465 19.8562 27.7279 19.7656 27.5 19.7656C27.2721 19.7656 27.0535 19.8562 26.8923 20.0173C26.7312 20.1785 26.6406 20.3971 26.6406 20.625V27.5C26.6407 27.6521 26.6811 27.8015 26.7577 27.9329C26.8343 28.0642 26.9445 28.1729 27.0769 28.2478C27.2093 28.3227 27.3592 28.3611 27.5113 28.3591C27.6634 28.3571 27.8122 28.3148 27.9426 28.2365Z" fill="#2166F3" stroke="#2166F3" stroke-width="0.5"/>
<path d="M9.28125 24.0797C9.08714 24.1193 8.91268 24.2248 8.7874 24.3783C8.66212 24.5317 8.59371 24.7238 8.59375 24.9219V30.0781C8.59371 30.2762 8.66212 30.4683 8.7874 30.6217C8.91268 30.7752 9.08714 30.8807 9.28125 30.9203L12.5727 31.5786C12.9123 32.8338 13.4129 34.0397 14.062 35.1665L12.2031 37.9637C12.0929 38.1291 12.0433 38.3275 12.0629 38.5252C12.0825 38.723 12.17 38.9078 12.3105 39.0483L15.9543 42.6912C16.0948 42.8317 16.2796 42.9192 16.4774 42.9388C16.6751 42.9584 16.8735 42.9088 17.0388 42.7986L19.8352 40.9346C20.9618 41.5835 22.1674 42.0841 23.4223 42.4239L24.0814 45.7153C24.1203 45.9098 24.2252 46.0848 24.3784 46.2107C24.5316 46.3367 24.7236 46.4057 24.9219 46.4062H30.0781C30.2762 46.4063 30.4683 46.3379 30.6217 46.2126C30.7752 46.0873 30.8807 45.9129 30.9203 45.7188L31.5795 42.4273C32.8343 42.0875 34.04 41.5869 35.1665 40.938L37.9629 42.7969C38.1282 42.9071 38.3266 42.9567 38.5244 42.9371C38.7221 42.9175 38.9069 42.83 39.0474 42.6895L42.6912 39.0466C42.8317 38.9061 42.9192 38.7212 42.9388 38.5235C42.9584 38.3258 42.9088 38.1274 42.7986 37.962L40.9346 35.1648C41.5837 34.038 42.0842 32.832 42.4239 31.5769L45.7153 30.9186C45.9098 30.8797 46.0848 30.7748 46.2107 30.6216C46.3367 30.4684 46.4057 30.2764 46.4062 30.0781V24.9219C46.4063 24.7238 46.3379 24.5317 46.2126 24.3783C46.0873 24.2248 45.9129 24.1193 45.7188 24.0797L42.4273 23.4214C42.0877 22.1662 41.5871 20.9603 40.938 19.8335L42.7969 17.0362C42.9071 16.8709 42.9567 16.6725 42.9371 16.4748C42.9175 16.277 42.83 16.0922 42.6895 15.9517L39.0457 12.3088C38.9052 12.1683 38.7204 12.0808 38.5226 12.0612C38.3249 12.0416 38.1265 12.0912 37.9612 12.2014L35.1648 14.0654C34.0382 13.4165 32.8326 12.9159 31.5777 12.5761L30.9203 9.28125C30.8807 9.08714 30.7752 8.91268 30.6217 8.7874C30.4683 8.66212 30.2762 8.59371 30.0781 8.59375H24.9219C24.7238 8.59371 24.5317 8.66212 24.3783 8.7874C24.2248 8.91268 24.1193 9.08714 24.0797 9.28125L23.4205 12.5727C22.1657 12.9125 20.96 13.4131 19.8335 14.062L17.0371 12.2031C16.8718 12.0929 16.6734 12.0433 16.4756 12.0629C16.2779 12.0825 16.0931 12.17 15.9526 12.3105L12.3088 15.9534C12.1683 16.0939 12.0808 16.2788 12.0612 16.4765C12.0416 16.6742 12.0912 16.8726 12.2014 17.038L14.0731 19.8464C13.4278 20.9694 12.9293 22.1706 12.5898 23.4205L9.28125 24.0797ZM16.6659 14.025L19.3299 15.7996C19.4674 15.8912 19.6285 15.9412 19.7937 15.9437C19.9589 15.9461 20.1213 15.9009 20.2615 15.8134C21.5203 15.0259 22.9012 14.4529 24.3478 14.1178C24.5091 14.0806 24.6562 13.9977 24.7714 13.8789C24.8866 13.7602 24.9652 13.6107 24.9975 13.4484L25.6266 10.3125H29.3734L30.0008 13.4458C30.0331 13.6081 30.1116 13.7576 30.2269 13.8763C30.3421 13.9951 30.4892 14.078 30.6505 14.1152C32.0972 14.4508 33.4781 15.0244 34.7368 15.8125C34.877 15.9 35.0394 15.9453 35.2046 15.9428C35.3698 15.9404 35.5308 15.8904 35.6684 15.7988L38.3324 14.0241L40.9802 16.671L39.2047 19.3351C39.1131 19.4726 39.0631 19.6336 39.0606 19.7988C39.0582 19.9641 39.1034 20.1265 39.1909 20.2666C39.9784 21.5258 40.5514 22.907 40.8865 24.3538C40.9237 24.5151 41.0066 24.6622 41.1254 24.7774C41.2441 24.8927 41.3936 24.9712 41.5559 25.0035L44.6875 25.6266V29.3734L41.5542 29.9999C41.3919 30.0323 41.2424 30.1108 41.1237 30.226C41.0049 30.3413 40.922 30.4884 40.8848 30.6496C40.5492 32.0966 39.9756 33.4777 39.1875 34.7368C39.1 34.877 39.0547 35.0394 39.0572 35.2046C39.0596 35.3698 39.1096 35.5308 39.2013 35.6684L40.9767 38.3324L38.3281 40.9776L35.6641 39.203C35.5265 39.1114 35.3655 39.0613 35.2003 39.0589C35.0351 39.0565 34.8727 39.1017 34.7325 39.1892C33.4736 39.9767 32.0928 40.5497 30.6462 40.8848C30.4849 40.922 30.3378 41.0049 30.2226 41.1237C30.1073 41.2424 30.0288 41.3919 29.9965 41.5542L29.3734 44.6875H25.6266L24.9992 41.5542C24.9669 41.3919 24.8884 41.2424 24.7731 41.1237C24.6579 41.0049 24.5108 40.922 24.3495 40.8848C22.9028 40.5492 21.5219 39.9756 20.2632 39.1875C20.123 39.1 19.9606 39.0547 19.7954 39.0572C19.6302 39.0596 19.4692 39.1096 19.3316 39.2013L16.6676 40.9759L14.0216 38.3281L15.797 35.6641C15.8886 35.5265 15.9387 35.3655 15.9411 35.2003C15.9435 35.0351 15.8983 34.8727 15.8108 34.7325C15.0233 33.4733 14.4503 32.0922 14.1152 30.6453C14.078 30.4841 13.9951 30.337 13.8763 30.2217C13.7576 30.1065 13.6081 30.028 13.4458 29.9956L10.3125 29.3734V25.6266L13.4458 25.0001C13.6068 24.9649 13.7549 24.8855 13.8731 24.7707C13.9914 24.6559 14.0753 24.5103 14.1152 24.3504C14.4508 22.9034 15.0244 21.5223 15.8125 20.2632C15.8941 20.121 15.9359 19.9595 15.9334 19.7955C15.931 19.6316 15.8845 19.4714 15.7988 19.3316L14.0233 16.6676L16.6659 14.025Z" fill="#2166F3" stroke="#2166F3" stroke-width="0.5"/>
</svg>
