<svg width="14" height="16" viewBox="0 0 14 16" fill="none" xmlns="http://www.w3.org/2000/svg">
<path d="M11.2744 0.648076C9.4519 2.24008 7.04256 5.16008 5.19241 8.01608C4.82652 8.58408 4.51586 9.04008 4.49515 9.04008C4.47444 9.04008 3.78408 8.44808 2.96946 7.72008C2.15484 7.00008 1.43687 6.40008 1.38164 6.40008C1.24357 6.40008 0.283978 7.58408 0.235654 7.81608C0.201136 7.96008 0.435857 8.43208 1.2919 9.93608C2.54834 12.1521 3.32154 13.5761 3.94977 14.8401C4.42611 15.7921 4.58489 15.9281 4.7989 15.5841C4.86103 15.4801 5.19241 14.8081 5.53758 14.0801C7.98834 8.92008 10.8533 4.12008 13.166 1.28008C13.8771 0.400076 13.7873 0.240076 12.593 0.240076H11.7439L11.2744 0.648076Z" fill="#252525"/>
</svg>
