<svg width="50" height="50" fill="none" xmlns="http://www.w3.org/2000/svg"><g clip-path="url(#a)" fill="#111"><path d="M25 0C11.205 0 0 11.205 0 25s11.205 25 25 25 25-11.205 25-25S38.795 0 25 0zm0 47.831C12.41 47.831 2.169 37.591 2.169 25 2.169 12.41 12.409 2.169 25 2.169c12.59 0 22.831 10.24 22.831 22.831 0 12.59-10.24 22.831-22.831 22.831z"/><path d="M38.013 19.578h-7.59v-7.59a1.08 1.08 0 0 0-1.085-1.085h-8.675a1.08 1.08 0 0 0-1.084 1.085v7.59h-7.59a1.08 1.08 0 0 0-1.085 1.084v8.675a1.08 1.08 0 0 0 1.085 1.084h7.59v7.59a1.08 1.08 0 0 0 1.084 1.085h8.675a1.08 1.08 0 0 0 1.084-1.084v-7.59h7.59a1.08 1.08 0 0 0 1.085-1.085v-8.675c-.06-.602-.542-1.084-1.084-1.084zm-1.024 8.675h-7.651a1.08 1.08 0 0 0-1.084 1.084v7.59h-6.506v-7.59a1.08 1.08 0 0 0-1.085-1.084h-7.59v-6.506h7.59a1.08 1.08 0 0 0 1.085-1.085v-7.59h6.566v7.59a1.08 1.08 0 0 0 1.084 1.085h7.59v6.506z"/></g><defs><clipPath id="a"><path fill="#fff" d="M0 0h50v50H0z"/></clipPath></defs></svg>