<svg width="52" height="54" viewBox="0 0 52 54" fill="none" xmlns="http://www.w3.org/2000/svg">
<path d="M26.7933 6.75H22.0286C21.818 6.75 21.616 6.66111 21.4671 6.50287C21.3182 6.34464 21.2345 6.13003 21.2345 5.90625C21.2345 5.68247 21.3182 5.46786 21.4671 5.30963C21.616 5.15139 21.818 5.0625 22.0286 5.0625H26.7933C27.0039 5.0625 27.2059 5.15139 27.3548 5.30963C27.5038 5.46786 27.5874 5.68247 27.5874 5.90625C27.5874 6.13003 27.5038 6.34464 27.3548 6.50287C27.2059 6.66111 27.0039 6.75 26.7933 6.75ZM33.1463 52.3125H15.6757C14.623 52.3112 13.6138 51.8663 12.8694 51.0754C12.1251 50.2845 11.7063 49.2122 11.7051 48.0938V36.2812C11.7051 36.0575 11.7887 35.8429 11.9377 35.6846C12.0866 35.5264 12.2886 35.4375 12.4992 35.4375C12.7098 35.4375 12.9118 35.5264 13.0607 35.6846C13.2096 35.8429 13.2933 36.0575 13.2933 36.2812V48.0938C13.2933 49.4893 14.3622 50.625 15.6757 50.625H33.1463C34.4597 50.625 35.5286 49.4893 35.5286 48.0938V19.4062C35.5286 19.1825 35.6123 18.9679 35.7612 18.8096C35.9101 18.6514 36.1121 18.5625 36.3227 18.5625C36.5333 18.5625 36.7353 18.6514 36.8843 18.8096C37.0332 18.9679 37.1168 19.1825 37.1168 19.4062V48.0938C37.1168 50.4191 35.3364 52.3125 33.1463 52.3125Z" fill="#2166F3"/>
<path d="M36.3225 8.4375C36.1119 8.4375 35.9099 8.34861 35.7609 8.19037C35.612 8.03214 35.5284 7.81753 35.5284 7.59375V5.90625C35.5284 4.51069 34.4595 3.375 33.146 3.375H15.6754C14.3619 3.375 13.2931 4.51069 13.2931 5.90625V7.59375C13.2931 7.81753 13.2094 8.03214 13.0605 8.19037C12.9115 8.34861 12.7096 8.4375 12.4989 8.4375C12.2883 8.4375 12.0863 8.34861 11.9374 8.19037C11.7885 8.03214 11.7048 7.81753 11.7048 7.59375V5.90625C11.7048 3.58087 13.4852 1.6875 15.6754 1.6875H33.146C35.3362 1.6875 37.1166 3.58087 37.1166 5.90625V7.59375C37.1166 7.81753 37.0329 8.03214 36.884 8.19037C36.7351 8.34861 36.5331 8.4375 36.3225 8.4375ZM23.6166 42.1875H17.2636C17.053 42.1875 16.851 42.0986 16.7021 41.9404C16.5532 41.7821 16.4695 41.5675 16.4695 41.3438C16.4695 41.12 16.5532 40.9054 16.7021 40.7471C16.851 40.5889 17.053 40.5 17.2636 40.5H23.6166C23.8272 40.5 24.0292 40.5889 24.1781 40.7471C24.327 40.9054 24.4107 41.12 24.4107 41.3438C24.4107 41.5675 24.327 41.7821 24.1781 41.9404C24.0292 42.0986 23.8272 42.1875 23.6166 42.1875ZM28.3813 45.5625H17.2636C17.053 45.5625 16.851 45.4736 16.7021 45.3154C16.5532 45.1571 16.4695 44.9425 16.4695 44.7188C16.4695 44.495 16.5532 44.2804 16.7021 44.1221C16.851 43.9639 17.053 43.875 17.2636 43.875H28.3813C28.5919 43.875 28.7939 43.9639 28.9428 44.1221C29.0917 44.2804 29.1754 44.495 29.1754 44.7188C29.1754 44.9425 29.0917 45.1571 28.9428 45.3154C28.7939 45.4736 28.5919 45.5625 28.3813 45.5625ZM31.5578 38.8125H17.2636C17.053 38.8125 16.851 38.7236 16.7021 38.5654C16.5532 38.4071 16.4695 38.1925 16.4695 37.9688C16.4695 37.745 16.5532 37.5304 16.7021 37.3721C16.851 37.2139 17.053 37.125 17.2636 37.125H31.5578C31.7684 37.125 31.9704 37.2139 32.1193 37.3721C32.2682 37.5304 32.3519 37.745 32.3519 37.9688C32.3519 38.1925 32.2682 38.4071 32.1193 38.5654C31.9704 38.7236 31.7684 38.8125 31.5578 38.8125ZM14.8813 23.625C12.6911 23.625 10.9107 21.7316 10.9107 19.4062C10.9107 17.0809 12.6911 15.1875 14.8813 15.1875C17.0715 15.1875 18.8519 17.0809 18.8519 19.4062C18.8519 21.7316 17.0715 23.625 14.8813 23.625ZM14.8813 16.875C13.5678 16.875 12.4989 18.0107 12.4989 19.4062C12.4989 20.8018 13.5678 21.9375 14.8813 21.9375C16.1948 21.9375 17.2636 20.8018 17.2636 19.4062C17.2636 18.0107 16.1948 16.875 14.8813 16.875ZM14.8813 33.75C12.0895 33.7469 9.40166 32.6248 7.35465 30.6079C7.25036 30.5054 7.17384 30.3752 7.13306 30.2306C7.09227 30.0861 7.08872 29.9326 7.12276 29.7861C7.41697 28.5079 8.10702 27.3719 9.08205 26.5605C10.0571 25.7492 11.2605 25.3096 12.4989 25.3125H17.2636C18.5019 25.3101 19.7051 25.7495 20.6803 26.5604C21.6555 27.3713 22.3461 28.5066 22.6414 29.7844C22.6755 29.9309 22.6719 30.0844 22.6311 30.2289C22.5903 30.3735 22.5138 30.5038 22.4095 30.6062C20.3624 32.6242 17.6738 33.7469 14.8813 33.75ZM8.80312 29.7118C12.2369 32.751 17.5257 32.751 20.9595 29.7118C20.6769 28.9135 20.1715 28.226 19.511 27.7413C18.8505 27.2567 18.0664 26.998 17.2636 27H12.4989C11.6962 26.998 10.9121 27.2567 10.2516 27.7413C9.59107 28.226 9.08568 28.9135 8.80312 29.7118Z" fill="#2166F3"/>
<path d="M14.8813 33.75C8.75232 33.75 3.76367 28.4512 3.76367 21.9375C3.76367 15.4238 8.75232 10.125 14.8813 10.125C21.0103 10.125 25.999 15.4238 25.999 21.9375C25.999 28.4512 21.0103 33.75 14.8813 33.75ZM14.8813 11.8125C9.62585 11.8125 5.35191 16.3536 5.35191 21.9375C5.35191 27.5214 9.62585 32.0625 14.8813 32.0625C20.1368 32.0625 24.4107 27.5214 24.4107 21.9375C24.4107 16.3536 20.1368 11.8125 14.8813 11.8125ZM7.73426 38.7281C7.29591 38.7281 6.94014 38.4345 6.94014 37.9688V37.8C6.94014 37.5762 7.02381 37.3616 7.17273 37.2034C7.32166 37.0451 7.52365 36.9562 7.73426 36.9562C7.94487 36.9562 8.14686 37.0451 8.29579 37.2034C8.44471 37.3616 8.52838 37.5762 8.52838 37.8C8.52838 38.2657 8.17261 38.7281 7.73426 38.7281ZM7.73426 42.1031C7.29591 42.1031 6.94014 41.8095 6.94014 41.3438V41.175C6.94014 40.9512 7.02381 40.7366 7.17273 40.5784C7.32166 40.4201 7.52365 40.3312 7.73426 40.3312C7.94487 40.3312 8.14686 40.4201 8.29579 40.5784C8.44471 40.7366 8.52838 40.9512 8.52838 41.175C8.52838 41.6407 8.17261 42.1031 7.73426 42.1031ZM7.73426 45.4781C7.29591 45.4781 6.94014 45.1845 6.94014 44.7188V44.55C6.94014 44.3262 7.02381 44.1116 7.17273 43.9534C7.32166 43.7951 7.52365 43.7062 7.73426 43.7062C7.94487 43.7062 8.14686 43.7951 8.29579 43.9534C8.44471 44.1116 8.52838 44.3262 8.52838 44.55C8.52838 45.0157 8.17261 45.4781 7.73426 45.4781ZM39.2448 45.5625H37.9107C37.7001 45.5625 37.4981 45.4736 37.3492 45.3154C37.2003 45.1571 37.1166 44.9425 37.1166 44.7188C37.1166 44.495 37.2003 44.2804 37.3492 44.1221C37.4981 43.9639 37.7001 43.875 37.9107 43.875H38.6048L38.9939 41.9597C39.0252 41.8046 39.0971 41.6621 39.2014 41.5486C39.3056 41.4352 39.438 41.3554 39.5831 41.3184C40.3495 41.1188 41.082 40.7937 41.7543 40.3549C41.881 40.2727 42.027 40.2299 42.1755 40.2314C42.324 40.2329 42.4691 40.2786 42.5944 40.3633L44.1668 41.4315L45.1404 40.3886L44.135 38.7315C44.0543 38.5983 44.0105 38.4436 44.0085 38.2852C44.0066 38.1267 44.0465 37.9709 44.1239 37.8354C44.5371 37.1214 44.8426 36.343 45.0292 35.5286C45.0641 35.3749 45.1389 35.2346 45.245 35.1236C45.3511 35.0127 45.4843 34.9355 45.6296 34.9009L47.4386 34.4739V33.0278L45.6296 32.6008C45.4843 32.5662 45.3511 32.489 45.245 32.3781C45.1389 32.2671 45.0641 32.1268 45.0292 31.9731C44.8419 31.1589 44.5365 30.3806 44.1239 29.6662C44.0459 29.5314 44.0054 29.3759 44.0071 29.2176C44.0088 29.0593 44.0526 28.9048 44.1334 28.7719L45.1404 27.0996L44.1684 26.0668L42.5944 27.1367C42.4693 27.2218 42.3241 27.2678 42.1755 27.2692C42.0269 27.2707 41.8809 27.2277 41.7543 27.1451C41.0817 26.7069 40.3493 26.3818 39.5831 26.1816C39.438 26.1446 39.3056 26.0648 39.2014 25.9514C39.0971 25.8379 39.0252 25.6954 38.9939 25.5403L38.6048 23.625H37.9107C37.7001 23.625 37.4981 23.5361 37.3492 23.3779C37.2003 23.2196 37.1166 23.005 37.1166 22.7812C37.1166 22.5575 37.2003 22.3429 37.3492 22.1846C37.4981 22.0264 37.7001 21.9375 37.9107 21.9375H39.2448C39.4263 21.9378 39.6021 22.0041 39.7431 22.1254C39.8841 22.2467 39.9818 22.4156 40.0199 22.6041L40.444 24.6848C41.0253 24.8721 41.5954 25.1252 42.145 25.4408L43.8507 24.2814C44.0033 24.1779 44.1845 24.1328 44.3645 24.1537C44.5444 24.1745 44.7123 24.2601 44.8402 24.3962L46.7159 26.3874C46.8437 26.5236 46.924 26.702 46.9433 26.8932C46.9627 27.0844 46.92 27.2769 46.8223 27.4388L45.7312 29.2511C46.0282 29.8367 46.2664 30.4425 46.4427 31.0618L48.4042 31.5242C48.5807 31.5657 48.7386 31.6699 48.8518 31.8196C48.965 31.9693 49.0267 32.1556 49.0268 32.3477V35.1489C49.0267 35.341 48.965 35.5273 48.8518 35.677C48.7386 35.8267 48.5807 35.931 48.4042 35.9724L46.4427 36.4348C46.2635 37.0617 46.0251 37.6678 45.7312 38.2438L46.8207 40.0393C46.9194 40.2006 46.9629 40.393 46.9442 40.5844C46.9254 40.7757 46.8454 40.9544 46.7175 41.0906L44.8418 43.0988C44.714 43.2355 44.5459 43.3217 44.3656 43.3428C44.1853 43.364 44.0036 43.319 43.8507 43.2152L42.145 42.0559C41.6031 42.3675 41.0333 42.6208 40.444 42.8119L40.0199 44.8926C39.9824 45.0816 39.885 45.2513 39.744 45.3733C39.6029 45.4952 39.4267 45.562 39.2448 45.5625Z" fill="#2166F3"/>
<path d="M39.5835 38.421C39.4029 38.4208 39.2277 38.3551 39.087 38.2349C38.9462 38.1146 38.8482 37.947 38.8092 37.7596C38.7701 37.5723 38.7924 37.3764 38.8722 37.2042C38.952 37.0321 39.0847 36.894 39.2484 36.8128C39.7967 36.5401 40.2608 36.1074 40.5865 35.5651C40.9121 35.0228 41.0859 34.3933 41.0875 33.75C41.0868 33.1935 40.9566 32.6458 40.7087 32.1555C40.4607 31.6653 40.1026 31.2478 39.6661 30.94C39.2297 30.6323 38.7285 30.4439 38.207 30.3915C37.6855 30.3392 37.16 30.4245 36.677 30.6399C36.5803 30.6883 36.4754 30.7154 36.3686 30.7196C36.2618 30.7238 36.1553 30.7051 36.0555 30.6646C35.9556 30.624 35.8645 30.5625 35.7876 30.4837C35.7107 30.4048 35.6496 30.3103 35.6079 30.2058C35.5661 30.1012 35.5447 29.9888 35.5449 29.8752C35.545 29.7617 35.5668 29.6493 35.6087 29.5449C35.6507 29.4405 35.7121 29.3461 35.7893 29.2675C35.8664 29.1889 35.9577 29.1277 36.0576 29.0874C36.782 28.7643 37.5703 28.6361 38.3525 28.7145C39.1347 28.7928 39.8865 29.0752 40.5413 29.5365C41.1961 29.9978 41.7336 30.6238 42.1059 31.3588C42.4783 32.0939 42.674 32.9152 42.6758 33.75C42.6738 34.7145 42.4134 35.6584 41.9252 36.4715C41.4369 37.2846 40.741 37.9333 39.9186 38.3417C39.8137 38.3939 39.6993 38.421 39.5835 38.421ZM41.8817 16.875H32.3523C30.6004 16.875 29.1758 15.3613 29.1758 13.5C29.1758 11.6387 30.6004 10.125 32.3523 10.125H41.8817C43.6335 10.125 45.0581 11.6387 45.0581 13.5C45.0581 15.3613 43.6335 16.875 41.8817 16.875ZM32.3523 11.8125C31.9433 11.8319 31.5572 12.0182 31.2743 12.3326C30.9914 12.6469 30.8335 13.0651 30.8335 13.5C30.8335 13.9349 30.9914 14.3531 31.2743 14.6674C31.5572 14.9818 31.9433 15.1681 32.3523 15.1875H41.8817C42.2906 15.1681 42.6767 14.9818 42.9596 14.6674C43.2425 14.3531 43.4004 13.9349 43.4004 13.5C43.4004 13.0651 43.2425 12.6469 42.9596 12.3326C42.6767 12.0182 42.2906 11.8319 41.8817 11.8125H32.3523Z" fill="#2166F3"/>
</svg>
