<svg width="34" height="40" viewBox="0 0 34 40" fill="none" xmlns="http://www.w3.org/2000/svg">
<path d="M19.6396 34.4714C19.4719 34.4716 19.3088 34.4163 19.1756 34.3143C19.0425 34.2123 18.9467 34.0692 18.9033 33.9072C18.8598 33.7452 18.871 33.5734 18.9351 33.4185C18.9992 33.2635 19.1127 33.134 19.258 33.0501L27.1739 28.4802C27.2606 28.4294 27.3564 28.3962 27.4559 28.3826C27.5554 28.369 27.6567 28.3752 27.7538 28.4009C27.8509 28.4266 27.942 28.4712 28.0218 28.5322C28.1016 28.5932 28.1685 28.6694 28.2187 28.7564C28.2689 28.8434 28.3015 28.9395 28.3144 29.0391C28.3274 29.1387 28.3205 29.2399 28.2942 29.3368C28.2678 29.4338 28.2226 29.5245 28.1611 29.6039C28.0995 29.6833 28.0229 29.7497 27.9356 29.7994L20.0197 34.3693C19.9042 34.4363 19.7731 34.4715 19.6396 34.4714ZM14.3613 34.4714C14.2278 34.4715 14.0967 34.4363 13.9812 34.3693L6.06532 29.7994C5.978 29.7497 5.90137 29.6833 5.83982 29.6039C5.77828 29.5245 5.73305 29.4338 5.70673 29.3368C5.68041 29.2399 5.67353 29.1387 5.68647 29.0391C5.69942 28.9395 5.73194 28.8434 5.78217 28.7564C5.83239 28.6694 5.89933 28.5932 5.97912 28.5322C6.05891 28.4712 6.14998 28.4266 6.2471 28.4009C6.34421 28.3752 6.44544 28.369 6.54496 28.3826C6.64448 28.3962 6.74033 28.4294 6.82698 28.4802L14.7429 33.0501C14.8887 33.1336 15.0028 33.263 15.0674 33.4182C15.132 33.5733 15.1433 33.7455 15.0998 33.9078C15.0562 34.0701 14.9601 34.2134 14.8265 34.3154C14.6929 34.4173 14.5293 34.4722 14.3613 34.4714ZM3.80853 25.3315C3.60653 25.3315 3.4128 25.2513 3.26996 25.1084C3.12712 24.9656 3.04688 24.7718 3.04688 24.5698V15.43C3.04688 15.2279 3.12712 15.0342 3.26996 14.8914C3.4128 14.7485 3.60653 14.6683 3.80853 14.6683C4.01054 14.6683 4.20427 14.7485 4.34711 14.8914C4.48994 15.0342 4.57019 15.2279 4.57019 15.43V24.5698C4.57019 24.7718 4.48994 24.9656 4.34711 25.1084C4.20427 25.2513 4.01054 25.3315 3.80853 25.3315ZM6.44768 11.6217C6.27995 11.6218 6.11686 11.5666 5.98372 11.4646C5.85058 11.3626 5.75483 11.2195 5.71134 11.0575C5.66785 10.8955 5.67904 10.7237 5.74319 10.5687C5.80733 10.4138 5.92083 10.2843 6.06608 10.2004L13.982 5.63047C14.1568 5.53106 14.3639 5.50484 14.558 5.55754C14.7521 5.61024 14.9175 5.73757 15.0181 5.91175C15.1186 6.08593 15.1462 6.29282 15.0948 6.48727C15.0434 6.68172 14.9172 6.84794 14.7437 6.94966L6.82774 11.5196C6.71222 11.5864 6.58113 11.6216 6.44768 11.6217ZM27.5532 11.6217C27.4197 11.6218 27.2886 11.5866 27.1731 11.5196L19.2572 6.94966C19.1699 6.90001 19.0933 6.83358 19.0317 6.7542C18.9702 6.67481 18.925 6.58404 18.8986 6.4871C18.8723 6.39016 18.8654 6.28897 18.8784 6.18936C18.8913 6.08975 18.9239 5.99369 18.9741 5.9067C19.0243 5.81971 19.0912 5.74351 19.171 5.6825C19.2508 5.62148 19.3419 5.57685 19.439 5.55118C19.5361 5.52551 19.6373 5.51929 19.7369 5.5329C19.8364 5.54651 19.9322 5.57967 20.0189 5.63047L27.9348 10.2004C28.0806 10.2839 28.1948 10.4133 28.2593 10.5685C28.3239 10.7236 28.3352 10.8958 28.2917 11.0581C28.2481 11.2204 28.152 11.3637 28.0184 11.4656C27.8848 11.5676 27.7213 11.6225 27.5532 11.6217ZM30.1923 25.3315C29.9903 25.3315 29.7966 25.2513 29.6538 25.1084C29.5109 24.9656 29.4307 24.7718 29.4307 24.5698V15.43C29.4307 15.2279 29.5109 15.0342 29.6538 14.8914C29.7966 14.7485 29.9903 14.6683 30.1923 14.6683C30.3944 14.6683 30.5881 14.7485 30.7309 14.8914C30.8738 15.0342 30.954 15.2279 30.954 15.43V24.5698C30.954 24.7718 30.8738 24.9656 30.7309 25.1084C30.5881 25.2513 30.3944 25.3315 30.1923 25.3315Z" fill="#7B7B7B"/>
<path d="M3.80829 31.4248C1.7442 31.4248 0 29.6806 0 27.6165C0 25.5524 1.7442 23.8082 3.80829 23.8082C5.87238 23.8082 7.61657 25.5524 7.61657 27.6165C7.61657 29.6806 5.87238 31.4248 3.80829 31.4248ZM3.80829 25.3315C2.56983 25.3315 1.52331 26.3781 1.52331 27.6165C1.52331 28.855 2.56983 29.9015 3.80829 29.9015C5.04674 29.9015 6.09326 28.855 6.09326 27.6165C6.09326 26.3781 5.04674 25.3315 3.80829 25.3315ZM3.80829 16.1916C1.7442 16.1916 0 14.4475 0 12.3834C0 10.3193 1.7442 8.57507 3.80829 8.57507C5.87238 8.57507 7.61657 10.3193 7.61657 12.3834C7.61657 14.4475 5.87238 16.1916 3.80829 16.1916ZM3.80829 10.0984C2.56983 10.0984 1.52331 11.1449 1.52331 12.3834C1.52331 13.6218 2.56983 14.6683 3.80829 14.6683C5.04674 14.6683 6.09326 13.6218 6.09326 12.3834C6.09326 11.1449 5.04674 10.0984 3.80829 10.0984ZM17.0002 8.57507C14.9361 8.57507 13.1919 6.83088 13.1919 4.76678C13.1919 2.70269 14.9361 0.958496 17.0002 0.958496C19.0643 0.958496 20.8085 2.70269 20.8085 4.76678C20.8085 6.83088 19.0643 8.57507 17.0002 8.57507ZM17.0002 2.48181C15.7617 2.48181 14.7152 3.52833 14.7152 4.76678C14.7152 6.00524 15.7617 7.05176 17.0002 7.05176C18.2386 7.05176 19.2852 6.00524 19.2852 4.76678C19.2852 3.52833 18.2386 2.48181 17.0002 2.48181ZM30.1921 16.1916C28.128 16.1916 26.3838 14.4475 26.3838 12.3834C26.3838 10.3193 28.128 8.57507 30.1921 8.57507C32.2562 8.57507 34.0004 10.3193 34.0004 12.3834C34.0004 14.4475 32.2562 16.1916 30.1921 16.1916ZM30.1921 10.0984C28.9536 10.0984 27.9071 11.1449 27.9071 12.3834C27.9071 13.6218 28.9536 14.6683 30.1921 14.6683C31.4306 14.6683 32.4771 13.6218 32.4771 12.3834C32.4771 11.1449 31.4306 10.0984 30.1921 10.0984ZM30.1921 31.4248C28.128 31.4248 26.3838 29.6806 26.3838 27.6165C26.3838 25.5524 28.128 23.8082 30.1921 23.8082C32.2562 23.8082 34.0004 25.5524 34.0004 27.6165C34.0004 29.6806 32.2562 31.4248 30.1921 31.4248ZM30.1921 25.3315C28.9536 25.3315 27.9071 26.3781 27.9071 27.6165C27.9071 28.855 28.9536 29.9015 30.1921 29.9015C31.4306 29.9015 32.4771 28.855 32.4771 27.6165C32.4771 26.3781 31.4306 25.3315 30.1921 25.3315ZM17.0002 39.0414C14.9361 39.0414 13.1919 37.2972 13.1919 35.2331C13.1919 33.169 14.9361 31.4248 17.0002 31.4248C19.0643 31.4248 20.8085 33.169 20.8085 35.2331C20.8085 37.2972 19.0643 39.0414 17.0002 39.0414ZM17.0002 32.9481C15.7617 32.9481 14.7152 33.9946 14.7152 35.2331C14.7152 36.4715 15.7617 37.5181 17.0002 37.5181C18.2386 37.5181 19.2852 36.4715 19.2852 35.2331C19.2852 33.9946 18.2386 32.9481 17.0002 32.9481ZM17.0002 29.1193C15.8646 29.1193 14.7152 28.3515 14.7152 26.8838C14.7152 23.9484 19.2852 23.9484 19.2852 26.8838C19.2852 28.3515 18.1358 29.1193 17.0002 29.1193ZM17.0002 26.1724C16.873 26.1724 16.2385 26.2067 16.2385 26.8846C16.2385 27.5624 16.873 27.5967 17.0002 27.5967C17.1274 27.5967 17.7619 27.5624 17.7619 26.8846C17.7619 26.2067 17.1274 26.1724 17.0002 26.1724Z" fill="#7B7B7B"/>
<path d="M20.166 24.3495C19.9696 24.3496 19.7807 24.2737 19.6389 24.1377C18.931 23.4543 17.9853 23.0723 17.0013 23.0723C16.0173 23.0723 15.0716 23.4543 14.3637 24.1377C14.2162 24.2675 14.0242 24.3353 13.8279 24.327C13.6316 24.3188 13.4461 24.235 13.31 24.0932C13.174 23.9515 13.0979 23.7627 13.0977 23.5662C13.0974 23.3697 13.1731 23.1807 13.3088 23.0387C14.3001 22.0826 15.6237 21.5483 17.0009 21.5483C18.3782 21.5483 19.7017 22.0826 20.6931 23.0387C20.8026 23.1439 20.8781 23.2795 20.91 23.4279C20.9418 23.5764 20.9286 23.731 20.8719 23.872C20.8153 24.0129 20.7178 24.1336 20.592 24.2187C20.4662 24.3038 20.3179 24.3493 20.166 24.3495Z" fill="#7B7B7B"/>
<path d="M22.2747 22.1516C22.0783 22.1517 21.8894 22.0759 21.7476 21.9399C20.4733 20.7097 18.7711 20.0221 16.9998 20.0221C15.2285 20.0221 13.5264 20.7097 12.252 21.9399C12.1063 22.0798 11.9109 22.156 11.709 22.1519C11.507 22.1478 11.3149 22.0635 11.1751 21.9178C11.0352 21.7721 10.9589 21.5767 10.9631 21.3747C10.9672 21.1728 11.0514 20.9807 11.1971 20.8408C12.7547 19.3376 14.8348 18.4976 16.9995 18.4976C19.1641 18.4976 21.2442 19.3376 22.8018 20.8408C22.9113 20.9461 22.9868 21.0816 23.0187 21.2301C23.0505 21.3786 23.0373 21.5332 22.9807 21.6741C22.924 21.815 22.8265 21.9358 22.7007 22.0209C22.5749 22.1059 22.4266 22.1515 22.2747 22.1516Z" fill="#7B7B7B"/>
<path d="M24.384 19.9535C24.1876 19.9536 23.9987 19.8777 23.857 19.7417C22.0159 17.9653 19.5574 16.9725 16.999 16.9725C14.4406 16.9725 11.9821 17.9653 10.141 19.7417C9.99351 19.8715 9.80158 19.9393 9.60527 19.9311C9.40896 19.9228 9.22342 19.839 9.08737 19.6973C8.95131 19.5555 8.87523 19.3667 8.875 19.1702C8.87477 18.9737 8.9504 18.7847 9.08613 18.6427C11.2104 16.5934 14.047 15.4482 16.9986 15.4482C19.9503 15.4482 22.7868 16.5934 24.9111 18.6427C25.0206 18.7479 25.0961 18.8835 25.128 19.032C25.1599 19.1804 25.1466 19.3351 25.09 19.476C25.0333 19.6169 24.9358 19.7376 24.81 19.8227C24.6842 19.9078 24.5359 19.9533 24.384 19.9535Z" fill="#7B7B7B"/>
<path d="M26.4947 17.7565C26.2982 17.7566 26.1094 17.6807 25.9676 17.5448C23.5602 15.2215 20.3451 13.9232 16.9995 13.9232C13.6538 13.9232 10.4388 15.2215 8.03134 17.5448C7.88559 17.6847 7.69025 17.7609 7.48827 17.7568C7.2863 17.7526 7.09424 17.6684 6.95435 17.5227C6.81447 17.3769 6.73821 17.1816 6.74235 16.9796C6.74649 16.7776 6.8307 16.5856 6.97644 16.4457C9.66715 13.8497 13.2602 12.3989 16.9991 12.3989C20.738 12.3989 24.331 13.8497 27.0217 16.4457C27.1312 16.5509 27.2068 16.6865 27.2387 16.835C27.2705 16.9835 27.2573 17.1381 27.2006 17.279C27.144 17.4199 27.0465 17.5407 26.9207 17.6257C26.7949 17.7108 26.6465 17.7564 26.4947 17.7565ZM16.9991 32.9478C16.7971 32.9478 16.6034 32.8675 16.4605 32.7247C16.3177 32.5819 16.2374 32.3881 16.2374 32.1861V28.4068C16.2374 28.2048 16.3177 28.011 16.4605 27.8682C16.6034 27.7254 16.7971 27.6451 16.9991 27.6451C17.2011 27.6451 17.3948 27.7254 17.5377 27.8682C17.6805 28.011 17.7608 28.2048 17.7608 28.4068V32.1861C17.7608 32.3881 17.6805 32.5819 17.5377 32.7247C17.3948 32.8675 17.2011 32.9478 16.9991 32.9478Z" fill="#7B7B7B"/>
</svg>
