<svg width="50" height="50" fill="none" xmlns="http://www.w3.org/2000/svg"><path d="M28.398 41.77H20.72l-.344-4.125a4.236 4.236 0 0 1-1.26-.572l-3.209 2.75-5.5-5.5L13.044 31c-.23-.459-.344-.917-.573-1.375l-4.125-.344v-7.677l4.125-.344c.114-.458.344-.917.573-1.26l-2.75-3.209 5.385-5.385 3.323 2.75c.458-.23.917-.344 1.26-.573l.344-4.125h7.677l.344 4.125c.458.115.917.344 1.26.573l3.209-2.636 5.5 5.386-2.75 3.208c.229.459.344.917.573 1.26l4.125.344v7.677l-4.24.459a4.233 4.233 0 0 1-.573 1.26l2.865 3.209-5.5 5.5-3.209-2.75c-.458.229-.916.343-1.26.572l-.23 4.125zm-5.615-2.291h3.552l.344-3.667.802-.229c.802-.23 1.49-.458 2.177-.917l.688-.343 2.75 2.406 2.52-2.521-2.52-2.75.458-.688c.458-.802.688-1.49.917-2.177l.229-.802 3.781-.458v-3.552l-3.666-.458-.23-.803c-.229-.802-.458-1.49-.916-2.177l-.344-.687 2.291-2.75-2.52-2.406-2.75 2.406-.688-.344c-.802-.458-1.49-.687-2.177-.917l-.802-.229-.344-3.666h-3.552l-.344 3.666-.802.23c-.802.229-1.49.458-2.177.916l-.687.23-2.865-2.407-2.406 2.406 2.406 2.75-.343.688c-.459.802-.688 1.49-.917 2.177l-.23.802-3.666.344v3.552l3.667.344.229.802c.229.916.573 1.604.917 2.177l.458.687-2.406 2.98 2.52 2.52 2.75-2.406.688.344c.802.458 1.49.687 2.177.916l.802.23.23 3.78z" fill="#2166F3"/><path d="M24.501 31.458a5.918 5.918 0 0 1-5.958-5.959 5.918 5.918 0 0 1 5.958-5.958 5.918 5.918 0 0 1 5.959 5.958 5.918 5.918 0 0 1-5.959 5.959zm0-9.625c-1.948 0-3.666 1.718-3.666 3.666s1.718 3.667 3.666 3.667 3.667-1.719 3.667-3.667c0-1.948-1.719-3.666-3.667-3.666z" fill="#2166F3"/><path d="M24.502 31.457a5.918 5.918 0 0 1-5.958-5.958 5.918 5.918 0 0 1 5.958-5.958 5.918 5.918 0 0 1 5.958 5.958 5.918 5.918 0 0 1-5.958 5.958zm0-9.625c-2.063 0-3.667 1.604-3.667 3.667 0 2.063 1.604 3.667 3.667 3.667 2.063 0 3.667-1.605 3.667-3.667 0-2.063-1.605-3.667-3.667-3.667zm16.615-9.854c-4.125-5.041-10.198-7.906-16.615-7.906V1.78c7.104 0 13.865 3.209 18.448 8.823l-1.834 1.375zM3.075 25.5H.783c0-7.104 3.209-13.865 8.823-18.448l1.49 1.719c-5.157 4.24-8.021 10.312-8.021 16.729zm21.427 23.604c-7.219 0-13.98-3.208-18.448-8.823l1.833-1.49c4.01 5.042 10.084 7.907 16.615 7.907v2.406zm14.781-5.156-1.49-1.833c5.042-4.01 7.907-10.084 7.907-16.615h2.291a23.02 23.02 0 0 1-8.708 18.448z" fill="#2166F3"/><path d="m27.022 8.197-4.125-5.843 5.844-4.125L30.116.062l-4.01 2.75 2.75 4.01-1.834 1.375zm-6.76 44.573-1.375-1.833 4.01-2.75-2.75-4.01 1.834-1.376 4.124 5.844-5.843 4.125zm29.677-21.656-2.75-4.01-4.01 2.75-1.376-1.834 5.844-4.125 4.125 5.844-1.833 1.375zM1.355 27.218l-4.125-5.844L-.936 20l2.75 4.01 4.01-2.75L7.2 23.094l-5.844 4.125z" fill="#2166F3"/></svg>