<svg width="48" height="50" viewBox="0 0 48 50" fill="none" xmlns="http://www.w3.org/2000/svg">
<g clip-path="url(#clip0_176_974)">
<path d="M18.4579 26.1776L15.7005 11.5291C15.638 11.197 15.4692 10.8983 15.2227 10.6836C14.9762 10.4689 14.6674 10.3516 14.3487 10.3516H11.5913C11.2726 10.3516 10.9637 10.4689 10.7173 10.6836C10.4708 10.8983 10.302 11.197 10.2395 11.5291L7.48212 26.1775C7.33277 26.9709 7.81705 27.7426 8.56365 27.9012C9.31025 28.0599 10.0366 27.5453 10.1859 26.7521L11.0671 22.0703H14.8728L15.7541 26.7521C15.9034 27.5458 16.6301 28.06 17.3763 27.9013C18.1229 27.7426 18.6072 26.9709 18.4579 26.1776ZM11.6186 19.1406L12.7216 13.2812H13.2184L14.3214 19.1406H11.6186ZM40.5435 22.0703H36.4075V20.6055C36.4075 19.7965 35.7902 19.1406 35.0288 19.1406C34.2674 19.1406 33.6501 19.7965 33.6501 20.6055V22.0703H29.5141C28.7527 22.0703 28.1354 22.7262 28.1354 23.5352C28.1354 24.3441 28.7527 25 29.5141 25H29.8478C30.6333 27.6965 31.816 29.7662 33.1175 31.4248C32.0582 32.4543 30.9864 33.2985 30.0316 34.1101C29.437 34.6154 29.3406 35.5372 29.8163 36.1689C30.2922 36.801 31.1599 36.9028 31.7541 36.3977C32.7142 35.5815 33.865 34.6746 35.0288 33.5398C36.1934 34.6754 37.3464 35.584 38.3035 36.3977C38.8981 36.9031 39.7658 36.8006 40.2413 36.1689C40.717 35.5372 40.6205 34.6153 40.0261 34.1101C39.0738 33.3004 38.0005 32.4553 36.9401 31.4248C38.2416 29.7662 39.4243 27.6965 40.2099 25H40.5435C41.3049 25 41.9222 24.3441 41.9222 23.5352C41.9222 22.7262 41.3049 22.0703 40.5435 22.0703ZM35.0288 29.272C34.1488 28.0981 33.357 26.6971 32.7602 24.9902H37.2974C36.7006 26.6971 35.9089 28.0981 35.0288 29.272Z" fill="#2166F3"/>
<path d="M43.3935 8.88672H23.5037L22.9127 3.84941C22.6545 1.65488 20.8902 0 18.8087 0H4.60673C2.32613 0 0.470703 1.97139 0.470703 4.39453V36.7188C0.470703 39.1419 2.32613 41.1133 4.60673 41.1133H16.232L16.8155 46.1506C17.0732 48.3407 18.8375 50 20.9196 50H43.3935C45.6741 50 47.5295 48.0286 47.5295 45.6055V13.2812C47.5295 10.8581 45.6741 8.88672 43.3935 8.88672ZM4.60673 38.1836C3.84653 38.1836 3.22806 37.5265 3.22806 36.7188V4.39453C3.22806 3.58682 3.84653 2.92969 4.60673 2.92969H18.8087C19.5025 2.92969 20.0906 3.48125 20.1766 4.2123L24.1622 38.1836H4.60673ZM19.4711 45.0928L19.0101 41.1133H22.709L19.4711 45.0928ZM44.7722 45.6055C44.7722 46.4132 44.1537 47.0703 43.3935 47.0703H21.5069L26.7554 40.6198C26.8877 40.4614 26.9861 40.2744 27.0437 40.0717C27.1013 39.8689 27.1167 39.6553 27.089 39.4456L23.8474 11.8164H43.3935C44.1537 11.8164 44.7722 12.4735 44.7722 13.2812V45.6055Z" fill="#2166F3"/>
</g>
<defs>
<clipPath id="clip0_176_974">
<rect width="47.0588" height="50" fill="white" transform="translate(0.470703)"/>
</clipPath>
</defs>
</svg>
