<svg width="55" height="55" viewBox="0 0 55 55" fill="none" xmlns="http://www.w3.org/2000/svg">
<path d="M43.3674 35.5426C42.4145 34.5898 42.4372 33.376 42.7761 32.558C43.1149 31.74 43.9571 30.8658 45.3045 30.8658C46.2905 30.8658 47.0928 30.0636 47.0928 29.0776V25.9227C47.0928 24.9365 46.2905 24.1344 45.3045 24.1344C43.9571 24.1344 43.1149 23.2603 42.7761 22.4423C42.4372 21.6242 42.4146 20.4105 43.3674 19.4578C44.0645 18.7606 44.0645 17.626 43.3674 16.9288L41.1362 14.6975C40.4391 14.0004 39.3046 14.0003 38.6073 14.6976C37.6546 15.6504 36.4408 15.6276 35.6228 15.289C34.8047 14.95 33.9306 14.1079 33.9306 12.7605C33.9306 11.7744 33.1284 10.9723 32.1424 10.9723H28.9873C28.0013 10.9723 27.1992 11.7746 27.1992 12.7605C27.1992 14.1079 26.3251 14.95 25.507 15.289C24.6891 15.6276 23.4753 15.6503 22.5224 14.6975C21.8252 14.0004 20.6907 14.0002 19.9934 14.6975L17.7623 16.9288C17.0651 17.626 17.0651 18.7606 17.7623 19.4577C18.7151 20.4105 18.6925 21.6242 18.3535 22.4423C18.0147 23.2603 17.1725 24.1344 15.8252 24.1344C14.8391 24.1344 14.0369 24.9366 14.0369 25.9227V29.0776C14.0369 30.0637 14.8391 30.8658 15.8252 30.8658C17.1725 30.8658 18.0147 31.7399 18.3535 32.5579C18.6925 33.376 18.715 34.5898 17.7623 35.5425C17.0651 36.2397 17.0651 37.3743 17.7623 38.0716L19.9934 40.3027C20.6906 40.9997 21.8251 40.9999 22.5224 40.3027C23.4767 39.3485 24.6903 39.3702 25.5079 39.7089C26.3255 40.0475 27.1991 40.8902 27.1991 42.2398C27.1991 43.2258 28.0013 44.028 28.9872 44.028H32.1423C33.1284 44.028 33.9305 43.2257 33.9305 42.2398C33.9305 40.8924 34.8046 40.0502 35.6226 39.7114C36.4406 39.3726 37.6544 39.35 38.6072 40.3028C39.3044 41 40.4388 41 41.1361 40.3028L43.3673 38.0716C44.0645 37.3743 44.0645 36.2397 43.3674 35.5426ZM42.304 37.0082L40.073 39.2392C40.0196 39.2925 39.9472 39.3224 39.8718 39.3224C39.7964 39.3224 39.724 39.2925 39.6707 39.2392C38.4352 38.004 36.6636 37.6525 35.0471 38.3219C33.4307 38.9915 32.4266 40.4927 32.4266 42.2398C32.4265 42.3152 32.3965 42.3874 32.3432 42.4407C32.2899 42.494 32.2177 42.524 32.1423 42.5241H28.9873C28.912 42.5239 28.8398 42.494 28.7865 42.4407C28.7332 42.3874 28.7032 42.3152 28.7031 42.2398C28.7031 40.491 27.6994 38.9887 26.0835 38.3195C25.542 38.0952 24.9832 37.9857 24.4326 37.9857C23.3403 37.9857 22.2812 38.4172 21.459 39.2393C21.4056 39.2926 21.3333 39.3225 21.2579 39.3225C21.1825 39.3225 21.1102 39.2926 21.0568 39.2393L18.8258 37.0084C18.7725 36.955 18.7426 36.8827 18.7426 36.8072C18.7426 36.7318 18.7725 36.6595 18.8258 36.6061C20.0611 35.3707 20.4126 33.599 19.7432 31.9825C19.0736 30.3662 17.5724 29.362 15.8253 29.362C15.7499 29.3619 15.6776 29.3319 15.6243 29.2786C15.571 29.2254 15.541 29.1531 15.5409 29.0777V25.9228C15.541 25.8474 15.571 25.7751 15.6243 25.7218C15.6776 25.6685 15.7499 25.6385 15.8253 25.6384C17.5724 25.6384 19.0736 24.6342 19.7432 23.0179C20.4127 21.4014 20.0612 19.6298 18.8258 18.3943C18.7725 18.341 18.7426 18.2687 18.7426 18.1933C18.7426 18.1179 18.7725 18.0456 18.8258 17.9922L21.0569 15.7611C21.1103 15.7078 21.1826 15.6779 21.258 15.6779C21.3334 15.6778 21.4057 15.7077 21.4591 15.761C22.6945 16.9963 24.466 17.3479 26.0825 16.6784C27.699 16.0089 28.7032 14.5076 28.7032 12.7605C28.7033 12.6851 28.7333 12.6129 28.7866 12.5596C28.8398 12.5063 28.9121 12.4763 28.9875 12.4762H32.1425C32.2179 12.4763 32.2901 12.5063 32.3434 12.5596C32.3967 12.6129 32.4267 12.6851 32.4268 12.7605C32.4268 14.5076 33.431 16.0088 35.0474 16.6784C36.6638 17.3478 38.4355 16.9964 39.6709 15.7611C39.7243 15.7078 39.7966 15.6779 39.872 15.6779C39.9474 15.6779 40.0198 15.7077 40.0732 15.761L42.3042 17.9921C42.3575 18.0455 42.3874 18.1179 42.3874 18.1933C42.3874 18.2687 42.3575 18.341 42.3042 18.3944C41.0689 19.6298 40.7174 21.4014 41.3869 23.0179C42.0564 24.6342 43.5577 25.6384 45.3047 25.6384C45.3801 25.6385 45.4524 25.6685 45.5057 25.7218C45.559 25.7751 45.589 25.8474 45.5891 25.9228V29.0777C45.589 29.1531 45.559 29.2254 45.5057 29.2786C45.4524 29.3319 45.3801 29.3619 45.3047 29.362C43.5576 29.362 42.0565 30.3662 41.3869 31.9825C40.7174 33.5991 41.0689 35.3707 42.3042 36.6062C42.3574 36.6596 42.3872 36.7319 42.3871 36.8072C42.3871 36.8826 42.3572 36.9548 42.304 37.0082ZM30.5648 19.168C25.9705 19.168 22.2328 22.9057 22.2328 27.5C22.2328 32.0944 25.9705 35.8321 30.5648 35.8321C35.1592 35.8321 38.897 32.0945 38.897 27.5C38.897 22.9056 35.1592 19.168 30.5648 19.168ZM30.5648 34.3282C26.7997 34.3282 23.7367 31.2651 23.7367 27.5C23.7367 23.735 26.7998 20.6719 30.5648 20.6719C34.3299 20.6719 37.3931 23.7349 37.3931 27.5C37.3931 31.2652 34.33 34.3282 30.5648 34.3282ZM7.94318 36.1031C7.94318 36.3026 7.86396 36.4938 7.72294 36.6348C7.58192 36.7759 7.39066 36.8551 7.19123 36.8551H3.23821C3.03878 36.8551 2.84752 36.7759 2.7065 36.6348C2.56548 36.4938 2.48626 36.3026 2.48626 36.1031C2.48626 35.9037 2.56548 35.7124 2.7065 35.5714C2.84752 35.4304 3.03878 35.3512 3.23821 35.3512H7.19123C7.39066 35.3512 7.58192 35.4304 7.72294 35.5714C7.86396 35.7124 7.94318 35.9037 7.94318 36.1031ZM2.43438 18.8973C2.43438 18.6978 2.5136 18.5066 2.65462 18.3656C2.79564 18.2245 2.9869 18.1453 3.18633 18.1453H7.13935C7.33878 18.1453 7.53004 18.2245 7.67106 18.3656C7.81208 18.5066 7.8913 18.6978 7.8913 18.8973C7.8913 19.0967 7.81208 19.288 7.67106 19.429C7.53004 19.57 7.33878 19.6492 7.13935 19.6492H3.18633C2.9869 19.6492 2.79564 19.57 2.65462 19.429C2.5136 19.288 2.43438 19.0967 2.43438 18.8973ZM5.66981 28.2521H1.7168C1.51737 28.2521 1.3261 28.1729 1.18509 28.0319C1.04407 27.8908 0.964844 27.6996 0.964844 27.5001C0.964844 27.3007 1.04407 27.1095 1.18509 26.9684C1.3261 26.8274 1.51737 26.7482 1.7168 26.7482H5.66981C5.86924 26.7482 6.06051 26.8274 6.20153 26.9684C6.34254 27.1095 6.42177 27.3007 6.42177 27.5001C6.42177 27.6996 6.34254 27.8908 6.20153 28.0319C6.06051 28.1729 5.86924 28.2521 5.66981 28.2521ZM12.436 28.2521H8.48298C8.28355 28.2521 8.09229 28.1729 7.95127 28.0319C7.81025 27.8908 7.73103 27.6996 7.73103 27.5001C7.73103 27.3007 7.81025 27.1095 7.95127 26.9684C8.09229 26.8274 8.28355 26.7482 8.48298 26.7482H12.436C12.6354 26.7482 12.8267 26.8274 12.9677 26.9684C13.1087 27.1095 13.1879 27.3007 13.1879 27.5001C13.1879 27.6996 13.1087 27.8908 12.9677 28.0319C12.8267 28.1729 12.6354 28.2521 12.436 28.2521ZM13.9574 36.8551H10.0044C9.80496 36.8551 9.6137 36.7759 9.47268 36.6348C9.33166 36.4938 9.25244 36.3026 9.25244 36.1031C9.25244 35.9037 9.33166 35.7124 9.47268 35.5714C9.6137 35.4304 9.80496 35.3512 10.0044 35.3512H13.9574C14.1568 35.3512 14.3481 35.4304 14.4891 35.5714C14.6301 35.7124 14.7094 35.9037 14.7094 36.1031C14.7094 36.3026 14.6301 36.4938 14.4891 36.6348C14.3481 36.7759 14.1568 36.8551 13.9574 36.8551ZM9.20066 18.8973C9.20066 18.6978 9.27989 18.5066 9.42091 18.3656C9.56192 18.2245 9.75319 18.1453 9.95262 18.1453H13.9056C14.1051 18.1453 14.2963 18.2245 14.4373 18.3656C14.5784 18.5066 14.6576 18.6978 14.6576 18.8973C14.6576 19.0967 14.5784 19.288 14.4373 19.429C14.2963 19.57 14.1051 19.6492 13.9056 19.6492H9.95262C9.75319 19.6492 9.56192 19.57 9.42091 19.429C9.27989 19.288 9.20066 19.0967 9.20066 18.8973ZM10.769 14.893C12.3011 12.492 14.2898 10.3633 16.5785 8.65813L14.7746 8.34242C14.6773 8.3254 14.5843 8.28938 14.501 8.23642C14.4176 8.18346 14.3455 8.11461 14.2888 8.03379C14.232 7.95296 14.1918 7.86176 14.1703 7.76537C14.1488 7.66898 14.1465 7.56931 14.1635 7.47204C14.1805 7.37476 14.2165 7.28179 14.2695 7.19844C14.3225 7.11509 14.3913 7.04298 14.4721 6.98624C14.553 6.9295 14.6442 6.88923 14.7406 6.86773C14.8369 6.84624 14.9366 6.84394 15.0339 6.86097L18.8653 7.53149C18.9626 7.54852 19.0555 7.58455 19.1389 7.63751C19.2223 7.69047 19.2944 7.75933 19.3511 7.84016C19.4078 7.92099 19.4481 8.0122 19.4696 8.10859C19.4911 8.20498 19.4934 8.30466 19.4763 8.40193L18.8059 12.2328C18.7715 12.4292 18.6605 12.604 18.4973 12.7186C18.334 12.8332 18.132 12.8783 17.9356 12.8439C17.8383 12.8269 17.7453 12.7909 17.662 12.7379C17.5786 12.685 17.5065 12.6161 17.4498 12.5353C17.393 12.4544 17.3528 12.3632 17.3313 12.2668C17.3098 12.1704 17.3075 12.0708 17.3246 11.9735L17.7257 9.68122C15.4776 11.3071 13.5267 13.3672 12.0369 15.702C11.9838 15.7853 11.9149 15.8573 11.834 15.9139C11.753 15.9705 11.6617 16.0106 11.5653 16.0319C11.4689 16.0532 11.3692 16.0553 11.2719 16.038C11.1747 16.0208 11.0818 15.9845 10.9986 15.9313C10.8305 15.8241 10.7118 15.6544 10.6688 15.4597C10.6257 15.265 10.6618 15.0611 10.769 14.893ZM34.739 49.8465C34.7538 49.9441 34.7492 50.0437 34.7255 50.1396C34.7018 50.2354 34.6594 50.3257 34.6008 50.4051C34.5422 50.4846 34.4686 50.5518 34.384 50.6028C34.2995 50.6538 34.2057 50.6877 34.108 50.7024C32.9358 50.8792 31.7519 50.968 30.5663 50.968C22.5091 50.968 15.108 46.9071 10.7685 40.1052C10.7149 40.022 10.6783 39.929 10.6607 39.8315C10.6432 39.7341 10.645 39.6341 10.6662 39.5374C10.6874 39.4407 10.7274 39.3491 10.7841 39.2679C10.8408 39.1867 10.9129 39.1175 10.9964 39.0643C11.0798 39.011 11.173 38.9748 11.2705 38.9576C11.368 38.9405 11.468 38.9428 11.5646 38.9643C11.6612 38.9859 11.7527 39.0264 11.8336 39.0834C11.9146 39.1404 11.9835 39.2128 12.0364 39.2965C16.0982 45.6631 23.0253 49.4641 30.5663 49.4641C31.6773 49.4641 32.7931 49.3805 33.883 49.2156C34.2937 49.154 34.6769 49.4359 34.739 49.8465ZM54.0343 27.5C54.0343 31.529 52.9959 35.5035 51.0315 38.994C49.4157 41.8652 47.1947 44.3768 44.5534 46.3422L46.355 46.6573C46.4523 46.6744 46.5452 46.7104 46.6286 46.7633C46.712 46.8163 46.7841 46.8852 46.8408 46.966C46.8976 47.0468 46.9378 47.138 46.9593 47.2344C46.9808 47.3308 46.9831 47.4305 46.9661 47.5278C46.9491 47.6251 46.9131 47.718 46.8601 47.8014C46.8072 47.8847 46.7383 47.9569 46.6575 48.0136C46.5766 48.0704 46.4854 48.1106 46.389 48.1321C46.2926 48.1536 46.193 48.1559 46.0957 48.1389L42.2643 47.4685C42.167 47.4515 42.074 47.4154 41.9907 47.3625C41.9073 47.3095 41.8352 47.2407 41.7785 47.1599C41.7217 47.0791 41.6815 46.9878 41.66 46.8915C41.6385 46.7951 41.6362 46.6954 41.6532 46.5981L42.3238 42.7669C42.3404 42.6693 42.3762 42.576 42.429 42.4922C42.4819 42.4085 42.5507 42.336 42.6317 42.2789C42.7126 42.2219 42.804 42.1813 42.9006 42.1597C42.9972 42.138 43.0972 42.1357 43.1947 42.1528C43.2923 42.1698 43.3855 42.206 43.469 42.2592C43.5525 42.3124 43.6247 42.3816 43.6814 42.4628C43.7381 42.5439 43.7782 42.6355 43.7995 42.7322C43.8207 42.8289 43.8226 42.9289 43.8051 43.0264L43.4029 45.3245C49.1421 41.1947 52.5304 34.6269 52.5304 27.5001C52.5304 15.3892 42.6773 5.53613 30.5663 5.53613C29.4618 5.53613 28.3514 5.61896 27.2661 5.78234C27.1684 5.79723 27.0687 5.7927 26.9727 5.76901C26.8767 5.74533 26.7864 5.70295 26.7068 5.6443C26.6272 5.58565 26.56 5.51188 26.5089 5.42722C26.4579 5.34256 26.424 5.24866 26.4093 5.1509C26.3946 5.05314 26.3993 4.95344 26.4231 4.8575C26.447 4.76157 26.4895 4.67128 26.5483 4.5918C26.6071 4.51232 26.681 4.44521 26.7658 4.39432C26.8505 4.34342 26.9445 4.30974 27.0423 4.2952C28.2088 4.12017 29.3867 4.03227 30.5663 4.03223C36.8348 4.03223 42.7281 6.47339 47.1607 10.9058C51.5932 15.3382 54.0343 21.2315 54.0343 27.5Z" fill="#2166F3" stroke="#2166F3" stroke-width="0.5"/>
<path d="M31.4533 23.9183C31.5173 23.8717 31.5946 23.847 31.6736 23.8477C31.7323 23.8482 31.79 23.8627 31.842 23.89C31.894 23.9174 31.9387 23.9568 31.9725 24.0049C32.0063 24.053 32.0282 24.1085 32.0364 24.1668C32.0445 24.2251 32.0388 24.2846 32.0195 24.3402L29.805 31.0045C29.6474 31.4732 28.9474 31.2382 29.1036 30.7694L31.318 24.1065C31.3419 24.0309 31.3893 23.9649 31.4533 23.9183Z" fill="#2166F3"/>
<path d="M35.1501 27.5555L33.2773 25.9884V25.9898C33.0207 25.7799 33.1462 25.363 33.4949 25.3322C33.5878 25.3291 33.6787 25.3605 33.7501 25.4204L35.9617 27.2729C36.0031 27.3077 36.0363 27.3511 36.0591 27.4002C36.0819 27.4493 36.0937 27.5028 36.0937 27.5569C36.0937 27.6111 36.0819 27.6645 36.0591 27.7136C36.0363 27.7627 36.0031 27.8061 35.9617 27.8409L33.7515 29.6921C33.3708 30.0307 32.8771 29.4374 33.2773 29.124L35.1501 27.5555Z" fill="#2166F3"/>
<path d="M27.3744 25.419C27.438 25.3646 27.5182 25.3336 27.6017 25.3308C27.6789 25.3284 27.7548 25.3517 27.819 25.3949C27.8831 25.438 27.9321 25.5002 27.9592 25.5728C27.9863 25.6453 27.9901 25.7246 27.9699 25.7994C27.9498 25.8742 27.9069 25.9408 27.8471 25.9898L25.9701 27.5555L27.8443 29.1226C28.2627 29.4332 27.7537 30.0461 27.373 29.6907L25.1613 27.8395C25.12 27.8047 25.0867 27.7613 25.0639 27.7122C25.0411 27.6631 25.0293 27.6096 25.0293 27.5555C25.0293 27.5014 25.0411 27.4479 25.0639 27.3988C25.0867 27.3497 25.12 27.3063 25.1613 27.2715L27.3744 25.419Z" fill="#2166F3"/>
<path d="M31.4533 23.9183C31.5173 23.8717 31.5946 23.847 31.6736 23.8477C31.7323 23.8482 31.79 23.8627 31.842 23.89C31.894 23.9174 31.9387 23.9568 31.9725 24.0049C32.0063 24.053 32.0282 24.1085 32.0364 24.1668C32.0445 24.2251 32.0388 24.2846 32.0195 24.3402L29.805 31.0045C29.6474 31.4732 28.9474 31.2382 29.1036 30.7694L31.318 24.1065C31.3419 24.0309 31.3893 23.9649 31.4533 23.9183Z" stroke="#2166F3" stroke-width="0.55"/>
<path d="M35.1501 27.5555L33.2773 25.9884V25.9898C33.0207 25.7799 33.1462 25.363 33.4949 25.3322C33.5878 25.3291 33.6787 25.3605 33.7501 25.4204L35.9617 27.2729C36.0031 27.3077 36.0363 27.3511 36.0591 27.4002C36.0819 27.4493 36.0937 27.5028 36.0937 27.5569C36.0937 27.6111 36.0819 27.6645 36.0591 27.7136C36.0363 27.7627 36.0031 27.8061 35.9617 27.8409L33.7515 29.6921C33.3708 30.0307 32.8771 29.4374 33.2773 29.124L35.1501 27.5555Z" stroke="#2166F3" stroke-width="0.55"/>
<path d="M27.3744 25.419C27.438 25.3646 27.5182 25.3336 27.6017 25.3308C27.6789 25.3284 27.7548 25.3517 27.819 25.3949C27.8831 25.438 27.9321 25.5002 27.9592 25.5728C27.9863 25.6453 27.9901 25.7246 27.9699 25.7994C27.9498 25.8742 27.9069 25.9408 27.8471 25.9898L25.9701 27.5555L27.8443 29.1226C28.2627 29.4332 27.7537 30.0461 27.373 29.6907L25.1613 27.8395C25.12 27.8047 25.0867 27.7613 25.0639 27.7122C25.0411 27.6631 25.0293 27.6096 25.0293 27.5555C25.0293 27.5014 25.0411 27.4479 25.0639 27.3988C25.0867 27.3497 25.12 27.3063 25.1613 27.2715L27.3744 25.419Z" stroke="#2166F3" stroke-width="0.55"/>
</svg>
