<svg width="50" height="50" viewBox="0 0 50 50" fill="none" xmlns="http://www.w3.org/2000/svg">
<g clip-path="url(#clip0_216_160)">
<path d="M17.0393 7.23535C17.1376 7.4056 17.2965 7.53254 17.4843 7.59082C17.672 7.64911 17.8749 7.63446 18.0523 7.5498C19.87 6.68242 21.8226 6.16425 23.8559 6.00966C24.0523 5.99474 24.2358 5.9062 24.3697 5.76175C24.5036 5.6173 24.578 5.42762 24.578 5.23066V1.56308C24.5779 1.45631 24.556 1.35069 24.5136 1.25272C24.4711 1.15475 24.4091 1.06652 24.3312 0.993468C24.2533 0.920417 24.1613 0.864097 24.0609 0.827983C23.9604 0.791869 23.8536 0.776727 23.747 0.783492C20.875 0.96689 18.1145 1.70615 15.5423 2.98076C15.4467 3.02819 15.3618 3.09472 15.2928 3.17623C15.2239 3.25775 15.1724 3.35253 15.1415 3.45472C15.1106 3.55691 15.101 3.66435 15.1132 3.77041C15.1254 3.87647 15.1592 3.9789 15.2126 4.07138L17.0393 7.23535ZM23.0155 2.41289V4.5208C21.2898 4.7207 19.6212 5.16337 18.0386 5.84121L16.9906 4.02587C18.9058 3.17324 20.9258 2.63242 23.0155 2.41289ZM5.71314 32.0129C5.76047 32.1087 5.82695 32.1937 5.90845 32.2628C5.98996 32.3319 6.08477 32.3836 6.18703 32.4145C6.28928 32.4455 6.3968 32.4552 6.50295 32.443C6.6091 32.4308 6.71161 32.397 6.80416 32.3436L9.98307 30.5083C10.1533 30.41 10.2803 30.2511 10.3386 30.0634C10.3969 29.8757 10.3822 29.6728 10.2976 29.4954C9.42799 27.6718 8.90728 25.7209 8.74967 23.6971C8.7344 23.501 8.64571 23.3178 8.50132 23.1842C8.35693 23.0507 8.16747 22.9765 7.97076 22.9765H4.30211C4.19532 22.9765 4.08966 22.9984 3.99167 23.0409C3.89368 23.0833 3.80544 23.1454 3.73238 23.2233C3.65933 23.3012 3.60301 23.3933 3.56692 23.4938C3.53082 23.5943 3.51571 23.7011 3.52252 23.8077C3.70689 26.6825 4.444 29.4431 5.71314 32.0129ZM7.26236 24.5389C7.46303 26.2508 7.90986 27.9247 8.58902 29.5089L6.75982 30.5649C5.9109 28.651 5.37184 26.6305 5.15211 24.5389H7.26236ZM4.30221 21.8421H7.98522C8.18073 21.8421 8.36914 21.7688 8.51324 21.6366C8.65734 21.5045 8.74665 21.3231 8.76354 21.1283C8.93941 19.0996 9.46422 17.1506 10.3234 15.3354C10.4073 15.1581 10.4214 14.9557 10.363 14.7684C10.3045 14.5811 10.1778 14.4227 10.0079 14.3246L6.80992 12.4783C6.71744 12.4249 6.61498 12.391 6.50888 12.3788C6.40279 12.3665 6.29531 12.3761 6.19308 12.4071C6.09085 12.438 5.99605 12.4895 5.91453 12.5585C5.833 12.6275 5.76649 12.7125 5.7191 12.8082C4.44596 15.3794 3.70699 18.1392 3.52252 21.0107C3.51566 21.1173 3.53073 21.2242 3.56681 21.3248C3.60289 21.4253 3.6592 21.5174 3.73228 21.5953C3.80536 21.6732 3.89364 21.7353 3.99166 21.7778C4.08969 21.8202 4.19538 21.8421 4.30221 21.8421ZM6.7648 14.2564L8.61539 15.3249C7.94371 16.9012 7.49684 18.5621 7.28238 20.2796H5.15221C5.37242 18.1905 5.91305 16.171 6.7648 14.2564ZM48.6314 24.4479C48.4287 24.0302 48.014 23.7707 47.5491 23.7706H46.7796C46.8077 23.3174 46.8218 22.8621 46.8218 22.4093C46.8218 16.8635 44.7285 11.5873 40.9274 7.55273C37.143 3.53584 32.0346 1.13164 26.543 0.782808C26.4365 0.776071 26.3297 0.791233 26.2293 0.827361C26.1288 0.863488 26.0368 0.919814 25.959 0.992864C25.8812 1.06591 25.8191 1.15414 25.7767 1.25209C25.7343 1.35005 25.7124 1.45565 25.7124 1.5624V5.23095C25.7123 5.42776 25.7866 5.61732 25.9203 5.76173C26.054 5.90613 26.2373 5.99475 26.4336 6.00986C34.9373 6.66591 41.5986 13.8693 41.5986 22.4092C41.5986 22.8623 41.5799 23.3179 41.5427 23.7704H41.0431C40.5784 23.7704 40.1636 24.0299 39.9609 24.4477C39.7582 24.8653 39.8108 25.3517 40.0983 25.7167L43.3515 29.8488C43.4637 29.9921 43.6072 30.1079 43.771 30.1873C43.9347 30.2668 44.1144 30.3078 44.2964 30.3072C44.6673 30.3072 45.0116 30.14 45.241 29.8486L48.494 25.7167C48.7814 25.3518 48.8341 24.8656 48.6314 24.4479ZM44.2961 28.5231L41.7846 25.3332H42.2473C42.4378 25.3332 42.6218 25.2636 42.7646 25.1375C42.9073 25.0113 42.9991 24.8374 43.0226 24.6483C43.1147 23.9056 43.1609 23.1578 43.161 22.4094C43.161 17.8433 41.4495 13.4882 38.3416 10.1465C35.4157 7.00039 31.5087 5.02041 27.2748 4.52246V2.4122C37.425 3.47929 45.2594 12.1064 45.2594 22.4094C45.2594 23.0974 45.2243 23.7916 45.1548 24.4727C45.1438 24.5814 45.1556 24.6912 45.1897 24.795C45.2237 24.8989 45.2791 24.9944 45.3524 25.0755C45.4256 25.1566 45.515 25.2215 45.6149 25.2658C45.7148 25.3102 45.8228 25.3332 45.9321 25.3332H46.8077L44.2961 28.5231ZM7.37867 11.497L10.5656 13.3369C10.7364 13.4356 10.9382 13.466 11.1304 13.422C11.3227 13.3781 11.4912 13.2629 11.6021 13.0998C12.7453 11.4194 14.1666 9.98593 15.8263 8.83906C15.9878 8.72749 16.1013 8.55924 16.1444 8.36776C16.1875 8.17629 16.1569 7.97562 16.0588 7.80566L14.2313 4.64052C14.1778 4.54794 14.1059 4.46732 14.02 4.40364C13.9342 4.33997 13.8361 4.29459 13.732 4.27032C13.6279 4.24606 13.5199 4.24341 13.4147 4.26256C13.3095 4.28171 13.2094 4.32223 13.1205 4.38164C10.7343 5.97724 8.71539 7.99746 7.11949 10.3863C7.06014 10.4752 7.01965 10.5754 7.00054 10.6805C6.98144 10.7857 6.98411 10.8937 7.00841 10.9978C7.0327 11.1019 7.07809 11.1999 7.14178 11.2858C7.20547 11.3716 7.2861 11.4435 7.37867 11.497ZM13.3041 6.15918L14.3528 7.97568C12.9756 9.01132 11.7615 10.2359 10.731 11.6282L8.89693 10.5693C10.1273 8.87872 11.6143 7.39072 13.3041 6.15918ZM36.035 32.6289L28.5028 37.016C28.2163 37.1828 27.9258 37.3115 27.6267 37.4028C27.7211 37.2115 27.7963 37.0112 27.8509 36.8049C28.2515 35.3097 27.3647 33.7493 25.8321 33.2525C25.7986 33.2417 25.7645 33.2331 25.7298 33.2269C23.5744 32.8381 21.4427 32.0674 19.7298 31.4481C19.1326 31.2322 18.5684 31.0282 18.0877 30.8724C16.1171 30.233 14.3462 31.0184 12.8737 31.871L7.36852 35.0584L6.89635 34.224C6.6483 33.7857 6.24322 33.4699 5.75582 33.3348C5.26852 33.1999 4.75865 33.262 4.32027 33.51L2.20689 34.7061C1.29986 35.2194 0.979551 36.375 1.49283 37.2821L7.70602 48.2603C7.95406 48.6987 8.35914 49.0145 8.84654 49.1496C9.0151 49.1963 9.18629 49.2194 9.35631 49.2194C9.67789 49.2194 9.99537 49.1366 10.2821 48.9744L12.3955 47.7783C12.8337 47.5302 13.1496 47.1252 13.2847 46.6378C13.4198 46.1504 13.3576 45.6405 13.1095 45.2021L12.5241 44.1677L13.664 43.5095L23.266 46.0823C23.8082 46.2276 24.3477 46.2999 24.8783 46.2999C25.9517 46.2999 26.9887 46.0044 27.9368 45.4207L41.6059 37.0038C42.9017 36.2061 43.3149 34.199 42.4728 32.7932C42.0653 32.1125 40.3962 30.0892 36.035 32.6289ZM11.7791 46.2205C11.7654 46.2698 11.7273 46.3611 11.6259 46.4186L9.51256 47.6146C9.41129 47.6722 9.31324 47.6577 9.26393 47.6439C9.21461 47.6303 9.1233 47.5922 9.06588 47.4908L2.85279 36.5126C2.76529 36.358 2.82193 36.1534 2.97662 36.0659L5.0901 34.8698C5.13825 34.8424 5.19271 34.8281 5.24811 34.8282C5.28522 34.8282 5.31676 34.8344 5.33873 34.8405C5.38805 34.8542 5.47936 34.8923 5.53668 34.9936L11.7499 45.9718C11.8071 46.0732 11.7927 46.1711 11.7791 46.2205ZM40.7868 35.6734L27.1177 44.0902C26.0612 44.7405 24.9014 44.9032 23.6705 44.5731L13.7558 41.9165C13.5557 41.8629 13.3425 41.891 13.163 41.9945L11.7545 42.8077L8.13814 36.4181L13.6565 33.2229C14.89 32.5088 16.2221 31.9096 17.6055 32.3584C18.0616 32.5063 18.5884 32.6968 19.1985 32.9174C20.9518 33.5513 23.1302 34.3389 25.3951 34.7539C26.1206 35.0116 26.5262 35.7114 26.3417 36.4003C26.0984 37.3077 25.3353 37.4206 24.7262 37.3513C23.6235 37.1242 22.5734 36.8245 21.4625 36.5073C20.933 36.3561 20.3855 36.1998 19.8223 36.0488C19.6234 35.9987 19.4127 36.0289 19.2358 36.1329C19.0589 36.2368 18.93 36.4061 18.8769 36.6043C18.8238 36.8025 18.8507 37.0136 18.952 37.1921C19.0532 37.3705 19.2206 37.502 19.4179 37.5581C19.9687 37.7057 20.51 37.8603 21.0334 38.0098C22.1851 38.3387 24.4725 38.8941 24.4777 38.8949L25.4146 39.0474C26.8422 39.2756 28.1096 39.0529 29.289 38.3661L36.8212 33.979C38.9291 32.7514 40.5407 32.608 41.1324 33.596C41.5367 34.2708 41.3623 35.3191 40.7868 35.6734ZM5.64752 36.8918C5.66336 36.9905 5.65943 37.0914 5.63595 37.1886C5.61247 37.2858 5.56991 37.3773 5.51074 37.4579C5.45158 37.5385 5.37698 37.6066 5.2913 37.6581C5.20561 37.7096 5.11054 37.7436 5.01161 37.758C4.91268 37.7725 4.81186 37.7671 4.71501 37.7423C4.61816 37.7175 4.52721 37.6736 4.44745 37.6133C4.36769 37.5531 4.30071 37.4775 4.25039 37.3911C4.20007 37.3047 4.16743 37.2092 4.15436 37.1101C4.12842 36.9135 4.18092 36.7146 4.3005 36.5564C4.42007 36.3982 4.59711 36.2934 4.79332 36.2647C4.98954 36.236 5.18916 36.2857 5.34901 36.4031C5.50886 36.5204 5.61609 36.696 5.64752 36.8918ZM31.7888 15.0886C31.7888 11.9722 29.2534 9.43671 26.137 9.43671C23.0206 9.43671 20.4851 11.9722 20.4851 15.0886C20.4851 16.9894 21.4293 18.6727 22.8722 19.6977C19.0788 20.9425 16.2285 24.3041 15.7824 28.4727C15.7707 28.5816 15.782 28.6919 15.8157 28.7962C15.8495 28.9005 15.9047 28.9965 15.978 29.0781C16.0513 29.1596 16.1409 29.2248 16.241 29.2694C16.3411 29.314 16.4495 29.337 16.5591 29.337H35.7145C35.8241 29.337 35.9325 29.314 36.0327 29.2694C36.1328 29.2248 36.2224 29.1596 36.2957 29.078C36.369 28.9965 36.4242 28.9004 36.4579 28.7961C36.4916 28.6918 36.503 28.5816 36.4913 28.4726C36.0451 24.3041 33.1949 20.9426 29.4015 19.6977C30.8446 18.6727 31.7888 16.9894 31.7888 15.0886ZM34.8024 27.7745H17.4713C18.3133 23.709 21.8955 20.7413 26.1349 20.7403L26.137 20.7404H26.1389C30.3783 20.7414 33.9604 23.709 34.8024 27.7745ZM26.1369 19.1778H26.1343C23.8807 19.1764 22.0476 17.3426 22.0476 15.0886C22.0476 12.8337 23.8821 10.9992 26.137 10.9992C28.3919 10.9992 30.2263 12.8337 30.2263 15.0886C30.2263 17.3426 28.3932 19.1765 26.1395 19.1778H26.1369Z" fill="#2166F3" stroke="#2166F3" stroke-width="0.5"/>
</g>
<defs>
<clipPath id="clip0_216_160">
<rect width="50" height="50" fill="white"/>
</clipPath>
</defs>
</svg>
