<svg width="50" height="50" fill="none" xmlns="http://www.w3.org/2000/svg"><g clip-path="url(#a)" fill="#111"><path d="m48.992 37.935-.092-.092a3.776 3.776 0 0 0-4.076-.835V21.484h3.727a.978.978 0 0 0 .69-1.667L29.685.286a.977.977 0 0 0-1.38 0l-5.37 5.363a.976.976 0 1 0 1.38 1.382l4.68-4.674L46.19 19.53h-3.458L29.684 6.5a.977.977 0 0 0-1.38 0L15.256 19.531h-3.458l7.077-7.068a.977.977 0 0 0-1.38-1.382l-8.747 8.736a.977.977 0 0 0 .69 1.667h3.746v8.314h-1.44v-.473a3.206 3.206 0 0 0-3.203-3.202H.977a.977.977 0 0 0-.977.976v21.924c0 .54.437.977.977.977H8.54a3.206 3.206 0 0 0 3.202-3.203v-.402l2.566 1.554A14.181 14.181 0 0 0 21.656 50h14.181c2.77 0 5.481-.96 7.634-2.704l5.254-4.255a3.445 3.445 0 0 0 1.046-3.906 3.447 3.447 0 0 0-.779-1.2zM9.79 46.797c0 .69-.56 1.25-1.25 1.25H1.954V28.076h6.588c.689 0 1.249.56 1.249 1.25v17.471zm5.347-25.313h.523a.977.977 0 0 0 .69-.285L28.994 8.57 41.64 21.2a.976.976 0 0 0 .69.285h.542v16.724c0 .036.002.07.006.105l-2.063 1.552a3.374 3.374 0 0 0-.897-1.702 2.91 2.91 0 0 0-2.072-.858H35.44V23.34a.977.977 0 0 0-.977-.977H23.526a.977.977 0 0 0-.977.977v7.458c-.96-.65-2.09-1-3.275-1h-4.137v-8.314zm18.35 2.832v12.989h-3.495a1.939 1.939 0 0 1-1.38-.57l-4.117-4.138a.983.983 0 0 0 .007-.115v-8.166h8.985zm14.558 16.129a1.47 1.47 0 0 1-.55 1.078l-5.253 4.255a10.207 10.207 0 0 1-6.405 2.269H21.656c-2.234 0-4.425-.612-6.335-1.77l-3.578-2.166v-12.36h7.531a3.88 3.88 0 0 1 2.76 1.143l5.196 5.22a3.88 3.88 0 0 0 2.762 1.144h7.853a.969.969 0 0 1 .69.286c.449.448.485 1.185.292 1.652a.972.972 0 0 1-.197.31l-.05.038.01.002a.6.6 0 0 1-.419.149H26.466a3.469 3.469 0 0 1-1.896-.562l-3.134-2.039-.012-.007a.977.977 0 0 0-1.067 1.635l3.148 2.048c.88.574 1.91.879 2.96.878h11.707c.656 0 1.246-.229 1.711-.639l5.329-4.007a1.821 1.821 0 0 1 2.308.222l.092.092c.302.302.456.703.434 1.129z"/><path d="M39.648 28.381a.977.977 0 0 0-.976.977v6.189a.977.977 0 0 0 1.953 0v-6.19a.977.977 0 0 0-.977-.976zm.69-3.43a.98.98 0 0 0-1.38 0 .982.982 0 0 0-.286.69c0 .257.104.51.286.69a.983.983 0 0 0 .69.287.983.983 0 0 0 .69-.286.983.983 0 0 0 .287-.69.982.982 0 0 0-.286-.691zm-12.91 5.133a.983.983 0 0 0-1.382 0 .985.985 0 0 0-.285.69c0 .258.103.509.285.691a.988.988 0 0 0 .691.287.986.986 0 0 0 .69-.287.986.986 0 0 0 .287-.691.985.985 0 0 0-.286-.69zM21.596 8.365a.977.977 0 0 0-1.381 1.381.974.974 0 0 0 1.38 0 .977.977 0 0 0 0-1.38zm7.398 4.493a3.813 3.813 0 0 0-3.808 3.808c0 2.1 1.708 3.809 3.808 3.809 2.1 0 3.809-1.709 3.809-3.809s-1.709-3.808-3.809-3.808zm0 5.664a1.858 1.858 0 0 1-1.855-1.856c0-1.023.832-1.855 1.855-1.855 1.023 0 1.856.832 1.856 1.855a1.858 1.858 0 0 1-1.856 1.856zM6.562 43.059a.982.982 0 0 0-.69-.286.985.985 0 0 0-.691.286.984.984 0 0 0-.286.69c0 .258.104.51.286.691a.985.985 0 0 0 .69.286.98.98 0 0 0 .69-1.667z"/></g><defs><clipPath id="a"><path fill="#fff" d="M0 0h50v50H0z"/></clipPath></defs></svg>