<svg width="48" height="50" viewBox="0 0 48 50" fill="none" xmlns="http://www.w3.org/2000/svg">
<g clip-path="url(#clip0_176_957)">
<path d="M34.3381 48.5352H13.6641M18.0942 39.1211H29.9079V48.5352H18.0942V39.1211Z" stroke="#2166F3" stroke-width="2.5" stroke-miterlimit="10" stroke-linecap="round" stroke-linejoin="round"/>
<path d="M13.7689 7.74072H4.80301C3.17204 7.74072 1.84961 9.1457 1.84961 10.8787V35.9829C1.84951 36.395 1.92589 36.8031 2.07437 37.1837C2.22286 37.5644 2.44054 37.9103 2.71496 38.2015C2.98903 38.493 3.31453 38.7243 3.67282 38.8821C4.03111 39.0399 4.41517 39.121 4.80301 39.1209H43.1976C43.5854 39.121 43.9695 39.0399 44.3278 38.8821C44.6861 38.7243 45.0116 38.493 45.2856 38.2015C45.5601 37.9103 45.7777 37.5644 45.9262 37.1837C46.0747 36.8031 46.1511 36.395 46.151 35.9829V10.8787C46.151 9.1457 44.8286 7.74072 43.1976 7.74072H34.2317" stroke="#2166F3" stroke-width="2.5" stroke-miterlimit="10" stroke-linecap="round" stroke-linejoin="round"/>
<path d="M24.0012 26.5689C30.5257 26.5689 35.8149 20.9492 35.8149 14.0169C35.8149 7.08459 30.5257 1.46484 24.0012 1.46484C17.4767 1.46484 12.1875 7.08459 12.1875 14.0169C12.1875 20.9492 17.4767 26.5689 24.0012 26.5689Z" stroke="#2166F3" stroke-width="2.5" stroke-miterlimit="10" stroke-linecap="round" stroke-linejoin="round"/>
<path d="M32.3516 22.8906L40.2438 31.2763" stroke="#2166F3" stroke-width="2.5" stroke-miterlimit="10" stroke-linecap="round" stroke-linejoin="round"/>
</g>
<defs>
<clipPath id="clip0_176_957">
<rect width="47.0588" height="50" fill="white" transform="translate(0.470703)"/>
</clipPath>
</defs>
</svg>
