<svg width="48" height="50" viewBox="0 0 48 50" fill="none" xmlns="http://www.w3.org/2000/svg">
<path d="M32.7088 7.12082L32.7087 7.12073C32.0008 6.24367 31.1223 5.53922 30.1334 5.05607C29.1444 4.5729 28.0685 4.32257 26.9795 4.32248H26.9795C26.7547 4.32248 26.5405 4.41739 26.3834 4.58424C26.2266 4.75091 26.1394 4.97578 26.1394 5.20915C26.1394 5.44251 26.2266 5.66739 26.3834 5.83405C26.5404 6.00088 26.7547 6.09578 26.9794 6.09581C27.8245 6.09688 28.6595 6.29215 29.4274 6.66848C30.1953 7.04483 30.8779 7.59343 31.4282 8.27705C31.5067 8.37451 31.6044 8.4532 31.715 8.5073C31.8256 8.56142 31.9462 8.58957 32.0685 8.58957L32.0697 8.58955C32.2724 8.58707 32.4666 8.50738 32.6172 8.36646C32.7007 8.29053 32.7689 8.19822 32.8183 8.09495C32.8679 7.99147 32.8977 7.87885 32.9061 7.76351C32.9146 7.64818 32.9016 7.53214 32.8678 7.42197C32.8341 7.31179 32.7801 7.20943 32.7088 7.12082Z" fill="#2166F3" stroke="#2166F3" stroke-width="0.19"/>
<mask id="path-2-outside-1_176_990" maskUnits="userSpaceOnUse" x="0.646484" y="0.273438" width="46" height="49" fill="black">
<rect fill="white" x="0.646484" y="0.273438" width="46" height="49"/>
<path d="M37.4112 12.3342C37.4062 9.74131 36.5458 7.23236 34.9797 5.24388C33.4135 3.2554 31.2408 1.91327 28.8395 1.45101C26.4383 0.988758 23.9605 1.43564 21.8373 2.71391C19.7141 3.99217 18.0799 6.02091 17.219 8.4471C16.0492 8.58217 14.9266 9.01174 13.9443 9.70016C12.9621 10.3886 12.1485 11.316 11.5712 12.4054C11.2449 12.362 10.9165 12.3382 10.5877 12.3342C5.6499 12.3342 1.64648 16.5878 1.64648 21.8342C1.64648 27.0805 5.6499 31.3342 10.5877 31.3342H12.9571C13.7958 33.5514 15.2078 35.4713 17.0299 36.8722C18.852 38.273 21.0099 39.0976 23.2543 39.2508V40.8342H12.0779C11.485 40.8342 10.9165 41.0844 10.4973 41.5298C10.0781 41.9752 9.84256 42.5793 9.84256 43.2092V46.3758C9.84256 47.0057 10.0781 47.6098 10.4973 48.0552C10.9165 48.5006 11.485 48.7508 12.0779 48.7508H35.921C36.5138 48.7508 37.0824 48.5006 37.5016 48.0552C37.9208 47.6098 38.1563 47.0057 38.1563 46.3758V43.2092C38.1563 42.5793 37.9208 41.9752 37.5016 41.5298C37.0824 41.0844 36.5138 40.8342 35.921 40.8342H24.7445V39.2508C26.989 39.0976 29.1468 38.273 30.9689 36.8722C32.791 35.4713 34.203 33.5514 35.0418 31.3342H37.4112C42.349 31.3342 46.3524 27.0805 46.3524 21.8342C46.3524 16.5878 42.349 12.3342 37.4112 12.3342ZM36.6661 43.2092V46.3758C36.6661 46.5858 36.5876 46.7872 36.4479 46.9356C36.3081 47.0841 36.1186 47.1675 35.921 47.1675H12.0779C11.8802 47.1675 11.6907 47.0841 11.551 46.9356C11.4113 46.7872 11.3328 46.5858 11.3328 46.3758V43.2092C11.3328 42.9992 11.4113 42.7978 11.551 42.6494C11.6907 42.5009 11.8802 42.4175 12.0779 42.4175H35.921C36.1186 42.4175 36.3081 42.5009 36.4479 42.6494C36.5876 42.7978 36.6661 42.9992 36.6661 43.2092ZM32.8288 32.4504C31.3652 30.8817 29.4995 29.8052 27.4641 29.355C28.4918 28.5751 29.2597 27.4685 29.6572 26.1949C30.0547 24.9213 30.0613 23.5464 29.6758 22.2686C29.2904 20.9908 28.533 19.876 27.5128 19.0852C26.4926 18.2943 25.2623 17.8681 23.9994 17.8681C22.7365 17.8681 21.5063 18.2943 20.4861 19.0852C19.4659 19.876 18.7084 20.9908 18.323 22.2686C17.9376 23.5464 17.9441 24.9213 18.3416 26.1949C18.7391 27.4685 19.5071 28.5751 20.5347 29.355C18.4994 29.8052 16.6337 30.8817 15.17 32.4504C14.1227 30.6962 13.5671 28.6615 13.5681 26.5842C13.5681 20.463 18.2383 15.5008 23.9994 15.5008C29.7605 15.5008 34.4308 20.463 34.4308 26.5842C34.4318 28.6615 33.8762 30.6962 32.8288 32.4504ZM19.5288 24.2092C19.5288 22.9494 19.9998 21.7412 20.8382 20.8504C21.6766 19.9596 22.8138 19.4592 23.9994 19.4592C25.1851 19.4592 26.3222 19.9596 27.1606 20.8504C27.999 21.7412 28.47 22.9494 28.47 24.2092C28.47 25.469 27.999 26.6771 27.1606 27.5679C26.3222 28.4587 25.1851 28.9592 23.9994 28.9592C22.8138 28.9592 21.6766 28.4587 20.8382 27.5679C19.9998 26.6771 19.5288 25.469 19.5288 24.2092ZM23.9994 37.6675C22.4886 37.668 20.9959 37.3184 19.6254 36.6429C18.2549 35.9675 17.0395 34.9825 16.0641 33.7567C17.4053 32.1733 19.7896 30.5425 23.9994 30.5425C28.2092 30.5425 30.5935 32.1892 31.9347 33.7567C30.9593 34.9825 29.744 35.9675 28.3734 36.6429C27.0029 37.3184 25.5102 37.668 23.9994 37.6675ZM37.4112 29.7508H35.5261C35.7869 28.7177 35.9195 27.6529 35.921 26.5842C35.921 19.5882 30.5839 13.9175 23.9994 13.9175C17.415 13.9175 12.0779 19.5882 12.0779 26.5842C12.0793 27.6529 12.212 28.7177 12.4728 29.7508H10.5877C6.47248 29.7508 3.13668 26.2066 3.13668 21.8342C3.13668 17.4618 6.47248 13.9175 10.5877 13.9175C12.0578 13.9125 13.4956 14.3758 14.7155 15.2475C14.8815 15.3577 15.0814 15.3948 15.2727 15.351C15.464 15.3072 15.6318 15.1859 15.7403 15.0129C15.8489 14.8398 15.8897 14.6287 15.8542 14.4242C15.8187 14.2197 15.7096 14.038 15.55 13.9175C14.8032 13.3845 13.9841 12.9761 13.121 12.7063C13.648 11.8898 14.3479 11.216 15.1644 10.7389C15.9809 10.2618 16.8913 9.99476 17.8226 9.95919H17.9865C19.2952 9.93931 20.5725 10.3852 21.6151 11.2259C21.7732 11.3518 21.9719 11.4059 22.1675 11.3762C22.3632 11.3465 22.5397 11.2355 22.6583 11.0675C22.7768 10.8995 22.8277 10.6884 22.7998 10.4806C22.7718 10.2727 22.6673 10.0852 22.5092 9.95919C21.4387 9.10253 20.1688 8.57161 18.8359 8.42335C19.679 6.44663 21.1337 4.83621 22.958 3.86002C24.7823 2.88383 26.8661 2.60071 28.8629 3.05778C30.8597 3.51484 32.6489 4.68453 33.9331 6.37225C35.2172 8.05996 35.9187 10.164 35.921 12.3342V12.4688C34.6795 12.6825 33.4955 13.1765 32.4488 13.9175C32.2848 14.0351 32.1715 14.2171 32.1338 14.4235C32.096 14.6298 32.137 14.8437 32.2477 15.0179C32.3583 15.1922 32.5296 15.3126 32.7238 15.3527C32.9181 15.3928 33.1193 15.3493 33.2833 15.2317C34.5049 14.3655 35.9426 13.9078 37.4112 13.9175C41.5264 13.9175 44.8622 17.4618 44.8622 21.8342C44.8622 26.2066 41.5264 29.7508 37.4112 29.7508Z"/>
</mask>
<path d="M37.4112 12.3342C37.4062 9.74131 36.5458 7.23236 34.9797 5.24388C33.4135 3.2554 31.2408 1.91327 28.8395 1.45101C26.4383 0.988758 23.9605 1.43564 21.8373 2.71391C19.7141 3.99217 18.0799 6.02091 17.219 8.4471C16.0492 8.58217 14.9266 9.01174 13.9443 9.70016C12.9621 10.3886 12.1485 11.316 11.5712 12.4054C11.2449 12.362 10.9165 12.3382 10.5877 12.3342C5.6499 12.3342 1.64648 16.5878 1.64648 21.8342C1.64648 27.0805 5.6499 31.3342 10.5877 31.3342H12.9571C13.7958 33.5514 15.2078 35.4713 17.0299 36.8722C18.852 38.273 21.0099 39.0976 23.2543 39.2508V40.8342H12.0779C11.485 40.8342 10.9165 41.0844 10.4973 41.5298C10.0781 41.9752 9.84256 42.5793 9.84256 43.2092V46.3758C9.84256 47.0057 10.0781 47.6098 10.4973 48.0552C10.9165 48.5006 11.485 48.7508 12.0779 48.7508H35.921C36.5138 48.7508 37.0824 48.5006 37.5016 48.0552C37.9208 47.6098 38.1563 47.0057 38.1563 46.3758V43.2092C38.1563 42.5793 37.9208 41.9752 37.5016 41.5298C37.0824 41.0844 36.5138 40.8342 35.921 40.8342H24.7445V39.2508C26.989 39.0976 29.1468 38.273 30.9689 36.8722C32.791 35.4713 34.203 33.5514 35.0418 31.3342H37.4112C42.349 31.3342 46.3524 27.0805 46.3524 21.8342C46.3524 16.5878 42.349 12.3342 37.4112 12.3342ZM36.6661 43.2092V46.3758C36.6661 46.5858 36.5876 46.7872 36.4479 46.9356C36.3081 47.0841 36.1186 47.1675 35.921 47.1675H12.0779C11.8802 47.1675 11.6907 47.0841 11.551 46.9356C11.4113 46.7872 11.3328 46.5858 11.3328 46.3758V43.2092C11.3328 42.9992 11.4113 42.7978 11.551 42.6494C11.6907 42.5009 11.8802 42.4175 12.0779 42.4175H35.921C36.1186 42.4175 36.3081 42.5009 36.4479 42.6494C36.5876 42.7978 36.6661 42.9992 36.6661 43.2092ZM32.8288 32.4504C31.3652 30.8817 29.4995 29.8052 27.4641 29.355C28.4918 28.5751 29.2597 27.4685 29.6572 26.1949C30.0547 24.9213 30.0613 23.5464 29.6758 22.2686C29.2904 20.9908 28.533 19.876 27.5128 19.0852C26.4926 18.2943 25.2623 17.8681 23.9994 17.8681C22.7365 17.8681 21.5063 18.2943 20.4861 19.0852C19.4659 19.876 18.7084 20.9908 18.323 22.2686C17.9376 23.5464 17.9441 24.9213 18.3416 26.1949C18.7391 27.4685 19.5071 28.5751 20.5347 29.355C18.4994 29.8052 16.6337 30.8817 15.17 32.4504C14.1227 30.6962 13.5671 28.6615 13.5681 26.5842C13.5681 20.463 18.2383 15.5008 23.9994 15.5008C29.7605 15.5008 34.4308 20.463 34.4308 26.5842C34.4318 28.6615 33.8762 30.6962 32.8288 32.4504ZM19.5288 24.2092C19.5288 22.9494 19.9998 21.7412 20.8382 20.8504C21.6766 19.9596 22.8138 19.4592 23.9994 19.4592C25.1851 19.4592 26.3222 19.9596 27.1606 20.8504C27.999 21.7412 28.47 22.9494 28.47 24.2092C28.47 25.469 27.999 26.6771 27.1606 27.5679C26.3222 28.4587 25.1851 28.9592 23.9994 28.9592C22.8138 28.9592 21.6766 28.4587 20.8382 27.5679C19.9998 26.6771 19.5288 25.469 19.5288 24.2092ZM23.9994 37.6675C22.4886 37.668 20.9959 37.3184 19.6254 36.6429C18.2549 35.9675 17.0395 34.9825 16.0641 33.7567C17.4053 32.1733 19.7896 30.5425 23.9994 30.5425C28.2092 30.5425 30.5935 32.1892 31.9347 33.7567C30.9593 34.9825 29.744 35.9675 28.3734 36.6429C27.0029 37.3184 25.5102 37.668 23.9994 37.6675ZM37.4112 29.7508H35.5261C35.7869 28.7177 35.9195 27.6529 35.921 26.5842C35.921 19.5882 30.5839 13.9175 23.9994 13.9175C17.415 13.9175 12.0779 19.5882 12.0779 26.5842C12.0793 27.6529 12.212 28.7177 12.4728 29.7508H10.5877C6.47248 29.7508 3.13668 26.2066 3.13668 21.8342C3.13668 17.4618 6.47248 13.9175 10.5877 13.9175C12.0578 13.9125 13.4956 14.3758 14.7155 15.2475C14.8815 15.3577 15.0814 15.3948 15.2727 15.351C15.464 15.3072 15.6318 15.1859 15.7403 15.0129C15.8489 14.8398 15.8897 14.6287 15.8542 14.4242C15.8187 14.2197 15.7096 14.038 15.55 13.9175C14.8032 13.3845 13.9841 12.9761 13.121 12.7063C13.648 11.8898 14.3479 11.216 15.1644 10.7389C15.9809 10.2618 16.8913 9.99476 17.8226 9.95919H17.9865C19.2952 9.93931 20.5725 10.3852 21.6151 11.2259C21.7732 11.3518 21.9719 11.4059 22.1675 11.3762C22.3632 11.3465 22.5397 11.2355 22.6583 11.0675C22.7768 10.8995 22.8277 10.6884 22.7998 10.4806C22.7718 10.2727 22.6673 10.0852 22.5092 9.95919C21.4387 9.10253 20.1688 8.57161 18.8359 8.42335C19.679 6.44663 21.1337 4.83621 22.958 3.86002C24.7823 2.88383 26.8661 2.60071 28.8629 3.05778C30.8597 3.51484 32.6489 4.68453 33.9331 6.37225C35.2172 8.05996 35.9187 10.164 35.921 12.3342V12.4688C34.6795 12.6825 33.4955 13.1765 32.4488 13.9175C32.2848 14.0351 32.1715 14.2171 32.1338 14.4235C32.096 14.6298 32.137 14.8437 32.2477 15.0179C32.3583 15.1922 32.5296 15.3126 32.7238 15.3527C32.9181 15.3928 33.1193 15.3493 33.2833 15.2317C34.5049 14.3655 35.9426 13.9078 37.4112 13.9175C41.5264 13.9175 44.8622 17.4618 44.8622 21.8342C44.8622 26.2066 41.5264 29.7508 37.4112 29.7508Z" fill="#2166F3"/>
<path d="M37.4112 12.3342C37.4062 9.74131 36.5458 7.23236 34.9797 5.24388C33.4135 3.2554 31.2408 1.91327 28.8395 1.45101C26.4383 0.988758 23.9605 1.43564 21.8373 2.71391C19.7141 3.99217 18.0799 6.02091 17.219 8.4471C16.0492 8.58217 14.9266 9.01174 13.9443 9.70016C12.9621 10.3886 12.1485 11.316 11.5712 12.4054C11.2449 12.362 10.9165 12.3382 10.5877 12.3342C5.6499 12.3342 1.64648 16.5878 1.64648 21.8342C1.64648 27.0805 5.6499 31.3342 10.5877 31.3342H12.9571C13.7958 33.5514 15.2078 35.4713 17.0299 36.8722C18.852 38.273 21.0099 39.0976 23.2543 39.2508V40.8342H12.0779C11.485 40.8342 10.9165 41.0844 10.4973 41.5298C10.0781 41.9752 9.84256 42.5793 9.84256 43.2092V46.3758C9.84256 47.0057 10.0781 47.6098 10.4973 48.0552C10.9165 48.5006 11.485 48.7508 12.0779 48.7508H35.921C36.5138 48.7508 37.0824 48.5006 37.5016 48.0552C37.9208 47.6098 38.1563 47.0057 38.1563 46.3758V43.2092C38.1563 42.5793 37.9208 41.9752 37.5016 41.5298C37.0824 41.0844 36.5138 40.8342 35.921 40.8342H24.7445V39.2508C26.989 39.0976 29.1468 38.273 30.9689 36.8722C32.791 35.4713 34.203 33.5514 35.0418 31.3342H37.4112C42.349 31.3342 46.3524 27.0805 46.3524 21.8342C46.3524 16.5878 42.349 12.3342 37.4112 12.3342ZM36.6661 43.2092V46.3758C36.6661 46.5858 36.5876 46.7872 36.4479 46.9356C36.3081 47.0841 36.1186 47.1675 35.921 47.1675H12.0779C11.8802 47.1675 11.6907 47.0841 11.551 46.9356C11.4113 46.7872 11.3328 46.5858 11.3328 46.3758V43.2092C11.3328 42.9992 11.4113 42.7978 11.551 42.6494C11.6907 42.5009 11.8802 42.4175 12.0779 42.4175H35.921C36.1186 42.4175 36.3081 42.5009 36.4479 42.6494C36.5876 42.7978 36.6661 42.9992 36.6661 43.2092ZM32.8288 32.4504C31.3652 30.8817 29.4995 29.8052 27.4641 29.355C28.4918 28.5751 29.2597 27.4685 29.6572 26.1949C30.0547 24.9213 30.0613 23.5464 29.6758 22.2686C29.2904 20.9908 28.533 19.876 27.5128 19.0852C26.4926 18.2943 25.2623 17.8681 23.9994 17.8681C22.7365 17.8681 21.5063 18.2943 20.4861 19.0852C19.4659 19.876 18.7084 20.9908 18.323 22.2686C17.9376 23.5464 17.9441 24.9213 18.3416 26.1949C18.7391 27.4685 19.5071 28.5751 20.5347 29.355C18.4994 29.8052 16.6337 30.8817 15.17 32.4504C14.1227 30.6962 13.5671 28.6615 13.5681 26.5842C13.5681 20.463 18.2383 15.5008 23.9994 15.5008C29.7605 15.5008 34.4308 20.463 34.4308 26.5842C34.4318 28.6615 33.8762 30.6962 32.8288 32.4504ZM19.5288 24.2092C19.5288 22.9494 19.9998 21.7412 20.8382 20.8504C21.6766 19.9596 22.8138 19.4592 23.9994 19.4592C25.1851 19.4592 26.3222 19.9596 27.1606 20.8504C27.999 21.7412 28.47 22.9494 28.47 24.2092C28.47 25.469 27.999 26.6771 27.1606 27.5679C26.3222 28.4587 25.1851 28.9592 23.9994 28.9592C22.8138 28.9592 21.6766 28.4587 20.8382 27.5679C19.9998 26.6771 19.5288 25.469 19.5288 24.2092ZM23.9994 37.6675C22.4886 37.668 20.9959 37.3184 19.6254 36.6429C18.2549 35.9675 17.0395 34.9825 16.0641 33.7567C17.4053 32.1733 19.7896 30.5425 23.9994 30.5425C28.2092 30.5425 30.5935 32.1892 31.9347 33.7567C30.9593 34.9825 29.744 35.9675 28.3734 36.6429C27.0029 37.3184 25.5102 37.668 23.9994 37.6675ZM37.4112 29.7508H35.5261C35.7869 28.7177 35.9195 27.6529 35.921 26.5842C35.921 19.5882 30.5839 13.9175 23.9994 13.9175C17.415 13.9175 12.0779 19.5882 12.0779 26.5842C12.0793 27.6529 12.212 28.7177 12.4728 29.7508H10.5877C6.47248 29.7508 3.13668 26.2066 3.13668 21.8342C3.13668 17.4618 6.47248 13.9175 10.5877 13.9175C12.0578 13.9125 13.4956 14.3758 14.7155 15.2475C14.8815 15.3577 15.0814 15.3948 15.2727 15.351C15.464 15.3072 15.6318 15.1859 15.7403 15.0129C15.8489 14.8398 15.8897 14.6287 15.8542 14.4242C15.8187 14.2197 15.7096 14.038 15.55 13.9175C14.8032 13.3845 13.9841 12.9761 13.121 12.7063C13.648 11.8898 14.3479 11.216 15.1644 10.7389C15.9809 10.2618 16.8913 9.99476 17.8226 9.95919H17.9865C19.2952 9.93931 20.5725 10.3852 21.6151 11.2259C21.7732 11.3518 21.9719 11.4059 22.1675 11.3762C22.3632 11.3465 22.5397 11.2355 22.6583 11.0675C22.7768 10.8995 22.8277 10.6884 22.7998 10.4806C22.7718 10.2727 22.6673 10.0852 22.5092 9.95919C21.4387 9.10253 20.1688 8.57161 18.8359 8.42335C19.679 6.44663 21.1337 4.83621 22.958 3.86002C24.7823 2.88383 26.8661 2.60071 28.8629 3.05778C30.8597 3.51484 32.6489 4.68453 33.9331 6.37225C35.2172 8.05996 35.9187 10.164 35.921 12.3342V12.4688C34.6795 12.6825 33.4955 13.1765 32.4488 13.9175C32.2848 14.0351 32.1715 14.2171 32.1338 14.4235C32.096 14.6298 32.137 14.8437 32.2477 15.0179C32.3583 15.1922 32.5296 15.3126 32.7238 15.3527C32.9181 15.3928 33.1193 15.3493 33.2833 15.2317C34.5049 14.3655 35.9426 13.9078 37.4112 13.9175C41.5264 13.9175 44.8622 17.4618 44.8622 21.8342C44.8622 26.2066 41.5264 29.7508 37.4112 29.7508Z" stroke="#2166F3" stroke-width="0.38" mask="url(#path-2-outside-1_176_990)"/>
<path d="M14.3135 45.6793H15.0586C15.2833 45.6793 15.4976 45.5844 15.6546 45.4175C15.8115 45.2509 15.8987 45.026 15.8987 44.7926C15.8987 44.5593 15.8115 44.3344 15.6546 44.1677C15.4976 44.0009 15.2833 43.906 15.0586 43.906H14.3135C14.0887 43.906 13.8745 44.0009 13.7174 44.1677C13.5606 44.3344 13.4734 44.5593 13.4734 44.7926C13.4734 45.026 13.5606 45.2509 13.7174 45.4175C13.8745 45.5844 14.0887 45.6793 14.3135 45.6793ZM18.0389 45.6793H18.784C19.0088 45.6793 19.223 45.5844 19.3801 45.4175C19.5369 45.2509 19.6241 45.026 19.6241 44.7926C19.6241 44.5593 19.5369 44.3344 19.3801 44.1677C19.223 44.0009 19.0088 43.906 18.784 43.906H18.0389C17.8142 43.906 17.5999 44.0009 17.4429 44.1677C17.286 44.3344 17.1988 44.5593 17.1988 44.7926C17.1988 45.026 17.286 45.2509 17.4429 45.4175C17.5999 45.5844 17.8142 45.6793 18.0389 45.6793ZM21.7644 45.6793H22.5095C22.7343 45.6793 22.9485 45.5844 23.1056 45.4175C23.2624 45.2509 23.3496 45.026 23.3496 44.7926C23.3496 44.5593 23.2624 44.3344 23.1056 44.1677C22.9485 44.0009 22.7343 43.906 22.5095 43.906H21.7644C21.5397 43.906 21.3254 44.0009 21.1684 44.1677C21.0115 44.3344 20.9243 44.5593 20.9243 44.7926C20.9243 45.026 21.0115 45.2509 21.1684 45.4175C21.3254 45.5844 21.5397 45.6793 21.7644 45.6793ZM25.4899 45.6793H26.235C26.4598 45.6793 26.674 45.5844 26.8311 45.4175C26.9879 45.2509 27.0751 45.026 27.0751 44.7926C27.0751 44.5593 26.9879 44.3344 26.8311 44.1677C26.674 44.0009 26.4598 43.906 26.235 43.906H25.4899C25.2652 43.906 25.0509 44.0009 24.8939 44.1677C24.737 44.3344 24.6498 44.5593 24.6498 44.7926C24.6498 45.026 24.737 45.2509 24.8939 45.4175C25.0509 45.5844 25.2652 45.6793 25.4899 45.6793ZM29.2154 45.6793H29.9605C30.1852 45.6793 30.3995 45.5844 30.5566 45.4175C30.7134 45.2509 30.8006 45.026 30.8006 44.7926C30.8006 44.5593 30.7134 44.3344 30.5566 44.1677C30.3995 44.0009 30.1852 43.906 29.9605 43.906H29.2154C28.9907 43.906 28.7764 44.0009 28.6194 44.1677C28.4625 44.3344 28.3753 44.5593 28.3753 44.7926C28.3753 45.026 28.4625 45.2509 28.6194 45.4175C28.7764 45.5844 28.9907 45.6793 29.2154 45.6793ZM32.9409 45.6793H33.686C33.9107 45.6793 34.125 45.5844 34.2821 45.4175C34.4389 45.2509 34.5261 45.026 34.5261 44.7926C34.5261 44.5593 34.4389 44.3344 34.2821 44.1677C34.125 44.0009 33.9107 43.906 33.686 43.906H32.9409C32.7162 43.906 32.5019 44.0009 32.3449 44.1677C32.188 44.3344 32.1008 44.5593 32.1008 44.7926C32.1008 45.026 32.188 45.2509 32.3449 45.4175C32.5019 45.5844 32.7162 45.6793 32.9409 45.6793Z" fill="#2166F3" stroke="#2166F3" stroke-width="0.19"/>
</svg>
