<svg width="50" height="50" fill="none" xmlns="http://www.w3.org/2000/svg"><g clip-path="url(#a)"><mask id="b" style="mask-type:luminance" maskUnits="userSpaceOnUse" x="0" y="0" width="50" height="50"><path d="M49.25 49.25V.75H.75v48.5h48.5z" fill="#fff" stroke="#fff" stroke-width="1.5"/></mask><g mask="url(#b)" stroke="#111" stroke-width="1.5" stroke-miterlimit="10" stroke-linecap="round" stroke-linejoin="round"><path d="M36.23.732H25.967a4.75 4.75 0 0 0-4.758 4.744v8.782M23.178 26.27c.784.566 1.747.9 2.79.9h8.913v4.322l5.651-4.322h2.438a4.75 4.75 0 0 0 4.758-4.744V5.476A4.75 4.75 0 0 0 42.97.732h-2.15"/><path d="m30.8 20.217.491.397c.778.63 1.748.973 2.748.973h6.962c.66 0 1.192-.55 1.16-1.218-.03-.624.002-6.312.002-6.954 0-.641-.52-1.161-1.162-1.161l-4.72-.014.577-1.37a4.954 4.954 0 0 0-.262-4.384.773.773 0 0 0-1.444.384 5.039 5.039 0 0 1-1.26 3.333l-3.01 3.407M30.71 21.265h-3.939V12.4h3.94v8.864zM2.271 23.633v7.39c0 2.067 1.68 3.742 3.753 3.742h7.365v3.44l4.456-3.44M23.072 31.934c.074-.298.112-.604.112-.91V17.657c0-2.066-1.68-3.74-3.753-3.74H6.024a3.746 3.746 0 0 0-3.753 3.74v1.581M7.81 22.92h9.835M7.81 26.172h9.835M15.167 19.629l-1.626 9.834M11.915 19.629l-1.626 9.834M33.104 38.281v-3.595a2.659 2.659 0 0 0-2.663-2.655h-9.515a2.659 2.659 0 0 0-2.662 2.655v9.486a2.659 2.659 0 0 0 2.662 2.654h5.227v2.442l3.163-2.442h1.125a2.659 2.659 0 0 0 2.663-2.654v-1.3"/><path d="M25.685 42.651c2.29-1.213 3.476-2.246 3.476-3.846 0-2.207-2.704-2.759-3.476-1.104-.883-1.71-3.476-1.103-3.476 1.104 0 1.6 1.186 2.633 3.476 3.846z"/></g></g><defs><clipPath id="a"><path fill="#fff" d="M0 0h50v50H0z"/></clipPath></defs></svg>