<svg width="50" height="50" viewBox="0 0 50 50" fill="none" xmlns="http://www.w3.org/2000/svg">
<g clip-path="url(#clip0_216_133)">
<path d="M49 21.5C48.74 21.5 48.48 21.39 48.29 21.21C48.11 21.02 48 20.76 48 20.5C48 20.24 48.11 19.98 48.29 19.79C48.67 19.42 49.34 19.42 49.71 19.79C49.89 19.98 50 20.24 50 20.5C50 20.77 49.89 21.02 49.71 21.21C49.52 21.39 49.26 21.5 49 21.5ZM15 39.5C14.74 39.5 14.48 39.39 14.29 39.21C14.11 39.02 14 38.76 14 38.5C14 38.24 14.11 37.98 14.29 37.79C14.67 37.42 15.33 37.42 15.71 37.79C15.89 37.98 16 38.24 16 38.5C16 38.76 15.89 39.02 15.71 39.21C15.52 39.39 15.26 39.5 15 39.5ZM49 29.5C48.7348 29.5 48.4804 29.3946 48.2929 29.2071C48.1054 29.0196 48 28.7652 48 28.5V24.5C48 24.2348 48.1054 23.9804 48.2929 23.7929C48.4804 23.6054 48.7348 23.5 49 23.5C49.2652 23.5 49.5196 23.6054 49.7071 23.7929C49.8946 23.9804 50 24.2348 50 24.5V28.5C50 28.7652 49.8946 29.0196 49.7071 29.2071C49.5196 29.3946 49.2652 29.5 49 29.5ZM49 17.5C48.7348 17.5 48.4804 17.3946 48.2929 17.2071C48.1054 17.0196 48 16.7652 48 16.5V5C48 4.73478 48.1054 4.48043 48.2929 4.29289C48.4804 4.10536 48.7348 4 49 4C49.2652 4 49.5196 4.10536 49.7071 4.29289C49.8946 4.48043 50 4.73478 50 5V16.5C50 16.7652 49.8946 17.0196 49.7071 17.2071C49.5196 17.3946 49.2652 17.5 49 17.5ZM15 35.5C14.7348 35.5 14.4804 35.3946 14.2929 35.2071C14.1054 35.0196 14 34.7652 14 34.5V22.692C14 22.4268 14.1054 22.1724 14.2929 21.9849C14.4804 21.7974 14.7348 21.692 15 21.692C15.2652 21.692 15.5196 21.7974 15.7071 21.9849C15.8946 22.1724 16 22.4268 16 22.692V34.5C16 34.7652 15.8946 35.0196 15.7071 35.2071C15.5196 35.3946 15.2652 35.5 15 35.5ZM15 47.5C14.7348 47.5 14.4804 47.3946 14.2929 47.2071C14.1054 47.0196 14 46.7652 14 46.5V42.5C14 42.2348 14.1054 41.9804 14.2929 41.7929C14.4804 41.6054 14.7348 41.5 15 41.5C15.2652 41.5 15.5196 41.6054 15.7071 41.7929C15.8946 41.9804 16 42.2348 16 42.5V46.5C16 46.7652 15.8946 47.0196 15.7071 47.2071C15.5196 47.3946 15.2652 47.5 15 47.5ZM28.129 47.008C27.8638 47.008 27.6094 46.9026 27.4219 46.7151C27.2344 46.5276 27.129 46.2732 27.129 46.008V30.5C27.129 30.2348 27.2344 29.9804 27.4219 29.7929C27.6094 29.6054 27.8638 29.5 28.129 29.5C28.3942 29.5 28.6486 29.6054 28.8361 29.7929C29.0236 29.9804 29.129 30.2348 29.129 30.5V46.008C29.129 46.2732 29.0236 46.5276 28.8361 46.7151C28.6486 46.9026 28.3942 47.008 28.129 47.008Z" fill="#2166F3"/>
<path d="M47 31.5C46.7348 31.5 46.4804 31.3946 46.2929 31.2071C46.1054 31.0196 46 30.7652 46 30.5C46 30.2348 46.1054 29.9804 46.2929 29.7929C46.4804 29.6054 46.7348 29.5 47 29.5C47.551 29.5 48 29.051 48 28.5C48 28.2348 48.1054 27.9804 48.2929 27.7929C48.4804 27.6054 48.7348 27.5 49 27.5C49.2652 27.5 49.5196 27.6054 49.7071 27.7929C49.8946 27.9804 50 28.2348 50 28.5C50 30.154 48.654 31.5 47 31.5Z" fill="#2166F3"/>
<path d="M47 31.5H15C14.7348 31.5 14.4804 31.3946 14.2929 31.2071C14.1054 31.0196 14 30.7652 14 30.5C14 30.2348 14.1054 29.9804 14.2929 29.7929C14.4804 29.6054 14.7348 29.5 15 29.5H47C47.2652 29.5 47.5196 29.6054 47.7071 29.7929C47.8946 29.9804 48 30.2348 48 30.5C48 30.7652 47.8946 31.0196 47.7071 31.2071C47.5196 31.3946 47.2652 31.5 47 31.5ZM43 14H28.364C28.0988 14 27.8444 13.8946 27.6569 13.7071C27.4694 13.5196 27.364 13.2652 27.364 13C27.364 12.7348 27.4694 12.4804 27.6569 12.2929C27.8444 12.1054 28.0988 12 28.364 12H43C43.2652 12 43.5196 12.1054 43.7071 12.2929C43.8946 12.4804 44 12.7348 44 13C44 13.2652 43.8946 13.5196 43.7071 13.7071C43.5196 13.8946 43.2652 14 43 14ZM43 18H29.485C29.2198 18 28.9654 17.8946 28.7779 17.7071C28.5904 17.5196 28.485 17.2652 28.485 17C28.485 16.7348 28.5904 16.4804 28.7779 16.2929C28.9654 16.1054 29.2198 16 29.485 16H43C43.2652 16 43.5196 16.1054 43.7071 16.2929C43.8946 16.4804 44 16.7348 44 17C44 17.2652 43.8946 17.5196 43.7071 17.7071C43.5196 17.8946 43.2652 18 43 18ZM43 22H27.495C27.2298 22 26.9754 21.8946 26.7879 21.7071C26.6004 21.5196 26.495 21.2652 26.495 21C26.495 20.7348 26.6004 20.4804 26.7879 20.2929C26.9754 20.1054 27.2298 20 27.495 20H43C43.2652 20 43.5196 20.1054 43.7071 20.2929C43.8946 20.4804 44 20.7348 44 21C44 21.2652 43.8946 21.5196 43.7071 21.7071C43.5196 21.8946 43.2652 22 43 22ZM39 10H20C19.7348 10 19.4804 9.89464 19.2929 9.70711C19.1054 9.51957 19 9.26522 19 9C19 8.73478 19.1054 8.48043 19.2929 8.29289C19.4804 8.10536 19.7348 8 20 8H39C39.2652 8 39.5196 8.10536 39.7071 8.29289C39.8946 8.48043 40 8.73478 40 9C40 9.26522 39.8946 9.51957 39.7071 9.70711C39.5196 9.89464 39.2652 10 39 10ZM29.5 4C29.2348 4 28.9804 3.89464 28.7929 3.70711C28.6054 3.51957 28.5 3.26522 28.5 3V1C28.5 0.734784 28.6054 0.48043 28.7929 0.292893C28.9804 0.105357 29.2348 0 29.5 0C29.7652 0 30.0196 0.105357 30.2071 0.292893C30.3946 0.48043 30.5 0.734784 30.5 1V3C30.5 3.26522 30.3946 3.51957 30.2071 3.70711C30.0196 3.89464 29.7652 4 29.5 4ZM10 9.996C9.73478 9.996 9.48043 9.89064 9.29289 9.70311C9.10536 9.51557 9 9.26122 9 8.996V5C9 4.73478 9.10536 4.48043 9.29289 4.29289C9.48043 4.10536 9.73478 4 10 4C10.2652 4 10.5196 4.10536 10.7071 4.29289C10.8946 4.48043 11 4.73478 11 5V8.996C11 9.12732 10.9741 9.25736 10.9239 9.37868C10.8736 9.50001 10.8 9.61025 10.7071 9.70311C10.6142 9.79596 10.504 9.86963 10.3827 9.91988C10.2614 9.97013 10.1313 9.996 10 9.996Z" fill="#2166F3"/>
<path d="M10 6C9.73478 6 9.48043 5.89464 9.29289 5.70711C9.10536 5.51957 9 5.26522 9 5C9 3.346 10.346 2 12 2C12.2652 2 12.5196 2.10536 12.7071 2.29289C12.8946 2.48043 13 2.73478 13 3C13 3.26522 12.8946 3.51957 12.7071 3.70711C12.5196 3.89464 12.2652 4 12 4C11.449 4 11 4.449 11 5C11 5.26522 10.8946 5.51957 10.7071 5.70711C10.5196 5.89464 10.2652 6 10 6Z" fill="#2166F3"/>
<path d="M47 4H12C11.7348 4 11.4804 3.89464 11.2929 3.70711C11.1054 3.51957 11 3.26522 11 3C11 2.73478 11.1054 2.48043 11.2929 2.29289C11.4804 2.10536 11.7348 2 12 2H47C47.2652 2 47.5196 2.10536 47.7071 2.29289C47.8946 2.48043 48 2.73478 48 3C48 3.26522 47.8946 3.51957 47.7071 3.70711C47.5196 3.89464 47.2652 4 47 4Z" fill="#2166F3"/>
<path d="M48.9999 6C48.7347 6 48.4803 5.89464 48.2928 5.70711C48.1052 5.51957 47.9999 5.26522 47.9999 5C47.9999 4.449 47.5509 4 46.9999 4C46.7347 4 46.4803 3.89464 46.2928 3.70711C46.1052 3.51957 45.9999 3.26522 45.9999 3C45.9999 2.73478 46.1052 2.48043 46.2928 2.29289C46.4803 2.10536 46.7347 2 46.9999 2C48.6539 2 49.9999 3.346 49.9999 5C49.9999 5.26522 49.8945 5.51957 49.707 5.70711C49.5195 5.89464 49.2651 6 48.9999 6ZM3.83988 20.602C3.60122 20.602 3.37044 20.5167 3.18921 20.3614C3.00798 20.2061 2.88826 19.9911 2.85167 19.7553C2.81508 19.5195 2.86404 19.2783 2.9897 19.0755C3.11536 18.8726 3.30944 18.7213 3.53688 18.649C6.77195 17.6192 10.2137 17.4177 13.5469 18.063C14.0889 18.168 14.4429 18.693 14.3389 19.235C14.2878 19.4951 14.1359 19.7244 13.9163 19.8728C13.6967 20.0212 13.4272 20.0766 13.1669 20.027C10.1628 19.4451 7.06062 19.6267 4.14488 20.555C4.04609 20.5856 3.94331 20.6015 3.83988 20.602Z" fill="#2166F3"/>
<path d="M13.3573 20.0437C13.1294 20.0441 12.9082 19.9667 12.7303 19.8242C12.5524 19.6817 12.4286 19.4827 12.3792 19.2602C12.3298 19.0377 12.358 18.805 12.4589 18.6007C12.5599 18.3964 12.7276 18.2327 12.9343 18.1367L22.2363 13.7997C22.4768 13.6876 22.7518 13.6757 23.0011 13.7664C23.2503 13.8572 23.4533 14.0433 23.5653 14.2837C23.6774 14.5241 23.6894 14.7992 23.5986 15.0484C23.5078 15.2977 23.3218 15.5006 23.0813 15.6127L13.7793 19.9497C13.6475 20.0122 13.5033 20.0444 13.3573 20.0437Z" fill="#2166F3"/>
<path d="M24.3508 19.3321C24.1232 19.3323 23.9024 19.2548 23.7247 19.1125C23.5471 18.9701 23.4234 18.7715 23.374 18.5493C23.3245 18.3271 23.3524 18.0947 23.4529 17.8905C23.5534 17.6863 23.7206 17.5225 23.9268 17.4261C24.7328 17.0501 24.4218 16.2761 24.3508 16.1251C24.2808 15.9741 23.8918 15.2401 23.0808 15.6141C22.8404 15.7262 22.5653 15.7381 22.3161 15.6474C22.0669 15.5566 21.8639 15.3706 21.7518 15.1301C21.6398 14.8897 21.6278 14.6146 21.7186 14.3654C21.8094 14.1162 21.9954 13.9132 22.2358 13.8011C23.9798 12.9861 25.5328 13.9281 26.1628 15.2801C26.7928 16.6311 26.5168 18.4251 24.7718 19.2391C24.64 19.3005 24.4963 19.3323 24.3508 19.3321Z" fill="#2166F3"/>
<path d="M15.0007 23.6919C14.7731 23.6921 14.5523 23.6146 14.3746 23.4723C14.197 23.3299 14.0733 23.1312 14.0239 22.9091C13.9744 22.6869 14.0023 22.4545 14.1028 22.2503C14.2033 22.0461 14.3705 21.8823 14.5767 21.7859L23.9267 17.4259C24.0457 17.3704 24.1745 17.3388 24.3056 17.333C24.4368 17.3272 24.5678 17.3473 24.6913 17.3922C24.8147 17.437 24.928 17.5057 25.0249 17.5944C25.1217 17.6831 25.2002 17.7899 25.2557 17.9089C25.3113 18.0279 25.3428 18.1566 25.3486 18.2878C25.3544 18.419 25.3343 18.55 25.2895 18.6734C25.2446 18.7969 25.1759 18.9102 25.0872 19.0071C24.9986 19.1039 24.8917 19.1824 24.7727 19.2379L15.4227 23.5979C15.2907 23.66 15.1466 23.6921 15.0007 23.6919ZM18.7697 49.9999C18.5661 49.9999 18.3673 49.9378 18.1999 49.8218C18.0325 49.7057 17.9046 49.5414 17.8331 49.3507C17.7617 49.16 17.7502 48.952 17.8002 48.7546C17.8501 48.5572 17.9592 48.3797 18.1127 48.2459L27.4737 40.0919C27.6737 39.9177 27.9347 39.83 28.1993 39.8482C28.4639 39.8664 28.7105 39.9889 28.8847 40.1889C29.059 40.3889 29.1466 40.6499 29.1285 40.9145C29.1103 41.1791 28.9877 41.4257 28.7877 41.5999L19.4267 49.7539C19.2447 49.9126 19.0113 50 18.7697 49.9999Z" fill="#2166F3"/>
<path d="M37.49 49.9997C37.2487 50 37.0156 49.9126 36.834 49.7537L27.473 41.5997C27.374 41.5134 27.2929 41.4085 27.2345 41.2909C27.176 41.1733 27.1413 41.0453 27.1323 40.9143C27.1233 40.7833 27.1402 40.6517 27.182 40.5272C27.2238 40.4027 27.2897 40.2877 27.376 40.1887C27.4623 40.0897 27.5672 40.0086 27.6848 39.9502C27.8024 39.8917 27.9304 39.857 28.0614 39.848C28.1924 39.839 28.3239 39.8558 28.4484 39.8977C28.5729 39.9395 28.688 40.0054 28.787 40.0917L38.148 48.2457C38.3016 48.3795 38.4107 48.5571 38.4606 48.7546C38.5106 48.9521 38.499 49.1602 38.4274 49.3509C38.3559 49.5417 38.2277 49.706 38.0602 49.822C37.8927 49.9379 37.6937 49.9999 37.49 49.9997ZM1 34.7457C0.734784 34.7457 0.48043 34.6403 0.292893 34.4528C0.105357 34.2653 0 34.0109 0 33.7457V23.4297C0 23.1645 0.105357 22.9101 0.292893 22.7226C0.48043 22.535 0.734784 22.4297 1 22.4297C1.26522 22.4297 1.51957 22.535 1.70711 22.7226C1.89464 22.9101 2 23.1645 2 23.4297V33.7457C2 34.0109 1.89464 34.2653 1.70711 34.4528C1.51957 34.6403 1.26522 34.7457 1 34.7457Z" fill="#2166F3"/>
<path d="M1.00004 24.4301C0.734826 24.4301 0.480473 24.3248 0.292936 24.1372C0.1054 23.9497 4.28112e-05 23.6953 4.28112e-05 23.4301C-0.00441336 22.3559 0.339118 21.309 0.979232 20.4463C1.61935 19.5836 2.52162 18.9513 3.55104 18.6441C3.67702 18.605 3.8095 18.5911 3.94085 18.6034C4.0722 18.6156 4.19983 18.6538 4.31638 18.7156C4.43293 18.7774 4.53609 18.8616 4.61994 18.9635C4.70378 19.0654 4.76664 19.1828 4.8049 19.309C4.84316 19.4353 4.85606 19.5679 4.84286 19.6991C4.82965 19.8304 4.79061 19.9577 4.72797 20.0738C4.66534 20.1899 4.58035 20.2925 4.4779 20.3756C4.37545 20.4587 4.25757 20.5208 4.13104 20.5581C3.51335 20.7425 2.97196 21.122 2.58784 21.6397C2.20371 22.1574 1.9975 22.7855 2.00004 23.4301C2.00004 23.6953 1.89469 23.9497 1.70715 24.1372C1.51961 24.3248 1.26526 24.4301 1.00004 24.4301ZM5.00004 47.5001C4.73483 47.5001 4.48047 47.3948 4.29294 47.2072C4.1054 47.0197 4.00004 46.7653 4.00004 46.5001V24.5151C4.00004 24.2499 4.1054 23.9955 4.29294 23.808C4.48047 23.6205 4.73483 23.5151 5.00004 23.5151C5.26526 23.5151 5.51961 23.6205 5.70715 23.808C5.89469 23.9955 6.00004 24.2499 6.00004 24.5151V46.5001C6.00004 46.7653 5.89469 47.0197 5.70715 47.2072C5.51961 47.3948 5.26526 47.5001 5.00004 47.5001ZM10 19.6891C6.83104 19.6891 4.15304 17.0111 4.15304 13.8421C4.15304 10.6731 6.83104 7.99512 10 7.99512C13.169 7.99512 15.847 10.6721 15.847 13.8421C15.847 17.0121 13.169 19.6891 10 19.6891ZM10 9.99612C7.91504 9.99612 6.15304 11.7581 6.15304 13.8431C6.15304 15.9281 7.91504 17.6901 10 17.6901C12.085 17.6901 13.847 15.9281 13.847 13.8431C13.847 11.7571 12.085 9.99612 10 9.99612ZM10 47.5001C9.73483 47.5001 9.48047 47.3948 9.29293 47.2072C9.1054 47.0197 9.00004 46.7653 9.00004 46.5001V33.7461C9.00004 33.4809 9.1054 33.2265 9.29293 33.039C9.48047 32.8515 9.73483 32.7461 10 32.7461C10.2653 32.7461 10.5196 32.8515 10.7071 33.039C10.8947 33.2265 11 33.4809 11 33.7461V46.5001C11 46.7653 10.8947 47.0197 10.7071 47.2072C10.5196 47.3948 10.2653 47.5001 10 47.5001Z" fill="#2166F3"/>
<path d="M3 36.6811C1.509 36.6811 0 35.6731 0 33.7461C0 33.4809 0.105357 33.2265 0.292893 33.039C0.48043 32.8515 0.734784 32.7461 1 32.7461C1.26522 32.7461 1.51957 32.8515 1.70711 33.039C1.89464 33.2265 2 33.4809 2 33.7461C2 34.6361 2.833 34.6811 3 34.6811C3.167 34.6811 4 34.6361 4 33.7461C4 33.4809 4.10536 33.2265 4.29289 33.039C4.48043 32.8515 4.73478 32.7461 5 32.7461C5.26522 32.7461 5.51957 32.8515 5.70711 33.039C5.89464 33.2265 6 33.4809 6 33.7461C6 35.6731 4.491 36.6811 3 36.6811ZM12.5 49.9181C11.606 49.9181 10.764 49.6181 10.129 49.0721C9.401 48.4461 9 47.5321 9 46.5001C9 46.2349 9.10536 45.9805 9.29289 45.793C9.48043 45.6055 9.73478 45.5001 10 45.5001C10.2652 45.5001 10.5196 45.6055 10.7071 45.793C10.8946 45.9805 11 46.2349 11 46.5001C11 47.8781 12.347 47.9181 12.5 47.9181C12.653 47.9181 14 47.8781 14 46.5001C14 46.2349 14.1054 45.9805 14.2929 45.793C14.4804 45.6055 14.7348 45.5001 15 45.5001C15.2652 45.5001 15.5196 45.6055 15.7071 45.793C15.8946 45.9805 16 46.2349 16 46.5001C16 48.7441 14.239 49.9181 12.5 49.9181Z" fill="#2166F3"/>
<path d="M7.5 49.918C6.606 49.918 5.764 49.618 5.129 49.072C4.401 48.446 4 47.532 4 46.5C4 46.2348 4.10536 45.9804 4.29289 45.7929C4.48043 45.6054 4.73478 45.5 5 45.5C5.26522 45.5 5.51957 45.6054 5.70711 45.7929C5.89464 45.9804 6 46.2348 6 46.5C6 47.878 7.347 47.918 7.5 47.918C7.653 47.918 9 47.878 9 46.5C9 46.2348 9.10536 45.9804 9.29289 45.7929C9.48043 45.6054 9.73478 45.5 10 45.5C10.2652 45.5 10.5196 45.6054 10.7071 45.7929C10.8946 45.9804 11 46.2348 11 46.5C11 48.744 9.239 49.918 7.5 49.918Z" fill="#2166F3"/>
</g>
<defs>
<clipPath id="clip0_216_133">
<rect width="50" height="50" fill="white"/>
</clipPath>
</defs>
</svg>
