<svg width="55" height="55" fill="none" xmlns="http://www.w3.org/2000/svg"><g clip-path="url(#a)"><mask id="b" style="mask-type:luminance" maskUnits="userSpaceOnUse" x="0" y="0" width="55" height="55"><path d="M54 54V1H1v53h53z" fill="#fff" stroke="#fff" stroke-width="2"/></mask><g mask="url(#b)" stroke="#2166F3" stroke-width="2" stroke-miterlimit="10" stroke-linecap="round" stroke-linejoin="round"><path d="M5.01 36.765h4.296c.978 0 1.778.801 1.778 1.779v11.275c0 .975-.8 1.776-1.778 1.776H5.01c-.978 0-1.776-.801-1.776-1.776V38.543c0-.977.798-1.778 1.776-1.778z"/><path d="M11.084 38.723h2.235c.85-.036.971-.033 1.897-.399 4.306-1.699 7.823-1.897 12.131 2.16.54.505.661.648 1.52.648h5.843a2.908 2.908 0 0 1 2.899 2.899 2.907 2.907 0 0 1-2.899 2.896h-9.47M38.06 32.161a14.402 14.402 0 0 0 4.562-1.89l.986.986c.518.52 1.367.52 1.885 0l2.643-2.64a1.338 1.338 0 0 0 0-1.885l-.986-.987a14.536 14.536 0 0 0 1.89-4.561h1.392a1.34 1.34 0 0 0 1.334-1.334v-3.736c0-.734-.6-1.334-1.334-1.334H49.04a14.536 14.536 0 0 0-1.89-4.561l.986-.987a1.338 1.338 0 0 0 0-1.885l-2.643-2.64a1.332 1.332 0 0 0-1.885 0l-.986.987a14.478 14.478 0 0 0-4.562-1.895V2.408c0-.734-.6-1.334-1.334-1.334h-3.733c-.733 0-1.333.6-1.333 1.334v1.391a14.525 14.525 0 0 0-4.565 1.895l-.986-.987a1.333 1.333 0 0 0-1.885 0l-2.64 2.64a1.338 1.338 0 0 0 0 1.885l.986.987a14.463 14.463 0 0 0-1.89 4.561h-1.395c-.734 0-1.334.6-1.334 1.334v3.736c0 .73.6 1.334 1.334 1.334h1.395a14.464 14.464 0 0 0 1.89 4.561l-.986.987a1.338 1.338 0 0 0 0 1.885l2.64 2.64c.517.52 1.367.52 1.885 0l.986-.987a14.448 14.448 0 0 0 4.565 1.891v1.395c0 .734.6 1.334 1.333 1.334h3.733c.734 0 1.334-.6 1.334-1.334V32.16z"/><path d="M38.06 32.161V25.39c3.216-1.194 5.524-4.3 5.524-7.92 0-2.89-1.471-5.451-3.703-6.977-2.339-1.598-1.888.93-1.888 1.355v5.07a3.369 3.369 0 0 1-3.133 3.353 3.371 3.371 0 0 1-3.136-3.352v-5.07c0-.427.453-2.954-1.889-1.356-2.232 1.526-3.702 4.087-3.702 6.977 0 3.62 2.308 6.726 5.526 7.92v6.772M37.947 50.858l-2.123 1.514c-3.714 2.475-5.282 1.5-9.192.444l-11.12-2.975c-.667-.18-.628-.2-1.082-.2h-3.346m26.169-6.998 9.333-4.793c1.37-.704 3.044-.402 3.851.907.81 1.31.345 2.96-.907 3.852l-3.724 2.652m-3.925 2.796-.003.003"/></g></g><defs><clipPath id="a"><path fill="#fff" d="M0 0h55v55H0z"/></clipPath></defs></svg>