<svg width="45" height="46" viewBox="0 0 45 46" fill="none" xmlns="http://www.w3.org/2000/svg">
<path fill-rule="evenodd" clip-rule="evenodd" d="M42.6501 42.9375C42.7758 43.1051 42.8666 43.2962 42.9169 43.4996C42.9673 43.7029 42.9763 43.9143 42.9433 44.1212C42.9103 44.3281 42.8361 44.5263 42.725 44.7039C42.6139 44.8815 42.4682 45.0349 42.2966 45.1551C42.125 45.2753 41.931 45.3597 41.7261 45.4034C41.5212 45.4471 41.3096 45.4491 41.1039 45.4094C40.8982 45.3697 40.7026 45.289 40.5287 45.1721C40.3548 45.0552 40.2062 44.9046 40.0917 44.7292L36.7188 39.9125C36.4972 39.5729 36.4163 39.1604 36.4932 38.7622C36.5701 38.364 36.7989 38.0114 37.131 37.7787C37.4632 37.5461 37.8728 37.4517 38.2733 37.5156C38.6738 37.5794 39.0338 37.7965 39.2771 38.1208L42.6501 42.9375Z" fill="black"/>
<path fill-rule="evenodd" clip-rule="evenodd" d="M43.5141 34.0228C43.9431 34.2699 44.2909 34.6366 44.515 35.0781C44.7392 35.5196 44.8299 36.0167 44.7762 36.5089C44.7226 37.0011 44.5268 37.467 44.2127 37.8498C43.8987 38.2326 43.4801 38.5156 43.0078 38.6645L38.7016 40.0228L35.9537 43.6041C35.652 43.9962 35.2428 44.2921 34.776 44.4559C34.3091 44.6197 33.8047 44.6442 33.3242 44.5266C32.8436 44.4089 32.4076 44.1541 32.0693 43.7932C31.7309 43.4323 31.5047 42.9808 31.4183 42.4936L29.3391 30.6811C29.2553 30.2031 29.3096 29.711 29.4955 29.2627C29.6815 28.8144 29.9915 28.4284 30.389 28.15C30.7866 27.8716 31.2553 27.7124 31.7402 27.691C32.2251 27.6695 32.706 27.7868 33.1266 28.0291L43.5141 34.0228ZM32.6308 31.3499L34.2704 40.6666L36.5224 37.7291C36.7186 37.4751 36.9875 37.2868 37.2933 37.1895L40.8224 36.077L32.6308 31.3499Z" fill="black"/>
<path d="M8.33398 9.45898C9.19693 9.45898 9.89648 8.75943 9.89648 7.89648C9.89648 7.03354 9.19693 6.33398 8.33398 6.33398C7.47104 6.33398 6.77148 7.03354 6.77148 7.89648C6.77148 8.75943 7.47104 9.45898 8.33398 9.45898Z" fill="black"/>
<path d="M13.541 9.45898C14.404 9.45898 15.1035 8.75943 15.1035 7.89648C15.1035 7.03354 14.404 6.33398 13.541 6.33398C12.6781 6.33398 11.9785 7.03354 11.9785 7.89648C11.9785 8.75943 12.6781 9.45898 13.541 9.45898Z" fill="black"/>
<path d="M18.75 9.45898C19.6129 9.45898 20.3125 8.75943 20.3125 7.89648C20.3125 7.03354 19.6129 6.33398 18.75 6.33398C17.8871 6.33398 17.1875 7.03354 17.1875 7.89648C17.1875 8.75943 17.8871 9.45898 18.75 9.45898Z" fill="black"/>
<path fill-rule="evenodd" clip-rule="evenodd" d="M44.7917 27.167C44.7917 27.5814 44.6271 27.9788 44.334 28.2718C44.041 28.5649 43.6436 28.7295 43.2292 28.7295C42.8148 28.7295 42.4173 28.5649 42.1243 28.2718C41.8313 27.9788 41.6667 27.5814 41.6667 27.167V7.37533C41.6667 6.40866 41.2833 5.48158 40.5979 4.79825C40.2598 4.45927 39.8582 4.19038 39.4159 4.00698C38.9737 3.82358 38.4996 3.72928 38.0208 3.7295H6.77084C5.8039 3.7295 4.87657 4.11361 4.19284 4.79734C3.50912 5.48106 3.125 6.40839 3.125 7.37533V38.6253C3.125 39.592 3.50834 40.5191 4.19375 41.2024C4.87709 41.8878 5.80417 42.2712 6.77084 42.2712H26.5625C26.9769 42.2712 27.3743 42.4358 27.6674 42.7288C27.9604 43.0218 28.125 43.4193 28.125 43.8337C28.125 44.2481 27.9604 44.6455 27.6674 44.9385C27.3743 45.2315 26.9769 45.3962 26.5625 45.3962H6.77084C5.88145 45.397 5.00063 45.2224 4.17878 44.8824C3.35693 44.5425 2.61019 44.0438 1.9813 43.4149C1.35241 42.786 0.853702 42.0392 0.513727 41.2174C0.173752 40.3955 -0.000819224 39.5147 2.89022e-06 38.6253V7.37533C2.89022e-06 6.48617 0.175136 5.60572 0.515402 4.78424C0.855668 3.96277 1.3544 3.21636 1.98313 2.58763C2.61186 1.9589 3.35828 1.46016 4.17975 1.11989C5.00123 0.779628 5.88168 0.604495 6.77084 0.604495H38.0208C38.9102 0.603673 39.7911 0.778245 40.6129 1.11822C41.4347 1.45819 42.1815 1.9569 42.8104 2.58579C43.4393 3.21469 43.938 3.96142 44.2779 4.78327C44.6179 5.60512 44.7925 6.48594 44.7917 7.37533V27.167Z" fill="black"/>
<path fill-rule="evenodd" clip-rule="evenodd" d="M43.2292 12.0625C43.6436 12.0625 44.041 12.2271 44.334 12.5201C44.627 12.8132 44.7917 13.2106 44.7917 13.625C44.7917 14.0394 44.627 14.4368 44.334 14.7299C44.041 15.0229 43.6436 15.1875 43.2292 15.1875H1.5625C1.1481 15.1875 0.750671 15.0229 0.457646 14.7299C0.16462 14.4368 0 14.0394 0 13.625C0 13.2106 0.16462 12.8132 0.457646 12.5201C0.750671 12.2271 1.1481 12.0625 1.5625 12.0625H43.2292Z" fill="black"/>
</svg>
