<svg width="47" height="46" viewBox="0 0 47 46" fill="none" xmlns="http://www.w3.org/2000/svg">
<path d="M23.3965 0C10.7146 0 0.396484 10.3176 0.396484 23C0.396484 35.6824 10.7146 46 23.3965 46C36.0789 46 46.3965 35.6824 46.3965 23C46.3965 10.3176 36.0784 0 23.3965 0ZM23.3965 42.6424C12.5658 42.6424 3.75412 33.8307 3.75412 23C3.75412 12.1693 12.5658 3.35764 23.3965 3.35764C34.2272 3.35764 43.0389 12.1692 43.0389 22.9995C43.0389 33.8307 34.2272 42.6424 23.3965 42.6424Z" fill="black"/>
<path d="M31.2302 22.9999H23.9553V12.9269C23.9553 11.9996 23.2038 11.248 22.2765 11.248C21.3492 11.248 20.5977 11.9996 20.5977 12.9269V24.6787C20.5977 25.606 21.3492 26.3575 22.2765 26.3575H31.2302C32.1575 26.3575 32.9091 25.606 32.9091 24.6787C32.9091 23.7514 32.1575 22.9999 31.2302 22.9999Z" fill="black"/>
</svg>
