<svg width="36" height="34" viewBox="0 0 36 34" fill="none" xmlns="http://www.w3.org/2000/svg">
<path d="M2.95109 0.864258C1.61175 0.864258 0.503906 1.97151 0.503906 3.31085V17.1823C0.503906 18.5213 1.61146 19.6289 2.95109 19.6289H5.32948V24.7205C5.32944 24.9144 5.38947 25.1037 5.50133 25.2621C5.61319 25.4206 5.77139 25.5405 5.95417 25.6055C6.13696 25.6704 6.33537 25.6771 6.52213 25.6247C6.70889 25.5723 6.87483 25.4633 6.99715 25.3128L10.7583 20.685V24.7205C10.7583 26.0604 11.8667 27.1673 13.2061 27.1673H24.4457L29.0652 32.8516C29.1875 33.0021 29.3534 33.111 29.5402 33.1635C29.7269 33.2159 29.9253 33.2092 30.108 33.1443C30.2908 33.0794 30.449 32.9595 30.5609 32.8011C30.6728 32.6427 30.7329 32.4535 30.7329 32.2595V27.1673H33.1119C34.4506 27.1673 35.5585 26.0601 35.5585 24.7205V10.8499C35.5585 9.51001 34.4506 8.40305 33.1119 8.40305H25.3044V3.31085C25.3044 1.97122 24.1962 0.864258 22.8566 0.864258H2.95109ZM2.95109 2.74216H22.8569C23.1888 2.74216 23.4268 2.97956 23.4268 3.31085V17.1823C23.4268 17.5127 23.1885 17.7509 22.8569 17.7509H11.1702C11.0306 17.751 10.8927 17.7821 10.7666 17.8421C10.6406 17.9021 10.5295 17.9895 10.4415 18.0979L7.20768 22.0763V18.6899C7.20768 18.4409 7.10875 18.202 6.93266 18.026C6.75658 17.8499 6.51775 17.7509 6.26872 17.7509H2.95139C2.62009 17.7509 2.3824 17.5127 2.3824 17.1823V3.31056C2.3824 2.97926 2.6198 2.74187 2.95139 2.74187L2.95109 2.74216ZM25.3044 10.281H33.1119C33.4429 10.281 33.6808 10.5184 33.6808 10.8499V24.7205C33.6808 25.052 33.4429 25.2894 33.1119 25.2894H29.7945C29.5455 25.2894 29.3067 25.3884 29.1306 25.5645C28.9545 25.7405 28.8556 25.9794 28.8556 26.2284V29.6151L25.6215 25.6367C25.5335 25.5283 25.4224 25.4409 25.2963 25.3809C25.1702 25.3209 25.0324 25.2897 24.8928 25.2897H13.2063C12.8742 25.2897 12.6368 25.0523 12.6368 24.7208V19.6289H22.8572C24.1971 19.6289 25.305 18.5216 25.305 17.1823L25.3044 10.281Z" fill="#7B7B7B"/>
<path d="M8.47997 5.57568C8.35666 5.57568 8.23457 5.59997 8.12065 5.64716C8.00673 5.69434 7.90322 5.76351 7.81603 5.8507C7.72884 5.93789 7.65968 6.0414 7.61249 6.15531C7.5653 6.26923 7.54102 6.39133 7.54102 6.51464V14.0703C7.54109 14.3192 7.64005 14.558 7.81613 14.734C7.99221 14.91 8.23099 15.0089 8.47997 15.0089C8.72899 15.0089 8.96782 14.91 9.14391 14.7339C9.32 14.5578 9.41892 14.319 9.41892 14.07V12.0769H12.6108V14.0865C12.6108 14.3355 12.7097 14.5743 12.8858 14.7504C13.0619 14.9265 13.3007 15.0254 13.5497 15.0254C13.7988 15.0254 14.0376 14.9265 14.2137 14.7504C14.3898 14.5743 14.4887 14.3355 14.4887 14.0865V6.51464C14.4887 6.26561 14.3898 6.02678 14.2137 5.8507C14.0376 5.67461 13.7988 5.57568 13.5497 5.57568H8.47997ZM9.41892 7.45359H12.6108V10.199H9.41892V7.45359ZM18.0145 5.57568C17.8912 5.57568 17.7691 5.59997 17.6552 5.64716C17.5412 5.69434 17.4377 5.76351 17.3505 5.8507C17.2633 5.93789 17.1942 6.0414 17.147 6.15531C17.0998 6.26923 17.0755 6.39133 17.0755 6.51464V14.07C17.0755 14.319 17.1744 14.5578 17.3505 14.7339C17.5266 14.91 17.7655 15.0089 18.0145 15.0089C18.1378 15.0089 18.2599 14.9846 18.3738 14.9374C18.4877 14.8903 18.5912 14.8211 18.6784 14.7339C18.7656 14.6467 18.8348 14.5432 18.882 14.4293C18.9291 14.3154 18.9534 14.1933 18.9534 14.07V6.51464C18.9534 6.39133 18.9291 6.26923 18.882 6.15531C18.8348 6.0414 18.7656 5.93789 18.6784 5.8507C18.5912 5.76351 18.4877 5.69434 18.3738 5.64716C18.2599 5.59997 18.1378 5.57568 18.0145 5.57568Z" fill="#7B7B7B"/>
</svg>
