<svg width="40" height="40" viewBox="0 0 40 40" fill="none" xmlns="http://www.w3.org/2000/svg">
<g clip-path="url(#clip0_176_877)">
<path d="M39.4355 17.2441L35.5292 16.8642C35.1222 14.8557 34.3306 12.9449 33.198 11.237L35.6919 8.2057C35.7905 8.08578 35.841 7.93343 35.8335 7.77831C35.826 7.6232 35.761 7.47645 35.6512 7.36664L32.6334 4.34906C32.5236 4.23925 32.3768 4.17425 32.2217 4.16672C32.0666 4.1592 31.9142 4.20969 31.7943 4.30836L28.763 6.80234C27.0551 5.66978 25.1443 4.87814 23.1358 4.47102L22.7558 0.564766C22.7408 0.41018 22.6688 0.266705 22.5538 0.162298C22.4389 0.0578917 22.2891 3.41831e-05 22.1338 0L17.8663 0C17.711 9.11756e-06 17.5612 0.0578253 17.4463 0.162185C17.3313 0.266545 17.2592 0.409974 17.2442 0.564531L16.8642 4.47078C14.8557 4.87777 12.9449 5.66939 11.237 6.80203L8.2057 4.30813C8.08578 4.20946 7.93343 4.15896 7.77831 4.16649C7.6232 4.17401 7.47645 4.23901 7.36664 4.34883L4.34906 7.36664C4.23925 7.47645 4.17425 7.6232 4.16672 7.77831C4.1592 7.93343 4.20969 8.08578 4.30836 8.2057L6.80227 11.237C5.66957 12.9448 4.87794 14.8557 4.47102 16.8642L0.564766 17.2441C0.410153 17.2591 0.266656 17.3311 0.162246 17.4461C0.0578355 17.5611 -4.64493e-06 17.7109 2.79775e-10 17.8663L2.79775e-10 22.1338C9.11784e-06 22.2891 0.0578253 22.4388 0.162185 22.5538C0.266545 22.6688 0.409974 22.7408 0.564531 22.7559L4.47078 23.1358C4.87787 25.1443 5.66949 27.0551 6.80203 28.763L4.30813 31.7943C4.20946 31.9142 4.15896 32.0666 4.16649 32.2217C4.17401 32.3768 4.23901 32.5236 4.34883 32.6334L7.36641 35.6509C7.47621 35.7608 7.62297 35.8258 7.77808 35.8333C7.93319 35.8408 8.08555 35.7903 8.20547 35.6916L11.2367 33.1977C12.9446 34.3304 14.8555 35.122 16.864 35.529L17.244 39.4352C17.259 39.5899 17.331 39.7334 17.446 39.8378C17.5611 39.9422 17.7109 40 17.8663 40H22.1338C22.2891 40 22.4388 39.9421 22.5538 39.8378C22.6687 39.7334 22.7408 39.59 22.7558 39.4355L23.1358 35.5292C25.1443 35.1222 27.0551 34.3306 28.763 33.198L31.7943 35.6919C31.9142 35.7905 32.0666 35.841 32.2217 35.8335C32.3768 35.826 32.5236 35.761 32.6334 35.6512L35.6509 32.6336C35.7608 32.5238 35.8258 32.377 35.8333 32.2219C35.8408 32.0668 35.7903 31.9145 35.6916 31.7945L33.1977 28.7633C34.3304 27.0554 35.122 25.1445 35.529 23.136L39.4352 22.7561C39.5899 22.7411 39.7334 22.6691 39.8378 22.554C39.9422 22.439 40 22.2892 40 22.1338V17.8663C40 17.711 39.9422 17.5612 39.8378 17.4462C39.7335 17.3312 39.59 17.2592 39.4355 17.2441ZM38.75 21.5666L34.9398 21.9375C34.8032 21.9508 34.6748 22.0087 34.5743 22.1022C34.4739 22.1958 34.4071 22.3198 34.3841 22.4552C34.0226 24.6107 33.1754 26.6558 31.9066 28.4356C31.8272 28.5475 31.7868 28.6825 31.7917 28.8196C31.7966 28.9568 31.8465 29.0885 31.9337 29.1945L34.366 32.1509L32.1505 34.3664L29.1941 31.9341C29.0882 31.8469 28.9564 31.797 28.8193 31.7921C28.6822 31.7872 28.5472 31.8276 28.4353 31.907C26.6555 33.1757 24.6104 34.0229 22.4548 34.3845C22.3195 34.4075 22.1955 34.4743 22.1019 34.5747C22.0084 34.6752 21.9505 34.8036 21.9372 34.9402L21.5666 38.75H18.4334L18.0625 34.9398C18.0492 34.8032 17.9913 34.6748 17.8978 34.5743C17.8042 34.4739 17.6802 34.4071 17.5448 34.3841C15.3893 34.0226 13.3442 33.1753 11.5645 31.9066C11.4525 31.8272 11.3176 31.7868 11.1804 31.7917C11.0433 31.7966 10.9115 31.8465 10.8055 31.9337L7.84922 34.366L5.63398 32.1505L8.06633 29.1941C8.15351 29.0881 8.2034 28.9564 8.2083 28.8193C8.2132 28.6821 8.17283 28.5472 8.09344 28.4353C6.82475 26.6555 5.97752 24.6104 5.61586 22.4548C5.59287 22.3196 5.526 22.1956 5.42557 22.1021C5.32514 22.0086 5.19673 21.9508 5.06016 21.9375L1.25 21.5666V18.4334L5.06016 18.0629C5.19678 18.0496 5.32523 17.9917 5.42567 17.8981C5.52611 17.8045 5.59295 17.6805 5.61586 17.5452C5.97753 15.3896 6.82488 13.3445 8.09375 11.5648C8.17318 11.4529 8.21356 11.3179 8.20868 11.1808C8.20379 11.0436 8.15391 10.9119 8.06672 10.8059L5.63398 7.84953L7.84953 5.63398L10.8059 8.06633C10.9118 8.15352 11.0436 8.2034 11.1807 8.20829C11.3178 8.21317 11.4528 8.17279 11.5647 8.09336C13.3445 6.82472 15.3896 5.97752 17.5452 5.61586C17.6804 5.59287 17.8044 5.526 17.8979 5.42557C17.9914 5.32514 18.0492 5.19673 18.0625 5.06016L18.4334 1.25H21.5666L21.9375 5.06016C21.9508 5.19677 22.0087 5.32521 22.1022 5.42565C22.1958 5.52609 22.3198 5.59293 22.4552 5.61586C24.6107 5.97759 26.6558 6.82478 28.4356 8.09336C28.5475 8.17279 28.6825 8.21317 28.8196 8.20829C28.9568 8.2034 29.0885 8.15352 29.1945 8.06633L32.1508 5.63398L34.3663 7.84953L31.934 10.8059C31.8468 10.9119 31.7969 11.0436 31.792 11.1808C31.7871 11.3179 31.8275 11.4529 31.907 11.5648C33.1696 13.3479 34.0162 15.3916 34.3845 17.5452C34.4074 17.6806 34.4742 17.8046 34.5747 17.8981C34.6751 17.9917 34.8035 18.0496 34.9402 18.0629L38.75 18.4334V21.5666ZM20 9.33953C14.1218 9.33953 9.33953 14.1218 9.33953 20C9.33953 25.8782 14.1218 30.6605 20 30.6605C25.8782 30.6605 30.6605 25.8782 30.6605 20C30.6605 14.1218 25.8782 9.33953 20 9.33953ZM13.8933 27.1538C13.8933 27.1472 13.8933 27.1406 13.8927 27.134C13.8196 26.1649 14.0427 25.1965 14.5326 24.3572C15.6915 23.9537 16.8069 23.4347 17.8619 22.8079L19.4588 25.5735C19.5136 25.6685 19.5925 25.7474 19.6875 25.8023C19.7825 25.8571 19.8903 25.886 20 25.886C20.1097 25.886 20.2175 25.8571 20.3125 25.8023C20.4075 25.7474 20.4864 25.6685 20.5413 25.5735L22.1381 22.8079C23.1932 23.4347 24.3086 23.9538 25.4676 24.3572C25.9622 25.2022 26.1849 26.1789 26.1055 27.1548C24.4041 28.6108 22.2385 29.4108 19.9992 29.4106C17.7599 29.4104 15.5944 28.61 13.8933 27.1538ZM27.3106 25.9183C27.1876 25.0546 26.8784 24.228 26.4044 23.4957C26.3262 23.3751 26.2088 23.2851 26.072 23.2409C24.8343 22.8409 23.5473 22.2259 22.2471 21.4127C22.176 21.3682 22.0966 21.3385 22.0137 21.3254C21.9308 21.3123 21.8461 21.3159 21.7647 21.3362C21.6832 21.3565 21.6067 21.393 21.5397 21.4435C21.4727 21.494 21.4165 21.5575 21.3745 21.6302L20 24.0113L18.625 21.6302C18.583 21.5576 18.5269 21.4941 18.4598 21.4436C18.3928 21.3931 18.3163 21.3566 18.2349 21.3363C18.1534 21.316 18.0687 21.3123 17.9859 21.3255C17.903 21.3386 17.8236 21.3683 17.7524 21.4128C16.4522 22.2259 15.1652 22.8409 13.9275 23.2409C13.7907 23.2851 13.6733 23.3751 13.5952 23.4958C13.1221 24.2292 12.8136 25.0563 12.6907 25.9203C11.5709 24.5395 10.8651 22.8697 10.6551 21.1043C10.4452 19.3389 10.7396 17.5501 11.5043 15.9452C12.269 14.3402 13.4727 12.9847 14.976 12.0356C16.4793 11.0865 18.2207 10.5826 19.9985 10.5824C21.7763 10.5822 23.5179 11.0855 25.0214 12.0342C26.525 12.9829 27.729 14.3381 28.4941 15.9429C29.2593 17.5477 29.5542 19.3363 29.3447 21.1018C29.1352 22.8672 28.4298 24.5372 27.3104 25.9184L27.3106 25.9183ZM20.0018 11.9035H19.9982C19.0379 11.9027 18.1152 12.2768 17.4266 12.9462C16.7381 13.6157 16.3381 14.5275 16.3119 15.4874V15.5199C16.3431 17.0138 16.732 18.3195 17.4363 19.2955C18.1178 20.24 19.0623 20.7943 20.0275 20.8163C20.048 20.8168 20.0684 20.817 20.0889 20.817C21.0147 20.817 21.8702 20.3377 22.5037 19.462C23.1781 18.5296 23.5763 17.2129 23.6872 15.5484C23.6886 15.528 23.6889 15.5077 23.6883 15.4874C23.6621 14.5274 23.262 13.6156 22.5735 12.9462C21.8849 12.2768 20.9621 11.9026 20.0018 11.9035ZM20.0856 19.567H20.0559C18.8737 19.5401 17.6198 18.0159 17.5618 15.511C17.5834 14.88 17.8488 14.2819 18.3022 13.8425C18.7557 13.4031 19.3618 13.1566 19.9932 13.1549C20.6246 13.1531 21.2321 13.3962 21.6879 13.8331C22.1438 14.2699 22.4125 14.8665 22.4377 15.4974C22.2295 18.5044 21.0492 19.567 20.0859 19.567H20.0856Z" fill="#7B7B7B" stroke="#7B7B7B" stroke-width="0.5"/>
</g>
<defs>
<clipPath id="clip0_176_877">
<rect width="40" height="40" fill="white"/>
</clipPath>
</defs>
</svg>
