<svg width="48" height="50" viewBox="0 0 48 50" fill="none" xmlns="http://www.w3.org/2000/svg">
<g clip-path="url(#clip0_176_916)">
<mask id="mask0_176_916" style="mask-type:luminance" maskUnits="userSpaceOnUse" x="0" y="0" width="48" height="50">
<path d="M0.470703 0.000144958H47.5294V50H0.470703V0.000144958Z" fill="white"/>
</mask>
<g mask="url(#mask0_176_916)">
<path d="M23.9999 38.437C30.9653 38.437 36.6463 32.4009 36.6463 25.0002C36.6463 17.5996 30.9653 11.5635 23.9999 11.5635C17.0345 11.5635 11.3535 17.5996 11.3535 25.0002C11.3535 32.4009 17.0345 38.437 23.9999 38.437Z" stroke="#2166F3" stroke-width="2" stroke-miterlimit="22.926" stroke-linecap="round" stroke-linejoin="round"/>
<path d="M27.8606 6.6014C29.8671 7.07504 31.7803 7.91781 33.5137 9.09162L36.9335 5.45804L42.3928 11.2585L38.9735 14.8916C40.0613 16.7064 40.8653 18.7321 41.3179 20.8984H46.1509V29.1016H41.3179C40.872 31.2338 40.0786 33.2668 38.9735 35.1085L42.3928 38.7416L36.9335 44.5421L33.5137 40.9085C31.8056 42.0639 29.8992 42.918 27.8606 43.3987V48.5352H20.14V43.3987C18.1012 42.918 16.195 42.0639 14.4869 40.9085L11.067 44.5421L5.60778 38.7416L9.02707 35.1085C7.92197 33.2668 7.12856 31.2338 6.68268 29.1016H1.84961V20.8984H6.68268C7.13525 18.7321 7.9393 16.7064 9.02707 14.8916L5.60778 11.2585L11.067 5.45804L14.4869 9.09162C16.2202 7.91779 18.1334 7.07502 20.14 6.6014V1.46499H27.8606V6.6014Z" stroke="#2166F3" stroke-width="2" stroke-miterlimit="22.926" stroke-linecap="round" stroke-linejoin="round"/>
<path d="M18.8655 37.2153L18.8633 33.5373C18.8627 32.4585 19.6914 31.5785 20.7068 31.5785C22.8771 31.5785 25.093 31.5814 27.2633 31.5814C28.2788 31.5814 29.1365 32.4616 29.1359 33.5401L29.1337 37.2153" stroke="#2166F3" stroke-width="2" stroke-miterlimit="22.926" stroke-linecap="round" stroke-linejoin="round"/>
<path d="M23.999 27.5923C25.8606 27.5923 27.3788 25.9791 27.3788 24.0013C27.3788 22.0234 25.8606 20.4102 23.999 20.4102C22.1374 20.4102 20.6191 22.0234 20.6191 24.0013C20.6191 25.9791 22.1374 27.5923 23.999 27.5923Z" stroke="#2166F3" stroke-width="2" stroke-miterlimit="22.926" stroke-linecap="round" stroke-linejoin="round"/>
</g>
</g>
<defs>
<clipPath id="clip0_176_916">
<rect width="47.0588" height="50" fill="white" transform="translate(0.470703)"/>
</clipPath>
</defs>
</svg>
