<svg width="50" height="50" fill="none" xmlns="http://www.w3.org/2000/svg"><path d="M47.448 5.797H36.964C34.166 2.267 29.843 0 25 0c-4.844 0-9.167 2.268-11.965 5.797H2.55A2.2 2.2 0 0 0 .354 7.994v29.51a2.689 2.689 0 0 0 2.685 2.686H18.66v4.292H7.638c-.673 0-1.22.548-1.22 1.22v3.077c0 .673.547 1.221 1.22 1.221h34.723c.673 0 1.22-.548 1.22-1.22v-3.077c0-.673-.547-1.221-1.22-1.221h-3.787a.732.732 0 0 0 0 1.465h3.542v2.588H7.883v-2.588h27.273a.732.732 0 1 0 0-1.465h-3.817V40.19H46.96a2.689 2.689 0 0 0 2.685-2.685V7.995a2.2 2.2 0 0 0-2.197-2.198zM37.358 9.13a13.698 13.698 0 0 1 1.42 5.4h-5.846a27.9 27.9 0 0 0-.645-5.4h5.071zM30.37 22.86c-1.043 3.292-2.729 5.626-4.637 6.108v-6.108h4.637zm-4.637-1.465v-5.4h5.734c-.05 1.92-.294 3.75-.69 5.4h-5.044zm5.02 4.468c.454-.913.84-1.922 1.158-3.003h4.602a13.858 13.858 0 0 1-7.462 5.594c.622-.699 1.194-1.566 1.703-2.59zm1.535-4.468c.378-1.69.6-3.513.645-5.4h5.847a13.698 13.698 0 0 1-1.421 5.4h-5.071zm4.225-13.73H31.91a18.537 18.537 0 0 0-1.157-3.003c-.509-1.025-1.081-1.892-1.703-2.591a13.859 13.859 0 0 1 7.462 5.594zm-10.78-6.108c1.908.482 3.594 2.816 4.637 6.108h-4.637V1.558zM25 10.693a.732.732 0 0 0 .732-.732v-.83h5.043c.397 1.65.641 3.48.69 5.4h-5.733v-1.054a.732.732 0 1 0-1.465 0v1.054h-5.734a26.2 26.2 0 0 1 .69-5.4h5.044v.83a.733.733 0 0 0 .733.732zm-6.911 12.168c.317 1.08.704 2.09 1.157 3.003.509 1.025 1.081 1.892 1.703 2.591a13.859 13.859 0 0 1-7.462-5.594h4.602zm-5.448-1.465a13.7 13.7 0 0 1-1.42-5.4h5.847c.045 1.887.266 3.71.644 5.4h-5.071zm6.989 1.465h4.637v6.108c-1.908-.482-3.594-2.816-4.637-6.108zm-.406-1.465c-.397-1.65-.641-3.48-.69-5.4h5.733v5.4h-5.043zm5.043-19.838v6.108H19.63c1.043-3.292 2.729-5.626 4.637-6.108zm-3.318.514c-.622.699-1.194 1.566-1.703 2.591-.453.913-.84 1.923-1.157 3.003h-4.602a13.858 13.858 0 0 1 7.462-5.594zm-3.237 7.059c-.378 1.69-.6 3.513-.644 5.4H11.22a13.698 13.698 0 0 1 1.421-5.4h5.071zm12.162 35.351h-9.749V40.19h9.749v4.292zM48.18 33.18H14.94a.733.733 0 0 0 0 1.465h33.24v2.86c0 .673-.548 1.22-1.221 1.22H3.04c-.674 0-1.222-.547-1.222-1.22v-2.86h9.705a.732.732 0 1 0 0-1.465H1.818V7.994c0-.404.329-.732.733-.732h9.456a15.172 15.172 0 0 0-2.271 8.002c0 8.416 6.847 15.263 15.264 15.263 8.416 0 15.263-6.847 15.263-15.263a15.17 15.17 0 0 0-2.27-8.002h9.455c.404 0 .733.328.733.732V33.18z" fill="#111"/><path d="M9.582 29.2H4.895a.733.733 0 0 0 0 1.464h4.687a.732.732 0 0 0 0-1.465zm-4.687-1.075h1.757a.733.733 0 0 0 0-1.465H4.895a.732.732 0 1 0 0 1.465zm40.234 1.074h-1.953a.732.732 0 1 0 0 1.465h1.953a.732.732 0 0 0 0-1.465zm0-2.539h-1.953a.732.732 0 1 0 0 1.465h1.953a.732.732 0 1 0 0-1.465zm0-2.539h-1.953a.732.732 0 1 0 0 1.465h1.953a.732.732 0 1 0 0-1.465z" fill="#111"/></svg>