<svg width="55" height="55" fill="none" xmlns="http://www.w3.org/2000/svg"><g clip-path="url(#a)"><mask id="b" style="mask-type:luminance" maskUnits="userSpaceOnUse" x="0" y="0" width="55" height="55"><path d="M54.5 54.5V.5H.5v54h54z" fill="#fff" stroke="#fff"/></mask><g mask="url(#b)" stroke="#2166F3" stroke-width="2" stroke-miterlimit="10" stroke-linecap="round" stroke-linejoin="round"><path d="M46.258 3.976a2.901 2.901 0 0 0-2.901-2.902H4.452a2.901 2.901 0 0 0-2.901 2.902v4.57h44.707v-4.57zM29.452 43.286h11.512l-.903-7.368a.346.346 0 0 1 .517-.34l5.68 3.326V8.546H1.55v31.84a2.9 2.9 0 0 0 2.9 2.9h15.59"/><path d="m40.061 35.919 1.663 13.56a.346.346 0 0 0 .613.175l1.913-2.39a.346.346 0 0 1 .559.026l4.259 6.48a.346.346 0 0 0 .478.099l1.874-1.231 1.874-1.232a.346.346 0 0 0 .099-.479l-4.259-6.48a.347.347 0 0 1 .198-.523l2.953-.809a.346.346 0 0 0 .083-.631l-11.789-6.906a.346.346 0 0 0-.518.34zM17.152 22.33H9.943v-7.18h7.209v7.18zM23.82 15.15h14.065M23.82 21.936h14.065M9.943 28.722h27.942M9.943 35.508h23.21"/></g><circle cx="6" cy="5" r="1" fill="#2166F3"/><circle cx="10" cy="5" r="1" fill="#2166F3"/><circle cx="14" cy="5" r="1" fill="#2166F3"/></g><defs><clipPath id="a"><path fill="#fff" d="M0 0h55v55H0z"/></clipPath></defs></svg>