<svg width="48" height="50" viewBox="0 0 48 50" fill="none" xmlns="http://www.w3.org/2000/svg">
<g clip-path="url(#clip0_176_940)">
<path fill-rule="evenodd" clip-rule="evenodd" d="M14.1964 5.729C11.9862 5.729 9.86663 6.66185 8.30383 8.32233C6.74103 9.98281 5.86305 12.2349 5.86305 14.5832V35.4165C5.86305 37.7648 6.74103 40.0169 8.30383 41.6773C9.86663 43.3378 11.9862 44.2707 14.1964 44.2707H33.8042C36.0144 44.2707 38.134 43.3378 39.6968 41.6773C41.2596 40.0169 42.1376 37.7648 42.1376 35.4165V18.7498C42.1376 18.3354 42.2925 17.938 42.5683 17.645C42.8441 17.352 43.2181 17.1873 43.6082 17.1873C43.9982 17.1873 44.3722 17.352 44.648 17.645C44.9238 17.938 45.0787 18.3354 45.0787 18.7498V35.4165C45.0787 38.5936 43.8909 41.6405 41.7765 43.8871C39.6621 46.1336 36.7944 47.3957 33.8042 47.3957H14.1964C11.2062 47.3957 8.33848 46.1336 6.2241 43.8871C4.10972 41.6405 2.92188 38.5936 2.92188 35.4165V14.5832C2.92188 11.4061 4.10972 8.35915 6.2241 6.11262C8.33848 3.86609 11.2062 2.604 14.1964 2.604H31.8434C32.2335 2.604 32.6075 2.76862 32.8833 3.06165C33.1591 3.35468 33.314 3.7521 33.314 4.1665C33.314 4.5809 33.1591 4.97833 32.8833 5.27136C32.6075 5.56438 32.2335 5.729 31.8434 5.729H14.1964Z" fill="#2166F3"/>
<path fill-rule="evenodd" clip-rule="evenodd" d="M41.6475 5.729C42.2975 5.729 42.9209 6.00337 43.3806 6.49175C43.8402 6.98012 44.0984 7.6425 44.0984 8.33317C44.0984 9.02384 43.8402 9.68622 43.3806 10.1746C42.9209 10.663 42.2975 10.9373 41.6475 10.9373C40.9974 10.9373 40.374 10.663 39.9143 10.1746C39.4547 9.68622 39.1965 9.02384 39.1965 8.33317C39.1965 7.6425 39.4547 6.98012 39.9143 6.49175C40.374 6.00337 40.9974 5.729 41.6475 5.729ZM47.0396 8.33317C47.0396 6.8137 46.4715 5.35647 45.4603 4.28204C44.4491 3.20761 43.0775 2.604 41.6475 2.604C40.2174 2.604 38.8459 3.20761 37.8346 4.28204C36.8234 5.35647 36.2553 6.8137 36.2553 8.33317C36.2553 9.85264 36.8234 11.3099 37.8346 12.3843C38.8459 13.4587 40.2174 14.0623 41.6475 14.0623C43.0775 14.0623 44.4491 13.4587 45.4603 12.3843C46.4715 11.3099 47.0396 9.85264 47.0396 8.33317ZM13.2278 31.904C12.9347 31.631 12.7555 31.2454 12.7298 30.8321C12.704 30.4188 12.8338 30.0115 13.0906 29.6998L19.9533 21.3665C20.2062 21.06 20.5617 20.8705 20.9442 20.8386C21.3266 20.8067 21.7056 20.9348 22.0004 21.1957L26.7808 25.4269L32.6984 18.2415C32.8239 18.0812 32.9784 17.9491 33.1527 17.8532C33.327 17.7573 33.5176 17.6994 33.7133 17.683C33.9089 17.6665 34.1057 17.6919 34.292 17.7575C34.4783 17.8232 34.6504 17.9278 34.798 18.0652C34.9457 18.2026 35.066 18.3701 35.1518 18.5576C35.2376 18.7452 35.2872 18.9491 35.2976 19.1574C35.3081 19.3657 35.2792 19.574 35.2126 19.7702C35.1461 19.9664 35.0433 20.1465 34.9102 20.2998L28.0475 28.6332C27.7946 28.9397 27.4391 29.1291 27.0566 29.161C26.6742 29.193 26.2952 29.0648 26.0004 28.804L21.22 24.5728L15.3024 31.7582C15.0454 32.0697 14.6825 32.26 14.2935 32.2874C13.9045 32.3147 13.5212 32.1768 13.2278 31.904Z" fill="#2166F3"/>
</g>
<defs>
<clipPath id="clip0_176_940">
<rect width="47.0588" height="50" fill="white" transform="translate(0.470703)"/>
</clipPath>
</defs>
</svg>
