<svg width="48" height="50" viewBox="0 0 48 50" fill="none" xmlns="http://www.w3.org/2000/svg">
<g clip-path="url(#clip0_176_981)">
<path d="M22.4318 46.6667H25.5691C25.7771 46.6667 25.9766 46.5789 26.1237 46.4226C26.2708 46.2663 26.3534 46.0544 26.3534 45.8333C26.3534 45.6123 26.2708 45.4004 26.1237 45.2441C25.9766 45.0878 25.7771 45 25.5691 45H22.4318C22.2238 45 22.0243 45.0878 21.8772 45.2441C21.7302 45.4004 21.6475 45.6123 21.6475 45.8333C21.6475 46.0544 21.7302 46.2663 21.8772 46.4226C22.0243 46.5789 22.2238 46.6667 22.4318 46.6667ZM10.6671 12.5C10.8751 12.5 11.0746 12.4122 11.2217 12.2559C11.3688 12.0996 11.4514 11.8877 11.4514 11.6667V6.66667H36.5495V13.3333C36.5495 13.5543 36.6321 13.7663 36.7792 13.9226C36.9263 14.0789 37.1258 14.1667 37.3338 14.1667C37.5418 14.1667 37.7413 14.0789 37.8884 13.9226C38.0355 13.7663 38.1181 13.5543 38.1181 13.3333V3.33333C38.1181 1.83333 36.3079 0 34.1965 0H13.8044C11.6397 0.00270833 9.88536 1.86667 9.88281 4.16667V11.6667C9.88281 11.8877 9.96545 12.0996 10.1125 12.2559C10.2596 12.4122 10.4591 12.5 10.6671 12.5ZM11.4514 4.16667C11.4514 2.78594 12.5049 1.66667 13.8044 1.66667H34.1965C35.5558 1.66667 36.5495 2.83333 36.5495 3.33333V5H11.4514V4.16667Z" fill="#2166F3"/>
<path d="M37.3338 36.6667C37.1258 36.6667 36.9263 36.7545 36.7792 36.9107C36.6321 37.067 36.5495 37.279 36.5495 37.5V41.6667H11.4514V38.3333C11.4514 38.1123 11.3688 37.9004 11.2217 37.7441C11.0746 37.5878 10.8751 37.5 10.6671 37.5C10.4591 37.5 10.2596 37.5878 10.1125 37.7441C9.96545 37.9004 9.88281 38.1123 9.88281 38.3333V45.8333C9.88536 48.1333 11.6397 49.9973 13.8044 50H34.1965C36.3612 49.9973 38.1156 48.1333 38.1181 45.8333V37.5C38.1181 37.279 38.0355 37.067 37.8884 36.9107C37.7413 36.7545 37.5418 36.6667 37.3338 36.6667ZM36.5495 45.8333C36.5495 47.2141 35.4961 48.3333 34.1965 48.3333H13.8044C12.5049 48.3333 11.4514 47.2141 11.4514 45.8333V43.3333H36.5495V45.8333ZM22.4318 2.5H20.8632C20.6552 2.5 20.4557 2.5878 20.3086 2.74408C20.1615 2.90036 20.0789 3.11232 20.0789 3.33333C20.0789 3.55435 20.1615 3.76631 20.3086 3.92259C20.4557 4.07887 20.6552 4.16667 20.8632 4.16667H22.4318C22.6398 4.16667 22.8393 4.07887 22.9864 3.92259C23.1335 3.76631 23.2161 3.55435 23.2161 3.33333C23.2161 3.11232 23.1335 2.90036 22.9864 2.74408C22.8393 2.5878 22.6398 2.5 22.4318 2.5ZM27.1377 2.5H25.5691C25.3611 2.5 25.1616 2.5878 25.0145 2.74408C24.8674 2.90036 24.7848 3.11232 24.7848 3.33333C24.7848 3.55435 24.8674 3.76631 25.0145 3.92259C25.1616 4.07887 25.3611 4.16667 25.5691 4.16667H27.1377C27.3457 4.16667 27.5452 4.07887 27.6923 3.92259C27.8394 3.76631 27.922 3.55435 27.922 3.33333C27.922 3.11232 27.8394 2.90036 27.6923 2.74408C27.5452 2.5878 27.3457 2.5 27.1377 2.5Z" fill="#2166F3"/>
<path d="M47.3491 16.1343C47.2755 16.0401 47.1832 15.9643 47.0788 15.9123C46.9744 15.8603 46.8605 15.8334 46.7452 15.8335H26.1585L25.7585 12.9677C25.582 11.745 24.5949 10.8401 23.4307 10.8335H20.0785V12.5002H23.4307C23.619 12.5 23.801 12.5718 23.9436 12.7025C24.0861 12.8332 24.1797 13.0139 24.2072 13.2118L26.9476 32.866C27.1241 34.0887 28.1112 34.9936 29.2754 35.0002H31.2032C31.6282 36.2962 32.9616 36.9808 34.1813 36.5293C34.5141 36.4061 34.8164 36.2046 35.0657 35.9398C35.3149 35.675 35.5045 35.3538 35.6205 35.0002H39.0464C39.4795 36.3019 40.8239 36.9841 42.049 36.5238C43.2741 36.0635 43.9163 34.6352 43.4831 33.3335C43.0499 32.0317 41.7055 31.3495 40.4804 31.8098C40.1496 31.9341 39.8491 32.1354 39.601 32.3991C39.3528 32.6627 39.1633 32.982 39.0464 33.3335H35.6205C35.1955 32.0375 33.8622 31.3529 32.6425 31.8043C32.3096 31.9275 32.0073 32.1291 31.7581 32.3939C31.5089 32.6587 31.3192 32.9799 31.2032 33.3335H29.2754C29.0874 33.3324 28.906 33.2602 28.7637 33.1298C28.6214 32.9993 28.5275 32.8192 28.4989 32.6218L28.2495 30.8335H44.3923C44.575 30.8334 44.752 30.7654 44.8926 30.6414C45.0332 30.5174 45.1287 30.3451 45.1625 30.1543L47.5154 16.821C47.5369 16.7006 47.5331 16.5766 47.5044 16.4579C47.4757 16.3393 47.4226 16.2288 47.3491 16.1343ZM41.255 33.3335C41.463 33.3335 41.6625 33.4213 41.8096 33.5776C41.9567 33.7339 42.0393 33.9458 42.0393 34.1668C42.0393 34.3878 41.9567 34.5998 41.8096 34.7561C41.6625 34.9124 41.463 35.0002 41.255 35.0002C41.047 35.0002 40.8475 34.9124 40.7004 34.7561C40.5533 34.5998 40.4707 34.3878 40.4707 34.1668C40.4707 33.9458 40.5533 33.7339 40.7004 33.5776C40.8475 33.4213 41.047 33.3335 41.255 33.3335ZM33.4119 33.3335C33.6199 33.3335 33.8194 33.4213 33.9665 33.5776C34.1136 33.7339 34.1962 33.9458 34.1962 34.1668C34.1962 34.3878 34.1136 34.5998 33.9665 34.7561C33.8194 34.9124 33.6199 35.0002 33.4119 35.0002C33.2039 35.0002 33.0044 34.9124 32.8573 34.7561C32.7102 34.5998 32.6276 34.3878 32.6276 34.1668C32.6276 33.9458 32.7102 33.7339 32.8573 33.5776C33.0044 33.4213 33.2039 33.3335 33.4119 33.3335ZM43.7413 29.1668H28.0174L26.3915 17.5002H45.804L43.7413 29.1668ZM20.8629 25.0002C20.8629 19.017 16.298 14.1668 10.6668 14.1668C5.0356 14.1668 0.470703 19.017 0.470703 25.0002C0.470703 30.9833 5.0356 35.8335 10.6668 35.8335C16.2952 35.8266 20.8564 30.9804 20.8629 25.0002ZM2.03933 25.0002C2.03933 19.9376 5.90198 15.8335 10.6668 15.8335C15.4316 15.8335 19.2942 19.9376 19.2942 25.0002C19.2942 30.0628 15.4316 34.1668 10.6668 34.1668C5.90433 34.1609 2.04492 30.0603 2.03933 25.0002Z" fill="#2166F3"/>
<path d="M11.4509 31.6667V30.715C13.1255 30.2571 14.1336 28.4434 13.7026 26.6642C13.3462 25.1927 12.0967 24.1648 10.6666 24.1667C9.80018 24.1667 9.09792 23.4205 9.09792 22.5C9.09792 21.5795 9.80018 20.8333 10.6666 20.8333C11.5329 20.8333 12.2352 21.5795 12.2352 22.5C12.2352 22.721 12.3178 22.933 12.4649 23.0893C12.612 23.2455 12.8115 23.3333 13.0195 23.3333C13.2275 23.3333 13.427 23.2455 13.5741 23.0893C13.7212 22.933 13.8038 22.721 13.8038 22.5C13.7984 20.9847 12.8318 19.6639 11.4509 19.285V18.3333C11.4509 18.1123 11.3682 17.9004 11.2211 17.7441C11.0741 17.5878 10.8746 17.5 10.6666 17.5C10.4585 17.5 10.259 17.5878 10.112 17.7441C9.96487 17.9004 9.88224 18.1123 9.88224 18.3333V19.285C8.20763 19.7429 7.19949 21.5566 7.63047 23.3358C7.98694 24.8073 9.23645 25.8352 10.6666 25.8333C11.5329 25.8333 12.2352 26.5795 12.2352 27.5C12.2352 28.4205 11.5329 29.1667 10.6666 29.1667C9.80018 29.1667 9.09792 28.4205 9.09792 27.5C9.09792 27.279 9.01529 27.067 8.8682 26.9107C8.72112 26.7545 8.52162 26.6667 8.31361 26.6667C8.1056 26.6667 7.9061 26.7545 7.75902 26.9107C7.61193 27.067 7.5293 27.279 7.5293 27.5C7.53469 29.0153 8.50126 30.3361 9.88224 30.715V31.6667C9.88224 31.8877 9.96487 32.0996 10.112 32.2559C10.259 32.4122 10.4585 32.5 10.6666 32.5C10.8746 32.5 11.0741 32.4122 11.2211 32.2559C11.3682 32.0996 11.4509 31.8877 11.4509 31.6667ZM28.7058 20H39.6862C39.8942 20 40.0937 19.9122 40.2408 19.7559C40.3878 19.5996 40.4705 19.3877 40.4705 19.1667C40.4705 18.9457 40.3878 18.7337 40.2408 18.5774C40.0937 18.4211 39.8942 18.3333 39.6862 18.3333H28.7058C28.4978 18.3333 28.2983 18.4211 28.1512 18.5774C28.0041 18.7337 27.9215 18.9457 27.9215 19.1667C27.9215 19.3877 28.0041 19.5996 28.1512 19.7559C28.2983 19.9122 28.4978 20 28.7058 20ZM42.0391 20H43.6077C43.8157 20 44.0152 19.9122 44.1623 19.7559C44.3094 19.5996 44.392 19.3877 44.392 19.1667C44.392 18.9457 44.3094 18.7337 44.1623 18.5774C44.0152 18.4211 43.8157 18.3333 43.6077 18.3333H42.0391C41.8311 18.3333 41.6316 18.4211 41.4845 18.5774C41.3374 18.7337 41.2548 18.9457 41.2548 19.1667C41.2548 19.3877 41.3374 19.5996 41.4845 19.7559C41.6316 19.9122 41.8311 20 42.0391 20Z" fill="#2166F3"/>
</g>
<defs>
<clipPath id="clip0_176_981">
<rect width="47.0588" height="50" fill="white" transform="translate(0.470703)"/>
</clipPath>
</defs>
</svg>
