<svg width="50" height="50" viewBox="0 0 50 50" fill="none" xmlns="http://www.w3.org/2000/svg">
<g clip-path="url(#clip0_216_148)">
<path d="M25 0C11.1925 0 0 11.1925 0 25C0 38.8075 11.1925 50 25 50C38.8075 50 50 38.8075 50 25C49.9842 11.2 38.8 0.0158333 25 0ZM25 48.3333C12.1133 48.3333 1.66667 37.8867 1.66667 25C1.66667 12.1133 12.1133 1.66667 25 1.66667C37.8867 1.66667 48.3333 12.1133 48.3333 25C48.3183 37.8808 37.8808 48.3183 25 48.3333Z" fill="#2166F3" stroke="#2166F3" stroke-width="0.5"/>
<path d="M25.0007 3.33301C13.034 3.33301 3.33398 13.033 3.33398 24.9997C3.33398 36.9663 13.034 46.6663 25.0007 46.6663C36.9673 46.6663 46.6673 36.9663 46.6673 24.9997C46.6532 13.0388 36.9615 3.34717 25.0007 3.33301ZM25.0007 44.9997C13.9548 44.9997 5.00065 36.0455 5.00065 24.9997C5.00065 13.9538 13.9548 4.99967 25.0007 4.99967C36.0465 4.99967 45.0007 13.9538 45.0007 24.9997C44.9882 36.0397 36.0407 44.9872 25.0007 44.9997Z" fill="#2166F3" stroke="#2166F3" stroke-width="0.5"/>
<path d="M24.9991 17.5C26.3252 17.5 27.597 16.9732 28.5347 16.0355C29.4723 15.0979 29.9991 13.8261 29.9991 12.5C29.9991 11.1739 29.4723 9.90215 28.5347 8.96447C27.597 8.02678 26.3252 7.5 24.9991 7.5C23.673 7.5 22.4013 8.02678 21.4636 8.96447C20.5259 9.90215 19.9991 11.1739 19.9991 12.5C19.9991 13.8261 20.5259 15.0979 21.4636 16.0355C22.4013 16.9732 23.673 17.5 24.9991 17.5ZM24.9991 9.16667C25.8832 9.16667 26.731 9.51786 27.3561 10.143C27.9813 10.7681 28.3325 11.6159 28.3325 12.5C28.3325 13.3841 27.9813 14.2319 27.3561 14.857C26.731 15.4821 25.8832 15.8333 24.9991 15.8333C24.1151 15.8333 23.2672 15.4821 22.6421 14.857C22.017 14.2319 21.6658 13.3841 21.6658 12.5C21.6658 11.6159 22.017 10.7681 22.6421 10.143C23.2672 9.51786 24.1151 9.16667 24.9991 9.16667ZM36.605 18.34H36.5916L27.8416 19.1258C27.5433 19.1533 27.245 19.1667 26.9458 19.1667H23.0525C22.7541 19.1667 22.4558 19.1533 22.1583 19.1267L13.3933 18.34C12.7322 18.2881 12.0776 18.5009 11.5735 18.9316C11.0693 19.3623 10.7569 19.9756 10.705 20.6367C10.653 21.2977 10.8658 21.9523 11.2965 22.4565C11.7272 22.9606 12.3406 23.2731 13.0016 23.325L20.0741 23.9667C20.2812 23.9854 20.4738 24.0808 20.6141 24.2342C20.7544 24.3876 20.8323 24.5879 20.8325 24.7958V26.7125C20.8325 27.1292 20.755 27.5425 20.6025 27.93L16.5925 38.1425C16.4595 38.4428 16.3871 38.7663 16.3792 39.0946C16.3713 39.4229 16.4282 39.7495 16.5466 40.0558C16.6649 40.3622 16.8424 40.6422 17.069 40.8799C17.2956 41.1176 17.5667 41.3083 17.867 41.4412C18.1673 41.5742 18.4909 41.6466 18.8191 41.6545C19.1474 41.6624 19.4741 41.6055 19.7804 41.4872C20.0867 41.3688 20.3667 41.1913 20.6044 40.9647C20.8421 40.7381 21.0329 40.467 21.1658 40.1667L24.9875 30.8225L28.845 40.1917C29.1215 40.7836 29.6188 41.2437 30.2304 41.4736C30.842 41.7034 31.5193 41.6847 32.1173 41.4215C32.7152 41.1582 33.1864 40.6713 33.4299 40.065C33.6733 39.4587 33.6698 38.7812 33.42 38.1775L29.3958 27.9275C29.2439 27.5401 29.1659 27.1277 29.1658 26.7117V24.795C29.166 24.5871 29.2439 24.3868 29.3842 24.2334C29.5245 24.08 29.7171 23.9845 29.9241 23.9658L36.985 23.325C37.6461 23.2746 38.2602 22.9636 38.6921 22.4605C39.1239 21.9573 39.3383 21.3032 39.2879 20.6421C39.2375 19.9809 38.9265 19.3669 38.4234 18.935C37.9202 18.5031 37.2661 18.2896 36.605 18.34ZM36.8458 21.6667L29.7733 22.3083C29.1512 22.3619 28.572 22.6474 28.1507 23.1082C27.7294 23.5691 27.4968 24.1715 27.4991 24.7958V26.7125C27.4991 27.3375 27.6158 27.9575 27.845 28.54L31.8833 38.8225C31.93 38.9215 31.9567 39.0287 31.9619 39.138C31.9672 39.2473 31.9508 39.3566 31.9138 39.4596C31.8769 39.5626 31.8199 39.6573 31.7463 39.7383C31.6728 39.8193 31.5839 39.885 31.485 39.9317C31.386 39.9783 31.2788 40.0051 31.1695 40.0103C31.0601 40.0155 30.9509 39.9992 30.8479 39.9622C30.7449 39.9252 30.6502 39.8683 30.5692 39.7947C30.4882 39.7211 30.4225 39.6323 30.3758 39.5333L26.5266 30.1892C26.4018 29.8867 26.19 29.6282 25.9181 29.4462C25.6461 29.2643 25.3263 29.1671 24.9991 29.1671C24.6719 29.1671 24.3521 29.2643 24.0802 29.4462C23.8083 29.6282 23.5965 29.8867 23.4716 30.1892L19.6333 39.5083C19.5895 39.6124 19.525 39.7066 19.4437 39.785C19.3624 39.8634 19.266 39.9244 19.1603 39.9644C19.0547 40.0044 18.942 40.0226 18.8292 40.0177C18.7164 40.0128 18.6057 39.985 18.5039 39.9361C18.4021 39.8871 18.3113 39.818 18.2371 39.7328C18.1629 39.6477 18.1067 39.5484 18.0721 39.4409C18.0374 39.3334 18.025 39.2199 18.0355 39.1075C18.046 38.995 18.0793 38.8859 18.1333 38.7867L22.1575 28.5367C22.385 27.955 22.5008 27.3367 22.4991 26.7117V24.795C22.5018 24.1703 22.2694 23.5675 21.8481 23.1063C21.4268 22.6452 20.8473 22.3594 20.225 22.3058L13.1408 21.6667C12.9198 21.6511 12.714 21.5483 12.5687 21.381C12.4235 21.2137 12.3506 20.9956 12.3662 20.7746C12.3818 20.5536 12.4845 20.3478 12.6518 20.2025C12.8191 20.0573 13.0373 19.9844 13.2583 20L22.0083 20.7858C22.355 20.8167 22.7025 20.8325 23.0508 20.8325H26.9441C27.2925 20.8325 27.64 20.8167 27.9866 20.7858L36.7325 20C36.8415 19.9914 36.9512 20.0044 37.0551 20.0384C37.1591 20.0724 37.2553 20.1266 37.3382 20.198C37.4211 20.2693 37.4891 20.3564 37.5381 20.4541C37.5872 20.5519 37.6164 20.6584 37.6241 20.7675C37.6331 20.8779 37.62 20.9889 37.5855 21.0941C37.5511 21.1993 37.4961 21.2967 37.4236 21.3804C37.3511 21.4641 37.2627 21.5325 37.1635 21.5817C37.0643 21.6308 36.9563 21.6597 36.8458 21.6667Z" fill="#2166F3" stroke="#2166F3" stroke-width="0.5"/>
</g>
<defs>
<clipPath id="clip0_216_148">
<rect width="50" height="50" fill="white"/>
</clipPath>
</defs>
</svg>
