<svg width="50" height="44" fill="none" xmlns="http://www.w3.org/2000/svg"><path d="M46.919.914H3.081A3.084 3.084 0 0 0 0 3.994v29.748a3.084 3.084 0 0 0 3.081 3.081h14.827l-.6 4.798h-2.485a.733.733 0 0 0 0 1.465h20.354a.732.732 0 1 0 0-1.465h-2.485l-.6-4.798H46.92A3.084 3.084 0 0 0 50 33.743V3.994a3.084 3.084 0 0 0-3.081-3.08zM18.784 41.621l.6-4.798h2.696l.264 1.058A2.734 2.734 0 0 0 25 39.954a2.734 2.734 0 0 0 2.656-2.073l.265-1.058h2.695l.6 4.798H18.784zm4.806-4.798h2.82l-.175.703A1.27 1.27 0 0 1 25 38.49a1.271 1.271 0 0 1-1.235-.965l-.175-.702zm24.945-3.08c0 .89-.725 1.615-1.616 1.615H3.081a1.618 1.618 0 0 1-1.616-1.616V3.995c0-.891.725-1.616 1.616-1.616h43.838c.891 0 1.616.725 1.616 1.616v29.747z" fill="#111"/><path d="M41.439 4.046H3.863a.732.732 0 0 0-.732.732V32.96c0 .405.328.732.732.732H5.43a.732.732 0 1 0 0-1.465h-.833V5.511h36.843a.733.733 0 0 0 0-1.465zm4.697 0H44.57a.732.732 0 1 0 0 1.465h.834v26.716H8.56a.732.732 0 0 0 0 1.465h37.576a.732.732 0 0 0 .732-.732V4.778a.733.733 0 0 0-.732-.732z" fill="#111"/><path d="M34.971 12.154a.732.732 0 0 0-.543-.28l-17.222-.783h-.04a1.518 1.518 0 0 0-.61-.82l-2.109-1.406a.732.732 0 0 0-.812 1.219l2.109 1.406a.05.05 0 0 1 .02.028l2.687 9.402c.084.293.221.557.398.784l-.982 1.966a1.505 1.505 0 0 0 .066 1.474c.099.16.226.3.376.414a2.284 2.284 0 0 0-.303 1.138 2.3 2.3 0 0 0 2.298 2.298 2.3 2.3 0 0 0 2.14-3.13h6.678a2.3 2.3 0 0 0 2.141 3.131 2.3 2.3 0 0 0 2.057-3.322.73.73 0 0 0 .027-1.06.732.732 0 0 0-.518-.215H19.222c-.01 0-.029 0-.043-.024-.015-.023-.007-.04-.002-.049l.905-1.81c.276.07.563.09.847.056l10.291-1.21a3.074 3.074 0 0 0 2.662-2.456l1.23-6.156a.733.733 0 0 0-.14-.595zm-3.708 13.71a.834.834 0 0 1 0 1.666.834.834 0 0 1 0-1.667zm-10.96 0a.834.834 0 0 1 0 1.666.834.834 0 0 1 0-1.667zm-1.796-10.077-.917-3.212 2.928.133.508 3.08h-2.518zm2.25 5.33a.83.83 0 0 1-.898-.6l-.933-3.265h2.341l.615 3.732-1.124.132zm4.294-.506-1.712.202-.587-3.56h2.299v3.358zm0-4.824h-2.54l-.497-3.01 3.037.137v2.873zm3.71 4.388-2.245.264v-3.187h2.509l-.265 2.923zm.396-4.388h-2.641v-2.806l2.883.13-.242 2.676zm3.288 2.83a1.612 1.612 0 0 1-1.396 1.289l-.802.094.248-2.748h2.223l-.273 1.366zm.566-2.83h-2.383l.236-2.609 2.645.12-.498 2.49z" fill="#111"/></svg>