<svg width="50" height="50" fill="none" xmlns="http://www.w3.org/2000/svg"><mask id="a" style="mask-type:luminance" maskUnits="userSpaceOnUse" x="-1" y="-1" width="52" height="52"><path d="M0 0h50v50H0V0z" fill="#fff" stroke="#fff" stroke-width="1.7"/></mask><g mask="url(#a)" stroke="#111" stroke-width="1.7" stroke-miterlimit="10" stroke-linecap="round" stroke-linejoin="round"><path d="M41.056 13.27h3.419a2.763 2.763 0 0 1 2.763 2.762v27.046H2.76V16.032a2.763 2.763 0 0 1 2.763-2.762h3.418"/><path d="M10.044 39.66H6.178V16.688h8.025M35.796 16.688h8.025V39.66H12.975M27.633 45.898h-5.264a2.738 2.738 0 0 1-2.738-2.737v-.083h10.74v.083a2.738 2.738 0 0 1-2.738 2.737z"/><path d="M49.267 43.078H.732V44.7A4.018 4.018 0 0 0 4.75 48.72h40.5a4.018 4.018 0 0 0 4.017-4.018v-1.623zM35.795 16.057v4.126a6.11 6.11 0 0 1-3.748 5.647 18.385 18.385 0 0 1-14.096 0 6.11 6.11 0 0 1-3.748-5.647v-4.126"/><path d="m31.545 4.198 9.577 5.074c1.59.842 1.59 3.12 0 3.963l-14.163 7.503a4.188 4.188 0 0 1-3.918 0L8.878 13.235c-1.59-.842-1.59-3.12 0-3.963L23.04 1.769a4.189 4.189 0 0 1 3.918 0l2.027 1.074"/><path d="m25 11.254 6.3 7.184v9.736M31.3 28.174l-1.588 2.753a1.49 1.49 0 0 0 1.29 2.235h.598a1.49 1.49 0 0 0 1.29-2.235l-1.59-2.753zM9.826 36.242H24.49M9.826 33.162h9.804"/></g></svg>