<svg width="50" height="50" viewBox="0 0 50 50" fill="none" xmlns="http://www.w3.org/2000/svg">
<path d="M24.2188 43.75H25.7812V45.3125H24.2188V43.75ZM37.6984 38.8109L38.8031 37.7062L39.9078 38.8109L38.8031 39.9156L37.6984 38.8109ZM43.75 24.2188H45.3125V25.7812H43.75V24.2188Z" fill="#2166F3" stroke="#2166F3" stroke-width="0.5"/>
<path d="M47.6571 19.531H42.1181C41.8158 18.5777 41.4329 17.652 40.9735 16.7638L44.8884 12.8481C45.0348 12.7016 45.1171 12.503 45.1171 12.2958C45.1171 12.0886 45.0348 11.89 44.8884 11.7435L41.5735 8.4294C39.4049 6.21906 36.8197 4.46038 33.9674 3.25497C31.1151 2.04956 28.0522 1.42131 24.9557 1.40652C21.8592 1.39173 18.7904 1.99069 15.9267 3.16881C13.063 4.34692 10.4612 6.08083 8.27152 8.27035C6.08185 10.4599 4.34776 13.0616 3.16944 15.9252C1.99112 18.7888 1.39194 21.8575 1.40651 24.954C1.42108 28.0505 2.04911 31.1135 3.25433 33.9659C4.45954 36.8183 6.21803 39.4036 8.42821 41.5724L11.7423 44.8872C11.8888 45.0337 12.0875 45.1159 12.2946 45.1159C12.5018 45.1159 12.7005 45.0337 12.847 44.8872L16.7626 40.9724C17.6516 41.4315 18.5781 41.8142 19.5321 42.1161V47.656C19.5321 47.8632 19.6144 48.0619 19.7609 48.2084C19.9075 48.3549 20.1062 48.4372 20.3134 48.4372H29.6884C29.8956 48.4372 30.0943 48.3549 30.2408 48.2084C30.3873 48.0619 30.4696 47.8632 30.4696 47.656V42.1169C31.4228 41.8148 32.3485 41.4322 33.2368 40.9731L37.1524 44.888C37.2989 45.0345 37.4976 45.1167 37.7048 45.1167C37.9119 45.1167 38.1106 45.0345 38.2571 44.888L44.886 38.2591C45.0325 38.1126 45.1148 37.9139 45.1148 37.7067C45.1148 37.4996 45.0325 37.3009 44.886 37.1544L40.9712 33.2388C41.4312 32.3496 41.8146 31.4228 42.1173 30.4685H47.6571C47.8643 30.4685 48.063 30.3861 48.2095 30.2396C48.3561 30.0931 48.4384 29.8944 48.4384 29.6872V20.3122C48.4384 20.105 48.3561 19.9063 48.2095 19.7598C48.063 19.6133 47.8643 19.531 47.6571 19.531ZM9.53212 9.53096C13.5381 5.52373 18.9431 3.22798 24.6084 3.12742C30.2737 3.02687 35.7568 5.12936 39.9024 8.9919L38.7993 10.095C34.9439 6.53705 29.8615 4.60874 24.6163 4.71391C19.3711 4.81908 14.37 6.94957 10.6604 10.6592C6.95073 14.3689 4.82024 19.3699 4.71507 24.6151C4.6099 29.8603 6.53821 34.9428 10.0962 38.7981L8.99306 39.9013C5.13052 35.7556 3.02803 30.2725 3.12859 24.6072C3.22914 18.942 5.52489 13.5369 9.53212 9.53096ZM31.6298 18.3708C33.3643 20.1338 34.3319 22.5107 34.3218 24.9839C34.3117 27.4571 33.3248 29.826 31.576 31.5748C29.8272 33.3237 27.4582 34.3106 24.9851 34.3206C22.5119 34.3307 20.1349 33.3631 18.372 31.6286C18.2255 31.4822 18.0268 31.3999 17.8196 31.3999C17.6125 31.3999 17.4138 31.4822 17.2673 31.6286L11.2017 37.6942C7.92506 34.1342 6.15147 29.4454 6.25169 24.6081C6.35191 19.7708 8.31818 15.1595 11.7394 11.7383C15.1606 8.31702 19.772 6.35075 24.6093 6.25053C29.4466 6.15031 34.1354 7.9239 37.6954 11.2005L31.6298 17.2653C31.5571 17.3379 31.4995 17.4241 31.4602 17.5189C31.4209 17.6137 31.4006 17.7154 31.4006 17.8181C31.4006 17.9207 31.4209 18.0224 31.4602 18.1172C31.4995 18.2121 31.5571 18.2982 31.6298 18.3708ZM46.8759 28.906H41.5352C41.3645 28.9059 41.1983 28.9617 41.0623 29.065C40.9263 29.1683 40.8279 29.3133 40.7821 29.4778C40.439 30.7033 39.9509 31.8835 39.3282 32.9935C39.2443 33.1424 39.2115 33.3147 39.2349 33.4841C39.2584 33.6534 39.3367 33.8104 39.4579 33.931L43.2306 37.7044L37.7071 43.2278L33.9337 39.4552C33.8131 39.334 33.6561 39.2556 33.4868 39.2322C33.3175 39.2088 33.1451 39.2416 32.9962 39.3255C31.8863 39.9482 30.7061 40.4362 29.4806 40.7794C29.316 40.8252 29.171 40.9236 29.0677 41.0596C28.9644 41.1956 28.9086 41.3617 28.9087 41.5325V46.8747H21.0946V41.5341C21.0947 41.3633 21.0389 41.1972 20.9356 41.0612C20.8323 40.9252 20.6873 40.8267 20.5227 40.781C19.2972 40.4378 18.117 39.9497 17.0071 39.3271C16.8582 39.2431 16.6858 39.2104 16.5165 39.2338C16.3472 39.2572 16.1902 39.3355 16.0696 39.4567L12.2962 43.2294L10.0868 41.02L17.8407 33.2669C19.9312 35.0767 22.6295 36.0276 25.3927 35.9282C28.1559 35.8288 30.779 34.6866 32.734 32.7314C34.6891 30.7761 35.8311 28.1529 35.9301 25.3897C36.0292 22.6265 35.0781 19.9282 33.2681 17.838L41.0212 10.0841L43.2306 12.2935L39.4579 16.0669C39.3367 16.1874 39.2584 16.3444 39.2349 16.5138C39.2115 16.6831 39.2443 16.8555 39.3282 17.0044C39.951 18.1143 40.4391 19.2945 40.7821 20.52C40.8279 20.6846 40.9263 20.8296 41.0623 20.9328C41.1983 21.0361 41.3645 21.092 41.5352 21.0919H46.8759V28.906Z" fill="#2166F3" stroke="#2166F3" stroke-width="0.5"/>
<path d="M25.7812 21.9859V13.2812C25.7812 13.074 25.6989 12.8753 25.5524 12.7288C25.4059 12.5823 25.2072 12.5 25 12.5C24.7928 12.5 24.5941 12.5823 24.4476 12.7288C24.3011 12.8753 24.2188 13.074 24.2188 13.2812V21.9859C23.6818 22.1263 23.192 22.4072 22.7996 22.7996C22.4072 23.192 22.1263 23.6818 21.9859 24.2188H16.4062C16.199 24.2188 16.0003 24.3011 15.8538 24.4476C15.7073 24.5941 15.625 24.7928 15.625 25C15.625 25.2072 15.7073 25.4059 15.8538 25.5524C16.0003 25.6989 16.199 25.7812 16.4062 25.7812H21.9859C22.1226 26.3144 22.3978 26.8019 22.7838 27.1942C23.1697 27.5865 23.6526 27.8697 24.1834 28.0151C24.7142 28.1604 25.274 28.1627 25.806 28.0217C26.338 27.8808 26.8232 27.6015 27.2124 27.2124C27.6015 26.8232 27.8808 26.338 28.0217 25.806C28.1627 25.274 28.1604 24.7142 28.0151 24.1834C27.8697 23.6526 27.5865 23.1697 27.1942 22.7838C26.8019 22.3978 26.3144 22.1226 25.7812 21.9859ZM25 26.5625C24.691 26.5625 24.3889 26.4709 24.1319 26.2992C23.875 26.1275 23.6747 25.8835 23.5564 25.5979C23.4382 25.3124 23.4072 24.9983 23.4675 24.6952C23.5278 24.3921 23.6766 24.1137 23.8951 23.8951C24.1137 23.6766 24.3921 23.5278 24.6952 23.4675C24.9983 23.4072 25.3124 23.4382 25.5979 23.5564C25.8835 23.6747 26.1275 23.875 26.2992 24.1319C26.4709 24.3889 26.5625 24.691 26.5625 25C26.5625 25.4144 26.3979 25.8118 26.1049 26.1049C25.8118 26.3979 25.4144 26.5625 25 26.5625ZM25 10.1562C24.7928 10.1562 24.5941 10.0739 24.4476 9.92743C24.3011 9.78091 24.2188 9.5822 24.2188 9.375V7.8125C24.2188 7.6053 24.3011 7.40659 24.4476 7.26007C24.5941 7.11356 24.7928 7.03125 25 7.03125C25.2072 7.03125 25.4059 7.11356 25.5524 7.26007C25.6989 7.40659 25.7812 7.6053 25.7812 7.8125V9.375C25.7812 9.5822 25.6989 9.78091 25.5524 9.92743C25.4059 10.0739 25.2072 10.1562 25 10.1562ZM32.8125 12.25C32.6754 12.2499 32.5408 12.2137 32.4222 12.145C32.3035 12.0764 32.205 11.9778 32.1365 11.859C32.068 11.7403 32.032 11.6056 32.0321 11.4685C32.0321 11.3315 32.0682 11.1968 32.1367 11.0781L32.918 9.72422C33.0223 9.54624 33.1928 9.41676 33.3923 9.36403C33.5917 9.3113 33.8039 9.3396 33.9826 9.44275C34.1612 9.54591 34.2918 9.71554 34.3459 9.91464C34.4 10.1137 34.3731 10.3261 34.2711 10.5055L33.4898 11.8594C33.4212 11.9783 33.3225 12.0769 33.2036 12.1455C33.0846 12.2141 32.9498 12.2501 32.8125 12.25ZM17.1875 12.25C17.0502 12.2501 16.9154 12.2141 16.7964 12.1455C16.6775 12.0769 16.5788 11.9783 16.5102 11.8594L15.7289 10.5055C15.6269 10.3261 15.6 10.1137 15.6541 9.91464C15.7082 9.71554 15.8388 9.54591 16.0174 9.44275C16.1961 9.3396 16.4083 9.3113 16.6077 9.36403C16.8072 9.41676 16.9777 9.54624 17.082 9.72422L17.8633 11.0781C17.9318 11.1968 17.9679 11.3315 17.9679 11.4685C17.968 11.6056 17.932 11.7403 17.8635 11.859C17.795 11.9778 17.6965 12.0764 17.5778 12.145C17.4592 12.2137 17.3246 12.2499 17.1875 12.25ZM11.468 17.9688C11.3308 17.969 11.196 17.9329 11.0773 17.8641L9.72344 17.0828C9.54546 16.9785 9.41598 16.808 9.36325 16.6085C9.31052 16.4091 9.33882 16.1969 9.44197 16.0182C9.54513 15.8395 9.71476 15.7089 9.91386 15.6549C10.113 15.6008 10.3253 15.6277 10.5047 15.7297L11.8586 16.5109C12.0075 16.5969 12.1239 16.7297 12.1897 16.8885C12.2555 17.0474 12.2671 17.2236 12.2226 17.3897C12.1781 17.5558 12.08 17.7026 11.9435 17.8073C11.8071 17.912 11.6399 17.9687 11.468 17.9688ZM9.375 25.7812H7.8125C7.6053 25.7812 7.40659 25.6989 7.26007 25.5524C7.11356 25.4059 7.03125 25.2072 7.03125 25C7.03125 24.7928 7.11356 24.5941 7.26007 24.4476C7.40659 24.3011 7.6053 24.2188 7.8125 24.2188H9.375C9.5822 24.2188 9.78091 24.3011 9.92743 24.4476C10.0739 24.5941 10.1562 24.7928 10.1562 25C10.1562 25.2072 10.0739 25.4059 9.92743 25.5524C9.78091 25.6989 9.5822 25.7812 9.375 25.7812ZM10.1156 34.375C9.94365 34.375 9.77649 34.3182 9.64005 34.2135C9.50362 34.1089 9.40554 33.9621 9.36103 33.796C9.31652 33.6298 9.32806 33.4537 9.39387 33.2948C9.45968 33.1359 9.57607 33.0032 9.725 32.9172L11.0789 32.1359C11.1678 32.0838 11.2661 32.0498 11.3682 32.0359C11.4703 32.0219 11.5741 32.0283 11.6737 32.0546C11.7733 32.0809 11.8667 32.1267 11.9486 32.1893C12.0304 32.2519 12.0991 32.33 12.1506 32.4193C12.2021 32.5085 12.2355 32.607 12.2488 32.7092C12.262 32.8114 12.255 32.9152 12.228 33.0146C12.201 33.114 12.1546 33.2071 12.0915 33.2886C12.0283 33.37 11.9497 33.4381 11.8602 33.4891L10.5062 34.2703C10.3876 34.3392 10.2528 34.3753 10.1156 34.375Z" fill="#2166F3" stroke="#2166F3" stroke-width="0.5"/>
<path d="M25.0017 32.8123C23.9754 32.8151 22.9587 32.614 22.0107 32.2205C21.0628 31.827 20.2025 31.249 19.4799 30.5201C19.4054 30.4479 19.346 30.3616 19.3052 30.2663C19.2644 30.1709 19.243 30.0683 19.2422 29.9646C19.2415 29.8609 19.2614 29.758 19.3008 29.6621C19.3402 29.5661 19.3983 29.479 19.4718 29.4057C19.5452 29.3325 19.6326 29.2746 19.7286 29.2355C19.8247 29.1963 19.9276 29.1767 20.0313 29.1777C20.135 29.1788 20.2375 29.2005 20.3328 29.2416C20.428 29.2826 20.5142 29.3423 20.5861 29.417C21.1638 30.0071 21.8528 30.4768 22.6133 30.7989C23.3737 31.121 24.1904 31.2891 25.0163 31.2935C25.8421 31.2979 26.6606 31.1384 27.4244 30.8244C28.1882 30.5104 28.8821 30.0481 29.4661 29.4641C30.05 28.8802 30.5124 28.1862 30.8264 27.4224C31.1404 26.6586 31.2998 25.8401 31.2954 25.0143C31.291 24.1885 31.1229 23.3717 30.8008 22.6113C30.4787 21.8509 30.009 21.1619 29.4189 20.5842C29.3442 20.5122 29.2846 20.4261 29.2435 20.3308C29.2024 20.2356 29.1807 20.1331 29.1797 20.0294C29.1787 19.9256 29.1983 19.8227 29.2374 19.7267C29.2766 19.6306 29.3345 19.5433 29.4077 19.4698C29.481 19.3964 29.5681 19.3383 29.664 19.2988C29.76 19.2594 29.8628 19.2395 29.9666 19.2403C30.0703 19.241 30.1728 19.2624 30.2682 19.3032C30.3636 19.344 30.4499 19.4034 30.5221 19.4779C31.6136 20.5704 32.3569 21.9619 32.658 23.4766C32.9591 24.9913 32.8045 26.5612 32.2138 27.9881C31.623 29.415 30.6227 30.6348 29.339 31.4935C28.0554 32.3521 26.5461 32.811 25.0017 32.8123Z" fill="#2166F3" stroke="#2166F3" stroke-width="0.5"/>
</svg>
