<svg width="55" height="55" fill="none" xmlns="http://www.w3.org/2000/svg"><path d="M47.59 53H27a1.47 1.47 0 0 1-1.47-1.47v-5.783a6.235 6.235 0 1 1 0-11.965V28A1.47 1.47 0 0 1 27 26.53h8.266a1.47 1.47 0 0 1 1.076 2.473 3.256 3.256 0 0 0-.882 2.232 3.294 3.294 0 1 0 6.588 0c0-.829-.315-1.627-.882-2.232a1.471 1.471 0 0 1 1.1-2.474h8.264A1.47 1.47 0 0 1 52 28v20.588A4.412 4.412 0 0 1 47.59 53zM28.47 50.06H47.59a1.47 1.47 0 0 0 1.47-1.47V29.47h-4.308c.166.573.25 1.167.25 1.764a6.235 6.235 0 1 1-12.47 0c-.001-.597.083-1.19.25-1.764h-4.31v6.794a1.47 1.47 0 0 1-2.47 1.076 3.295 3.295 0 1 0 0 4.847 1.472 1.472 0 0 1 2.47 1.077v6.794z" fill="#2166F3"/><path d="M27 53H6.412A4.412 4.412 0 0 1 2 48.588V28a1.47 1.47 0 0 1 2.941 0v20.588a1.47 1.47 0 0 0 1.47 1.47H27A1.471 1.471 0 0 1 27 53z" fill="#2166F3"/><path d="M27 29.47h-8.265a1.47 1.47 0 0 1-1.076-2.473 3.256 3.256 0 0 0 .882-2.232 3.295 3.295 0 0 0-6.588 0c-.001.83.315 1.627.882 2.232a1.47 1.47 0 0 1-1.1 2.474H3.471A1.47 1.47 0 0 1 2 28V7.412A4.412 4.412 0 0 1 6.412 3H27a1.47 1.47 0 0 1 1.47 1.47v5.783a6.236 6.236 0 1 1 0 11.965V28A1.47 1.47 0 0 1 27 29.47zm-5.78-2.94h4.31v-6.795A1.47 1.47 0 0 1 28 18.66a3.294 3.294 0 1 0 0-4.847 1.47 1.47 0 0 1-2.47-1.077V5.941H6.411a1.47 1.47 0 0 0-1.47 1.47V26.53H9.25A6.317 6.317 0 0 1 9 24.765a6.235 6.235 0 1 1 12.47 0c.001.597-.083 1.191-.25 1.764z" fill="#2166F3"/></svg>