<svg width="50" height="50" fill="none" xmlns="http://www.w3.org/2000/svg"><g clip-path="url(#a)" fill="#111"><path d="M1.807 25C1.807 12.211 12.212 1.807 25 1.807c12.788 0 23.193 10.404 23.193 23.193 0 7.396-3.574 14.41-9.56 18.764l1.063 1.461A25.083 25.083 0 0 0 50 25C50 11.215 38.785 0 25 0S0 11.215 0 25s11.215 25 25 25h24.096v-1.807H25C12.212 48.193 1.807 37.789 1.807 25z"/><path d="M28.916 25a3.92 3.92 0 0 0-3.915-3.916A3.92 3.92 0 0 0 21.085 25a3.92 3.92 0 0 0 3.916 3.915A3.92 3.92 0 0 0 28.916 25zm-3.915 2.108A2.11 2.11 0 0 1 22.892 25a2.11 2.11 0 0 1 2.109-2.109A2.11 2.11 0 0 1 27.109 25a2.11 2.11 0 0 1-2.108 2.108zm0-22.59a6.936 6.936 0 0 0-6.928 6.927 6.936 6.936 0 0 0 6.928 6.928 6.935 6.935 0 0 0 6.927-6.928 6.936 6.936 0 0 0-6.927-6.927zm0 12.048a5.126 5.126 0 0 1-5.12-5.12A5.126 5.126 0 0 1 25 6.324a5.126 5.126 0 0 1 5.12 5.12 5.126 5.126 0 0 1-5.12 5.12zM12.11 27.74a6.909 6.909 0 0 0 6.587-4.788c1.18-3.632-.814-7.548-4.447-8.73a6.918 6.918 0 0 0-2.14-.34 6.912 6.912 0 0 0-6.59 4.788 6.88 6.88 0 0 0 .417 5.286A6.88 6.88 0 0 0 9.969 27.4c.692.225 1.415.34 2.142.34zm-4.563-4.605a5.087 5.087 0 0 1-.308-3.906 5.108 5.108 0 0 1 6.452-3.288 5.127 5.127 0 0 1 3.287 6.453 5.106 5.106 0 0 1-6.452 3.287 5.085 5.085 0 0 1-2.98-2.546zM12.96 41.57a6.875 6.875 0 0 0 4.067 1.323 6.953 6.953 0 0 0 5.61-2.856 6.882 6.882 0 0 0 1.237-5.156 6.88 6.88 0 0 0-2.77-4.52 6.874 6.874 0 0 0-4.066-1.323 6.955 6.955 0 0 0-5.61 2.856 6.882 6.882 0 0 0-1.237 5.155 6.882 6.882 0 0 0 2.77 4.52zm-.07-8.614a5.141 5.141 0 0 1 4.149-2.11 5.08 5.08 0 0 1 3.004.977 5.085 5.085 0 0 1 2.047 3.341 5.089 5.089 0 0 1-.915 3.81 5.141 5.141 0 0 1-4.148 2.112 5.079 5.079 0 0 1-3.004-.978 5.085 5.085 0 0 1-2.047-3.342 5.085 5.085 0 0 1 .914-3.81zm20.082 9.937c1.47 0 2.876-.458 4.067-1.324a6.88 6.88 0 0 0 2.77-4.52 6.881 6.881 0 0 0-1.237-5.155 6.952 6.952 0 0 0-5.61-2.856c-1.47 0-2.875.457-4.067 1.323a6.879 6.879 0 0 0-2.77 4.52 6.881 6.881 0 0 0 1.237 5.156 6.951 6.951 0 0 0 5.61 2.856zm-5.062-7.729a5.084 5.084 0 0 1 2.048-3.34c.88-.64 1.92-.98 3.004-.98a5.14 5.14 0 0 1 4.147 2.112 5.086 5.086 0 0 1 .915 3.81 5.083 5.083 0 0 1-2.048 3.342c-.88.64-1.919.978-3.004.978a5.14 5.14 0 0 1-4.148-2.111 5.087 5.087 0 0 1-.914-3.81zm3.808-17.497a6.879 6.879 0 0 0-.416 5.285 6.91 6.91 0 0 0 6.589 4.789 6.936 6.936 0 0 0 6.588-9.07 6.91 6.91 0 0 0-6.587-4.789c-.728 0-1.45.116-2.142.341a6.88 6.88 0 0 0-4.031 3.444zm4.59-1.725a5.107 5.107 0 0 1 6.451 3.287 5.127 5.127 0 0 1-4.868 6.704 5.108 5.108 0 0 1-4.87-3.54 5.084 5.084 0 0 1 .308-3.906 5.084 5.084 0 0 1 2.98-2.545zM12.174 8.879l1.462-1.062 1.18 1.624-1.462 1.063-1.18-1.625zM5.705 32.22 5.146 30.5l1.91-.62.558 1.719-1.91.62zm18.393 11.356h1.808v2.007h-1.808v-2.007zm20.757-13.077-.558 1.719-1.91-.62.558-1.719 1.91.62zM36.368 7.817l1.462 1.062-1.18 1.624-1.462-1.062 1.18-1.624z"/></g><defs><clipPath id="a"><path fill="#fff" d="M0 0h50v50H0z"/></clipPath></defs></svg>