<svg width="55" height="55" viewBox="0 0 55 55" fill="none" xmlns="http://www.w3.org/2000/svg">
<g clip-path="url(#clip0_176_715)">
<path d="M54.1406 30.9849V24.0151C54.1406 23.8108 54.0678 23.6131 53.9352 23.4576C53.8026 23.3021 53.6189 23.1989 53.4171 23.1666L49.1537 22.4842C48.6017 20.0899 47.6629 17.8254 46.3566 15.7376L48.8904 12.238C49.0102 12.0725 49.0672 11.8697 49.051 11.666C49.0348 11.4622 48.9466 11.271 48.8021 11.1264L43.8737 6.19813C43.7291 6.05364 43.5378 5.96538 43.3341 5.94918C43.1304 5.93298 42.9275 5.9899 42.762 6.10973L39.2624 8.64349C37.174 7.33702 34.9096 6.39826 32.5158 5.84633L31.8334 1.58297C31.8011 1.38114 31.6979 1.19743 31.5424 1.06482C31.3869 0.932201 31.1892 0.859363 30.9848 0.859375H24.015C23.8107 0.859384 23.613 0.932219 23.4575 1.06481C23.302 1.1974 23.1988 1.38107 23.1665 1.58286L22.484 5.84622C20.0899 6.39815 17.8254 7.33691 15.7374 8.64327L12.2379 6.10962C12.0724 5.98979 11.8695 5.93287 11.6658 5.94907C11.4621 5.96527 11.2708 6.05354 11.1262 6.19803L6.19781 11.1263C6.0533 11.2709 5.96503 11.4622 5.94884 11.6659C5.93266 11.8697 5.98963 12.0725 6.10951 12.238L8.64327 15.7375C7.33638 17.8267 6.39762 20.0908 5.84611 22.484L1.58275 23.1665C1.38097 23.1988 1.19731 23.302 1.06474 23.4576C0.932163 23.6131 0.859354 23.8108 0.859375 24.0151V30.9849C0.859362 31.1892 0.93219 31.3869 1.06479 31.5424C1.19738 31.6979 1.38106 31.8011 1.58286 31.8334L5.84622 32.5158C6.39815 34.9099 7.33702 37.1744 8.64338 39.2624L6.10962 42.762C5.98976 42.9275 5.93282 43.1303 5.949 43.334C5.96518 43.5377 6.05343 43.729 6.19792 43.8736L11.1263 48.8019C11.2709 48.9464 11.4622 49.0346 11.6659 49.0508C11.8696 49.067 12.0725 49.0101 12.238 48.8903L15.7375 46.3565C17.8267 47.6634 20.0911 48.6023 22.4842 49.1537L23.1666 53.417C23.1989 53.6188 23.3021 53.8025 23.4576 53.9351C23.6131 54.0677 23.8108 54.1405 24.0151 54.1405H30.9849C31.1892 54.1405 31.3869 54.0677 31.5424 53.9351C31.6979 53.8025 31.8011 53.6188 31.8334 53.417L32.4457 49.5923C34.6841 52.3642 38.1083 54.1405 41.9403 54.1405C48.6676 54.1406 54.1406 48.6676 54.1406 41.9403C54.1406 38.1083 52.3642 34.6839 49.5923 32.4456L53.417 31.8334C53.6189 31.8012 53.8026 31.698 53.9352 31.5425C54.0679 31.387 54.1407 31.1893 54.1406 30.9849ZM42.8509 29.774C42.5479 29.7514 42.2441 29.7401 41.9403 29.7401C40.0954 29.7401 38.3454 30.1525 36.7762 30.8886V29.5297C36.7762 27.4991 35.2386 25.9532 32.5573 25.2882C31.6365 25.0597 30.7017 24.8918 29.7589 24.7856C31.1821 23.7866 32.1471 21.876 32.1471 19.6867C32.1471 16.7255 30.3664 14.8859 27.5001 14.8859C24.6337 14.8859 22.853 16.7255 22.853 19.6867C22.853 21.8713 23.8139 23.7783 25.2321 24.7789C24.2891 24.8833 23.3547 25.0541 22.4357 25.2899C19.7196 25.988 18.2238 27.4938 18.2238 29.5297V37.1757C18.2238 37.4036 18.3143 37.6222 18.4755 37.7834C18.6367 37.9445 18.8553 38.0351 19.0832 38.0351H30.3811C29.9655 39.2617 29.7401 40.5752 29.7401 41.9403C29.7401 42.2465 29.7517 42.5502 29.774 42.8509C29.0211 42.9615 28.261 43.0171 27.5 43.0173C18.9437 43.0173 11.9827 36.0563 11.9827 27.4999C11.9827 18.9435 18.9437 11.9826 27.5 11.9826C36.0563 11.9826 43.0173 18.9437 43.0173 27.5C43.0173 28.2604 42.9613 29.0223 42.8509 29.774ZM32.0921 30.428C31.8641 30.428 31.6456 30.5185 31.4844 30.6797C31.3232 30.8409 31.2327 31.0595 31.2327 31.2874V36.0975C31.1931 36.1699 31.1544 36.243 31.1161 36.3162H23.7671V31.2874C23.7671 31.0595 23.6766 30.8409 23.5154 30.6797C23.3542 30.5185 23.1356 30.428 22.9077 30.428C22.6798 30.428 22.4612 30.5185 22.3 30.6797C22.1389 30.8409 22.0483 31.0595 22.0483 31.2874V36.3162H19.9424V29.5296C19.9424 28.0217 21.5309 27.297 22.8635 26.9544C25.8848 26.1774 29.0068 26.1781 32.1434 26.9562C33.2317 27.2262 35.0573 27.9194 35.0573 29.5296V31.8724C34.2884 32.3998 33.5818 33.013 32.9514 33.7002V31.2873C32.9514 31.0594 32.8609 30.8408 32.6997 30.6797C32.5385 30.5185 32.32 30.428 32.0921 30.428ZM27.5 23.8052C25.8853 23.8052 24.5717 21.9576 24.5717 19.6866C24.5717 17.0049 26.4063 16.6045 27.5 16.6045C28.5937 16.6045 30.4282 17.005 30.4282 19.6866C30.4282 21.9577 29.1146 23.8052 27.5 23.8052ZM52.4219 41.9403C52.4219 47.7199 47.7199 52.4219 41.9403 52.4219C36.1608 52.4219 31.4588 47.7199 31.4588 41.9403C31.4588 36.1607 36.1608 31.4588 41.9403 31.4588C47.7199 31.4588 52.4219 36.1608 52.4219 41.9403ZM52.4219 30.2521L48.3021 30.9115C48.0912 30.9456 47.9006 31.057 47.7675 31.2241C46.758 30.6728 45.6751 30.2682 44.5515 30.0224C44.6742 29.1872 44.7359 28.3442 44.7361 27.5C44.7361 17.996 37.0039 10.2639 27.4999 10.2639C17.9958 10.2639 10.2638 17.9961 10.2638 27.5C10.2638 37.0039 17.996 44.7362 27.4999 44.7362C28.3434 44.7362 29.1884 44.6741 30.0223 44.5516C30.2682 45.6752 30.6729 46.7582 31.2241 47.7677C31.057 47.9008 30.9455 48.0914 30.9115 48.3024L30.252 52.4219H24.7479L24.0884 48.3022C24.0608 48.1295 23.981 47.9692 23.8598 47.843C23.7387 47.7168 23.5818 47.6305 23.4103 47.5958C20.8241 47.0725 18.3928 46.0645 16.1841 44.5999C16.0383 44.5033 15.8664 44.4534 15.6915 44.4571C15.5166 44.4607 15.347 44.5176 15.2052 44.6201L11.8236 47.0686L7.9316 43.1765L10.38 39.7948C10.4826 39.653 10.5395 39.4834 10.5431 39.3084C10.5467 39.1335 10.4968 38.9616 10.4002 38.8158C8.93621 36.6087 7.92816 34.1775 7.40427 31.5897C7.36955 31.4182 7.28331 31.2614 7.15708 31.1402C7.03084 31.019 6.87063 30.9393 6.69786 30.9116L2.57813 30.2521V24.7479L6.69775 24.0884C6.87054 24.0608 7.03076 23.981 7.157 23.8598C7.28324 23.7387 7.36947 23.5818 7.40416 23.4103C7.92763 20.8239 8.93557 18.3928 10.4 16.1842C10.4968 16.0384 10.5467 15.8665 10.5431 15.6916C10.5395 15.5166 10.4825 15.3469 10.3799 15.2052L7.93149 11.8237L11.8235 7.9316L15.2051 10.38C15.3469 10.4826 15.5165 10.5395 15.6915 10.5431C15.8664 10.5466 16.0383 10.4968 16.1841 10.4C18.3912 8.93621 20.8224 7.92816 23.4103 7.40416C23.5818 7.36941 23.7386 7.28316 23.8598 7.15694C23.9809 7.03071 24.0607 6.87051 24.0884 6.69775L24.7479 2.57812H30.252L30.9115 6.69775C30.9392 6.87053 31.0189 7.03074 31.1401 7.15697C31.2612 7.2832 31.4181 7.36944 31.5896 7.40416C34.1768 7.92806 36.6081 8.9361 38.8158 10.4C38.9616 10.4967 39.1335 10.5466 39.3084 10.543C39.4833 10.5394 39.6529 10.4825 39.7946 10.3799L43.1763 7.93149L47.0684 11.8236L44.62 15.2052C44.5174 15.347 44.4605 15.5166 44.4569 15.6916C44.4533 15.8665 44.5032 16.0384 44.5998 16.1842C46.0637 18.3911 47.0716 20.8223 47.5957 23.4103C47.6305 23.5818 47.7167 23.7386 47.843 23.8598C47.9692 23.9809 48.1294 24.0607 48.3021 24.0884L52.4219 24.7479V30.2521Z" fill="#2166F3" stroke="#2166F3" stroke-width="0.5"/>
<path d="M39.0071 46.906C39.1657 47.0119 39.3521 47.0685 39.5428 47.0685C39.6693 47.0687 39.7946 47.0439 39.9115 46.9956C40.0284 46.9472 40.1346 46.8763 40.2241 46.7868L48.5495 38.2007C48.7253 38.0187 48.8226 37.775 48.8204 37.522C48.8182 37.269 48.7167 37.0269 48.5378 36.848C48.3589 36.6691 48.1169 36.5677 47.8639 36.5655C47.6109 36.5633 47.3671 36.6605 47.1851 36.8363L38.8597 45.4224C38.725 45.5574 38.6334 45.7293 38.5965 45.9164C38.5595 46.1035 38.5787 46.2973 38.6518 46.4735C38.7249 46.6496 38.8486 46.8001 39.0071 46.906Z" fill="#2166F3" stroke="#2166F3" stroke-width="0.5"/>
<path d="M36.5258 41.9422C36.3934 42.0795 36.3047 42.2529 36.2708 42.4405C36.2481 42.565 36.2503 42.6927 36.2771 42.8163C36.3039 42.9399 36.3549 43.0571 36.4271 43.161L38.7105 46.5694C39.5613 45.833 39.5613 46.3155 40.2955 45.469L38.0121 42.0606C37.9031 41.9041 37.7502 41.7834 37.5726 41.7138C37.3951 41.6442 37.2009 41.6287 37.0146 41.6693C36.8283 41.71 36.6582 41.805 36.5258 41.9422Z" fill="#2166F3" stroke="#2166F3" stroke-width="0.5"/>
</g>
<defs>
<clipPath id="clip0_176_715">
<rect width="55" height="55" fill="white"/>
</clipPath>
</defs>
</svg>
