<svg width="50" height="50" viewBox="0 0 50 50" fill="none" xmlns="http://www.w3.org/2000/svg">
<g clip-path="url(#clip0_216_163)">
<path d="M47.0703 0.000976562H2.92969C1.31426 0.000976562 0 1.31523 0 2.93066V41.9932C0 43.6086 1.31426 44.9229 2.92969 44.9229H13.7939C14.3332 44.9229 14.7705 44.4855 14.7705 43.9463C14.7705 43.407 14.3332 42.9697 13.7939 42.9697H2.92969C2.39121 42.9697 1.95312 42.5316 1.95312 41.9932V9.7666H48.0469V41.9932C48.0469 42.5316 47.6088 42.9697 47.0703 42.9697H42.258L32.2934 33.0051C33.372 31.0334 33.9859 28.7728 33.9859 26.3712C33.9859 18.7248 27.7651 12.504 20.1188 12.504C12.4724 12.504 6.25156 18.7248 6.25156 26.3712C6.25156 34.0176 12.4724 40.2384 20.1188 40.2384C22.52 40.2384 24.7806 39.6245 26.7521 38.546L31.1758 42.9696H22.583C22.0438 42.9696 21.6064 43.4069 21.6064 43.9462C21.6064 44.4854 22.0438 44.9228 22.583 44.9228H33.1289L37.0598 48.8537C37.8235 49.6175 38.827 49.9994 39.8303 49.9993C40.8336 49.9993 41.837 49.6175 42.6009 48.8536C43.6628 47.7916 43.9856 46.267 43.5713 44.9228H47.0703C48.6857 44.9228 50 43.6085 50 41.9931V2.93057C50 1.31523 48.6857 0.000976562 47.0703 0.000976562ZM8.20469 26.3712C8.20469 19.8018 13.5493 14.4571 20.1188 14.4571C26.6882 14.4571 32.0328 19.8018 32.0328 26.3712C32.0328 32.9406 26.6882 38.2853 20.1188 38.2853C13.5493 38.2853 8.20469 32.9407 8.20469 26.3712ZM31.2106 34.6847L33.0704 36.5444L30.2915 39.3233L28.4317 37.4636C29.4842 36.6726 30.4197 35.7371 31.2106 34.6847ZM41.2199 47.4727C40.4536 48.2388 39.207 48.2388 38.4409 47.4727L31.6727 40.7044L34.4516 37.9255L41.2198 44.6937C41.986 45.4599 41.986 46.7064 41.2199 47.4727ZM1.95312 7.81348V2.93066C1.95312 2.39219 2.39121 1.9541 2.92969 1.9541H47.0703C47.6088 1.9541 48.0469 2.39219 48.0469 2.93066V7.81348H1.95312Z" fill="#2166F3"/>
<path d="M43.75 3.90723H22.6562C22.117 3.90723 21.6797 4.34453 21.6797 4.88379C21.6797 5.42305 22.117 5.86035 22.6562 5.86035H43.75C44.2893 5.86035 44.7266 5.42305 44.7266 4.88379C44.7266 4.34453 44.2893 3.90723 43.75 3.90723ZM10.5469 3.90742C10.29 3.90742 10.0381 4.01094 9.85645 4.19355C9.67471 4.3752 9.57031 4.62715 9.57031 4.88398C9.57031 5.14082 9.67471 5.39277 9.85645 5.57432C10.0381 5.75596 10.29 5.86055 10.5469 5.86055C10.8037 5.86055 11.0557 5.75605 11.2372 5.57432C11.4189 5.39277 11.5234 5.14082 11.5234 4.88398C11.5234 4.62715 11.4189 4.3752 11.2372 4.19355C11.054 4.01065 10.8058 3.90777 10.5469 3.90742ZM6.25 3.90742C5.99316 3.90742 5.74121 4.01094 5.55957 4.19355C5.37783 4.3752 5.27344 4.62715 5.27344 4.88398C5.27344 5.14082 5.37783 5.39277 5.55957 5.57432C5.74121 5.75596 5.99316 5.86055 6.25 5.86055C6.50684 5.86055 6.75879 5.75605 6.94033 5.57432C7.12207 5.3918 7.22656 5.14082 7.22656 4.88398C7.22656 4.62715 7.12207 4.3752 6.94033 4.19355C6.75711 4.01065 6.50889 3.90777 6.25 3.90742ZM14.8438 3.90742C14.5869 3.90742 14.335 4.01094 14.1533 4.19355C13.9717 4.3752 13.8672 4.62715 13.8672 4.88398C13.8672 5.14082 13.9716 5.39277 14.1533 5.57432C14.335 5.75596 14.5869 5.86055 14.8438 5.86055C15.1006 5.86055 15.3525 5.75605 15.5341 5.57432C15.7158 5.39277 15.8203 5.14082 15.8203 4.88398C15.8203 4.62715 15.7158 4.3752 15.5341 4.19355C15.3509 4.01065 15.1026 3.90777 14.8438 3.90742ZM20.1188 25.6876C19.5795 25.6876 19.1422 26.1249 19.1422 26.6642V30.4728C19.1422 31.012 19.5795 31.4493 20.1188 31.4493C20.658 31.4493 21.0953 31.012 21.0953 30.4728V26.6642C21.0953 26.1249 20.658 25.6876 20.1188 25.6876ZM20.1191 21.2932C19.8613 21.2932 19.6094 21.3976 19.4277 21.5793C19.2455 21.763 19.1431 22.011 19.1426 22.2697C19.1426 22.5266 19.2462 22.7785 19.4277 22.9601C19.6116 23.1427 19.86 23.2456 20.1191 23.2463C20.376 23.2463 20.6279 23.1418 20.8096 22.9601C20.9921 22.7766 21.0949 22.5285 21.0957 22.2697C21.0957 22.0128 20.9913 21.7608 20.8096 21.5793C20.626 21.3968 20.378 21.294 20.1191 21.2932Z" fill="#2166F3"/>
<path d="M20.1191 16.4101C14.6267 16.4101 10.1582 20.8785 10.1582 26.371C10.1582 31.8635 14.6267 36.3319 20.1191 36.3319C25.6116 36.3319 30.0801 31.8635 30.0801 26.371C30.0801 20.8785 25.6116 16.4101 20.1191 16.4101ZM20.1191 34.3788C15.7036 34.3788 12.1113 30.7865 12.1113 26.371C12.1113 21.9555 15.7036 18.3632 20.1191 18.3632C24.5347 18.3632 28.127 21.9555 28.127 26.371C28.127 30.7865 24.5346 34.3788 20.1191 34.3788ZM35.3781 19.7313C35.3781 20.2705 35.8154 20.7078 36.3547 20.7078H43.7504C44.2897 20.7078 44.727 20.2705 44.727 19.7313C44.727 19.192 44.2897 18.7547 43.7504 18.7547H36.3547C35.8153 18.7547 35.3781 19.1919 35.3781 19.7313ZM36.3547 14.0674H34.3493C33.8101 14.0674 33.3728 14.5047 33.3728 15.0439C33.3728 15.5832 33.8101 16.0205 34.3493 16.0205H36.3547C36.8939 16.0205 37.3313 15.5832 37.3313 15.0439C37.3313 14.5047 36.8939 14.0674 36.3547 14.0674ZM43.7504 16.0205C44.2897 16.0205 44.727 15.5832 44.727 15.0439C44.727 14.5047 44.2897 14.0674 43.7504 14.0674H40.6516C40.1123 14.0674 39.675 14.5047 39.675 15.0439C39.675 15.5832 40.1123 16.0205 40.6516 16.0205H43.7504ZM43.7504 23.442H41.3334C40.7941 23.442 40.3568 23.8793 40.3568 24.4186C40.3568 24.9578 40.7941 25.3951 41.3334 25.3951H43.7504C44.2897 25.3951 44.727 24.9578 44.727 24.4186C44.727 23.8793 44.2897 23.442 43.7504 23.442ZM18.1889 42.9697C17.932 42.9697 17.6801 43.0732 17.4984 43.2559C17.3168 43.4375 17.2123 43.6895 17.2123 43.9463C17.2123 44.2031 17.3167 44.4541 17.4984 44.6366C17.6801 44.8183 17.932 44.9229 18.1889 44.9229C18.4457 44.9229 18.6977 44.8184 18.8792 44.6366C19.0617 44.4531 19.1645 44.2051 19.1654 43.9463C19.1654 43.6884 19.0609 43.4375 18.8792 43.2559C18.696 43.073 18.4478 42.9701 18.1889 42.9697Z" fill="#2166F3"/>
</g>
<defs>
<clipPath id="clip0_216_163">
<rect width="50" height="50" fill="white"/>
</clipPath>
</defs>
</svg>
