<svg width="50" height="50" viewBox="0 0 50 50" fill="none" xmlns="http://www.w3.org/2000/svg">
<g clip-path="url(#clip0_216_168)">
<path d="M38.4362 38.333H36.7695V41.6663H21.7695V43.333H36.7695V45.833C36.7695 47.2136 35.6501 48.333 34.2695 48.333H15.9362C15.4972 48.3324 15.0662 48.2166 14.686 47.9972C14.3058 47.7779 13.9898 47.4627 13.7695 47.083L12.3262 47.9163C12.6933 48.5488 13.2199 49.074 13.8533 49.4395C14.4867 49.8051 15.2049 49.9982 15.9362 49.9997H34.2695C36.5697 49.9969 38.4334 48.1332 38.4362 45.833V38.333Z" fill="#2166F3"/>
<path d="M24.2702 45H25.9369V46.6667H24.2702V45ZM29.2702 22.5V20.8333H26.7279C26.3124 15.5156 22.088 11.2911 16.7702 10.8756V8.33334H15.1035V10.8756C14.5421 10.9188 13.985 11.0058 13.4369 11.1356V6.66667H26.7702V5H13.4369V4.16667C13.4369 2.78604 14.5562 1.66667 15.9369 1.66667H34.2702C34.879 1.66665 35.4669 1.8889 35.9234 2.29167L37.0261 1.04167C36.2652 0.369991 35.2851 -0.000466685 34.2702 4.41226e-07H15.9369C13.6366 0.00281294 11.773 1.86646 11.7702 4.16667V11.6667C8.01779 13.2385 5.46039 16.7774 5.14581 20.8333H2.60352V22.5H5.14789C5.54091 27.8279 9.7756 32.0654 15.1035 32.4618V35H16.7702V32.4618C22.0981 32.0654 26.3327 27.8279 26.7258 22.5H29.2702ZM15.1035 29.1667V30.7951C13.9411 30.6904 12.8096 30.3639 11.7702 29.8331V28.3333C11.7702 26.0323 13.6358 24.1667 15.9369 24.1667C18.2379 24.1667 20.1035 26.0323 20.1035 28.3333V29.8331C19.0642 30.3645 17.9327 30.6918 16.7702 30.7975V29.1667H15.1035ZM13.4369 20C13.4369 18.6194 14.5562 17.5 15.9369 17.5C17.3175 17.5 18.4369 18.6194 18.4369 20C18.4369 21.3806 17.3175 22.5 15.9369 22.5C14.5562 22.5 13.4369 21.3806 13.4369 20ZM22.0477 28.5002C21.9578 28.5831 21.8617 28.6499 21.7702 28.7268V28.3333C21.7692 27.2654 21.475 26.2182 20.9197 25.306C20.3644 24.3937 19.5694 23.6514 18.6212 23.16C19.2747 22.6096 19.7431 21.8715 19.9631 21.0459C20.183 20.2203 20.1438 19.3471 19.8508 18.5445C19.5578 17.7419 19.0251 17.0488 18.325 16.5592C17.6249 16.0695 16.7912 15.8068 15.9369 15.8068C15.0825 15.8068 14.2488 16.0695 13.5487 16.5592C12.8486 17.0488 12.3159 17.7419 12.0229 18.5445C11.7299 19.3471 11.6907 20.2203 11.9106 21.0459C12.1306 21.8715 12.599 22.6096 13.2525 23.16C12.3043 23.6514 11.5093 24.3937 10.954 25.306C10.3987 26.2182 10.1045 27.2654 10.1035 28.3333V28.7308C10.0111 28.6552 9.91508 28.584 9.82602 28.5043C8.09902 26.9557 7.02296 24.8102 6.81456 22.5H8.43685V20.8333H6.81247C7.21977 16.434 10.7041 12.9496 15.1035 12.5423V14.1667H16.7702V12.5423C21.1696 12.9496 24.6539 16.434 25.0612 20.8333H23.4369V22.5H25.0591C24.8507 24.8102 23.7747 26.9556 22.0477 28.5042V28.5002Z" fill="#2166F3"/>
<path d="M47.6042 14.9997C47.8252 14.9997 48.0371 14.9119 48.1934 14.7556C48.3497 14.5993 48.4375 14.3874 48.4375 14.1663V4.16634C48.4375 3.94533 48.3497 3.73337 48.1934 3.57709C48.0371 3.42081 47.8252 3.33301 47.6042 3.33301H29.2708C29.0498 3.33301 28.8379 3.42081 28.6816 3.57709C28.5253 3.73337 28.4375 3.94533 28.4375 4.16634V14.1663C28.4375 14.3874 28.5253 14.5993 28.6816 14.7556C28.8379 14.9119 29.0498 14.9997 29.2708 14.9997H47.6042ZM30.1042 4.99967H46.7708V13.333H30.1042V4.99967Z" fill="#2166F3"/>
<path d="M31.7702 6.66699H35.1035V8.33366H31.7702V6.66699ZM36.7702 6.66699H45.1035V8.33366H36.7702V6.66699ZM31.7702 10.0003H45.1035V11.667H31.7702V10.0003ZM47.4562 16.667C46.8111 16.668 46.1886 16.9051 45.7062 17.3335L38.4369 23.7422V16.667H36.7702V25.0003H37.0111L32.2702 29.1837C29.1858 29.3602 26.7737 31.9107 26.7701 35.0003V36.4704C26.7717 36.8758 26.6596 37.2735 26.4465 37.6184C26.2334 37.9632 25.9278 38.2414 25.5645 38.4212C25.3963 38.505 25.2614 38.6431 25.1817 38.8132C25.1019 38.9833 25.082 39.1754 25.1251 39.3583C25.1682 39.5411 25.2719 39.704 25.4192 39.8206C25.5666 39.9371 25.749 40.0005 25.9369 40.0003H31.7702C34.8598 39.9967 37.4103 37.5846 37.5869 34.5003L49.4419 21.0652C49.7788 20.6831 49.9983 20.2119 50.074 19.7081C50.1497 19.2043 50.0785 18.6893 49.8687 18.225C49.6592 17.7607 49.3201 17.3667 48.8922 17.0904C48.4642 16.814 47.9656 16.667 47.4562 16.667ZM31.7702 38.3337H27.9591C28.2737 37.7631 28.4381 37.122 28.4369 36.4704V35.0003C28.4397 32.8295 30.1063 31.0232 32.2702 30.8471L35.9234 34.5002C35.7477 36.6642 33.941 38.3313 31.7702 38.3337ZM48.1919 19.9628L36.7328 32.9503L33.8202 30.0386L46.8077 18.5787C46.9949 18.4144 47.2376 18.3275 47.4866 18.3356C47.7355 18.3437 47.9721 18.4461 48.1483 18.6222C48.3244 18.7984 48.4268 19.035 48.4349 19.2839C48.443 19.5329 48.3561 19.7756 48.1919 19.9628ZM0.936849 45.8337H19.2702C19.4912 45.8337 19.7032 45.7459 19.8594 45.5896C20.0157 45.4333 20.1035 45.2213 20.1035 45.0003V38.3337C20.1035 38.1126 20.0157 37.9007 19.8594 37.7444C19.7032 37.5881 19.4912 37.5003 19.2702 37.5003H13.4368V33.3337H11.7702V37.5003H0.936849C0.715835 37.5003 0.503874 37.5881 0.347593 37.7444C0.191313 37.9007 0.103516 38.1126 0.103516 38.3337V45.0003C0.103516 45.2213 0.191313 45.4333 0.347593 45.5896C0.503874 45.7459 0.715835 45.8337 0.936849 45.8337ZM1.77018 39.167H18.4368V44.167H1.77018V39.167Z" fill="#2166F3"/>
<path d="M3.43685 40.833H7.60352V42.4997H3.43685V40.833ZM9.27018 40.833H16.7702V42.4997H9.27018V40.833ZM0.936849 11.6663H9.27018C9.4912 11.6663 9.70316 11.5785 9.85944 11.4223C10.0157 11.266 10.1035 11.054 10.1035 10.833V4.16634C10.1035 3.94533 10.0157 3.73337 9.85944 3.57709C9.70316 3.42081 9.4912 3.33301 9.27018 3.33301H0.936849C0.715835 3.33301 0.503874 3.42081 0.347593 3.57709C0.191313 3.73337 0.103516 3.94533 0.103516 4.16634V10.833C0.103516 11.054 0.191313 11.266 0.347593 11.4223C0.503874 11.5785 0.715835 11.6663 0.936849 11.6663ZM1.77018 4.99967H8.43685V9.99967H1.77018V4.99967Z" fill="#2166F3"/>
<path d="M3.4375 6.66699H6.77083V8.33366H3.4375V6.66699Z" fill="#2166F3"/>
</g>
<defs>
<clipPath id="clip0_216_168">
<rect width="50" height="50" fill="white"/>
</clipPath>
</defs>
</svg>
