<svg width="50" height="50" viewBox="0 0 50 50" fill="none" xmlns="http://www.w3.org/2000/svg">
<path d="M25.3948 25.0001C25.2767 25.0005 25.1595 24.9795 25.0488 24.9381L6.04885 17.9381C5.85722 17.8671 5.69195 17.739 5.57532 17.5712C5.45868 17.4033 5.39627 17.2038 5.39648 16.9994C5.3967 16.795 5.45954 16.5956 5.57654 16.4281C5.69353 16.2605 5.85907 16.1328 6.05085 16.0621L19.0508 11.2821C19.2957 11.2077 19.5597 11.2298 19.7887 11.3438C20.0178 11.4578 20.1946 11.6551 20.2828 11.8952C20.371 12.1354 20.3641 12.4002 20.2633 12.6354C20.1625 12.8706 19.9756 13.0583 19.7408 13.1601L9.29085 17.0001L25.3948 22.9341L41.4988 17.0001L31.0488 13.1581C30.7998 13.0666 30.5973 12.8799 30.4859 12.6391C30.3745 12.3983 30.3633 12.1232 30.4548 11.8741C30.5463 11.6251 30.733 11.4226 30.9738 11.3112C31.2146 11.1998 31.4898 11.1886 31.7388 11.2801L44.7388 16.0601C44.9313 16.1304 45.0975 16.258 45.2151 16.4259C45.3326 16.5937 45.3957 16.7935 45.3959 16.9984C45.3961 17.2033 45.3334 17.4033 45.2163 17.5714C45.0991 17.7394 44.9331 17.8675 44.7408 17.9381L25.7408 24.9381C25.6302 24.9795 25.513 25.0005 25.3948 25.0001ZM25.3948 49.0001C25.2774 49.0007 25.1608 48.9797 25.0508 48.9381L14.4308 45.0381C14.1818 44.9466 13.9793 44.7599 13.8679 44.5191C13.7565 44.2783 13.7453 44.0032 13.8368 43.7541C13.9283 43.5051 14.115 43.3026 14.3558 43.1912C14.5966 43.0798 14.8718 43.0686 15.1208 43.1601L25.3948 46.9341L35.6708 43.1601C35.9199 43.0686 36.1951 43.0798 36.4359 43.1912C36.6767 43.3026 36.8633 43.5051 36.9548 43.7541C37.0463 44.0032 37.0352 44.2783 36.9238 44.5191C36.8124 44.7599 36.6099 44.9466 36.3608 45.0381L25.7408 48.9381C25.6302 48.9795 25.513 49.0005 25.3948 49.0001Z" fill="black" stroke="black"/>
<path d="M6.39453 36.52C6.12931 36.52 5.87496 36.4146 5.68742 36.2271C5.49989 36.0396 5.39453 35.7852 5.39453 35.52V17C5.39453 16.7348 5.49989 16.4804 5.68742 16.2929C5.87496 16.1054 6.12931 16 6.39453 16C6.65975 16 6.9141 16.1054 7.10164 16.2929C7.28917 16.4804 7.39453 16.7348 7.39453 17V35.52C7.39453 35.7852 7.28917 36.0396 7.10164 36.2271C6.9141 36.4146 6.65975 36.52 6.39453 36.52ZM44.3945 36.52C44.1293 36.52 43.875 36.4146 43.6874 36.2271C43.4999 36.0396 43.3945 35.7852 43.3945 35.52V17C43.3945 16.7348 43.4999 16.4804 43.6874 16.2929C43.875 16.1054 44.1293 16 44.3945 16C44.6597 16 44.9141 16.1054 45.1016 16.2929C45.2892 16.4804 45.3945 16.7348 45.3945 17V35.52C45.3945 35.7852 45.2892 36.0396 45.1016 36.2271C44.9141 36.4146 44.6597 36.52 44.3945 36.52ZM25.3945 17C25.1293 17 24.875 16.8946 24.6874 16.7071C24.4999 16.5196 24.3945 16.2652 24.3945 16V8C24.3945 7.73478 24.4999 7.48043 24.6874 7.29289C24.875 7.10536 25.1293 7 25.3945 7C25.6597 7 25.9141 7.10536 26.1016 7.29289C26.2892 7.48043 26.3945 7.73478 26.3945 8V16C26.3945 16.2652 26.2892 16.5196 26.1016 16.7071C25.9141 16.8946 25.6597 17 25.3945 17ZM43.2745 43.88C43.0092 43.88 42.7547 43.775 42.5665 43.588L37.6865 38.708C37.5044 38.5194 37.4036 38.2668 37.4059 38.0046C37.4081 37.7424 37.5133 37.4916 37.6987 37.3062C37.8841 37.1208 38.1349 37.0156 38.3971 37.0133C38.6593 37.011 38.9119 37.1118 39.1005 37.294L43.9805 42.174C44.1199 42.3138 44.2148 42.4918 44.2532 42.6855C44.2916 42.8792 44.2718 43.0799 44.1963 43.2624C44.1208 43.4448 43.993 43.6008 43.8289 43.7108C43.6649 43.8207 43.472 43.8796 43.2745 43.88ZM7.51453 43.88C7.3169 43.8799 7.12371 43.8213 6.95937 43.7116C6.79502 43.6018 6.66688 43.4458 6.59112 43.2633C6.51537 43.0808 6.4954 42.8799 6.53374 42.686C6.57208 42.4921 6.667 42.314 6.80653 42.174L11.6865 37.294C11.8751 37.1118 12.1277 37.011 12.3899 37.0133C12.6521 37.0156 12.9029 37.1208 13.0883 37.3062C13.2738 37.4916 13.3789 37.7424 13.3812 38.0046C13.3835 38.2668 13.2827 38.5194 13.1005 38.708L8.22053 43.588C8.12786 43.6807 8.01779 43.7543 7.89664 43.8044C7.77549 43.8545 7.64564 43.8802 7.51453 43.88ZM25.3945 49C25.1293 49 24.875 48.8946 24.6874 48.7071C24.4999 48.5196 24.3945 48.2652 24.3945 48V24C24.3945 23.7348 24.4999 23.4804 24.6874 23.2929C24.875 23.1054 25.1293 23 25.3945 23C25.6597 23 25.9141 23.1054 26.1016 23.2929C26.2892 23.4804 26.3945 23.7348 26.3945 24V48C26.3945 48.2652 26.2892 48.5196 26.1016 48.7071C25.9141 48.8946 25.6597 49 25.3945 49Z" fill="black" stroke="black"/>
<path d="M25.3965 9C23.1905 9 21.3965 7.206 21.3965 5C21.3965 2.794 23.1905 1 25.3965 1C27.6025 1 29.3965 2.794 29.3965 5C29.3965 7.206 27.6025 9 25.3965 9ZM25.3965 3C24.2945 3 23.3965 3.898 23.3965 5C23.3965 6.102 24.2945 7 25.3965 7C26.4985 7 27.3965 6.102 27.3965 5C27.3965 3.898 26.4985 3 25.3965 3ZM45.3965 49C43.1905 49 41.3965 47.206 41.3965 45C41.3965 42.794 43.1905 41 45.3965 41C47.6025 41 49.3965 42.794 49.3965 45C49.3965 47.206 47.6025 49 45.3965 49ZM45.3965 43C44.2945 43 43.3965 43.898 43.3965 45C43.3965 46.102 44.2945 47 45.3965 47C46.4985 47 47.3965 46.102 47.3965 45C47.3965 43.898 46.4985 43 45.3965 43ZM5.39648 49C3.19048 49 1.39648 47.206 1.39648 45C1.39648 42.794 3.19048 41 5.39648 41C7.60248 41 9.39648 42.794 9.39648 45C9.39648 47.206 7.60248 49 5.39648 49ZM5.39648 43C4.29448 43 3.39648 43.898 3.39648 45C3.39648 46.102 4.29448 47 5.39648 47C6.49848 47 7.39648 46.102 7.39648 45C7.39648 43.898 6.49848 43 5.39648 43Z" fill="black" stroke="black"/>
</svg>
