<svg width="50" height="50" fill="none" xmlns="http://www.w3.org/2000/svg"><g clip-path="url(#a)" fill="#2166F3"><path d="M48.416 0H2.583A4.588 4.588 0 0 0-2 4.583v32.084a4.588 4.588 0 0 0 4.583 4.583h16.045c-.05 1.832-.4 4.76-1.707 6.134-.48.506-1.032.74-1.733.74a1.145 1.145 0 1 0 0 2.293h20.624a1.145 1.145 0 1 0 0-2.292c-.701 0-1.253-.235-1.733-.74-1.307-1.376-1.658-4.303-1.707-6.135h16.045A4.588 4.588 0 0 0 53 36.667V4.583A4.588 4.588 0 0 0 48.416 0zM19.24 48.125c1.384-2.122 1.652-5.177 1.686-6.875h9.147c.035 1.699.303 4.753 1.686 6.875H19.24zm31.468-11.458a2.295 2.295 0 0 1-2.291 2.291H2.582a2.295 2.295 0 0 1-2.291-2.291v-4.584h50.416v4.584zm0-6.875H.292V4.583a2.295 2.295 0 0 1 2.291-2.291h45.833a2.295 2.295 0 0 1 2.292 2.291v25.209z"/><path d="M25.5 37.812a2.292 2.292 0 1 0 0-4.583 2.292 2.292 0 0 0 0 4.583zM25.5 6.875c-.849 0-1.562.485-1.958 1.173C11.2 8.323 6.435 14.693 6.058 20.952c-.693.394-1.183 1.111-1.183 1.965a2.295 2.295 0 0 0 2.292 2.291 2.295 2.295 0 0 0 2.291-2.291c0-.822-.459-1.512-1.111-1.916.24-3.218 2.27-10.373 15.233-10.66.404.656 1.096 1.117 1.92 1.117a2.295 2.295 0 0 0 2.291-2.291A2.295 2.295 0 0 0 25.5 6.875zM45.695 18.584 34.237 9.417a1.144 1.144 0 0 0-1.862.896v14.895a1.146 1.146 0 0 0 2.04.717l4.24-5.3h6.324a1.146 1.146 0 0 0 .716-2.04zm-7.59-.25c-.349 0-.678.157-.896.43l-2.542 3.178v-9.245l7.046 5.637h-3.609z"/></g><defs><clipPath id="a"><path fill="#fff" d="M0 0h50v50H0z"/></clipPath></defs></svg>