<svg width="53" height="55" viewBox="0 0 53 55" fill="none" xmlns="http://www.w3.org/2000/svg">
<g clip-path="url(#clip0_176_929)">
<path d="M12.1542 5.60484C16.2274 2.58006 21.1838 0.805664 26.5303 0.805664C40.406 0.805664 51.6544 12.7571 51.6544 27.5C51.6544 35.9929 47.9216 43.5595 42.1039 48.4486M10.9567 48.4486C5.13907 43.5596 1.40625 35.993 1.40625 27.5C1.40625 19.7967 4.47725 12.8554 9.38954 7.98306M16.7598 45.4414V52.1006M36.3008 45.4414V52.1006" stroke="#2166F3" stroke-width="2" stroke-miterlimit="10" stroke-linecap="round" stroke-linejoin="round"/>
<path d="M32.9161 27.0319C33.5501 25.9479 33.9473 24.6879 34.0288 23.3311L34.4844 15.7448C34.5066 15.374 34.5061 15.0076 34.4842 14.647H18.577C18.5548 15.0125 18.5547 15.3792 18.5768 15.7448L19.0323 23.3311C19.2847 27.5341 22.5667 30.8058 26.5305 30.8058C27.9402 30.8058 29.2637 30.392 30.3953 29.6696M11.8472 39.176C11.2652 40.1455 10.9563 41.2716 10.957 42.4215V48.4482C15.2363 52.0445 20.6436 54.1921 26.5229 54.194H26.5384C32.4178 54.1921 37.8249 52.0446 42.1043 48.4482V42.4215C42.1043 39.6495 40.3287 37.2332 37.7976 36.5608C30.4002 34.5959 22.6613 34.5959 15.2639 36.5608C14.9066 36.6556 14.5587 36.787 14.2253 36.9532" stroke="#2166F3" stroke-width="2" stroke-miterlimit="10" stroke-linecap="round" stroke-linejoin="round"/>
<path d="M26.5311 23.051C27.6874 23.051 28.6248 22.0551 28.6248 20.8265C28.6248 19.598 27.6874 18.6021 26.5311 18.6021C25.3749 18.6021 24.4375 19.598 24.4375 20.8265C24.4375 22.0551 25.3749 23.051 26.5311 23.051Z" stroke="#2166F3" stroke-width="2" stroke-miterlimit="10" stroke-linecap="round" stroke-linejoin="round"/>
<path d="M26.5312 23.051V26.0171M41.7976 40.4614C44.4725 36.9092 46.0722 32.4031 46.0722 27.5001C46.0722 16.0334 37.3234 6.73779 26.5312 6.73779C15.739 6.73779 6.99023 16.0334 6.99023 27.5001C6.99023 32.4031 8.58989 36.9092 11.2649 40.4614" stroke="#2166F3" stroke-width="2" stroke-miterlimit="10" stroke-linecap="round" stroke-linejoin="round"/>
<path d="M21.377 14.647C21.6384 11.8597 23.8677 9.70361 26.5301 9.70361C29.1924 9.70361 31.4216 11.8598 31.6831 14.647" stroke="#2166F3" stroke-width="2" stroke-miterlimit="10" stroke-linecap="round" stroke-linejoin="round"/>
<path d="M34.4833 14.6473C34.2168 10.2625 30.7813 6.73779 26.5297 6.73779C22.2781 6.73779 18.8426 10.2624 18.5762 14.6473" stroke="#2166F3" stroke-width="2" stroke-miterlimit="10" stroke-linecap="round" stroke-linejoin="round"/>
</g>
<defs>
<clipPath id="clip0_176_929">
<rect width="51.7647" height="55" fill="white" transform="translate(0.648438)"/>
</clipPath>
</defs>
</svg>
