<svg width="40" height="40" viewBox="0 0 40 40" fill="none" xmlns="http://www.w3.org/2000/svg">
<g clip-path="url(#clip0_176_882)">
<path d="M28.1436 21.1355C27.8406 23.0509 26.858 24.8103 25.3766 26.0896C24.1912 27.1137 22.7386 27.7789 21.1887 28.0073V29.8047H23.7248C24.2425 29.8047 24.6623 30.2245 24.6623 30.7422C24.6623 31.2599 24.2425 31.6797 23.7248 31.6797H16.7778C16.26 31.6797 15.8403 31.2599 15.8403 30.7422C15.8403 30.2245 16.26 29.8047 16.7778 29.8047H19.3137V28.0661C17.5902 27.9209 15.9454 27.2326 14.6219 26.0896C13.1405 24.8103 12.158 23.0509 11.855 21.1355C11.7741 20.6241 12.1231 20.144 12.6345 20.0631C13.1461 19.9823 13.6262 20.3313 13.707 20.8427C14.192 23.9088 16.8971 26.2209 19.9994 26.2209C23.1016 26.2209 25.8067 23.9088 26.2917 20.8427C26.3726 20.3313 26.8521 19.9823 27.3642 20.0631C27.8755 20.144 28.2245 20.6241 28.1436 21.1355ZM15.4232 19.8505V12.8963C15.4232 10.3731 17.4759 8.32031 19.9992 8.32031C22.5225 8.32031 24.5753 10.3731 24.5753 12.8963V19.8505C24.5753 22.3737 22.5226 24.4266 19.9993 24.4266C17.476 24.4266 15.4232 22.3737 15.4232 19.8505ZM17.2982 19.8505C17.2982 21.3398 18.5099 22.5516 19.9992 22.5516C21.4886 22.5516 22.7003 21.3398 22.7003 19.8505V12.8963C22.7003 11.407 21.4886 10.1953 19.9993 10.1953C18.51 10.1953 17.2982 11.407 17.2982 12.8963V19.8505ZM40.0005 20.0002C40.0005 31.0281 31.028 40 19.9993 40C8.97055 40 -0.00195312 31.0281 -0.00195312 20.0002C-0.00195312 8.97203 8.97055 0 19.9993 0C31.028 0 40.0005 8.97203 40.0005 20.0002ZM38.1255 20.0002C38.1255 10.0059 29.9941 1.875 19.9993 1.875C10.0045 1.875 1.87305 10.0059 1.87305 20.0002C1.87305 29.9942 10.0045 38.125 19.9993 38.125C29.9941 38.125 38.1255 29.9942 38.1255 20.0002Z" fill="#7B7B7B"/>
</g>
<defs>
<clipPath id="clip0_176_882">
<rect width="40" height="40" fill="white"/>
</clipPath>
</defs>
</svg>
